<?xml version="1.0" encoding="UTF-8" standalone="no"?>
<svg
   width="2555"
   height="400"
   viewBox="0 0 2555 400.00001"
   version="1.2"
   id="svg130"
   sodipodi:docname="13-1.svg"
   inkscape:version="1.3 (0e150ed6c4, 2023-07-21)"
   xmlns:inkscape="http://www.inkscape.org/namespaces/inkscape"
   xmlns:sodipodi="http://sodipodi.sourceforge.net/DTD/sodipodi-0.dtd"
   xmlns="http://www.w3.org/2000/svg"
   xmlns:svg="http://www.w3.org/2000/svg"
   xmlns:rdf="http://www.w3.org/1999/02/22-rdf-syntax-ns#"
   xmlns:cc="http://creativecommons.org/ns#"
   xmlns:dc="http://purl.org/dc/elements/1.1/">
  <defs
     id="defs130" />
  <sodipodi:namedview
     id="namedview130"
     pagecolor="#505050"
     bordercolor="#ffffff"
     borderopacity="1"
     inkscape:showpageshadow="0"
     inkscape:pageopacity="0"
     inkscape:pagecheckerboard="1"
     inkscape:deskcolor="#505050"
     inkscape:zoom="0.18605646"
     inkscape:cx="1486.108"
     inkscape:cy="2104.2"
     inkscape:window-width="1680"
     inkscape:window-height="979"
     inkscape:window-x="1358"
     inkscape:window-y="-8"
     inkscape:window-maximized="1"
     inkscape:current-layer="svg130" />
  <title
     id="title1">13</title>
  <desc
     id="desc1">Generated by MuseScore Studio 4.3.0</desc>
  <g
     id="g130"
     transform="translate(-209.6,-217.6555)">
    <polyline
       class="StaffLines"
       fill="none"
       stroke="#000000"
       stroke-width="2.73"
       stroke-linejoin="bevel"
       points="336.599,386.199 2764.6,386.199"
       id="polyline1" />
    <polyline
       class="StaffLines"
       fill="none"
       stroke="#000000"
       stroke-width="2.73"
       stroke-linejoin="bevel"
       points="336.599,410.999 2764.6,410.999"
       id="polyline2" />
    <polyline
       class="StaffLines"
       fill="none"
       stroke="#000000"
       stroke-width="2.73"
       stroke-linejoin="bevel"
       points="336.599,435.799 2764.6,435.799"
       id="polyline3" />
    <polyline
       class="StaffLines"
       fill="none"
       stroke="#000000"
       stroke-width="2.73"
       stroke-linejoin="bevel"
       points="336.599,460.599 2764.6,460.599"
       id="polyline4" />
    <polyline
       class="StaffLines"
       fill="none"
       stroke="#000000"
       stroke-width="2.73"
       stroke-linejoin="bevel"
       points="336.599,485.399 2764.6,485.399"
       id="polyline5" />
    <polyline
       class="BarLine"
       fill="none"
       stroke="#000000"
       stroke-width="4.46"
       stroke-linejoin="bevel"
       points="1361.65,384.835 1361.65,486.763"
       id="polyline6" />
    <polyline
       class="BarLine"
       fill="none"
       stroke="#000000"
       stroke-width="4.46"
       stroke-linejoin="bevel"
       points="1916.56,384.835 1916.56,486.763"
       id="polyline7" />
    <polyline
       class="BarLine"
       fill="none"
       stroke="#000000"
       stroke-width="4.46"
       stroke-linejoin="bevel"
       points="1052.48,384.835 1052.48,486.763"
       id="polyline8" />
    <polyline
       class="BarLine"
       fill="none"
       stroke="#000000"
       stroke-width="4.46"
       stroke-linejoin="bevel"
       points="2499.81,384.835 2499.81,486.763"
       id="polyline9" />
    <polyline
       class="BarLine"
       fill="none"
       stroke="#000000"
       stroke-width="4.46"
       stroke-linejoin="bevel"
       points="2739.55,384.835 2739.55,486.763"
       id="polyline10" />
    <polyline
       class="BarLine"
       fill="none"
       stroke="#000000"
       stroke-width="13.64"
       stroke-linejoin="bevel"
       points="2757.78,384.835 2757.78,486.763"
       id="polyline11" />
    <polyline
       class="BarLine"
       fill="none"
       stroke="#000000"
       stroke-width="4.46"
       stroke-linejoin="bevel"
       points="1601.39,384.835 1601.39,486.763"
       id="polyline12" />
    <polyline
       class="BarLine"
       fill="none"
       stroke="#000000"
       stroke-width="4.46"
       stroke-linejoin="bevel"
       points="2190.64,384.835 2190.64,486.763"
       id="polyline13" />
    <polyline
       class="BarLine"
       fill="none"
       stroke="#000000"
       stroke-width="4.46"
       stroke-linejoin="bevel"
       points="778.396,384.835 778.396,486.763"
       id="polyline14" />
    <polyline
       class="LedgerLine"
       fill="none"
       stroke="#000000"
       stroke-width="3.97"
       stroke-linejoin="bevel"
       points="2627.62,510.199 2676.22,510.199"
       id="polyline15" />
    <polyline
       class="LedgerLine"
       fill="none"
       stroke="#000000"
       stroke-width="3.97"
       stroke-linejoin="bevel"
       points="2526.1,510.199 2574.7,510.199"
       id="polyline16" />
    <polyline
       class="LedgerLine"
       fill="none"
       stroke="#000000"
       stroke-width="3.97"
       stroke-linejoin="bevel"
       points="1387.94,510.199 1436.54,510.199"
       id="polyline17" />
    <polyline
       class="Stem"
       fill="none"
       stroke="#000000"
       stroke-width="2.48"
       stroke-linejoin="bevel"
       points="1427.11,506.231 1427.11,423.399"
       id="polyline18" />
    <polyline
       class="Stem"
       fill="none"
       stroke="#000000"
       stroke-width="2.48"
       stroke-linejoin="bevel"
       points="2050.21,481.431 2050.21,392.29"
       id="polyline19" />
    <polyline
       class="Stem"
       fill="none"
       stroke="#000000"
       stroke-width="2.48"
       stroke-linejoin="bevel"
       points="2117.89,469.031 2117.89,386.199"
       id="polyline20" />
    <polyline
       class="Stem"
       fill="none"
       stroke="#000000"
       stroke-width="2.48"
       stroke-linejoin="bevel"
       points="566.526,456.631 566.526,373.799"
       id="polyline21" />
    <polyline
       class="Stem"
       fill="none"
       stroke="#000000"
       stroke-width="2.48"
       stroke-linejoin="bevel"
       points="2256.11,481.431 2256.11,410.999"
       id="polyline22" />
    <polyline
       class="Stem"
       fill="none"
       stroke="#000000"
       stroke-width="2.48"
       stroke-linejoin="bevel"
       points="2323.79,481.431 2323.79,410.999"
       id="polyline23" />
    <polyline
       class="Stem"
       fill="none"
       stroke="#000000"
       stroke-width="2.48"
       stroke-linejoin="bevel"
       points="2391.46,493.831 2391.46,417.199"
       id="polyline24" />
    <polyline
       class="Stem"
       fill="none"
       stroke="#000000"
       stroke-width="2.48"
       stroke-linejoin="bevel"
       points="668.043,456.631 668.043,386.199"
       id="polyline25" />
    <polyline
       class="Stem"
       fill="none"
       stroke="#000000"
       stroke-width="2.48"
       stroke-linejoin="bevel"
       points="2565.28,506.231 2565.28,423.399"
       id="polyline26" />
    <polyline
       class="Stem"
       fill="none"
       stroke="#000000"
       stroke-width="2.48"
       stroke-linejoin="bevel"
       points="2666.8,506.231 2666.8,423.399"
       id="polyline27" />
    <polyline
       class="Stem"
       fill="none"
       stroke="#000000"
       stroke-width="2.48"
       stroke-linejoin="bevel"
       points="1982.03,456.631 1982.03,386.307"
       id="polyline28" />
    <polyline
       class="Stem"
       fill="none"
       stroke="#000000"
       stroke-width="2.48"
       stroke-linejoin="bevel"
       points="737.723,456.631 737.723,386.199"
       id="polyline29" />
    <polyline
       class="Stem"
       fill="none"
       stroke="#000000"
       stroke-width="2.48"
       stroke-linejoin="bevel"
       points="2459.14,493.831 2459.14,417.199"
       id="polyline30" />
    <polyline
       class="Stem"
       fill="none"
       stroke="#000000"
       stroke-width="2.48"
       stroke-linejoin="bevel"
       points="1736.53,456.631 1736.53,386.199"
       id="polyline31" />
    <polyline
       class="Stem"
       fill="none"
       stroke="#000000"
       stroke-width="2.48"
       stroke-linejoin="bevel"
       points="912.04,481.431 912.04,392.29"
       id="polyline32" />
    <polyline
       class="Stem"
       fill="none"
       stroke="#000000"
       stroke-width="2.48"
       stroke-linejoin="bevel"
       points="1528.63,481.431 1528.63,398.599"
       id="polyline33" />
    <polyline
       class="Stem"
       fill="none"
       stroke="#000000"
       stroke-width="2.48"
       stroke-linejoin="bevel"
       points="979.718,469.031 979.718,386.199"
       id="polyline34" />
    <polyline
       class="Stem"
       fill="none"
       stroke="#000000"
       stroke-width="2.48"
       stroke-linejoin="bevel"
       points="1185.62,481.431 1185.62,410.999"
       id="polyline35" />
    <polyline
       class="Stem"
       fill="none"
       stroke="#000000"
       stroke-width="2.48"
       stroke-linejoin="bevel"
       points="1875.89,456.631 1875.89,386.199"
       id="polyline36" />
    <polyline
       class="Stem"
       fill="none"
       stroke="#000000"
       stroke-width="2.48"
       stroke-linejoin="bevel"
       points="1117.94,481.431 1117.94,410.999"
       id="polyline37" />
    <polyline
       class="Stem"
       fill="none"
       stroke="#000000"
       stroke-width="2.48"
       stroke-linejoin="bevel"
       points="1666.85,456.631 1666.85,386.199"
       id="polyline38" />
    <polyline
       class="Stem"
       fill="none"
       stroke="#000000"
       stroke-width="2.48"
       stroke-linejoin="bevel"
       points="843.86,456.631 843.86,386.307"
       id="polyline39" />
    <polyline
       class="Stem"
       fill="none"
       stroke="#000000"
       stroke-width="2.48"
       stroke-linejoin="bevel"
       points="1253.3,493.831 1253.3,417.199"
       id="polyline40" />
    <polyline
       class="Stem"
       fill="none"
       stroke="#000000"
       stroke-width="2.48"
       stroke-linejoin="bevel"
       points="1806.21,456.631 1806.21,386.199"
       id="polyline41" />
    <polyline
       class="Stem"
       fill="none"
       stroke="#000000"
       stroke-width="2.48"
       stroke-linejoin="bevel"
       points="1320.98,493.831 1320.98,417.199"
       id="polyline42" />
    <path
       class="Note"
       transform="matrix(0.992001,0,0,0.992001,1705.54,460.599)"
       d="M 0,4.20313 C 0,8.5 3.09375,13.2969 11.2031,13.2969 21.5938,13.2969 32.5,4.79688 32.5,-4 c 0,-5.90625 -5,-9.2031 -11.2031,-9.2031 C 11.5938,-13.2031 0,-5 0,4.20313"
       id="path42" />
    <path
       class="Note"
       transform="matrix(0.992001,0,0,0.992001,2428.15,497.799)"
       d="M 0,4.20313 C 0,8.5 3.09375,13.2969 11.2031,13.2969 21.5938,13.2969 32.5,4.79688 32.5,-4 c 0,-5.90625 -5,-9.2031 -11.2031,-9.2031 C 11.5938,-13.2031 0,-5 0,4.20313"
       id="path43" />
    <path
       class="Note"
       transform="matrix(0.992001,0,0,0.992001,948.726,472.999)"
       d="M 0,4.20313 C 0,8.5 3.09375,13.2969 11.2031,13.2969 21.5938,13.2969 32.5,4.79688 32.5,-4 c 0,-5.90625 -5,-9.2031 -11.2031,-9.2031 C 11.5938,-13.2031 0,-5 0,4.20313"
       id="path44" />
    <path
       class="Note"
       transform="matrix(0.992001,0,0,0.992001,535.534,460.599)"
       d="M 0,4.20313 C 0,8.5 3.09375,13.2969 11.2031,13.2969 21.5938,13.2969 32.5,4.79688 32.5,-4 c 0,-5.90625 -5,-9.2031 -11.2031,-9.2031 C 11.5938,-13.2031 0,-5 0,4.20313"
       id="path45" />
    <path
       class="Note"
       transform="matrix(0.992001,0,0,0.992001,2360.47,497.799)"
       d="M 0,4.20313 C 0,8.5 3.09375,13.2969 11.2031,13.2969 21.5938,13.2969 32.5,4.79688 32.5,-4 c 0,-5.90625 -5,-9.2031 -11.2031,-9.2031 C 11.5938,-13.2031 0,-5 0,4.20313"
       id="path46" />
    <path
       class="Note"
       transform="matrix(0.992001,0,0,0.992001,1951.04,460.599)"
       d="M 0,4.20313 C 0,8.5 3.09375,13.2969 11.2031,13.2969 21.5938,13.2969 32.5,4.79688 32.5,-4 c 0,-5.90625 -5,-9.2031 -11.2031,-9.2031 C 11.5938,-13.2031 0,-5 0,4.20313"
       id="path47" />
    <path
       class="Note"
       transform="matrix(0.992001,0,0,0.992001,1775.22,460.599)"
       d="M 0,4.20313 C 0,8.5 3.09375,13.2969 11.2031,13.2969 21.5938,13.2969 32.5,4.79688 32.5,-4 c 0,-5.90625 -5,-9.2031 -11.2031,-9.2031 C 11.5938,-13.2031 0,-5 0,4.20313"
       id="path48" />
    <path
       class="Note"
       transform="matrix(0.992001,0,0,0.992001,1396.12,510.199)"
       d="M 0,4.20313 C 0,8.5 3.09375,13.2969 11.2031,13.2969 21.5938,13.2969 32.5,4.79688 32.5,-4 c 0,-5.90625 -5,-9.2031 -11.2031,-9.2031 C 11.5938,-13.2031 0,-5 0,4.20313"
       id="path49" />
    <path
       class="Note"
       transform="matrix(0.992001,0,0,0.992001,706.731,460.599)"
       d="M 0,4.20313 C 0,8.5 3.09375,13.2969 11.2031,13.2969 21.5938,13.2969 32.5,4.79688 32.5,-4 c 0,-5.90625 -5,-9.2031 -11.2031,-9.2031 C 11.5938,-13.2031 0,-5 0,4.20313"
       id="path50" />
    <path
       class="Note"
       transform="matrix(0.992001,0,0,0.992001,2292.79,485.399)"
       d="M 0,4.20313 C 0,8.5 3.09375,13.2969 11.2031,13.2969 21.5938,13.2969 32.5,4.79688 32.5,-4 c 0,-5.90625 -5,-9.2031 -11.2031,-9.2031 C 11.5938,-13.2031 0,-5 0,4.20313"
       id="path51" />
    <path
       class="Note"
       transform="matrix(0.992001,0,0,0.992001,1086.95,485.399)"
       d="M 0,4.20313 C 0,8.5 3.09375,13.2969 11.2031,13.2969 21.5938,13.2969 32.5,4.79688 32.5,-4 c 0,-5.90625 -5,-9.2031 -11.2031,-9.2031 C 11.5938,-13.2031 0,-5 0,4.20313"
       id="path52" />
    <path
       class="Note"
       transform="matrix(0.992001,0,0,0.992001,1154.63,485.399)"
       d="M 0,4.20313 C 0,8.5 3.09375,13.2969 11.2031,13.2969 21.5938,13.2969 32.5,4.79688 32.5,-4 c 0,-5.90625 -5,-9.2031 -11.2031,-9.2031 C 11.5938,-13.2031 0,-5 0,4.20313"
       id="path53" />
    <path
       class="Note"
       transform="matrix(0.992001,0,0,0.992001,1222.3,497.799)"
       d="M 0,4.20313 C 0,8.5 3.09375,13.2969 11.2031,13.2969 21.5938,13.2969 32.5,4.79688 32.5,-4 c 0,-5.90625 -5,-9.2031 -11.2031,-9.2031 C 11.5938,-13.2031 0,-5 0,4.20313"
       id="path54" />
    <path
       class="Note"
       transform="matrix(0.992001,0,0,0.992001,2019.22,485.399)"
       d="M 0,4.20313 C 0,8.5 3.09375,13.2969 11.2031,13.2969 21.5938,13.2969 32.5,4.79688 32.5,-4 c 0,-5.90625 -5,-9.2031 -11.2031,-9.2031 C 11.5938,-13.2031 0,-5 0,4.20313"
       id="path55" />
    <path
       class="Note"
       transform="matrix(0.992001,0,0,0.992001,2225.12,485.399)"
       d="M 0,4.20313 C 0,8.5 3.09375,13.2969 11.2031,13.2969 21.5938,13.2969 32.5,4.79688 32.5,-4 c 0,-5.90625 -5,-9.2031 -11.2031,-9.2031 C 11.5938,-13.2031 0,-5 0,4.20313"
       id="path56" />
    <path
       class="Note"
       transform="matrix(0.992001,0,0,0.992001,2086.89,472.999)"
       d="M 0,4.20313 C 0,8.5 3.09375,13.2969 11.2031,13.2969 21.5938,13.2969 32.5,4.79688 32.5,-4 c 0,-5.90625 -5,-9.2031 -11.2031,-9.2031 C 11.5938,-13.2031 0,-5 0,4.20313"
       id="path57" />
    <path
       class="Note"
       transform="matrix(0.992001,0,0,0.992001,1497.64,485.399)"
       d="M 0,4.20313 C 0,8.5 3.09375,13.2969 11.2031,13.2969 21.5938,13.2969 32.5,4.79688 32.5,-4 c 0,-5.90625 -5,-9.2031 -11.2031,-9.2031 C 11.5938,-13.2031 0,-5 0,4.20313"
       id="path58" />
    <path
       class="Note"
       transform="matrix(0.992001,0,0,0.992001,1844.9,460.599)"
       d="M 0,4.20313 C 0,8.5 3.09375,13.2969 11.2031,13.2969 21.5938,13.2969 32.5,4.79688 32.5,-4 c 0,-5.90625 -5,-9.2031 -11.2031,-9.2031 C 11.5938,-13.2031 0,-5 0,4.20313"
       id="path59" />
    <path
       class="Note"
       transform="matrix(0.992001,0,0,0.992001,881.048,485.399)"
       d="M 0,4.20313 C 0,8.5 3.09375,13.2969 11.2031,13.2969 21.5938,13.2969 32.5,4.79688 32.5,-4 c 0,-5.90625 -5,-9.2031 -11.2031,-9.2031 C 11.5938,-13.2031 0,-5 0,4.20313"
       id="path60" />
    <path
       class="Note"
       transform="matrix(0.992001,0,0,0.992001,1289.98,497.799)"
       d="M 0,4.20313 C 0,8.5 3.09375,13.2969 11.2031,13.2969 21.5938,13.2969 32.5,4.79688 32.5,-4 c 0,-5.90625 -5,-9.2031 -11.2031,-9.2031 C 11.5938,-13.2031 0,-5 0,4.20313"
       id="path61" />
    <path
       class="Note"
       transform="matrix(0.992001,0,0,0.992001,812.868,460.599)"
       d="M 0,4.20313 C 0,8.5 3.09375,13.2969 11.2031,13.2969 21.5938,13.2969 32.5,4.79688 32.5,-4 c 0,-5.90625 -5,-9.2031 -11.2031,-9.2031 C 11.5938,-13.2031 0,-5 0,4.20313"
       id="path62" />
    <path
       class="Note"
       transform="matrix(0.992001,0,0,0.992001,2534.29,510.199)"
       d="M 0,4.20313 C 0,8.5 3.09375,13.2969 11.2031,13.2969 21.5938,13.2969 32.5,4.79688 32.5,-4 c 0,-5.90625 -5,-9.2031 -11.2031,-9.2031 C 11.5938,-13.2031 0,-5 0,4.20313"
       id="path63" />
    <path
       class="Note"
       transform="matrix(0.992001,0,0,0.992001,1635.86,460.599)"
       d="M 0,4.20313 C 0,8.5 3.09375,13.2969 11.2031,13.2969 21.5938,13.2969 32.5,4.79688 32.5,-4 c 0,-5.90625 -5,-9.2031 -11.2031,-9.2031 C 11.5938,-13.2031 0,-5 0,4.20313"
       id="path64" />
    <path
       class="Note"
       transform="matrix(0.992001,0,0,0.992001,637.051,460.599)"
       d="M 0,4.20313 C 0,8.5 3.09375,13.2969 11.2031,13.2969 21.5938,13.2969 32.5,4.79688 32.5,-4 c 0,-5.90625 -5,-9.2031 -11.2031,-9.2031 C 11.5938,-13.2031 0,-5 0,4.20313"
       id="path65" />
    <path
       class="Note"
       transform="matrix(0.992001,0,0,0.992001,2635.8,510.199)"
       d="M 0,4.20313 C 0,8.5 3.09375,13.2969 11.2031,13.2969 21.5938,13.2969 32.5,4.79688 32.5,-4 c 0,-5.90625 -5,-9.2031 -11.2031,-9.2031 C 11.5938,-13.2031 0,-5 0,4.20313"
       id="path66" />
    <path
       class="Clef"
       transform="matrix(0.992001,0,0,0.992001,355.199,460.599)"
       d="m 12.2969,51.2969 c 0,6.6094 5,15.3125 18.5,15.3125 4.7031,0 8.8125,-1.2031 12.4062,-3.4063 C 48.6094,59.4063 50,52.7969 50,46.5 c 0,-3.8906 -0.5937,-8.3906 -1.5937,-14.0937 -0.2969,-2 -0.9063,-5 -1.5,-8.9063 C 56.7031,20.2969 64,10.0938 64,-0.203125 64,-15.2969 53.2969,-25.5 38.7031,-25.5 c -1,-6 -2,-11.9063 -2.7968,-17.5 10.5,-11.1094 17.7968,-23.6094 17.7968,-39.5 0,-9.1094 -2.7968,-16.5 -4.4062,-20.109 -2.3906,-5.094 -5.2969,-8.594 -7.0938,-8.594 -0.7031,0 -3.7968,1.203 -7.0937,5.094 -6.4063,7.609 -8.2031,20.4059 -8.2031,28.7965 0,5.4062 0.5,10.3125 2.2031,21.5156 -0.1094,0.0938 -5.3125,5.3906 -7.4063,7.0938 C 12.5938,-40.2969 0,-28.1094 0,-8.09375 0,10.5938 16.2969,25.2969 34.9063,25.2969 c 2.8906,0 5.5937,-0.2969 7.8906,-0.7031 1.9062,9.6093 3.1094,16.6093 3.1094,21.9062 0,10.4063 -5.4063,15.9063 -15.5,15.9063 -2.4063,0 -4.5,-0.5 -4.7032,-0.5 -0.0937,-0.1094 -0.2968,-0.2032 -0.2968,-0.2969 0,-0.2031 0.2031,-0.3125 0.5,-0.3125 C 30.6094,60.5 35.2969,56.5 35.2969,50.1094 35.2969,44.7031 31.2031,39 23.7031,39 c -7,0 -11.4062,5.7031 -11.4062,12.2969 m 20.9062,-133.5 c 0.9063,-4 5.5,-14.5 10.7032,-14.5 1.5,0 3.8906,4.7968 3.8906,11.7968 0,10.4063 -7.6875,18.2032 -14.5938,25 -0.5937,-4 -1.0937,-7.8906 -1.0937,-12.0937 0,-3.7031 0.2969,-7.1094 1.0937,-10.2031 M 42,20.5938 c -2,0.4062 -3.8906,0.6093 -5.7969,0.6093 -14.2968,0 -26.49997,-10 -26.49997,-25.10935 0,-12.18755 8.59377,-23.09375 17.40627,-30.70315 1.6875,-1.5 3.2969,-2.8906 4.7969,-4.3906 0.8906,5.3906 1.5937,10.0937 2.2968,14.2031 -9.1093,2.7031 -15.2968,12.2969 -15.2968,21.70315 0,7 5.5,16.59375 13.5,16.59375 0.7968,0 1.7031,-0.4062 1.7031,-1.2969 0,-0.9062 -1,-1.4062 -2.2031,-2.2031 C 28,7.59375 25.7969,5 25.7969,0.09375 25.7969,-6 30.4063,-10.9063 36.2031,-12.2969 L 42,20.5938 M 56.2031,2.09375 c 0,7.10938 -2.9062,14.40625 -10,17.31255 -2.0937,-12.00005 -4.7968,-27.9063 -5.5,-32.3126 9,0 15.5,6.10942 15.5,15.00005"
       id="path67" />
    <path
       class="TimeSig"
       transform="matrix(0.992001,0,0,0.992001,445.362,411.495)"
       d="m 34.2031,3.90625 c -0.7968,2.1875 -2.7968,9.39065 -7.7031,9.39065 -6.5,0 -7.9062,-4.00002 -13.2969,-4.00002 -0.7968,0 -1.6093,0.10937 -2.6093,0.29687 0,0 2.5,-3.79687 13.1093,-7.09375 C 34.2969,-0.796875 37,-6 37,-12 c 0,-4.2031 -1.8906,-12.5 -17,-12.5 -15.09375,0 -17.90625,9.0937 -17.90625,13.7031 0,4.09377 3.40625,7.39065 7.5,7.39065 4.10935,0 7.40625,-3.29688 7.40625,-7.39065 0,-2.7969 -2,-5.9062 -4.5937,-6.9062 -0.3125,-0.0938 -0.7032,-0.5938 -0.7032,-1.0938 0,-0.6094 0.5,-1.2969 2.2969,-1.7969 0.5,-0.2031 1.9063,-0.5 3.4063,-0.5 5.6875,0 6.7968,3.5 6.7968,8.5938 0,11.703125 -13.9062,14.20313 -19.7031,22.9063 0,0 -3,4.1875 -3,8.8906 0,4.7031 2.40625,5 3.59375,5 1.60938,0 3.3125,-1.2969 3.3125,-3.0938 0,-0.4062 -0.10937,-0.7968 -0.3125,-1.2968 C 7.5,18.5 7.29688,17.4063 7.29688,16.5938 c 0,-0.2969 0,-0.5938 0.10937,-0.8907 0.09375,-0.6093 0.89063,-1.6093 3.29685,-1.6093 2.8907,0 4,3.4062 5.7969,6 1.7969,2.6093 4.5938,4.2031 7.7969,4.2031 3.2031,0 7.5,-2.2969 9.3125,-6 C 35.4063,14.5938 37.7031,7.09375 37.7031,4.40625 37.7031,3.09375 36.9063,2.5 36,2.5 c -0.7031,0 -1.3906,0.40625 -1.7969,1.40625"
       id="path68" />
    <path
       class="TimeSig"
       transform="matrix(0.992001,0,0,0.992001,442.092,460.599)"
       d="m 20.7969,12.7031 v 7.3907 H 12.5 c -0.7031,0 -1.4062,0.6093 -1.4062,1.4062 v 1.9063 c 0,0.7968 0.7031,1.3906 1.4062,1.3906 h 30.2969 c 0.8125,0 1.4062,-0.5938 1.4062,-1.3906 V 21.5 c 0,-0.7969 -0.5937,-1.4062 -1.4062,-1.4062 h -8.8906 v -7.3907 h 8.8906 c 0.8125,0 1.4062,-0.7031 1.4062,-1.5 V 9.29688 c 0,-0.70313 -0.5937,-1.39063 -1.4062,-1.39063 H 33.9063 V -8 c 0,-0.59375 -0.2969,-1.09375 -0.7969,-1.29688 L 31.9063,-9.90625 C 31.7031,-10 31.4063,-10.0938 31.2031,-10.0938 30.9063,-10 30.5,-9.90625 30.2969,-9.70313 l -9.0938,8.29688 c -0.2968,0.3125 -0.4062,0.703125 -0.4062,1.109375 V 7.90625 H 9.29688 c 0,0 11.10942,-12 22.90622,-27.81255 0.4063,-0.5 0.5,-1 0.5,-1.3906 0,-0.5 -0.2031,-0.9062 -0.2968,-1 L 30.2031,-24.5 c -0.2031,-0.2031 -0.5937,-0.4063 -1,-0.4063 -0.5937,0 -14.1093,0 -14.7968,0 -0.8125,0 -1.3125,0.6094 -1.4063,1.2032 0,0 -0.5,7.4062 -3.09375,15.49997 -2.60937,8.10938 -5.60937,13.10938 -8.20312,16.79688 0,0 -0.29688,0.5 -0.29688,1.10938 0,0.20312 0,0.39067 0.09375,0.59377 0.40625,0.7031 1,1.7969 1,1.7969 0,0 0.20313,0.6093 1.09375,0.6093 H 20.7969"
       id="path69" />
    <path
       class="Beam"
       fill-rule="evenodd"
       d="m 1252.06,410.999 h 70.16 v 12.4 h -70.16 v -12.4"
       id="path70" />
    <path
       class="Beam"
       fill-rule="evenodd"
       d="m 842.62,379.975 70.66,6.2 v 12.447 l -70.66,-6.2 v -12.447"
       id="path71" />
    <path
       class="Beam"
       fill-rule="evenodd"
       d="m 2254.87,404.799 h 70.16 v 12.4 h -70.16 v -12.4"
       id="path72" />
    <path
       class="Beam"
       fill-rule="evenodd"
       d="m 1665.61,379.999 h 72.16 v 12.4 h -72.16 v -12.4"
       id="path73" />
    <path
       class="Beam"
       fill-rule="evenodd"
       d="m 1116.7,404.799 h 70.16 v 12.4 h -70.16 v -12.4"
       id="path74" />
    <path
       class="Beam"
       fill-rule="evenodd"
       d="m 666.803,379.999 h 72.16 v 12.4 h -72.16 v -12.4"
       id="path75" />
    <path
       class="Beam"
       fill-rule="evenodd"
       d="m 1980.79,379.975 70.66,6.2 v 12.447 l -70.66,-6.2 v -12.447"
       id="path76" />
    <path
       class="Beam"
       fill-rule="evenodd"
       d="m 2390.22,410.999 h 70.16 v 12.4 h -70.16 v -12.4"
       id="path77" />
    <path
       class="Beam"
       fill-rule="evenodd"
       d="m 1804.97,379.999 h 72.16 v 12.4 h -72.16 v -12.4"
       id="path78" />
    <path
       class="Lyrics"
       d="m 1083.11,562.094 -8.89,0.547 v 2.156 h 2.05 c 1.89,0.047 2.14,0.344 2.14,2.5 v 14.297 c -0.05,0.75 -0.1,1.047 -0.3,1.297 -0.34,0.453 -1.3,0.656 -3.45,0.703 h -0.19 v 1.797 h 12.59 v -1.797 h -0.2 c -3.3,-0.109 -3.75,-0.359 -3.75,-2.203 v -9.25 c 0,-4.453 2.45,-7.75 5.7,-7.75 2.85,0 4.3,2.047 4.3,6.094 v 11.156 c -0.05,0.656 -0.09,1 -0.34,1.25 -0.3,0.453 -1.3,0.656 -3.46,0.703 h -0.2 v 1.797 h 12.66 v -1.797 h -0.21 c -3.29,-0.109 -3.75,-0.359 -3.75,-2.156 v -8.844 c 0,-5 2.25,-8.203 5.75,-8.203 2.86,0 4.25,2.156 4.25,6.656 v 10.547 c -0.04,0.703 -0.09,1.047 -0.34,1.297 -0.3,0.453 -1.3,0.656 -3.45,0.703 h -0.21 v 1.797 h 12.66 v -1.797 h -0.2 c -3.3,-0.109 -3.75,-0.359 -3.75,-2.203 v -11.344 c 0,-3.109 -0.3,-4.156 -1.6,-5.859 -1.45,-1.844 -3.5,-2.844 -5.9,-2.844 -3.25,0 -5.66,1.547 -7.8,5 -0.86,-3 -3.56,-5 -6.91,-5 -3.04,0 -5.25,1.453 -7.2,4.594 v -3.844 m 41.91,-12.453 c -1.61,0 -2.91,1.297 -2.91,2.89 0,1.61 1.3,2.907 2.86,2.907 1.64,0 2.94,-1.297 2.94,-2.907 0,-1.593 -1.3,-2.89 -2.89,-2.89 m 2.34,12.453 -9.39,0.547 v 2.156 h 2.55 c 1.89,0.047 2.14,0.344 2.14,2.5 v 14.297 c -0.05,0.75 -0.1,1.047 -0.3,1.297 -0.34,0.453 -1.3,0.656 -3.45,0.703 h -0.35 v 1.797 h 12.96 v -1.797 h -0.36 c -3.35,-0.109 -3.8,-0.359 -3.8,-2.156 v -19.344"
       id="path79" />
    <path
       class="Lyrics"
       d="m 1150.79,562.094 -8.89,0.547 v 2.156 h 2.05 c 1.89,0.047 2.14,0.344 2.14,2.5 v 14.297 c -0.05,0.75 -0.1,1.047 -0.3,1.297 -0.34,0.453 -1.3,0.656 -3.45,0.703 h -0.19 v 1.797 h 12.59 v -1.797 h -0.2 c -3.3,-0.109 -3.75,-0.359 -3.75,-2.203 v -9.25 c 0,-4.453 2.45,-7.75 5.7,-7.75 2.85,0 4.3,2.047 4.3,6.094 v 11.156 c -0.05,0.656 -0.09,1 -0.34,1.25 -0.3,0.453 -1.3,0.656 -3.46,0.703 h -0.2 v 1.797 h 12.66 v -1.797 h -0.21 c -3.29,-0.109 -3.75,-0.359 -3.75,-2.156 v -8.844 c 0,-5 2.25,-8.203 5.75,-8.203 2.86,0 4.25,2.156 4.25,6.656 v 10.547 c -0.04,0.703 -0.09,1.047 -0.34,1.297 -0.3,0.453 -1.3,0.656 -3.45,0.703 h -0.21 v 1.797 h 12.66 v -1.797 h -0.2 c -3.3,-0.109 -3.75,-0.359 -3.75,-2.203 v -11.344 c 0,-3.109 -0.3,-4.156 -1.6,-5.859 -1.45,-1.844 -3.5,-2.844 -5.9,-2.844 -3.25,0 -5.66,1.547 -7.8,5 -0.86,-3 -3.56,-5 -6.91,-5 -3.04,0 -5.25,1.453 -7.2,4.594 v -3.844 m 41.91,-12.453 c -1.61,0 -2.91,1.297 -2.91,2.89 0,1.61 1.3,2.907 2.86,2.907 1.64,0 2.94,-1.297 2.94,-2.907 0,-1.593 -1.3,-2.89 -2.89,-2.89 m 2.34,12.453 -9.39,0.547 v 2.156 h 2.55 c 1.89,0.047 2.14,0.344 2.14,2.5 v 14.297 c -0.05,0.75 -0.1,1.047 -0.3,1.297 -0.34,0.453 -1.3,0.656 -3.45,0.703 h -0.35 v 1.797 h 12.96 v -1.797 h -0.36 c -3.35,-0.109 -3.8,-0.359 -3.8,-2.156 v -19.344"
       id="path80" />
    <path
       class="Lyrics"
       d="m 1224.83,562.094 -8.86,0.547 v 2.156 h 2.04 c 1.91,0.047 2.16,0.344 2.16,2.5 v 14.297 c -0.05,0.75 -0.09,1.047 -0.3,1.297 -0.36,0.453 -1.36,0.656 -3.5,0.703 h -0.2 v 1.797 h 13.34 v -1.797 h -0.89 c -3.36,-0.109 -3.79,-0.359 -3.79,-2.156 v -2.703 c 0.04,-8.391 3.04,-14.797 6.93,-15 -0.68,0.812 -0.89,1.312 -0.89,2.25 0,1.609 1.14,2.75 2.75,2.75 1.85,0 3.05,-1.344 3.05,-3.344 0,-2.453 -1.7,-4.047 -4.34,-4.047 -3.16,0 -5.86,2.5 -7.5,6.953 v -6.203 m 35.34,12.047 c 0.05,-7.5 -4.2,-12.797 -10.3,-12.797 -6.4,0 -11.2,5.547 -11.2,13.047 0,7.047 4.55,11.75 11.3,11.75 4.79,0 8.15,-2.344 10.2,-7.094 l -1.75,-0.953 c -2.05,3.844 -4.16,5.344 -7.5,5.344 -2.55,0 -4.41,-1.047 -5.7,-3.297 -0.89,-1.5 -1.3,-3.25 -1.25,-6 h 16.2 m -16.16,-2.156 c 0,-3.5 1.61,-8.5 5.82,-8.5 3,0 5,2.656 5,6.703 0,1.406 -0.46,1.797 -2.07,1.797 h -8.75"
       id="path81" />
    <path
       class="Lyrics"
       d="m 2221.28,562.094 -8.89,0.547 v 2.156 h 2.04 c 1.9,0.047 2.15,0.344 2.15,2.5 v 14.297 c -0.05,0.75 -0.1,1.047 -0.3,1.297 -0.35,0.453 -1.3,0.656 -3.45,0.703 h -0.19 v 1.797 h 12.59 v -1.797 h -0.2 c -3.3,-0.109 -3.75,-0.359 -3.75,-2.203 v -9.25 c 0,-4.453 2.45,-7.75 5.7,-7.75 2.85,0 4.3,2.047 4.3,6.094 v 11.156 c -0.05,0.656 -0.1,1 -0.35,1.25 -0.29,0.453 -1.29,0.656 -3.45,0.703 h -0.2 v 1.797 h 12.65 v -1.797 h -0.2 c -3.3,-0.109 -3.75,-0.359 -3.75,-2.156 v -8.844 c 0,-5 2.25,-8.203 5.75,-8.203 2.86,0 4.25,2.156 4.25,6.656 v 10.547 c -0.05,0.703 -0.09,1.047 -0.34,1.297 -0.3,0.453 -1.3,0.656 -3.46,0.703 h -0.2 v 1.797 h 12.66 v -1.797 h -0.21 c -3.29,-0.109 -3.75,-0.359 -3.75,-2.203 v -11.344 c 0,-3.109 -0.29,-4.156 -1.59,-5.859 -1.45,-1.844 -3.5,-2.844 -5.91,-2.844 -3.25,0 -5.65,1.547 -7.79,5 -0.86,-3 -3.56,-5 -6.91,-5 -3.05,0 -5.25,1.453 -7.2,4.594 v -3.844 m 41.9,-12.453 c -1.6,0 -2.9,1.297 -2.9,2.89 0,1.61 1.3,2.907 2.86,2.907 1.64,0 2.94,-1.297 2.94,-2.907 0,-1.593 -1.3,-2.89 -2.9,-2.89 m 2.35,12.453 -9.39,0.547 v 2.156 h 2.54 c 1.9,0.047 2.15,0.344 2.15,2.5 v 14.297 c -0.05,0.75 -0.1,1.047 -0.3,1.297 -0.35,0.453 -1.3,0.656 -3.45,0.703 h -0.35 v 1.797 h 12.95 v -1.797 h -0.35 c -3.35,-0.109 -3.8,-0.359 -3.8,-2.156 v -19.344"
       id="path82" />
    <path
       class="Lyrics"
       d="m 1403.74,585.735 8.7,-0.344 v -2.156 h -0.91 c -2.84,-0.141 -3.09,-0.438 -3.09,-3.641 v -31.063 l -9.8,0.563 v 2.141 h 2.94 c 1.91,0.046 2.16,0.359 2.16,2.5 v 11.312 c -1.85,-2.562 -4,-3.703 -6.91,-3.703 -5.64,0 -9.94,5.453 -9.94,12.641 0,7.109 4.14,12.156 9.94,12.156 3.16,0 5.31,-1.344 6.91,-4.344 v 3.938 m -5.91,-21.688 c 2.06,0 4,1.5 4.91,3.797 0.65,1.5 0.95,3.547 0.95,6 0,5.844 -2.3,9.594 -5.91,9.594 -3.54,0 -5.64,-3.297 -5.64,-8.844 0,-3 0.3,-5.25 0.94,-6.906 0.86,-2.25 2.7,-3.641 4.75,-3.641 m 28.5,-2.703 c -6.14,0 -10.89,5.453 -10.89,12.453 0,6.844 4.8,12.344 10.8,12.344 6,0 10.79,-5.5 10.79,-12.406 0,-6.844 -4.79,-12.391 -10.7,-12.391 m 0,2.141 c 3.5,0 5.45,3.656 5.45,10.25 0,6.656 -1.95,10.25 -5.54,10.25 -3.6,0 -5.55,-3.594 -5.55,-10.188 0,-6.812 1.89,-10.312 5.64,-10.312"
       id="path83" />
    <path
       class="Lyrics"
       d="m 1493.8,562.094 -8.89,0.547 v 2.156 h 2.05 c 1.89,0.047 2.14,0.344 2.14,2.5 v 14.297 c -0.05,0.75 -0.1,1.047 -0.3,1.297 -0.34,0.453 -1.3,0.656 -3.45,0.703 h -0.19 v 1.797 h 12.59 v -1.797 h -0.2 c -3.3,-0.109 -3.75,-0.359 -3.75,-2.203 v -9.25 c 0,-4.453 2.45,-7.75 5.7,-7.75 2.85,0 4.3,2.047 4.3,6.094 v 11.156 c -0.05,0.656 -0.09,1 -0.34,1.25 -0.3,0.453 -1.3,0.656 -3.46,0.703 h -0.2 v 1.797 h 12.66 v -1.797 h -0.21 c -3.29,-0.109 -3.75,-0.359 -3.75,-2.156 v -8.844 c 0,-5 2.25,-8.203 5.75,-8.203 2.86,0 4.25,2.156 4.25,6.656 v 10.547 c -0.04,0.703 -0.09,1.047 -0.34,1.297 -0.3,0.453 -1.3,0.656 -3.45,0.703 h -0.21 v 1.797 h 12.66 v -1.797 h -0.2 c -3.3,-0.109 -3.75,-0.359 -3.75,-2.203 v -11.344 c 0,-3.109 -0.3,-4.156 -1.6,-5.859 -1.45,-1.844 -3.5,-2.844 -5.9,-2.844 -3.25,0 -5.66,1.547 -7.8,5 -0.86,-3 -3.56,-5 -6.91,-5 -3.04,0 -5.25,1.453 -7.2,4.594 v -3.844 m 41.91,-12.453 c -1.61,0 -2.91,1.297 -2.91,2.89 0,1.61 1.3,2.907 2.86,2.907 1.64,0 2.94,-1.297 2.94,-2.907 0,-1.593 -1.3,-2.89 -2.89,-2.89 m 2.34,12.453 -9.39,0.547 v 2.156 h 2.55 c 1.89,0.047 2.14,0.344 2.14,2.5 v 14.297 c -0.05,0.75 -0.1,1.047 -0.3,1.297 -0.34,0.453 -1.3,0.656 -3.45,0.703 h -0.35 v 1.797 h 12.96 v -1.797 h -0.36 c -3.35,-0.109 -3.8,-0.359 -3.8,-2.156 v -19.344"
       id="path84" />
    <path
       class="Lyrics"
       d="m 2288.96,562.094 -8.89,0.547 v 2.156 h 2.04 c 1.89,0.047 2.14,0.344 2.14,2.5 v 14.297 c -0.04,0.75 -0.09,1.047 -0.29,1.297 -0.35,0.453 -1.3,0.656 -3.46,0.703 h -0.18 v 1.797 h 12.59 v -1.797 h -0.2 c -3.3,-0.109 -3.75,-0.359 -3.75,-2.203 v -9.25 c 0,-4.453 2.45,-7.75 5.7,-7.75 2.84,0 4.3,2.047 4.3,6.094 v 11.156 c -0.05,0.656 -0.1,1 -0.35,1.25 -0.29,0.453 -1.29,0.656 -3.45,0.703 h -0.2 v 1.797 h 12.65 v -1.797 h -0.2 c -3.3,-0.109 -3.75,-0.359 -3.75,-2.156 v -8.844 c 0,-5 2.25,-8.203 5.75,-8.203 2.86,0 4.25,2.156 4.25,6.656 v 10.547 c -0.05,0.703 -0.09,1.047 -0.34,1.297 -0.3,0.453 -1.3,0.656 -3.46,0.703 h -0.2 v 1.797 h 12.66 v -1.797 h -0.21 c -3.29,-0.109 -3.75,-0.359 -3.75,-2.203 v -11.344 c 0,-3.109 -0.29,-4.156 -1.59,-5.859 -1.45,-1.844 -3.5,-2.844 -5.91,-2.844 -3.25,0 -5.65,1.547 -7.79,5 -0.86,-3 -3.57,-5 -6.91,-5 -3.05,0 -5.25,1.453 -7.2,4.594 v -3.844 m 41.9,-12.453 c -1.61,0 -2.9,1.297 -2.9,2.89 0,1.61 1.29,2.907 2.86,2.907 1.64,0 2.93,-1.297 2.93,-2.907 0,-1.593 -1.29,-2.89 -2.89,-2.89 m 2.35,12.453 -9.39,0.547 v 2.156 h 2.54 c 1.89,0.047 2.14,0.344 2.14,2.5 v 14.297 c -0.04,0.75 -0.09,1.047 -0.29,1.297 -0.35,0.453 -1.3,0.656 -3.46,0.703 h -0.34 v 1.797 h 12.95 v -1.797 H 2337 c -3.34,-0.109 -3.79,-0.359 -3.79,-2.156 v -19.344"
       id="path85" />
    <path
       class="Lyrics"
       d="m 1292.51,562.094 -8.86,0.547 v 2.156 h 2.04 c 1.91,0.047 2.16,0.344 2.16,2.5 v 14.297 c -0.05,0.75 -0.09,1.047 -0.3,1.297 -0.36,0.453 -1.36,0.656 -3.5,0.703 h -0.2 v 1.797 h 13.34 v -1.797 h -0.89 c -3.36,-0.109 -3.79,-0.359 -3.79,-2.156 v -2.703 c 0.04,-8.391 3.04,-14.797 6.93,-15 -0.68,0.812 -0.89,1.312 -0.89,2.25 0,1.609 1.14,2.75 2.75,2.75 1.85,0 3.05,-1.344 3.05,-3.344 0,-2.453 -1.7,-4.047 -4.34,-4.047 -3.16,0 -5.86,2.5 -7.5,6.953 v -6.203 m 35.34,12.047 c 0.05,-7.5 -4.2,-12.797 -10.3,-12.797 -6.4,0 -11.2,5.547 -11.2,13.047 0,7.047 4.55,11.75 11.3,11.75 4.79,0 8.15,-2.344 10.2,-7.094 l -1.75,-0.953 c -2.05,3.844 -4.16,5.344 -7.5,5.344 -2.55,0 -4.41,-1.047 -5.7,-3.297 -0.89,-1.5 -1.3,-3.25 -1.25,-6 h 16.2 m -16.16,-2.156 c 0,-3.5 1.61,-8.5 5.82,-8.5 3,0 5,2.656 5,6.703 0,1.406 -0.46,1.797 -2.07,1.797 h -8.75"
       id="path86" />
    <path
       class="Lyrics"
       d="m 1638.97,561.547 h -1.75 l -1.45,1.797 c -1.8,-1.406 -3.59,-2 -6.09,-2 -4.41,0 -7.3,2.844 -7.3,7.25 0,4.703 3.05,5.891 7.05,6.844 l 2.64,0.609 c 3.95,0.938 5.36,1.938 5.36,3.938 0,2.359 -2.05,4 -4.96,4 -4.25,0 -7.25,-2.688 -8.45,-7.688 h -2 v 9.438 h 1.75 l 1.75,-2.047 c 2.05,1.656 4.3,2.453 6.86,2.453 4.89,0 8.14,-3.047 8.14,-7.703 0,-2.203 -0.7,-3.891 -2.09,-5.047 -1.21,-1.047 -2.21,-1.453 -5.25,-2.094 l -2.5,-0.562 c -2.75,-0.594 -2.75,-0.594 -3.66,-1.094 -1.09,-0.5 -1.75,-1.547 -1.75,-2.656 0,-2.047 1.91,-3.438 4.66,-3.438 4.09,0 6.09,2.891 7.29,6.391 h 1.75 v -8.391 m 16.1,-0.203 c -6.14,0 -10.89,5.453 -10.89,12.453 0,6.844 4.79,12.344 10.79,12.344 6,0 10.8,-5.5 10.8,-12.406 0,-6.844 -4.8,-12.391 -10.7,-12.391 m 0,2.141 c 3.5,0 5.45,3.656 5.45,10.25 0,6.656 -1.95,10.25 -5.55,10.25 -3.59,0 -5.54,-3.594 -5.54,-10.188 0,-6.812 1.89,-10.312 5.64,-10.312 m 22.61,-14.954 -9.25,0.563 v 2.141 h 2.45 c 1.84,0.046 2.09,0.359 2.09,2.5 v 27.859 c -0.04,0.75 -0.09,1.047 -0.29,1.297 -0.36,0.453 -1.3,0.656 -3.46,0.703 h -0.34 v 1.797 h 12.94 v -1.797 h -0.35 c -3.34,-0.109 -3.79,-0.359 -3.79,-2.156 v -32.907"
       id="path87" />
    <path
       class="Lyrics"
       d="m 1708.65,561.547 h -1.75 l -1.45,1.797 c -1.8,-1.406 -3.59,-2 -6.09,-2 -4.41,0 -7.3,2.844 -7.3,7.25 0,4.703 3.05,5.891 7.05,6.844 l 2.64,0.609 c 3.95,0.938 5.36,1.938 5.36,3.938 0,2.359 -2.05,4 -4.96,4 -4.25,0 -7.25,-2.688 -8.45,-7.688 h -2 v 9.438 h 1.75 l 1.75,-2.047 c 2.05,1.656 4.3,2.453 6.86,2.453 4.89,0 8.14,-3.047 8.14,-7.703 0,-2.203 -0.7,-3.891 -2.09,-5.047 -1.21,-1.047 -2.21,-1.453 -5.25,-2.094 l -2.5,-0.562 c -2.75,-0.594 -2.75,-0.594 -3.66,-1.094 -1.09,-0.5 -1.75,-1.547 -1.75,-2.656 0,-2.047 1.91,-3.438 4.66,-3.438 4.09,0 6.09,2.891 7.29,6.391 h 1.75 v -8.391 m 16.1,-0.203 c -6.14,0 -10.89,5.453 -10.89,12.453 0,6.844 4.79,12.344 10.79,12.344 6,0 10.8,-5.5 10.8,-12.406 0,-6.844 -4.8,-12.391 -10.7,-12.391 m 0,2.141 c 3.5,0 5.45,3.656 5.45,10.25 0,6.656 -1.95,10.25 -5.55,10.25 -3.59,0 -5.54,-3.594 -5.54,-10.188 0,-6.812 1.89,-10.312 5.64,-10.312 m 22.61,-14.954 -9.25,0.563 v 2.141 h 2.45 c 1.84,0.046 2.09,0.359 2.09,2.5 v 27.859 c -0.04,0.75 -0.09,1.047 -0.29,1.297 -0.36,0.453 -1.3,0.656 -3.46,0.703 h -0.34 v 1.797 h 12.94 v -1.797 h -0.35 c -3.34,-0.109 -3.79,-0.359 -3.79,-2.156 v -32.907"
       id="path88" />
    <path
       class="Lyrics"
       d="m 2362.99,562.094 -8.85,0.547 v 2.156 h 2.04 c 1.91,0.047 2.16,0.344 2.16,2.5 v 14.297 c -0.05,0.75 -0.1,1.047 -0.3,1.297 -0.36,0.453 -1.36,0.656 -3.5,0.703 h -0.2 v 1.797 h 13.34 v -1.797 h -0.89 c -3.36,-0.109 -3.8,-0.359 -3.8,-2.156 v -2.703 c 0.05,-8.391 3.05,-14.797 6.94,-15 -0.69,0.812 -0.89,1.312 -0.89,2.25 0,1.609 1.14,2.75 2.75,2.75 1.85,0 3.05,-1.344 3.05,-3.344 0,-2.453 -1.7,-4.047 -4.35,-4.047 -3.15,0 -5.85,2.5 -7.5,6.953 v -6.203 m 35.35,12.047 c 0.05,-7.5 -4.2,-12.797 -10.3,-12.797 -6.4,0 -11.2,5.547 -11.2,13.047 0,7.047 4.55,11.75 11.3,11.75 4.79,0 8.15,-2.344 10.2,-7.094 l -1.75,-0.953 c -2.05,3.844 -4.16,5.344 -7.5,5.344 -2.55,0 -4.41,-1.047 -5.7,-3.297 -0.9,-1.5 -1.3,-3.25 -1.25,-6 h 16.2 m -16.16,-2.156 c 0,-3.5 1.61,-8.5 5.81,-8.5 3,0 5,2.656 5,6.703 0,1.406 -0.45,1.797 -2.06,1.797 h -8.75"
       id="path89" />
    <path
       class="Lyrics"
       d="m 1778.33,561.547 h -1.75 l -1.45,1.797 c -1.8,-1.406 -3.59,-2 -6.09,-2 -4.41,0 -7.3,2.844 -7.3,7.25 0,4.703 3.05,5.891 7.05,6.844 l 2.64,0.609 c 3.95,0.938 5.36,1.938 5.36,3.938 0,2.359 -2.05,4 -4.96,4 -4.25,0 -7.25,-2.688 -8.45,-7.688 h -2 v 9.438 h 1.75 l 1.75,-2.047 c 2.05,1.656 4.3,2.453 6.86,2.453 4.89,0 8.14,-3.047 8.14,-7.703 0,-2.203 -0.7,-3.891 -2.09,-5.047 -1.21,-1.047 -2.21,-1.453 -5.25,-2.094 l -2.5,-0.562 c -2.75,-0.594 -2.75,-0.594 -3.66,-1.094 -1.09,-0.5 -1.75,-1.547 -1.75,-2.656 0,-2.047 1.91,-3.438 4.66,-3.438 4.09,0 6.09,2.891 7.29,6.391 h 1.75 v -8.391 m 16.1,-0.203 c -6.14,0 -10.89,5.453 -10.89,12.453 0,6.844 4.79,12.344 10.79,12.344 6,0 10.8,-5.5 10.8,-12.406 0,-6.844 -4.8,-12.391 -10.7,-12.391 m 0,2.141 c 3.5,0 5.45,3.656 5.45,10.25 0,6.656 -1.95,10.25 -5.55,10.25 -3.59,0 -5.54,-3.594 -5.54,-10.188 0,-6.812 1.89,-10.312 5.64,-10.312 m 22.61,-14.954 -9.25,0.563 v 2.141 h 2.45 c 1.84,0.046 2.09,0.359 2.09,2.5 v 27.859 c -0.04,0.75 -0.09,1.047 -0.29,1.297 -0.36,0.453 -1.3,0.656 -3.46,0.703 h -0.34 v 1.797 h 12.94 v -1.797 h -0.35 c -3.34,-0.109 -3.79,-0.359 -3.79,-2.156 v -32.907"
       id="path90" />
    <path
       class="Lyrics"
       d="m 1848.01,561.547 h -1.75 l -1.45,1.797 c -1.8,-1.406 -3.59,-2 -6.09,-2 -4.41,0 -7.3,2.844 -7.3,7.25 0,4.703 3.05,5.891 7.05,6.844 l 2.64,0.609 c 3.95,0.938 5.36,1.938 5.36,3.938 0,2.359 -2.05,4 -4.96,4 -4.25,0 -7.25,-2.688 -8.45,-7.688 h -2 v 9.438 h 1.75 l 1.75,-2.047 c 2.05,1.656 4.3,2.453 6.86,2.453 4.89,0 8.14,-3.047 8.14,-7.703 0,-2.203 -0.7,-3.891 -2.09,-5.047 -1.21,-1.047 -2.21,-1.453 -5.25,-2.094 l -2.5,-0.562 c -2.75,-0.594 -2.75,-0.594 -3.66,-1.094 -1.09,-0.5 -1.75,-1.547 -1.75,-2.656 0,-2.047 1.91,-3.438 4.66,-3.438 4.09,0 6.09,2.891 7.29,6.391 h 1.75 v -8.391 m 16.1,-0.203 c -6.14,0 -10.89,5.453 -10.89,12.453 0,6.844 4.79,12.344 10.79,12.344 6,0 10.8,-5.5 10.8,-12.406 0,-6.844 -4.8,-12.391 -10.7,-12.391 m 0,2.141 c 3.5,0 5.45,3.656 5.45,10.25 0,6.656 -1.95,10.25 -5.55,10.25 -3.59,0 -5.54,-3.594 -5.54,-10.188 0,-6.812 1.89,-10.312 5.64,-10.312 m 22.61,-14.954 -9.25,0.563 v 2.141 h 2.45 c 1.84,0.046 2.09,0.359 2.09,2.5 v 27.859 c -0.04,0.75 -0.09,1.047 -0.29,1.297 -0.36,0.453 -1.3,0.656 -3.46,0.703 h -0.34 v 1.797 h 12.94 v -1.797 h -0.35 c -3.34,-0.109 -3.79,-0.359 -3.79,-2.156 v -32.907"
       id="path91" />
    <path
       class="Lyrics"
       d="m 2430.67,562.094 -8.86,0.547 v 2.156 h 2.05 c 1.91,0.047 2.16,0.344 2.16,2.5 v 14.297 c -0.05,0.75 -0.1,1.047 -0.3,1.297 -0.36,0.453 -1.36,0.656 -3.5,0.703 h -0.2 v 1.797 h 13.34 v -1.797 h -0.89 c -3.36,-0.109 -3.8,-0.359 -3.8,-2.156 v -2.703 c 0.05,-8.391 3.05,-14.797 6.94,-15 -0.69,0.812 -0.89,1.312 -0.89,2.25 0,1.609 1.14,2.75 2.75,2.75 1.84,0 3.05,-1.344 3.05,-3.344 0,-2.453 -1.71,-4.047 -4.35,-4.047 -3.15,0 -5.86,2.5 -7.5,6.953 v -6.203 m 35.35,12.047 c 0.04,-7.5 -4.21,-12.797 -10.3,-12.797 -6.41,0 -11.2,5.547 -11.2,13.047 0,7.047 4.54,11.75 11.29,11.75 4.8,0 8.16,-2.344 10.21,-7.094 l -1.75,-0.953 c -2.05,3.844 -4.16,5.344 -7.5,5.344 -2.55,0 -4.41,-1.047 -5.71,-3.297 -0.89,-1.5 -1.29,-3.25 -1.25,-6 h 16.21 m -16.16,-2.156 c 0,-3.5 1.61,-8.5 5.81,-8.5 3,0 5,2.656 5,6.703 0,1.406 -0.45,1.797 -2.06,1.797 h -8.75"
       id="path92" />
    <path
       class="Lyrics"
       d="m 1954.15,561.547 h -1.75 l -1.45,1.797 c -1.8,-1.406 -3.6,-2 -6.1,-2 -4.4,0 -7.29,2.844 -7.29,7.25 0,4.703 3.04,5.891 7.04,6.844 l 2.65,0.609 c 3.95,0.938 5.35,1.938 5.35,3.938 0,2.359 -2.04,4 -4.95,4 -4.25,0 -7.25,-2.688 -8.45,-7.688 h -2 v 9.438 h 1.75 l 1.75,-2.047 c 2.05,1.656 4.3,2.453 6.86,2.453 4.89,0 8.14,-3.047 8.14,-7.703 0,-2.203 -0.7,-3.891 -2.1,-5.047 -1.2,-1.047 -2.2,-1.453 -5.25,-2.094 l -2.5,-0.562 c -2.75,-0.594 -2.75,-0.594 -3.65,-1.094 -1.1,-0.5 -1.75,-1.547 -1.75,-2.656 0,-2.047 1.9,-3.438 4.65,-3.438 4.1,0 6.1,2.891 7.3,6.391 h 1.75 v -8.391 m 16.1,-0.203 c -6.15,0 -10.9,5.453 -10.9,12.453 0,6.844 4.8,12.344 10.8,12.344 6,0 10.8,-5.5 10.8,-12.406 0,-6.844 -4.8,-12.391 -10.7,-12.391 m 0,2.141 c 3.5,0 5.45,3.656 5.45,10.25 0,6.656 -1.95,10.25 -5.55,10.25 -3.59,0 -5.55,-3.594 -5.55,-10.188 0,-6.812 1.9,-10.312 5.65,-10.312 m 22.6,-14.954 -9.25,0.563 v 2.141 h 2.46 c 1.84,0.046 2.09,0.359 2.09,2.5 v 27.859 c -0.05,0.75 -0.09,1.047 -0.3,1.297 -0.35,0.453 -1.29,0.656 -3.45,0.703 h -0.34 v 1.797 H 1997 v -1.797 h -0.35 c -3.34,-0.109 -3.8,-0.359 -3.8,-2.156 v -32.907"
       id="path93" />
    <path
       class="Lyrics"
       d="m 538.65,561.547 h -1.75 l -1.453,1.797 c -1.797,-1.406 -3.594,-2 -6.094,-2 -4.406,0 -7.297,2.844 -7.297,7.25 0,4.703 3.047,5.891 7.047,6.844 l 2.64,0.609 c 3.954,0.938 5.36,1.938 5.36,3.938 0,2.359 -2.047,4 -4.953,4 -4.25,0 -7.25,-2.688 -8.453,-7.688 h -2 v 9.438 h 1.75 l 1.75,-2.047 c 2.046,1.656 4.296,2.453 6.859,2.453 4.891,0 8.141,-3.047 8.141,-7.703 0,-2.203 -0.704,-3.891 -2.094,-5.047 -1.203,-1.047 -2.203,-1.453 -5.25,-2.094 l -2.5,-0.562 c -2.75,-0.594 -2.75,-0.594 -3.656,-1.094 -1.094,-0.5 -1.75,-1.547 -1.75,-2.656 0,-2.047 1.906,-3.438 4.656,-3.438 4.094,0 6.094,2.891 7.297,6.391 h 1.75 v -8.391 m 16.093,-0.203 c -6.14,0 -10.89,5.453 -10.89,12.453 0,6.844 4.797,12.344 10.797,12.344 6,0 10.797,-5.5 10.797,-12.406 0,-6.844 -4.797,-12.391 -10.704,-12.391 m 0,2.141 c 3.5,0 5.454,3.656 5.454,10.25 0,6.656 -1.954,10.25 -5.547,10.25 -3.594,0 -5.547,-3.594 -5.547,-10.188 0,-6.812 1.89,-10.312 5.64,-10.312 m 22.61,-14.954 -9.25,0.563 v 2.141 h 2.453 c 1.844,0.046 2.094,0.359 2.094,2.5 v 27.859 c -0.047,0.75 -0.094,1.047 -0.297,1.297 -0.36,0.453 -1.297,0.656 -3.453,0.703 h -0.344 v 1.797 h 12.937 v -1.797 h -0.343 c -3.344,-0.109 -3.797,-0.359 -3.797,-2.156 v -32.907"
       id="path94" />
    <path
       class="Lyrics"
       d="m 640.167,561.547 h -1.75 l -1.453,1.797 c -1.797,-1.406 -3.594,-2 -6.094,-2 -4.406,0 -7.296,2.844 -7.296,7.25 0,4.703 3.046,5.891 7.046,6.844 l 2.641,0.609 c 3.953,0.938 5.359,1.938 5.359,3.938 0,2.359 -2.046,4 -4.953,4 -4.25,0 -7.25,-2.688 -8.453,-7.688 h -2 v 9.438 h 1.75 l 1.75,-2.047 c 2.047,1.656 4.297,2.453 6.86,2.453 4.89,0 8.14,-3.047 8.14,-7.703 0,-2.203 -0.703,-3.891 -2.094,-5.047 -1.203,-1.047 -2.203,-1.453 -5.25,-2.094 l -2.5,-0.562 c -2.75,-0.594 -2.75,-0.594 -3.656,-1.094 -1.094,-0.5 -1.75,-1.547 -1.75,-2.656 0,-2.047 1.906,-3.438 4.656,-3.438 4.094,0 6.094,2.891 7.297,6.391 h 1.75 v -8.391 m 16.094,-0.203 c -6.141,0 -10.891,5.453 -10.891,12.453 0,6.844 4.797,12.344 10.797,12.344 6,0 10.797,-5.5 10.797,-12.406 0,-6.844 -4.797,-12.391 -10.703,-12.391 m 0,2.141 c 3.5,0 5.453,3.656 5.453,10.25 0,6.656 -1.953,10.25 -5.547,10.25 -3.593,0 -5.547,-3.594 -5.547,-10.188 0,-6.812 1.891,-10.312 5.641,-10.312 m 22.609,-14.954 -9.25,0.563 v 2.141 h 2.454 c 1.843,0.046 2.093,0.359 2.093,2.5 v 27.859 c -0.047,0.75 -0.093,1.047 -0.297,1.297 -0.359,0.453 -1.296,0.656 -3.453,0.703 h -0.343 v 1.797 h 12.937 v -1.797 h -0.344 c -3.343,-0.109 -3.797,-0.359 -3.797,-2.156 v -32.907"
       id="path95" />
    <path
       class="Lyrics"
       d="m 2015.38,562.094 -8.89,0.547 v 2.156 h 2.04 c 1.9,0.047 2.15,0.344 2.15,2.5 v 14.297 c -0.05,0.75 -0.1,1.047 -0.3,1.297 -0.35,0.453 -1.3,0.656 -3.45,0.703 h -0.19 v 1.797 h 12.59 v -1.797 h -0.2 c -3.3,-0.109 -3.75,-0.359 -3.75,-2.203 v -9.25 c 0,-4.453 2.45,-7.75 5.7,-7.75 2.85,0 4.3,2.047 4.3,6.094 v 11.156 c -0.05,0.656 -0.1,1 -0.35,1.25 -0.29,0.453 -1.29,0.656 -3.45,0.703 h -0.2 v 1.797 h 12.65 v -1.797 h -0.2 c -3.3,-0.109 -3.75,-0.359 -3.75,-2.156 v -8.844 c 0,-5 2.25,-8.203 5.75,-8.203 2.86,0 4.25,2.156 4.25,6.656 v 10.547 c -0.05,0.703 -0.09,1.047 -0.34,1.297 -0.3,0.453 -1.3,0.656 -3.46,0.703 h -0.2 v 1.797 h 12.66 v -1.797 h -0.21 c -3.29,-0.109 -3.75,-0.359 -3.75,-2.203 v -11.344 c 0,-3.109 -0.29,-4.156 -1.59,-5.859 -1.45,-1.844 -3.5,-2.844 -5.91,-2.844 -3.25,0 -5.65,1.547 -7.79,5 -0.86,-3 -3.56,-5 -6.91,-5 -3.05,0 -5.25,1.453 -7.2,4.594 v -3.844 m 41.9,-12.453 c -1.6,0 -2.9,1.297 -2.9,2.89 0,1.61 1.3,2.907 2.86,2.907 1.64,0 2.94,-1.297 2.94,-2.907 0,-1.593 -1.3,-2.89 -2.9,-2.89 m 2.35,12.453 -9.39,0.547 v 2.156 h 2.54 c 1.9,0.047 2.15,0.344 2.15,2.5 v 14.297 c -0.05,0.75 -0.1,1.047 -0.3,1.297 -0.35,0.453 -1.3,0.656 -3.45,0.703 h -0.35 v 1.797 h 12.95 v -1.797 h -0.35 c -3.35,-0.109 -3.8,-0.359 -3.8,-2.156 v -19.344"
       id="path96" />
    <path
       class="Lyrics"
       d="m 709.847,561.547 h -1.75 l -1.453,1.797 c -1.797,-1.406 -3.594,-2 -6.094,-2 -4.406,0 -7.296,2.844 -7.296,7.25 0,4.703 3.046,5.891 7.046,6.844 l 2.641,0.609 c 3.953,0.938 5.359,1.938 5.359,3.938 0,2.359 -2.046,4 -4.953,4 -4.25,0 -7.25,-2.688 -8.453,-7.688 h -2 v 9.438 h 1.75 l 1.75,-2.047 c 2.047,1.656 4.297,2.453 6.86,2.453 4.89,0 8.14,-3.047 8.14,-7.703 0,-2.203 -0.703,-3.891 -2.094,-5.047 -1.203,-1.047 -2.203,-1.453 -5.25,-2.094 l -2.5,-0.562 c -2.75,-0.594 -2.75,-0.594 -3.656,-1.094 -1.094,-0.5 -1.75,-1.547 -1.75,-2.656 0,-2.047 1.906,-3.438 4.656,-3.438 4.094,0 6.094,2.891 7.297,6.391 h 1.75 v -8.391 m 16.094,-0.203 c -6.141,0 -10.891,5.453 -10.891,12.453 0,6.844 4.797,12.344 10.797,12.344 6,0 10.797,-5.5 10.797,-12.406 0,-6.844 -4.797,-12.391 -10.703,-12.391 m 0,2.141 c 3.5,0 5.453,3.656 5.453,10.25 0,6.656 -1.953,10.25 -5.547,10.25 -3.593,0 -5.547,-3.594 -5.547,-10.188 0,-6.812 1.891,-10.312 5.641,-10.312 m 22.609,-14.954 -9.25,0.563 v 2.141 h 2.454 c 1.843,0.046 2.093,0.359 2.093,2.5 v 27.859 c -0.047,0.75 -0.093,1.047 -0.297,1.297 -0.359,0.453 -1.296,0.656 -3.453,0.703 h -0.343 v 1.797 h 12.937 v -1.797 h -0.344 c -3.343,-0.109 -3.797,-0.359 -3.797,-2.156 v -32.907"
       id="path97" />
    <path
       class="Lyrics"
       d="m 2541.9,585.735 8.71,-0.344 v -2.156 h -0.91 c -2.84,-0.141 -3.09,-0.438 -3.09,-3.641 v -31.063 l -9.8,0.563 v 2.141 h 2.94 c 1.9,0.046 2.15,0.359 2.15,2.5 v 11.312 c -1.84,-2.562 -4,-3.703 -6.9,-3.703 -5.64,0 -9.94,5.453 -9.94,12.641 0,7.109 4.14,12.156 9.94,12.156 3.15,0 5.31,-1.344 6.9,-4.344 v 3.938 m -5.9,-21.688 c 2.06,0 4,1.5 4.9,3.797 0.66,1.5 0.96,3.547 0.96,6 0,5.844 -2.3,9.594 -5.91,9.594 -3.55,0 -5.64,-3.297 -5.64,-8.844 0,-3 0.3,-5.25 0.94,-6.906 0.86,-2.25 2.7,-3.641 4.75,-3.641 m 28.5,-2.703 c -6.14,0 -10.89,5.453 -10.89,12.453 0,6.844 4.79,12.344 10.79,12.344 6,0 10.8,-5.5 10.8,-12.406 0,-6.844 -4.8,-12.391 -10.7,-12.391 m 0,2.141 c 3.5,0 5.45,3.656 5.45,10.25 0,6.656 -1.95,10.25 -5.55,10.25 -3.59,0 -5.54,-3.594 -5.54,-10.188 0,-6.812 1.89,-10.312 5.64,-10.312"
       id="path98" />
    <path
       class="Lyrics"
       d="m 815.984,561.547 h -1.75 l -1.453,1.797 c -1.797,-1.406 -3.594,-2 -6.094,-2 -4.406,0 -7.297,2.844 -7.297,7.25 0,4.703 3.047,5.891 7.047,6.844 l 2.64,0.609 c 3.954,0.938 5.36,1.938 5.36,3.938 0,2.359 -2.047,4 -4.953,4 -4.25,0 -7.25,-2.688 -8.453,-7.688 h -2 v 9.438 h 1.75 l 1.75,-2.047 c 2.046,1.656 4.296,2.453 6.859,2.453 4.891,0 8.141,-3.047 8.141,-7.703 0,-2.203 -0.704,-3.891 -2.094,-5.047 -1.203,-1.047 -2.203,-1.453 -5.25,-2.094 l -2.5,-0.562 c -2.75,-0.594 -2.75,-0.594 -3.656,-1.094 -1.094,-0.5 -1.75,-1.547 -1.75,-2.656 0,-2.047 1.906,-3.438 4.656,-3.438 4.094,0 6.094,2.891 7.297,6.391 h 1.75 v -8.391 m 16.093,-0.203 c -6.14,0 -10.89,5.453 -10.89,12.453 0,6.844 4.797,12.344 10.797,12.344 6,0 10.797,-5.5 10.797,-12.406 0,-6.844 -4.797,-12.391 -10.704,-12.391 m 0,2.141 c 3.5,0 5.454,3.656 5.454,10.25 0,6.656 -1.954,10.25 -5.547,10.25 -3.594,0 -5.547,-3.594 -5.547,-10.188 0,-6.812 1.89,-10.312 5.64,-10.312 m 22.61,-14.954 -9.25,0.563 v 2.141 h 2.453 c 1.844,0.046 2.094,0.359 2.094,2.5 v 27.859 c -0.047,0.75 -0.094,1.047 -0.297,1.297 -0.36,0.453 -1.297,0.656 -3.453,0.703 h -0.344 v 1.797 h 12.937 v -1.797 h -0.343 c -3.344,-0.109 -3.797,-0.359 -3.797,-2.156 v -32.907"
       id="path99" />
    <path
       class="Lyrics"
       d="m 2090.56,562.094 v -2.859 c 0,-2.5 0.15,-4.141 0.54,-5.141 0.82,-2.203 2.57,-3.563 4.57,-3.563 1.04,0 1.68,0.313 1.68,0.86 0,0.203 0,0.25 -0.29,0.64 -0.3,0.454 -0.46,1.063 -0.46,1.61 0,1.5 1.21,2.64 2.75,2.64 1.66,0 2.82,-1.25 2.82,-3.046 0,-2.891 -2.5,-4.704 -6.57,-4.704 -3.43,0 -6,1.204 -7.75,3.704 -1.5,2.109 -2,4.25 -2,8.312 v 1.547 h -4.39 v 2.141 h 4.39 v 17.359 c -0.04,0.703 -0.09,1 -0.29,1.297 -0.35,0.453 -1.3,0.656 -3.46,0.703 h -0.18 v 1.797 h 13.34 v -1.797 h -0.91 c -3.34,-0.109 -3.79,-0.359 -3.79,-2.156 v -17.203 h 5.5 v -2.141 h -5.5 m 28.54,7.203 c 0,-3.156 -0.54,-4.75 -2,-5.953 -1.64,-1.359 -4.09,-2 -7.29,-2 -5.64,0 -9.75,2.641 -9.75,6.297 0,1.844 1.15,3.047 2.9,3.047 1.6,0 2.71,-1.047 2.71,-2.547 0,-0.656 -0.25,-1.344 -0.75,-2.047 -0.32,-0.359 -0.36,-0.453 -0.36,-0.703 0,-1 2,-1.906 4.4,-1.906 1.6,0 3.35,0.5 4.14,1.25 0.96,0.812 1.32,2 1.32,4.25 v 1.953 c -5.21,0.906 -6.86,1.297 -9.32,2.25 -4.34,1.609 -6.39,3.906 -6.39,7.109 0,3.594 2.8,5.844 7.25,5.844 3.46,0 6.55,-1.406 8.71,-3.953 0.79,2.547 2.04,3.547 4.39,3.547 2.25,0 4.61,-1.438 4.61,-2.891 0,-0.359 -0.21,-0.609 -0.5,-0.609 -0.21,0 -0.41,0.062 -0.75,0.203 -0.71,0.297 -1,0.359 -1.41,0.359 -1.41,0 -1.91,-0.906 -1.91,-3.453 v -10.047 m -4.68,6.094 c 0,3 -0.16,3.703 -1,5 -1.25,1.844 -3.5,3.094 -5.71,3.094 -2.29,0 -3.95,-1.641 -3.95,-3.891 0,-2.109 1.05,-3.609 3.25,-4.656 1.55,-0.703 3.5,-1.203 7.41,-1.844 v 2.297"
       id="path100" />
    <path
       class="Lyrics"
       d="m 877.211,562.094 -8.891,0.547 v 2.156 h 2.047 c 1.89,0.047 2.14,0.344 2.14,2.5 v 14.297 c -0.046,0.75 -0.093,1.047 -0.296,1.297 -0.344,0.453 -1.297,0.656 -3.454,0.703 h -0.187 v 1.797 h 12.594 v -1.797 h -0.203 c -3.297,-0.109 -3.75,-0.359 -3.75,-2.203 v -9.25 c 0,-4.453 2.453,-7.75 5.703,-7.75 2.843,0 4.297,2.047 4.297,6.094 v 11.156 c -0.047,0.656 -0.094,1 -0.344,1.25 -0.297,0.453 -1.297,0.656 -3.453,0.703 h -0.203 v 1.797 h 12.656 v -1.797 h -0.203 c -3.297,-0.109 -3.75,-0.359 -3.75,-2.156 v -8.844 c 0,-5 2.25,-8.203 5.75,-8.203 2.859,0 4.25,2.156 4.25,6.656 v 10.547 c -0.047,0.703 -0.094,1.047 -0.344,1.297 -0.297,0.453 -1.297,0.656 -3.453,0.703 h -0.203 v 1.797 h 12.656 v -1.797 h -0.203 c -3.297,-0.109 -3.75,-0.359 -3.75,-2.203 v -11.344 c 0,-3.109 -0.297,-4.156 -1.594,-5.859 -1.453,-1.844 -3.5,-2.844 -5.906,-2.844 -3.25,0 -5.656,1.547 -7.797,5 -0.859,-3 -3.563,-5 -6.906,-5 -3.047,0 -5.25,1.453 -7.203,4.594 v -3.844 m 41.906,-12.453 c -1.61,0 -2.906,1.297 -2.906,2.89 0,1.61 1.296,2.907 2.859,2.907 1.641,0 2.937,-1.297 2.937,-2.907 0,-1.593 -1.296,-2.89 -2.89,-2.89 m 2.344,12.453 -9.391,0.547 v 2.156 h 2.547 c 1.89,0.047 2.14,0.344 2.14,2.5 v 14.297 c -0.046,0.75 -0.093,1.047 -0.296,1.297 -0.344,0.453 -1.297,0.656 -3.454,0.703 h -0.343 v 1.797 h 12.953 v -1.797 h -0.36 c -3.343,-0.109 -3.796,-0.359 -3.796,-2.156 v -19.344"
       id="path101" />
    <path
       class="Lyrics"
       d="m 2643.42,585.735 8.7,-0.344 v -2.156 h -0.9 c -2.85,-0.141 -3.1,-0.438 -3.1,-3.641 v -31.063 l -9.79,0.563 v 2.141 h 2.93 c 1.91,0.046 2.16,0.359 2.16,2.5 v 11.312 c -1.84,-2.562 -4,-3.703 -6.91,-3.703 -5.64,0 -9.93,5.453 -9.93,12.641 0,7.109 4.14,12.156 9.93,12.156 3.16,0 5.32,-1.344 6.91,-4.344 v 3.938 m -5.91,-21.688 c 2.07,0 4,1.5 4.91,3.797 0.66,1.5 0.95,3.547 0.95,6 0,5.844 -2.29,9.594 -5.9,9.594 -3.55,0 -5.64,-3.297 -5.64,-8.844 0,-3 0.29,-5.25 0.93,-6.906 0.86,-2.25 2.71,-3.641 4.75,-3.641 m 28.5,-2.703 c -6.14,0 -10.89,5.453 -10.89,12.453 0,6.844 4.8,12.344 10.8,12.344 6,0 10.8,-5.5 10.8,-12.406 0,-6.844 -4.8,-12.391 -10.71,-12.391 m 0,2.141 c 3.5,0 5.46,3.656 5.46,10.25 0,6.656 -1.96,10.25 -5.55,10.25 -3.59,0 -5.55,-3.594 -5.55,-10.188 0,-6.812 1.89,-10.312 5.64,-10.312"
       id="path102" />
    <path
       class="Lyrics"
       d="m 952.389,562.094 v -2.859 c 0,-2.5 0.156,-4.141 0.547,-5.141 0.812,-2.203 2.562,-3.563 4.562,-3.563 1.047,0 1.688,0.313 1.688,0.86 0,0.203 0,0.25 -0.297,0.64 -0.297,0.454 -0.453,1.063 -0.453,1.61 0,1.5 1.203,2.64 2.75,2.64 1.656,0 2.812,-1.25 2.812,-3.046 0,-2.891 -2.5,-4.704 -6.562,-4.704 -3.438,0 -6,1.204 -7.75,3.704 -1.5,2.109 -2,4.25 -2,8.312 v 1.547 h -4.391 v 2.141 h 4.391 v 17.359 c -0.047,0.703 -0.094,1 -0.297,1.297 -0.344,0.453 -1.297,0.656 -3.453,0.703 h -0.188 v 1.797 h 13.344 v -1.797 h -0.906 c -3.344,-0.109 -3.797,-0.359 -3.797,-2.156 v -17.203 h 5.5 v -2.141 h -5.5 m 28.547,7.203 c 0,-3.156 -0.547,-4.75 -2,-5.953 -1.641,-1.359 -4.094,-2 -7.297,-2 -5.641,0 -9.75,2.641 -9.75,6.297 0,1.844 1.156,3.047 2.906,3.047 1.594,0 2.703,-1.047 2.703,-2.547 0,-0.656 -0.25,-1.344 -0.75,-2.047 -0.312,-0.359 -0.359,-0.453 -0.359,-0.703 0,-1 2,-1.906 4.406,-1.906 1.594,0 3.344,0.5 4.141,1.25 0.953,0.812 1.312,2 1.312,4.25 v 1.953 c -5.203,0.906 -6.859,1.297 -9.312,2.25 -4.344,1.609 -6.391,3.906 -6.391,7.109 0,3.594 2.797,5.844 7.25,5.844 3.453,0 6.547,-1.406 8.703,-3.953 0.797,2.547 2.047,3.547 4.391,3.547 2.25,0 4.609,-1.438 4.609,-2.891 0,-0.359 -0.203,-0.609 -0.5,-0.609 -0.203,0 -0.406,0.062 -0.75,0.203 -0.703,0.297 -1,0.359 -1.406,0.359 -1.406,0 -1.906,-0.906 -1.906,-3.453 v -10.047 m -4.688,6.094 c 0,3 -0.156,3.703 -1,5 -1.25,1.844 -3.5,3.094 -5.703,3.094 -2.297,0 -3.953,-1.641 -3.953,-3.891 0,-2.109 1.047,-3.609 3.25,-4.656 1.547,-0.703 3.5,-1.203 7.406,-1.844 v 2.297"
       id="path103" />
    <path
       class="Tempo"
       d="m 467.42,249.17 h -3.266 v 42.266 c -1.094,-0.687 -2.484,-1.094 -4.062,-1.281 -3.563,0 -6.438,0.39 -9.61,2.172 -3.953,2.078 -8.312,6.437 -8.312,11.281 0,4.75 4.265,7.031 8.609,7.031 6.938,0 16.641,-5.937 16.641,-13.469 v -48"
       id="path104" />
    <path
       class="Tempo"
       d="m 489.154,287.124 h 30.235 v -6.907 h -30.235 v 6.907 m 0,12.359 h 30.235 v -6.906 h -30.235 v 6.906 m 74.11,-19.141 c 3.968,-1.5 7.093,-3.843 7.093,-8.578 0,-5.531 -5.234,-9.25 -13.031,-9.25 -9.297,0 -15.297,4.985 -15.297,12.781 0,4.75 2.219,8.219 6.969,10.75 -1.859,0.594 -2.641,0.829 -3.672,1.375 -3,1.563 -4.609,4.313 -4.609,7.797 0,6.485 5.812,10.625 14.937,10.625 9.656,0 16.203,-5.531 16.203,-13.75 0,-5.64 -2.765,-9.359 -8.593,-11.75 m -3.36,-1.265 c -2.515,-0.594 -4.375,-1.141 -5.515,-1.563 -2.75,-1.015 -4.563,-3.469 -4.563,-6.109 0,-3.313 2.766,-5.766 6.484,-5.766 4.016,0 6.547,2.641 6.547,6.844 0,2.703 -1.031,4.984 -2.953,6.594 m -7.672,8.578 c 2.453,0.672 5.453,1.562 6.953,2.047 3.782,1.312 5.219,2.937 5.219,6 0,4.078 -3.359,7.015 -8.094,7.015 -4.859,0 -7.796,-2.875 -7.796,-7.672 0,-3.187 1.015,-5.218 3.718,-7.39 m 38.078,-25.141 c -9,0 -15.593,9.188 -15.593,21.672 0,12.469 6.593,21.656 15.593,21.656 8.813,0 15.547,-9.187 15.547,-21.359 0,-7.078 -1.625,-12.297 -5.172,-16.75 -2.812,-3.406 -6.359,-5.219 -10.375,-5.219 m -0.062,3.125 c 1.797,0 3.25,1.078 3.906,3 0.781,1.985 1.25,8.281 1.25,15.719 0,6.187 -0.469,12.656 -1.015,14.703 -0.657,2.391 -2.094,3.656 -4.141,3.656 -1.859,0 -3.234,-1.015 -3.953,-3 -0.781,-1.984 -1.266,-8.343 -1.266,-15.531 0,-6.312 0.485,-12.844 1.016,-14.891 0.672,-2.39 2.109,-3.656 4.203,-3.656"
       id="path105" />
    <path
       class="StaffText"
       d="m 737.231,324.945 h -1.89 l -1.954,3 c -3.25,-2.546 -5.453,-3.406 -9.109,-3.406 -3.953,0 -7.047,1.11 -10.203,3.656 -4.938,4 -7.25,9.047 -7.25,15.797 0,5.11 1.453,9.36 4.406,12.61 3.094,3.5 7.703,5.547 12.5,5.547 4.203,0 7.156,-1.297 10.406,-4.547 l 1.844,4.5 h 2.11 v -11 c 0,-2.547 0,-2.657 0.296,-3.11 0.454,-0.547 1.344,-0.687 4.204,-0.687 h 0.75 v -2.36 h -15.907 v 2.36 h 0.953 c 4.204,0 4.547,0.25 4.547,3.047 0,2.14 -0.343,4.093 -1,5.297 -1.25,2.453 -4.453,4.156 -7.703,4.156 -3.25,0 -6.453,-1.656 -8.156,-4.156 -1.844,-2.797 -2.641,-6.297 -2.641,-11.657 0,-11.14 3.703,-17.093 10.641,-17.093 5.703,0 9.656,4.093 11.703,12.093 h 2.156 l -0.703,-14.047"
       id="path106" />
    <path
       class="StaffText"
       d="m 667.551,324.945 h -1.89 l -1.954,3 c -3.25,-2.546 -5.453,-3.406 -9.109,-3.406 -3.953,0 -7.047,1.11 -10.203,3.656 -4.938,4 -7.25,9.047 -7.25,15.797 0,5.11 1.453,9.36 4.406,12.61 3.094,3.5 7.703,5.547 12.5,5.547 4.203,0 7.156,-1.297 10.406,-4.547 l 1.844,4.5 h 2.11 v -11 c 0,-2.547 0,-2.657 0.296,-3.11 0.454,-0.547 1.344,-0.687 4.204,-0.687 h 0.75 v -2.36 h -15.907 v 2.36 h 0.953 c 4.204,0 4.547,0.25 4.547,3.047 0,2.14 -0.343,4.093 -1,5.297 -1.25,2.453 -4.453,4.156 -7.703,4.156 -3.25,0 -6.453,-1.656 -8.156,-4.156 -1.844,-2.797 -2.641,-6.297 -2.641,-11.657 0,-11.14 3.703,-17.093 10.641,-17.093 5.703,0 9.656,4.093 11.703,12.093 h 2.156 l -0.703,-14.047"
       id="path107" />
    <path
       class="StaffText"
       d="m 566.034,323.945 h -1.891 l -1.953,3 c -3.25,-2.546 -5.453,-3.406 -9.11,-3.406 -3.953,0 -7.046,1.11 -10.203,3.656 -4.937,4 -7.25,9.047 -7.25,15.797 0,5.11 1.453,9.36 4.407,12.61 3.093,3.5 7.703,5.547 12.5,5.547 4.203,0 7.156,-1.297 10.406,-4.547 l 1.844,4.5 h 2.109 v -11 c 0,-2.547 0,-2.657 0.297,-3.11 0.453,-0.547 1.344,-0.687 4.203,-0.687 h 0.75 v -2.36 h -15.906 v 2.36 h 0.953 c 4.203,0 4.547,0.25 4.547,3.047 0,2.14 -0.344,4.093 -1,5.297 -1.25,2.453 -4.453,4.156 -7.703,4.156 -3.25,0 -6.454,-1.656 -8.157,-4.156 -1.843,-2.797 -2.64,-6.297 -2.64,-11.657 0,-11.14 3.703,-17.093 10.64,-17.093 5.703,0 9.657,4.093 11.703,12.093 h 2.157 l -0.703,-14.047"
       id="path108" />
    <path
       class="StaffText"
       d="m 2323.29,325.289 h -30.04 v 2.36 h 0.89 c 2.86,0.046 3.81,0.203 4.2,0.703 0.3,0.437 0.3,0.547 0.3,3.093 v 23.797 c 0,2.563 0,2.657 -0.3,3.11 -0.39,0.5 -1.34,0.703 -4.2,0.703 h -0.89 v 2.344 h 30.7 l 1,-13.344 h -2.2 c -1.91,8.89 -3.96,10.797 -11.61,11 h -3.3 c -3,-0.11 -3.75,-0.61 -3.59,-2.406 v -12.75 h 1 c 5.14,-0.204 7,1.656 7.2,7.203 h 2.34 v -16.407 h -2.34 c -0.31,4.907 -2.25,6.86 -7,6.86 h -1.2 v -11.406 c -0.05,-2.11 0.45,-2.454 3.14,-2.5 h 2.61 c 8.2,-0.047 10.25,1.75 11.84,10.406 h 2.16 l -0.71,-12.766"
       id="path109" />
    <path
       class="StaffText"
       d="m 1290.44,361.399 h 16.79 c 4.46,0 7.86,-0.704 10.5,-2.204 5.05,-2.843 7.86,-8.546 7.86,-16.046 0,-6.907 -2.5,-12.297 -7.11,-15.297 -2.75,-1.75 -6.45,-2.563 -12.15,-2.563 h -15.89 v 2.36 h 0.95 c 2.8,0.046 3.75,0.203 4.14,0.703 0.3,0.437 0.3,0.547 0.3,3.093 v 23.797 c 0,2.563 0,2.657 -0.3,3.11 -0.39,0.5 -1.34,0.64 -4.14,0.703 h -0.95 v 2.344 m 13.84,-2.344 c -2.55,0 -2.84,-0.313 -2.84,-2.75 v -25.86 c 0,-2.453 0.34,-2.796 2.84,-2.796 h 2.61 c 8.55,0 12.09,4.64 12.09,15.703 0,11.203 -3.2,15.703 -11.29,15.703 h -3.41"
       id="path110" />
    <path
       class="StaffText"
       d="m 1981.54,324.945 h -1.9 l -1.95,3 c -3.25,-2.546 -5.45,-3.406 -9.11,-3.406 -3.95,0 -7.04,1.11 -10.2,3.656 -4.94,4 -7.25,9.047 -7.25,15.797 0,5.11 1.45,9.36 4.41,12.61 3.09,3.5 7.7,5.547 12.5,5.547 4.2,0 7.15,-1.297 10.4,-4.547 l 1.85,4.5 h 2.1 v -11 c 0,-2.547 0,-2.657 0.3,-3.11 0.45,-0.547 1.35,-0.687 4.2,-0.687 h 0.75 v -2.36 h -15.9 v 2.36 h 0.95 c 4.2,0 4.55,0.25 4.55,3.047 0,2.14 -0.35,4.093 -1,5.297 -1.25,2.453 -4.45,4.156 -7.7,4.156 -3.25,0 -6.46,-1.656 -8.16,-4.156 -1.84,-2.797 -2.64,-6.297 -2.64,-11.657 0,-11.14 3.7,-17.093 10.64,-17.093 5.7,0 9.66,4.093 11.7,12.093 h 2.16 l -0.7,-14.047"
       id="path111" />
    <path
       class="StaffText"
       d="m 1528.14,325.289 h -30.05 v 2.36 h 0.89 c 2.86,0.046 3.81,0.203 4.2,0.703 0.3,0.437 0.3,0.547 0.3,3.093 v 23.797 c 0,2.563 0,2.657 -0.3,3.11 -0.39,0.5 -1.34,0.703 -4.2,0.703 h -0.89 v 2.344 h 30.7 l 1,-13.344 h -2.2 c -1.91,8.89 -3.95,10.797 -11.61,11 h -3.3 c -3,-0.11 -3.75,-0.61 -3.59,-2.406 v -12.75 h 1 c 5.14,-0.204 7,1.656 7.2,7.203 h 2.35 v -16.407 h -2.35 c -0.31,4.907 -2.25,6.86 -7,6.86 h -1.2 v -11.406 c -0.05,-2.11 0.45,-2.454 3.14,-2.5 h 2.61 c 8.2,-0.047 10.25,1.75 11.84,10.406 h 2.16 l -0.7,-12.766"
       id="path112" />
    <path
       class="StaffText"
       d="m 2360.93,361.399 h 16.79 c 4.46,0 7.86,-0.704 10.5,-2.204 5.05,-2.843 7.86,-8.546 7.86,-16.046 0,-6.907 -2.5,-12.297 -7.11,-15.297 -2.75,-1.75 -6.45,-2.563 -12.15,-2.563 h -15.89 v 2.36 h 0.95 c 2.8,0.046 3.75,0.203 4.14,0.703 0.3,0.437 0.3,0.547 0.3,3.093 v 23.797 c 0,2.563 0,2.657 -0.3,3.11 -0.39,0.5 -1.34,0.64 -4.14,0.703 h -0.95 v 2.344 m 13.84,-2.344 c -2.55,0 -2.84,-0.313 -2.84,-2.75 v -25.86 c 0,-2.453 0.34,-2.796 2.84,-2.796 h 2.61 c 8.55,0 12.09,4.64 12.09,15.703 0,11.203 -3.2,15.703 -11.29,15.703 h -3.41"
       id="path113" />
    <path
       class="StaffText"
       d="m 1736.04,324.945 h -1.89 l -1.95,3 c -3.25,-2.546 -5.46,-3.406 -9.11,-3.406 -3.96,0 -7.05,1.11 -10.21,3.656 -4.93,4 -7.25,9.047 -7.25,15.797 0,5.11 1.46,9.36 4.41,12.61 3.09,3.5 7.7,5.547 12.5,5.547 4.2,0 7.16,-1.297 10.41,-4.547 l 1.84,4.5 h 2.11 v -11 c 0,-2.547 0,-2.657 0.3,-3.11 0.45,-0.547 1.34,-0.687 4.2,-0.687 h 0.75 v -2.36 h -15.91 v 2.36 h 0.96 c 4.2,0 4.54,0.25 4.54,3.047 0,2.14 -0.34,4.093 -1,5.297 -1.25,2.453 -4.45,4.156 -7.7,4.156 -3.25,0 -6.45,-1.656 -8.16,-4.156 -1.84,-2.797 -2.64,-6.297 -2.64,-11.657 0,-11.14 3.71,-17.093 10.64,-17.093 5.71,0 9.66,4.093 11.71,12.093 h 2.15 l -0.7,-14.047"
       id="path114" />
    <path
       class="StaffText"
       d="m 1222.76,361.399 h 16.79 c 4.46,0 7.86,-0.704 10.5,-2.204 5.05,-2.843 7.86,-8.546 7.86,-16.046 0,-6.907 -2.5,-12.297 -7.11,-15.297 -2.75,-1.75 -6.45,-2.563 -12.15,-2.563 h -15.89 v 2.36 h 0.95 c 2.8,0.046 3.75,0.203 4.14,0.703 0.3,0.437 0.3,0.547 0.3,3.093 v 23.797 c 0,2.563 0,2.657 -0.3,3.11 -0.39,0.5 -1.34,0.64 -4.14,0.703 h -0.95 v 2.344 m 13.84,-2.344 c -2.55,0 -2.84,-0.313 -2.84,-2.75 v -25.86 c 0,-2.453 0.34,-2.796 2.84,-2.796 h 2.61 c 8.55,0 12.09,4.64 12.09,15.703 0,11.203 -3.2,15.703 -11.29,15.703 h -3.41"
       id="path115" />
    <path
       class="StaffText"
       d="m 2049.72,325.289 h -30.05 v 2.36 h 0.89 c 2.86,0.046 3.81,0.203 4.2,0.703 0.3,0.437 0.3,0.547 0.3,3.093 v 23.797 c 0,2.563 0,2.657 -0.3,3.11 -0.39,0.5 -1.34,0.703 -4.2,0.703 h -0.89 v 2.344 h 30.7 l 1,-13.344 h -2.2 c -1.91,8.89 -3.95,10.797 -11.61,11 h -3.3 c -3,-0.11 -3.75,-0.61 -3.59,-2.406 v -12.75 h 1 c 5.14,-0.204 7,1.656 7.2,7.203 h 2.35 v -16.407 h -2.35 c -0.31,4.907 -2.25,6.86 -7,6.86 h -1.2 v -11.406 c -0.05,-2.11 0.45,-2.454 3.14,-2.5 h 2.61 c 8.2,-0.047 10.25,1.75 11.84,10.406 h 2.16 l -0.7,-12.766"
       id="path116" />
    <path
       class="StaffText"
       d="m 2428.6,361.399 h 16.8 c 4.45,0 7.86,-0.704 10.5,-2.204 5.05,-2.843 7.86,-8.546 7.86,-16.046 0,-6.907 -2.5,-12.297 -7.11,-15.297 -2.75,-1.75 -6.45,-2.563 -12.16,-2.563 h -15.89 v 2.36 h 0.96 c 2.79,0.046 3.75,0.203 4.14,0.703 0.29,0.437 0.29,0.547 0.29,3.093 v 23.797 c 0,2.563 0,2.657 -0.29,3.11 -0.39,0.5 -1.35,0.64 -4.14,0.703 h -0.96 v 2.344 m 13.85,-2.344 c -2.55,0 -2.85,-0.313 -2.85,-2.75 v -25.86 c 0,-2.453 0.35,-2.796 2.85,-2.796 h 2.61 c 8.54,0 12.09,4.64 12.09,15.703 0,11.203 -3.2,15.703 -11.3,15.703 h -3.4"
       id="path117" />
    <path
       class="StaffText"
       d="m 1185.13,325.289 h -30.05 v 2.36 h 0.89 c 2.86,0.046 3.81,0.203 4.2,0.703 0.3,0.437 0.3,0.547 0.3,3.093 v 23.797 c 0,2.563 0,2.657 -0.3,3.11 -0.39,0.5 -1.34,0.703 -4.2,0.703 h -0.89 v 2.344 h 30.7 l 1,-13.344 h -2.2 c -1.91,8.89 -3.95,10.797 -11.61,11 h -3.3 c -3,-0.11 -3.75,-0.61 -3.59,-2.406 v -12.75 h 1 c 5.14,-0.204 7,1.656 7.2,7.203 h 2.35 v -16.407 h -2.35 c -0.31,4.907 -2.25,6.86 -7,6.86 h -1.2 v -11.406 c -0.05,-2.11 0.45,-2.454 3.14,-2.5 h 2.61 c 8.2,-0.047 10.25,1.75 11.84,10.406 h 2.16 l -0.7,-12.766"
       id="path118" />
    <path
       class="StaffText"
       d="m 1117.45,325.289 h -30.05 v 2.36 h 0.89 c 2.86,0.046 3.81,0.203 4.2,0.703 0.3,0.437 0.3,0.547 0.3,3.093 v 23.797 c 0,2.563 0,2.657 -0.3,3.11 -0.39,0.5 -1.34,0.703 -4.2,0.703 h -0.89 v 2.344 h 30.7 l 1,-13.344 h -2.2 c -1.91,8.89 -3.95,10.797 -11.61,11 h -3.3 c -3,-0.11 -3.75,-0.61 -3.59,-2.406 v -12.75 h 1 c 5.14,-0.204 7,1.656 7.2,7.203 h 2.35 v -16.407 h -2.35 c -0.31,4.907 -2.25,6.86 -7,6.86 h -1.2 v -11.406 c -0.05,-2.11 0.45,-2.454 3.14,-2.5 h 2.61 c 8.2,-0.047 10.25,1.75 11.84,10.406 h 2.16 l -0.7,-12.766"
       id="path119" />
    <path
       class="StaffText"
       d="m 1666.36,324.945 h -1.89 l -1.95,3 c -3.25,-2.546 -5.46,-3.406 -9.11,-3.406 -3.96,0 -7.05,1.11 -10.21,3.656 -4.93,4 -7.25,9.047 -7.25,15.797 0,5.11 1.46,9.36 4.41,12.61 3.09,3.5 7.7,5.547 12.5,5.547 4.2,0 7.16,-1.297 10.41,-4.547 l 1.84,4.5 h 2.11 v -11 c 0,-2.547 0,-2.657 0.3,-3.11 0.45,-0.547 1.34,-0.687 4.2,-0.687 h 0.75 v -2.36 h -15.91 v 2.36 h 0.96 c 4.2,0 4.54,0.25 4.54,3.047 0,2.14 -0.34,4.093 -1,5.297 -1.25,2.453 -4.45,4.156 -7.7,4.156 -3.25,0 -6.45,-1.656 -8.16,-4.156 -1.84,-2.797 -2.64,-6.297 -2.64,-11.657 0,-11.14 3.71,-17.093 10.64,-17.093 5.71,0 9.66,4.093 11.71,12.093 h 2.15 l -0.7,-14.047"
       id="path120" />
    <path
       class="StaffText"
       d="m 2117.1,325.289 h -29.75 v 2.36 h 0.89 c 2.86,0.046 3.81,0.203 4.2,0.703 0.3,0.437 0.3,0.547 0.3,3.093 v 23.797 c 0,2.563 0,2.657 -0.3,3.11 -0.39,0.5 -1.34,0.703 -4.2,0.703 h -0.89 v 2.344 h 17.14 v -2.344 h -1.64 c -2.86,0 -3.8,-0.203 -4.21,-0.703 -0.29,-0.453 -0.29,-0.61 -0.29,-3.11 v -11.343 h 1 c 5.14,-0.204 7,1.656 7.2,7.203 h 2.34 v -16.407 h -2.34 c -0.31,4.907 -2.25,6.797 -7,6.86 h -1.2 v -11.406 c -0.05,-2.11 0.45,-2.454 3.14,-2.5 h 2.31 c 8.2,-0.047 10.25,1.796 11.8,10.406 h 2.2 l -0.7,-12.766"
       id="path121" />
    <path
       class="StaffText"
       d="m 1805.72,324.945 h -1.89 l -1.95,3 c -3.25,-2.546 -5.46,-3.406 -9.11,-3.406 -3.96,0 -7.05,1.11 -10.21,3.656 -4.93,4 -7.25,9.047 -7.25,15.797 0,5.11 1.46,9.36 4.41,12.61 3.09,3.5 7.7,5.547 12.5,5.547 4.2,0 7.16,-1.297 10.41,-4.547 l 1.84,4.5 h 2.11 v -11 c 0,-2.547 0,-2.657 0.3,-3.11 0.45,-0.547 1.34,-0.687 4.2,-0.687 h 0.75 v -2.36 h -15.91 v 2.36 h 0.96 c 4.2,0 4.54,0.25 4.54,3.047 0,2.14 -0.34,4.093 -1,5.297 -1.25,2.453 -4.45,4.156 -7.7,4.156 -3.25,0 -6.45,-1.656 -8.16,-4.156 -1.84,-2.797 -2.64,-6.297 -2.64,-11.657 0,-11.14 3.71,-17.093 10.64,-17.093 5.71,0 9.66,4.093 11.71,12.093 h 2.15 l -0.7,-14.047"
       id="path122" />
    <path
       class="StaffText"
       d="m 978.929,325.289 h -29.75 v 2.36 h 0.891 c 2.859,0.046 3.812,0.203 4.203,0.703 0.297,0.437 0.297,0.547 0.297,3.093 v 23.797 c 0,2.563 0,2.657 -0.297,3.11 -0.391,0.5 -1.344,0.703 -4.203,0.703 h -0.891 v 2.344 h 17.141 v -2.344 h -1.641 c -2.859,0 -3.797,-0.203 -4.203,-0.703 -0.297,-0.453 -0.297,-0.61 -0.297,-3.11 v -11.343 h 1 c 5.141,-0.204 7,1.656 7.203,7.203 h 2.344 v -16.407 h -2.344 c -0.312,4.907 -2.25,6.797 -7,6.86 h -1.203 v -11.406 c -0.047,-2.11 0.453,-2.454 3.141,-2.5 h 2.312 c 8.203,-0.047 10.25,1.796 11.797,10.406 h 2.203 l -0.703,-12.766"
       id="path123" />
    <path
       class="StaffText"
       d="m 2564.24,324.945 h -1.91 l -2,2.954 c -3.64,-2.657 -5.5,-3.36 -8.95,-3.36 -4.75,0 -8.8,2 -12.14,6 -3.2,3.813 -4.7,8.016 -4.7,13.156 0,10.797 7.04,18.454 16.9,18.454 8,0 13.1,-4.704 14.25,-13.094 l -2.36,-0.406 c -1.34,7.453 -5.14,11.156 -11.29,11.156 -7.41,0 -10.91,-5.11 -10.91,-15.906 0,-5.704 0.75,-9.454 2.45,-12.454 1.55,-2.796 4.61,-4.546 7.86,-4.546 3.5,0 6.6,1.843 8.5,5.046 0.96,1.657 1.64,3.5 2.85,7.454 h 2.2 l -0.75,-14.454"
       id="path124" />
    <path
       class="StaffText"
       d="m 911.548,325.289 h -30.047 v 2.36 h 0.89 c 2.86,0.046 3.813,0.203 4.203,0.703 0.297,0.437 0.297,0.547 0.297,3.093 v 23.797 c 0,2.563 0,2.657 -0.297,3.11 -0.39,0.5 -1.343,0.703 -4.203,0.703 h -0.89 v 2.344 h 30.703 l 1,-13.344 h -2.203 c -1.907,8.89 -3.953,10.797 -11.61,11 h -3.297 c -3,-0.11 -3.75,-0.61 -3.593,-2.406 v -12.75 h 1 c 5.14,-0.204 7,1.656 7.203,7.203 h 2.344 v -16.407 h -2.344 c -0.313,4.907 -2.25,6.86 -7,6.86 h -1.203 v -11.406 c -0.047,-2.11 0.453,-2.454 3.14,-2.5 h 2.61 c 8.203,-0.047 10.25,1.75 11.843,10.406 h 2.157 l -0.703,-12.766"
       id="path125" />
    <path
       class="StaffText"
       d="m 1426.07,324.945 h -1.9 l -2,2.954 c -3.64,-2.657 -5.5,-3.36 -8.96,-3.36 -4.75,0 -8.79,2 -12.14,6 -3.2,3.813 -4.7,8.016 -4.7,13.156 0,10.797 7.05,18.454 16.91,18.454 8,0 13.09,-4.704 14.25,-13.094 l -2.36,-0.406 c -1.35,7.453 -5.14,11.156 -11.3,11.156 -7.41,0 -10.91,-5.11 -10.91,-15.906 0,-5.704 0.75,-9.454 2.46,-12.454 1.54,-2.796 4.61,-4.546 7.86,-4.546 3.5,0 6.59,1.843 8.5,5.046 0.95,1.657 1.64,3.5 2.84,7.454 h 2.2 l -0.75,-14.454"
       id="path126" />
    <path
       class="StaffText"
       d="m 1875.4,324.945 h -1.89 l -1.95,3 c -3.25,-2.546 -5.46,-3.406 -9.11,-3.406 -3.96,0 -7.05,1.11 -10.21,3.656 -4.93,4 -7.25,9.047 -7.25,15.797 0,5.11 1.46,9.36 4.41,12.61 3.09,3.5 7.7,5.547 12.5,5.547 4.2,0 7.16,-1.297 10.41,-4.547 l 1.84,4.5 h 2.11 v -11 c 0,-2.547 0,-2.657 0.3,-3.11 0.45,-0.547 1.34,-0.687 4.2,-0.687 h 0.75 v -2.36 h -15.91 v 2.36 h 0.96 c 4.2,0 4.54,0.25 4.54,3.047 0,2.14 -0.34,4.093 -1,5.297 -1.25,2.453 -4.45,4.156 -7.7,4.156 -3.25,0 -6.45,-1.656 -8.16,-4.156 -1.84,-2.797 -2.64,-6.297 -2.64,-11.657 0,-11.14 3.71,-17.093 10.64,-17.093 5.71,0 9.66,4.093 11.71,12.093 h 2.15 l -0.7,-14.047"
       id="path127" />
    <path
       class="StaffText"
       d="m 843.368,324.945 h -1.891 l -1.953,3 c -3.25,-2.546 -5.453,-3.406 -9.11,-3.406 -3.953,0 -7.046,1.11 -10.203,3.656 -4.937,4 -7.25,9.047 -7.25,15.797 0,5.11 1.453,9.36 4.407,12.61 3.093,3.5 7.703,5.547 12.5,5.547 4.203,0 7.156,-1.297 10.406,-4.547 l 1.844,4.5 h 2.109 v -11 c 0,-2.547 0,-2.657 0.297,-3.11 0.453,-0.547 1.344,-0.687 4.203,-0.687 h 0.75 v -2.36 h -15.906 v 2.36 h 0.953 c 4.203,0 4.547,0.25 4.547,3.047 0,2.14 -0.344,4.093 -1,5.297 -1.25,2.453 -4.453,4.156 -7.703,4.156 -3.25,0 -6.454,-1.656 -8.157,-4.156 -1.843,-2.797 -2.64,-6.297 -2.64,-11.657 0,-11.14 3.703,-17.093 10.64,-17.093 5.703,0 9.657,4.093 11.703,12.093 h 2.157 l -0.703,-14.047"
       id="path128" />
    <path
       class="StaffText"
       d="m 2665.76,324.945 h -1.91 l -2,2.954 c -3.64,-2.657 -5.5,-3.36 -8.95,-3.36 -4.75,0 -8.8,2 -12.14,6 -3.21,3.813 -4.71,8.016 -4.71,13.156 0,10.797 7.05,18.454 16.91,18.454 8,0 13.09,-4.704 14.25,-13.094 l -2.36,-0.406 c -1.34,7.453 -5.14,11.156 -11.3,11.156 -7.4,0 -10.9,-5.11 -10.9,-15.906 0,-5.704 0.75,-9.454 2.45,-12.454 1.55,-2.796 4.61,-4.546 7.86,-4.546 3.5,0 6.59,1.843 8.5,5.046 0.95,1.657 1.64,3.5 2.84,7.454 h 2.21 l -0.75,-14.454"
       id="path129" />
    <path
       class="StaffText"
       d="m 2255.62,325.289 h -30.05 v 2.36 h 0.89 c 2.86,0.046 3.81,0.203 4.2,0.703 0.3,0.437 0.3,0.547 0.3,3.093 v 23.797 c 0,2.563 0,2.657 -0.3,3.11 -0.39,0.5 -1.34,0.703 -4.2,0.703 h -0.89 v 2.344 h 30.7 l 1,-13.344 h -2.2 c -1.91,8.89 -3.95,10.797 -11.61,11 h -3.3 c -3,-0.11 -3.75,-0.61 -3.59,-2.406 v -12.75 h 1 c 5.14,-0.204 7,1.656 7.2,7.203 h 2.35 v -16.407 h -2.35 c -0.31,4.907 -2.25,6.86 -7,6.86 h -1.2 v -11.406 c -0.05,-2.11 0.45,-2.454 3.14,-2.5 h 2.61 c 8.2,-0.047 10.25,1.75 11.84,10.406 h 2.16 l -0.7,-12.766"
       id="path130" />
  </g>
  <metadata
     id="metadata130">
    <rdf:RDF>
      <cc:Work
         rdf:about="">
        <dc:title>13</dc:title>
      </cc:Work>
    </rdf:RDF>
  </metadata>
</svg>
