<?xml version="1.0" encoding="UTF-8" standalone="no"?>
<svg
   width="2555"
   height="800"
   viewBox="0 0 2555 800.00002"
   version="1.2"
   id="svg178"
   sodipodi:docname="19.svg"
   inkscape:version="1.3 (0e150ed6c4, 2023-07-21)"
   xmlns:inkscape="http://www.inkscape.org/namespaces/inkscape"
   xmlns:sodipodi="http://sodipodi.sourceforge.net/DTD/sodipodi-0.dtd"
   xmlns="http://www.w3.org/2000/svg"
   xmlns:svg="http://www.w3.org/2000/svg"
   xmlns:rdf="http://www.w3.org/1999/02/22-rdf-syntax-ns#"
   xmlns:cc="http://creativecommons.org/ns#"
   xmlns:dc="http://purl.org/dc/elements/1.1/">
  <defs
     id="defs178" />
  <sodipodi:namedview
     id="namedview178"
     pagecolor="#505050"
     bordercolor="#ffffff"
     borderopacity="1"
     inkscape:showpageshadow="0"
     inkscape:pageopacity="0"
     inkscape:pagecheckerboard="1"
     inkscape:deskcolor="#505050"
     inkscape:zoom="0.18605646"
     inkscape:cx="1383.9885"
     inkscape:cy="787.39538"
     inkscape:window-width="1680"
     inkscape:window-height="979"
     inkscape:window-x="1358"
     inkscape:window-y="-8"
     inkscape:window-maximized="1"
     inkscape:current-layer="svg178" />
  <title
     id="title1">19</title>
  <desc
     id="desc1">Generated by MuseScore Studio 4.3.0</desc>
  <g
     id="g300"
     transform="translate(-211.099,-191.29098)">
    <g
       id="g298"
       transform="translate(0,-317.10804)">
      <polyline
         class="StaffLines"
         fill="none"
         stroke="#000000"
         stroke-width="2.73"
         stroke-linejoin="bevel"
         points="212.598,993.799 2764.6,993.799"
         id="polyline6" />
      <polyline
         class="StaffLines"
         fill="none"
         stroke="#000000"
         stroke-width="2.73"
         stroke-linejoin="bevel"
         points="212.598,1018.6 2764.6,1018.6"
         id="polyline7" />
      <polyline
         class="StaffLines"
         fill="none"
         stroke="#000000"
         stroke-width="2.73"
         stroke-linejoin="bevel"
         points="212.598,1043.4 2764.6,1043.4"
         id="polyline8" />
      <polyline
         class="StaffLines"
         fill="none"
         stroke="#000000"
         stroke-width="2.73"
         stroke-linejoin="bevel"
         points="212.598,1068.2 2764.6,1068.2"
         id="polyline9" />
      <polyline
         class="StaffLines"
         fill="none"
         stroke="#000000"
         stroke-width="2.73"
         stroke-linejoin="bevel"
         points="212.598,1093 2764.6,1093"
         id="polyline10" />
      <path
         class="MeasureNumber"
         d="m 229.958,915.887 h -1.157 c -2.203,1.64 -6.437,3.031 -9.328,3.031 l -0.468,1.766 h 2.75 c 2.437,0 2.718,0.078 2.718,0.797 0,0.359 0,0.359 -0.39,1.796 l -4.282,16 c -0.531,2 -0.562,2.125 -0.921,2.485 -0.407,0.39 -1.25,0.515 -3.36,0.562 h -1.719 l -0.203,1.875 h 14.797 l 0.235,-1.875 h -2.157 c -2.593,0 -3.156,-0.203 -3.156,-1.078 0,-0.281 0.156,-1.203 0.359,-1.969 l 6.282,-23.39 m 22,0 h -1.157 c -2.203,1.64 -6.437,3.031 -9.328,3.031 l -0.468,1.766 h 2.75 c 2.437,0 2.718,0.078 2.718,0.797 0,0.359 0,0.359 -0.39,1.796 l -4.282,16 c -0.531,2 -0.562,2.125 -0.921,2.485 -0.407,0.39 -1.25,0.515 -3.36,0.562 h -1.719 l -0.203,1.875 h 14.797 l 0.235,-1.875 h -2.157 c -2.593,0 -3.156,-0.203 -3.156,-1.078 0,-0.281 0.156,-1.203 0.359,-1.969 l 6.282,-23.39"
         id="path10" />
      <path
         class="SlurSegment"
         stroke="#000000"
         stroke-width="1.24"
         stroke-linecap="round"
         stroke-linejoin="round"
         fill-rule="evenodd"
         d="m 372.795,1140.12 c 70.116,42.65 280.463,42.65 350.579,0 -70.116,50.59 -280.463,50.59 -350.579,0"
         id="path11" />
      <path
         class="SlurSegment"
         stroke="#000000"
         stroke-width="1.24"
         stroke-linecap="round"
         stroke-linejoin="round"
         fill-rule="evenodd"
         d="m 372.795,1156.24 c 86.772,50.64 478.652,30.67 559.829,-28.52 -80.773,67.12 -472.653,87.08 -559.829,28.52"
         id="path14" />
      <path
         class="TieSegment"
         stroke="#000000"
         stroke-width="1.24"
         stroke-linecap="round"
         stroke-linejoin="round"
         fill-rule="evenodd"
         d="m 2090.58,1136 c 69.12,30.23 276.49,30.23 345.61,0 -69.12,38.17 -276.49,38.17 -345.61,0"
         id="path17" />
      <polyline
         class="BarLine"
         fill="none"
         stroke="#000000"
         stroke-width="4.46"
         stroke-linejoin="bevel"
         points="2739.55,992.435 2739.55,1094.36"
         id="polyline18" />
      <polyline
         class="BarLine"
         fill="none"
         stroke="#000000"
         stroke-width="13.64"
         stroke-linejoin="bevel"
         points="2757.78,992.435 2757.78,1094.36"
         id="polyline19" />
      <polyline
         class="BarLine"
         fill="none"
         stroke="#000000"
         stroke-width="4.46"
         stroke-linejoin="bevel"
         points="672.786,992.435 672.786,1094.36"
         id="polyline20" />
      <polyline
         class="BarLine"
         fill="none"
         stroke="#000000"
         stroke-width="4.46"
         stroke-linejoin="bevel"
         points="1583.19,992.435 1583.19,1094.36"
         id="polyline23" />
      <polyline
         class="BarLine"
         fill="none"
         stroke="#000000"
         stroke-width="4.46"
         stroke-linejoin="bevel"
         points="2388.98,992.435 2388.98,1094.36"
         id="polyline24" />
      <polyline
         class="BarLine"
         fill="none"
         stroke="#000000"
         stroke-width="4.46"
         stroke-linejoin="bevel"
         points="1127.99,992.435 1127.99,1094.36"
         id="polyline25" />
      <polyline
         class="BarLine"
         fill="none"
         stroke="#000000"
         stroke-width="4.46"
         stroke-linejoin="bevel"
         points="2038.4,992.435 2038.4,1094.36"
         id="polyline31" />
      <polyline
         class="LedgerLine"
         fill="none"
         stroke="#000000"
         stroke-width="3.97"
         stroke-linejoin="bevel"
         points="348.495,1117.8 397.095,1117.8"
         id="polyline34" />
      <polyline
         class="LedgerLine"
         fill="none"
         stroke="#000000"
         stroke-width="3.97"
         stroke-linejoin="bevel"
         points="2415.26,1117.8 2463.86,1117.8"
         id="polyline35" />
      <polyline
         class="LedgerLine"
         fill="none"
         stroke="#000000"
         stroke-width="3.97"
         stroke-linejoin="bevel"
         points="2064.68,1117.8 2113.29,1117.8"
         id="polyline36" />
      <polyline
         class="LedgerLine"
         fill="none"
         stroke="#000000"
         stroke-width="3.97"
         stroke-linejoin="bevel"
         points="699.074,1117.8 747.674,1117.8"
         id="polyline37" />
      <polyline
         class="Stem"
         fill="none"
         stroke="#000000"
         stroke-width="2.48"
         stroke-linejoin="bevel"
         points="2454.44,1113.83 2454.44,1031"
         id="polyline38" />
      <polyline
         class="Stem"
         fill="none"
         stroke="#000000"
         stroke-width="2.48"
         stroke-linejoin="bevel"
         points="1857.91,1101.43 1857.91,1018.6"
         id="polyline42" />
      <polyline
         class="Stem"
         fill="none"
         stroke="#000000"
         stroke-width="2.48"
         stroke-linejoin="bevel"
         points="387.671,1113.83 387.671,1031"
         id="polyline46" />
      <polyline
         class="Stem"
         fill="none"
         stroke="#000000"
         stroke-width="2.48"
         stroke-linejoin="bevel"
         points="1193.45,1089.03 1193.45,1006.2"
         id="polyline47" />
      <polyline
         class="Stem"
         fill="none"
         stroke="#000000"
         stroke-width="2.48"
         stroke-linejoin="bevel"
         points="1648.66,1101.43 1648.66,1018.6"
         id="polyline57" />
      <polyline
         class="Stem"
         fill="none"
         stroke="#000000"
         stroke-width="2.48"
         stroke-linejoin="bevel"
         points="738.25,1113.83 738.25,1031"
         id="polyline58" />
      <polyline
         class="Stem"
         fill="none"
         stroke="#000000"
         stroke-width="2.48"
         stroke-linejoin="bevel"
         points="1402.7,1089.03 1402.7,1006.2"
         id="polyline61" />
      <polyline
         class="Stem"
         fill="none"
         stroke="#000000"
         stroke-width="2.48"
         stroke-linejoin="bevel"
         points="947.5,1101.43 947.5,1018.6"
         id="polyline65" />
      <polyline
         class="Stem"
         fill="none"
         stroke="#000000"
         stroke-width="2.48"
         stroke-linejoin="bevel"
         points="2103.86,1113.83 2103.86,1031"
         id="polyline66" />
      <path
         class="Note"
         transform="matrix(0.992001,0,0,0.992001,707.258,1117.8)"
         d="M 0,4.20313 C 0,8.5 3.09375,13.2969 11.2031,13.2969 21.5938,13.2969 32.5,4.79688 32.5,-4 c 0,-5.90625 -5,-9.2031 -11.2031,-9.2031 C 11.5938,-13.2031 0,-5 0,4.20313"
         id="path87" />
      <path
         class="Note"
         transform="matrix(0.992001,0,0,0.992001,356.679,1117.8)"
         d="M 21.2969,-13.2031 C 11.5938,-13.2031 0,-5.09375 0,4.20313 0,8.5 3.09375,13.2969 11.2031,13.2969 21.5938,13.2969 32.5,4.79688 32.5,-4 c 0,-5.90625 -5,-9.2031 -11.2031,-9.2031 M 7.5,8.59375 C 4.20313,8.59375 3.5,5.90625 3.5,5 3.5,0.09375 20.2969,-8.5 25,-8.5 c 2.4063,0 4,1.40625 4,3.59375 0,5 -16.9062,13.5 -21.5,13.5"
         id="path94" />
      <path
         class="Note"
         transform="matrix(0.992001,0,0,0.992001,916.507,1105.4)"
         d="M 0,4.20313 C 0,8.5 3.09375,13.2969 11.2031,13.2969 21.5938,13.2969 32.5,4.79688 32.5,-4 c 0,-5.90625 -5,-9.2031 -11.2031,-9.2031 C 11.5938,-13.2031 0,-5 0,4.20313"
         id="path95" />
      <path
         class="Note"
         transform="matrix(0.992001,0,0,0.992001,1162.46,1093)"
         d="M 0,4.20313 C 0,8.5 3.09375,13.2969 11.2031,13.2969 21.5938,13.2969 32.5,4.79688 32.5,-4 c 0,-5.90625 -5,-9.2031 -11.2031,-9.2031 C 11.5938,-13.2031 0,-5 0,4.20313"
         id="path96" />
      <path
         class="Note"
         transform="matrix(0.992001,0,0,0.992001,1371.71,1093)"
         d="M 0,4.20313 C 0,8.5 3.09375,13.2969 11.2031,13.2969 21.5938,13.2969 32.5,4.79688 32.5,-4 c 0,-5.90625 -5,-9.2031 -11.2031,-9.2031 C 11.5938,-13.2031 0,-5 0,4.20313"
         id="path97" />
      <path
         class="Note"
         transform="matrix(0.992001,0,0,0.992001,1617.67,1105.4)"
         d="M 0,4.20313 C 0,8.5 3.09375,13.2969 11.2031,13.2969 21.5938,13.2969 32.5,4.79688 32.5,-4 c 0,-5.90625 -5,-9.2031 -11.2031,-9.2031 C 11.5938,-13.2031 0,-5 0,4.20313"
         id="path98" />
      <path
         class="Note"
         transform="matrix(0.992001,0,0,0.992001,1826.91,1105.4)"
         d="M 0,4.20313 C 0,8.5 3.09375,13.2969 11.2031,13.2969 21.5938,13.2969 32.5,4.79688 32.5,-4 c 0,-5.90625 -5,-9.2031 -11.2031,-9.2031 C 11.5938,-13.2031 0,-5 0,4.20313"
         id="path99" />
      <path
         class="Note"
         transform="matrix(0.992001,0,0,0.992001,2072.87,1117.8)"
         d="M 21.2969,-13.2031 C 11.5938,-13.2031 0,-5.09375 0,4.20313 0,8.5 3.09375,13.2969 11.2031,13.2969 21.5938,13.2969 32.5,4.79688 32.5,-4 c 0,-5.90625 -5,-9.2031 -11.2031,-9.2031 M 7.5,8.59375 C 4.20313,8.59375 3.5,5.90625 3.5,5 3.5,0.09375 20.2969,-8.5 25,-8.5 c 2.4063,0 4,1.40625 4,3.59375 0,5 -16.9062,13.5 -21.5,13.5"
         id="path100" />
      <path
         class="Note"
         transform="matrix(0.992001,0,0,0.992001,2423.45,1117.8)"
         d="M 21.2969,-13.2031 C 11.5938,-13.2031 0,-5.09375 0,4.20313 0,8.5 3.09375,13.2969 11.2031,13.2969 21.5938,13.2969 32.5,4.79688 32.5,-4 c 0,-5.90625 -5,-9.2031 -11.2031,-9.2031 M 7.5,8.59375 C 4.20313,8.59375 3.5,5.90625 3.5,5 3.5,0.09375 20.2969,-8.5 25,-8.5 c 2.4063,0 4,1.40625 4,3.59375 0,5 -16.9062,13.5 -21.5,13.5"
         id="path101" />
      <path
         class="Clef"
         transform="matrix(0.992001,0,0,0.992001,231.198,1068.2)"
         d="m 12.2969,51.2969 c 0,6.6094 5,15.3125 18.5,15.3125 4.7031,0 8.8125,-1.2031 12.4062,-3.4063 C 48.6094,59.4063 50,52.7969 50,46.5 c 0,-3.8906 -0.5937,-8.3906 -1.5937,-14.0937 -0.2969,-2 -0.9063,-5 -1.5,-8.9063 C 56.7031,20.2969 64,10.0938 64,-0.203125 64,-15.2969 53.2969,-25.5 38.7031,-25.5 c -1,-6 -2,-11.9063 -2.7968,-17.5 10.5,-11.1094 17.7968,-23.6094 17.7968,-39.5 0,-9.1094 -2.7968,-16.5 -4.4062,-20.109 -2.3906,-5.094 -5.2969,-8.594 -7.0938,-8.594 -0.7031,0 -3.7968,1.203 -7.0937,5.094 -6.4063,7.609 -8.2031,20.4059 -8.2031,28.7965 0,5.4062 0.5,10.3125 2.2031,21.5156 -0.1094,0.0938 -5.3125,5.3906 -7.4063,7.0938 C 12.5938,-40.2969 0,-28.1094 0,-8.09375 0,10.5938 16.2969,25.2969 34.9063,25.2969 c 2.8906,0 5.5937,-0.2969 7.8906,-0.7031 1.9062,9.6093 3.1094,16.6093 3.1094,21.9062 0,10.4063 -5.4063,15.9063 -15.5,15.9063 -2.4063,0 -4.5,-0.5 -4.7032,-0.5 -0.0937,-0.1094 -0.2968,-0.2032 -0.2968,-0.2969 0,-0.2031 0.2031,-0.3125 0.5,-0.3125 C 30.6094,60.5 35.2969,56.5 35.2969,50.1094 35.2969,44.7031 31.2031,39 23.7031,39 c -7,0 -11.4062,5.7031 -11.4062,12.2969 m 20.9062,-133.5 c 0.9063,-4 5.5,-14.5 10.7032,-14.5 1.5,0 3.8906,4.7968 3.8906,11.7968 0,10.4063 -7.6875,18.2032 -14.5938,25 -0.5937,-4 -1.0937,-7.8906 -1.0937,-12.0937 0,-3.7031 0.2969,-7.1094 1.0937,-10.2031 M 42,20.5938 c -2,0.4062 -3.8906,0.6093 -5.7969,0.6093 -14.2968,0 -26.49997,-10 -26.49997,-25.10935 0,-12.18755 8.59377,-23.09375 17.40627,-30.70315 1.6875,-1.5 3.2969,-2.8906 4.7969,-4.3906 0.8906,5.3906 1.5937,10.0937 2.2968,14.2031 -9.1093,2.7031 -15.2968,12.2969 -15.2968,21.70315 0,7 5.5,16.59375 13.5,16.59375 0.7968,0 1.7031,-0.4062 1.7031,-1.2969 0,-0.9062 -1,-1.4062 -2.2031,-2.2031 C 28,7.59375 25.7969,5 25.7969,0.09375 25.7969,-6 30.4063,-10.9063 36.2031,-12.2969 L 42,20.5938 M 56.2031,2.09375 c 0,7.10938 -2.9062,14.40625 -10,17.31255 -2.0937,-12.00005 -4.7968,-27.9063 -5.5,-32.3126 9,0 15.5,6.10942 15.5,15.00005"
         id="path103" />
      <path
         class="Lyrics"
         d="m 364.295,1250.12 8.703,-0.35 v -2.15 h -0.906 c -2.844,-0.14 -3.094,-0.44 -3.094,-3.64 v -31.07 l -9.797,0.57 v 2.14 h 2.938 c 1.906,0.04 2.156,0.36 2.156,2.5 v 11.31 c -1.844,-2.56 -4,-3.7 -6.906,-3.7 -5.641,0 -9.938,5.45 -9.938,12.64 0,7.11 4.141,12.15 9.938,12.15 3.156,0 5.312,-1.34 6.906,-4.34 v 3.94 m -5.906,-21.69 c 2.062,0 4,1.5 4.906,3.8 0.656,1.5 0.953,3.54 0.953,6 0,5.84 -2.297,9.59 -5.906,9.59 -3.547,0 -5.641,-3.3 -5.641,-8.84 0,-3 0.297,-5.25 0.938,-6.91 0.859,-2.25 2.703,-3.64 4.75,-3.64 m 28.5,-2.7 c -6.141,0 -10.891,5.45 -10.891,12.45 0,6.84 4.797,12.34 10.797,12.34 6,0 10.797,-5.5 10.797,-12.4 0,-6.85 -4.797,-12.39 -10.703,-12.39 m 0,2.14 c 3.5,0 5.453,3.65 5.453,10.25 0,6.65 -1.953,10.25 -5.547,10.25 -3.594,0 -5.547,-3.6 -5.547,-10.19 0,-6.81 1.891,-10.31 5.641,-10.31"
         id="path114" />
      <path
         class="Lyrics"
         d="m 714.874,1250.12 8.703,-0.35 v -2.15 h -0.906 c -2.844,-0.14 -3.094,-0.44 -3.094,-3.64 v -31.07 l -9.797,0.57 v 2.14 h 2.937 c 1.907,0.04 2.157,0.36 2.157,2.5 v 11.31 c -1.844,-2.56 -4,-3.7 -6.907,-3.7 -5.64,0 -9.937,5.45 -9.937,12.64 0,7.11 4.141,12.15 9.937,12.15 3.157,0 5.313,-1.34 6.907,-4.34 v 3.94 m -5.907,-21.69 c 2.063,0 4,1.5 4.907,3.8 0.656,1.5 0.953,3.54 0.953,6 0,5.84 -2.297,9.59 -5.906,9.59 -3.547,0 -5.641,-3.3 -5.641,-8.84 0,-3 0.297,-5.25 0.937,-6.91 0.86,-2.25 2.704,-3.64 4.75,-3.64 m 28.5,-2.7 c -6.14,0 -10.89,5.45 -10.89,12.45 0,6.84 4.797,12.34 10.797,12.34 6,0 10.797,-5.5 10.797,-12.4 0,-6.85 -4.797,-12.39 -10.704,-12.39 m 0,2.14 c 3.5,0 5.454,3.65 5.454,10.25 0,6.65 -1.954,10.25 -5.547,10.25 -3.594,0 -5.547,-3.6 -5.547,-10.19 0,-6.81 1.89,-10.31 5.64,-10.31"
         id="path116" />
      <path
         class="Lyrics"
         d="m 919.03,1226.48 -8.86,0.54 v 2.16 h 2.047 c 1.907,0.05 2.157,0.34 2.157,2.5 v 14.3 c -0.047,0.75 -0.094,1.04 -0.297,1.29 -0.36,0.46 -1.36,0.66 -3.5,0.71 h -0.203 v 1.79 h 13.343 v -1.79 h -0.89 c -3.36,-0.11 -3.797,-0.36 -3.797,-2.16 v -2.7 c 0.047,-8.39 3.047,-14.8 6.937,-15 -0.687,0.81 -0.89,1.31 -0.89,2.25 0,1.61 1.14,2.75 2.75,2.75 1.843,0 3.047,-1.35 3.047,-3.35 0,-2.45 -1.704,-4.04 -4.344,-4.04 -3.156,0 -5.86,2.5 -7.5,6.95 v -6.2 m 35.344,12.04 c 0.046,-7.5 -4.204,-12.79 -10.297,-12.79 -6.407,0 -11.203,5.54 -11.203,13.04 0,7.05 4.546,11.75 11.296,11.75 4.797,0 8.157,-2.34 10.204,-7.09 l -1.75,-0.95 c -2.047,3.84 -4.157,5.34 -7.5,5.34 -2.547,0 -4.407,-1.05 -5.704,-3.3 -0.89,-1.5 -1.296,-3.25 -1.25,-6 h 16.204 m -16.157,-2.15 c 0,-3.5 1.61,-8.5 5.813,-8.5 3,0 5,2.65 5,6.7 0,1.41 -0.453,1.8 -2.063,1.8 h -8.75"
         id="path117" />
      <path
         class="Lyrics"
         d="m 1158.62,1226.48 -8.89,0.54 v 2.16 h 2.05 c 1.89,0.05 2.14,0.34 2.14,2.5 v 14.3 c -0.05,0.75 -0.09,1.04 -0.3,1.29 -0.34,0.46 -1.29,0.66 -3.45,0.71 h -0.19 v 1.79 h 12.6 v -1.79 h -0.21 c -3.29,-0.11 -3.75,-0.36 -3.75,-2.21 v -9.25 c 0,-4.45 2.46,-7.75 5.71,-7.75 2.84,0 4.29,2.05 4.29,6.1 v 11.15 c -0.04,0.66 -0.09,1 -0.34,1.25 -0.3,0.46 -1.3,0.66 -3.45,0.71 h -0.21 v 1.79 h 12.66 v -1.79 h -0.2 c -3.3,-0.11 -3.75,-0.36 -3.75,-2.16 v -8.84 c 0,-5 2.25,-8.21 5.75,-8.21 2.86,0 4.25,2.16 4.25,6.66 v 10.55 c -0.05,0.7 -0.1,1.04 -0.35,1.29 -0.29,0.46 -1.29,0.66 -3.45,0.71 h -0.2 v 1.79 h 12.65 v -1.79 h -0.2 c -3.3,-0.11 -3.75,-0.36 -3.75,-2.21 v -11.34 c 0,-3.11 -0.3,-4.16 -1.59,-5.86 -1.46,-1.84 -3.5,-2.84 -5.91,-2.84 -3.25,0 -5.66,1.54 -7.8,5 -0.86,-3 -3.56,-5 -6.9,-5 -3.05,0 -5.25,1.45 -7.21,4.59 v -3.84 m 41.91,-12.46 c -1.61,0 -2.91,1.3 -2.91,2.89 0,1.61 1.3,2.91 2.86,2.91 1.64,0 2.94,-1.3 2.94,-2.91 0,-1.59 -1.3,-2.89 -2.89,-2.89 m 2.34,12.46 -9.39,0.54 v 2.16 h 2.55 c 1.89,0.05 2.14,0.34 2.14,2.5 v 14.3 c -0.05,0.75 -0.09,1.04 -0.3,1.29 -0.34,0.46 -1.29,0.66 -3.45,0.71 h -0.34 v 1.79 h 12.95 v -1.79 h -0.36 c -3.34,-0.11 -3.8,-0.36 -3.8,-2.16 v -19.34"
         id="path125" />
      <path
         class="Lyrics"
         d="m 1367.87,1226.48 -8.89,0.54 v 2.16 h 2.05 c 1.89,0.05 2.14,0.34 2.14,2.5 v 14.3 c -0.05,0.75 -0.09,1.04 -0.3,1.29 -0.34,0.46 -1.29,0.66 -3.45,0.71 h -0.19 v 1.79 h 12.6 v -1.79 h -0.21 c -3.29,-0.11 -3.75,-0.36 -3.75,-2.21 v -9.25 c 0,-4.45 2.46,-7.75 5.71,-7.75 2.84,0 4.29,2.05 4.29,6.1 v 11.15 c -0.04,0.66 -0.09,1 -0.34,1.25 -0.3,0.46 -1.3,0.66 -3.45,0.71 h -0.21 v 1.79 h 12.66 v -1.79 h -0.2 c -3.3,-0.11 -3.75,-0.36 -3.75,-2.16 v -8.84 c 0,-5 2.25,-8.21 5.75,-8.21 2.86,0 4.25,2.16 4.25,6.66 v 10.55 c -0.05,0.7 -0.1,1.04 -0.35,1.29 -0.29,0.46 -1.29,0.66 -3.45,0.71 h -0.2 v 1.79 h 12.65 v -1.79 h -0.2 c -3.3,-0.11 -3.75,-0.36 -3.75,-2.21 v -11.34 c 0,-3.11 -0.3,-4.16 -1.59,-5.86 -1.46,-1.84 -3.5,-2.84 -5.91,-2.84 -3.25,0 -5.66,1.54 -7.8,5 -0.86,-3 -3.56,-5 -6.9,-5 -3.05,0 -5.25,1.45 -7.21,4.59 v -3.84 m 41.91,-12.46 c -1.61,0 -2.91,1.3 -2.91,2.89 0,1.61 1.3,2.91 2.86,2.91 1.64,0 2.94,-1.3 2.94,-2.91 0,-1.59 -1.3,-2.89 -2.89,-2.89 m 2.34,12.46 -9.39,0.54 v 2.16 h 2.55 c 1.89,0.05 2.14,0.34 2.14,2.5 v 14.3 c -0.05,0.75 -0.09,1.04 -0.3,1.29 -0.34,0.46 -1.29,0.66 -3.45,0.71 h -0.34 v 1.79 h 12.95 v -1.79 h -0.36 c -3.34,-0.11 -3.8,-0.36 -3.8,-2.16 v -19.34"
         id="path127" />
      <path
         class="Lyrics"
         d="m 1620.19,1226.48 -8.86,0.54 v 2.16 h 2.04 c 1.91,0.05 2.16,0.34 2.16,2.5 v 14.3 c -0.05,0.75 -0.09,1.04 -0.3,1.29 -0.36,0.46 -1.36,0.66 -3.5,0.71 h -0.2 v 1.79 h 13.34 v -1.79 h -0.89 c -3.36,-0.11 -3.79,-0.36 -3.79,-2.16 v -2.7 c 0.04,-8.39 3.04,-14.8 6.93,-15 -0.68,0.81 -0.89,1.31 -0.89,2.25 0,1.61 1.14,2.75 2.75,2.75 1.85,0 3.05,-1.35 3.05,-3.35 0,-2.45 -1.7,-4.04 -4.34,-4.04 -3.16,0 -5.86,2.5 -7.5,6.95 v -6.2 m 35.34,12.04 c 0.05,-7.5 -4.2,-12.79 -10.3,-12.79 -6.4,0 -11.2,5.54 -11.2,13.04 0,7.05 4.55,11.75 11.3,11.75 4.79,0 8.15,-2.34 10.2,-7.09 l -1.75,-0.95 c -2.05,3.84 -4.16,5.34 -7.5,5.34 -2.55,0 -4.41,-1.05 -5.7,-3.3 -0.89,-1.5 -1.3,-3.25 -1.25,-6 h 16.2 m -16.16,-2.15 c 0,-3.5 1.61,-8.5 5.82,-8.5 3,0 5,2.65 5,6.7 0,1.41 -0.46,1.8 -2.07,1.8 h -8.75"
         id="path130" />
      <path
         class="Lyrics"
         d="m 1829.44,1226.48 -8.86,0.54 v 2.16 h 2.04 c 1.91,0.05 2.16,0.34 2.16,2.5 v 14.3 c -0.05,0.75 -0.09,1.04 -0.3,1.29 -0.36,0.46 -1.36,0.66 -3.5,0.71 h -0.2 v 1.79 h 13.34 v -1.79 h -0.89 c -3.36,-0.11 -3.79,-0.36 -3.79,-2.16 v -2.7 c 0.04,-8.39 3.04,-14.8 6.93,-15 -0.68,0.81 -0.89,1.31 -0.89,2.25 0,1.61 1.14,2.75 2.75,2.75 1.85,0 3.05,-1.35 3.05,-3.35 0,-2.45 -1.7,-4.04 -4.34,-4.04 -3.16,0 -5.86,2.5 -7.5,6.95 v -6.2 m 35.34,12.04 c 0.05,-7.5 -4.2,-12.79 -10.3,-12.79 -6.4,0 -11.2,5.54 -11.2,13.04 0,7.05 4.55,11.75 11.3,11.75 4.79,0 8.15,-2.34 10.2,-7.09 l -1.75,-0.95 c -2.05,3.84 -4.16,5.34 -7.5,5.34 -2.55,0 -4.41,-1.05 -5.7,-3.3 -0.89,-1.5 -1.3,-3.25 -1.25,-6 h 16.2 m -16.16,-2.15 c 0,-3.5 1.61,-8.5 5.82,-8.5 3,0 5,2.65 5,6.7 0,1.41 -0.46,1.8 -2.07,1.8 h -8.75"
         id="path133" />
      <path
         class="Lyrics"
         d="m 2080.48,1250.12 8.71,-0.35 v -2.15 h -0.91 c -2.84,-0.14 -3.09,-0.44 -3.09,-3.64 v -31.07 l -9.8,0.57 v 2.14 h 2.94 c 1.9,0.04 2.15,0.36 2.15,2.5 v 11.31 c -1.84,-2.56 -4,-3.7 -6.9,-3.7 -5.64,0 -9.94,5.45 -9.94,12.64 0,7.11 4.14,12.15 9.94,12.15 3.15,0 5.31,-1.34 6.9,-4.34 v 3.94 m -5.9,-21.69 c 2.06,0 4,1.5 4.9,3.8 0.66,1.5 0.96,3.54 0.96,6 0,5.84 -2.3,9.59 -5.91,9.59 -3.55,0 -5.64,-3.3 -5.64,-8.84 0,-3 0.3,-5.25 0.94,-6.91 0.86,-2.25 2.7,-3.64 4.75,-3.64 m 28.5,-2.7 c -6.14,0 -10.89,5.45 -10.89,12.45 0,6.84 4.79,12.34 10.79,12.34 6,0 10.8,-5.5 10.8,-12.4 0,-6.85 -4.8,-12.39 -10.7,-12.39 m 0,2.14 c 3.5,0 5.45,3.65 5.45,10.25 0,6.65 -1.95,10.25 -5.55,10.25 -3.59,0 -5.54,-3.6 -5.54,-10.19 0,-6.81 1.89,-10.31 5.64,-10.31"
         id="path137" />
      <path
         class="Lyrics"
         d="m 2431.06,1250.12 8.71,-0.35 v -2.15 h -0.91 c -2.84,-0.14 -3.09,-0.44 -3.09,-3.64 v -31.07 l -9.8,0.57 v 2.14 h 2.94 c 1.9,0.04 2.15,0.36 2.15,2.5 v 11.31 c -1.84,-2.56 -4,-3.7 -6.9,-3.7 -5.64,0 -9.94,5.45 -9.94,12.64 0,7.11 4.14,12.15 9.94,12.15 3.15,0 5.31,-1.34 6.9,-4.34 v 3.94 m -5.9,-21.69 c 2.06,0 4,1.5 4.9,3.8 0.66,1.5 0.96,3.54 0.96,6 0,5.84 -2.3,9.59 -5.91,9.59 -3.55,0 -5.64,-3.3 -5.64,-8.84 0,-3 0.3,-5.25 0.94,-6.91 0.86,-2.25 2.7,-3.64 4.75,-3.64 m 28.5,-2.7 c -6.14,0 -10.89,5.45 -10.89,12.45 0,6.84 4.79,12.34 10.79,12.34 6,0 10.8,-5.5 10.8,-12.4 0,-6.85 -4.8,-12.39 -10.7,-12.39 m 0,2.14 c 3.5,0 5.45,3.65 5.45,10.25 0,6.65 -1.95,10.25 -5.55,10.25 -3.59,0 -5.54,-3.6 -5.54,-10.19 0,-6.81 1.89,-10.31 5.64,-10.31"
         id="path140" />
      <path
         class="StaffText"
         d="m 1192.96,932.89 h -30.05 v 2.359 h 0.9 c 2.85,0.047 3.81,0.203 4.2,0.703 0.3,0.438 0.3,0.547 0.3,3.094 v 23.797 c 0,2.563 0,2.656 -0.3,3.109 -0.39,0.5 -1.35,0.704 -4.2,0.704 h -0.9 v 2.343 h 30.71 l 1,-13.343 h -2.21 c -1.9,8.89 -3.95,10.796 -11.6,11 h -3.3 c -3,-0.11 -3.75,-0.61 -3.6,-2.407 v -12.75 h 1 c 5.15,-0.203 7,1.657 7.21,7.203 h 2.34 v -16.406 h -2.34 c -0.31,4.906 -2.25,6.86 -7,6.86 h -1.21 v -11.407 c -0.04,-2.109 0.46,-2.453 3.15,-2.5 h 2.6 c 8.21,-0.047 10.25,1.75 11.85,10.407 h 2.15 l -0.7,-12.766"
         id="path146" />
      <path
         class="StaffText"
         d="m 1402.21,932.89 h -30.05 v 2.359 h 0.89 c 2.86,0.047 3.82,0.203 4.21,0.703 0.29,0.438 0.29,0.547 0.29,3.094 v 23.797 c 0,2.563 0,2.656 -0.29,3.109 -0.39,0.5 -1.35,0.704 -4.21,0.704 h -0.89 v 2.343 h 30.71 l 1,-13.343 h -2.21 c -1.9,8.89 -3.95,10.796 -11.61,11 h -3.29 c -3,-0.11 -3.75,-0.61 -3.6,-2.407 v -12.75 h 1 c 5.14,-0.203 7,1.657 7.21,7.203 h 2.34 v -16.406 h -2.34 c -0.32,4.906 -2.25,6.86 -7,6.86 h -1.21 v -11.407 c -0.04,-2.109 0.46,-2.453 3.14,-2.5 h 2.61 c 8.21,-0.047 10.25,1.75 11.85,10.407 h 2.15 l -0.7,-12.766"
         id="path150" />
      <path
         class="StaffText"
         d="m 1618.12,968.999 h 16.8 c 4.45,0 7.85,-0.703 10.5,-2.203 5.04,-2.844 7.85,-8.547 7.85,-16.047 0,-6.906 -2.5,-12.297 -7.1,-15.297 -2.75,-1.75 -6.46,-2.562 -12.16,-2.562 h -15.89 v 2.359 h 0.95 c 2.8,0.047 3.75,0.203 4.14,0.703 0.3,0.438 0.3,0.547 0.3,3.094 v 23.797 c 0,2.563 0,2.656 -0.3,3.109 -0.39,0.5 -1.34,0.641 -4.14,0.704 h -0.95 v 2.343 m 13.84,-2.343 c -2.54,0 -2.84,-0.313 -2.84,-2.75 v -25.86 c 0,-2.453 0.34,-2.797 2.84,-2.797 h 2.61 c 8.55,0 12.1,4.641 12.1,15.703 0,11.204 -3.21,15.704 -11.3,15.704 h -3.41"
         id="path156" />
      <path
         class="StaffText"
         d="m 1827.37,968.999 h 16.79 c 4.46,0 7.86,-0.703 10.5,-2.203 5.05,-2.844 7.86,-8.547 7.86,-16.047 0,-6.906 -2.5,-12.297 -7.11,-15.297 -2.75,-1.75 -6.45,-2.562 -12.15,-2.562 h -15.89 v 2.359 h 0.95 c 2.8,0.047 3.75,0.203 4.14,0.703 0.3,0.438 0.3,0.547 0.3,3.094 v 23.797 c 0,2.563 0,2.656 -0.3,3.109 -0.39,0.5 -1.34,0.641 -4.14,0.704 h -0.95 v 2.343 m 13.84,-2.343 c -2.55,0 -2.84,-0.313 -2.84,-2.75 v -25.86 c 0,-2.453 0.34,-2.797 2.84,-2.797 h 2.61 c 8.55,0 12.09,4.641 12.09,15.703 0,11.204 -3.2,15.704 -11.29,15.704 h -3.41"
         id="path160" />
      <path
         class="StaffText"
         d="m 386.632,932.546 h -1.906 l -2,2.953 c -3.641,-2.656 -5.5,-3.359 -8.953,-3.359 -4.75,0 -8.797,2 -12.141,6 -3.203,3.812 -4.703,8.016 -4.703,13.156 0,10.797 7.047,18.453 16.906,18.453 8,0 13.094,-4.703 14.25,-13.093 l -2.359,-0.407 c -1.344,7.453 -5.141,11.157 -11.297,11.157 -7.406,0 -10.906,-5.11 -10.906,-15.907 0,-5.703 0.75,-9.453 2.453,-12.453 1.547,-2.797 4.609,-4.547 7.859,-4.547 3.5,0 6.594,1.844 8.5,5.047 0.953,1.656 1.641,3.5 2.844,7.453 h 2.203 l -0.75,-14.453"
         id="path161" />
      <path
         class="StaffText"
         d="m 737.211,932.546 h -1.907 l -2,2.953 c -3.64,-2.656 -5.5,-3.359 -8.953,-3.359 -4.75,0 -8.797,2 -12.14,6 -3.203,3.812 -4.703,8.016 -4.703,13.156 0,10.797 7.046,18.453 16.906,18.453 8,0 13.094,-4.703 14.25,-13.093 l -2.36,-0.407 c -1.343,7.453 -5.14,11.157 -11.296,11.157 -7.407,0 -10.907,-5.11 -10.907,-15.907 0,-5.703 0.75,-9.453 2.453,-12.453 1.547,-2.797 4.61,-4.547 7.86,-4.547 3.5,0 6.594,1.844 8.5,5.047 0.953,1.656 1.64,3.5 2.844,7.453 h 2.203 l -0.75,-14.453"
         id="path166" />
      <path
         class="StaffText"
         d="m 2102.82,932.546 h -1.9 l -2,2.953 c -3.64,-2.656 -5.5,-3.359 -8.96,-3.359 -4.75,0 -8.79,2 -12.14,6 -3.2,3.812 -4.7,8.016 -4.7,13.156 0,10.797 7.05,18.453 16.91,18.453 8,0 13.09,-4.703 14.25,-13.093 l -2.36,-0.407 c -1.35,7.453 -5.14,11.157 -11.3,11.157 -7.41,0 -10.91,-5.11 -10.91,-15.907 0,-5.703 0.75,-9.453 2.46,-12.453 1.54,-2.797 4.61,-4.547 7.86,-4.547 3.5,0 6.59,1.844 8.5,5.047 0.95,1.656 1.64,3.5 2.84,7.453 h 2.2 l -0.75,-14.453"
         id="path167" />
      <path
         class="StaffText"
         d="m 916.961,968.999 h 16.796 c 4.454,0 7.86,-0.703 10.5,-2.203 5.047,-2.844 7.86,-8.547 7.86,-16.047 0,-6.906 -2.5,-12.297 -7.11,-15.297 -2.75,-1.75 -6.453,-2.562 -12.156,-2.562 h -15.89 v 2.359 h 0.953 c 2.797,0.047 3.75,0.203 4.14,0.703 0.297,0.438 0.297,0.547 0.297,3.094 v 23.797 c 0,2.563 0,2.656 -0.297,3.109 -0.39,0.5 -1.343,0.641 -4.14,0.704 h -0.953 v 2.343 m 13.843,-2.343 c -2.547,0 -2.843,-0.313 -2.843,-2.75 v -25.86 c 0,-2.453 0.343,-2.797 2.843,-2.797 h 2.61 c 8.547,0 12.093,4.641 12.093,15.703 0,11.204 -3.203,15.704 -11.296,15.704 h -3.407"
         id="path171" />
      <path
         class="StaffText"
         d="m 2453.4,932.546 h -1.91 l -2,2.953 c -3.64,-2.656 -5.5,-3.359 -8.95,-3.359 -4.75,0 -8.8,2 -12.14,6 -3.2,3.812 -4.7,8.016 -4.7,13.156 0,10.797 7.04,18.453 16.9,18.453 8,0 13.1,-4.703 14.25,-13.093 l -2.36,-0.407 c -1.34,7.453 -5.14,11.157 -11.29,11.157 -7.41,0 -10.91,-5.11 -10.91,-15.907 0,-5.703 0.75,-9.453 2.45,-12.453 1.55,-2.797 4.61,-4.547 7.86,-4.547 3.5,0 6.6,1.844 8.5,5.047 0.96,1.656 1.64,3.5 2.85,7.453 h 2.2 l -0.75,-14.453"
         id="path174" />
    </g>
    <g
       id="g299">
      <polyline
         class="StaffLines"
         fill="none"
         stroke="#000000"
         stroke-width="2.73"
         stroke-linejoin="bevel"
         points="336.599,386.199 2764.6,386.199"
         id="polyline1" />
      <polyline
         class="StaffLines"
         fill="none"
         stroke="#000000"
         stroke-width="2.73"
         stroke-linejoin="bevel"
         points="336.599,410.999 2764.6,410.999"
         id="polyline2" />
      <polyline
         class="StaffLines"
         fill="none"
         stroke="#000000"
         stroke-width="2.73"
         stroke-linejoin="bevel"
         points="336.599,435.799 2764.6,435.799"
         id="polyline3" />
      <polyline
         class="StaffLines"
         fill="none"
         stroke="#000000"
         stroke-width="2.73"
         stroke-linejoin="bevel"
         points="336.599,460.599 2764.6,460.599"
         id="polyline4" />
      <polyline
         class="StaffLines"
         fill="none"
         stroke="#000000"
         stroke-width="2.73"
         stroke-linejoin="bevel"
         points="336.599,485.399 2764.6,485.399"
         id="polyline5" />
      <path
         class="SlurSegment"
         stroke="#000000"
         stroke-width="1.24"
         stroke-linecap="round"
         stroke-linejoin="round"
         fill-rule="evenodd"
         d="m 1892.42,491.103 c 20.41,10.054 51,-0.238 61.18,-20.584 -7.65,27.867 -38.24,38.159 -61.18,20.584"
         id="path12" />
      <path
         class="SlurSegment"
         stroke="#000000"
         stroke-width="1.24"
         stroke-linecap="round"
         stroke-linejoin="round"
         fill-rule="evenodd"
         d="m 2014.78,491.103 c 14.36,16.628 45.2,18.736 61.68,4.216 -17.02,22.437 -47.86,20.329 -61.68,-4.216"
         id="path13" />
      <path
         class="SlurSegment"
         stroke="#000000"
         stroke-width="1.24"
         stroke-linecap="round"
         stroke-linejoin="round"
         fill-rule="evenodd"
         d="m 1094.25,491.103 c 14.35,16.628 45.19,18.736 61.68,4.216 -17.03,22.437 -47.87,20.329 -61.68,-4.216"
         id="path15" />
      <path
         class="SlurSegment"
         stroke="#000000"
         stroke-width="1.24"
         stroke-linecap="round"
         stroke-linejoin="round"
         fill-rule="evenodd"
         d="m 971.889,491.103 c 20.409,10.054 51.001,-0.238 61.181,-20.584 -7.65,27.867 -38.242,38.159 -61.181,20.584"
         id="path16" />
      <polyline
         class="BarLine"
         fill="none"
         stroke="#000000"
         stroke-width="4.46"
         stroke-linejoin="bevel"
         points="921.3,384.835 921.3,486.763"
         id="polyline17" />
      <polyline
         class="BarLine"
         fill="none"
         stroke="#000000"
         stroke-width="4.46"
         stroke-linejoin="bevel"
         points="2132.01,384.835 2132.01,486.763"
         id="polyline21" />
      <polyline
         class="BarLine"
         fill="none"
         stroke="#000000"
         stroke-width="4.46"
         stroke-linejoin="bevel"
         points="2552.25,384.835 2552.25,486.763"
         id="polyline22" />
      <polyline
         class="BarLine"
         fill="none"
         stroke="#000000"
         stroke-width="4.46"
         stroke-linejoin="bevel"
         points="711.181,384.835 711.181,486.763"
         id="polyline26" />
      <polyline
         class="BarLine"
         fill="none"
         stroke="#000000"
         stroke-width="4.46"
         stroke-linejoin="bevel"
         points="1841.84,384.835 1841.84,486.763"
         id="polyline27" />
      <polyline
         class="BarLine"
         fill="none"
         stroke="#000000"
         stroke-width="4.46"
         stroke-linejoin="bevel"
         points="2762.37,384.835 2762.37,486.763"
         id="polyline28" />
      <polyline
         class="BarLine"
         fill="none"
         stroke="#000000"
         stroke-width="4.46"
         stroke-linejoin="bevel"
         points="2342.13,384.835 2342.13,486.763"
         id="polyline29" />
      <polyline
         class="BarLine"
         fill="none"
         stroke="#000000"
         stroke-width="4.46"
         stroke-linejoin="bevel"
         points="1421.6,384.835 1421.6,486.763"
         id="polyline30" />
      <polyline
         class="BarLine"
         fill="none"
         stroke="#000000"
         stroke-width="4.46"
         stroke-linejoin="bevel"
         points="1631.72,384.835 1631.72,486.763"
         id="polyline32" />
      <polyline
         class="BarLine"
         fill="none"
         stroke="#000000"
         stroke-width="4.46"
         stroke-linejoin="bevel"
         points="1211.48,384.835 1211.48,486.763"
         id="polyline33" />
      <polyline
         class="Stem"
         fill="none"
         stroke="#000000"
         stroke-width="2.48"
         stroke-linejoin="bevel"
         points="2704.42,493.831 2704.42,410.999"
         id="polyline39" />
      <polyline
         class="Stem"
         fill="none"
         stroke="#000000"
         stroke-width="2.48"
         stroke-linejoin="bevel"
         points="776.645,444.231 776.645,367.599"
         id="polyline40" />
      <polyline
         class="Stem"
         fill="none"
         stroke="#000000"
         stroke-width="2.48"
         stroke-linejoin="bevel"
         points="2029.66,456.631 2029.66,386.318"
         id="polyline41" />
      <polyline
         class="Stem"
         fill="none"
         stroke="#000000"
         stroke-width="2.48"
         stroke-linejoin="bevel"
         points="1109.12,456.631 1109.12,386.318"
         id="polyline43" />
      <polyline
         class="Stem"
         fill="none"
         stroke="#000000"
         stroke-width="2.48"
         stroke-linejoin="bevel"
         points="1363.65,469.031 1363.65,386.199"
         id="polyline44" />
      <polyline
         class="Stem"
         fill="none"
         stroke="#000000"
         stroke-width="2.48"
         stroke-linejoin="bevel"
         points="2197.48,481.431 2197.48,398.599"
         id="polyline45" />
      <polyline
         class="Stem"
         fill="none"
         stroke="#000000"
         stroke-width="2.48"
         stroke-linejoin="bevel"
         points="2494.3,481.431 2494.3,398.599"
         id="polyline48" />
      <polyline
         class="Stem"
         fill="none"
         stroke="#000000"
         stroke-width="2.48"
         stroke-linejoin="bevel"
         points="1487.06,456.631 1487.06,373.799"
         id="polyline49" />
      <polyline
         class="Stem"
         fill="none"
         stroke="#000000"
         stroke-width="2.48"
         stroke-linejoin="bevel"
         points="2407.6,481.431 2407.6,398.599"
         id="polyline50" />
      <polyline
         class="Stem"
         fill="none"
         stroke="#000000"
         stroke-width="2.48"
         stroke-linejoin="bevel"
         points="2284.18,456.631 2284.18,373.799"
         id="polyline51" />
      <polyline
         class="Stem"
         fill="none"
         stroke="#000000"
         stroke-width="2.48"
         stroke-linejoin="bevel"
         points="1047.94,444.231 1047.94,380.119"
         id="polyline52" />
      <polyline
         class="Stem"
         fill="none"
         stroke="#000000"
         stroke-width="2.48"
         stroke-linejoin="bevel"
         points="1573.77,456.631 1573.77,373.799"
         id="polyline53" />
      <polyline
         class="Stem"
         fill="none"
         stroke="#000000"
         stroke-width="2.48"
         stroke-linejoin="bevel"
         points="566.526,456.631 566.526,373.799"
         id="polyline54" />
      <polyline
         class="Stem"
         fill="none"
         stroke="#000000"
         stroke-width="2.48"
         stroke-linejoin="bevel"
         points="1968.48,444.231 1968.48,380.119"
         id="polyline55" />
      <polyline
         class="Stem"
         fill="none"
         stroke="#000000"
         stroke-width="2.48"
         stroke-linejoin="bevel"
         points="986.765,456.631 986.765,386.078"
         id="polyline56" />
      <polyline
         class="Stem"
         fill="none"
         stroke="#000000"
         stroke-width="2.48"
         stroke-linejoin="bevel"
         points="1697.18,444.231 1697.18,367.599"
         id="polyline59" />
      <polyline
         class="Stem"
         fill="none"
         stroke="#000000"
         stroke-width="2.48"
         stroke-linejoin="bevel"
         points="863.353,444.231 863.353,367.599"
         id="polyline60" />
      <polyline
         class="Stem"
         fill="none"
         stroke="#000000"
         stroke-width="2.48"
         stroke-linejoin="bevel"
         points="653.234,456.631 653.234,373.799"
         id="polyline62" />
      <polyline
         class="Stem"
         fill="none"
         stroke="#000000"
         stroke-width="2.48"
         stroke-linejoin="bevel"
         points="1783.89,444.231 1783.89,367.599"
         id="polyline63" />
      <polyline
         class="Stem"
         fill="none"
         stroke="#000000"
         stroke-width="2.48"
         stroke-linejoin="bevel"
         points="2091.34,469.031 2091.34,392.279"
         id="polyline64" />
      <polyline
         class="Stem"
         fill="none"
         stroke="#000000"
         stroke-width="2.48"
         stroke-linejoin="bevel"
         points="2617.72,493.831 2617.72,410.999"
         id="polyline67" />
      <polyline
         class="Stem"
         fill="none"
         stroke="#000000"
         stroke-width="2.48"
         stroke-linejoin="bevel"
         points="1170.8,469.031 1170.8,392.279"
         id="polyline68" />
      <polyline
         class="Stem"
         fill="none"
         stroke="#000000"
         stroke-width="2.48"
         stroke-linejoin="bevel"
         points="1907.3,456.631 1907.3,386.078"
         id="polyline69" />
      <polyline
         class="Stem"
         fill="none"
         stroke="#000000"
         stroke-width="2.48"
         stroke-linejoin="bevel"
         points="1276.94,481.431 1276.94,398.599"
         id="polyline70" />
      <path
         class="Note"
         transform="matrix(0.992001,0,0,0.992001,622.241,460.599)"
         d="M 0,4.20313 C 0,8.5 3.09375,13.2969 11.2031,13.2969 21.5938,13.2969 32.5,4.79688 32.5,-4 c 0,-5.90625 -5,-9.2031 -11.2031,-9.2031 C 11.5938,-13.2031 0,-5 0,4.20313"
         id="path70" />
      <path
         class="Note"
         transform="matrix(0.992001,0,0,0.992001,745.653,448.199)"
         d="M 0,4.20313 C 0,8.5 3.09375,13.2969 11.2031,13.2969 21.5938,13.2969 32.5,4.79688 32.5,-4 c 0,-5.90625 -5,-9.2031 -11.2031,-9.2031 C 11.5938,-13.2031 0,-5 0,4.20313"
         id="path71" />
      <path
         class="Note"
         transform="matrix(0.992001,0,0,0.992001,832.361,448.199)"
         d="M 0,4.20313 C 0,8.5 3.09375,13.2969 11.2031,13.2969 21.5938,13.2969 32.5,4.79688 32.5,-4 c 0,-5.90625 -5,-9.2031 -11.2031,-9.2031 C 11.5938,-13.2031 0,-5 0,4.20313"
         id="path72" />
      <path
         class="Note"
         transform="matrix(0.992001,0,0,0.992001,955.773,460.599)"
         d="M 0,4.20313 C 0,8.5 3.09375,13.2969 11.2031,13.2969 21.5938,13.2969 32.5,4.79688 32.5,-4 c 0,-5.90625 -5,-9.2031 -11.2031,-9.2031 C 11.5938,-13.2031 0,-5 0,4.20313"
         id="path73" />
      <path
         class="Note"
         transform="matrix(0.992001,0,0,0.992001,1016.95,448.199)"
         d="M 0,4.20313 C 0,8.5 3.09375,13.2969 11.2031,13.2969 21.5938,13.2969 32.5,4.79688 32.5,-4 c 0,-5.90625 -5,-9.2031 -11.2031,-9.2031 C 11.5938,-13.2031 0,-5 0,4.20313"
         id="path74" />
      <path
         class="Note"
         transform="matrix(0.992001,0,0,0.992001,1078.13,460.599)"
         d="M 0,4.20313 C 0,8.5 3.09375,13.2969 11.2031,13.2969 21.5938,13.2969 32.5,4.79688 32.5,-4 c 0,-5.90625 -5,-9.2031 -11.2031,-9.2031 C 11.5938,-13.2031 0,-5 0,4.20313"
         id="path75" />
      <path
         class="Note"
         transform="matrix(0.992001,0,0,0.992001,1139.81,472.999)"
         d="M 0,4.20313 C 0,8.5 3.09375,13.2969 11.2031,13.2969 21.5938,13.2969 32.5,4.79688 32.5,-4 c 0,-5.90625 -5,-9.2031 -11.2031,-9.2031 C 11.5938,-13.2031 0,-5 0,4.20313"
         id="path76" />
      <path
         class="Note"
         transform="matrix(0.992001,0,0,0.992001,1245.95,485.399)"
         d="M 0,4.20313 C 0,8.5 3.09375,13.2969 11.2031,13.2969 21.5938,13.2969 32.5,4.79688 32.5,-4 c 0,-5.90625 -5,-9.2031 -11.2031,-9.2031 C 11.5938,-13.2031 0,-5 0,4.20313"
         id="path77" />
      <path
         class="Note"
         transform="matrix(0.992001,0,0,0.992001,1332.66,472.999)"
         d="M 0,4.20313 C 0,8.5 3.09375,13.2969 11.2031,13.2969 21.5938,13.2969 32.5,4.79688 32.5,-4 c 0,-5.90625 -5,-9.2031 -11.2031,-9.2031 C 11.5938,-13.2031 0,-5 0,4.20313"
         id="path78" />
      <path
         class="Note"
         transform="matrix(0.992001,0,0,0.992001,1456.07,460.599)"
         d="M 0,4.20313 C 0,8.5 3.09375,13.2969 11.2031,13.2969 21.5938,13.2969 32.5,4.79688 32.5,-4 c 0,-5.90625 -5,-9.2031 -11.2031,-9.2031 C 11.5938,-13.2031 0,-5 0,4.20313"
         id="path79" />
      <path
         class="Note"
         transform="matrix(0.992001,0,0,0.992001,1542.78,460.599)"
         d="M 0,4.20313 C 0,8.5 3.09375,13.2969 11.2031,13.2969 21.5938,13.2969 32.5,4.79688 32.5,-4 c 0,-5.90625 -5,-9.2031 -11.2031,-9.2031 C 11.5938,-13.2031 0,-5 0,4.20313"
         id="path80" />
      <path
         class="Note"
         transform="matrix(0.992001,0,0,0.992001,1666.19,448.199)"
         d="M 0,4.20313 C 0,8.5 3.09375,13.2969 11.2031,13.2969 21.5938,13.2969 32.5,4.79688 32.5,-4 c 0,-5.90625 -5,-9.2031 -11.2031,-9.2031 C 11.5938,-13.2031 0,-5 0,4.20313"
         id="path81" />
      <path
         class="Note"
         transform="matrix(0.992001,0,0,0.992001,1752.9,448.199)"
         d="M 0,4.20313 C 0,8.5 3.09375,13.2969 11.2031,13.2969 21.5938,13.2969 32.5,4.79688 32.5,-4 c 0,-5.90625 -5,-9.2031 -11.2031,-9.2031 C 11.5938,-13.2031 0,-5 0,4.20313"
         id="path82" />
      <path
         class="Note"
         transform="matrix(0.992001,0,0,0.992001,1876.31,460.599)"
         d="M 0,4.20313 C 0,8.5 3.09375,13.2969 11.2031,13.2969 21.5938,13.2969 32.5,4.79688 32.5,-4 c 0,-5.90625 -5,-9.2031 -11.2031,-9.2031 C 11.5938,-13.2031 0,-5 0,4.20313"
         id="path83" />
      <path
         class="Note"
         transform="matrix(0.992001,0,0,0.992001,1937.49,448.199)"
         d="M 0,4.20313 C 0,8.5 3.09375,13.2969 11.2031,13.2969 21.5938,13.2969 32.5,4.79688 32.5,-4 c 0,-5.90625 -5,-9.2031 -11.2031,-9.2031 C 11.5938,-13.2031 0,-5 0,4.20313"
         id="path84" />
      <path
         class="Note"
         transform="matrix(0.992001,0,0,0.992001,1998.67,460.599)"
         d="M 0,4.20313 C 0,8.5 3.09375,13.2969 11.2031,13.2969 21.5938,13.2969 32.5,4.79688 32.5,-4 c 0,-5.90625 -5,-9.2031 -11.2031,-9.2031 C 11.5938,-13.2031 0,-5 0,4.20313"
         id="path85" />
      <path
         class="Note"
         transform="matrix(0.992001,0,0,0.992001,2060.35,472.999)"
         d="M 0,4.20313 C 0,8.5 3.09375,13.2969 11.2031,13.2969 21.5938,13.2969 32.5,4.79688 32.5,-4 c 0,-5.90625 -5,-9.2031 -11.2031,-9.2031 C 11.5938,-13.2031 0,-5 0,4.20313"
         id="path86" />
      <path
         class="Note"
         transform="matrix(0.992001,0,0,0.992001,2166.48,485.399)"
         d="M 0,4.20313 C 0,8.5 3.09375,13.2969 11.2031,13.2969 21.5938,13.2969 32.5,4.79688 32.5,-4 c 0,-5.90625 -5,-9.2031 -11.2031,-9.2031 C 11.5938,-13.2031 0,-5 0,4.20313"
         id="path88" />
      <path
         class="Note"
         transform="matrix(0.992001,0,0,0.992001,2253.19,460.599)"
         d="M 0,4.20313 C 0,8.5 3.09375,13.2969 11.2031,13.2969 21.5938,13.2969 32.5,4.79688 32.5,-4 c 0,-5.90625 -5,-9.2031 -11.2031,-9.2031 C 11.5938,-13.2031 0,-5 0,4.20313"
         id="path89" />
      <path
         class="Note"
         transform="matrix(0.992001,0,0,0.992001,2376.6,485.399)"
         d="M 0,4.20313 C 0,8.5 3.09375,13.2969 11.2031,13.2969 21.5938,13.2969 32.5,4.79688 32.5,-4 c 0,-5.90625 -5,-9.2031 -11.2031,-9.2031 C 11.5938,-13.2031 0,-5 0,4.20313"
         id="path90" />
      <path
         class="Note"
         transform="matrix(0.992001,0,0,0.992001,2463.31,485.399)"
         d="M 0,4.20313 C 0,8.5 3.09375,13.2969 11.2031,13.2969 21.5938,13.2969 32.5,4.79688 32.5,-4 c 0,-5.90625 -5,-9.2031 -11.2031,-9.2031 C 11.5938,-13.2031 0,-5 0,4.20313"
         id="path91" />
      <path
         class="Note"
         transform="matrix(0.992001,0,0,0.992001,2586.72,497.799)"
         d="M 0,4.20313 C 0,8.5 3.09375,13.2969 11.2031,13.2969 21.5938,13.2969 32.5,4.79688 32.5,-4 c 0,-5.90625 -5,-9.2031 -11.2031,-9.2031 C 11.5938,-13.2031 0,-5 0,4.20313"
         id="path92" />
      <path
         class="Note"
         transform="matrix(0.992001,0,0,0.992001,2673.43,497.799)"
         d="M 0,4.20313 C 0,8.5 3.09375,13.2969 11.2031,13.2969 21.5938,13.2969 32.5,4.79688 32.5,-4 c 0,-5.90625 -5,-9.2031 -11.2031,-9.2031 C 11.5938,-13.2031 0,-5 0,4.20313"
         id="path93" />
      <path
         class="Note"
         transform="matrix(0.992001,0,0,0.992001,535.534,460.599)"
         d="M 0,4.20313 C 0,8.5 3.09375,13.2969 11.2031,13.2969 21.5938,13.2969 32.5,4.79688 32.5,-4 c 0,-5.90625 -5,-9.2031 -11.2031,-9.2031 C 11.5938,-13.2031 0,-5 0,4.20313"
         id="path102" />
      <path
         class="Clef"
         transform="matrix(0.992001,0,0,0.992001,355.199,460.599)"
         d="m 12.2969,51.2969 c 0,6.6094 5,15.3125 18.5,15.3125 4.7031,0 8.8125,-1.2031 12.4062,-3.4063 C 48.6094,59.4063 50,52.7969 50,46.5 c 0,-3.8906 -0.5937,-8.3906 -1.5937,-14.0937 -0.2969,-2 -0.9063,-5 -1.5,-8.9063 C 56.7031,20.2969 64,10.0938 64,-0.203125 64,-15.2969 53.2969,-25.5 38.7031,-25.5 c -1,-6 -2,-11.9063 -2.7968,-17.5 10.5,-11.1094 17.7968,-23.6094 17.7968,-39.5 0,-9.1094 -2.7968,-16.5 -4.4062,-20.109 -2.3906,-5.094 -5.2969,-8.594 -7.0938,-8.594 -0.7031,0 -3.7968,1.203 -7.0937,5.094 -6.4063,7.609 -8.2031,20.4059 -8.2031,28.7965 0,5.4062 0.5,10.3125 2.2031,21.5156 -0.1094,0.0938 -5.3125,5.3906 -7.4063,7.0938 C 12.5938,-40.2969 0,-28.1094 0,-8.09375 0,10.5938 16.2969,25.2969 34.9063,25.2969 c 2.8906,0 5.5937,-0.2969 7.8906,-0.7031 1.9062,9.6093 3.1094,16.6093 3.1094,21.9062 0,10.4063 -5.4063,15.9063 -15.5,15.9063 -2.4063,0 -4.5,-0.5 -4.7032,-0.5 -0.0937,-0.1094 -0.2968,-0.2032 -0.2968,-0.2969 0,-0.2031 0.2031,-0.3125 0.5,-0.3125 C 30.6094,60.5 35.2969,56.5 35.2969,50.1094 35.2969,44.7031 31.2031,39 23.7031,39 c -7,0 -11.4062,5.7031 -11.4062,12.2969 m 20.9062,-133.5 c 0.9063,-4 5.5,-14.5 10.7032,-14.5 1.5,0 3.8906,4.7968 3.8906,11.7968 0,10.4063 -7.6875,18.2032 -14.5938,25 -0.5937,-4 -1.0937,-7.8906 -1.0937,-12.0937 0,-3.7031 0.2969,-7.1094 1.0937,-10.2031 M 42,20.5938 c -2,0.4062 -3.8906,0.6093 -5.7969,0.6093 -14.2968,0 -26.49997,-10 -26.49997,-25.10935 0,-12.18755 8.59377,-23.09375 17.40627,-30.70315 1.6875,-1.5 3.2969,-2.8906 4.7969,-4.3906 0.8906,5.3906 1.5937,10.0937 2.2968,14.2031 -9.1093,2.7031 -15.2968,12.2969 -15.2968,21.70315 0,7 5.5,16.59375 13.5,16.59375 0.7968,0 1.7031,-0.4062 1.7031,-1.2969 0,-0.9062 -1,-1.4062 -2.2031,-2.2031 C 28,7.59375 25.7969,5 25.7969,0.09375 25.7969,-6 30.4063,-10.9063 36.2031,-12.2969 L 42,20.5938 M 56.2031,2.09375 c 0,7.10938 -2.9062,14.40625 -10,17.31255 -2.0937,-12.00005 -4.7968,-27.9063 -5.5,-32.3126 9,0 15.5,6.10942 15.5,15.00005"
         id="path104" />
      <path
         class="TimeSig"
         transform="matrix(0.992001,0,0,0.992001,445.362,411.495)"
         d="m 34.2031,3.90625 c -0.7968,2.1875 -2.7968,9.39065 -7.7031,9.39065 -6.5,0 -7.9062,-4.00002 -13.2969,-4.00002 -0.7968,0 -1.6093,0.10937 -2.6093,0.29687 0,0 2.5,-3.79687 13.1093,-7.09375 C 34.2969,-0.796875 37,-6 37,-12 c 0,-4.2031 -1.8906,-12.5 -17,-12.5 -15.09375,0 -17.90625,9.0937 -17.90625,13.7031 0,4.09377 3.40625,7.39065 7.5,7.39065 4.10935,0 7.40625,-3.29688 7.40625,-7.39065 0,-2.7969 -2,-5.9062 -4.5937,-6.9062 -0.3125,-0.0938 -0.7032,-0.5938 -0.7032,-1.0938 0,-0.6094 0.5,-1.2969 2.2969,-1.7969 0.5,-0.2031 1.9063,-0.5 3.4063,-0.5 5.6875,0 6.7968,3.5 6.7968,8.5938 0,11.703125 -13.9062,14.20313 -19.7031,22.9063 0,0 -3,4.1875 -3,8.8906 0,4.7031 2.40625,5 3.59375,5 1.60938,0 3.3125,-1.2969 3.3125,-3.0938 0,-0.4062 -0.10937,-0.7968 -0.3125,-1.2968 C 7.5,18.5 7.29688,17.4063 7.29688,16.5938 c 0,-0.2969 0,-0.5938 0.10937,-0.8907 0.09375,-0.6093 0.89063,-1.6093 3.29685,-1.6093 2.8907,0 4,3.4062 5.7969,6 1.7969,2.6093 4.5938,4.2031 7.7969,4.2031 3.2031,0 7.5,-2.2969 9.3125,-6 C 35.4063,14.5938 37.7031,7.09375 37.7031,4.40625 37.7031,3.09375 36.9063,2.5 36,2.5 c -0.7031,0 -1.3906,0.40625 -1.7969,1.40625"
         id="path105" />
      <path
         class="TimeSig"
         transform="matrix(0.992001,0,0,0.992001,442.092,460.599)"
         d="m 20.7969,12.7031 v 7.3907 H 12.5 c -0.7031,0 -1.4062,0.6093 -1.4062,1.4062 v 1.9063 c 0,0.7968 0.7031,1.3906 1.4062,1.3906 h 30.2969 c 0.8125,0 1.4062,-0.5938 1.4062,-1.3906 V 21.5 c 0,-0.7969 -0.5937,-1.4062 -1.4062,-1.4062 h -8.8906 v -7.3907 h 8.8906 c 0.8125,0 1.4062,-0.7031 1.4062,-1.5 V 9.29688 c 0,-0.70313 -0.5937,-1.39063 -1.4062,-1.39063 H 33.9063 V -8 c 0,-0.59375 -0.2969,-1.09375 -0.7969,-1.29688 L 31.9063,-9.90625 C 31.7031,-10 31.4063,-10.0938 31.2031,-10.0938 30.9063,-10 30.5,-9.90625 30.2969,-9.70313 l -9.0938,8.29688 c -0.2968,0.3125 -0.4062,0.703125 -0.4062,1.109375 V 7.90625 H 9.29688 c 0,0 11.10942,-12 22.90622,-27.81255 0.4063,-0.5 0.5,-1 0.5,-1.3906 0,-0.5 -0.2031,-0.9062 -0.2968,-1 L 30.2031,-24.5 c -0.2031,-0.2031 -0.5937,-0.4063 -1,-0.4063 -0.5937,0 -14.1093,0 -14.7968,0 -0.8125,0 -1.3125,0.6094 -1.4063,1.2032 0,0 -0.5,7.4062 -3.09375,15.49997 -2.60937,8.10938 -5.60937,13.10938 -8.20312,16.79688 0,0 -0.29688,0.5 -0.29688,1.10938 0,0.20312 0,0.39067 0.09375,0.59377 0.40625,0.7031 1,1.7969 1,1.7969 0,0 0.20313,0.6093 1.09375,0.6093 H 20.7969"
         id="path106" />
      <path
         class="Beam"
         fill-rule="evenodd"
         d="m 1906.06,379.969 63.66,-6.2 v 12.459 l -63.66,6.2 v -12.459"
         id="path107" />
      <path
         class="Beam"
         fill-rule="evenodd"
         d="m 985.525,379.969 63.655,-6.2 v 12.459 l -63.655,6.2 v -12.459"
         id="path108" />
      <path
         class="Beam"
         fill-rule="evenodd"
         d="m 1107.88,379.97 64.16,6.2 v 12.457 l -64.16,-6.2 V 379.97"
         id="path109" />
      <path
         class="Beam"
         fill-rule="evenodd"
         d="m 2028.42,379.97 64.16,6.2 v 12.457 l -64.16,-6.2 V 379.97"
         id="path110" />
      <path
         class="Lyrics"
         d="m 2589.25,550.377 -8.86,0.547 v 2.156 h 2.04 c 1.91,0.047 2.16,0.344 2.16,2.5 v 14.297 c -0.05,0.75 -0.09,1.047 -0.3,1.297 -0.36,0.453 -1.36,0.656 -3.5,0.703 h -0.2 v 1.797 h 13.34 v -1.797 h -0.89 c -3.36,-0.11 -3.79,-0.36 -3.79,-2.156 v -2.704 c 0.04,-8.39 3.04,-14.796 6.93,-15 -0.68,0.813 -0.89,1.313 -0.89,2.25 0,1.61 1.14,2.75 2.75,2.75 1.85,0 3.05,-1.343 3.05,-3.343 0,-2.453 -1.7,-4.047 -4.34,-4.047 -3.16,0 -5.86,2.5 -7.5,6.953 v -6.203 m 35.34,12.047 c 0.05,-7.5 -4.2,-12.797 -10.3,-12.797 -6.4,0 -11.2,5.547 -11.2,13.047 0,7.047 4.55,11.75 11.3,11.75 4.79,0 8.15,-2.344 10.2,-7.094 l -1.75,-0.953 c -2.05,3.844 -4.16,5.344 -7.5,5.344 -2.55,0 -4.41,-1.047 -5.7,-3.297 -0.89,-1.5 -1.3,-3.25 -1.25,-6 h 16.2 m -16.16,-2.157 c 0,-3.5 1.61,-8.5 5.82,-8.5 3,0 5,2.657 5,6.704 0,1.406 -0.46,1.796 -2.07,1.796 h -8.75"
         id="path111" />
      <path
         class="Lyrics"
         d="m 2256.31,549.83 h -1.75 l -1.46,1.797 c -1.79,-1.406 -3.59,-2 -6.09,-2 -4.41,0 -7.3,2.844 -7.3,7.25 0,4.703 3.05,5.89 7.05,6.844 l 2.64,0.609 c 3.95,0.937 5.36,1.937 5.36,3.937 0,2.36 -2.05,4 -4.95,4 -4.25,0 -7.25,-2.687 -8.46,-7.687 h -2 v 9.437 h 1.75 l 1.75,-2.046 c 2.05,1.656 4.3,2.453 6.86,2.453 4.89,0 8.14,-3.047 8.14,-7.703 0,-2.204 -0.7,-3.891 -2.09,-5.047 -1.2,-1.047 -2.2,-1.453 -5.25,-2.094 l -2.5,-0.563 c -2.75,-0.593 -2.75,-0.593 -3.66,-1.093 -1.09,-0.5 -1.75,-1.547 -1.75,-2.657 0,-2.046 1.91,-3.437 4.66,-3.437 4.09,0 6.09,2.891 7.3,6.391 h 1.75 v -8.391 m 16.09,-0.203 c -6.14,0 -10.89,5.453 -10.89,12.453 0,6.844 4.8,12.344 10.8,12.344 6,0 10.79,-5.5 10.79,-12.407 0,-6.843 -4.79,-12.39 -10.7,-12.39 m 0,2.14 c 3.5,0 5.45,3.657 5.45,10.25 0,6.657 -1.95,10.25 -5.54,10.25 -3.6,0 -5.55,-3.593 -5.55,-10.187 0,-6.813 1.89,-10.313 5.64,-10.313 m 22.61,-14.953 -9.25,0.563 v 2.14 h 2.45 c 1.85,0.047 2.1,0.36 2.1,2.5 v 27.86 c -0.05,0.75 -0.1,1.047 -0.3,1.297 -0.36,0.453 -1.3,0.656 -3.45,0.703 h -0.35 v 1.797 h 12.94 v -1.797 h -0.34 c -3.35,-0.11 -3.8,-0.36 -3.8,-2.156 v -32.907"
         id="path112" />
      <path
         class="Lyrics"
         d="m 958.889,549.83 h -1.75 l -1.453,1.797 c -1.797,-1.406 -3.594,-2 -6.094,-2 -4.406,0 -7.297,2.844 -7.297,7.25 0,4.703 3.047,5.89 7.047,6.844 l 2.64,0.609 c 3.954,0.937 5.36,1.937 5.36,3.937 0,2.36 -2.047,4 -4.953,4 -4.25,0 -7.25,-2.687 -8.453,-7.687 h -2 v 9.437 h 1.75 l 1.75,-2.046 c 2.046,1.656 4.296,2.453 6.859,2.453 4.891,0 8.141,-3.047 8.141,-7.703 0,-2.204 -0.704,-3.891 -2.094,-5.047 -1.203,-1.047 -2.203,-1.453 -5.25,-2.094 l -2.5,-0.563 c -2.75,-0.593 -2.75,-0.593 -3.656,-1.093 -1.094,-0.5 -1.75,-1.547 -1.75,-2.657 0,-2.046 1.906,-3.437 4.656,-3.437 4.094,0 6.094,2.891 7.297,6.391 h 1.75 v -8.391 m 16.093,-0.203 c -6.14,0 -10.89,5.453 -10.89,12.453 0,6.844 4.797,12.344 10.797,12.344 6,0 10.797,-5.5 10.797,-12.407 0,-6.843 -4.797,-12.39 -10.704,-12.39 m 0,2.14 c 3.5,0 5.454,3.657 5.454,10.25 0,6.657 -1.954,10.25 -5.547,10.25 -3.594,0 -5.547,-3.593 -5.547,-10.187 0,-6.813 1.89,-10.313 5.64,-10.313 m 22.61,-14.953 -9.25,0.563 v 2.14 h 2.453 c 1.844,0.047 2.094,0.36 2.094,2.5 v 27.86 c -0.047,0.75 -0.094,1.047 -0.297,1.297 -0.36,0.453 -1.297,0.656 -3.453,0.703 h -0.344 v 1.797 h 12.935 v -1.797 h -0.34 c -3.345,-0.11 -3.798,-0.36 -3.798,-2.156 v -32.907"
         id="path113" />
      <path
         class="Lyrics"
         d="m 2675.95,550.377 -8.86,0.547 v 2.156 h 2.05 c 1.91,0.047 2.16,0.344 2.16,2.5 v 14.297 c -0.05,0.75 -0.1,1.047 -0.3,1.297 -0.36,0.453 -1.36,0.656 -3.5,0.703 h -0.2 v 1.797 h 13.34 v -1.797 h -0.89 c -3.36,-0.11 -3.8,-0.36 -3.8,-2.156 v -2.704 c 0.05,-8.39 3.05,-14.796 6.94,-15 -0.69,0.813 -0.89,1.313 -0.89,2.25 0,1.61 1.14,2.75 2.75,2.75 1.84,0 3.05,-1.343 3.05,-3.343 0,-2.453 -1.71,-4.047 -4.35,-4.047 -3.15,0 -5.86,2.5 -7.5,6.953 v -6.203 m 35.35,12.047 c 0.04,-7.5 -4.21,-12.797 -10.3,-12.797 -6.41,0 -11.2,5.547 -11.2,13.047 0,7.047 4.54,11.75 11.29,11.75 4.8,0 8.16,-2.344 10.21,-7.094 l -1.75,-0.953 c -2.05,3.844 -4.16,5.344 -7.5,5.344 -2.55,0 -4.41,-1.047 -5.71,-3.297 -0.89,-1.5 -1.29,-3.25 -1.25,-6 h 16.21 m -16.16,-2.157 c 0,-3.5 1.61,-8.5 5.81,-8.5 3,0 5,2.657 5,6.704 0,1.406 -0.45,1.796 -2.06,1.796 h -8.75"
         id="path115" />
      <path
         class="Lyrics"
         d="m 1242.11,550.377 -8.89,0.547 v 2.156 h 2.05 c 1.89,0.047 2.14,0.344 2.14,2.5 v 14.297 c -0.05,0.75 -0.09,1.047 -0.3,1.297 -0.34,0.453 -1.29,0.656 -3.45,0.703 h -0.19 v 1.797 h 12.6 v -1.797 h -0.21 c -3.29,-0.11 -3.75,-0.36 -3.75,-2.203 v -9.25 c 0,-4.453 2.46,-7.75 5.71,-7.75 2.84,0 4.29,2.047 4.29,6.093 v 11.157 c -0.04,0.656 -0.09,1 -0.34,1.25 -0.3,0.453 -1.3,0.656 -3.45,0.703 h -0.21 v 1.797 h 12.66 v -1.797 h -0.2 c -3.3,-0.11 -3.75,-0.36 -3.75,-2.156 v -8.844 c 0,-5 2.25,-8.203 5.75,-8.203 2.85,0 4.25,2.156 4.25,6.656 v 10.547 c -0.05,0.703 -0.1,1.047 -0.35,1.297 -0.3,0.453 -1.3,0.656 -3.45,0.703 h -0.2 v 1.797 h 12.65 v -1.797 h -0.2 c -3.3,-0.11 -3.75,-0.36 -3.75,-2.203 V 558.33 c 0,-3.109 -0.3,-4.156 -1.6,-5.859 -1.45,-1.844 -3.5,-2.844 -5.9,-2.844 -3.25,0 -5.66,1.547 -7.8,5 -0.86,-3 -3.56,-5 -6.9,-5 -3.05,0 -5.25,1.453 -7.21,4.594 v -3.844 m 41.91,-12.453 c -1.61,0 -2.91,1.297 -2.91,2.89 0,1.61 1.3,2.907 2.86,2.907 1.64,0 2.94,-1.297 2.94,-2.907 0,-1.593 -1.3,-2.89 -2.89,-2.89 m 2.34,12.453 -9.39,0.547 v 2.156 h 2.55 c 1.89,0.047 2.14,0.344 2.14,2.5 v 14.297 c -0.05,0.75 -0.09,1.047 -0.3,1.297 -0.34,0.453 -1.29,0.656 -3.45,0.703 h -0.34 v 1.797 h 12.95 v -1.797 h -0.36 c -3.34,-0.11 -3.8,-0.36 -3.8,-2.156 v -19.344"
         id="path118" />
      <path
         class="Lyrics"
         d="m 1670.51,536.814 -9.25,0.563 v 2.14 h 2.45 c 1.84,0.047 2.09,0.36 2.09,2.5 v 27.86 c -0.04,0.75 -0.09,1.047 -0.29,1.297 -0.36,0.453 -1.3,0.656 -3.46,0.703 h -0.34 v 1.797 h 12.94 v -1.797 h -0.35 c -3.34,-0.11 -3.79,-0.36 -3.79,-2.156 v -32.907 m 28.39,20.766 c 0,-3.156 -0.55,-4.75 -2,-5.953 -1.64,-1.36 -4.1,-2 -7.3,-2 -5.64,0 -9.75,2.64 -9.75,6.297 0,1.843 1.16,3.047 2.91,3.047 1.59,0 2.7,-1.047 2.7,-2.547 0,-0.657 -0.25,-1.344 -0.75,-2.047 -0.31,-0.36 -0.36,-0.453 -0.36,-0.703 0,-1 2,-1.907 4.41,-1.907 1.59,0 3.34,0.5 4.14,1.25 0.95,0.813 1.31,2 1.31,4.25 v 1.954 c -5.2,0.906 -6.86,1.296 -9.31,2.25 -4.35,1.609 -6.39,3.906 -6.39,7.109 0,3.594 2.79,5.844 7.25,5.844 3.45,0 6.54,-1.407 8.7,-3.953 0.8,2.546 2.05,3.546 4.39,3.546 2.25,0 4.61,-1.437 4.61,-2.89 0,-0.36 -0.2,-0.61 -0.5,-0.61 -0.2,0 -0.41,0.063 -0.75,0.204 -0.7,0.296 -1,0.359 -1.41,0.359 -1.4,0 -1.9,-0.906 -1.9,-3.453 V 557.58 m -4.69,6.094 c 0,3 -0.16,3.703 -1,5 -1.25,1.843 -3.5,3.093 -5.7,3.093 -2.3,0 -3.96,-1.64 -3.96,-3.89 0,-2.11 1.05,-3.61 3.25,-4.656 1.55,-0.704 3.5,-1.204 7.41,-1.844 v 2.297"
         id="path119" />
      <path
         class="Lyrics"
         d="m 1545.89,549.83 h -1.75 l -1.45,1.797 c -1.8,-1.406 -3.59,-2 -6.09,-2 -4.41,0 -7.3,2.844 -7.3,7.25 0,4.703 3.05,5.89 7.05,6.844 l 2.64,0.609 c 3.95,0.937 5.36,1.937 5.36,3.937 0,2.36 -2.05,4 -4.96,4 -4.25,0 -7.25,-2.687 -8.45,-7.687 h -2 v 9.437 h 1.75 l 1.75,-2.046 c 2.05,1.656 4.3,2.453 6.86,2.453 4.89,0 8.14,-3.047 8.14,-7.703 0,-2.204 -0.7,-3.891 -2.09,-5.047 -1.21,-1.047 -2.21,-1.453 -5.25,-2.094 l -2.5,-0.563 c -2.75,-0.593 -2.75,-0.593 -3.66,-1.093 -1.09,-0.5 -1.75,-1.547 -1.75,-2.657 0,-2.046 1.91,-3.437 4.66,-3.437 4.09,0 6.09,2.891 7.29,6.391 h 1.75 v -8.391 m 16.1,-0.203 c -6.14,0 -10.89,5.453 -10.89,12.453 0,6.844 4.79,12.344 10.79,12.344 6,0 10.8,-5.5 10.8,-12.407 0,-6.843 -4.8,-12.39 -10.7,-12.39 m 0,2.14 c 3.5,0 5.45,3.657 5.45,10.25 0,6.657 -1.95,10.25 -5.55,10.25 -3.59,0 -5.54,-3.593 -5.54,-10.187 0,-6.813 1.89,-10.313 5.64,-10.313 m 22.61,-14.953 -9.25,0.563 v 2.14 h 2.45 c 1.84,0.047 2.09,0.36 2.09,2.5 v 27.86 c -0.04,0.75 -0.09,1.047 -0.29,1.297 -0.36,0.453 -1.3,0.656 -3.46,0.703 h -0.34 v 1.797 h 12.94 v -1.797 h -0.35 c -3.34,-0.11 -3.79,-0.36 -3.79,-2.156 v -32.907"
         id="path120" />
      <path
         class="Lyrics"
         d="m 1143.48,550.377 v -2.86 c 0,-2.5 0.15,-4.14 0.54,-5.14 0.81,-2.203 2.56,-3.563 4.56,-3.563 1.05,0 1.69,0.313 1.69,0.86 0,0.203 0,0.25 -0.29,0.64 -0.3,0.453 -0.46,1.063 -0.46,1.61 0,1.5 1.21,2.64 2.75,2.64 1.66,0 2.81,-1.25 2.81,-3.047 0,-2.89 -2.5,-4.703 -6.56,-4.703 -3.44,0 -6,1.203 -7.75,3.703 -1.5,2.11 -2,4.25 -2,8.313 v 1.547 h -4.39 v 2.14 h 4.39 v 17.36 c -0.04,0.703 -0.09,1 -0.29,1.297 -0.35,0.453 -1.3,0.656 -3.46,0.703 h -0.19 v 1.797 h 13.35 v -1.797 h -0.91 c -3.34,-0.11 -3.79,-0.36 -3.79,-2.156 v -17.204 h 5.5 v -2.14 h -5.5 m 28.54,7.203 c 0,-3.156 -0.54,-4.75 -2,-5.953 -1.64,-1.36 -4.09,-2 -7.29,-2 -5.65,0 -9.75,2.64 -9.75,6.297 0,1.843 1.15,3.047 2.9,3.047 1.6,0 2.7,-1.047 2.7,-2.547 0,-0.657 -0.25,-1.344 -0.75,-2.047 -0.31,-0.36 -0.35,-0.453 -0.35,-0.703 0,-1 2,-1.907 4.4,-1.907 1.6,0 3.35,0.5 4.14,1.25 0.96,0.813 1.31,2 1.31,4.25 v 1.954 c -5.2,0.906 -6.85,1.296 -9.31,2.25 -4.34,1.609 -6.39,3.906 -6.39,7.109 0,3.594 2.8,5.844 7.25,5.844 3.45,0 6.55,-1.407 8.7,-3.953 0.8,2.546 2.05,3.546 4.4,3.546 2.25,0 4.6,-1.437 4.6,-2.89 0,-0.36 -0.2,-0.61 -0.5,-0.61 -0.2,0 -0.4,0.063 -0.75,0.204 -0.7,0.296 -1,0.359 -1.4,0.359 -1.41,0 -1.91,-0.906 -1.91,-3.453 V 557.58 m -4.69,6.094 c 0,3 -0.15,3.703 -1,5 -1.25,1.843 -3.5,3.093 -5.7,3.093 -2.3,0 -3.95,-1.64 -3.95,-3.89 0,-2.11 1.05,-3.61 3.25,-4.656 1.55,-0.704 3.5,-1.204 7.4,-1.844 v 2.297"
         id="path121" />
      <path
         class="Lyrics"
         d="m 1459.18,549.83 h -1.75 l -1.45,1.797 c -1.8,-1.406 -3.59,-2 -6.09,-2 -4.41,0 -7.3,2.844 -7.3,7.25 0,4.703 3.05,5.89 7.05,6.844 l 2.64,0.609 c 3.95,0.937 5.36,1.937 5.36,3.937 0,2.36 -2.05,4 -4.96,4 -4.25,0 -7.25,-2.687 -8.45,-7.687 h -2 v 9.437 h 1.75 l 1.75,-2.046 c 2.05,1.656 4.3,2.453 6.86,2.453 4.89,0 8.14,-3.047 8.14,-7.703 0,-2.204 -0.7,-3.891 -2.09,-5.047 -1.21,-1.047 -2.21,-1.453 -5.25,-2.094 l -2.5,-0.563 c -2.75,-0.593 -2.75,-0.593 -3.66,-1.093 -1.09,-0.5 -1.75,-1.547 -1.75,-2.657 0,-2.046 1.91,-3.437 4.66,-3.437 4.09,0 6.09,2.891 7.29,6.391 h 1.75 v -8.391 m 16.1,-0.203 c -6.14,0 -10.89,5.453 -10.89,12.453 0,6.844 4.79,12.344 10.79,12.344 6,0 10.8,-5.5 10.8,-12.407 0,-6.843 -4.8,-12.39 -10.7,-12.39 m 0,2.14 c 3.5,0 5.45,3.657 5.45,10.25 0,6.657 -1.95,10.25 -5.55,10.25 -3.59,0 -5.54,-3.593 -5.54,-10.187 0,-6.813 1.89,-10.313 5.64,-10.313 m 22.61,-14.953 -9.25,0.563 v 2.14 h 2.45 c 1.84,0.047 2.09,0.36 2.09,2.5 v 27.86 c -0.04,0.75 -0.09,1.047 -0.29,1.297 -0.36,0.453 -1.3,0.656 -3.46,0.703 h -0.34 v 1.797 h 12.94 v -1.797 h -0.35 c -3.34,-0.11 -3.79,-0.36 -3.79,-2.156 v -32.907"
         id="path122" />
      <path
         class="Lyrics"
         d="m 1879.42,549.83 h -1.75 l -1.45,1.797 c -1.8,-1.406 -3.59,-2 -6.09,-2 -4.41,0 -7.3,2.844 -7.3,7.25 0,4.703 3.05,5.89 7.05,6.844 l 2.64,0.609 c 3.95,0.937 5.36,1.937 5.36,3.937 0,2.36 -2.05,4 -4.96,4 -4.25,0 -7.25,-2.687 -8.45,-7.687 h -2 v 9.437 h 1.75 l 1.75,-2.046 c 2.05,1.656 4.3,2.453 6.86,2.453 4.89,0 8.14,-3.047 8.14,-7.703 0,-2.204 -0.7,-3.891 -2.09,-5.047 -1.21,-1.047 -2.21,-1.453 -5.25,-2.094 l -2.5,-0.563 c -2.75,-0.593 -2.75,-0.593 -3.66,-1.093 -1.09,-0.5 -1.75,-1.547 -1.75,-2.657 0,-2.046 1.91,-3.437 4.66,-3.437 4.09,0 6.09,2.891 7.29,6.391 h 1.75 v -8.391 m 16.1,-0.203 c -6.14,0 -10.89,5.453 -10.89,12.453 0,6.844 4.79,12.344 10.79,12.344 6,0 10.8,-5.5 10.8,-12.407 0,-6.843 -4.8,-12.39 -10.7,-12.39 m 0,2.14 c 3.5,0 5.45,3.657 5.45,10.25 0,6.657 -1.95,10.25 -5.55,10.25 -3.59,0 -5.54,-3.593 -5.54,-10.187 0,-6.813 1.89,-10.313 5.64,-10.313 m 22.61,-14.953 -9.25,0.563 v 2.14 h 2.45 c 1.84,0.047 2.09,0.36 2.09,2.5 v 27.86 c -0.04,0.75 -0.09,1.047 -0.29,1.297 -0.36,0.453 -1.3,0.656 -3.46,0.703 h -0.34 v 1.797 h 12.94 v -1.797 h -0.35 c -3.34,-0.11 -3.79,-0.36 -3.79,-2.156 v -32.907"
         id="path123" />
      <path
         class="Lyrics"
         d="m 1021.27,536.814 -9.25,0.563 v 2.14 h 2.45 c 1.85,0.047 2.1,0.36 2.1,2.5 v 27.86 c -0.05,0.75 -0.1,1.047 -0.3,1.297 -0.36,0.453 -1.3,0.656 -3.45,0.703 h -0.35 v 1.797 h 12.94 v -1.797 h -0.34 c -3.35,-0.11 -3.8,-0.36 -3.8,-2.156 v -32.907 m 28.39,20.766 c 0,-3.156 -0.54,-4.75 -2,-5.953 -1.64,-1.36 -4.09,-2 -7.29,-2 -5.65,0 -9.75,2.64 -9.75,6.297 0,1.843 1.15,3.047 2.9,3.047 1.6,0 2.7,-1.047 2.7,-2.547 0,-0.657 -0.25,-1.344 -0.75,-2.047 -0.31,-0.36 -0.35,-0.453 -0.35,-0.703 0,-1 2,-1.907 4.4,-1.907 1.6,0 3.35,0.5 4.14,1.25 0.96,0.813 1.31,2 1.31,4.25 v 1.954 c -5.2,0.906 -6.85,1.296 -9.31,2.25 -4.34,1.609 -6.39,3.906 -6.39,7.109 0,3.594 2.8,5.844 7.25,5.844 3.45,0 6.55,-1.407 8.7,-3.953 0.8,2.546 2.05,3.546 4.4,3.546 2.25,0 4.6,-1.437 4.6,-2.89 0,-0.36 -0.2,-0.61 -0.5,-0.61 -0.2,0 -0.4,0.063 -0.75,0.204 -0.7,0.296 -1,0.359 -1.4,0.359 -1.41,0 -1.91,-0.906 -1.91,-3.453 V 557.58 m -4.69,6.094 c 0,3 -0.15,3.703 -1,5 -1.25,1.843 -3.5,3.093 -5.7,3.093 -2.3,0 -3.95,-1.64 -3.95,-3.89 0,-2.11 1.05,-3.61 3.25,-4.656 1.55,-0.704 3.5,-1.204 7.4,-1.844 v 2.297"
         id="path124" />
      <path
         class="Lyrics"
         d="m 2001.78,549.83 h -1.75 l -1.45,1.797 c -1.8,-1.406 -3.59,-2 -6.09,-2 -4.41,0 -7.3,2.844 -7.3,7.25 0,4.703 3.05,5.89 7.05,6.844 l 2.64,0.609 c 3.95,0.937 5.36,1.937 5.36,3.937 0,2.36 -2.05,4 -4.96,4 -4.25,0 -7.25,-2.687 -8.45,-7.687 h -2 v 9.437 h 1.75 l 1.75,-2.046 c 2.05,1.656 4.3,2.453 6.86,2.453 4.89,0 8.14,-3.047 8.14,-7.703 0,-2.204 -0.7,-3.891 -2.09,-5.047 -1.21,-1.047 -2.21,-1.453 -5.25,-2.094 l -2.5,-0.563 c -2.75,-0.593 -2.75,-0.593 -3.66,-1.093 -1.09,-0.5 -1.75,-1.547 -1.75,-2.657 0,-2.046 1.91,-3.437 4.66,-3.437 4.09,0 6.09,2.891 7.29,6.391 h 1.75 v -8.391 m 16.1,-0.203 c -6.14,0 -10.89,5.453 -10.89,12.453 0,6.844 4.79,12.344 10.79,12.344 6,0 10.8,-5.5 10.8,-12.407 0,-6.843 -4.8,-12.39 -10.7,-12.39 m 0,2.14 c 3.5,0 5.45,3.657 5.45,10.25 0,6.657 -1.95,10.25 -5.55,10.25 -3.59,0 -5.54,-3.593 -5.54,-10.187 0,-6.813 1.89,-10.313 5.64,-10.313 m 22.61,-14.953 -9.25,0.563 v 2.14 h 2.45 c 1.84,0.047 2.09,0.36 2.09,2.5 v 27.86 c -0.04,0.75 -0.09,1.047 -0.29,1.297 -0.36,0.453 -1.3,0.656 -3.46,0.703 h -0.34 v 1.797 h 12.94 v -1.797 h -0.35 c -3.34,-0.11 -3.79,-0.36 -3.79,-2.156 v -32.907"
         id="path126" />
      <path
         class="Lyrics"
         d="m 1081.25,549.83 h -1.75 l -1.45,1.797 c -1.8,-1.406 -3.6,-2 -6.1,-2 -4.4,0 -7.3,2.844 -7.3,7.25 0,4.703 3.05,5.89 7.05,6.844 l 2.64,0.609 c 3.96,0.937 5.36,1.937 5.36,3.937 0,2.36 -2.05,4 -4.95,4 -4.25,0 -7.25,-2.687 -8.45,-7.687 h -2 v 9.437 h 1.75 l 1.75,-2.046 c 2.04,1.656 4.29,2.453 6.85,2.453 4.9,0 8.15,-3.047 8.15,-7.703 0,-2.204 -0.71,-3.891 -2.1,-5.047 -1.2,-1.047 -2.2,-1.453 -5.25,-2.094 l -2.5,-0.563 c -2.75,-0.593 -2.75,-0.593 -3.65,-1.093 -1.1,-0.5 -1.75,-1.547 -1.75,-2.657 0,-2.046 1.9,-3.437 4.65,-3.437 4.1,0 6.1,2.891 7.3,6.391 h 1.75 v -8.391 m 16.09,-0.203 c -6.14,0 -10.89,5.453 -10.89,12.453 0,6.844 4.8,12.344 10.8,12.344 6,0 10.8,-5.5 10.8,-12.407 0,-6.843 -4.8,-12.39 -10.71,-12.39 m 0,2.14 c 3.5,0 5.46,3.657 5.46,10.25 0,6.657 -1.96,10.25 -5.55,10.25 -3.6,0 -5.55,-3.593 -5.55,-10.187 0,-6.813 1.89,-10.313 5.64,-10.313 m 22.61,-14.953 -9.25,0.563 v 2.14 h 2.45 c 1.85,0.047 2.1,0.36 2.1,2.5 v 27.86 c -0.05,0.75 -0.1,1.047 -0.3,1.297 -0.36,0.453 -1.3,0.656 -3.45,0.703 h -0.35 v 1.797 h 12.94 v -1.797 h -0.34 c -3.35,-0.11 -3.8,-0.36 -3.8,-2.156 v -32.907"
         id="path128" />
      <path
         class="Lyrics"
         d="m 2459.47,550.377 -8.89,0.547 v 2.156 h 2.05 c 1.89,0.047 2.14,0.344 2.14,2.5 v 14.297 c -0.05,0.75 -0.09,1.047 -0.3,1.297 -0.34,0.453 -1.29,0.656 -3.45,0.703 h -0.19 v 1.797 h 12.6 v -1.797 h -0.21 c -3.29,-0.11 -3.75,-0.36 -3.75,-2.203 v -9.25 c 0,-4.453 2.46,-7.75 5.71,-7.75 2.84,0 4.29,2.047 4.29,6.093 v 11.157 c -0.04,0.656 -0.09,1 -0.34,1.25 -0.3,0.453 -1.3,0.656 -3.45,0.703 h -0.21 v 1.797 h 12.66 v -1.797 h -0.2 c -3.3,-0.11 -3.75,-0.36 -3.75,-2.156 v -8.844 c 0,-5 2.25,-8.203 5.75,-8.203 2.86,0 4.25,2.156 4.25,6.656 v 10.547 c -0.05,0.703 -0.1,1.047 -0.35,1.297 -0.29,0.453 -1.29,0.656 -3.45,0.703 h -0.2 v 1.797 h 12.65 v -1.797 h -0.2 c -3.3,-0.11 -3.75,-0.36 -3.75,-2.203 V 558.33 c 0,-3.109 -0.3,-4.156 -1.59,-5.859 -1.46,-1.844 -3.5,-2.844 -5.91,-2.844 -3.25,0 -5.66,1.547 -7.8,5 -0.86,-3 -3.56,-5 -6.9,-5 -3.05,0 -5.25,1.453 -7.21,4.594 v -3.844 m 41.91,-12.453 c -1.61,0 -2.91,1.297 -2.91,2.89 0,1.61 1.3,2.907 2.86,2.907 1.64,0 2.94,-1.297 2.94,-2.907 0,-1.593 -1.3,-2.89 -2.89,-2.89 m 2.34,12.453 -9.39,0.547 v 2.156 h 2.55 c 1.89,0.047 2.14,0.344 2.14,2.5 v 14.297 c -0.05,0.75 -0.09,1.047 -0.3,1.297 -0.34,0.453 -1.29,0.656 -3.45,0.703 h -0.34 v 1.797 h 12.95 v -1.797 h -0.36 c -3.34,-0.11 -3.8,-0.36 -3.8,-2.156 v -19.344"
         id="path129" />
      <path
         class="Lyrics"
         d="m 1757.21,536.814 -9.25,0.563 v 2.14 h 2.46 c 1.84,0.047 2.09,0.36 2.09,2.5 v 27.86 c -0.05,0.75 -0.09,1.047 -0.3,1.297 -0.35,0.453 -1.29,0.656 -3.45,0.703 h -0.34 v 1.797 h 12.94 v -1.797 h -0.35 c -3.34,-0.11 -3.8,-0.36 -3.8,-2.156 v -32.907 m 28.4,20.766 c 0,-3.156 -0.55,-4.75 -2,-5.953 -1.65,-1.36 -4.1,-2 -7.3,-2 -5.64,0 -9.75,2.64 -9.75,6.297 0,1.843 1.15,3.047 2.9,3.047 1.6,0 2.71,-1.047 2.71,-2.547 0,-0.657 -0.25,-1.344 -0.75,-2.047 -0.31,-0.36 -0.36,-0.453 -0.36,-0.703 0,-1 2,-1.907 4.4,-1.907 1.6,0 3.35,0.5 4.15,1.25 0.95,0.813 1.31,2 1.31,4.25 v 1.954 c -5.21,0.906 -6.86,1.296 -9.31,2.25 -4.35,1.609 -6.4,3.906 -6.4,7.109 0,3.594 2.8,5.844 7.25,5.844 3.46,0 6.55,-1.407 8.71,-3.953 0.79,2.546 2.04,3.546 4.39,3.546 2.25,0 4.61,-1.437 4.61,-2.89 0,-0.36 -0.21,-0.61 -0.5,-0.61 -0.21,0 -0.41,0.063 -0.75,0.204 -0.71,0.296 -1,0.359 -1.41,0.359 -1.4,0 -1.9,-0.906 -1.9,-3.453 V 557.58 m -4.69,6.094 c 0,3 -0.16,3.703 -1,5 -1.25,1.843 -3.5,3.093 -5.71,3.093 -2.29,0 -3.95,-1.64 -3.95,-3.89 0,-2.11 1.05,-3.61 3.25,-4.656 1.55,-0.704 3.5,-1.204 7.41,-1.844 v 2.297"
         id="path131" />
      <path
         class="Lyrics"
         d="m 2162.65,550.377 -8.89,0.547 v 2.156 h 2.04 c 1.89,0.047 2.14,0.344 2.14,2.5 v 14.297 c -0.04,0.75 -0.09,1.047 -0.29,1.297 -0.35,0.453 -1.3,0.656 -3.46,0.703 h -0.18 v 1.797 h 12.59 v -1.797 h -0.2 c -3.3,-0.11 -3.75,-0.36 -3.75,-2.203 v -9.25 c 0,-4.453 2.45,-7.75 5.7,-7.75 2.84,0 4.3,2.047 4.3,6.093 v 11.157 c -0.05,0.656 -0.1,1 -0.35,1.25 -0.29,0.453 -1.29,0.656 -3.45,0.703 h -0.2 v 1.797 h 12.65 v -1.797 h -0.2 c -3.3,-0.11 -3.75,-0.36 -3.75,-2.156 v -8.844 c 0,-5 2.25,-8.203 5.75,-8.203 2.86,0 4.25,2.156 4.25,6.656 v 10.547 c -0.05,0.703 -0.09,1.047 -0.34,1.297 -0.3,0.453 -1.3,0.656 -3.46,0.703 h -0.2 v 1.797 h 12.66 v -1.797 h -0.21 c -3.29,-0.11 -3.75,-0.36 -3.75,-2.203 V 558.33 c 0,-3.109 -0.29,-4.156 -1.59,-5.859 -1.45,-1.844 -3.5,-2.844 -5.91,-2.844 -3.25,0 -5.65,1.547 -7.79,5 -0.86,-3 -3.57,-5 -6.91,-5 -3.05,0 -5.25,1.453 -7.2,4.594 v -3.844 m 41.9,-12.453 c -1.61,0 -2.9,1.297 -2.9,2.89 0,1.61 1.29,2.907 2.86,2.907 1.64,0 2.93,-1.297 2.93,-2.907 0,-1.593 -1.29,-2.89 -2.89,-2.89 m 2.35,12.453 -9.39,0.547 v 2.156 h 2.54 c 1.89,0.047 2.14,0.344 2.14,2.5 v 14.297 c -0.04,0.75 -0.09,1.047 -0.29,1.297 -0.35,0.453 -1.3,0.656 -3.46,0.703 h -0.34 v 1.797 h 12.95 v -1.797 h -0.36 c -3.34,-0.11 -3.79,-0.36 -3.79,-2.156 v -19.344"
         id="path132" />
      <path
         class="Lyrics"
         d="m 1941.81,536.814 -9.25,0.563 v 2.14 h 2.45 c 1.84,0.047 2.09,0.36 2.09,2.5 v 27.86 c -0.04,0.75 -0.09,1.047 -0.29,1.297 -0.36,0.453 -1.3,0.656 -3.46,0.703 h -0.34 v 1.797 h 12.94 v -1.797 h -0.35 c -3.34,-0.11 -3.79,-0.36 -3.79,-2.156 v -32.907 m 28.39,20.766 c 0,-3.156 -0.55,-4.75 -2,-5.953 -1.64,-1.36 -4.1,-2 -7.3,-2 -5.64,0 -9.75,2.64 -9.75,6.297 0,1.843 1.16,3.047 2.91,3.047 1.59,0 2.7,-1.047 2.7,-2.547 0,-0.657 -0.25,-1.344 -0.75,-2.047 -0.31,-0.36 -0.36,-0.453 -0.36,-0.703 0,-1 2,-1.907 4.41,-1.907 1.59,0 3.34,0.5 4.14,1.25 0.95,0.813 1.31,2 1.31,4.25 v 1.954 c -5.2,0.906 -6.86,1.296 -9.31,2.25 -4.35,1.609 -6.39,3.906 -6.39,7.109 0,3.594 2.79,5.844 7.25,5.844 3.45,0 6.54,-1.407 8.7,-3.953 0.8,2.546 2.05,3.546 4.39,3.546 2.25,0 4.61,-1.437 4.61,-2.89 0,-0.36 -0.2,-0.61 -0.5,-0.61 -0.2,0 -0.41,0.063 -0.75,0.204 -0.7,0.296 -1,0.359 -1.41,0.359 -1.4,0 -1.9,-0.906 -1.9,-3.453 V 557.58 m -4.69,6.094 c 0,3 -0.16,3.703 -1,5 -1.25,1.843 -3.5,3.093 -5.7,3.093 -2.3,0 -3.96,-1.64 -3.96,-3.89 0,-2.11 1.05,-3.61 3.25,-4.656 1.55,-0.704 3.5,-1.204 7.41,-1.844 v 2.297"
         id="path134" />
      <path
         class="Lyrics"
         d="m 749.972,536.814 -9.25,0.563 v 2.14 h 2.453 c 1.844,0.047 2.094,0.36 2.094,2.5 v 27.86 c -0.047,0.75 -0.094,1.047 -0.297,1.297 -0.359,0.453 -1.297,0.656 -3.453,0.703 h -0.344 v 1.797 h 12.938 v -1.797 h -0.344 c -3.344,-0.11 -3.797,-0.36 -3.797,-2.156 v -32.907 m 28.391,20.766 c 0,-3.156 -0.547,-4.75 -2,-5.953 -1.641,-1.36 -4.094,-2 -7.297,-2 -5.641,0 -9.75,2.64 -9.75,6.297 0,1.843 1.156,3.047 2.906,3.047 1.594,0 2.703,-1.047 2.703,-2.547 0,-0.657 -0.25,-1.344 -0.75,-2.047 -0.312,-0.36 -0.359,-0.453 -0.359,-0.703 0,-1 2,-1.907 4.406,-1.907 1.594,0 3.344,0.5 4.141,1.25 0.953,0.813 1.312,2 1.312,4.25 v 1.954 c -5.203,0.906 -6.859,1.296 -9.312,2.25 -4.344,1.609 -6.391,3.906 -6.391,7.109 0,3.594 2.797,5.844 7.25,5.844 3.453,0 6.547,-1.407 8.703,-3.953 0.797,2.546 2.047,3.546 4.391,3.546 2.25,0 4.609,-1.437 4.609,-2.89 0,-0.36 -0.203,-0.61 -0.5,-0.61 -0.203,0 -0.406,0.063 -0.75,0.204 -0.703,0.296 -1,0.359 -1.406,0.359 -1.406,0 -1.906,-0.906 -1.906,-3.453 V 557.58 m -4.688,6.094 c 0,3 -0.156,3.703 -1,5 -1.25,1.843 -3.5,3.093 -5.703,3.093 -2.297,0 -3.953,-1.64 -3.953,-3.89 0,-2.11 1.047,-3.61 3.25,-4.656 1.547,-0.704 3.5,-1.204 7.406,-1.844 v 2.297"
         id="path135" />
      <path
         class="Lyrics"
         d="m 2372.77,550.377 -8.89,0.547 v 2.156 h 2.04 c 1.89,0.047 2.14,0.344 2.14,2.5 v 14.297 c -0.04,0.75 -0.09,1.047 -0.29,1.297 -0.35,0.453 -1.3,0.656 -3.46,0.703 h -0.18 v 1.797 h 12.59 v -1.797 h -0.2 c -3.3,-0.11 -3.75,-0.36 -3.75,-2.203 v -9.25 c 0,-4.453 2.45,-7.75 5.7,-7.75 2.84,0 4.3,2.047 4.3,6.093 v 11.157 c -0.05,0.656 -0.1,1 -0.35,1.25 -0.29,0.453 -1.29,0.656 -3.45,0.703 h -0.2 v 1.797 h 12.65 v -1.797 h -0.2 c -3.3,-0.11 -3.75,-0.36 -3.75,-2.156 v -8.844 c 0,-5 2.25,-8.203 5.75,-8.203 2.86,0 4.25,2.156 4.25,6.656 v 10.547 c -0.05,0.703 -0.09,1.047 -0.34,1.297 -0.3,0.453 -1.3,0.656 -3.46,0.703 h -0.2 v 1.797 h 12.66 v -1.797 h -0.21 c -3.29,-0.11 -3.75,-0.36 -3.75,-2.203 V 558.33 c 0,-3.109 -0.29,-4.156 -1.59,-5.859 -1.45,-1.844 -3.5,-2.844 -5.91,-2.844 -3.25,0 -5.65,1.547 -7.79,5 -0.86,-3 -3.57,-5 -6.91,-5 -3.05,0 -5.25,1.453 -7.2,4.594 v -3.844 m 41.9,-12.453 c -1.61,0 -2.9,1.297 -2.9,2.89 0,1.61 1.29,2.907 2.86,2.907 1.64,0 2.93,-1.297 2.93,-2.907 0,-1.593 -1.29,-2.89 -2.89,-2.89 m 2.35,12.453 -9.39,0.547 v 2.156 h 2.54 c 1.89,0.047 2.14,0.344 2.14,2.5 v 14.297 c -0.04,0.75 -0.09,1.047 -0.29,1.297 -0.35,0.453 -1.3,0.656 -3.46,0.703 h -0.34 v 1.797 h 12.95 v -1.797 h -0.36 c -3.34,-0.11 -3.79,-0.36 -3.79,-2.156 v -19.344"
         id="path136" />
      <path
         class="Lyrics"
         d="m 836.68,536.814 -9.25,0.563 v 2.14 h 2.453 c 1.844,0.047 2.094,0.36 2.094,2.5 v 27.86 c -0.047,0.75 -0.094,1.047 -0.297,1.297 -0.359,0.453 -1.297,0.656 -3.453,0.703 h -0.344 v 1.797 h 12.938 v -1.797 h -0.344 c -3.344,-0.11 -3.797,-0.36 -3.797,-2.156 v -32.907 m 28.391,20.766 c 0,-3.156 -0.547,-4.75 -2,-5.953 -1.641,-1.36 -4.094,-2 -7.297,-2 -5.641,0 -9.75,2.64 -9.75,6.297 0,1.843 1.156,3.047 2.906,3.047 1.594,0 2.703,-1.047 2.703,-2.547 0,-0.657 -0.25,-1.344 -0.75,-2.047 -0.312,-0.36 -0.359,-0.453 -0.359,-0.703 0,-1 2,-1.907 4.406,-1.907 1.594,0 3.344,0.5 4.141,1.25 0.953,0.813 1.312,2 1.312,4.25 v 1.954 c -5.203,0.906 -6.859,1.296 -9.312,2.25 -4.344,1.609 -6.391,3.906 -6.391,7.109 0,3.594 2.797,5.844 7.25,5.844 3.453,0 6.547,-1.407 8.703,-3.953 0.797,2.546 2.047,3.546 4.391,3.546 2.25,0 4.609,-1.437 4.609,-2.89 0,-0.36 -0.203,-0.61 -0.5,-0.61 -0.203,0 -0.406,0.063 -0.75,0.204 -0.703,0.296 -1,0.359 -1.406,0.359 -1.406,0 -1.906,-0.906 -1.906,-3.453 V 557.58 m -4.688,6.094 c 0,3 -0.156,3.703 -1,5 -1.25,1.843 -3.5,3.093 -5.703,3.093 -2.297,0 -3.953,-1.64 -3.953,-3.89 0,-2.11 1.047,-3.61 3.25,-4.656 1.547,-0.704 3.5,-1.204 7.406,-1.844 v 2.297"
         id="path138" />
      <path
         class="Lyrics"
         d="m 538.65,549.83 h -1.75 l -1.453,1.797 c -1.797,-1.406 -3.594,-2 -6.094,-2 -4.406,0 -7.297,2.844 -7.297,7.25 0,4.703 3.047,5.89 7.047,6.844 l 2.64,0.609 c 3.954,0.937 5.36,1.937 5.36,3.937 0,2.36 -2.047,4 -4.953,4 -4.25,0 -7.25,-2.687 -8.453,-7.687 h -2 v 9.437 h 1.75 l 1.75,-2.046 c 2.046,1.656 4.296,2.453 6.859,2.453 4.891,0 8.141,-3.047 8.141,-7.703 0,-2.204 -0.704,-3.891 -2.094,-5.047 -1.203,-1.047 -2.203,-1.453 -5.25,-2.094 l -2.5,-0.563 c -2.75,-0.593 -2.75,-0.593 -3.656,-1.093 -1.094,-0.5 -1.75,-1.547 -1.75,-2.657 0,-2.046 1.906,-3.437 4.656,-3.437 4.094,0 6.094,2.891 7.297,6.391 h 1.75 v -8.391 m 16.093,-0.203 c -6.14,0 -10.89,5.453 -10.89,12.453 0,6.844 4.797,12.344 10.797,12.344 6,0 10.797,-5.5 10.797,-12.407 0,-6.843 -4.797,-12.39 -10.704,-12.39 m 0,2.14 c 3.5,0 5.454,3.657 5.454,10.25 0,6.657 -1.954,10.25 -5.547,10.25 -3.594,0 -5.547,-3.593 -5.547,-10.187 0,-6.813 1.89,-10.313 5.64,-10.313 m 22.61,-14.953 -9.25,0.563 v 2.14 h 2.453 c 1.844,0.047 2.094,0.36 2.094,2.5 v 27.86 c -0.047,0.75 -0.094,1.047 -0.297,1.297 -0.36,0.453 -1.297,0.656 -3.453,0.703 h -0.344 v 1.797 h 12.937 v -1.797 h -0.343 c -3.344,-0.11 -3.797,-0.36 -3.797,-2.156 v -32.907"
         id="path139" />
      <path
         class="Lyrics"
         d="m 1336.32,550.377 v -2.86 c 0,-2.5 0.16,-4.14 0.55,-5.14 0.81,-2.203 2.56,-3.563 4.56,-3.563 1.05,0 1.69,0.313 1.69,0.86 0,0.203 0,0.25 -0.3,0.64 -0.3,0.453 -0.45,1.063 -0.45,1.61 0,1.5 1.2,2.64 2.75,2.64 1.65,0 2.81,-1.25 2.81,-3.047 0,-2.89 -2.5,-4.703 -6.56,-4.703 -3.44,0 -6,1.203 -7.75,3.703 -1.5,2.11 -2,4.25 -2,8.313 v 1.547 h -4.39 v 2.14 h 4.39 v 17.36 c -0.05,0.703 -0.1,1 -0.3,1.297 -0.34,0.453 -1.3,0.656 -3.45,0.703 h -0.19 v 1.797 h 13.34 v -1.797 h -0.9 c -3.35,-0.11 -3.8,-0.36 -3.8,-2.156 v -17.204 h 5.5 v -2.14 h -5.5 m 28.55,7.203 c 0,-3.156 -0.55,-4.75 -2,-5.953 -1.64,-1.36 -4.1,-2 -7.3,-2 -5.64,0 -9.75,2.64 -9.75,6.297 0,1.843 1.16,3.047 2.91,3.047 1.59,0 2.7,-1.047 2.7,-2.547 0,-0.657 -0.25,-1.344 -0.75,-2.047 -0.31,-0.36 -0.36,-0.453 -0.36,-0.703 0,-1 2,-1.907 4.41,-1.907 1.59,0 3.34,0.5 4.14,1.25 0.95,0.813 1.31,2 1.31,4.25 v 1.954 c -5.2,0.906 -6.86,1.296 -9.31,2.25 -4.35,1.609 -6.39,3.906 -6.39,7.109 0,3.594 2.79,5.844 7.25,5.844 3.45,0 6.54,-1.407 8.7,-3.953 0.8,2.546 2.05,3.546 4.39,3.546 2.25,0 4.61,-1.437 4.61,-2.89 0,-0.36 -0.2,-0.61 -0.5,-0.61 -0.2,0 -0.41,0.063 -0.75,0.204 -0.7,0.296 -1,0.359 -1.41,0.359 -1.4,0 -1.9,-0.906 -1.9,-3.453 V 557.58 m -4.69,6.094 c 0,3 -0.16,3.703 -1,5 -1.25,1.843 -3.5,3.093 -5.7,3.093 -2.3,0 -3.96,-1.64 -3.96,-3.89 0,-2.11 1.05,-3.61 3.25,-4.656 1.55,-0.704 3.5,-1.204 7.41,-1.844 v 2.297"
         id="path141" />
      <path
         class="Lyrics"
         d="m 2064.01,550.377 v -2.86 c 0,-2.5 0.16,-4.14 0.55,-5.14 0.81,-2.203 2.56,-3.563 4.56,-3.563 1.05,0 1.69,0.313 1.69,0.86 0,0.203 0,0.25 -0.3,0.64 -0.3,0.453 -0.45,1.063 -0.45,1.61 0,1.5 1.2,2.64 2.75,2.64 1.65,0 2.81,-1.25 2.81,-3.047 0,-2.89 -2.5,-4.703 -6.56,-4.703 -3.44,0 -6,1.203 -7.75,3.703 -1.5,2.11 -2,4.25 -2,8.313 v 1.547 h -4.39 v 2.14 h 4.39 v 17.36 c -0.05,0.703 -0.1,1 -0.3,1.297 -0.34,0.453 -1.3,0.656 -3.45,0.703 h -0.19 v 1.797 h 13.34 v -1.797 h -0.9 c -3.35,-0.11 -3.8,-0.36 -3.8,-2.156 v -17.204 h 5.5 v -2.14 h -5.5 m 28.55,7.203 c 0,-3.156 -0.55,-4.75 -2,-5.953 -1.64,-1.36 -4.1,-2 -7.3,-2 -5.64,0 -9.75,2.64 -9.75,6.297 0,1.843 1.16,3.047 2.91,3.047 1.59,0 2.7,-1.047 2.7,-2.547 0,-0.657 -0.25,-1.344 -0.75,-2.047 -0.31,-0.36 -0.36,-0.453 -0.36,-0.703 0,-1 2,-1.907 4.41,-1.907 1.59,0 3.34,0.5 4.14,1.25 0.95,0.813 1.31,2 1.31,4.25 v 1.954 c -5.2,0.906 -6.86,1.296 -9.31,2.25 -4.35,1.609 -6.39,3.906 -6.39,7.109 0,3.594 2.79,5.844 7.25,5.844 3.45,0 6.54,-1.407 8.7,-3.953 0.8,2.546 2.05,3.546 4.39,3.546 2.25,0 4.61,-1.437 4.61,-2.89 0,-0.36 -0.2,-0.61 -0.5,-0.61 -0.2,0 -0.41,0.063 -0.75,0.204 -0.7,0.296 -1,0.359 -1.41,0.359 -1.4,0 -1.9,-0.906 -1.9,-3.453 V 557.58 m -4.69,6.094 c 0,3 -0.16,3.703 -1,5 -1.25,1.843 -3.5,3.093 -5.7,3.093 -2.3,0 -3.96,-1.64 -3.96,-3.89 0,-2.11 1.05,-3.61 3.25,-4.656 1.55,-0.704 3.5,-1.204 7.41,-1.844 v 2.297"
         id="path142" />
      <path
         class="Lyrics"
         d="m 625.357,549.83 h -1.75 l -1.453,1.797 c -1.797,-1.406 -3.593,-2 -6.093,-2 -4.407,0 -7.297,2.844 -7.297,7.25 0,4.703 3.047,5.89 7.047,6.844 l 2.64,0.609 c 3.953,0.937 5.36,1.937 5.36,3.937 0,2.36 -2.047,4 -4.954,4 -4.25,0 -7.25,-2.687 -8.453,-7.687 h -2 v 9.437 h 1.75 l 1.75,-2.046 c 2.047,1.656 4.297,2.453 6.86,2.453 4.89,0 8.14,-3.047 8.14,-7.703 0,-2.204 -0.703,-3.891 -2.093,-5.047 -1.204,-1.047 -2.204,-1.453 -5.25,-2.094 l -2.5,-0.563 c -2.75,-0.593 -2.75,-0.593 -3.657,-1.093 -1.093,-0.5 -1.75,-1.547 -1.75,-2.657 0,-2.046 1.907,-3.437 4.657,-3.437 4.093,0 6.093,2.891 7.296,6.391 h 1.75 v -8.391 m 16.094,-0.203 c -6.14,0 -10.89,5.453 -10.89,12.453 0,6.844 4.796,12.344 10.796,12.344 6,0 10.797,-5.5 10.797,-12.407 0,-6.843 -4.797,-12.39 -10.703,-12.39 m 0,2.14 c 3.5,0 5.453,3.657 5.453,10.25 0,6.657 -1.953,10.25 -5.547,10.25 -3.593,0 -5.546,-3.593 -5.546,-10.187 0,-6.813 1.89,-10.313 5.64,-10.313 m 22.61,-14.953 -9.25,0.563 v 2.14 h 2.453 c 1.843,0.047 2.093,0.36 2.093,2.5 v 27.86 c -0.046,0.75 -0.093,1.047 -0.296,1.297 -0.36,0.453 -1.297,0.656 -3.454,0.703 h -0.343 v 1.797 h 12.937 v -1.797 h -0.344 c -3.343,-0.11 -3.796,-0.36 -3.796,-2.156 v -32.907"
         id="path143" />
      <path
         class="Tempo"
         d="m 473.073,249.17 h -3.266 v 42.266 c -1.094,-0.687 -2.484,-1.094 -4.062,-1.281 -3.563,0 -6.438,0.39 -9.61,2.172 -3.953,2.078 -8.312,6.437 -8.312,11.281 0,4.75 4.265,7.031 8.609,7.031 6.938,0 16.641,-5.937 16.641,-13.469 v -48"
         id="path144" />
      <path
         class="Tempo"
         d="m 494.807,287.124 h 30.234 v -6.907 h -30.234 v 6.907 m 0,12.359 h 30.234 v -6.906 h -30.234 v 6.906 m 62.063,-16.141 c 0,-4.984 1.078,-17.703 7.921,-17.703 1.5,0 2.579,0.547 2.579,1.375 0,0.422 -0.063,0.61 -0.485,1.141 -0.781,1.031 -1.203,2.344 -1.203,3.547 0,2.703 2.156,4.625 5.281,4.625 3.422,0 5.578,-2.11 5.578,-5.407 0,-5.156 -4.375,-8.406 -11.218,-8.406 -5.766,0 -10.203,2.219 -13.672,6.844 -3.547,4.625 -5.172,10.141 -5.172,17.281 0,6 1.266,10.266 4.078,13.735 2.953,3.609 6.969,5.468 11.891,5.468 8.812,0 15.234,-5.937 15.234,-14.218 0,-7.204 -4.922,-12.25 -12.062,-12.25 -3.891,0 -6.235,1.093 -8.75,3.968 m 5.64,0.532 c 3.11,0.125 4.735,3 4.735,8.406 0,6.953 -1.735,10.734 -4.922,10.734 -3.235,0 -5.094,-3.469 -5.094,-9.656 0,-2.156 0.172,-4.016 0.469,-5.406 0.672,-2.578 2.531,-4.188 4.812,-4.078 m 33.453,-21.36 c -9,0 -15.593,9.188 -15.593,21.672 0,12.469 6.593,21.656 15.593,21.656 8.813,0 15.547,-9.187 15.547,-21.359 0,-7.078 -1.625,-12.297 -5.172,-16.75 -2.812,-3.406 -6.359,-5.219 -10.375,-5.219 m -0.062,3.125 c 1.797,0 3.25,1.078 3.906,3 0.781,1.985 1.25,8.281 1.25,15.719 0,6.187 -0.469,12.656 -1.016,14.703 -0.656,2.391 -2.093,3.656 -4.14,3.656 -1.86,0 -3.235,-1.015 -3.953,-3 -0.782,-1.984 -1.266,-8.343 -1.266,-15.531 0,-6.312 0.484,-12.844 1.016,-14.891 0.672,-2.39 2.109,-3.656 4.203,-3.656"
         id="path145" />
      <path
         class="StaffText"
         d="m 986.273,324.945 h -1.891 l -1.953,3 c -3.25,-2.546 -5.453,-3.406 -9.11,-3.406 -3.953,0 -7.046,1.11 -10.203,3.656 -4.937,4 -7.25,9.047 -7.25,15.797 0,5.11 1.453,9.36 4.407,12.61 3.093,3.5 7.703,5.547 12.5,5.547 4.203,0 7.156,-1.297 10.406,-4.547 l 1.844,4.5 h 2.109 v -11 c 0,-2.547 0,-2.657 0.297,-3.11 0.453,-0.547 1.344,-0.687 4.203,-0.687 h 0.75 v -2.36 h -15.906 v 2.36 h 0.953 c 4.203,0 4.547,0.25 4.547,3.047 0,2.14 -0.344,4.093 -1,5.297 -1.25,2.453 -4.453,4.156 -7.703,4.156 -3.25,0 -6.454,-1.656 -8.157,-4.156 -1.843,-2.797 -2.64,-6.297 -2.64,-11.657 0,-11.14 3.703,-17.093 10.64,-17.093 5.703,0 9.657,4.093 11.703,12.093 h 2.157 l -0.703,-14.047"
         id="path147" />
      <path
         class="StaffText"
         d="m 2587.18,361.399 h 16.79 c 4.46,0 7.86,-0.704 10.5,-2.204 5.05,-2.843 7.86,-8.546 7.86,-16.046 0,-6.907 -2.5,-12.297 -7.11,-15.297 -2.75,-1.75 -6.45,-2.563 -12.15,-2.563 h -15.89 v 2.36 h 0.95 c 2.8,0.046 3.75,0.203 4.14,0.703 0.3,0.437 0.3,0.547 0.3,3.093 v 23.797 c 0,2.563 0,2.657 -0.3,3.11 -0.39,0.5 -1.34,0.64 -4.14,0.703 h -0.95 v 2.344 m 13.84,-2.344 c -2.55,0 -2.84,-0.313 -2.84,-2.75 v -25.86 c 0,-2.453 0.34,-2.796 2.84,-2.796 h 2.61 c 8.55,0 12.09,4.64 12.09,15.703 0,11.203 -3.2,15.703 -11.29,15.703 h -3.41"
         id="path148" />
      <path
         class="StaffText"
         d="m 2090.55,325.289 h -29.75 v 2.36 h 0.89 c 2.86,0.046 3.81,0.203 4.2,0.703 0.3,0.437 0.3,0.547 0.3,3.093 v 23.797 c 0,2.563 0,2.657 -0.3,3.11 -0.39,0.5 -1.34,0.703 -4.2,0.703 h -0.89 v 2.344 h 17.14 v -2.344 h -1.64 c -2.86,0 -3.8,-0.203 -4.2,-0.703 -0.3,-0.453 -0.3,-0.61 -0.3,-3.11 v -11.343 h 1 c 5.14,-0.204 7,1.656 7.2,7.203 h 2.35 V 334.695 H 2080 c -0.31,4.907 -2.25,6.797 -7,6.86 h -1.2 v -11.406 c -0.05,-2.11 0.45,-2.454 3.14,-2.5 h 2.31 c 8.21,-0.047 10.25,1.796 11.8,10.406 h 2.2 l -0.7,-12.766"
         id="path149" />
      <path
         class="StaffText"
         d="m 1036.86,324.572 h -2.11 l -11.5,29.141 c -1.34,3.906 -2.64,5.109 -5.5,5.312 h -0.2 v 2.344 h 13.25 v -2.344 h -1 c -2.69,0 -4.05,-0.953 -4.05,-2.859 0,-0.641 0.16,-1.25 0.45,-2.094 l 1.66,-4.406 h 13.25 l 2.7,6.703 c 0.3,0.797 0.39,1.094 0.39,1.344 0,0.812 -1.25,1.312 -3.09,1.312 H 1039 v 2.344 h 15.5 v -2.344 h -0.69 c -2.61,-0.062 -3.06,-0.359 -4.2,-3.203 l -12.75,-31.25 m -2.45,8.188 5.64,14.203 h -11.19 l 5.55,-14.203"
         id="path151" />
      <path
         class="StaffText"
         d="m 2673.88,361.399 h 16.8 c 4.45,0 7.86,-0.704 10.5,-2.204 5.05,-2.843 7.86,-8.546 7.86,-16.046 0,-6.907 -2.5,-12.297 -7.11,-15.297 -2.75,-1.75 -6.45,-2.563 -12.16,-2.563 h -15.89 v 2.36 h 0.96 c 2.79,0.046 3.75,0.203 4.14,0.703 0.29,0.437 0.29,0.547 0.29,3.093 v 23.797 c 0,2.563 0,2.657 -0.29,3.11 -0.39,0.5 -1.35,0.64 -4.14,0.703 h -0.96 v 2.344 m 13.85,-2.344 c -2.55,0 -2.85,-0.313 -2.85,-2.75 v -25.86 c 0,-2.453 0.35,-2.796 2.85,-2.796 h 2.61 c 8.54,0 12.09,4.64 12.09,15.703 0,11.203 -3.2,15.703 -11.3,15.703 h -3.4"
         id="path152" />
      <path
         class="StaffText"
         d="m 852.267,318.402 h -2.109 l -11.5,29.14 c -1.344,3.907 -2.641,5.11 -5.5,5.313 h -0.203 v 2.344 h 13.25 v -2.344 h -1 c -2.688,0 -4.047,-0.953 -4.047,-2.86 0,-0.64 0.156,-1.25 0.453,-2.093 l 1.656,-4.407 h 13.25 l 2.703,6.704 c 0.297,0.796 0.391,1.093 0.391,1.343 0,0.813 -1.25,1.313 -3.094,1.313 h -2.109 v 2.344 h 15.5 v -2.344 h -0.688 c -2.609,-0.063 -3.062,-0.36 -4.203,-3.203 l -12.75,-31.25 m -2.453,8.187 5.641,14.203 h -11.188 l 5.547,-14.203"
         id="path153" />
      <path
         class="StaffText"
         d="m 1772.8,318.402 h -2.11 l -11.5,29.14 c -1.34,3.907 -2.64,5.11 -5.5,5.313 h -0.2 v 2.344 h 13.25 v -2.344 h -1 c -2.69,0 -4.05,-0.953 -4.05,-2.86 0,-0.64 0.16,-1.25 0.46,-2.093 l 1.65,-4.407 h 13.25 l 2.71,6.704 c 0.29,0.796 0.39,1.093 0.39,1.343 0,0.813 -1.25,1.313 -3.1,1.313 h -2.11 v 2.344 h 15.5 v -2.344 h -0.68 c -2.61,-0.063 -3.07,-0.36 -4.21,-3.203 l -12.75,-31.25 m -2.45,8.187 5.64,14.203 h -11.19 l 5.55,-14.203"
         id="path154" />
      <path
         class="StaffText"
         d="m 1686.09,318.402 h -2.11 l -11.5,29.14 c -1.34,3.907 -2.64,5.11 -5.5,5.313 h -0.2 v 2.344 h 13.25 v -2.344 h -1 c -2.69,0 -4.05,-0.953 -4.05,-2.86 0,-0.64 0.16,-1.25 0.46,-2.093 l 1.65,-4.407 h 13.25 l 2.71,6.704 c 0.29,0.796 0.39,1.093 0.39,1.343 0,0.813 -1.25,1.313 -3.1,1.313 h -2.11 v 2.344 h 15.5 v -2.344 h -0.68 c -2.61,-0.063 -3.07,-0.36 -4.21,-3.203 l -12.75,-31.25 m -2.45,8.187 5.64,14.203 h -11.19 l 5.55,-14.203"
         id="path155" />
      <path
         class="StaffText"
         d="m 1573.28,323.945 h -1.89 l -1.96,3 c -3.25,-2.546 -5.45,-3.406 -9.11,-3.406 -3.95,0 -7.04,1.11 -10.2,3.656 -4.94,4 -7.25,9.047 -7.25,15.797 0,5.11 1.45,9.36 4.41,12.61 3.09,3.5 7.7,5.547 12.5,5.547 4.2,0 7.15,-1.297 10.4,-4.547 l 1.85,4.5 h 2.11 v -11 c 0,-2.547 0,-2.657 0.29,-3.11 0.46,-0.547 1.35,-0.687 4.21,-0.687 h 0.75 v -2.36 h -15.91 v 2.36 h 0.95 c 4.21,0 4.55,0.25 4.55,3.047 0,2.14 -0.34,4.093 -1,5.297 -1.25,2.453 -4.45,4.156 -7.7,4.156 -3.25,0 -6.46,-1.656 -8.16,-4.156 -1.84,-2.797 -2.64,-6.297 -2.64,-11.657 0,-11.14 3.7,-17.093 10.64,-17.093 5.7,0 9.66,4.093 11.7,12.093 h 2.16 l -0.7,-14.047"
         id="path157" />
      <path
         class="StaffText"
         d="m 1486.57,323.945 h -1.89 l -1.96,3 c -3.25,-2.546 -5.45,-3.406 -9.1,-3.406 -3.96,0 -7.05,1.11 -10.21,3.656 -4.94,4 -7.25,9.047 -7.25,15.797 0,5.11 1.46,9.36 4.41,12.61 3.09,3.5 7.7,5.547 12.5,5.547 4.2,0 7.15,-1.297 10.4,-4.547 l 1.85,4.5 h 2.11 v -11 c 0,-2.547 0,-2.657 0.29,-3.11 0.46,-0.547 1.35,-0.687 4.21,-0.687 h 0.75 v -2.36 h -15.91 v 2.36 h 0.95 c 4.21,0 4.55,0.25 4.55,3.047 0,2.14 -0.34,4.093 -1,5.297 -1.25,2.453 -4.45,4.156 -7.7,4.156 -3.25,0 -6.45,-1.656 -8.16,-4.156 -1.84,-2.797 -2.64,-6.297 -2.64,-11.657 0,-11.14 3.7,-17.093 10.64,-17.093 5.71,0 9.66,4.093 11.71,12.093 h 2.15 l -0.7,-14.047"
         id="path158" />
      <path
         class="StaffText"
         d="m 1362.86,325.289 h -29.75 v 2.36 h 0.89 c 2.86,0.046 3.81,0.203 4.2,0.703 0.3,0.437 0.3,0.547 0.3,3.093 v 23.797 c 0,2.563 0,2.657 -0.3,3.11 -0.39,0.5 -1.34,0.703 -4.2,0.703 h -0.89 v 2.344 h 17.14 v -2.344 h -1.64 c -2.86,0 -3.8,-0.203 -4.2,-0.703 -0.3,-0.453 -0.3,-0.61 -0.3,-3.11 v -11.343 h 1 c 5.14,-0.204 7,1.656 7.2,7.203 h 2.35 v -16.407 h -2.35 c -0.31,4.907 -2.25,6.797 -7,6.86 h -1.2 v -11.406 c -0.05,-2.11 0.45,-2.454 3.14,-2.5 h 2.31 c 8.21,-0.047 10.25,1.796 11.8,10.406 h 2.2 l -0.7,-12.766"
         id="path159" />
      <path
         class="StaffText"
         d="m 1276.45,325.289 h -30.05 v 2.36 h 0.89 c 2.86,0.046 3.82,0.203 4.21,0.703 0.29,0.437 0.29,0.547 0.29,3.093 v 23.797 c 0,2.563 0,2.657 -0.29,3.11 -0.39,0.5 -1.35,0.703 -4.21,0.703 h -0.89 v 2.344 h 30.71 l 1,-13.344 h -2.21 c -1.9,8.89 -3.95,10.797 -11.61,11 H 1261 c -3,-0.11 -3.75,-0.61 -3.6,-2.406 v -12.75 h 1 c 5.14,-0.204 7,1.656 7.21,7.203 h 2.34 v -16.407 h -2.34 c -0.32,4.907 -2.25,6.86 -7,6.86 h -1.21 v -11.406 c -0.04,-2.11 0.46,-2.454 3.14,-2.5 h 2.61 c 8.21,-0.047 10.25,1.75 11.85,10.406 h 2.15 l -0.7,-12.766"
         id="path162" />
      <path
         class="StaffText"
         d="m 1170.02,325.289 h -29.75 v 2.36 h 0.89 c 2.86,0.046 3.81,0.203 4.2,0.703 0.3,0.437 0.3,0.547 0.3,3.093 v 23.797 c 0,2.563 0,2.657 -0.3,3.11 -0.39,0.5 -1.34,0.703 -4.2,0.703 h -0.89 v 2.344 h 17.14 v -2.344 h -1.64 c -2.86,0 -3.8,-0.203 -4.21,-0.703 -0.29,-0.453 -0.29,-0.61 -0.29,-3.11 v -11.343 h 1 c 5.14,-0.204 7,1.656 7.2,7.203 h 2.34 v -16.407 h -2.34 c -0.31,4.907 -2.25,6.797 -7,6.86 h -1.2 v -11.406 c -0.05,-2.11 0.45,-2.454 3.14,-2.5 h 2.31 c 8.2,-0.047 10.25,1.796 11.8,10.406 h 2.2 l -0.7,-12.766"
         id="path163" />
      <path
         class="StaffText"
         d="m 652.741,323.945 h -1.89 l -1.954,3 c -3.25,-2.546 -5.453,-3.406 -9.109,-3.406 -3.953,0 -7.047,1.11 -10.203,3.656 -4.938,4 -7.25,9.047 -7.25,15.797 0,5.11 1.453,9.36 4.406,12.61 3.094,3.5 7.703,5.547 12.5,5.547 4.203,0 7.156,-1.297 10.406,-4.547 l 1.844,4.5 h 2.11 v -11 c 0,-2.547 0,-2.657 0.296,-3.11 0.454,-0.547 1.344,-0.687 4.204,-0.687 h 0.75 v -2.36 h -15.907 v 2.36 h 0.953 c 4.204,0 4.547,0.25 4.547,3.047 0,2.14 -0.343,4.093 -1,5.297 -1.25,2.453 -4.453,4.156 -7.703,4.156 -3.25,0 -6.453,-1.656 -8.156,-4.156 -1.844,-2.797 -2.641,-6.297 -2.641,-11.657 0,-11.14 3.703,-17.093 10.641,-17.093 5.703,0 9.656,4.093 11.703,12.093 h 2.156 l -0.703,-14.047"
         id="path164" />
      <path
         class="StaffText"
         d="m 1108.63,324.945 h -1.89 l -1.95,3 c -3.25,-2.546 -5.45,-3.406 -9.11,-3.406 -3.95,0 -7.05,1.11 -10.2,3.656 -4.94,4 -7.25,9.047 -7.25,15.797 0,5.11 1.45,9.36 4.4,12.61 3.1,3.5 7.71,5.547 12.5,5.547 4.21,0 7.16,-1.297 10.41,-4.547 l 1.84,4.5 h 2.11 v -11 c 0,-2.547 0,-2.657 0.3,-3.11 0.45,-0.547 1.34,-0.687 4.2,-0.687 h 0.75 v -2.36 h -15.9 v 2.36 h 0.95 c 4.2,0 4.55,0.25 4.55,3.047 0,2.14 -0.35,4.093 -1,5.297 -1.25,2.453 -4.46,4.156 -7.71,4.156 -3.25,0 -6.45,-1.656 -8.15,-4.156 -1.85,-2.797 -2.64,-6.297 -2.64,-11.657 0,-11.14 3.7,-17.093 10.64,-17.093 5.7,0 9.65,4.093 11.7,12.093 h 2.16 l -0.71,-14.047"
         id="path165" />
      <path
         class="StaffText"
         d="m 2283.69,323.945 h -1.89 l -1.95,3 c -3.25,-2.546 -5.46,-3.406 -9.11,-3.406 -3.95,0 -7.05,1.11 -10.2,3.656 -4.94,4 -7.25,9.047 -7.25,15.797 0,5.11 1.45,9.36 4.4,12.61 3.1,3.5 7.7,5.547 12.5,5.547 4.2,0 7.16,-1.297 10.41,-4.547 l 1.84,4.5 h 2.11 v -11 c 0,-2.547 0,-2.657 0.3,-3.11 0.45,-0.547 1.34,-0.687 4.2,-0.687 h 0.75 v -2.36 h -15.91 v 2.36 h 0.96 c 4.2,0 4.54,0.25 4.54,3.047 0,2.14 -0.34,4.093 -1,5.297 -1.25,2.453 -4.45,4.156 -7.7,4.156 -3.25,0 -6.45,-1.656 -8.15,-4.156 -1.85,-2.797 -2.65,-6.297 -2.65,-11.657 0,-11.14 3.71,-17.093 10.65,-17.093 5.7,0 9.65,4.093 11.7,12.093 h 2.15 l -0.7,-14.047"
         id="path168" />
      <path
         class="StaffText"
         d="m 566.034,323.945 h -1.891 l -1.953,3 c -3.25,-2.546 -5.453,-3.406 -9.11,-3.406 -3.953,0 -7.046,1.11 -10.203,3.656 -4.937,4 -7.25,9.047 -7.25,15.797 0,5.11 1.453,9.36 4.407,12.61 3.093,3.5 7.703,5.547 12.5,5.547 4.203,0 7.156,-1.297 10.406,-4.547 l 1.844,4.5 h 2.109 v -11 c 0,-2.547 0,-2.657 0.297,-3.11 0.453,-0.547 1.344,-0.687 4.203,-0.687 h 0.75 v -2.36 h -15.906 v 2.36 h 0.953 c 4.203,0 4.547,0.25 4.547,3.047 0,2.14 -0.344,4.093 -1,5.297 -1.25,2.453 -4.453,4.156 -7.703,4.156 -3.25,0 -6.454,-1.656 -8.157,-4.156 -1.843,-2.797 -2.64,-6.297 -2.64,-11.657 0,-11.14 3.703,-17.093 10.64,-17.093 5.703,0 9.657,4.093 11.703,12.093 h 2.157 l -0.703,-14.047"
         id="path169" />
      <path
         class="StaffText"
         d="m 765.559,318.402 h -2.109 l -11.5,29.14 c -1.344,3.907 -2.641,5.11 -5.5,5.313 h -0.203 v 2.344 h 13.25 v -2.344 h -1 c -2.688,0 -4.047,-0.953 -4.047,-2.86 0,-0.64 0.156,-1.25 0.453,-2.093 l 1.656,-4.407 h 13.25 l 2.703,6.704 c 0.297,0.796 0.391,1.093 0.391,1.343 0,0.813 -1.25,1.313 -3.094,1.313 H 767.7 v 2.344 h 15.5 v -2.344 h -0.688 c -2.609,-0.063 -3.062,-0.36 -4.203,-3.203 l -12.75,-31.25 m -2.453,8.187 5.641,14.203 h -11.188 l 5.547,-14.203"
         id="path170" />
      <path
         class="StaffText"
         d="m 2407.1,325.289 h -30.04 v 2.36 h 0.89 c 2.86,0.046 3.81,0.203 4.2,0.703 0.3,0.437 0.3,0.547 0.3,3.093 v 23.797 c 0,2.563 0,2.657 -0.3,3.11 -0.39,0.5 -1.34,0.703 -4.2,0.703 h -0.89 v 2.344 h 30.7 l 1,-13.344 h -2.2 c -1.91,8.89 -3.96,10.797 -11.61,11 h -3.3 c -3,-0.11 -3.75,-0.61 -3.59,-2.406 v -12.75 h 1 c 5.14,-0.204 7,1.656 7.2,7.203 h 2.34 v -16.407 h -2.34 c -0.31,4.907 -2.25,6.86 -7,6.86 h -1.2 v -11.406 c -0.05,-2.11 0.45,-2.454 3.14,-2.5 h 2.61 c 8.2,-0.047 10.25,1.75 11.84,10.406 h 2.16 l -0.71,-12.766"
         id="path172" />
      <path
         class="StaffText"
         d="m 2196.98,325.289 h -30.04 v 2.36 h 0.89 c 2.86,0.046 3.81,0.203 4.2,0.703 0.3,0.437 0.3,0.547 0.3,3.093 v 23.797 c 0,2.563 0,2.657 -0.3,3.11 -0.39,0.5 -1.34,0.703 -4.2,0.703 h -0.89 v 2.344 h 30.7 l 1,-13.344 h -2.2 c -1.91,8.89 -3.96,10.797 -11.61,11 h -3.3 c -3,-0.11 -3.75,-0.61 -3.59,-2.406 v -12.75 h 1 c 5.14,-0.204 7,1.656 7.2,7.203 h 2.34 v -16.407 h -2.34 c -0.31,4.907 -2.25,6.86 -7,6.86 h -1.2 v -11.406 c -0.05,-2.11 0.45,-2.454 3.14,-2.5 h 2.61 c 8.2,-0.047 10.25,1.75 11.84,10.406 h 2.16 l -0.71,-12.766"
         id="path173" />
      <path
         class="StaffText"
         d="m 2493.81,325.289 h -30.05 v 2.36 h 0.89 c 2.86,0.046 3.82,0.203 4.21,0.703 0.29,0.437 0.29,0.547 0.29,3.093 v 23.797 c 0,2.563 0,2.657 -0.29,3.11 -0.39,0.5 -1.35,0.703 -4.21,0.703 h -0.89 v 2.344 h 30.71 l 1,-13.344 h -2.21 c -1.9,8.89 -3.95,10.797 -11.61,11 h -3.29 c -3,-0.11 -3.75,-0.61 -3.6,-2.406 v -12.75 h 1 c 5.14,-0.204 7,1.656 7.21,7.203 h 2.34 v -16.407 h -2.34 c -0.32,4.907 -2.25,6.86 -7,6.86 h -1.21 v -11.406 c -0.04,-2.11 0.46,-2.454 3.14,-2.5 h 2.61 c 8.21,-0.047 10.25,1.75 11.85,10.406 h 2.15 l -0.7,-12.766"
         id="path175" />
      <path
         class="StaffText"
         d="m 2029.17,324.945 h -1.89 l -1.96,3 c -3.25,-2.546 -5.45,-3.406 -9.11,-3.406 -3.95,0 -7.04,1.11 -10.2,3.656 -4.94,4 -7.25,9.047 -7.25,15.797 0,5.11 1.45,9.36 4.41,12.61 3.09,3.5 7.7,5.547 12.5,5.547 4.2,0 7.15,-1.297 10.4,-4.547 l 1.85,4.5 h 2.11 v -11 c 0,-2.547 0,-2.657 0.29,-3.11 0.46,-0.547 1.35,-0.687 4.21,-0.687 h 0.75 v -2.36 h -15.91 v 2.36 h 0.95 c 4.21,0 4.55,0.25 4.55,3.047 0,2.14 -0.34,4.093 -1,5.297 -1.25,2.453 -4.45,4.156 -7.7,4.156 -3.25,0 -6.46,-1.656 -8.16,-4.156 -1.84,-2.797 -2.64,-6.297 -2.64,-11.657 0,-11.14 3.7,-17.093 10.64,-17.093 5.7,0 9.66,4.093 11.7,12.093 h 2.16 l -0.7,-14.047"
         id="path176" />
      <path
         class="StaffText"
         d="m 1906.81,324.945 h -1.89 l -1.96,3 c -3.25,-2.546 -5.45,-3.406 -9.11,-3.406 -3.95,0 -7.04,1.11 -10.2,3.656 -4.94,4 -7.25,9.047 -7.25,15.797 0,5.11 1.45,9.36 4.41,12.61 3.09,3.5 7.7,5.547 12.5,5.547 4.2,0 7.15,-1.297 10.4,-4.547 l 1.85,4.5 h 2.11 v -11 c 0,-2.547 0,-2.657 0.29,-3.11 0.46,-0.547 1.35,-0.687 4.21,-0.687 h 0.75 v -2.36 h -15.91 v 2.36 h 0.95 c 4.21,0 4.55,0.25 4.55,3.047 0,2.14 -0.34,4.093 -1,5.297 -1.25,2.453 -4.45,4.156 -7.7,4.156 -3.25,0 -6.46,-1.656 -8.16,-4.156 -1.84,-2.797 -2.64,-6.297 -2.64,-11.657 0,-11.14 3.7,-17.093 10.64,-17.093 5.7,0 9.66,4.093 11.7,12.093 h 2.16 l -0.7,-14.047"
         id="path177" />
      <path
         class="StaffText"
         d="m 1957.39,324.572 h -2.11 l -11.5,29.141 c -1.34,3.906 -2.64,5.109 -5.5,5.312 h -0.2 v 2.344 h 13.25 v -2.344 h -1 c -2.69,0 -4.05,-0.953 -4.05,-2.859 0,-0.641 0.16,-1.25 0.46,-2.094 l 1.65,-4.406 h 13.25 l 2.71,6.703 c 0.29,0.797 0.39,1.094 0.39,1.344 0,0.812 -1.25,1.312 -3.1,1.312 h -2.11 v 2.344 h 15.5 v -2.344 h -0.68 c -2.61,-0.062 -3.07,-0.359 -4.21,-3.203 l -12.75,-31.25 m -2.45,8.188 5.64,14.203 h -11.19 l 5.55,-14.203"
         id="path178" />
    </g>
  </g>
  <metadata
     id="metadata299">
    <rdf:RDF>
      <cc:Work
         rdf:about="">
        <dc:title>19</dc:title>
      </cc:Work>
    </rdf:RDF>
  </metadata>
</svg>
