<?xml version="1.0" encoding="UTF-8" standalone="no"?>
<svg
   width="2555"
   height="700"
   viewBox="0 0 2555 700.00002"
   version="1.2"
   id="svg112"
   sodipodi:docname="27.svg"
   inkscape:version="1.3 (0e150ed6c4, 2023-07-21)"
   xmlns:inkscape="http://www.inkscape.org/namespaces/inkscape"
   xmlns:sodipodi="http://sodipodi.sourceforge.net/DTD/sodipodi-0.dtd"
   xmlns="http://www.w3.org/2000/svg"
   xmlns:svg="http://www.w3.org/2000/svg"
   xmlns:rdf="http://www.w3.org/1999/02/22-rdf-syntax-ns#"
   xmlns:cc="http://creativecommons.org/ns#"
   xmlns:dc="http://purl.org/dc/elements/1.1/">
  <defs
     id="defs112" />
  <sodipodi:namedview
     id="namedview112"
     pagecolor="#505050"
     bordercolor="#ffffff"
     borderopacity="1"
     inkscape:showpageshadow="0"
     inkscape:pageopacity="0"
     inkscape:pagecheckerboard="1"
     inkscape:deskcolor="#505050"
     inkscape:zoom="0.18605646"
     inkscape:cx="1486.108"
     inkscape:cy="2104.2"
     inkscape:window-width="1680"
     inkscape:window-height="979"
     inkscape:window-x="1358"
     inkscape:window-y="-8"
     inkscape:window-maximized="1"
     inkscape:current-layer="svg112" />
  <title
     id="title1">27</title>
  <desc
     id="desc1">Generated by MuseScore Studio 4.3.0</desc>
  <g
     id="g114"
     transform="translate(-211.099,-222.25805)">
    <g
       id="g112"
       transform="translate(0,-300.9839)">
      <polyline
         class="StaffLines"
         fill="none"
         stroke="#000000"
         stroke-width="2.73"
         stroke-linejoin="bevel"
         points="212.598,995.391 2764.6,995.391"
         id="polyline6" />
      <polyline
         class="StaffLines"
         fill="none"
         stroke="#000000"
         stroke-width="2.73"
         stroke-linejoin="bevel"
         points="212.598,1020.19 2764.6,1020.19"
         id="polyline7" />
      <polyline
         class="StaffLines"
         fill="none"
         stroke="#000000"
         stroke-width="2.73"
         stroke-linejoin="bevel"
         points="212.598,1044.99 2764.6,1044.99"
         id="polyline8" />
      <polyline
         class="StaffLines"
         fill="none"
         stroke="#000000"
         stroke-width="2.73"
         stroke-linejoin="bevel"
         points="212.598,1069.79 2764.6,1069.79"
         id="polyline9" />
      <polyline
         class="StaffLines"
         fill="none"
         stroke="#000000"
         stroke-width="2.73"
         stroke-linejoin="bevel"
         points="212.598,1094.59 2764.6,1094.59"
         id="polyline10" />
      <path
         class="MeasureNumber"
         d="m 229.958,917.479 h -1.157 c -2.203,1.64 -6.437,3.031 -9.328,3.031 l -0.468,1.766 h 2.75 c 2.437,0 2.718,0.078 2.718,0.796 0,0.36 0,0.36 -0.39,1.797 l -4.282,16 c -0.531,2 -0.562,2.125 -0.921,2.485 -0.407,0.39 -1.25,0.515 -3.36,0.562 h -1.719 l -0.203,1.875 h 14.797 l 0.235,-1.875 h -2.157 c -2.593,0 -3.156,-0.203 -3.156,-1.078 0,-0.281 0.156,-1.203 0.359,-1.969 l 6.282,-23.39 m 21.031,20.031 -1.031,1.844 c -1.61,2.765 -1.922,3 -3.969,3.031 h -9.266 c 0.953,-1.266 2.719,-2.75 5.907,-5 5.281,-3.625 5.64,-3.875 6.765,-4.75 3.203,-2.484 4.516,-4.844 4.516,-8 0,-4.203 -3.11,-7 -7.719,-7 -5.109,0 -9.547,3.766 -9.547,8.125 0,2.234 1.188,3.672 3.11,3.672 1.437,0 2.562,-1.078 2.562,-2.563 0,-1.031 -0.516,-1.718 -1.844,-2.437 -0.953,-0.485 -1.109,-0.672 -1.109,-1.156 0,-1.719 2.953,-3.641 5.672,-3.641 2.797,0 4.687,1.875 4.687,4.687 0,2.985 -1.328,5.188 -4.922,8.313 -10.64,9.234 -12.25,10.922 -12.609,13.156 h 17.156 l 3.094,-7.719 -1.453,-0.562"
         id="path10" />
      <polyline
         class="BarLine"
         fill="none"
         stroke="#000000"
         stroke-width="4.46"
         stroke-linejoin="bevel"
         points="1336.17,994.027 1336.17,1095.96"
         id="polyline12" />
      <polyline
         class="BarLine"
         fill="none"
         stroke="#000000"
         stroke-width="4.46"
         stroke-linejoin="bevel"
         points="2350.14,994.027 2350.14,1095.96"
         id="polyline13" />
      <polyline
         class="BarLine"
         fill="none"
         stroke="#000000"
         stroke-width="4.46"
         stroke-linejoin="bevel"
         points="1843.16,994.027 1843.16,1095.96"
         id="polyline14" />
      <polyline
         class="BarLine"
         fill="none"
         stroke="#000000"
         stroke-width="4.46"
         stroke-linejoin="bevel"
         points="829.19,994.027 829.19,1095.96"
         id="polyline15" />
      <polyline
         class="BarLine"
         fill="none"
         stroke="#000000"
         stroke-width="4.46"
         stroke-linejoin="bevel"
         points="2739.55,994.027 2739.55,1095.96"
         id="polyline25" />
      <polyline
         class="BarLine"
         fill="none"
         stroke="#000000"
         stroke-width="13.64"
         stroke-linejoin="bevel"
         points="2757.78,994.027 2757.78,1095.96"
         id="polyline26" />
      <polyline
         class="LedgerLine"
         fill="none"
         stroke="#000000"
         stroke-width="3.97"
         stroke-linejoin="bevel"
         points="2376.43,1119.39 2425.03,1119.39"
         id="polyline28" />
      <polyline
         class="Stem"
         fill="none"
         stroke="#000000"
         stroke-width="2.48"
         stroke-linejoin="bevel"
         points="894.655,1078.22 894.655,995.391"
         id="polyline30" />
      <polyline
         class="Stem"
         fill="none"
         stroke="#000000"
         stroke-width="2.48"
         stroke-linejoin="bevel"
         points="1401.64,1090.62 1401.64,1007.79"
         id="polyline31" />
      <polyline
         class="Stem"
         fill="none"
         stroke="#000000"
         stroke-width="2.48"
         stroke-linejoin="bevel"
         points="1908.62,1103.02 1908.62,1020.19"
         id="polyline34" />
      <polyline
         class="Stem"
         fill="none"
         stroke="#000000"
         stroke-width="2.48"
         stroke-linejoin="bevel"
         points="2415.61,1115.42 2415.61,1032.59"
         id="polyline35" />
      <polyline
         class="Stem"
         fill="none"
         stroke="#000000"
         stroke-width="2.48"
         stroke-linejoin="bevel"
         points="387.671,1065.82 387.671,982.991"
         id="polyline45" />
      <path
         class="Note"
         transform="matrix(0.992001,0,0,0.992001,2384.61,1119.39)"
         d="M 21.2969,-13.2031 C 11.5938,-13.2031 0,-5.09375 0,4.20313 0,8.5 3.09375,13.2969 11.2031,13.2969 21.5938,13.2969 32.5,4.79688 32.5,-4 c 0,-5.90625 -5,-9.2031 -11.2031,-9.2031 M 7.5,8.59375 C 4.20313,8.59375 3.5,5.90625 3.5,5 3.5,0.09375 20.2969,-8.5 25,-8.5 c 2.4063,0 4,1.40625 4,3.59375 0,5 -16.9062,13.5 -21.5,13.5"
         id="path46" />
      <path
         class="Note"
         transform="matrix(0.992001,0,0,0.992001,863.662,1082.19)"
         d="M 0,4.20313 C 0,8.5 3.09375,13.2969 11.2031,13.2969 21.5938,13.2969 32.5,4.79688 32.5,-4 c 0,-5.90625 -5,-9.2031 -11.2031,-9.2031 C 11.5938,-13.2031 0,-5 0,4.20313"
         id="path51" />
      <path
         class="Note"
         transform="matrix(0.992001,0,0,0.992001,356.679,1069.79)"
         d="M 0,4.20313 C 0,8.5 3.09375,13.2969 11.2031,13.2969 21.5938,13.2969 32.5,4.79688 32.5,-4 c 0,-5.90625 -5,-9.2031 -11.2031,-9.2031 C 11.5938,-13.2031 0,-5 0,4.20313"
         id="path55" />
      <path
         class="Note"
         transform="matrix(0.992001,0,0,0.992001,1370.65,1094.59)"
         d="M 0,4.20313 C 0,8.5 3.09375,13.2969 11.2031,13.2969 21.5938,13.2969 32.5,4.79688 32.5,-4 c 0,-5.90625 -5,-9.2031 -11.2031,-9.2031 C 11.5938,-13.2031 0,-5 0,4.20313"
         id="path57" />
      <path
         class="Note"
         transform="matrix(0.992001,0,0,0.992001,1877.63,1106.99)"
         d="M 0,4.20313 C 0,8.5 3.09375,13.2969 11.2031,13.2969 21.5938,13.2969 32.5,4.79688 32.5,-4 c 0,-5.90625 -5,-9.2031 -11.2031,-9.2031 C 11.5938,-13.2031 0,-5 0,4.20313"
         id="path58" />
      <path
         class="Clef"
         transform="matrix(0.992001,0,0,0.992001,231.198,1069.79)"
         d="m 12.2969,51.2969 c 0,6.6094 5,15.3125 18.5,15.3125 4.7031,0 8.8125,-1.2031 12.4062,-3.4063 C 48.6094,59.4063 50,52.7969 50,46.5 c 0,-3.8906 -0.5937,-8.3906 -1.5937,-14.0937 -0.2969,-2 -0.9063,-5 -1.5,-8.9063 C 56.7031,20.2969 64,10.0938 64,-0.203125 64,-15.2969 53.2969,-25.5 38.7031,-25.5 c -1,-6 -2,-11.9063 -2.7968,-17.5 10.5,-11.1094 17.7968,-23.6094 17.7968,-39.5 0,-9.1094 -2.7968,-16.5 -4.4062,-20.109 -2.3906,-5.094 -5.2969,-8.594 -7.0938,-8.594 -0.7031,0 -3.7968,1.203 -7.0937,5.094 -6.4063,7.609 -8.2031,20.4059 -8.2031,28.7965 0,5.4062 0.5,10.3125 2.2031,21.5156 -0.1094,0.0938 -5.3125,5.3906 -7.4063,7.0938 C 12.5938,-40.2969 0,-28.1094 0,-8.09375 0,10.5938 16.2969,25.2969 34.9063,25.2969 c 2.8906,0 5.5937,-0.2969 7.8906,-0.7031 1.9062,9.6093 3.1094,16.6093 3.1094,21.9062 0,10.4063 -5.4063,15.9063 -15.5,15.9063 -2.4063,0 -4.5,-0.5 -4.7032,-0.5 -0.0937,-0.1094 -0.2968,-0.2032 -0.2968,-0.2969 0,-0.2031 0.2031,-0.3125 0.5,-0.3125 C 30.6094,60.5 35.2969,56.5 35.2969,50.1094 35.2969,44.7031 31.2031,39 23.7031,39 c -7,0 -11.4062,5.7031 -11.4062,12.2969 m 20.9062,-133.5 c 0.9063,-4 5.5,-14.5 10.7032,-14.5 1.5,0 3.8906,4.7968 3.8906,11.7968 0,10.4063 -7.6875,18.2032 -14.5938,25 -0.5937,-4 -1.0937,-7.8906 -1.0937,-12.0937 0,-3.7031 0.2969,-7.1094 1.0937,-10.2031 M 42,20.5938 c -2,0.4062 -3.8906,0.6093 -5.7969,0.6093 -14.2968,0 -26.49997,-10 -26.49997,-25.10935 0,-12.18755 8.59377,-23.09375 17.40627,-30.70315 1.6875,-1.5 3.2969,-2.8906 4.7969,-4.3906 0.8906,5.3906 1.5937,10.0937 2.2968,14.2031 -9.1093,2.7031 -15.2968,12.2969 -15.2968,21.70315 0,7 5.5,16.59375 13.5,16.59375 0.7968,0 1.7031,-0.4062 1.7031,-1.2969 0,-0.9062 -1,-1.4062 -2.2031,-2.2031 C 28,7.59375 25.7969,5 25.7969,0.09375 25.7969,-6 30.4063,-10.9063 36.2031,-12.2969 L 42,20.5938 M 56.2031,2.09375 c 0,7.10938 -2.9062,14.40625 -10,17.31255 -2.0937,-12.00005 -4.7968,-27.9063 -5.5,-32.3126 9,0 15.5,6.10942 15.5,15.00005"
         id="path62" />
      <path
         class="Rest"
         transform="matrix(0.992001,0,0,0.992001,591.819,1044.99)"
         d="M 23,16.5938 C 22.9063,16.5 22.7031,16.2969 22.4063,15.9063 L 10.9063,1.70313 C 10.7969,1.59375 10.7031,1.29688 10.7031,1.09375 c 0,-0.296875 0.0938,-0.6875 0.2032,-0.890625 L 21.0938,-15.2031 c 0.1093,-0.2032 0.2031,-0.5 0.2031,-0.7032 v -0.8906 c 0,-0.2969 -0.0938,-0.6094 -0.2969,-0.7969 L 4.79688,-39.5 c 0,0 -0.39063,-0.6094 -1,-0.6094 -0.29688,0 -0.5,0 -0.79688,0.3125 -0.40625,0.2969 -0.5,0.6875 -0.5,1 0,0.5938 0.29688,1.0938 0.29688,1.0938 l 7.60942,10.4062 c 0.1875,0.2969 0.2968,0.6875 0.2968,1.1875 0,0.4063 -0.1093,0.9063 -0.2968,1.2031 L 0.296875,-9.5 C 0.203125,-9.29688 0.09375,-8.90625 0.09375,-8.70313 v 0.90625 C 0.09375,-7.5 0.203125,-7.20313 0.40625,-7 L 11.5938,6.90625 C 11.2031,6.79688 10.2969,6.59375 9.09375,6.59375 4,6.59375 0,10.7969 0,15.9063 0,17.2969 0.296875,18.7031 1.09375,19.7969 3.20313,23 10.7031,32.5 10.7031,32.5 c 0,0 0.5,0.6094 1.2032,0.6094 0.1875,0 0.3906,0 0.5937,-0.2031 C 13,32.5 13.2031,32.1094 13.2031,31.7031 13.2031,31.2969 13,31 12.9063,30.7969 12.5938,30.2969 9.40625,24.5 9.40625,24.5 c 0,0 -0.70312,-1.4062 -0.70312,-3.2031 0,-3.2031 2.39067,-5.7969 5.59377,-5.7969 1.2969,0 2.4062,0.4063 3.2031,0.9063 l 3.9063,2.5 c 0,0 0.3906,0.1875 0.7968,0.1875 0.3907,0 0.7032,-0.0938 1,-0.5 C 23.4063,18.2969 23.5,18 23.5,17.7031 c 0,-0.2968 -0.0937,-0.5 -0.2969,-0.7968 L 23,16.5938"
         id="path70" />
      <path
         class="Rest"
         transform="matrix(0.992001,0,0,0.992001,1098.8,1044.99)"
         d="M 23,16.5938 C 22.9063,16.5 22.7031,16.2969 22.4063,15.9063 L 10.9063,1.70313 C 10.7969,1.59375 10.7031,1.29688 10.7031,1.09375 c 0,-0.296875 0.0938,-0.6875 0.2032,-0.890625 L 21.0938,-15.2031 c 0.1093,-0.2032 0.2031,-0.5 0.2031,-0.7032 v -0.8906 c 0,-0.2969 -0.0938,-0.6094 -0.2969,-0.7969 L 4.79688,-39.5 c 0,0 -0.39063,-0.6094 -1,-0.6094 -0.29688,0 -0.5,0 -0.79688,0.3125 -0.40625,0.2969 -0.5,0.6875 -0.5,1 0,0.5938 0.29688,1.0938 0.29688,1.0938 l 7.60942,10.4062 c 0.1875,0.2969 0.2968,0.6875 0.2968,1.1875 0,0.4063 -0.1093,0.9063 -0.2968,1.2031 L 0.296875,-9.5 C 0.203125,-9.29688 0.09375,-8.90625 0.09375,-8.70313 v 0.90625 C 0.09375,-7.5 0.203125,-7.20313 0.40625,-7 L 11.5938,6.90625 C 11.2031,6.79688 10.2969,6.59375 9.09375,6.59375 4,6.59375 0,10.7969 0,15.9063 0,17.2969 0.296875,18.7031 1.09375,19.7969 3.20313,23 10.7031,32.5 10.7031,32.5 c 0,0 0.5,0.6094 1.2032,0.6094 0.1875,0 0.3906,0 0.5937,-0.2031 C 13,32.5 13.2031,32.1094 13.2031,31.7031 13.2031,31.2969 13,31 12.9063,30.7969 12.5938,30.2969 9.40625,24.5 9.40625,24.5 c 0,0 -0.70312,-1.4062 -0.70312,-3.2031 0,-3.2031 2.39067,-5.7969 5.59377,-5.7969 1.2969,0 2.4062,0.4063 3.2031,0.9063 l 3.9063,2.5 c 0,0 0.3906,0.1875 0.7968,0.1875 0.3907,0 0.7032,-0.0938 1,-0.5 C 23.4063,18.2969 23.5,18 23.5,17.7031 c 0,-0.2968 -0.0937,-0.5 -0.2969,-0.7968 L 23,16.5938"
         id="path71" />
      <path
         class="Rest"
         transform="matrix(0.992001,0,0,0.992001,1605.79,1044.99)"
         d="M 23,16.5938 C 22.9063,16.5 22.7031,16.2969 22.4063,15.9063 L 10.9063,1.70313 C 10.7969,1.59375 10.7031,1.29688 10.7031,1.09375 c 0,-0.296875 0.0938,-0.6875 0.2032,-0.890625 L 21.0938,-15.2031 c 0.1093,-0.2032 0.2031,-0.5 0.2031,-0.7032 v -0.8906 c 0,-0.2969 -0.0938,-0.6094 -0.2969,-0.7969 L 4.79688,-39.5 c 0,0 -0.39063,-0.6094 -1,-0.6094 -0.29688,0 -0.5,0 -0.79688,0.3125 -0.40625,0.2969 -0.5,0.6875 -0.5,1 0,0.5938 0.29688,1.0938 0.29688,1.0938 l 7.60942,10.4062 c 0.1875,0.2969 0.2968,0.6875 0.2968,1.1875 0,0.4063 -0.1093,0.9063 -0.2968,1.2031 L 0.296875,-9.5 C 0.203125,-9.29688 0.09375,-8.90625 0.09375,-8.70313 v 0.90625 C 0.09375,-7.5 0.203125,-7.20313 0.40625,-7 L 11.5938,6.90625 C 11.2031,6.79688 10.2969,6.59375 9.09375,6.59375 4,6.59375 0,10.7969 0,15.9063 0,17.2969 0.296875,18.7031 1.09375,19.7969 3.20313,23 10.7031,32.5 10.7031,32.5 c 0,0 0.5,0.6094 1.2032,0.6094 0.1875,0 0.3906,0 0.5937,-0.2031 C 13,32.5 13.2031,32.1094 13.2031,31.7031 13.2031,31.2969 13,31 12.9063,30.7969 12.5938,30.2969 9.40625,24.5 9.40625,24.5 c 0,0 -0.70312,-1.4062 -0.70312,-3.2031 0,-3.2031 2.39067,-5.7969 5.59377,-5.7969 1.2969,0 2.4062,0.4063 3.2031,0.9063 l 3.9063,2.5 c 0,0 0.3906,0.1875 0.7968,0.1875 0.3907,0 0.7032,-0.0938 1,-0.5 C 23.4063,18.2969 23.5,18 23.5,17.7031 c 0,-0.2968 -0.0937,-0.5 -0.2969,-0.7968 L 23,16.5938"
         id="path74" />
      <path
         class="Rest"
         transform="matrix(0.992001,0,0,0.992001,2112.77,1044.99)"
         d="M 23,16.5938 C 22.9063,16.5 22.7031,16.2969 22.4063,15.9063 L 10.9063,1.70313 C 10.7969,1.59375 10.7031,1.29688 10.7031,1.09375 c 0,-0.296875 0.0938,-0.6875 0.2032,-0.890625 L 21.0938,-15.2031 c 0.1093,-0.2032 0.2031,-0.5 0.2031,-0.7032 v -0.8906 c 0,-0.2969 -0.0938,-0.6094 -0.2969,-0.7969 L 4.79688,-39.5 c 0,0 -0.39063,-0.6094 -1,-0.6094 -0.29688,0 -0.5,0 -0.79688,0.3125 -0.40625,0.2969 -0.5,0.6875 -0.5,1 0,0.5938 0.29688,1.0938 0.29688,1.0938 l 7.60942,10.4062 c 0.1875,0.2969 0.2968,0.6875 0.2968,1.1875 0,0.4063 -0.1093,0.9063 -0.2968,1.2031 L 0.296875,-9.5 C 0.203125,-9.29688 0.09375,-8.90625 0.09375,-8.70313 v 0.90625 C 0.09375,-7.5 0.203125,-7.20313 0.40625,-7 L 11.5938,6.90625 C 11.2031,6.79688 10.2969,6.59375 9.09375,6.59375 4,6.59375 0,10.7969 0,15.9063 0,17.2969 0.296875,18.7031 1.09375,19.7969 3.20313,23 10.7031,32.5 10.7031,32.5 c 0,0 0.5,0.6094 1.2032,0.6094 0.1875,0 0.3906,0 0.5937,-0.2031 C 13,32.5 13.2031,32.1094 13.2031,31.7031 13.2031,31.2969 13,31 12.9063,30.7969 12.5938,30.2969 9.40625,24.5 9.40625,24.5 c 0,0 -0.70312,-1.4062 -0.70312,-3.2031 0,-3.2031 2.39067,-5.7969 5.59377,-5.7969 1.2969,0 2.4062,0.4063 3.2031,0.9063 l 3.9063,2.5 c 0,0 0.3906,0.1875 0.7968,0.1875 0.3907,0 0.7032,-0.0938 1,-0.5 C 23.4063,18.2969 23.5,18 23.5,17.7031 c 0,-0.2968 -0.0937,-0.5 -0.2969,-0.7968 L 23,16.5938"
         id="path76" />
      <path
         class="Lyrics"
         d="m 867.325,1171.29 v -2.86 c 0,-2.5 0.157,-4.14 0.547,-5.14 0.813,-2.21 2.563,-3.57 4.563,-3.57 1.047,0 1.687,0.32 1.687,0.86 0,0.21 0,0.25 -0.297,0.64 -0.297,0.46 -0.453,1.07 -0.453,1.61 0,1.5 1.203,2.64 2.75,2.64 1.656,0 2.813,-1.25 2.813,-3.04 0,-2.89 -2.5,-4.71 -6.563,-4.71 -3.437,0 -6,1.21 -7.75,3.71 -1.5,2.11 -2,4.25 -2,8.31 v 1.55 h -4.39 v 2.14 h 4.39 v 17.36 c -0.047,0.7 -0.094,1 -0.297,1.29 -0.343,0.46 -1.297,0.66 -3.453,0.71 h -0.187 v 1.79 h 13.343 v -1.79 h -0.906 c -3.344,-0.11 -3.797,-0.36 -3.797,-2.16 v -17.2 h 5.5 v -2.14 h -5.5 m 28.547,7.2 c 0,-3.16 -0.547,-4.75 -2,-5.95 -1.64,-1.36 -4.094,-2 -7.297,-2 -5.64,0 -9.75,2.64 -9.75,6.29 0,1.85 1.157,3.05 2.907,3.05 1.593,0 2.703,-1.05 2.703,-2.55 0,-0.65 -0.25,-1.34 -0.75,-2.04 -0.313,-0.36 -0.36,-0.46 -0.36,-0.71 0,-1 2,-1.9 4.407,-1.9 1.593,0 3.343,0.5 4.14,1.25 0.953,0.81 1.313,2 1.313,4.25 v 1.95 c -5.203,0.91 -6.86,1.3 -9.313,2.25 -4.344,1.61 -6.39,3.91 -6.39,7.11 0,3.59 2.796,5.84 7.25,5.84 3.453,0 6.546,-1.4 8.703,-3.95 0.797,2.55 2.047,3.55 4.39,3.55 2.25,0 4.61,-1.44 4.61,-2.89 0,-0.36 -0.203,-0.61 -0.5,-0.61 -0.203,0 -0.407,0.06 -0.75,0.2 -0.703,0.3 -1,0.36 -1.407,0.36 -1.406,0 -1.906,-0.91 -1.906,-3.45 v -10.05 m -4.687,6.09 c 0,3 -0.157,3.71 -1,5 -1.25,1.85 -3.5,3.1 -5.703,3.1 -2.297,0 -3.954,-1.64 -3.954,-3.89 0,-2.11 1.047,-3.61 3.25,-4.66 1.547,-0.7 3.5,-1.2 7.407,-1.84 v 2.29"
         id="path79" />
      <path
         class="Lyrics"
         d="m 359.795,1170.74 h -1.75 l -1.453,1.8 c -1.797,-1.41 -3.594,-2 -6.094,-2 -4.406,0 -7.297,2.84 -7.297,7.25 0,4.7 3.047,5.89 7.047,6.84 l 2.641,0.61 c 3.953,0.94 5.359,1.94 5.359,3.94 0,2.36 -2.047,4 -4.953,4 -4.25,0 -7.25,-2.69 -8.453,-7.69 h -2 v 9.44 h 1.75 l 1.75,-2.05 c 2.047,1.66 4.297,2.45 6.859,2.45 4.891,0 8.141,-3.04 8.141,-7.7 0,-2.2 -0.703,-3.89 -2.094,-5.05 -1.203,-1.04 -2.203,-1.45 -5.25,-2.09 l -2.5,-0.56 c -2.75,-0.6 -2.75,-0.6 -3.656,-1.1 -1.094,-0.5 -1.75,-1.54 -1.75,-2.65 0,-2.05 1.906,-3.44 4.656,-3.44 4.094,0 6.094,2.89 7.297,6.39 h 1.75 v -8.39 m 16.094,-0.2 c -6.141,0 -10.891,5.45 -10.891,12.45 0,6.84 4.797,12.34 10.797,12.34 6,0 10.797,-5.5 10.797,-12.4 0,-6.85 -4.797,-12.39 -10.703,-12.39 m 0,2.14 c 3.5,0 5.453,3.65 5.453,10.25 0,6.65 -1.953,10.25 -5.547,10.25 -3.594,0 -5.547,-3.6 -5.547,-10.19 0,-6.81 1.891,-10.31 5.641,-10.31 m 22.609,-14.96 -9.25,0.57 v 2.14 h 2.453 c 1.844,0.04 2.094,0.36 2.094,2.5 v 27.86 c -0.047,0.75 -0.094,1.04 -0.297,1.29 -0.359,0.46 -1.297,0.66 -3.453,0.71 h -0.344 v 1.79 h 12.938 v -1.79 h -0.344 c -3.344,-0.11 -3.797,-0.36 -3.797,-2.16 v -32.91"
         id="path80" />
      <path
         class="Lyrics"
         d="m 1366.81,1171.29 -8.89,0.54 v 2.16 h 2.05 c 1.89,0.05 2.14,0.34 2.14,2.5 v 14.3 c -0.05,0.75 -0.1,1.04 -0.3,1.29 -0.34,0.46 -1.3,0.66 -3.45,0.71 h -0.19 v 1.79 h 12.59 v -1.79 h -0.2 c -3.3,-0.11 -3.75,-0.36 -3.75,-2.21 v -9.25 c 0,-4.45 2.45,-7.75 5.7,-7.75 2.85,0 4.3,2.05 4.3,6.1 v 11.15 c -0.05,0.66 -0.09,1 -0.34,1.25 -0.3,0.46 -1.3,0.66 -3.46,0.71 h -0.2 v 1.79 h 12.66 v -1.79 h -0.21 c -3.29,-0.11 -3.75,-0.36 -3.75,-2.16 v -8.84 c 0,-5 2.25,-8.21 5.75,-8.21 2.86,0 4.25,2.16 4.25,6.66 v 10.55 c -0.04,0.7 -0.09,1.04 -0.34,1.29 -0.3,0.46 -1.3,0.66 -3.45,0.71 h -0.21 v 1.79 h 12.66 v -1.79 h -0.2 c -3.3,-0.11 -3.75,-0.36 -3.75,-2.21 v -11.34 c 0,-3.11 -0.3,-4.16 -1.6,-5.86 -1.45,-1.84 -3.5,-2.84 -5.9,-2.84 -3.25,0 -5.66,1.54 -7.8,5 -0.86,-3 -3.56,-5 -6.91,-5 -3.04,0 -5.25,1.45 -7.2,4.59 v -3.84 m 41.91,-12.46 c -1.61,0 -2.91,1.3 -2.91,2.89 0,1.61 1.3,2.91 2.86,2.91 1.64,0 2.94,-1.3 2.94,-2.91 0,-1.59 -1.3,-2.89 -2.89,-2.89 m 2.34,12.46 -9.39,0.54 v 2.16 h 2.55 c 1.89,0.05 2.14,0.34 2.14,2.5 v 14.3 c -0.05,0.75 -0.1,1.04 -0.3,1.29 -0.34,0.46 -1.3,0.66 -3.45,0.71 h -0.35 v 1.79 h 12.96 v -1.79 h -0.36 c -3.35,-0.11 -3.8,-0.36 -3.8,-2.16 v -19.34"
         id="path83" />
      <path
         class="Lyrics"
         d="m 1880.15,1171.29 -8.86,0.54 v 2.16 h 2.05 c 1.91,0.05 2.16,0.34 2.16,2.5 v 14.3 c -0.05,0.75 -0.1,1.04 -0.3,1.29 -0.36,0.46 -1.36,0.66 -3.5,0.71 h -0.2 v 1.79 h 13.34 v -1.79 h -0.89 c -3.36,-0.11 -3.8,-0.36 -3.8,-2.16 v -2.7 c 0.05,-8.39 3.05,-14.8 6.94,-15 -0.69,0.81 -0.89,1.31 -0.89,2.25 0,1.61 1.14,2.75 2.75,2.75 1.84,0 3.05,-1.35 3.05,-3.35 0,-2.45 -1.71,-4.04 -4.35,-4.04 -3.15,0 -5.86,2.5 -7.5,6.95 v -6.2 m 35.35,12.04 c 0.04,-7.5 -4.21,-12.79 -10.3,-12.79 -6.41,0 -11.2,5.54 -11.2,13.04 0,7.05 4.54,11.75 11.29,11.75 4.8,0 8.16,-2.34 10.21,-7.09 l -1.75,-0.95 c -2.05,3.84 -4.16,5.34 -7.5,5.34 -2.55,0 -4.41,-1.05 -5.71,-3.3 -0.89,-1.5 -1.29,-3.25 -1.25,-6 h 16.21 m -16.16,-2.15 c 0,-3.5 1.61,-8.5 5.81,-8.5 3,0 5,2.65 5,6.7 0,1.41 -0.45,1.8 -2.06,1.8 h -8.75"
         id="path87" />
      <path
         class="Lyrics"
         d="m 2392.23,1194.93 8.7,-0.35 v -2.15 h -0.9 c -2.85,-0.14 -3.1,-0.44 -3.1,-3.64 v -31.07 l -9.79,0.57 v 2.14 h 2.93 c 1.91,0.04 2.16,0.36 2.16,2.5 v 11.31 c -1.84,-2.56 -4,-3.7 -6.91,-3.7 -5.64,0 -9.93,5.45 -9.93,12.64 0,7.11 4.14,12.15 9.93,12.15 3.16,0 5.32,-1.34 6.91,-4.34 v 3.94 m -5.91,-21.69 c 2.07,0 4,1.5 4.91,3.8 0.66,1.5 0.95,3.54 0.95,6 0,5.84 -2.29,9.59 -5.9,9.59 -3.55,0 -5.64,-3.3 -5.64,-8.84 0,-3 0.29,-5.25 0.93,-6.91 0.86,-2.25 2.71,-3.64 4.75,-3.64 m 28.5,-2.7 c -6.14,0 -10.89,5.45 -10.89,12.45 0,6.84 4.8,12.34 10.8,12.34 6,0 10.8,-5.5 10.8,-12.4 0,-6.85 -4.8,-12.39 -10.71,-12.39 m 0,2.14 c 3.5,0 5.46,3.65 5.46,10.25 0,6.65 -1.96,10.25 -5.55,10.25 -3.59,0 -5.55,-3.6 -5.55,-10.19 0,-6.81 1.89,-10.31 5.64,-10.31"
         id="path94" />
      <path
         class="StaffText"
         d="m 1401.15,934.482 h -30.05 v 2.359 h 0.89 c 2.86,0.047 3.81,0.203 4.2,0.703 0.3,0.438 0.3,0.547 0.3,3.094 v 23.797 c 0,2.562 0,2.656 -0.3,3.109 -0.39,0.5 -1.34,0.703 -4.2,0.703 h -0.89 v 2.344 h 30.7 l 1,-13.344 h -2.2 c -1.91,8.891 -3.95,10.797 -11.61,11 h -3.3 c -3,-0.109 -3.75,-0.609 -3.59,-2.406 v -12.75 h 1 c 5.14,-0.203 7,1.656 7.2,7.203 h 2.35 v -16.406 h -2.35 c -0.31,4.906 -2.25,6.859 -7,6.859 h -1.2 v -11.406 c -0.05,-2.109 0.45,-2.453 3.14,-2.5 h 2.61 c 8.2,-0.047 10.25,1.75 11.84,10.406 h 2.16 l -0.7,-12.765"
         id="path97" />
      <path
         class="StaffText"
         d="m 387.179,933.138 h -1.891 l -1.953,3 c -3.25,-2.547 -5.453,-3.406 -9.109,-3.406 -3.953,0 -7.047,1.109 -10.203,3.656 -4.938,4 -7.25,9.047 -7.25,15.797 0,5.109 1.453,9.359 4.406,12.609 3.094,3.5 7.703,5.547 12.5,5.547 4.203,0 7.156,-1.297 10.406,-4.547 l 1.844,4.5 h 2.109 v -11 c 0,-2.547 0,-2.656 0.297,-3.109 0.453,-0.547 1.344,-0.688 4.203,-0.688 h 0.75 v -2.359 h -15.906 v 2.359 h 0.953 c 4.203,0 4.547,0.25 4.547,3.047 0,2.141 -0.344,4.094 -1,5.297 -1.25,2.453 -4.453,4.156 -7.703,4.156 -3.25,0 -6.453,-1.656 -8.156,-4.156 -1.844,-2.797 -2.641,-6.297 -2.641,-11.656 0,-11.141 3.703,-17.094 10.641,-17.094 5.703,0 9.656,4.094 11.703,12.094 h 2.156 l -0.703,-14.047"
         id="path98" />
      <path
         class="StaffText"
         d="m 1878.08,970.591 h 16.8 c 4.45,0 7.86,-0.703 10.5,-2.203 5.05,-2.844 7.86,-8.547 7.86,-16.047 0,-6.906 -2.5,-12.297 -7.11,-15.297 -2.75,-1.75 -6.45,-2.562 -12.16,-2.562 h -15.89 v 2.359 h 0.96 c 2.79,0.047 3.75,0.203 4.14,0.703 0.29,0.438 0.29,0.547 0.29,3.094 v 23.797 c 0,2.562 0,2.656 -0.29,3.109 -0.39,0.5 -1.35,0.641 -4.14,0.703 h -0.96 v 2.344 m 13.85,-2.344 c -2.55,0 -2.85,-0.312 -2.85,-2.75 v -25.859 c 0,-2.453 0.35,-2.797 2.85,-2.797 h 2.61 c 8.54,0 12.09,4.641 12.09,15.703 0,11.203 -3.2,15.703 -11.3,15.703 h -3.4"
         id="path104" />
      <path
         class="StaffText"
         d="m 893.865,934.482 h -29.75 v 2.359 h 0.891 c 2.859,0.047 3.813,0.203 4.203,0.703 0.297,0.438 0.297,0.547 0.297,3.094 v 23.797 c 0,2.562 0,2.656 -0.297,3.109 -0.39,0.5 -1.344,0.703 -4.203,0.703 h -0.891 v 2.344 h 17.141 v -2.344 h -1.641 c -2.859,0 -3.796,-0.203 -4.203,-0.703 -0.297,-0.453 -0.297,-0.609 -0.297,-3.109 v -11.344 h 1 c 5.141,-0.203 7,1.656 7.204,7.203 h 2.343 v -16.406 h -2.343 c -0.313,4.906 -2.25,6.797 -7,6.859 h -1.204 v -11.406 c -0.046,-2.109 0.454,-2.453 3.141,-2.5 h 2.313 c 8.203,-0.047 10.25,1.797 11.796,10.406 h 2.204 l -0.704,-12.765"
         id="path105" />
      <path
         class="StaffText"
         d="m 2414.57,934.138 h -1.91 l -2,2.953 c -3.64,-2.656 -5.5,-3.359 -8.95,-3.359 -4.75,0 -8.8,2 -12.14,6 -3.21,3.812 -4.71,8.015 -4.71,13.156 0,10.797 7.05,18.453 16.91,18.453 8,0 13.09,-4.703 14.25,-13.094 l -2.36,-0.406 c -1.34,7.453 -5.14,11.156 -11.3,11.156 -7.4,0 -10.9,-5.109 -10.9,-15.906 0,-5.703 0.75,-9.453 2.45,-12.453 1.55,-2.797 4.61,-4.547 7.86,-4.547 3.5,0 6.59,1.844 8.5,5.047 0.95,1.656 1.64,3.5 2.84,7.453 h 2.21 l -0.75,-14.453"
         id="path111" />
    </g>
    <g
       id="g113">
      <polyline
         class="StaffLines"
         fill="none"
         stroke="#000000"
         stroke-width="2.73"
         stroke-linejoin="bevel"
         points="336.599,386.199 2764.6,386.199"
         id="polyline1" />
      <polyline
         class="StaffLines"
         fill="none"
         stroke="#000000"
         stroke-width="2.73"
         stroke-linejoin="bevel"
         points="336.599,410.999 2764.6,410.999"
         id="polyline2" />
      <polyline
         class="StaffLines"
         fill="none"
         stroke="#000000"
         stroke-width="2.73"
         stroke-linejoin="bevel"
         points="336.599,435.799 2764.6,435.799"
         id="polyline3" />
      <polyline
         class="StaffLines"
         fill="none"
         stroke="#000000"
         stroke-width="2.73"
         stroke-linejoin="bevel"
         points="336.599,460.599 2764.6,460.599"
         id="polyline4" />
      <polyline
         class="StaffLines"
         fill="none"
         stroke="#000000"
         stroke-width="2.73"
         stroke-linejoin="bevel"
         points="336.599,485.399 2764.6,485.399"
         id="polyline5" />
      <polyline
         class="BarLine"
         fill="none"
         stroke="#000000"
         stroke-width="4.46"
         stroke-linejoin="bevel"
         points="2556.08,384.835 2556.08,486.763"
         id="polyline11" />
      <polyline
         class="BarLine"
         fill="none"
         stroke="#000000"
         stroke-width="4.46"
         stroke-linejoin="bevel"
         points="913.643,384.835 913.643,486.763"
         id="polyline16" />
      <polyline
         class="BarLine"
         fill="none"
         stroke="#000000"
         stroke-width="4.46"
         stroke-linejoin="bevel"
         points="1532.52,384.835 1532.52,486.763"
         id="polyline17" />
      <polyline
         class="BarLine"
         fill="none"
         stroke="#000000"
         stroke-width="4.46"
         stroke-linejoin="bevel"
         points="707.352,384.835 707.352,486.763"
         id="polyline18" />
      <polyline
         class="BarLine"
         fill="none"
         stroke="#000000"
         stroke-width="4.46"
         stroke-linejoin="bevel"
         points="1738.81,384.835 1738.81,486.763"
         id="polyline19" />
      <polyline
         class="BarLine"
         fill="none"
         stroke="#000000"
         stroke-width="4.46"
         stroke-linejoin="bevel"
         points="2349.79,384.835 2349.79,486.763"
         id="polyline20" />
      <polyline
         class="BarLine"
         fill="none"
         stroke="#000000"
         stroke-width="4.46"
         stroke-linejoin="bevel"
         points="2762.37,384.835 2762.37,486.763"
         id="polyline21" />
      <polyline
         class="BarLine"
         fill="none"
         stroke="#000000"
         stroke-width="4.46"
         stroke-linejoin="bevel"
         points="1119.93,384.835 1119.93,486.763"
         id="polyline22" />
      <polyline
         class="BarLine"
         fill="none"
         stroke="#000000"
         stroke-width="4.46"
         stroke-linejoin="bevel"
         points="1945.1,384.835 1945.1,486.763"
         id="polyline23" />
      <polyline
         class="BarLine"
         fill="none"
         stroke="#000000"
         stroke-width="4.46"
         stroke-linejoin="bevel"
         points="2143.5,384.835 2143.5,486.763"
         id="polyline24" />
      <polyline
         class="BarLine"
         fill="none"
         stroke="#000000"
         stroke-width="4.46"
         stroke-linejoin="bevel"
         points="1326.22,384.835 1326.22,486.763"
         id="polyline27" />
      <polyline
         class="LedgerLine"
         fill="none"
         stroke="#000000"
         stroke-width="3.97"
         stroke-linejoin="bevel"
         points="527.35,510.199 575.95,510.199"
         id="polyline29" />
      <polyline
         class="Stem"
         fill="none"
         stroke="#000000"
         stroke-width="2.48"
         stroke-linejoin="bevel"
         points="1185.4,469.031 1185.4,386.199"
         id="polyline32" />
      <polyline
         class="Stem"
         fill="none"
         stroke="#000000"
         stroke-width="2.48"
         stroke-linejoin="bevel"
         points="566.526,506.231 566.526,423.399"
         id="polyline33" />
      <polyline
         class="Stem"
         fill="none"
         stroke="#000000"
         stroke-width="2.48"
         stroke-linejoin="bevel"
         points="1391.69,456.631 1391.69,373.799"
         id="polyline36" />
      <polyline
         class="Stem"
         fill="none"
         stroke="#000000"
         stroke-width="2.48"
         stroke-linejoin="bevel"
         points="1597.98,444.231 1597.98,367.599"
         id="polyline37" />
      <polyline
         class="Stem"
         fill="none"
         stroke="#000000"
         stroke-width="2.48"
         stroke-linejoin="bevel"
         points="1774.52,439.965 1774.52,510.199"
         id="polyline38" />
      <polyline
         class="Stem"
         fill="none"
         stroke="#000000"
         stroke-width="2.48"
         stroke-linejoin="bevel"
         points="772.817,493.831 772.817,410.999"
         id="polyline39" />
      <polyline
         class="Stem"
         fill="none"
         stroke="#000000"
         stroke-width="2.48"
         stroke-linejoin="bevel"
         points="1980.81,427.565 1980.81,503.999"
         id="polyline40" />
      <polyline
         class="Stem"
         fill="none"
         stroke="#000000"
         stroke-width="2.48"
         stroke-linejoin="bevel"
         points="2621.54,444.231 2621.54,367.599"
         id="polyline41" />
      <polyline
         class="Stem"
         fill="none"
         stroke="#000000"
         stroke-width="2.48"
         stroke-linejoin="bevel"
         points="2179.21,427.565 2179.21,503.999"
         id="polyline42" />
      <polyline
         class="Stem"
         fill="none"
         stroke="#000000"
         stroke-width="2.48"
         stroke-linejoin="bevel"
         points="979.108,481.431 979.108,398.599"
         id="polyline43" />
      <polyline
         class="Stem"
         fill="none"
         stroke="#000000"
         stroke-width="2.48"
         stroke-linejoin="bevel"
         points="2385.5,439.965 2385.5,510.199"
         id="polyline44" />
      <path
         class="Note"
         transform="matrix(0.992001,0,0,0.992001,741.824,497.799)"
         d="M 0,4.20313 C 0,8.5 3.09375,13.2969 11.2031,13.2969 21.5938,13.2969 32.5,4.79688 32.5,-4 c 0,-5.90625 -5,-9.2031 -11.2031,-9.2031 C 11.5938,-13.2031 0,-5 0,4.20313"
         id="path45" />
      <path
         class="Note"
         transform="matrix(0.992001,0,0,0.992001,2177.97,423.399)"
         d="M 0,4.20313 C 0,8.5 3.09375,13.2969 11.2031,13.2969 21.5938,13.2969 32.5,4.79688 32.5,-4 c 0,-5.90625 -5,-9.2031 -11.2031,-9.2031 C 11.5938,-13.2031 0,-5 0,4.20313"
         id="path47" />
      <path
         class="Note"
         transform="matrix(0.992001,0,0,0.992001,535.534,510.199)"
         d="M 0,4.20313 C 0,8.5 3.09375,13.2969 11.2031,13.2969 21.5938,13.2969 32.5,4.79688 32.5,-4 c 0,-5.90625 -5,-9.2031 -11.2031,-9.2031 C 11.5938,-13.2031 0,-5 0,4.20313"
         id="path48" />
      <path
         class="Note"
         transform="matrix(0.992001,0,0,0.992001,2384.26,435.799)"
         d="M 0,4.20313 C 0,8.5 3.09375,13.2969 11.2031,13.2969 21.5938,13.2969 32.5,4.79688 32.5,-4 c 0,-5.90625 -5,-9.2031 -11.2031,-9.2031 C 11.5938,-13.2031 0,-5 0,4.20313"
         id="path49" />
      <path
         class="Note"
         transform="matrix(0.992001,0,0,0.992001,1773.28,435.799)"
         d="M 0,4.20313 C 0,8.5 3.09375,13.2969 11.2031,13.2969 21.5938,13.2969 32.5,4.79688 32.5,-4 c 0,-5.90625 -5,-9.2031 -11.2031,-9.2031 C 11.5938,-13.2031 0,-5 0,4.20313"
         id="path50" />
      <path
         class="Note"
         transform="matrix(0.992001,0,0,0.992001,1979.57,423.399)"
         d="M 21.2969,-13.2031 C 11.5938,-13.2031 0,-5.09375 0,4.20313 0,8.5 3.09375,13.2969 11.2031,13.2969 21.5938,13.2969 32.5,4.79688 32.5,-4 c 0,-5.90625 -5,-9.2031 -11.2031,-9.2031 M 7.5,8.59375 C 4.20313,8.59375 3.5,5.90625 3.5,5 3.5,0.09375 20.2969,-8.5 25,-8.5 c 2.4063,0 4,1.40625 4,3.59375 0,5 -16.9062,13.5 -21.5,13.5"
         id="path52" />
      <path
         class="Note"
         transform="matrix(0.992001,0,0,0.992001,2590.55,448.199)"
         d="M 0,4.20313 C 0,8.5 3.09375,13.2969 11.2031,13.2969 21.5938,13.2969 32.5,4.79688 32.5,-4 c 0,-5.90625 -5,-9.2031 -11.2031,-9.2031 C 11.5938,-13.2031 0,-5 0,4.20313"
         id="path53" />
      <path
         class="Note"
         transform="matrix(0.992001,0,0,0.992001,1566.99,448.199)"
         d="M 0,4.20313 C 0,8.5 3.09375,13.2969 11.2031,13.2969 21.5938,13.2969 32.5,4.79688 32.5,-4 c 0,-5.90625 -5,-9.2031 -11.2031,-9.2031 C 11.5938,-13.2031 0,-5 0,4.20313"
         id="path54" />
      <path
         class="Note"
         transform="matrix(0.992001,0,0,0.992001,948.115,485.399)"
         d="M 0,4.20313 C 0,8.5 3.09375,13.2969 11.2031,13.2969 21.5938,13.2969 32.5,4.79688 32.5,-4 c 0,-5.90625 -5,-9.2031 -11.2031,-9.2031 C 11.5938,-13.2031 0,-5 0,4.20313"
         id="path56" />
      <path
         class="Note"
         transform="matrix(0.992001,0,0,0.992001,1360.7,460.599)"
         d="M 0,4.20313 C 0,8.5 3.09375,13.2969 11.2031,13.2969 21.5938,13.2969 32.5,4.79688 32.5,-4 c 0,-5.90625 -5,-9.2031 -11.2031,-9.2031 C 11.5938,-13.2031 0,-5 0,4.20313"
         id="path59" />
      <path
         class="Note"
         transform="matrix(0.992001,0,0,0.992001,1154.41,472.999)"
         d="M 0,4.20313 C 0,8.5 3.09375,13.2969 11.2031,13.2969 21.5938,13.2969 32.5,4.79688 32.5,-4 c 0,-5.90625 -5,-9.2031 -11.2031,-9.2031 C 11.5938,-13.2031 0,-5 0,4.20313"
         id="path60" />
      <path
         class="Clef"
         transform="matrix(0.992001,0,0,0.992001,355.199,460.599)"
         d="m 12.2969,51.2969 c 0,6.6094 5,15.3125 18.5,15.3125 4.7031,0 8.8125,-1.2031 12.4062,-3.4063 C 48.6094,59.4063 50,52.7969 50,46.5 c 0,-3.8906 -0.5937,-8.3906 -1.5937,-14.0937 -0.2969,-2 -0.9063,-5 -1.5,-8.9063 C 56.7031,20.2969 64,10.0938 64,-0.203125 64,-15.2969 53.2969,-25.5 38.7031,-25.5 c -1,-6 -2,-11.9063 -2.7968,-17.5 10.5,-11.1094 17.7968,-23.6094 17.7968,-39.5 0,-9.1094 -2.7968,-16.5 -4.4062,-20.109 -2.3906,-5.094 -5.2969,-8.594 -7.0938,-8.594 -0.7031,0 -3.7968,1.203 -7.0937,5.094 -6.4063,7.609 -8.2031,20.4059 -8.2031,28.7965 0,5.4062 0.5,10.3125 2.2031,21.5156 -0.1094,0.0938 -5.3125,5.3906 -7.4063,7.0938 C 12.5938,-40.2969 0,-28.1094 0,-8.09375 0,10.5938 16.2969,25.2969 34.9063,25.2969 c 2.8906,0 5.5937,-0.2969 7.8906,-0.7031 1.9062,9.6093 3.1094,16.6093 3.1094,21.9062 0,10.4063 -5.4063,15.9063 -15.5,15.9063 -2.4063,0 -4.5,-0.5 -4.7032,-0.5 -0.0937,-0.1094 -0.2968,-0.2032 -0.2968,-0.2969 0,-0.2031 0.2031,-0.3125 0.5,-0.3125 C 30.6094,60.5 35.2969,56.5 35.2969,50.1094 35.2969,44.7031 31.2031,39 23.7031,39 c -7,0 -11.4062,5.7031 -11.4062,12.2969 m 20.9062,-133.5 c 0.9063,-4 5.5,-14.5 10.7032,-14.5 1.5,0 3.8906,4.7968 3.8906,11.7968 0,10.4063 -7.6875,18.2032 -14.5938,25 -0.5937,-4 -1.0937,-7.8906 -1.0937,-12.0937 0,-3.7031 0.2969,-7.1094 1.0937,-10.2031 M 42,20.5938 c -2,0.4062 -3.8906,0.6093 -5.7969,0.6093 -14.2968,0 -26.49997,-10 -26.49997,-25.10935 0,-12.18755 8.59377,-23.09375 17.40627,-30.70315 1.6875,-1.5 3.2969,-2.8906 4.7969,-4.3906 0.8906,5.3906 1.5937,10.0937 2.2968,14.2031 -9.1093,2.7031 -15.2968,12.2969 -15.2968,21.70315 0,7 5.5,16.59375 13.5,16.59375 0.7968,0 1.7031,-0.4062 1.7031,-1.2969 0,-0.9062 -1,-1.4062 -2.2031,-2.2031 C 28,7.59375 25.7969,5 25.7969,0.09375 25.7969,-6 30.4063,-10.9063 36.2031,-12.2969 L 42,20.5938 M 56.2031,2.09375 c 0,7.10938 -2.9062,14.40625 -10,17.31255 -2.0937,-12.00005 -4.7968,-27.9063 -5.5,-32.3126 9,0 15.5,6.10942 15.5,15.00005"
         id="path61" />
      <path
         class="TimeSig"
         transform="matrix(0.992001,0,0,0.992001,445.362,411.495)"
         d="m 34.2031,3.90625 c -0.7968,2.1875 -2.7968,9.39065 -7.7031,9.39065 -6.5,0 -7.9062,-4.00002 -13.2969,-4.00002 -0.7968,0 -1.6093,0.10937 -2.6093,0.29687 0,0 2.5,-3.79687 13.1093,-7.09375 C 34.2969,-0.796875 37,-6 37,-12 c 0,-4.2031 -1.8906,-12.5 -17,-12.5 -15.09375,0 -17.90625,9.0937 -17.90625,13.7031 0,4.09377 3.40625,7.39065 7.5,7.39065 4.10935,0 7.40625,-3.29688 7.40625,-7.39065 0,-2.7969 -2,-5.9062 -4.5937,-6.9062 -0.3125,-0.0938 -0.7032,-0.5938 -0.7032,-1.0938 0,-0.6094 0.5,-1.2969 2.2969,-1.7969 0.5,-0.2031 1.9063,-0.5 3.4063,-0.5 5.6875,0 6.7968,3.5 6.7968,8.5938 0,11.703125 -13.9062,14.20313 -19.7031,22.9063 0,0 -3,4.1875 -3,8.8906 0,4.7031 2.40625,5 3.59375,5 1.60938,0 3.3125,-1.2969 3.3125,-3.0938 0,-0.4062 -0.10937,-0.7968 -0.3125,-1.2968 C 7.5,18.5 7.29688,17.4063 7.29688,16.5938 c 0,-0.2969 0,-0.5938 0.10937,-0.8907 0.09375,-0.6093 0.89063,-1.6093 3.29685,-1.6093 2.8907,0 4,3.4062 5.7969,6 1.7969,2.6093 4.5938,4.2031 7.7969,4.2031 3.2031,0 7.5,-2.2969 9.3125,-6 C 35.4063,14.5938 37.7031,7.09375 37.7031,4.40625 37.7031,3.09375 36.9063,2.5 36,2.5 c -0.7031,0 -1.3906,0.40625 -1.7969,1.40625"
         id="path63" />
      <path
         class="TimeSig"
         transform="matrix(0.992001,0,0,0.992001,442.092,460.599)"
         d="m 20.7969,12.7031 v 7.3907 H 12.5 c -0.7031,0 -1.4062,0.6093 -1.4062,1.4062 v 1.9063 c 0,0.7968 0.7031,1.3906 1.4062,1.3906 h 30.2969 c 0.8125,0 1.4062,-0.5938 1.4062,-1.3906 V 21.5 c 0,-0.7969 -0.5937,-1.4062 -1.4062,-1.4062 h -8.8906 v -7.3907 h 8.8906 c 0.8125,0 1.4062,-0.7031 1.4062,-1.5 V 9.29688 c 0,-0.70313 -0.5937,-1.39063 -1.4062,-1.39063 H 33.9063 V -8 c 0,-0.59375 -0.2969,-1.09375 -0.7969,-1.29688 L 31.9063,-9.90625 C 31.7031,-10 31.4063,-10.0938 31.2031,-10.0938 30.9063,-10 30.5,-9.90625 30.2969,-9.70313 l -9.0938,8.29688 c -0.2968,0.3125 -0.4062,0.703125 -0.4062,1.109375 V 7.90625 H 9.29688 c 0,0 11.10942,-12 22.90622,-27.81255 0.4063,-0.5 0.5,-1 0.5,-1.3906 0,-0.5 -0.2031,-0.9062 -0.2968,-1 L 30.2031,-24.5 c -0.2031,-0.2031 -0.5937,-0.4063 -1,-0.4063 -0.5937,0 -14.1093,0 -14.7968,0 -0.8125,0 -1.3125,0.6094 -1.4063,1.2032 0,0 -0.5,7.4062 -3.09375,15.49997 -2.60937,8.10938 -5.60937,13.10938 -8.20312,16.79688 0,0 -0.29688,0.5 -0.29688,1.10938 0,0.20312 0,0.39067 0.09375,0.59377 0.40625,0.7031 1,1.7969 1,1.7969 0,0 0.20313,0.6093 1.09375,0.6093 H 20.7969"
         id="path64" />
      <path
         class="Rest"
         transform="matrix(0.992001,0,0,0.992001,2675.34,435.799)"
         d="M 23,16.5938 C 22.9063,16.5 22.7031,16.2969 22.4063,15.9063 L 10.9063,1.70313 C 10.7969,1.59375 10.7031,1.29688 10.7031,1.09375 c 0,-0.296875 0.0938,-0.6875 0.2032,-0.890625 L 21.0938,-15.2031 c 0.1093,-0.2032 0.2031,-0.5 0.2031,-0.7032 v -0.8906 c 0,-0.2969 -0.0938,-0.6094 -0.2969,-0.7969 L 4.79688,-39.5 c 0,0 -0.39063,-0.6094 -1,-0.6094 -0.29688,0 -0.5,0 -0.79688,0.3125 -0.40625,0.2969 -0.5,0.6875 -0.5,1 0,0.5938 0.29688,1.0938 0.29688,1.0938 l 7.60942,10.4062 c 0.1875,0.2969 0.2968,0.6875 0.2968,1.1875 0,0.4063 -0.1093,0.9063 -0.2968,1.2031 L 0.296875,-9.5 C 0.203125,-9.29688 0.09375,-8.90625 0.09375,-8.70313 v 0.90625 C 0.09375,-7.5 0.203125,-7.20313 0.40625,-7 L 11.5938,6.90625 C 11.2031,6.79688 10.2969,6.59375 9.09375,6.59375 4,6.59375 0,10.7969 0,15.9063 0,17.2969 0.296875,18.7031 1.09375,19.7969 3.20313,23 10.7031,32.5 10.7031,32.5 c 0,0 0.5,0.6094 1.2032,0.6094 0.1875,0 0.3906,0 0.5937,-0.2031 C 13,32.5 13.2031,32.1094 13.2031,31.7031 13.2031,31.2969 13,31 12.9063,30.7969 12.5938,30.2969 9.40625,24.5 9.40625,24.5 c 0,0 -0.70312,-1.4062 -0.70312,-3.2031 0,-3.2031 2.39067,-5.7969 5.59377,-5.7969 1.2969,0 2.4062,0.4063 3.2031,0.9063 l 3.9063,2.5 c 0,0 0.3906,0.1875 0.7968,0.1875 0.3907,0 0.7032,-0.0938 1,-0.5 C 23.4063,18.2969 23.5,18 23.5,17.7031 c 0,-0.2968 -0.0937,-0.5 -0.2969,-0.7968 L 23,16.5938"
         id="path65" />
      <path
         class="Rest"
         transform="matrix(0.992001,0,0,0.992001,2262.76,435.799)"
         d="M 23,16.5938 C 22.9063,16.5 22.7031,16.2969 22.4063,15.9063 L 10.9063,1.70313 C 10.7969,1.59375 10.7031,1.29688 10.7031,1.09375 c 0,-0.296875 0.0938,-0.6875 0.2032,-0.890625 L 21.0938,-15.2031 c 0.1093,-0.2032 0.2031,-0.5 0.2031,-0.7032 v -0.8906 c 0,-0.2969 -0.0938,-0.6094 -0.2969,-0.7969 L 4.79688,-39.5 c 0,0 -0.39063,-0.6094 -1,-0.6094 -0.29688,0 -0.5,0 -0.79688,0.3125 -0.40625,0.2969 -0.5,0.6875 -0.5,1 0,0.5938 0.29688,1.0938 0.29688,1.0938 l 7.60942,10.4062 c 0.1875,0.2969 0.2968,0.6875 0.2968,1.1875 0,0.4063 -0.1093,0.9063 -0.2968,1.2031 L 0.296875,-9.5 C 0.203125,-9.29688 0.09375,-8.90625 0.09375,-8.70313 v 0.90625 C 0.09375,-7.5 0.203125,-7.20313 0.40625,-7 L 11.5938,6.90625 C 11.2031,6.79688 10.2969,6.59375 9.09375,6.59375 4,6.59375 0,10.7969 0,15.9063 0,17.2969 0.296875,18.7031 1.09375,19.7969 3.20313,23 10.7031,32.5 10.7031,32.5 c 0,0 0.5,0.6094 1.2032,0.6094 0.1875,0 0.3906,0 0.5937,-0.2031 C 13,32.5 13.2031,32.1094 13.2031,31.7031 13.2031,31.2969 13,31 12.9063,30.7969 12.5938,30.2969 9.40625,24.5 9.40625,24.5 c 0,0 -0.70312,-1.4062 -0.70312,-3.2031 0,-3.2031 2.39067,-5.7969 5.59377,-5.7969 1.2969,0 2.4062,0.4063 3.2031,0.9063 l 3.9063,2.5 c 0,0 0.3906,0.1875 0.7968,0.1875 0.3907,0 0.7032,-0.0938 1,-0.5 C 23.4063,18.2969 23.5,18 23.5,17.7031 c 0,-0.2968 -0.0937,-0.5 -0.2969,-0.7968 L 23,16.5938"
         id="path66" />
      <path
         class="Rest"
         transform="matrix(0.992001,0,0,0.992001,1445.49,435.799)"
         d="M 23,16.5938 C 22.9063,16.5 22.7031,16.2969 22.4063,15.9063 L 10.9063,1.70313 C 10.7969,1.59375 10.7031,1.29688 10.7031,1.09375 c 0,-0.296875 0.0938,-0.6875 0.2032,-0.890625 L 21.0938,-15.2031 c 0.1093,-0.2032 0.2031,-0.5 0.2031,-0.7032 v -0.8906 c 0,-0.2969 -0.0938,-0.6094 -0.2969,-0.7969 L 4.79688,-39.5 c 0,0 -0.39063,-0.6094 -1,-0.6094 -0.29688,0 -0.5,0 -0.79688,0.3125 -0.40625,0.2969 -0.5,0.6875 -0.5,1 0,0.5938 0.29688,1.0938 0.29688,1.0938 l 7.60942,10.4062 c 0.1875,0.2969 0.2968,0.6875 0.2968,1.1875 0,0.4063 -0.1093,0.9063 -0.2968,1.2031 L 0.296875,-9.5 C 0.203125,-9.29688 0.09375,-8.90625 0.09375,-8.70313 v 0.90625 C 0.09375,-7.5 0.203125,-7.20313 0.40625,-7 L 11.5938,6.90625 C 11.2031,6.79688 10.2969,6.59375 9.09375,6.59375 4,6.59375 0,10.7969 0,15.9063 0,17.2969 0.296875,18.7031 1.09375,19.7969 3.20313,23 10.7031,32.5 10.7031,32.5 c 0,0 0.5,0.6094 1.2032,0.6094 0.1875,0 0.3906,0 0.5937,-0.2031 C 13,32.5 13.2031,32.1094 13.2031,31.7031 13.2031,31.2969 13,31 12.9063,30.7969 12.5938,30.2969 9.40625,24.5 9.40625,24.5 c 0,0 -0.70312,-1.4062 -0.70312,-3.2031 0,-3.2031 2.39067,-5.7969 5.59377,-5.7969 1.2969,0 2.4062,0.4063 3.2031,0.9063 l 3.9063,2.5 c 0,0 0.3906,0.1875 0.7968,0.1875 0.3907,0 0.7032,-0.0938 1,-0.5 C 23.4063,18.2969 23.5,18 23.5,17.7031 c 0,-0.2968 -0.0937,-0.5 -0.2969,-0.7968 L 23,16.5938"
         id="path67" />
      <path
         class="Rest"
         transform="matrix(0.992001,0,0,0.992001,620.327,435.799)"
         d="M 23,16.5938 C 22.9063,16.5 22.7031,16.2969 22.4063,15.9063 L 10.9063,1.70313 C 10.7969,1.59375 10.7031,1.29688 10.7031,1.09375 c 0,-0.296875 0.0938,-0.6875 0.2032,-0.890625 L 21.0938,-15.2031 c 0.1093,-0.2032 0.2031,-0.5 0.2031,-0.7032 v -0.8906 c 0,-0.2969 -0.0938,-0.6094 -0.2969,-0.7969 L 4.79688,-39.5 c 0,0 -0.39063,-0.6094 -1,-0.6094 -0.29688,0 -0.5,0 -0.79688,0.3125 -0.40625,0.2969 -0.5,0.6875 -0.5,1 0,0.5938 0.29688,1.0938 0.29688,1.0938 l 7.60942,10.4062 c 0.1875,0.2969 0.2968,0.6875 0.2968,1.1875 0,0.4063 -0.1093,0.9063 -0.2968,1.2031 L 0.296875,-9.5 C 0.203125,-9.29688 0.09375,-8.90625 0.09375,-8.70313 v 0.90625 C 0.09375,-7.5 0.203125,-7.20313 0.40625,-7 L 11.5938,6.90625 C 11.2031,6.79688 10.2969,6.59375 9.09375,6.59375 4,6.59375 0,10.7969 0,15.9063 0,17.2969 0.296875,18.7031 1.09375,19.7969 3.20313,23 10.7031,32.5 10.7031,32.5 c 0,0 0.5,0.6094 1.2032,0.6094 0.1875,0 0.3906,0 0.5937,-0.2031 C 13,32.5 13.2031,32.1094 13.2031,31.7031 13.2031,31.2969 13,31 12.9063,30.7969 12.5938,30.2969 9.40625,24.5 9.40625,24.5 c 0,0 -0.70312,-1.4062 -0.70312,-3.2031 0,-3.2031 2.39067,-5.7969 5.59377,-5.7969 1.2969,0 2.4062,0.4063 3.2031,0.9063 l 3.9063,2.5 c 0,0 0.3906,0.1875 0.7968,0.1875 0.3907,0 0.7032,-0.0938 1,-0.5 C 23.4063,18.2969 23.5,18 23.5,17.7031 c 0,-0.2968 -0.0937,-0.5 -0.2969,-0.7968 L 23,16.5938"
         id="path68" />
      <path
         class="Rest"
         transform="matrix(0.992001,0,0,0.992001,826.618,435.799)"
         d="M 23,16.5938 C 22.9063,16.5 22.7031,16.2969 22.4063,15.9063 L 10.9063,1.70313 C 10.7969,1.59375 10.7031,1.29688 10.7031,1.09375 c 0,-0.296875 0.0938,-0.6875 0.2032,-0.890625 L 21.0938,-15.2031 c 0.1093,-0.2032 0.2031,-0.5 0.2031,-0.7032 v -0.8906 c 0,-0.2969 -0.0938,-0.6094 -0.2969,-0.7969 L 4.79688,-39.5 c 0,0 -0.39063,-0.6094 -1,-0.6094 -0.29688,0 -0.5,0 -0.79688,0.3125 -0.40625,0.2969 -0.5,0.6875 -0.5,1 0,0.5938 0.29688,1.0938 0.29688,1.0938 l 7.60942,10.4062 c 0.1875,0.2969 0.2968,0.6875 0.2968,1.1875 0,0.4063 -0.1093,0.9063 -0.2968,1.2031 L 0.296875,-9.5 C 0.203125,-9.29688 0.09375,-8.90625 0.09375,-8.70313 v 0.90625 C 0.09375,-7.5 0.203125,-7.20313 0.40625,-7 L 11.5938,6.90625 C 11.2031,6.79688 10.2969,6.59375 9.09375,6.59375 4,6.59375 0,10.7969 0,15.9063 0,17.2969 0.296875,18.7031 1.09375,19.7969 3.20313,23 10.7031,32.5 10.7031,32.5 c 0,0 0.5,0.6094 1.2032,0.6094 0.1875,0 0.3906,0 0.5937,-0.2031 C 13,32.5 13.2031,32.1094 13.2031,31.7031 13.2031,31.2969 13,31 12.9063,30.7969 12.5938,30.2969 9.40625,24.5 9.40625,24.5 c 0,0 -0.70312,-1.4062 -0.70312,-3.2031 0,-3.2031 2.39067,-5.7969 5.59377,-5.7969 1.2969,0 2.4062,0.4063 3.2031,0.9063 l 3.9063,2.5 c 0,0 0.3906,0.1875 0.7968,0.1875 0.3907,0 0.7032,-0.0938 1,-0.5 C 23.4063,18.2969 23.5,18 23.5,17.7031 c 0,-0.2968 -0.0937,-0.5 -0.2969,-0.7968 L 23,16.5938"
         id="path69" />
      <path
         class="Rest"
         transform="matrix(0.992001,0,0,0.992001,1032.91,435.799)"
         d="M 23,16.5938 C 22.9063,16.5 22.7031,16.2969 22.4063,15.9063 L 10.9063,1.70313 C 10.7969,1.59375 10.7031,1.29688 10.7031,1.09375 c 0,-0.296875 0.0938,-0.6875 0.2032,-0.890625 L 21.0938,-15.2031 c 0.1093,-0.2032 0.2031,-0.5 0.2031,-0.7032 v -0.8906 c 0,-0.2969 -0.0938,-0.6094 -0.2969,-0.7969 L 4.79688,-39.5 c 0,0 -0.39063,-0.6094 -1,-0.6094 -0.29688,0 -0.5,0 -0.79688,0.3125 -0.40625,0.2969 -0.5,0.6875 -0.5,1 0,0.5938 0.29688,1.0938 0.29688,1.0938 l 7.60942,10.4062 c 0.1875,0.2969 0.2968,0.6875 0.2968,1.1875 0,0.4063 -0.1093,0.9063 -0.2968,1.2031 L 0.296875,-9.5 C 0.203125,-9.29688 0.09375,-8.90625 0.09375,-8.70313 v 0.90625 C 0.09375,-7.5 0.203125,-7.20313 0.40625,-7 L 11.5938,6.90625 C 11.2031,6.79688 10.2969,6.59375 9.09375,6.59375 4,6.59375 0,10.7969 0,15.9063 0,17.2969 0.296875,18.7031 1.09375,19.7969 3.20313,23 10.7031,32.5 10.7031,32.5 c 0,0 0.5,0.6094 1.2032,0.6094 0.1875,0 0.3906,0 0.5937,-0.2031 C 13,32.5 13.2031,32.1094 13.2031,31.7031 13.2031,31.2969 13,31 12.9063,30.7969 12.5938,30.2969 9.40625,24.5 9.40625,24.5 c 0,0 -0.70312,-1.4062 -0.70312,-3.2031 0,-3.2031 2.39067,-5.7969 5.59377,-5.7969 1.2969,0 2.4062,0.4063 3.2031,0.9063 l 3.9063,2.5 c 0,0 0.3906,0.1875 0.7968,0.1875 0.3907,0 0.7032,-0.0938 1,-0.5 C 23.4063,18.2969 23.5,18 23.5,17.7031 c 0,-0.2968 -0.0937,-0.5 -0.2969,-0.7968 L 23,16.5938"
         id="path72" />
      <path
         class="Rest"
         transform="matrix(0.992001,0,0,0.992001,1651.78,435.799)"
         d="M 23,16.5938 C 22.9063,16.5 22.7031,16.2969 22.4063,15.9063 L 10.9063,1.70313 C 10.7969,1.59375 10.7031,1.29688 10.7031,1.09375 c 0,-0.296875 0.0938,-0.6875 0.2032,-0.890625 L 21.0938,-15.2031 c 0.1093,-0.2032 0.2031,-0.5 0.2031,-0.7032 v -0.8906 c 0,-0.2969 -0.0938,-0.6094 -0.2969,-0.7969 L 4.79688,-39.5 c 0,0 -0.39063,-0.6094 -1,-0.6094 -0.29688,0 -0.5,0 -0.79688,0.3125 -0.40625,0.2969 -0.5,0.6875 -0.5,1 0,0.5938 0.29688,1.0938 0.29688,1.0938 l 7.60942,10.4062 c 0.1875,0.2969 0.2968,0.6875 0.2968,1.1875 0,0.4063 -0.1093,0.9063 -0.2968,1.2031 L 0.296875,-9.5 C 0.203125,-9.29688 0.09375,-8.90625 0.09375,-8.70313 v 0.90625 C 0.09375,-7.5 0.203125,-7.20313 0.40625,-7 L 11.5938,6.90625 C 11.2031,6.79688 10.2969,6.59375 9.09375,6.59375 4,6.59375 0,10.7969 0,15.9063 0,17.2969 0.296875,18.7031 1.09375,19.7969 3.20313,23 10.7031,32.5 10.7031,32.5 c 0,0 0.5,0.6094 1.2032,0.6094 0.1875,0 0.3906,0 0.5937,-0.2031 C 13,32.5 13.2031,32.1094 13.2031,31.7031 13.2031,31.2969 13,31 12.9063,30.7969 12.5938,30.2969 9.40625,24.5 9.40625,24.5 c 0,0 -0.70312,-1.4062 -0.70312,-3.2031 0,-3.2031 2.39067,-5.7969 5.59377,-5.7969 1.2969,0 2.4062,0.4063 3.2031,0.9063 l 3.9063,2.5 c 0,0 0.3906,0.1875 0.7968,0.1875 0.3907,0 0.7032,-0.0938 1,-0.5 C 23.4063,18.2969 23.5,18 23.5,17.7031 c 0,-0.2968 -0.0937,-0.5 -0.2969,-0.7968 L 23,16.5938"
         id="path73" />
      <path
         class="Rest"
         transform="matrix(0.992001,0,0,0.992001,2469.05,435.799)"
         d="M 23,16.5938 C 22.9063,16.5 22.7031,16.2969 22.4063,15.9063 L 10.9063,1.70313 C 10.7969,1.59375 10.7031,1.29688 10.7031,1.09375 c 0,-0.296875 0.0938,-0.6875 0.2032,-0.890625 L 21.0938,-15.2031 c 0.1093,-0.2032 0.2031,-0.5 0.2031,-0.7032 v -0.8906 c 0,-0.2969 -0.0938,-0.6094 -0.2969,-0.7969 L 4.79688,-39.5 c 0,0 -0.39063,-0.6094 -1,-0.6094 -0.29688,0 -0.5,0 -0.79688,0.3125 -0.40625,0.2969 -0.5,0.6875 -0.5,1 0,0.5938 0.29688,1.0938 0.29688,1.0938 l 7.60942,10.4062 c 0.1875,0.2969 0.2968,0.6875 0.2968,1.1875 0,0.4063 -0.1093,0.9063 -0.2968,1.2031 L 0.296875,-9.5 C 0.203125,-9.29688 0.09375,-8.90625 0.09375,-8.70313 v 0.90625 C 0.09375,-7.5 0.203125,-7.20313 0.40625,-7 L 11.5938,6.90625 C 11.2031,6.79688 10.2969,6.59375 9.09375,6.59375 4,6.59375 0,10.7969 0,15.9063 0,17.2969 0.296875,18.7031 1.09375,19.7969 3.20313,23 10.7031,32.5 10.7031,32.5 c 0,0 0.5,0.6094 1.2032,0.6094 0.1875,0 0.3906,0 0.5937,-0.2031 C 13,32.5 13.2031,32.1094 13.2031,31.7031 13.2031,31.2969 13,31 12.9063,30.7969 12.5938,30.2969 9.40625,24.5 9.40625,24.5 c 0,0 -0.70312,-1.4062 -0.70312,-3.2031 0,-3.2031 2.39067,-5.7969 5.59377,-5.7969 1.2969,0 2.4062,0.4063 3.2031,0.9063 l 3.9063,2.5 c 0,0 0.3906,0.1875 0.7968,0.1875 0.3907,0 0.7032,-0.0938 1,-0.5 C 23.4063,18.2969 23.5,18 23.5,17.7031 c 0,-0.2968 -0.0937,-0.5 -0.2969,-0.7968 L 23,16.5938"
         id="path75" />
      <path
         class="Rest"
         transform="matrix(0.992001,0,0,0.992001,1239.2,435.799)"
         d="M 23,16.5938 C 22.9063,16.5 22.7031,16.2969 22.4063,15.9063 L 10.9063,1.70313 C 10.7969,1.59375 10.7031,1.29688 10.7031,1.09375 c 0,-0.296875 0.0938,-0.6875 0.2032,-0.890625 L 21.0938,-15.2031 c 0.1093,-0.2032 0.2031,-0.5 0.2031,-0.7032 v -0.8906 c 0,-0.2969 -0.0938,-0.6094 -0.2969,-0.7969 L 4.79688,-39.5 c 0,0 -0.39063,-0.6094 -1,-0.6094 -0.29688,0 -0.5,0 -0.79688,0.3125 -0.40625,0.2969 -0.5,0.6875 -0.5,1 0,0.5938 0.29688,1.0938 0.29688,1.0938 l 7.60942,10.4062 c 0.1875,0.2969 0.2968,0.6875 0.2968,1.1875 0,0.4063 -0.1093,0.9063 -0.2968,1.2031 L 0.296875,-9.5 C 0.203125,-9.29688 0.09375,-8.90625 0.09375,-8.70313 v 0.90625 C 0.09375,-7.5 0.203125,-7.20313 0.40625,-7 L 11.5938,6.90625 C 11.2031,6.79688 10.2969,6.59375 9.09375,6.59375 4,6.59375 0,10.7969 0,15.9063 0,17.2969 0.296875,18.7031 1.09375,19.7969 3.20313,23 10.7031,32.5 10.7031,32.5 c 0,0 0.5,0.6094 1.2032,0.6094 0.1875,0 0.3906,0 0.5937,-0.2031 C 13,32.5 13.2031,32.1094 13.2031,31.7031 13.2031,31.2969 13,31 12.9063,30.7969 12.5938,30.2969 9.40625,24.5 9.40625,24.5 c 0,0 -0.70312,-1.4062 -0.70312,-3.2031 0,-3.2031 2.39067,-5.7969 5.59377,-5.7969 1.2969,0 2.4062,0.4063 3.2031,0.9063 l 3.9063,2.5 c 0,0 0.3906,0.1875 0.7968,0.1875 0.3907,0 0.7032,-0.0938 1,-0.5 C 23.4063,18.2969 23.5,18 23.5,17.7031 c 0,-0.2968 -0.0937,-0.5 -0.2969,-0.7968 L 23,16.5938"
         id="path77" />
      <path
         class="Rest"
         transform="matrix(0.992001,0,0,0.992001,1858.07,435.799)"
         d="M 23,16.5938 C 22.9063,16.5 22.7031,16.2969 22.4063,15.9063 L 10.9063,1.70313 C 10.7969,1.59375 10.7031,1.29688 10.7031,1.09375 c 0,-0.296875 0.0938,-0.6875 0.2032,-0.890625 L 21.0938,-15.2031 c 0.1093,-0.2032 0.2031,-0.5 0.2031,-0.7032 v -0.8906 c 0,-0.2969 -0.0938,-0.6094 -0.2969,-0.7969 L 4.79688,-39.5 c 0,0 -0.39063,-0.6094 -1,-0.6094 -0.29688,0 -0.5,0 -0.79688,0.3125 -0.40625,0.2969 -0.5,0.6875 -0.5,1 0,0.5938 0.29688,1.0938 0.29688,1.0938 l 7.60942,10.4062 c 0.1875,0.2969 0.2968,0.6875 0.2968,1.1875 0,0.4063 -0.1093,0.9063 -0.2968,1.2031 L 0.296875,-9.5 C 0.203125,-9.29688 0.09375,-8.90625 0.09375,-8.70313 v 0.90625 C 0.09375,-7.5 0.203125,-7.20313 0.40625,-7 L 11.5938,6.90625 C 11.2031,6.79688 10.2969,6.59375 9.09375,6.59375 4,6.59375 0,10.7969 0,15.9063 0,17.2969 0.296875,18.7031 1.09375,19.7969 3.20313,23 10.7031,32.5 10.7031,32.5 c 0,0 0.5,0.6094 1.2032,0.6094 0.1875,0 0.3906,0 0.5937,-0.2031 C 13,32.5 13.2031,32.1094 13.2031,31.7031 13.2031,31.2969 13,31 12.9063,30.7969 12.5938,30.2969 9.40625,24.5 9.40625,24.5 c 0,0 -0.70312,-1.4062 -0.70312,-3.2031 0,-3.2031 2.39067,-5.7969 5.59377,-5.7969 1.2969,0 2.4062,0.4063 3.2031,0.9063 l 3.9063,2.5 c 0,0 0.3906,0.1875 0.7968,0.1875 0.3907,0 0.7032,-0.0938 1,-0.5 C 23.4063,18.2969 23.5,18 23.5,17.7031 c 0,-0.2968 -0.0937,-0.5 -0.2969,-0.7968 L 23,16.5938"
         id="path78" />
      <path
         class="Lyrics"
         d="m 1571.31,548.531 -9.25,0.563 v 2.141 h 2.45 c 1.84,0.046 2.09,0.359 2.09,2.5 v 27.859 c -0.04,0.75 -0.09,1.047 -0.29,1.297 -0.36,0.453 -1.3,0.656 -3.46,0.703 h -0.34 v 1.797 h 12.94 v -1.797 h -0.35 c -3.34,-0.109 -3.79,-0.359 -3.79,-2.156 v -32.907 m 28.39,20.766 c 0,-3.156 -0.55,-4.75 -2,-5.953 -1.64,-1.359 -4.1,-2 -7.3,-2 -5.64,0 -9.75,2.641 -9.75,6.297 0,1.844 1.16,3.047 2.91,3.047 1.59,0 2.7,-1.047 2.7,-2.547 0,-0.656 -0.25,-1.344 -0.75,-2.047 -0.31,-0.359 -0.36,-0.453 -0.36,-0.703 0,-1 2,-1.906 4.41,-1.906 1.59,0 3.34,0.5 4.14,1.25 0.95,0.812 1.31,2 1.31,4.25 v 1.953 c -5.2,0.906 -6.86,1.297 -9.31,2.25 -4.35,1.609 -6.39,3.906 -6.39,7.109 0,3.594 2.79,5.844 7.25,5.844 3.45,0 6.54,-1.406 8.7,-3.953 0.8,2.547 2.05,3.547 4.39,3.547 2.25,0 4.61,-1.438 4.61,-2.891 0,-0.359 -0.2,-0.609 -0.5,-0.609 -0.2,0 -0.41,0.062 -0.75,0.203 -0.7,0.297 -1,0.359 -1.41,0.359 -1.4,0 -1.9,-0.906 -1.9,-3.453 v -10.047 m -4.69,6.094 c 0,3 -0.16,3.703 -1,5 -1.25,1.844 -3.5,3.094 -5.7,3.094 -2.3,0 -3.96,-1.641 -3.96,-3.891 0,-2.109 1.05,-3.609 3.25,-4.656 1.55,-0.703 3.5,-1.203 7.41,-1.844 v 2.297"
         id="path81" />
      <path
         class="Lyrics"
         d="m 543.15,585.735 8.703,-0.344 v -2.156 h -0.906 c -2.844,-0.141 -3.094,-0.438 -3.094,-3.641 v -31.063 l -9.797,0.563 v 2.141 h 2.937 c 1.907,0.046 2.157,0.359 2.157,2.5 v 11.312 c -1.844,-2.562 -4,-3.703 -6.907,-3.703 -5.64,0 -9.937,5.453 -9.937,12.641 0,7.109 4.141,12.156 9.937,12.156 3.157,0 5.313,-1.344 6.907,-4.344 v 3.938 m -5.907,-21.688 c 2.063,0 4,1.5 4.907,3.797 0.656,1.5 0.953,3.547 0.953,6 0,5.844 -2.297,9.594 -5.906,9.594 -3.547,0 -5.641,-3.297 -5.641,-8.844 0,-3 0.297,-5.25 0.937,-6.906 0.86,-2.25 2.704,-3.641 4.75,-3.641 m 28.5,-2.703 c -6.14,0 -10.89,5.453 -10.89,12.453 0,6.844 4.797,12.344 10.797,12.344 6,0 10.797,-5.5 10.797,-12.406 0,-6.844 -4.797,-12.391 -10.704,-12.391 m 0,2.141 c 3.5,0 5.454,3.656 5.454,10.25 0,6.656 -1.954,10.25 -5.547,10.25 -3.594,0 -5.547,-3.594 -5.547,-10.188 0,-6.812 1.89,-10.312 5.64,-10.312"
         id="path82" />
      <path
         class="Lyrics"
         d="m 944.278,562.094 -8.89,0.547 v 2.156 h 2.047 c 1.89,0.047 2.14,0.344 2.14,2.5 v 14.297 c -0.047,0.75 -0.094,1.047 -0.297,1.297 -0.343,0.453 -1.297,0.656 -3.453,0.703 h -0.187 v 1.797 h 12.593 v -1.797 h -0.203 c -3.297,-0.109 -3.75,-0.359 -3.75,-2.203 v -9.25 c 0,-4.453 2.453,-7.75 5.703,-7.75 2.844,0 4.297,2.047 4.297,6.094 v 11.156 c -0.047,0.656 -0.093,1 -0.343,1.25 -0.297,0.453 -1.297,0.656 -3.454,0.703 h -0.203 v 1.797 h 12.657 v -1.797 h -0.204 c -3.296,-0.109 -3.75,-0.359 -3.75,-2.156 v -8.844 c 0,-5 2.25,-8.203 5.75,-8.203 2.86,0 4.25,2.156 4.25,6.656 v 10.547 c -0.046,0.703 -0.093,1.047 -0.343,1.297 -0.297,0.453 -1.297,0.656 -3.453,0.703 h -0.204 v 1.797 h 12.657 v -1.797 h -0.203 c -3.297,-0.109 -3.75,-0.359 -3.75,-2.203 v -11.344 c 0,-3.109 -0.297,-4.156 -1.594,-5.859 -1.453,-1.844 -3.5,-2.844 -5.906,-2.844 -3.25,0 -5.657,1.547 -7.797,5 -0.86,-3 -3.563,-5 -6.907,-5 -3.046,0 -5.25,1.453 -7.203,4.594 v -3.844 m 41.907,-12.453 c -1.61,0 -2.907,1.297 -2.907,2.89 0,1.61 1.297,2.907 2.86,2.907 1.64,0 2.937,-1.297 2.937,-2.907 0,-1.593 -1.297,-2.89 -2.89,-2.89 m 2.343,12.453 -9.39,0.547 v 2.156 h 2.547 c 1.89,0.047 2.14,0.344 2.14,2.5 v 14.297 c -0.047,0.75 -0.094,1.047 -0.297,1.297 -0.343,0.453 -1.297,0.656 -3.453,0.703 h -0.344 v 1.797 h 12.954 v -1.797 h -0.36 c -3.344,-0.109 -3.797,-0.359 -3.797,-2.156 v -19.344"
         id="path84" />
      <path
         class="Lyrics"
         d="m 744.347,562.094 -8.86,0.547 v 2.156 h 2.047 c 1.907,0.047 2.157,0.344 2.157,2.5 v 14.297 c -0.047,0.75 -0.094,1.047 -0.297,1.297 -0.36,0.453 -1.36,0.656 -3.5,0.703 h -0.203 v 1.797 h 13.343 v -1.797 h -0.89 c -3.36,-0.109 -3.797,-0.359 -3.797,-2.156 v -2.703 c 0.047,-8.391 3.047,-14.797 6.937,-15 -0.687,0.812 -0.89,1.312 -0.89,2.25 0,1.609 1.14,2.75 2.75,2.75 1.843,0 3.047,-1.344 3.047,-3.344 0,-2.453 -1.704,-4.047 -4.344,-4.047 -3.156,0 -5.86,2.5 -7.5,6.953 v -6.203 m 35.344,12.047 c 0.046,-7.5 -4.204,-12.797 -10.297,-12.797 -6.407,0 -11.203,5.547 -11.203,13.047 0,7.047 4.546,11.75 11.296,11.75 4.797,0 8.157,-2.344 10.204,-7.094 l -1.75,-0.953 c -2.047,3.844 -4.157,5.344 -7.5,5.344 -2.547,0 -4.407,-1.047 -5.704,-3.297 -0.89,-1.5 -1.296,-3.25 -1.25,-6 h 16.204 m -16.157,-2.156 c 0,-3.5 1.61,-8.5 5.813,-8.5 3,0 5,2.656 5,6.703 0,1.406 -0.453,1.797 -2.063,1.797 h -8.75"
         id="path85" />
      <path
         class="Lyrics"
         d="m 1158.07,562.094 v -2.859 c 0,-2.5 0.16,-4.141 0.55,-5.141 0.81,-2.203 2.56,-3.563 4.56,-3.563 1.05,0 1.69,0.313 1.69,0.86 0,0.203 0,0.25 -0.3,0.64 -0.3,0.454 -0.45,1.063 -0.45,1.61 0,1.5 1.2,2.64 2.75,2.64 1.65,0 2.81,-1.25 2.81,-3.046 0,-2.891 -2.5,-4.704 -6.56,-4.704 -3.44,0 -6,1.204 -7.75,3.704 -1.5,2.109 -2,4.25 -2,8.312 v 1.547 h -4.39 v 2.141 h 4.39 v 17.359 c -0.05,0.703 -0.1,1 -0.3,1.297 -0.34,0.453 -1.3,0.656 -3.45,0.703 h -0.19 v 1.797 h 13.34 v -1.797 h -0.9 c -3.35,-0.109 -3.8,-0.359 -3.8,-2.156 v -17.203 h 5.5 v -2.141 h -5.5 m 28.55,7.203 c 0,-3.156 -0.55,-4.75 -2,-5.953 -1.64,-1.359 -4.1,-2 -7.3,-2 -5.64,0 -9.75,2.641 -9.75,6.297 0,1.844 1.16,3.047 2.91,3.047 1.59,0 2.7,-1.047 2.7,-2.547 0,-0.656 -0.25,-1.344 -0.75,-2.047 -0.31,-0.359 -0.36,-0.453 -0.36,-0.703 0,-1 2,-1.906 4.41,-1.906 1.59,0 3.34,0.5 4.14,1.25 0.95,0.812 1.31,2 1.31,4.25 v 1.953 c -5.2,0.906 -6.86,1.297 -9.31,2.25 -4.35,1.609 -6.39,3.906 -6.39,7.109 0,3.594 2.79,5.844 7.25,5.844 3.45,0 6.54,-1.406 8.7,-3.953 0.8,2.547 2.05,3.547 4.39,3.547 2.25,0 4.61,-1.438 4.61,-2.891 0,-0.359 -0.2,-0.609 -0.5,-0.609 -0.2,0 -0.41,0.062 -0.75,0.203 -0.7,0.297 -1,0.359 -1.41,0.359 -1.4,0 -1.9,-0.906 -1.9,-3.453 v -10.047 m -4.69,6.094 c 0,3 -0.16,3.703 -1,5 -1.25,1.844 -3.5,3.094 -5.7,3.094 -2.3,0 -3.96,-1.641 -3.96,-3.891 0,-2.109 1.05,-3.609 3.25,-4.656 1.55,-0.703 3.5,-1.203 7.41,-1.844 v 2.297"
         id="path86" />
      <path
         class="Lyrics"
         d="m 2393.08,562.094 v -9.906 h -2.05 c -0.5,6.5 -2.7,9.797 -6.75,10.109 v 1.938 h 4.1 v 12.75 c 0,3.5 0.09,4.75 0.59,5.906 0.81,2.094 2.81,3.25 5.7,3.25 4.5,0 7.41,-3.406 7.41,-8.703 0,-0.297 0,-0.641 -0.05,-1.141 h -2.11 c -0.14,4.5 -1.45,6.797 -3.89,6.797 -1.15,0 -2.15,-0.609 -2.5,-1.453 -0.31,-0.703 -0.45,-1.953 -0.45,-3.75 v -13.656 h 7.34 v -2.141 h -7.34 m 17.25,-12.453 c -1.61,0 -2.91,1.297 -2.91,2.89 0,1.61 1.3,2.907 2.86,2.907 1.64,0 2.94,-1.297 2.94,-2.907 0,-1.593 -1.3,-2.89 -2.89,-2.89 m 2.34,12.453 -9.39,0.547 v 2.156 h 2.55 c 1.89,0.047 2.14,0.344 2.14,2.5 v 14.297 c -0.05,0.75 -0.09,1.047 -0.3,1.297 -0.34,0.453 -1.29,0.656 -3.45,0.703 h -0.34 v 1.797 h 12.95 v -1.797 h -0.36 c -3.34,-0.109 -3.8,-0.359 -3.8,-2.156 v -19.344"
         id="path88" />
      <path
         class="Lyrics"
         d="m 1363.81,561.547 h -1.75 l -1.45,1.797 c -1.8,-1.406 -3.59,-2 -6.09,-2 -4.41,0 -7.3,2.844 -7.3,7.25 0,4.703 3.05,5.891 7.05,6.844 l 2.64,0.609 c 3.95,0.938 5.36,1.938 5.36,3.938 0,2.359 -2.05,4 -4.96,4 -4.25,0 -7.25,-2.688 -8.45,-7.688 h -2 v 9.438 h 1.75 l 1.75,-2.047 c 2.05,1.656 4.3,2.453 6.86,2.453 4.89,0 8.14,-3.047 8.14,-7.703 0,-2.203 -0.7,-3.891 -2.09,-5.047 -1.21,-1.047 -2.21,-1.453 -5.25,-2.094 l -2.5,-0.562 c -2.75,-0.594 -2.75,-0.594 -3.66,-1.094 -1.09,-0.5 -1.75,-1.547 -1.75,-2.656 0,-2.047 1.91,-3.438 4.66,-3.438 4.09,0 6.09,2.891 7.29,6.391 h 1.75 v -8.391 m 16.1,-0.203 c -6.14,0 -10.89,5.453 -10.89,12.453 0,6.844 4.79,12.344 10.79,12.344 6,0 10.8,-5.5 10.8,-12.406 0,-6.844 -4.8,-12.391 -10.7,-12.391 m 0,2.141 c 3.5,0 5.45,3.656 5.45,10.25 0,6.656 -1.95,10.25 -5.55,10.25 -3.59,0 -5.54,-3.594 -5.54,-10.188 0,-6.812 1.89,-10.312 5.64,-10.312 m 22.61,-14.954 -9.25,0.563 v 2.141 h 2.45 c 1.84,0.046 2.09,0.359 2.09,2.5 v 27.859 c -0.04,0.75 -0.09,1.047 -0.29,1.297 -0.36,0.453 -1.3,0.656 -3.46,0.703 h -0.34 v 1.797 h 12.94 v -1.797 h -0.35 c -3.34,-0.109 -3.79,-0.359 -3.79,-2.156 v -32.907"
         id="path89" />
      <path
         class="Lyrics"
         d="m 2594.87,548.531 -9.25,0.563 v 2.141 h 2.45 c 1.85,0.046 2.1,0.359 2.1,2.5 v 27.859 c -0.05,0.75 -0.1,1.047 -0.3,1.297 -0.36,0.453 -1.3,0.656 -3.45,0.703 h -0.35 v 1.797 h 12.94 v -1.797 h -0.34 c -3.35,-0.109 -3.8,-0.359 -3.8,-2.156 v -32.907 m 28.39,20.766 c 0,-3.156 -0.55,-4.75 -2,-5.953 -1.64,-1.359 -4.09,-2 -7.3,-2 -5.64,0 -9.75,2.641 -9.75,6.297 0,1.844 1.16,3.047 2.91,3.047 1.59,0 2.7,-1.047 2.7,-2.547 0,-0.656 -0.25,-1.344 -0.75,-2.047 -0.31,-0.359 -0.36,-0.453 -0.36,-0.703 0,-1 2,-1.906 4.41,-1.906 1.59,0 3.34,0.5 4.14,1.25 0.95,0.812 1.31,2 1.31,4.25 v 1.953 c -5.2,0.906 -6.86,1.297 -9.31,2.25 -4.34,1.609 -6.39,3.906 -6.39,7.109 0,3.594 2.8,5.844 7.25,5.844 3.45,0 6.55,-1.406 8.7,-3.953 0.8,2.547 2.05,3.547 4.39,3.547 2.25,0 4.61,-1.438 4.61,-2.891 0,-0.359 -0.2,-0.609 -0.5,-0.609 -0.2,0 -0.4,0.062 -0.75,0.203 -0.7,0.297 -1,0.359 -1.4,0.359 -1.41,0 -1.91,-0.906 -1.91,-3.453 v -10.047 m -4.69,6.094 c 0,3 -0.15,3.703 -1,5 -1.25,1.844 -3.5,3.094 -5.7,3.094 -2.3,0 -3.95,-1.641 -3.95,-3.891 0,-2.109 1.04,-3.609 3.25,-4.656 1.54,-0.703 3.5,-1.203 7.4,-1.844 v 2.297"
         id="path90" />
      <path
         class="Lyrics"
         d="m 1987.19,585.735 8.7,-0.344 v -2.156 h -0.91 c -2.84,-0.141 -3.09,-0.438 -3.09,-3.641 v -31.063 l -9.8,0.563 v 2.141 h 2.94 c 1.91,0.046 2.16,0.359 2.16,2.5 v 11.312 c -1.85,-2.562 -4,-3.703 -6.91,-3.703 -5.64,0 -9.94,5.453 -9.94,12.641 0,7.109 4.14,12.156 9.94,12.156 3.16,0 5.31,-1.344 6.91,-4.344 v 3.938 m -5.91,-21.688 c 2.06,0 4,1.5 4.91,3.797 0.65,1.5 0.95,3.547 0.95,6 0,5.844 -2.3,9.594 -5.91,9.594 -3.54,0 -5.64,-3.297 -5.64,-8.844 0,-3 0.3,-5.25 0.94,-6.906 0.86,-2.25 2.7,-3.641 4.75,-3.641 m 28.5,-2.703 c -6.14,0 -10.89,5.453 -10.89,12.453 0,6.844 4.8,12.344 10.8,12.344 6,0 10.79,-5.5 10.79,-12.406 0,-6.844 -4.79,-12.391 -10.7,-12.391 m 0,2.141 c 3.5,0 5.45,3.656 5.45,10.25 0,6.656 -1.95,10.25 -5.54,10.25 -3.6,0 -5.55,-3.594 -5.55,-10.188 0,-6.812 1.89,-10.312 5.64,-10.312"
         id="path91" />
      <path
         class="Lyrics"
         d="m 1782.1,562.094 v -9.906 h -2.05 c -0.5,6.5 -2.7,9.797 -6.75,10.109 v 1.938 h 4.09 v 12.75 c 0,3.5 0.1,4.75 0.6,5.906 0.81,2.094 2.81,3.25 5.7,3.25 4.5,0 7.41,-3.406 7.41,-8.703 0,-0.297 0,-0.641 -0.05,-1.141 h -2.11 c -0.14,4.5 -1.45,6.797 -3.89,6.797 -1.16,0 -2.16,-0.609 -2.5,-1.453 -0.31,-0.703 -0.45,-1.953 -0.45,-3.75 v -13.656 h 7.34 v -2.141 h -7.34 m 17.25,-12.453 c -1.61,0 -2.91,1.297 -2.91,2.89 0,1.61 1.3,2.907 2.86,2.907 1.64,0 2.94,-1.297 2.94,-2.907 0,-1.593 -1.3,-2.89 -2.89,-2.89 m 2.34,12.453 -9.39,0.547 v 2.156 h 2.55 c 1.89,0.047 2.14,0.344 2.14,2.5 v 14.297 c -0.05,0.75 -0.1,1.047 -0.3,1.297 -0.34,0.453 -1.3,0.656 -3.45,0.703 h -0.35 v 1.797 h 12.96 v -1.797 h -0.36 c -3.35,-0.109 -3.8,-0.359 -3.8,-2.156 v -19.344"
         id="path92" />
      <path
         class="Lyrics"
         d="m 2185.59,585.735 8.7,-0.344 v -2.156 h -0.91 c -2.84,-0.141 -3.09,-0.438 -3.09,-3.641 v -31.063 l -9.8,0.563 v 2.141 h 2.94 c 1.91,0.046 2.16,0.359 2.16,2.5 v 11.312 c -1.85,-2.562 -4,-3.703 -6.91,-3.703 -5.64,0 -9.94,5.453 -9.94,12.641 0,7.109 4.14,12.156 9.94,12.156 3.16,0 5.31,-1.344 6.91,-4.344 v 3.938 m -5.91,-21.688 c 2.06,0 4,1.5 4.91,3.797 0.65,1.5 0.95,3.547 0.95,6 0,5.844 -2.3,9.594 -5.91,9.594 -3.54,0 -5.64,-3.297 -5.64,-8.844 0,-3 0.3,-5.25 0.94,-6.906 0.86,-2.25 2.7,-3.641 4.75,-3.641 m 28.5,-2.703 c -6.14,0 -10.89,5.453 -10.89,12.453 0,6.844 4.8,12.344 10.8,12.344 6,0 10.79,-5.5 10.79,-12.406 0,-6.844 -4.79,-12.391 -10.7,-12.391 m 0,2.141 c 3.5,0 5.45,3.656 5.45,10.25 0,6.656 -1.95,10.25 -5.54,10.25 -3.6,0 -5.55,-3.594 -5.55,-10.188 0,-6.812 1.89,-10.312 5.64,-10.312"
         id="path93" />
      <path
         class="Tempo"
         d="m 473.073,250.17 h -3.266 v 42.266 c -1.094,-0.687 -2.484,-1.094 -4.062,-1.281 -3.563,0 -6.438,0.39 -9.61,2.172 -3.953,2.078 -8.312,6.437 -8.312,11.281 0,4.75 4.265,7.031 8.609,7.031 6.938,0 16.641,-5.937 16.641,-13.469 v -48"
         id="path95" />
      <path
         class="Tempo"
         d="m 494.807,288.124 h 30.234 v -6.907 h -30.234 v 6.907 m 0,12.359 h 30.234 v -6.906 h -30.234 v 6.906 m 72.078,-14.219 c 0,5.688 -0.234,17.453 -8.281,17.453 -1.266,0 -1.984,-0.422 -1.984,-1.203 0,-0.359 0.125,-0.719 0.359,-1.078 1.078,-1.734 1.203,-2.094 1.203,-3.422 0,-2.875 -2.031,-4.859 -5.031,-4.859 -3.313,0 -5.703,2.531 -5.703,6 0,4.687 4.375,7.687 11.156,7.687 13.625,0 18.844,-12.125 18.844,-24 0,-5.515 -1.203,-9.609 -3.719,-13.015 -3.063,-4.094 -7.438,-6.313 -12.484,-6.313 -8.704,0 -15,6.063 -15,14.406 0,7.079 5.046,12.297 11.875,12.297 3.718,0 6.25,-1.14 8.765,-3.953 m -5.156,-19.625 c 4.375,0 4.922,7.375 4.922,10.438 0,5.281 -1.922,8.64 -4.985,8.64 -4.75,0 -5.046,-5.75 -5.046,-9.172 0,-6.546 1.75,-9.906 5.109,-9.906 m 34.234,-3.125 c -9,0 -15.593,9.188 -15.593,21.672 0,12.469 6.593,21.656 15.593,21.656 8.813,0 15.547,-9.187 15.547,-21.359 0,-7.078 -1.625,-12.297 -5.172,-16.75 -2.812,-3.406 -6.359,-5.219 -10.375,-5.219 m -0.062,3.125 c 1.797,0 3.25,1.078 3.906,3 0.781,1.985 1.25,8.281 1.25,15.719 0,6.187 -0.469,12.656 -1.016,14.703 -0.656,2.391 -2.093,3.656 -4.14,3.656 -1.86,0 -3.235,-1.015 -3.953,-3 -0.782,-1.984 -1.266,-8.343 -1.266,-15.531 0,-6.312 0.484,-12.844 1.016,-14.891 0.672,-2.39 2.109,-3.656 4.203,-3.656"
         id="path96" />
      <path
         class="StaffText"
         d="m 1391.2,323.945 h -1.89 l -1.96,3 c -3.25,-2.546 -5.45,-3.406 -9.11,-3.406 -3.95,0 -7.04,1.11 -10.2,3.656 -4.94,4 -7.25,9.047 -7.25,15.797 0,5.11 1.45,9.36 4.41,12.61 3.09,3.5 7.7,5.547 12.5,5.547 4.2,0 7.15,-1.297 10.4,-4.547 l 1.85,4.5 h 2.11 v -11 c 0,-2.547 0,-2.657 0.29,-3.11 0.46,-0.547 1.35,-0.687 4.21,-0.687 h 0.75 v -2.36 h -15.91 v 2.36 h 0.95 c 4.21,0 4.55,0.25 4.55,3.047 0,2.14 -0.34,4.093 -1,5.297 -1.25,2.453 -4.45,4.156 -7.7,4.156 -3.25,0 -6.46,-1.656 -8.16,-4.156 -1.84,-2.797 -2.64,-6.297 -2.64,-11.657 0,-11.14 3.7,-17.093 10.64,-17.093 5.7,0 9.66,4.093 11.7,12.093 h 2.16 l -0.7,-14.047"
         id="path99" />
      <path
         class="StaffText"
         d="m 2207.92,324.945 h -1.9 l -2,2.954 c -3.64,-2.657 -5.5,-3.36 -8.96,-3.36 -4.75,0 -8.79,2 -12.14,6 -3.2,3.813 -4.7,8.016 -4.7,13.156 0,10.797 7.05,18.454 16.91,18.454 8,0 13.09,-4.704 14.25,-13.094 l -2.36,-0.406 c -1.35,7.453 -5.14,11.156 -11.3,11.156 -7.41,0 -10.91,-5.11 -10.91,-15.906 0,-5.704 0.75,-9.454 2.46,-12.454 1.54,-2.796 4.61,-4.546 7.86,-4.546 3.5,0 6.59,1.843 8.5,5.046 0.95,1.657 1.64,3.5 2.84,7.454 h 2.2 l -0.75,-14.454"
         id="path100" />
      <path
         class="StaffText"
         d="m 2009.52,324.945 h -1.9 l -2,2.954 c -3.64,-2.657 -5.5,-3.36 -8.96,-3.36 -4.75,0 -8.79,2 -12.14,6 -3.2,3.813 -4.7,8.016 -4.7,13.156 0,10.797 7.05,18.454 16.91,18.454 8,0 13.09,-4.704 14.25,-13.094 l -2.36,-0.406 c -1.35,7.453 -5.14,11.156 -11.3,11.156 -7.41,0 -10.91,-5.11 -10.91,-15.906 0,-5.704 0.75,-9.454 2.46,-12.454 1.54,-2.796 4.61,-4.546 7.86,-4.546 3.5,0 6.59,1.843 8.5,5.046 0.95,1.657 1.64,3.5 2.84,7.454 h 2.2 l -0.75,-14.454"
         id="path101" />
      <path
         class="StaffText"
         d="m 2384.76,325.289 v 2.36 h 0.91 c 2.84,0.046 3.79,0.203 4.18,0.703 0.32,0.437 0.32,0.547 0.32,3.093 v 23.797 c 0,2.563 0,2.657 -0.32,3.11 -0.39,0.5 -1.34,0.703 -4.18,0.703 h -0.91 v 2.344 h 18.16 c 8.64,0 13.84,-3.657 13.84,-9.797 0,-5 -3.14,-7.86 -10,-9.047 2.41,-0.5 3.5,-0.953 4.8,-1.906 2.06,-1.547 3.31,-4 3.31,-6.5 0,-3.25 -2,-6.407 -4.91,-7.657 -1.79,-0.797 -4.29,-1.203 -7.25,-1.203 h -17.95 m 11,16.266 v -11.406 c 0,-1.954 0.66,-2.454 3.3,-2.5 h 2 c 4.9,0 8,1.593 8,7.046 0,4.954 -2.39,6.86 -8.85,6.86 h -4.45 m 0,2.344 h 4.41 c 7.64,0 10.45,2.046 10.45,7.546 0,6.704 -4.2,7.61 -9.86,7.61 h -2.09 c -2.5,0 -3,-0.5 -2.91,-3.156 v -12"
         id="path102" />
      <path
         class="StaffText"
         d="m 2610.46,318.402 h -2.11 l -11.5,29.14 c -1.35,3.907 -2.64,5.11 -5.5,5.313 h -0.2 v 2.344 h 13.25 v -2.344 h -1 c -2.69,0 -4.05,-0.953 -4.05,-2.86 0,-0.64 0.15,-1.25 0.45,-2.093 l 1.66,-4.407 h 13.25 l 2.7,6.704 c 0.3,0.796 0.39,1.093 0.39,1.343 0,0.813 -1.25,1.313 -3.09,1.313 h -2.11 v 2.344 h 15.5 v -2.344 h -0.69 c -2.61,-0.063 -3.06,-0.36 -4.2,-3.203 l -12.75,-31.25 m -2.46,8.187 5.65,14.203 h -11.19 l 5.54,-14.203"
         id="path103" />
      <path
         class="StaffText"
         d="m 978.615,325.289 h -30.047 v 2.36 h 0.891 c 2.859,0.046 3.812,0.203 4.203,0.703 0.297,0.437 0.297,0.547 0.297,3.093 v 23.797 c 0,2.563 0,2.657 -0.297,3.11 -0.391,0.5 -1.344,0.703 -4.203,0.703 h -0.891 v 2.344 h 30.703 l 1,-13.344 h -2.203 c -1.906,8.89 -3.953,10.797 -11.609,11 h -3.297 c -3,-0.11 -3.75,-0.61 -3.594,-2.406 v -12.75 h 1 c 5.141,-0.204 7,1.656 7.203,7.203 h 2.344 v -16.407 h -2.344 c -0.312,4.907 -2.25,6.86 -7,6.86 h -1.203 v -11.406 c -0.047,-2.11 0.453,-2.454 3.141,-2.5 h 2.609 c 8.203,-0.047 10.25,1.75 11.844,10.406 h 2.156 l -0.703,-12.766"
         id="path106" />
      <path
         class="StaffText"
         d="m 742.278,361.399 h 16.796 c 4.454,0 7.86,-0.704 10.5,-2.204 5.047,-2.843 7.86,-8.546 7.86,-16.046 0,-6.907 -2.5,-12.297 -7.11,-15.297 -2.75,-1.75 -6.453,-2.563 -12.156,-2.563 h -15.89 v 2.36 h 0.953 c 2.797,0.046 3.75,0.203 4.14,0.703 0.297,0.437 0.297,0.547 0.297,3.093 v 23.797 c 0,2.563 0,2.657 -0.297,3.11 -0.39,0.5 -1.343,0.64 -4.14,0.703 h -0.953 v 2.344 m 13.843,-2.344 c -2.547,0 -2.843,-0.313 -2.843,-2.75 v -25.86 c 0,-2.453 0.343,-2.796 2.843,-2.796 h 2.61 c 8.547,0 12.093,4.64 12.093,15.703 0,11.203 -3.203,15.703 -11.296,15.703 h -3.407"
         id="path107" />
      <path
         class="StaffText"
         d="m 565.487,324.945 h -1.907 l -2,2.954 c -3.64,-2.657 -5.5,-3.36 -8.953,-3.36 -4.75,0 -8.797,2 -12.14,6 -3.203,3.813 -4.703,8.016 -4.703,13.156 0,10.797 7.046,18.454 16.906,18.454 8,0 13.094,-4.704 14.25,-13.094 l -2.36,-0.406 c -1.343,7.453 -5.14,11.156 -11.296,11.156 -7.407,0 -10.907,-5.11 -10.907,-15.906 0,-5.704 0.75,-9.454 2.453,-12.454 1.547,-2.796 4.61,-4.546 7.86,-4.546 3.5,0 6.594,1.843 8.5,5.046 0.953,1.657 1.64,3.5 2.844,7.454 h 2.203 l -0.75,-14.454"
         id="path108" />
      <path
         class="StaffText"
         d="m 1773.78,325.289 v 2.36 h 0.9 c 2.85,0.046 3.8,0.203 4.19,0.703 0.31,0.437 0.31,0.547 0.31,3.093 v 23.797 c 0,2.563 0,2.657 -0.31,3.11 -0.39,0.5 -1.34,0.703 -4.19,0.703 h -0.9 v 2.344 h 18.15 c 8.65,0 13.85,-3.657 13.85,-9.797 0,-5 -3.14,-7.86 -10,-9.047 2.4,-0.5 3.5,-0.953 4.8,-1.906 2.06,-1.547 3.31,-4 3.31,-6.5 0,-3.25 -2,-6.407 -4.91,-7.657 -1.8,-0.797 -4.3,-1.203 -7.25,-1.203 h -17.95 m 11,16.266 v -11.406 c 0,-1.954 0.65,-2.454 3.3,-2.5 h 2 c 4.9,0 8,1.593 8,7.046 0,4.954 -2.4,6.86 -8.85,6.86 h -4.45 m 0,2.344 h 4.4 c 7.65,0 10.46,2.046 10.46,7.546 0,6.704 -4.21,7.61 -9.86,7.61 h -2.1 c -2.5,0 -3,-0.5 -2.9,-3.156 v -12"
         id="path109" />
      <path
         class="StaffText"
         d="m 1586.89,318.402 h -2.11 l -11.5,29.14 c -1.34,3.907 -2.64,5.11 -5.5,5.313 h -0.2 v 2.344 h 13.25 v -2.344 h -1 c -2.69,0 -4.05,-0.953 -4.05,-2.86 0,-0.64 0.16,-1.25 0.46,-2.093 l 1.65,-4.407 h 13.25 l 2.71,6.704 c 0.29,0.796 0.39,1.093 0.39,1.343 0,0.813 -1.25,1.313 -3.1,1.313 h -2.11 v 2.344 h 15.5 v -2.344 h -0.68 c -2.61,-0.063 -3.07,-0.36 -4.21,-3.203 l -12.75,-31.25 m -2.45,8.187 5.64,14.203 h -11.19 l 5.55,-14.203"
         id="path110" />
      <path
         class="StaffText"
         d="m 1184.61,325.289 h -29.75 v 2.36 h 0.89 c 2.86,0.046 3.81,0.203 4.2,0.703 0.3,0.437 0.3,0.547 0.3,3.093 v 23.797 c 0,2.563 0,2.657 -0.3,3.11 -0.39,0.5 -1.34,0.703 -4.2,0.703 h -0.89 v 2.344 H 1172 v -2.344 h -1.64 c -2.86,0 -3.8,-0.203 -4.2,-0.703 -0.3,-0.453 -0.3,-0.61 -0.3,-3.11 v -11.343 h 1 c 5.14,-0.204 7,1.656 7.2,7.203 h 2.35 v -16.407 h -2.35 c -0.31,4.907 -2.25,6.797 -7,6.86 h -1.2 v -11.406 c -0.05,-2.11 0.45,-2.454 3.14,-2.5 h 2.31 c 8.21,-0.047 10.25,1.796 11.8,10.406 h 2.2 l -0.7,-12.766"
         id="path112" />
    </g>
  </g>
  <metadata
     id="metadata114">
    <rdf:RDF>
      <cc:Work
         rdf:about="">
        <dc:title>27</dc:title>
      </cc:Work>
    </rdf:RDF>
  </metadata>
</svg>
