<?xml version="1.0" encoding="UTF-8" standalone="no"?>
<svg
   width="2555"
   height="400"
   viewBox="0 0 2555 400.00001"
   version="1.2"
   id="svg103"
   sodipodi:docname="30.svg"
   inkscape:version="1.3 (0e150ed6c4, 2023-07-21)"
   xmlns:inkscape="http://www.inkscape.org/namespaces/inkscape"
   xmlns:sodipodi="http://sodipodi.sourceforge.net/DTD/sodipodi-0.dtd"
   xmlns="http://www.w3.org/2000/svg"
   xmlns:svg="http://www.w3.org/2000/svg"
   xmlns:rdf="http://www.w3.org/1999/02/22-rdf-syntax-ns#"
   xmlns:cc="http://creativecommons.org/ns#"
   xmlns:dc="http://purl.org/dc/elements/1.1/">
  <defs
     id="defs103" />
  <sodipodi:namedview
     id="namedview103"
     pagecolor="#505050"
     bordercolor="#ffffff"
     borderopacity="1"
     inkscape:showpageshadow="0"
     inkscape:pageopacity="0"
     inkscape:pagecheckerboard="1"
     inkscape:deskcolor="#505050"
     inkscape:zoom="0.18605646"
     inkscape:cx="1486.108"
     inkscape:cy="1244.2459"
     inkscape:window-width="1680"
     inkscape:window-height="979"
     inkscape:window-x="1358"
     inkscape:window-y="-8"
     inkscape:window-maximized="1"
     inkscape:current-layer="svg103" />
  <title
     id="title1">30</title>
  <desc
     id="desc1">Generated by MuseScore Studio 4.3.0</desc>
  <g
     id="g103"
     transform="translate(-209.6,-217.6555)">
    <polyline
       class="StaffLines"
       fill="none"
       stroke="#000000"
       stroke-width="2.73"
       stroke-linejoin="bevel"
       points="336.599,386.199 2764.6,386.199"
       id="polyline1" />
    <polyline
       class="StaffLines"
       fill="none"
       stroke="#000000"
       stroke-width="2.73"
       stroke-linejoin="bevel"
       points="336.599,410.999 2764.6,410.999"
       id="polyline2" />
    <polyline
       class="StaffLines"
       fill="none"
       stroke="#000000"
       stroke-width="2.73"
       stroke-linejoin="bevel"
       points="336.599,435.799 2764.6,435.799"
       id="polyline3" />
    <polyline
       class="StaffLines"
       fill="none"
       stroke="#000000"
       stroke-width="2.73"
       stroke-linejoin="bevel"
       points="336.599,460.599 2764.6,460.599"
       id="polyline4" />
    <polyline
       class="StaffLines"
       fill="none"
       stroke="#000000"
       stroke-width="2.73"
       stroke-linejoin="bevel"
       points="336.599,485.399 2764.6,485.399"
       id="polyline5" />
    <polyline
       class="BarLine"
       fill="none"
       stroke="#000000"
       stroke-width="4.46"
       stroke-linejoin="bevel"
       points="1352.07,384.835 1352.07,486.763"
       id="polyline6" />
    <polyline
       class="BarLine"
       fill="none"
       stroke="#000000"
       stroke-width="4.46"
       stroke-linejoin="bevel"
       points="797.08,384.835 797.08,486.763"
       id="polyline7" />
    <polyline
       class="BarLine"
       fill="none"
       stroke="#000000"
       stroke-width="4.46"
       stroke-linejoin="bevel"
       points="1944.11,384.835 1944.11,486.763"
       id="polyline8" />
    <polyline
       class="BarLine"
       fill="none"
       stroke="#000000"
       stroke-width="4.46"
       stroke-linejoin="bevel"
       points="1611.05,384.835 1611.05,486.763"
       id="polyline9" />
    <polyline
       class="BarLine"
       fill="none"
       stroke="#000000"
       stroke-width="4.46"
       stroke-linejoin="bevel"
       points="2277.17,384.835 2277.17,486.763"
       id="polyline10" />
    <polyline
       class="BarLine"
       fill="none"
       stroke="#000000"
       stroke-width="4.46"
       stroke-linejoin="bevel"
       points="2739.55,384.835 2739.55,486.763"
       id="polyline11" />
    <polyline
       class="BarLine"
       fill="none"
       stroke="#000000"
       stroke-width="13.64"
       stroke-linejoin="bevel"
       points="2757.78,384.835 2757.78,486.763"
       id="polyline12" />
    <polyline
       class="BarLine"
       fill="none"
       stroke="#000000"
       stroke-width="4.46"
       stroke-linejoin="bevel"
       points="1056.05,384.835 1056.05,486.763"
       id="polyline13" />
    <polyline
       class="BarLine"
       fill="none"
       stroke="#000000"
       stroke-width="4.46"
       stroke-linejoin="bevel"
       points="2536.15,384.835 2536.15,486.763"
       id="polyline14" />
    <polyline
       class="LedgerLine"
       fill="none"
       stroke="#000000"
       stroke-width="3.97"
       stroke-linejoin="bevel"
       points="2562.44,510.199 2611.04,510.199"
       id="polyline15" />
    <polyline
       class="Stem"
       fill="none"
       stroke="#000000"
       stroke-width="2.48"
       stroke-linejoin="bevel"
       points="1824.69,456.631 1824.69,386.299"
       id="polyline16" />
    <polyline
       class="Stem"
       fill="none"
       stroke="#000000"
       stroke-width="2.48"
       stroke-linejoin="bevel"
       points="1676.51,456.631 1676.51,386.098"
       id="polyline17" />
    <polyline
       class="Stem"
       fill="none"
       stroke="#000000"
       stroke-width="2.48"
       stroke-linejoin="bevel"
       points="2342.64,481.431 2342.64,398.599"
       id="polyline18" />
    <polyline
       class="Stem"
       fill="none"
       stroke="#000000"
       stroke-width="2.48"
       stroke-linejoin="bevel"
       points="566.526,456.631 566.526,373.799"
       id="polyline19" />
    <polyline
       class="Stem"
       fill="none"
       stroke="#000000"
       stroke-width="2.48"
       stroke-linejoin="bevel"
       points="2601.61,506.231 2601.61,423.399"
       id="polyline20" />
    <polyline
       class="Stem"
       fill="none"
       stroke="#000000"
       stroke-width="2.48"
       stroke-linejoin="bevel"
       points="751.751,444.231 751.751,380.099"
       id="polyline21" />
    <polyline
       class="Stem"
       fill="none"
       stroke="#000000"
       stroke-width="2.48"
       stroke-linejoin="bevel"
       points="2231.84,469.031 2231.84,404.899"
       id="polyline22" />
    <polyline
       class="Stem"
       fill="none"
       stroke="#000000"
       stroke-width="2.48"
       stroke-linejoin="bevel"
       points="677.661,469.031 677.661,386.098"
       id="polyline23" />
    <polyline
       class="Stem"
       fill="none"
       stroke="#000000"
       stroke-width="2.48"
       stroke-linejoin="bevel"
       points="2453.77,493.831 2453.77,410.999"
       id="polyline24" />
    <polyline
       class="Stem"
       fill="none"
       stroke="#000000"
       stroke-width="2.48"
       stroke-linejoin="bevel"
       points="2157.75,481.431 2157.75,410.898"
       id="polyline25" />
    <polyline
       class="Stem"
       fill="none"
       stroke="#000000"
       stroke-width="2.48"
       stroke-linejoin="bevel"
       points="862.545,456.631 862.545,373.799"
       id="polyline26" />
    <polyline
       class="Stem"
       fill="none"
       stroke="#000000"
       stroke-width="2.48"
       stroke-linejoin="bevel"
       points="1121.52,456.631 1121.52,373.799"
       id="polyline27" />
    <polyline
       class="Stem"
       fill="none"
       stroke="#000000"
       stroke-width="2.48"
       stroke-linejoin="bevel"
       points="2009.57,481.431 2009.57,411.099"
       id="polyline28" />
    <polyline
       class="Stem"
       fill="none"
       stroke="#000000"
       stroke-width="2.48"
       stroke-linejoin="bevel"
       points="2083.66,493.831 2083.66,417.098"
       id="polyline29" />
    <polyline
       class="Stem"
       fill="none"
       stroke="#000000"
       stroke-width="2.48"
       stroke-linejoin="bevel"
       points="1232.65,469.031 1232.65,386.098"
       id="polyline30" />
    <polyline
       class="Stem"
       fill="none"
       stroke="#000000"
       stroke-width="2.48"
       stroke-linejoin="bevel"
       points="1750.6,444.231 1750.6,380.099"
       id="polyline31" />
    <polyline
       class="Stem"
       fill="none"
       stroke="#000000"
       stroke-width="2.48"
       stroke-linejoin="bevel"
       points="1306.74,444.231 1306.74,380.099"
       id="polyline32" />
    <polyline
       class="Stem"
       fill="none"
       stroke="#000000"
       stroke-width="2.48"
       stroke-linejoin="bevel"
       points="1898.78,469.031 1898.78,392.298"
       id="polyline33" />
    <polyline
       class="Stem"
       fill="none"
       stroke="#000000"
       stroke-width="2.48"
       stroke-linejoin="bevel"
       points="1417.54,456.631 1417.54,373.799"
       id="polyline34" />
    <path
       class="Note"
       d="m 535.534,464.76851 c 0,4.2625 3.069,9.02103 11.11349,9.02103 10.30758,0 21.12654,-8.43203 21.12654,-17.15854 0,-5.85901 -4.96,-9.12949 -11.11348,-9.12949 -9.62549,0 -21.12655,8.13748 -21.12655,17.267"
       id="path34"
       style="stroke-width:0.992001" />
    <path
       class="Note"
       d="m 1978.58,489.56851 c 0,4.2625 3.069,9.02103 11.1135,9.02103 10.3076,0 21.1265,-8.43203 21.1265,-17.15854 0,-5.85901 -4.96,-9.12949 -11.1135,-9.12949 -9.6254,0 -21.1265,8.13748 -21.1265,17.267"
       id="path35"
       style="stroke-width:0.992001" />
    <path
       class="Note"
       d="m 1867.79,477.16851 c 0,4.2625 3.069,9.02103 11.1135,9.02103 10.3076,0 21.1265,-8.43203 21.1265,-17.15854 0,-5.85901 -4.96,-9.12949 -11.1135,-9.12949 -9.6254,0 -21.1265,8.13748 -21.1265,17.267"
       id="path36"
       style="stroke-width:0.992001" />
    <path
       class="Note"
       d="m 1386.54,464.76851 c 0,4.2625 3.069,9.02103 11.1135,9.02103 10.3076,0 21.1265,-8.43203 21.1265,-17.15854 0,-5.85901 -4.96,-9.12949 -11.1135,-9.12949 -9.6254,0 -21.1265,8.13748 -21.1265,17.267"
       id="path37"
       style="stroke-width:0.992001" />
    <path
       class="Note"
       d="m 1201.66,477.16851 c 0,4.2625 3.069,9.02103 11.1135,9.02103 10.3076,0 21.1265,-8.43203 21.1265,-17.15854 0,-5.85901 -4.96,-9.12949 -11.1135,-9.12949 -9.6254,0 -21.1265,8.13748 -21.1265,17.267"
       id="path38"
       style="stroke-width:0.992001" />
    <path
       class="Note"
       d="m 2052.67,501.96851 c 0,4.2625 3.069,9.02103 11.1135,9.02103 10.3076,0 21.1265,-8.43203 21.1265,-17.15854 0,-5.85901 -4.96,-9.12949 -11.1135,-9.12949 -9.6254,0 -21.1265,8.13748 -21.1265,17.267"
       id="path39"
       style="stroke-width:0.992001" />
    <path
       class="Note"
       d="m 831.552,464.76851 c 0,4.2625 3.069,9.02103 11.11349,9.02103 10.30758,0 21.12654,-8.43203 21.12654,-17.15854 0,-5.85901 -4.96,-9.12949 -11.11348,-9.12949 -9.62549,0 -21.12655,8.13748 -21.12655,17.267"
       id="path40"
       style="stroke-width:0.992001" />
    <path
       class="Note"
       d="m 2126.76,489.56851 c 0,4.2625 3.069,9.02103 11.1135,9.02103 10.3076,0 21.1265,-8.43203 21.1265,-17.15854 0,-5.85901 -4.96,-9.12949 -11.1135,-9.12949 -9.6254,0 -21.1265,8.13748 -21.1265,17.267"
       id="path41"
       style="stroke-width:0.992001" />
    <path
       class="Note"
       d="m 1275.75,452.36851 c 0,4.2625 3.069,9.02103 11.1135,9.02103 10.3076,0 21.1265,-8.43203 21.1265,-17.15854 0,-5.85901 -4.96,-9.12949 -11.1135,-9.12949 -9.6254,0 -21.1265,8.13748 -21.1265,17.267"
       id="path42"
       style="stroke-width:0.992001" />
    <path
       class="Note"
       d="m 720.758,452.36851 c 0,4.2625 3.069,9.02103 11.11349,9.02103 10.30758,0 21.12654,-8.43203 21.12654,-17.15854 0,-5.85901 -4.96,-9.12949 -11.11348,-9.12949 -9.62549,0 -21.12655,8.13748 -21.12655,17.267"
       id="path43"
       style="stroke-width:0.992001" />
    <path
       class="Note"
       d="m 1090.53,464.76851 c 0,4.2625 3.069,9.02103 11.1135,9.02103 10.3076,0 21.1265,-8.43203 21.1265,-17.15854 0,-5.85901 -4.96,-9.12949 -11.1135,-9.12949 -9.6254,0 -21.1265,8.13748 -21.1265,17.267"
       id="path44"
       style="stroke-width:0.992001" />
    <path
       class="Note"
       d="m 1719.61,452.36851 c 0,4.2625 3.069,9.02103 11.1135,9.02103 10.3076,0 21.1265,-8.43203 21.1265,-17.15854 0,-5.85901 -4.96,-9.12949 -11.1135,-9.12949 -9.6254,0 -21.1265,8.13748 -21.1265,17.267"
       id="path45"
       style="stroke-width:0.992001" />
    <path
       class="Note"
       d="m 2422.78,501.96851 c 0,4.2625 3.069,9.02103 11.1135,9.02103 10.3076,0 21.1265,-8.43203 21.1265,-17.15854 0,-5.85901 -4.96,-9.12949 -11.1135,-9.12949 -9.6254,0 -21.1265,8.13748 -21.1265,17.267"
       id="path46"
       style="stroke-width:0.992001" />
    <path
       class="Note"
       d="m 2200.85,477.16851 c 0,4.2625 3.069,9.02103 11.1135,9.02103 10.3076,0 21.1265,-8.43203 21.1265,-17.15854 0,-5.85901 -4.96,-9.12949 -11.1135,-9.12949 -9.6254,0 -21.1265,8.13748 -21.1265,17.267"
       id="path47"
       style="stroke-width:0.992001" />
    <path
       class="Note"
       d="m 1645.52,464.76851 c 0,4.2625 3.069,9.02103 11.1135,9.02103 10.3076,0 21.1265,-8.43203 21.1265,-17.15854 0,-5.85901 -4.96,-9.12949 -11.1135,-9.12949 -9.6254,0 -21.1265,8.13748 -21.1265,17.267"
       id="path48"
       style="stroke-width:0.992001" />
    <path
       class="Note"
       d="m 1793.7,464.76851 c 0,4.2625 3.069,9.02103 11.1135,9.02103 10.3076,0 21.1265,-8.43203 21.1265,-17.15854 0,-5.85901 -4.96,-9.12949 -11.1135,-9.12949 -9.6254,0 -21.1265,8.13748 -21.1265,17.267"
       id="path49"
       style="stroke-width:0.992001" />
    <path
       class="Note"
       d="m 646.668,477.16851 c 0,4.2625 3.069,9.02103 11.11349,9.02103 10.30758,0 21.12654,-8.43203 21.12654,-17.15854 0,-5.85901 -4.96,-9.12949 -11.11348,-9.12949 -9.62549,0 -21.12655,8.13748 -21.12655,17.267"
       id="path50"
       style="stroke-width:0.992001" />
    <path
       class="Note"
       d="m 2591.7465,497.10151 c -9.6254,0 -21.1265,8.04448 -21.1265,17.267 0,4.2625 3.069,9.02103 11.1135,9.02103 10.3076,0 21.1265,-8.43203 21.1265,-17.15854 0,-5.85901 -4.96,-9.12949 -11.1135,-9.12949 m -13.6865,21.6225 c -3.2705,0 -3.968,-2.666 -3.968,-3.56501 0,-4.867 16.6625,-13.39201 21.328,-13.39201 2.3871,0 3.968,1.395 3.968,3.56501 0,4.96 -16.7709,13.39201 -21.328,13.39201"
       id="path51"
       style="stroke-width:0.992001" />
    <path
       class="Note"
       d="m 2311.65,489.56851 c 0,4.2625 3.069,9.02103 11.1135,9.02103 10.3076,0 21.1265,-8.43203 21.1265,-17.15854 0,-5.85901 -4.96,-9.12949 -11.1135,-9.12949 -9.6254,0 -21.1265,8.13748 -21.1265,17.267"
       id="path52"
       style="stroke-width:0.992001" />
    <path
       class="Clef"
       d="m 367.39754,511.48558 c 0,6.55653 4.96,15.19001 18.35202,15.19001 4.66548,0 8.742,-1.19347 12.30696,-3.37905 5.36305,-3.76643 6.74253,-10.32296 6.74253,-16.56949 0,-3.85948 -0.58895,-8.32349 -1.58095,-13.98097 -0.29453,-1.984 -0.89905,-4.96 -1.488,-8.83506 9.71843,-3.17747 16.95696,-13.29896 16.95696,-23.51352 0,-14.97304 -10.61748,-25.09453 -25.09455,-25.09453 -0.992,-5.952 -1.984,-11.81106 -2.77442,-17.36001 10.41601,-11.02054 17.65444,-23.42055 17.65444,-39.18404 0,-9.03654 -2.77443,-16.36802 -4.37096,-19.94815 -2.37147,-5.05325 -5.25453,-8.52526 -7.03705,-8.52526 -0.69748,0 -3.76643,1.19338 -7.03696,5.05326 -6.35506,7.54813 -8.13748,20.24267 -8.13748,28.56615 0,5.36296 0.496,10.23001 2.18547,21.3435 -0.10852,0.0931 -5.27,5.34748 -7.34705,7.03706 -9.03644,8.33895 -21.5295,20.42897 -21.5295,40.28451 0,18.53807 16.16654,33.12356 34.62708,33.12356 2.86748,0 5.54896,-0.29453 7.82749,-0.69748 1.89095,9.53244 3.08453,16.47645 3.08453,21.73098 0,10.32306 -5.36306,15.77906 -15.37602,15.77906 -2.38705,0 -4.464,-0.496 -4.66558,-0.496 -0.093,-0.10852 -0.29442,-0.20157 -0.29442,-0.29452 0,-0.20148 0.20147,-0.31 0.496,-0.31 4.66548,-0.79053 9.31548,-4.75853 9.31548,-11.09802 0,-5.36305 -4.06105,-11.02053 -11.50106,-11.02053 -6.94401,0 -11.31496,5.65748 -11.31496,12.19854 m 20.73897,-132.43214 c 0.89905,-3.968 5.456,-14.38401 10.61758,-14.38401 1.48801,0 3.85948,4.75843 3.85948,11.70244 0,10.32306 -7.62601,18.05759 -14.47706,24.80002 -0.58895,-3.968 -1.08495,-7.82748 -1.08495,-11.99696 0,-3.67348 0.29452,-7.05253 1.08495,-10.12149 m 8.72653,101.97463 c -1.984,0.40295 -3.85948,0.60443 -5.75053,0.60443 -14.18244,0 -26.288,-9.92001 -26.288,-24.9085 0,-12.09007 8.52503,-22.90903 17.26704,-30.45756 1.674,-1.488 3.27053,-2.86748 4.75853,-4.35548 0.88348,5.34748 1.58095,10.01296 2.27843,14.08949 -9.03644,2.68148 -15.17444,12.19854 -15.17444,21.52955 0,6.944 5.456,16.46101 13.39201,16.46101 0.79043,0 1.68948,-0.40295 1.68948,-1.28652 0,-0.89895 -0.992,-1.39495 -2.18548,-2.18548 -3.87505,-2.387 -6.06053,-4.96 -6.06053,-9.82701 0,-6.04501 4.57253,-10.91206 10.32296,-12.29154 l 5.75053,32.62761 M 410.95253,462.676 c 0,7.05251 -2.88295,14.29102 -9.92001,17.17407 -2.07695,-11.90406 -4.75843,-27.68308 -5.456,-32.05413 8.928,0 15.37601,6.06055 15.37601,14.88006"
       id="path53"
       style="stroke-width:0.992001" />
    <path
       class="TimeSig"
       d="m 479.29151,415.37 c -0.79043,2.17001 -2.77443,9.31554 -7.64148,9.31554 -6.44801,0 -7.84296,-3.96803 -13.19054,-3.96803 -0.79043,0 -1.59643,0.1085 -2.58843,0.2945 0,0 2.48,-3.7665 13.00444,-7.03701 10.50906,-3.2705 13.19054,-8.43201 13.19054,-14.38401 0,-4.16948 -1.87548,-12.40001 -16.86402,-12.40001 -14.97302,0 -17.76302,9.02095 -17.76302,13.59348 0,4.06103 3.37901,7.33154 7.44001,7.33154 4.07648,0 7.34701,-3.27051 7.34701,-7.33154 0,-2.77452 -1.984,-5.85895 -4.55696,-6.85095 -0.31,-0.0931 -0.69757,-0.58905 -0.69757,-1.08505 0,-0.60453 0.496,-1.28653 2.27852,-1.78253 0.496,-0.20148 1.89106,-0.496 3.37906,-0.496 5.642,0 6.74243,3.472 6.74243,8.52506 0,11.60951 -13.79496,14.08952 -19.5455,22.72307 0,0 -2.976,4.154 -2.976,8.81948 0,4.66548 2.387,4.96001 3.56501,4.96001 1.5965,0 3.286,-1.28653 3.286,-3.06905 0,-0.40295 -0.1085,-0.79043 -0.31,-1.28643 -0.589,-1.39505 -0.7905,-2.48 -0.7905,-3.286 0,-0.29453 0,-0.58905 0.1085,-0.88358 0.093,-0.60443 0.8835,-1.59643 3.27048,-1.59643 2.86757,0 3.968,3.37896 5.75053,5.95201 1.78252,2.58843 4.55705,4.16948 7.73453,4.16948 3.17748,0 7.44001,-2.27853 9.23801,-5.95201 1.78253,-3.67348 4.06095,-11.11353 4.06095,-13.77954 0,-1.302 -0.79042,-1.891 -1.68947,-1.891 -0.69748,0 -1.37948,0.403 -1.78253,1.395"
       id="path54"
       style="stroke-width:0.992001" />
    <path
       class="TimeSig"
       d="m 462.72255,473.20049 v 7.33158 h -8.23054 c -0.69747,0 -1.39495,0.60443 -1.39495,1.39495 v 1.89105 c 0,0.79043 0.69748,1.37948 1.39495,1.37948 h 30.05456 c 0.806,0 1.39495,-0.58905 1.39495,-1.37948 v -1.89105 c 0,-0.79052 -0.58895,-1.39495 -1.39495,-1.39495 h -8.81949 v -7.33158 h 8.81949 c 0.806,0 1.39495,-0.69748 1.39495,-1.488 v -1.89098 c 0,-0.6975 -0.58895,-1.3795 -1.39495,-1.3795 h -8.81949 v -15.77902 c 0,-0.589 -0.29452,-1.085 -0.79052,-1.2865 l -1.19348,-0.6045 c -0.20157,-0.093 -0.496,-0.18605 -0.69757,-0.18605 -0.29443,0.0931 -0.69748,0.18605 -0.89895,0.38755 l -9.02106,8.23051 c -0.29443,0.31 -0.40295,0.6975 -0.40295,1.1005 v 8.13751 h -11.40804 c 0,0 11.02056,-11.90401 22.723,-27.59008 0.40305,-0.496 0.496,-0.992 0.496,-1.37948 0,-0.496 -0.20148,-0.89895 -0.29443,-0.992 l -2.18557,-2.18547 c -0.20148,-0.20148 -0.58896,-0.40305 -0.99201,-0.40305 -0.58895,0 -13.99644,0 -14.67844,0 -0.806,0 -1.302,0.60452 -1.39505,1.19357 0,0 -0.496,7.34696 -3.069,15.37599 -2.5885,8.04451 -5.5645,13.00451 -8.1375,16.66252 0,0 -0.29451,0.496 -0.29451,1.1005 0,0.2015 0,0.38755 0.093,0.58903 0.403,0.69747 0.992,1.78252 0.992,1.78252 0,0 0.20151,0.60443 1.085,0.60443 h 17.06555"
       id="path55"
       style="stroke-width:0.992001" />
    <path
       class="Rest"
       d="m 965.50302,452.26007 c -0.0929,-0.0931 -0.29452,-0.29453 -0.58895,-0.682 l -11.40801,-14.08956 c -0.10852,-0.10851 -0.20157,-0.403 -0.20157,-0.60451 0,-0.2945 0.0931,-0.682 0.20157,-0.8835 l 10.10601,-15.28299 c 0.10843,-0.20158 0.20148,-0.496 0.20148,-0.69758 v -0.88347 c 0,-0.29453 -0.093,-0.60453 -0.29453,-0.79053 l -16.07351,-21.73097 c 0,0 -0.38751,-0.60452 -0.992,-0.60452 -0.29451,0 -0.496,0 -0.79051,0.31 -0.403,0.29452 -0.496,0.682 -0.496,0.992 0,0.58905 0.29451,1.08505 0.29451,1.08505 l 7.54855,10.32296 c 0.186,0.29452 0.29443,0.682 0.29443,1.178 0,0.40305 -0.10843,0.89905 -0.29443,1.19348 l -10.02856,15.28306 c -0.093,0.2015 -0.2015,0.589 -0.2015,0.7905 v 0.899 c 0,0.2945 0.1085,0.589 0.31,0.7905 l 11.09806,13.79502 c -0.38757,-0.1085 -1.28652,-0.31 -2.48005,-0.31 -5.05301,0 -9.02101,4.16953 -9.02101,9.23806 0,1.37947 0.2945,2.77442 1.085,3.85947 2.09251,3.17748 9.53249,12.60149 9.53249,12.60149 0,0 0.496,0.60453 1.19357,0.60453 0.186,0 0.38748,0 0.58895,-0.20148 0.496,-0.40305 0.69748,-0.79052 0.69748,-1.19357 0,-0.40295 -0.20148,-0.69748 -0.29443,-0.89895 -0.31,-0.496 -3.47205,-6.24654 -3.47205,-6.24654 0,0 -0.6975,-1.39495 -0.6975,-3.17747 0,-3.17748 2.37155,-5.75053 5.54903,-5.75053 1.28653,0 2.38695,0.40305 3.17748,0.89905 l 3.87505,2.48 c 0,0 0.38748,0.186 0.79043,0.186 0.38757,0 0.69757,-0.0931 0.992,-0.496 0.20157,-0.29453 0.29452,-0.58905 0.29452,-0.88358 0,-0.29442 -0.0929,-0.496 -0.29452,-0.79042 l -0.20148,-0.31"
       id="path56"
       style="stroke-width:0.992001" />
    <path
       class="Rest"
       d="m 1520.496,452.26007 c -0.093,-0.0931 -0.2945,-0.29453 -0.5889,-0.682 l -11.408,-14.08956 c -0.1086,-0.10851 -0.2016,-0.403 -0.2016,-0.60451 0,-0.2945 0.093,-0.682 0.2016,-0.8835 l 10.106,-15.28299 c 0.1084,-0.20158 0.2014,-0.496 0.2014,-0.69758 v -0.88347 c 0,-0.29453 -0.093,-0.60453 -0.2945,-0.79053 l -16.0735,-21.73097 c 0,0 -0.3875,-0.60452 -0.992,-0.60452 -0.2945,0 -0.496,0 -0.7905,0.31 -0.403,0.29452 -0.496,0.682 -0.496,0.992 0,0.58905 0.2945,1.08505 0.2945,1.08505 l 7.5486,10.32296 c 0.186,0.29452 0.2944,0.682 0.2944,1.178 0,0.40305 -0.1084,0.89905 -0.2944,1.19348 l -10.0286,15.28306 c -0.093,0.2015 -0.2015,0.589 -0.2015,0.7905 v 0.899 c 0,0.2945 0.1085,0.589 0.31,0.7905 l 11.0981,13.79502 c -0.3876,-0.1085 -1.2866,-0.31 -2.4801,-0.31 -5.053,0 -9.021,4.16953 -9.021,9.23806 0,1.37947 0.2945,2.77442 1.085,3.85947 2.0925,3.17748 9.5325,12.60149 9.5325,12.60149 0,0 0.496,0.60453 1.1936,0.60453 0.186,0 0.3874,0 0.5889,-0.20148 0.496,-0.40305 0.6975,-0.79052 0.6975,-1.19357 0,-0.40295 -0.2015,-0.69748 -0.2944,-0.89895 -0.31,-0.496 -3.4721,-6.24654 -3.4721,-6.24654 0,0 -0.6975,-1.39495 -0.6975,-3.17747 0,-3.17748 2.3716,-5.75053 5.549,-5.75053 1.2866,0 2.387,0.40305 3.1775,0.89905 l 3.8751,2.48 c 0,0 0.3874,0.186 0.7904,0.186 0.3876,0 0.6976,-0.0931 0.992,-0.496 0.2016,-0.29453 0.2945,-0.58905 0.2945,-0.88358 0,-0.29442 -0.093,-0.496 -0.2945,-0.79042 l -0.2015,-0.31"
       id="path57"
       style="stroke-width:0.992001" />
    <path
       class="Beam"
       fill-rule="evenodd"
       d="m 1823.45,379.978 76.57,6.2 v 12.441 l -76.57,-6.2 v -12.441"
       id="path58" />
    <path
       class="Beam"
       fill-rule="evenodd"
       d="m 2008.33,404.778 76.57,6.2 v 12.441 l -76.57,-6.2 v -12.441"
       id="path59" />
    <path
       class="Beam"
       fill-rule="evenodd"
       d="m 676.421,379.978 76.57,-6.2 v 12.441 l -76.57,6.2 v -12.441"
       id="path60" />
    <path
       class="Beam"
       fill-rule="evenodd"
       d="m 1231.41,379.978 76.57,-6.2 v 12.441 l -76.57,6.2 v -12.441"
       id="path61" />
    <path
       class="Beam"
       fill-rule="evenodd"
       d="m 1675.27,379.978 76.57,-6.2 v 12.441 l -76.57,6.2 v -12.441"
       id="path62" />
    <path
       class="Beam"
       fill-rule="evenodd"
       d="m 2156.51,404.778 76.57,-6.2 v 12.441 l -76.57,6.2 v -12.441"
       id="path63" />
    <path
       class="Lyrics"
       d="m 2055.19,562.094 -8.85,0.547 v 2.156 h 2.04 c 1.91,0.047 2.16,0.344 2.16,2.5 v 14.297 c -0.05,0.75 -0.1,1.047 -0.3,1.297 -0.36,0.453 -1.36,0.656 -3.5,0.703 h -0.2 v 1.797 h 13.34 v -1.797 h -0.89 c -3.36,-0.109 -3.8,-0.359 -3.8,-2.156 v -2.703 c 0.05,-8.391 3.05,-14.797 6.94,-15 -0.69,0.812 -0.89,1.312 -0.89,2.25 0,1.609 1.14,2.75 2.75,2.75 1.85,0 3.05,-1.344 3.05,-3.344 0,-2.453 -1.7,-4.047 -4.35,-4.047 -3.15,0 -5.85,2.5 -7.5,6.953 v -6.203 m 35.35,12.047 c 0.05,-7.5 -4.2,-12.797 -10.3,-12.797 -6.4,0 -11.2,5.547 -11.2,13.047 0,7.047 4.55,11.75 11.3,11.75 4.79,0 8.15,-2.344 10.2,-7.094 l -1.75,-0.953 c -2.05,3.844 -4.16,5.344 -7.5,5.344 -2.55,0 -4.41,-1.047 -5.7,-3.297 -0.9,-1.5 -1.3,-3.25 -1.25,-6 h 16.2 m -16.16,-2.156 c 0,-3.5 1.61,-8.5 5.81,-8.5 3,0 5,2.656 5,6.703 0,1.406 -0.45,1.797 -2.06,1.797 h -8.75"
       id="path64" />
    <path
       class="Lyrics"
       d="m 1205.32,562.094 v -2.859 c 0,-2.5 0.16,-4.141 0.55,-5.141 0.81,-2.203 2.56,-3.563 4.56,-3.563 1.05,0 1.69,0.313 1.69,0.86 0,0.203 0,0.25 -0.3,0.64 -0.29,0.454 -0.45,1.063 -0.45,1.61 0,1.5 1.2,2.64 2.75,2.64 1.66,0 2.81,-1.25 2.81,-3.046 0,-2.891 -2.5,-4.704 -6.56,-4.704 -3.44,0 -6,1.204 -7.75,3.704 -1.5,2.109 -2,4.25 -2,8.312 v 1.547 h -4.39 v 2.141 h 4.39 v 17.359 c -0.05,0.703 -0.09,1 -0.3,1.297 -0.34,0.453 -1.29,0.656 -3.45,0.703 h -0.19 v 1.797 h 13.35 v -1.797 h -0.91 c -3.34,-0.109 -3.8,-0.359 -3.8,-2.156 v -17.203 h 5.5 v -2.141 h -5.5 m 28.55,7.203 c 0,-3.156 -0.55,-4.75 -2,-5.953 -1.64,-1.359 -4.09,-2 -7.3,-2 -5.64,0 -9.75,2.641 -9.75,6.297 0,1.844 1.16,3.047 2.91,3.047 1.59,0 2.7,-1.047 2.7,-2.547 0,-0.656 -0.25,-1.344 -0.75,-2.047 -0.31,-0.359 -0.36,-0.453 -0.36,-0.703 0,-1 2,-1.906 4.41,-1.906 1.59,0 3.34,0.5 4.14,1.25 0.95,0.812 1.31,2 1.31,4.25 v 1.953 c -5.2,0.906 -6.86,1.297 -9.31,2.25 -4.34,1.609 -6.39,3.906 -6.39,7.109 0,3.594 2.8,5.844 7.25,5.844 3.45,0 6.55,-1.406 8.7,-3.953 0.8,2.547 2.05,3.547 4.39,3.547 2.25,0 4.61,-1.438 4.61,-2.891 0,-0.359 -0.2,-0.609 -0.5,-0.609 -0.2,0 -0.4,0.062 -0.75,0.203 -0.7,0.297 -1,0.359 -1.4,0.359 -1.41,0 -1.91,-0.906 -1.91,-3.453 v -10.047 m -4.69,6.094 c 0,3 -0.15,3.703 -1,5 -1.25,1.844 -3.5,3.094 -5.7,3.094 -2.3,0 -3.95,-1.641 -3.95,-3.891 0,-2.109 1.04,-3.609 3.25,-4.656 1.54,-0.703 3.5,-1.203 7.4,-1.844 v 2.297"
       id="path65" />
    <path
       class="Lyrics"
       d="m 1093.64,561.547 h -1.75 l -1.45,1.797 c -1.8,-1.406 -3.59,-2 -6.09,-2 -4.41,0 -7.3,2.844 -7.3,7.25 0,4.703 3.05,5.891 7.05,6.844 l 2.64,0.609 c 3.95,0.938 5.36,1.938 5.36,3.938 0,2.359 -2.05,4 -4.96,4 -4.25,0 -7.25,-2.688 -8.45,-7.688 h -2 v 9.438 h 1.75 l 1.75,-2.047 c 2.05,1.656 4.3,2.453 6.86,2.453 4.89,0 8.14,-3.047 8.14,-7.703 0,-2.203 -0.7,-3.891 -2.09,-5.047 -1.21,-1.047 -2.21,-1.453 -5.25,-2.094 l -2.5,-0.562 c -2.75,-0.594 -2.75,-0.594 -3.66,-1.094 -1.09,-0.5 -1.75,-1.547 -1.75,-2.656 0,-2.047 1.91,-3.438 4.66,-3.438 4.09,0 6.09,2.891 7.29,6.391 h 1.75 v -8.391 m 16.1,-0.203 c -6.14,0 -10.89,5.453 -10.89,12.453 0,6.844 4.79,12.344 10.79,12.344 6,0 10.8,-5.5 10.8,-12.406 0,-6.844 -4.8,-12.391 -10.7,-12.391 m 0,2.141 c 3.5,0 5.45,3.656 5.45,10.25 0,6.656 -1.95,10.25 -5.55,10.25 -3.59,0 -5.54,-3.594 -5.54,-10.188 0,-6.812 1.89,-10.312 5.64,-10.312 m 22.61,-14.954 -9.25,0.563 v 2.141 h 2.45 c 1.84,0.046 2.09,0.359 2.09,2.5 v 27.859 c -0.04,0.75 -0.09,1.047 -0.29,1.297 -0.36,0.453 -1.3,0.656 -3.46,0.703 h -0.34 v 1.797 h 12.94 v -1.797 h -0.35 c -3.34,-0.109 -3.79,-0.359 -3.79,-2.156 v -32.907"
       id="path66" />
    <path
       class="Lyrics"
       d="m 2204.52,562.094 v -2.859 c 0,-2.5 0.15,-4.141 0.54,-5.141 0.81,-2.203 2.56,-3.563 4.56,-3.563 1.05,0 1.69,0.313 1.69,0.86 0,0.203 0,0.25 -0.29,0.64 -0.3,0.454 -0.46,1.063 -0.46,1.61 0,1.5 1.21,2.64 2.75,2.64 1.66,0 2.81,-1.25 2.81,-3.046 0,-2.891 -2.5,-4.704 -6.56,-4.704 -3.44,0 -6,1.204 -7.75,3.704 -1.5,2.109 -2,4.25 -2,8.312 v 1.547 h -4.39 v 2.141 h 4.39 v 17.359 c -0.04,0.703 -0.09,1 -0.29,1.297 -0.35,0.453 -1.3,0.656 -3.46,0.703 h -0.19 v 1.797 h 13.35 v -1.797 h -0.91 c -3.34,-0.109 -3.79,-0.359 -3.79,-2.156 v -17.203 h 5.5 v -2.141 h -5.5 m 28.54,7.203 c 0,-3.156 -0.54,-4.75 -2,-5.953 -1.64,-1.359 -4.09,-2 -7.29,-2 -5.65,0 -9.75,2.641 -9.75,6.297 0,1.844 1.15,3.047 2.9,3.047 1.6,0 2.7,-1.047 2.7,-2.547 0,-0.656 -0.25,-1.344 -0.75,-2.047 -0.31,-0.359 -0.35,-0.453 -0.35,-0.703 0,-1 2,-1.906 4.4,-1.906 1.6,0 3.35,0.5 4.14,1.25 0.96,0.812 1.31,2 1.31,4.25 v 1.953 c -5.2,0.906 -6.85,1.297 -9.31,2.25 -4.34,1.609 -6.39,3.906 -6.39,7.109 0,3.594 2.8,5.844 7.25,5.844 3.45,0 6.55,-1.406 8.7,-3.953 0.8,2.547 2.05,3.547 4.4,3.547 2.25,0 4.6,-1.438 4.6,-2.891 0,-0.359 -0.2,-0.609 -0.5,-0.609 -0.2,0 -0.4,0.062 -0.75,0.203 -0.7,0.297 -1,0.359 -1.4,0.359 -1.41,0 -1.91,-0.906 -1.91,-3.453 v -10.047 m -4.69,6.094 c 0,3 -0.15,3.703 -1,5 -1.25,1.844 -3.5,3.094 -5.7,3.094 -2.3,0 -3.95,-1.641 -3.95,-3.891 0,-2.109 1.05,-3.609 3.25,-4.656 1.55,-0.703 3.5,-1.203 7.4,-1.844 v 2.297"
       id="path67" />
    <path
       class="Lyrics"
       d="m 725.078,548.531 -9.25,0.563 v 2.141 h 2.453 c 1.843,0.046 2.093,0.359 2.093,2.5 v 27.859 c -0.046,0.75 -0.093,1.047 -0.296,1.297 -0.36,0.453 -1.297,0.656 -3.454,0.703 h -0.343 v 1.797 h 12.937 v -1.797 h -0.344 c -3.343,-0.109 -3.796,-0.359 -3.796,-2.156 v -32.907 m 28.39,20.766 c 0,-3.156 -0.547,-4.75 -2,-5.953 -1.64,-1.359 -4.094,-2 -7.297,-2 -5.64,0 -9.75,2.641 -9.75,6.297 0,1.844 1.157,3.047 2.907,3.047 1.593,0 2.703,-1.047 2.703,-2.547 0,-0.656 -0.25,-1.344 -0.75,-2.047 -0.313,-0.359 -0.36,-0.453 -0.36,-0.703 0,-1 2,-1.906 4.407,-1.906 1.593,0 3.343,0.5 4.14,1.25 0.953,0.812 1.313,2 1.313,4.25 v 1.953 c -5.203,0.906 -6.86,1.297 -9.313,2.25 -4.344,1.609 -6.39,3.906 -6.39,7.109 0,3.594 2.796,5.844 7.25,5.844 3.453,0 6.546,-1.406 8.703,-3.953 0.797,2.547 2.047,3.547 4.39,3.547 2.25,0 4.61,-1.438 4.61,-2.891 0,-0.359 -0.203,-0.609 -0.5,-0.609 -0.203,0 -0.407,0.062 -0.75,0.203 -0.703,0.297 -1,0.359 -1.407,0.359 -1.406,0 -1.906,-0.906 -1.906,-3.453 v -10.047 m -4.687,6.094 c 0,3 -0.157,3.703 -1,5 -1.25,1.844 -3.5,3.094 -5.703,3.094 -2.297,0 -3.954,-1.641 -3.954,-3.891 0,-2.109 1.047,-3.609 3.25,-4.656 1.547,-0.703 3.5,-1.203 7.407,-1.844 v 2.297"
       id="path68" />
    <path
       class="Lyrics"
       d="m 1974.75,562.094 -8.9,0.547 v 2.156 h 2.05 c 1.89,0.047 2.14,0.344 2.14,2.5 v 14.297 c -0.04,0.75 -0.09,1.047 -0.29,1.297 -0.35,0.453 -1.3,0.656 -3.46,0.703 h -0.19 v 1.797 h 12.6 v -1.797 h -0.2 c -3.3,-0.109 -3.75,-0.359 -3.75,-2.203 v -9.25 c 0,-4.453 2.45,-7.75 5.7,-7.75 2.84,0 4.3,2.047 4.3,6.094 v 11.156 c -0.05,0.656 -0.1,1 -0.35,1.25 -0.3,0.453 -1.3,0.656 -3.45,0.703 h -0.2 v 1.797 h 12.65 v -1.797 h -0.2 c -3.3,-0.109 -3.75,-0.359 -3.75,-2.156 v -8.844 c 0,-5 2.25,-8.203 5.75,-8.203 2.86,0 4.25,2.156 4.25,6.656 v 10.547 c -0.05,0.703 -0.1,1.047 -0.35,1.297 -0.29,0.453 -1.29,0.656 -3.45,0.703 h -0.2 v 1.797 h 12.65 v -1.797 h -0.2 c -3.3,-0.109 -3.75,-0.359 -3.75,-2.203 v -11.344 c 0,-3.109 -0.3,-4.156 -1.59,-5.859 -1.46,-1.844 -3.5,-2.844 -5.91,-2.844 -3.25,0 -5.65,1.547 -7.8,5 -0.85,-3 -3.56,-5 -6.9,-5 -3.05,0 -5.25,1.453 -7.2,4.594 v -3.844 m 41.9,-12.453 c -1.61,0 -2.9,1.297 -2.9,2.89 0,1.61 1.29,2.907 2.85,2.907 1.65,0 2.94,-1.297 2.94,-2.907 0,-1.593 -1.29,-2.89 -2.89,-2.89 m 2.35,12.453 -9.4,0.547 v 2.156 h 2.55 c 1.89,0.047 2.14,0.344 2.14,2.5 v 14.297 c -0.04,0.75 -0.09,1.047 -0.29,1.297 -0.35,0.453 -1.3,0.656 -3.46,0.703 h -0.34 v 1.797 h 12.95 v -1.797 h -0.36 c -3.34,-0.109 -3.79,-0.359 -3.79,-2.156 v -19.344"
       id="path69" />
    <path
       class="Lyrics"
       d="m 650.331,562.094 v -2.859 c 0,-2.5 0.157,-4.141 0.547,-5.141 0.813,-2.203 2.563,-3.563 4.563,-3.563 1.047,0 1.687,0.313 1.687,0.86 0,0.203 0,0.25 -0.297,0.64 -0.296,0.454 -0.453,1.063 -0.453,1.61 0,1.5 1.203,2.64 2.75,2.64 1.657,0 2.813,-1.25 2.813,-3.046 0,-2.891 -2.5,-4.704 -6.563,-4.704 -3.437,0 -6,1.204 -7.75,3.704 -1.5,2.109 -2,4.25 -2,8.312 v 1.547 h -4.39 v 2.141 h 4.39 v 17.359 c -0.047,0.703 -0.093,1 -0.297,1.297 -0.343,0.453 -1.296,0.656 -3.453,0.703 h -0.187 v 1.797 h 13.344 v -1.797 h -0.907 c -3.343,-0.109 -3.797,-0.359 -3.797,-2.156 v -17.203 h 5.5 v -2.141 h -5.5 m 28.547,7.203 c 0,-3.156 -0.547,-4.75 -2,-5.953 -1.64,-1.359 -4.093,-2 -7.297,-2 -5.64,0 -9.75,2.641 -9.75,6.297 0,1.844 1.157,3.047 2.907,3.047 1.593,0 2.703,-1.047 2.703,-2.547 0,-0.656 -0.25,-1.344 -0.75,-2.047 -0.313,-0.359 -0.36,-0.453 -0.36,-0.703 0,-1 2,-1.906 4.407,-1.906 1.593,0 3.343,0.5 4.14,1.25 0.953,0.812 1.313,2 1.313,4.25 v 1.953 c -5.203,0.906 -6.86,1.297 -9.313,2.25 -4.343,1.609 -6.39,3.906 -6.39,7.109 0,3.594 2.797,5.844 7.25,5.844 3.453,0 6.547,-1.406 8.703,-3.953 0.797,2.547 2.047,3.547 4.39,3.547 2.25,0 4.61,-1.438 4.61,-2.891 0,-0.359 -0.203,-0.609 -0.5,-0.609 -0.203,0 -0.406,0.062 -0.75,0.203 -0.703,0.297 -1,0.359 -1.406,0.359 -1.407,0 -1.907,-0.906 -1.907,-3.453 v -10.047 m -4.687,6.094 c 0,3 -0.156,3.703 -1,5 -1.25,1.844 -3.5,3.094 -5.703,3.094 -2.297,0 -3.953,-1.641 -3.953,-3.891 0,-2.109 1.046,-3.609 3.25,-4.656 1.546,-0.703 3.5,-1.203 7.406,-1.844 v 2.297"
       id="path70" />
    <path
       class="Lyrics"
       d="m 2122.93,562.094 -8.9,0.547 v 2.156 h 2.05 c 1.89,0.047 2.14,0.344 2.14,2.5 v 14.297 c -0.04,0.75 -0.09,1.047 -0.29,1.297 -0.35,0.453 -1.3,0.656 -3.46,0.703 h -0.19 v 1.797 h 12.6 v -1.797 h -0.2 c -3.3,-0.109 -3.75,-0.359 -3.75,-2.203 v -9.25 c 0,-4.453 2.45,-7.75 5.7,-7.75 2.84,0 4.3,2.047 4.3,6.094 v 11.156 c -0.05,0.656 -0.1,1 -0.35,1.25 -0.3,0.453 -1.3,0.656 -3.45,0.703 h -0.2 v 1.797 h 12.65 v -1.797 h -0.2 c -3.3,-0.109 -3.75,-0.359 -3.75,-2.156 v -8.844 c 0,-5 2.25,-8.203 5.75,-8.203 2.86,0 4.25,2.156 4.25,6.656 v 10.547 c -0.05,0.703 -0.1,1.047 -0.35,1.297 -0.29,0.453 -1.29,0.656 -3.45,0.703 h -0.2 v 1.797 h 12.65 v -1.797 h -0.2 c -3.3,-0.109 -3.75,-0.359 -3.75,-2.203 v -11.344 c 0,-3.109 -0.3,-4.156 -1.59,-5.859 -1.46,-1.844 -3.5,-2.844 -5.91,-2.844 -3.25,0 -5.65,1.547 -7.8,5 -0.85,-3 -3.56,-5 -6.9,-5 -3.05,0 -5.25,1.453 -7.2,4.594 v -3.844 m 41.9,-12.453 c -1.61,0 -2.9,1.297 -2.9,2.89 0,1.61 1.29,2.907 2.85,2.907 1.65,0 2.94,-1.297 2.94,-2.907 0,-1.593 -1.29,-2.89 -2.89,-2.89 m 2.35,12.453 -9.4,0.547 v 2.156 h 2.55 c 1.89,0.047 2.14,0.344 2.14,2.5 v 14.297 c -0.04,0.75 -0.09,1.047 -0.29,1.297 -0.35,0.453 -1.3,0.656 -3.46,0.703 h -0.34 v 1.797 h 12.95 v -1.797 h -0.36 c -3.34,-0.109 -3.79,-0.359 -3.79,-2.156 v -19.344"
       id="path71" />
    <path
       class="Lyrics"
       d="m 834.668,561.547 h -1.75 l -1.453,1.797 c -1.797,-1.406 -3.593,-2 -6.093,-2 -4.407,0 -7.297,2.844 -7.297,7.25 0,4.703 3.047,5.891 7.047,6.844 l 2.64,0.609 c 3.953,0.938 5.36,1.938 5.36,3.938 0,2.359 -2.047,4 -4.954,4 -4.25,0 -7.25,-2.688 -8.453,-7.688 h -2 v 9.438 h 1.75 l 1.75,-2.047 c 2.047,1.656 4.297,2.453 6.86,2.453 4.89,0 8.14,-3.047 8.14,-7.703 0,-2.203 -0.703,-3.891 -2.093,-5.047 -1.204,-1.047 -2.204,-1.453 -5.25,-2.094 l -2.5,-0.562 c -2.75,-0.594 -2.75,-0.594 -3.657,-1.094 -1.093,-0.5 -1.75,-1.547 -1.75,-2.656 0,-2.047 1.907,-3.438 4.657,-3.438 4.093,0 6.093,2.891 7.296,6.391 h 1.75 v -8.391 m 16.094,-0.203 c -6.14,0 -10.89,5.453 -10.89,12.453 0,6.844 4.796,12.344 10.796,12.344 6,0 10.797,-5.5 10.797,-12.406 0,-6.844 -4.797,-12.391 -10.703,-12.391 m 0,2.141 c 3.5,0 5.453,3.656 5.453,10.25 0,6.656 -1.953,10.25 -5.547,10.25 -3.593,0 -5.546,-3.594 -5.546,-10.188 0,-6.812 1.89,-10.312 5.64,-10.312 m 22.61,-14.954 -9.25,0.563 v 2.141 h 2.453 c 1.843,0.046 2.093,0.359 2.093,2.5 v 27.859 c -0.046,0.75 -0.093,1.047 -0.296,1.297 -0.36,0.453 -1.297,0.656 -3.454,0.703 h -0.343 v 1.797 h 12.937 v -1.797 h -0.344 c -3.343,-0.109 -3.796,-0.359 -3.796,-2.156 v -32.907"
       id="path72" />
    <path
       class="Lyrics"
       d="m 538.65,561.547 h -1.75 l -1.453,1.797 c -1.797,-1.406 -3.594,-2 -6.094,-2 -4.406,0 -7.297,2.844 -7.297,7.25 0,4.703 3.047,5.891 7.047,6.844 l 2.64,0.609 c 3.954,0.938 5.36,1.938 5.36,3.938 0,2.359 -2.047,4 -4.953,4 -4.25,0 -7.25,-2.688 -8.453,-7.688 h -2 v 9.438 h 1.75 l 1.75,-2.047 c 2.046,1.656 4.296,2.453 6.859,2.453 4.891,0 8.141,-3.047 8.141,-7.703 0,-2.203 -0.704,-3.891 -2.094,-5.047 -1.203,-1.047 -2.203,-1.453 -5.25,-2.094 l -2.5,-0.562 c -2.75,-0.594 -2.75,-0.594 -3.656,-1.094 -1.094,-0.5 -1.75,-1.547 -1.75,-2.656 0,-2.047 1.906,-3.438 4.656,-3.438 4.094,0 6.094,2.891 7.297,6.391 h 1.75 v -8.391 m 16.093,-0.203 c -6.14,0 -10.89,5.453 -10.89,12.453 0,6.844 4.797,12.344 10.797,12.344 6,0 10.797,-5.5 10.797,-12.406 0,-6.844 -4.797,-12.391 -10.704,-12.391 m 0,2.141 c 3.5,0 5.454,3.656 5.454,10.25 0,6.656 -1.954,10.25 -5.547,10.25 -3.594,0 -5.547,-3.594 -5.547,-10.188 0,-6.812 1.89,-10.312 5.64,-10.312 m 22.61,-14.954 -9.25,0.563 v 2.141 h 2.453 c 1.844,0.046 2.094,0.359 2.094,2.5 v 27.859 c -0.047,0.75 -0.094,1.047 -0.297,1.297 -0.36,0.453 -1.297,0.656 -3.453,0.703 h -0.344 v 1.797 h 12.937 v -1.797 h -0.343 c -3.344,-0.109 -3.797,-0.359 -3.797,-2.156 v -32.907"
       id="path73" />
    <path
       class="Lyrics"
       d="m 1723.93,548.531 -9.25,0.563 v 2.141 h 2.45 c 1.84,0.046 2.09,0.359 2.09,2.5 v 27.859 c -0.04,0.75 -0.09,1.047 -0.29,1.297 -0.36,0.453 -1.3,0.656 -3.46,0.703 h -0.34 v 1.797 h 12.94 v -1.797 h -0.35 c -3.34,-0.109 -3.79,-0.359 -3.79,-2.156 v -32.907 m 28.39,20.766 c 0,-3.156 -0.55,-4.75 -2,-5.953 -1.64,-1.359 -4.1,-2 -7.3,-2 -5.64,0 -9.75,2.641 -9.75,6.297 0,1.844 1.16,3.047 2.91,3.047 1.59,0 2.7,-1.047 2.7,-2.547 0,-0.656 -0.25,-1.344 -0.75,-2.047 -0.31,-0.359 -0.36,-0.453 -0.36,-0.703 0,-1 2,-1.906 4.41,-1.906 1.59,0 3.34,0.5 4.14,1.25 0.95,0.812 1.31,2 1.31,4.25 v 1.953 c -5.2,0.906 -6.86,1.297 -9.31,2.25 -4.35,1.609 -6.39,3.906 -6.39,7.109 0,3.594 2.79,5.844 7.25,5.844 3.45,0 6.54,-1.406 8.7,-3.953 0.8,2.547 2.05,3.547 4.39,3.547 2.25,0 4.61,-1.438 4.61,-2.891 0,-0.359 -0.2,-0.609 -0.5,-0.609 -0.2,0 -0.41,0.062 -0.75,0.203 -0.7,0.297 -1,0.359 -1.41,0.359 -1.4,0 -1.9,-0.906 -1.9,-3.453 v -10.047 m -4.69,6.094 c 0,3 -0.16,3.703 -1,5 -1.25,1.844 -3.5,3.094 -5.7,3.094 -2.3,0 -3.96,-1.641 -3.96,-3.891 0,-2.109 1.05,-3.609 3.25,-4.656 1.55,-0.703 3.5,-1.203 7.41,-1.844 v 2.297"
       id="path74" />
    <path
       class="Lyrics"
       d="m 1389.66,561.547 h -1.75 l -1.45,1.797 c -1.8,-1.406 -3.6,-2 -6.1,-2 -4.4,0 -7.29,2.844 -7.29,7.25 0,4.703 3.04,5.891 7.04,6.844 l 2.64,0.609 c 3.96,0.938 5.36,1.938 5.36,3.938 0,2.359 -2.04,4 -4.95,4 -4.25,0 -7.25,-2.688 -8.45,-7.688 h -2 v 9.438 h 1.75 l 1.75,-2.047 c 2.04,1.656 4.29,2.453 6.86,2.453 4.89,0 8.14,-3.047 8.14,-7.703 0,-2.203 -0.71,-3.891 -2.1,-5.047 -1.2,-1.047 -2.2,-1.453 -5.25,-2.094 l -2.5,-0.562 c -2.75,-0.594 -2.75,-0.594 -3.65,-1.094 -1.1,-0.5 -1.75,-1.547 -1.75,-2.656 0,-2.047 1.9,-3.438 4.65,-3.438 4.1,0 6.1,2.891 7.3,6.391 h 1.75 v -8.391 m 16.09,-0.203 c -6.14,0 -10.89,5.453 -10.89,12.453 0,6.844 4.8,12.344 10.8,12.344 6,0 10.8,-5.5 10.8,-12.406 0,-6.844 -4.8,-12.391 -10.71,-12.391 m 0,2.141 c 3.5,0 5.46,3.656 5.46,10.25 0,6.656 -1.96,10.25 -5.55,10.25 -3.59,0 -5.55,-3.594 -5.55,-10.188 0,-6.812 1.89,-10.312 5.64,-10.312 m 22.61,-14.954 -9.25,0.563 v 2.141 h 2.46 c 1.84,0.046 2.09,0.359 2.09,2.5 v 27.859 c -0.05,0.75 -0.09,1.047 -0.3,1.297 -0.36,0.453 -1.29,0.656 -3.45,0.703 h -0.34 v 1.797 h 12.93 v -1.797 h -0.34 c -3.34,-0.109 -3.8,-0.359 -3.8,-2.156 v -32.907"
       id="path75" />
    <path
       class="Lyrics"
       d="m 2307.81,562.094 -8.89,0.547 v 2.156 h 2.05 c 1.89,0.047 2.14,0.344 2.14,2.5 v 14.297 c -0.05,0.75 -0.1,1.047 -0.3,1.297 -0.34,0.453 -1.3,0.656 -3.45,0.703 h -0.19 v 1.797 h 12.59 v -1.797 h -0.2 c -3.3,-0.109 -3.75,-0.359 -3.75,-2.203 v -9.25 c 0,-4.453 2.45,-7.75 5.7,-7.75 2.85,0 4.3,2.047 4.3,6.094 v 11.156 c -0.05,0.656 -0.09,1 -0.34,1.25 -0.3,0.453 -1.3,0.656 -3.46,0.703 h -0.2 v 1.797 h 12.66 v -1.797 h -0.21 c -3.29,-0.109 -3.75,-0.359 -3.75,-2.156 v -8.844 c 0,-5 2.25,-8.203 5.75,-8.203 2.86,0 4.25,2.156 4.25,6.656 v 10.547 c -0.04,0.703 -0.09,1.047 -0.34,1.297 -0.3,0.453 -1.3,0.656 -3.45,0.703 h -0.21 v 1.797 h 12.66 v -1.797 h -0.2 c -3.3,-0.109 -3.75,-0.359 -3.75,-2.203 v -11.344 c 0,-3.109 -0.3,-4.156 -1.6,-5.859 -1.45,-1.844 -3.5,-2.844 -5.9,-2.844 -3.25,0 -5.66,1.547 -7.8,5 -0.86,-3 -3.56,-5 -6.91,-5 -3.04,0 -5.25,1.453 -7.2,4.594 v -3.844 m 41.91,-12.453 c -1.61,0 -2.91,1.297 -2.91,2.89 0,1.61 1.3,2.907 2.86,2.907 1.64,0 2.94,-1.297 2.94,-2.907 0,-1.593 -1.3,-2.89 -2.89,-2.89 m 2.34,12.453 -9.39,0.547 v 2.156 h 2.55 c 1.89,0.047 2.14,0.344 2.14,2.5 v 14.297 c -0.05,0.75 -0.1,1.047 -0.3,1.297 -0.34,0.453 -1.3,0.656 -3.45,0.703 h -0.35 v 1.797 h 12.96 v -1.797 h -0.36 c -3.35,-0.109 -3.8,-0.359 -3.8,-2.156 v -19.344"
       id="path76" />
    <path
       class="Lyrics"
       d="m 2425.3,562.094 -8.86,0.547 v 2.156 h 2.05 c 1.91,0.047 2.16,0.344 2.16,2.5 v 14.297 c -0.05,0.75 -0.1,1.047 -0.3,1.297 -0.36,0.453 -1.36,0.656 -3.5,0.703 h -0.2 v 1.797 h 13.34 v -1.797 h -0.89 c -3.36,-0.109 -3.8,-0.359 -3.8,-2.156 v -2.703 c 0.05,-8.391 3.05,-14.797 6.94,-15 -0.69,0.812 -0.89,1.312 -0.89,2.25 0,1.609 1.14,2.75 2.75,2.75 1.84,0 3.05,-1.344 3.05,-3.344 0,-2.453 -1.71,-4.047 -4.35,-4.047 -3.15,0 -5.86,2.5 -7.5,6.953 v -6.203 m 35.35,12.047 c 0.04,-7.5 -4.21,-12.797 -10.3,-12.797 -6.41,0 -11.2,5.547 -11.2,13.047 0,7.047 4.54,11.75 11.29,11.75 4.8,0 8.16,-2.344 10.21,-7.094 l -1.75,-0.953 c -2.05,3.844 -4.16,5.344 -7.5,5.344 -2.55,0 -4.41,-1.047 -5.71,-3.297 -0.89,-1.5 -1.29,-3.25 -1.25,-6 h 16.21 m -16.16,-2.156 c 0,-3.5 1.61,-8.5 5.81,-8.5 3,0 5,2.656 5,6.703 0,1.406 -0.45,1.797 -2.06,1.797 h -8.75"
       id="path77" />
    <path
       class="Lyrics"
       d="m 1648.63,561.547 h -1.75 l -1.45,1.797 c -1.8,-1.406 -3.59,-2 -6.09,-2 -4.41,0 -7.3,2.844 -7.3,7.25 0,4.703 3.05,5.891 7.05,6.844 l 2.64,0.609 c 3.95,0.938 5.36,1.938 5.36,3.938 0,2.359 -2.05,4 -4.96,4 -4.25,0 -7.25,-2.688 -8.45,-7.688 h -2 v 9.438 h 1.75 l 1.75,-2.047 c 2.05,1.656 4.3,2.453 6.86,2.453 4.89,0 8.14,-3.047 8.14,-7.703 0,-2.203 -0.7,-3.891 -2.09,-5.047 -1.21,-1.047 -2.21,-1.453 -5.25,-2.094 l -2.5,-0.562 c -2.75,-0.594 -2.75,-0.594 -3.66,-1.094 -1.09,-0.5 -1.75,-1.547 -1.75,-2.656 0,-2.047 1.91,-3.438 4.66,-3.438 4.09,0 6.09,2.891 7.29,6.391 h 1.75 v -8.391 m 16.1,-0.203 c -6.14,0 -10.89,5.453 -10.89,12.453 0,6.844 4.79,12.344 10.79,12.344 6,0 10.8,-5.5 10.8,-12.406 0,-6.844 -4.8,-12.391 -10.7,-12.391 m 0,2.141 c 3.5,0 5.45,3.656 5.45,10.25 0,6.656 -1.95,10.25 -5.55,10.25 -3.59,0 -5.54,-3.594 -5.54,-10.188 0,-6.812 1.89,-10.312 5.64,-10.312 m 22.61,-14.954 -9.25,0.563 v 2.141 h 2.45 c 1.84,0.046 2.09,0.359 2.09,2.5 v 27.859 c -0.04,0.75 -0.09,1.047 -0.29,1.297 -0.36,0.453 -1.3,0.656 -3.46,0.703 h -0.34 v 1.797 h 12.94 v -1.797 h -0.35 c -3.34,-0.109 -3.79,-0.359 -3.79,-2.156 v -32.907"
       id="path78" />
    <path
       class="Lyrics"
       d="m 1796.81,561.547 h -1.75 l -1.45,1.797 c -1.8,-1.406 -3.59,-2 -6.09,-2 -4.41,0 -7.3,2.844 -7.3,7.25 0,4.703 3.05,5.891 7.05,6.844 l 2.64,0.609 c 3.95,0.938 5.36,1.938 5.36,3.938 0,2.359 -2.05,4 -4.96,4 -4.25,0 -7.25,-2.688 -8.45,-7.688 h -2 v 9.438 h 1.75 l 1.75,-2.047 c 2.05,1.656 4.3,2.453 6.86,2.453 4.89,0 8.14,-3.047 8.14,-7.703 0,-2.203 -0.7,-3.891 -2.09,-5.047 -1.21,-1.047 -2.21,-1.453 -5.25,-2.094 l -2.5,-0.562 c -2.75,-0.594 -2.75,-0.594 -3.66,-1.094 -1.09,-0.5 -1.75,-1.547 -1.75,-2.656 0,-2.047 1.91,-3.438 4.66,-3.438 4.09,0 6.09,2.891 7.29,6.391 h 1.75 v -8.391 m 16.1,-0.203 c -6.14,0 -10.89,5.453 -10.89,12.453 0,6.844 4.79,12.344 10.79,12.344 6,0 10.8,-5.5 10.8,-12.406 0,-6.844 -4.8,-12.391 -10.7,-12.391 m 0,2.141 c 3.5,0 5.45,3.656 5.45,10.25 0,6.656 -1.95,10.25 -5.55,10.25 -3.59,0 -5.54,-3.594 -5.54,-10.188 0,-6.812 1.89,-10.312 5.64,-10.312 m 22.61,-14.954 -9.25,0.563 v 2.141 h 2.45 c 1.84,0.046 2.09,0.359 2.09,2.5 v 27.859 c -0.04,0.75 -0.09,1.047 -0.29,1.297 -0.36,0.453 -1.3,0.656 -3.46,0.703 h -0.34 v 1.797 h 12.94 v -1.797 h -0.35 c -3.34,-0.109 -3.79,-0.359 -3.79,-2.156 v -32.907"
       id="path79" />
    <path
       class="Lyrics"
       d="m 1280.07,548.531 -9.25,0.563 v 2.141 h 2.45 c 1.85,0.046 2.1,0.359 2.1,2.5 v 27.859 c -0.05,0.75 -0.1,1.047 -0.3,1.297 -0.36,0.453 -1.3,0.656 -3.45,0.703 h -0.35 v 1.797 h 12.94 v -1.797 h -0.34 c -3.35,-0.109 -3.8,-0.359 -3.8,-2.156 v -32.907 m 28.39,20.766 c 0,-3.156 -0.55,-4.75 -2,-5.953 -1.64,-1.359 -4.09,-2 -7.3,-2 -5.64,0 -9.75,2.641 -9.75,6.297 0,1.844 1.16,3.047 2.91,3.047 1.59,0 2.7,-1.047 2.7,-2.547 0,-0.656 -0.25,-1.344 -0.75,-2.047 -0.31,-0.359 -0.36,-0.453 -0.36,-0.703 0,-1 2,-1.906 4.41,-1.906 1.59,0 3.34,0.5 4.14,1.25 0.95,0.812 1.31,2 1.31,4.25 v 1.953 c -5.2,0.906 -6.86,1.297 -9.31,2.25 -4.34,1.609 -6.39,3.906 -6.39,7.109 0,3.594 2.8,5.844 7.25,5.844 3.45,0 6.55,-1.406 8.7,-3.953 0.8,2.547 2.05,3.547 4.39,3.547 2.25,0 4.61,-1.438 4.61,-2.891 0,-0.359 -0.2,-0.609 -0.5,-0.609 -0.2,0 -0.4,0.062 -0.75,0.203 -0.7,0.297 -1,0.359 -1.4,0.359 -1.41,0 -1.91,-0.906 -1.91,-3.453 v -10.047 m -4.69,6.094 c 0,3 -0.15,3.703 -1,5 -1.25,1.844 -3.5,3.094 -5.7,3.094 -2.3,0 -3.95,-1.641 -3.95,-3.891 0,-2.109 1.04,-3.609 3.25,-4.656 1.54,-0.703 3.5,-1.203 7.4,-1.844 v 2.297"
       id="path80" />
    <path
       class="Lyrics"
       d="m 1871.45,562.094 v -2.859 c 0,-2.5 0.16,-4.141 0.55,-5.141 0.81,-2.203 2.56,-3.563 4.56,-3.563 1.05,0 1.69,0.313 1.69,0.86 0,0.203 0,0.25 -0.3,0.64 -0.3,0.454 -0.45,1.063 -0.45,1.61 0,1.5 1.2,2.64 2.75,2.64 1.65,0 2.81,-1.25 2.81,-3.046 0,-2.891 -2.5,-4.704 -6.56,-4.704 -3.44,0 -6,1.204 -7.75,3.704 -1.5,2.109 -2,4.25 -2,8.312 v 1.547 h -4.39 v 2.141 h 4.39 v 17.359 c -0.05,0.703 -0.1,1 -0.3,1.297 -0.34,0.453 -1.3,0.656 -3.45,0.703 h -0.19 v 1.797 h 13.34 v -1.797 h -0.9 c -3.35,-0.109 -3.8,-0.359 -3.8,-2.156 v -17.203 h 5.5 v -2.141 h -5.5 m 28.55,7.203 c 0,-3.156 -0.55,-4.75 -2,-5.953 -1.64,-1.359 -4.1,-2 -7.3,-2 -5.64,0 -9.75,2.641 -9.75,6.297 0,1.844 1.16,3.047 2.91,3.047 1.59,0 2.7,-1.047 2.7,-2.547 0,-0.656 -0.25,-1.344 -0.75,-2.047 -0.31,-0.359 -0.36,-0.453 -0.36,-0.703 0,-1 2,-1.906 4.41,-1.906 1.59,0 3.34,0.5 4.14,1.25 0.95,0.812 1.31,2 1.31,4.25 v 1.953 c -5.2,0.906 -6.86,1.297 -9.31,2.25 -4.35,1.609 -6.39,3.906 -6.39,7.109 0,3.594 2.79,5.844 7.25,5.844 3.45,0 6.54,-1.406 8.7,-3.953 0.8,2.547 2.05,3.547 4.39,3.547 2.25,0 4.61,-1.438 4.61,-2.891 0,-0.359 -0.2,-0.609 -0.5,-0.609 -0.2,0 -0.41,0.062 -0.75,0.203 -0.7,0.297 -1,0.359 -1.41,0.359 -1.4,0 -1.9,-0.906 -1.9,-3.453 v -10.047 m -4.69,6.094 c 0,3 -0.16,3.703 -1,5 -1.25,1.844 -3.5,3.094 -5.7,3.094 -2.3,0 -3.96,-1.641 -3.96,-3.891 0,-2.109 1.05,-3.609 3.25,-4.656 1.55,-0.703 3.5,-1.203 7.41,-1.844 v 2.297"
       id="path81" />
    <path
       class="Lyrics"
       d="m 2578.24,585.735 8.7,-0.344 v -2.156 h -0.91 c -2.84,-0.141 -3.09,-0.438 -3.09,-3.641 v -31.063 l -9.8,0.563 v 2.141 h 2.94 c 1.91,0.046 2.16,0.359 2.16,2.5 v 11.312 c -1.85,-2.562 -4,-3.703 -6.91,-3.703 -5.64,0 -9.94,5.453 -9.94,12.641 0,7.109 4.14,12.156 9.94,12.156 3.16,0 5.31,-1.344 6.91,-4.344 v 3.938 m -5.91,-21.688 c 2.06,0 4,1.5 4.91,3.797 0.65,1.5 0.95,3.547 0.95,6 0,5.844 -2.3,9.594 -5.91,9.594 -3.54,0 -5.64,-3.297 -5.64,-8.844 0,-3 0.3,-5.25 0.94,-6.906 0.86,-2.25 2.7,-3.641 4.75,-3.641 m 28.5,-2.703 c -6.14,0 -10.89,5.453 -10.89,12.453 0,6.844 4.8,12.344 10.8,12.344 6,0 10.79,-5.5 10.79,-12.406 0,-6.844 -4.79,-12.391 -10.7,-12.391 m 0,2.141 c 3.5,0 5.45,3.656 5.45,10.25 0,6.656 -1.95,10.25 -5.54,10.25 -3.6,0 -5.55,-3.594 -5.55,-10.188 0,-6.812 1.89,-10.312 5.64,-10.312"
       id="path82" />
    <path
       class="Tempo"
       d="m 473.073,249.17 h -3.266 v 42.266 c -1.094,-0.687 -2.484,-1.094 -4.062,-1.281 -3.563,0 -6.438,0.39 -9.61,2.172 -3.953,2.078 -8.312,6.437 -8.312,11.281 0,4.75 4.265,7.031 8.609,7.031 6.938,0 16.641,-5.937 16.641,-13.469 v -48"
       id="path83" />
    <path
       class="Tempo"
       d="m 494.807,287.124 h 30.234 v -6.907 h -30.234 v 6.907 m 0,12.359 h 30.234 v -6.906 h -30.234 v 6.906 m 72.078,-14.219 c 0,5.688 -0.234,17.453 -8.281,17.453 -1.266,0 -1.984,-0.422 -1.984,-1.203 0,-0.359 0.125,-0.719 0.359,-1.078 1.078,-1.734 1.203,-2.094 1.203,-3.422 0,-2.875 -2.031,-4.859 -5.031,-4.859 -3.313,0 -5.703,2.531 -5.703,6 0,4.687 4.375,7.687 11.156,7.687 13.625,0 18.844,-12.125 18.844,-24 0,-5.515 -1.203,-9.609 -3.719,-13.015 -3.063,-4.094 -7.438,-6.313 -12.484,-6.313 -8.704,0 -15,6.063 -15,14.406 0,7.079 5.046,12.297 11.875,12.297 3.718,0 6.25,-1.14 8.765,-3.953 m -5.156,-19.625 c 4.375,0 4.922,7.375 4.922,10.438 0,5.281 -1.922,8.64 -4.985,8.64 -4.75,0 -5.046,-5.75 -5.046,-9.172 0,-6.546 1.75,-9.906 5.109,-9.906 m 34.234,-3.125 c -9,0 -15.593,9.188 -15.593,21.672 0,12.469 6.593,21.656 15.593,21.656 8.813,0 15.547,-9.187 15.547,-21.359 0,-7.078 -1.625,-12.297 -5.172,-16.75 -2.812,-3.406 -6.359,-5.219 -10.375,-5.219 m -0.062,3.125 c 1.797,0 3.25,1.078 3.906,3 0.781,1.985 1.25,8.281 1.25,15.719 0,6.187 -0.469,12.656 -1.016,14.703 -0.656,2.391 -2.093,3.656 -4.14,3.656 -1.86,0 -3.235,-1.015 -3.953,-3 -0.782,-1.984 -1.266,-8.343 -1.266,-15.531 0,-6.312 0.484,-12.844 1.016,-14.891 0.672,-2.39 2.109,-3.656 4.203,-3.656"
       id="path84" />
    <path
       class="StaffText"
       d="m 2231.06,325.289 h -29.75 v 2.36 h 0.89 c 2.86,0.046 3.81,0.203 4.2,0.703 0.3,0.437 0.3,0.547 0.3,3.093 v 23.797 c 0,2.563 0,2.657 -0.3,3.11 -0.39,0.5 -1.34,0.703 -4.2,0.703 h -0.89 v 2.344 h 17.14 v -2.344 h -1.64 c -2.86,0 -3.8,-0.203 -4.21,-0.703 -0.29,-0.453 -0.29,-0.61 -0.29,-3.11 v -11.343 h 1 c 5.14,-0.204 7,1.656 7.2,7.203 h 2.34 v -16.407 h -2.34 c -0.31,4.907 -2.25,6.797 -7,6.86 h -1.2 v -11.406 c -0.05,-2.11 0.45,-2.454 3.14,-2.5 h 2.31 c 8.2,-0.047 10.25,1.796 11.8,10.406 h 2.2 l -0.7,-12.766"
       id="path85" />
    <path
       class="StaffText"
       d="m 1897.99,325.289 h -29.75 v 2.36 h 0.89 c 2.86,0.046 3.81,0.203 4.21,0.703 0.29,0.437 0.29,0.547 0.29,3.093 v 23.797 c 0,2.563 0,2.657 -0.29,3.11 -0.4,0.5 -1.35,0.703 -4.21,0.703 h -0.89 v 2.344 h 17.14 v -2.344 h -1.64 c -2.86,0 -3.8,-0.203 -4.2,-0.703 -0.3,-0.453 -0.3,-0.61 -0.3,-3.11 v -11.343 h 1 c 5.14,-0.204 7,1.656 7.2,7.203 h 2.35 v -16.407 h -2.35 c -0.31,4.907 -2.25,6.797 -7,6.86 h -1.2 v -11.406 c -0.05,-2.11 0.45,-2.454 3.14,-2.5 h 2.31 c 8.21,-0.047 10.25,1.796 11.8,10.406 h 2.2 l -0.7,-12.766"
       id="path86" />
    <path
       class="StaffText"
       d="m 1121.03,323.945 h -1.89 l -1.96,3 c -3.25,-2.546 -5.45,-3.406 -9.11,-3.406 -3.95,0 -7.04,1.11 -10.2,3.656 -4.94,4 -7.25,9.047 -7.25,15.797 0,5.11 1.45,9.36 4.41,12.61 3.09,3.5 7.7,5.547 12.5,5.547 4.2,0 7.15,-1.297 10.4,-4.547 l 1.85,4.5 h 2.11 v -11 c 0,-2.547 0,-2.657 0.29,-3.11 0.46,-0.547 1.35,-0.687 4.21,-0.687 h 0.75 v -2.36 h -15.91 v 2.36 h 0.95 c 4.21,0 4.55,0.25 4.55,3.047 0,2.14 -0.34,4.093 -1,5.297 -1.25,2.453 -4.45,4.156 -7.7,4.156 -3.25,0 -6.46,-1.656 -8.16,-4.156 -1.84,-2.797 -2.64,-6.297 -2.64,-11.657 0,-11.14 3.7,-17.093 10.64,-17.093 5.7,0 9.66,4.093 11.7,12.093 h 2.16 l -0.7,-14.047"
       id="path87" />
    <path
       class="StaffText"
       d="m 1739.51,324.581 h -2.1 l -11.5,29.141 c -1.35,3.906 -2.65,5.109 -5.5,5.313 h -0.21 v 2.343 h 13.25 v -2.343 h -1 c -2.69,0 -4.04,-0.954 -4.04,-2.86 0,-0.64 0.15,-1.25 0.45,-2.094 l 1.65,-4.406 h 13.25 l 2.71,6.703 c 0.29,0.797 0.39,1.094 0.39,1.344 0,0.813 -1.25,1.313 -3.1,1.313 h -2.1 v 2.343 h 15.5 v -2.343 h -0.69 c -2.61,-0.063 -3.06,-0.36 -4.21,-3.204 l -12.75,-31.25 m -2.45,8.188 5.64,14.203 h -11.19 l 5.55,-14.203"
       id="path88" />
    <path
       class="StaffText"
       d="m 676.872,325.289 h -29.75 v 2.36 h 0.89 c 2.86,0.046 3.813,0.203 4.203,0.703 0.297,0.437 0.297,0.547 0.297,3.093 v 23.797 c 0,2.563 0,2.657 -0.297,3.11 -0.39,0.5 -1.343,0.703 -4.203,0.703 h -0.89 v 2.344 h 17.14 v -2.344 h -1.64 c -2.86,0 -3.797,-0.203 -4.204,-0.703 -0.296,-0.453 -0.296,-0.61 -0.296,-3.11 v -11.343 h 1 c 5.14,-0.204 7,1.656 7.203,7.203 h 2.343 v -16.407 h -2.343 c -0.313,4.907 -2.25,6.797 -7,6.86 h -1.203 v -11.406 c -0.047,-2.11 0.453,-2.454 3.14,-2.5 h 2.313 c 8.203,-0.047 10.25,1.796 11.797,10.406 h 2.203 l -0.703,-12.766"
       id="path89" />
    <path
       class="StaffText"
       d="m 1417.04,323.945 h -1.89 l -1.95,3 c -3.25,-2.546 -5.45,-3.406 -9.11,-3.406 -3.95,0 -7.05,1.11 -10.2,3.656 -4.94,4 -7.25,9.047 -7.25,15.797 0,5.11 1.45,9.36 4.4,12.61 3.1,3.5 7.71,5.547 12.5,5.547 4.21,0 7.16,-1.297 10.41,-4.547 l 1.84,4.5 h 2.11 v -11 c 0,-2.547 0,-2.657 0.3,-3.11 0.45,-0.547 1.34,-0.687 4.2,-0.687 h 0.75 v -2.36 h -15.9 v 2.36 h 0.95 c 4.2,0 4.55,0.25 4.55,3.047 0,2.14 -0.35,4.093 -1,5.297 -1.25,2.453 -4.46,4.156 -7.71,4.156 -3.25,0 -6.45,-1.656 -8.15,-4.156 -1.85,-2.797 -2.64,-6.297 -2.64,-11.657 0,-11.14 3.7,-17.093 10.64,-17.093 5.7,0 9.65,4.093 11.7,12.093 h 2.16 l -0.71,-14.047"
       id="path90" />
    <path
       class="StaffText"
       d="m 2342.15,325.289 h -30.05 v 2.36 h 0.89 c 2.86,0.046 3.81,0.203 4.2,0.703 0.3,0.437 0.3,0.547 0.3,3.093 v 23.797 c 0,2.563 0,2.657 -0.3,3.11 -0.39,0.5 -1.34,0.703 -4.2,0.703 h -0.89 v 2.344 h 30.7 l 1,-13.344 h -2.2 c -1.91,8.89 -3.95,10.797 -11.61,11 h -3.3 c -3,-0.11 -3.75,-0.61 -3.59,-2.406 v -12.75 h 1 c 5.14,-0.204 7,1.656 7.2,7.203 h 2.35 v -16.407 h -2.35 c -0.31,4.907 -2.25,6.86 -7,6.86 h -1.2 v -11.406 c -0.05,-2.11 0.45,-2.454 3.14,-2.5 h 2.61 c 8.2,-0.047 10.25,1.75 11.84,10.406 h 2.16 l -0.7,-12.766"
       id="path91" />
    <path
       class="StaffText"
       d="m 1676.02,324.945 h -1.89 l -1.96,3 c -3.25,-2.546 -5.45,-3.406 -9.1,-3.406 -3.96,0 -7.05,1.11 -10.21,3.656 -4.94,4 -7.25,9.047 -7.25,15.797 0,5.11 1.46,9.36 4.41,12.61 3.09,3.5 7.7,5.547 12.5,5.547 4.2,0 7.15,-1.297 10.4,-4.547 l 1.85,4.5 h 2.11 v -11 c 0,-2.547 0,-2.657 0.29,-3.11 0.46,-0.547 1.35,-0.687 4.21,-0.687 h 0.75 v -2.36 h -15.91 v 2.36 h 0.95 c 4.21,0 4.55,0.25 4.55,3.047 0,2.14 -0.34,4.093 -1,5.297 -1.25,2.453 -4.45,4.156 -7.7,4.156 -3.25,0 -6.45,-1.656 -8.16,-4.156 -1.84,-2.797 -2.64,-6.297 -2.64,-11.657 0,-11.14 3.7,-17.093 10.64,-17.093 5.71,0 9.66,4.093 11.71,12.093 h 2.15 l -0.7,-14.047"
       id="path92" />
    <path
       class="StaffText"
       d="m 1295.66,324.581 h -2.11 l -11.5,29.141 c -1.35,3.906 -2.64,5.109 -5.5,5.313 h -0.21 v 2.343 h 13.25 v -2.343 h -1 c -2.68,0 -4.04,-0.954 -4.04,-2.86 0,-0.64 0.15,-1.25 0.45,-2.094 l 1.66,-4.406 h 13.25 l 2.7,6.703 c 0.3,0.797 0.39,1.094 0.39,1.344 0,0.813 -1.25,1.313 -3.09,1.313 h -2.11 v 2.343 h 15.5 v -2.343 h -0.69 c -2.61,-0.063 -3.06,-0.36 -4.2,-3.204 l -12.75,-31.25 m -2.46,8.188 5.64,14.203 h -11.18 l 5.54,-14.203"
       id="path93" />
    <path
       class="StaffText"
       d="m 2009.08,325.289 h -30.04 v 2.36 h 0.89 c 2.86,0.046 3.81,0.203 4.2,0.703 0.3,0.437 0.3,0.547 0.3,3.093 v 23.797 c 0,2.563 0,2.657 -0.3,3.11 -0.39,0.5 -1.34,0.703 -4.2,0.703 h -0.89 v 2.344 h 30.7 l 1,-13.344 h -2.2 c -1.91,8.89 -3.96,10.797 -11.61,11 h -3.3 c -3,-0.11 -3.75,-0.61 -3.59,-2.406 v -12.75 h 1 c 5.14,-0.204 7,1.656 7.2,7.203 h 2.34 v -16.407 h -2.34 c -0.31,4.907 -2.25,6.86 -7,6.86 h -1.2 v -11.406 c -0.05,-2.11 0.45,-2.454 3.14,-2.5 h 2.61 c 8.2,-0.047 10.25,1.75 11.84,10.406 h 2.16 l -0.71,-12.766"
       id="path94" />
    <path
       class="StaffText"
       d="m 2423.23,361.399 h 16.8 c 4.45,0 7.86,-0.704 10.5,-2.204 5.05,-2.843 7.86,-8.546 7.86,-16.046 0,-6.907 -2.5,-12.297 -7.11,-15.297 -2.75,-1.75 -6.45,-2.563 -12.16,-2.563 h -15.89 v 2.36 h 0.96 c 2.79,0.046 3.75,0.203 4.14,0.703 0.29,0.437 0.29,0.547 0.29,3.093 v 23.797 c 0,2.563 0,2.657 -0.29,3.11 -0.39,0.5 -1.35,0.64 -4.14,0.703 h -0.96 v 2.344 m 13.85,-2.344 c -2.55,0 -2.85,-0.313 -2.85,-2.75 v -25.86 c 0,-2.453 0.35,-2.796 2.85,-2.796 h 2.61 c 8.54,0 12.09,4.64 12.09,15.703 0,11.203 -3.2,15.703 -11.3,15.703 h -3.4"
       id="path95" />
    <path
       class="StaffText"
       d="m 862.052,323.945 h -1.89 l -1.953,3 c -3.25,-2.546 -5.454,-3.406 -9.11,-3.406 -3.953,0 -7.047,1.11 -10.203,3.656 -4.937,4 -7.25,9.047 -7.25,15.797 0,5.11 1.453,9.36 4.406,12.61 3.094,3.5 7.703,5.547 12.5,5.547 4.203,0 7.157,-1.297 10.407,-4.547 l 1.843,4.5 h 2.11 v -11 c 0,-2.547 0,-2.657 0.297,-3.11 0.453,-0.547 1.343,-0.687 4.203,-0.687 h 0.75 v -2.36 h -15.907 v 2.36 h 0.954 c 4.203,0 4.546,0.25 4.546,3.047 0,2.14 -0.343,4.093 -1,5.297 -1.25,2.453 -4.453,4.156 -7.703,4.156 -3.25,0 -6.453,-1.656 -8.156,-4.156 -1.844,-2.797 -2.641,-6.297 -2.641,-11.657 0,-11.14 3.704,-17.093 10.641,-17.093 5.703,0 9.656,4.093 11.703,12.093 h 2.156 l -0.703,-14.047"
       id="path96" />
    <path
       class="StaffText"
       d="m 2053.13,361.399 h 16.79 c 4.46,0 7.86,-0.704 10.5,-2.204 5.05,-2.843 7.86,-8.546 7.86,-16.046 0,-6.907 -2.5,-12.297 -7.11,-15.297 -2.75,-1.75 -6.45,-2.563 -12.15,-2.563 h -15.89 v 2.36 h 0.95 c 2.8,0.046 3.75,0.203 4.14,0.703 0.3,0.437 0.3,0.547 0.3,3.093 v 23.797 c 0,2.563 0,2.657 -0.3,3.11 -0.39,0.5 -1.34,0.64 -4.14,0.703 h -0.95 v 2.344 m 13.84,-2.344 c -2.55,0 -2.84,-0.313 -2.84,-2.75 v -25.86 c 0,-2.453 0.34,-2.796 2.84,-2.796 h 2.61 c 8.55,0 12.09,4.64 12.09,15.703 0,11.203 -3.2,15.703 -11.29,15.703 h -3.41"
       id="path97" />
    <path
       class="StaffText"
       d="m 1824.2,324.945 h -1.89 l -1.96,3 c -3.25,-2.546 -5.45,-3.406 -9.1,-3.406 -3.96,0 -7.05,1.11 -10.21,3.656 -4.94,4 -7.25,9.047 -7.25,15.797 0,5.11 1.46,9.36 4.41,12.61 3.09,3.5 7.7,5.547 12.5,5.547 4.2,0 7.15,-1.297 10.4,-4.547 l 1.85,4.5 h 2.11 v -11 c 0,-2.547 0,-2.657 0.29,-3.11 0.46,-0.547 1.35,-0.687 4.21,-0.687 h 0.75 v -2.36 h -15.91 v 2.36 h 0.95 c 4.21,0 4.55,0.25 4.55,3.047 0,2.14 -0.34,4.093 -1,5.297 -1.25,2.453 -4.45,4.156 -7.7,4.156 -3.25,0 -6.45,-1.656 -8.16,-4.156 -1.84,-2.797 -2.64,-6.297 -2.64,-11.657 0,-11.14 3.7,-17.093 10.64,-17.093 5.71,0 9.66,4.093 11.71,12.093 h 2.15 l -0.7,-14.047"
       id="path98" />
    <path
       class="StaffText"
       d="m 740.665,324.581 h -2.11 l -11.5,29.141 c -1.344,3.906 -2.64,5.109 -5.5,5.313 h -0.203 v 2.343 h 13.25 v -2.343 h -1 c -2.687,0 -4.047,-0.954 -4.047,-2.86 0,-0.64 0.156,-1.25 0.453,-2.094 l 1.657,-4.406 h 13.25 l 2.703,6.703 c 0.297,0.797 0.39,1.094 0.39,1.344 0,0.813 -1.25,1.313 -3.093,1.313 h -2.11 v 2.343 h 15.5 v -2.343 h -0.687 c -2.61,-0.063 -3.063,-0.36 -4.203,-3.204 l -12.75,-31.25 m -2.454,8.188 5.641,14.203 h -11.187 l 5.546,-14.203"
       id="path99" />
    <path
       class="StaffText"
       d="m 1231.86,325.289 h -29.75 v 2.36 h 0.89 c 2.86,0.046 3.82,0.203 4.21,0.703 0.29,0.437 0.29,0.547 0.29,3.093 v 23.797 c 0,2.563 0,2.657 -0.29,3.11 -0.39,0.5 -1.35,0.703 -4.21,0.703 h -0.89 v 2.344 h 17.14 v -2.344 h -1.64 c -2.86,0 -3.79,-0.203 -4.2,-0.703 -0.3,-0.453 -0.3,-0.61 -0.3,-3.11 v -11.343 h 1 c 5.14,-0.204 7,1.656 7.21,7.203 h 2.34 v -16.407 h -2.34 c -0.32,4.907 -2.25,6.797 -7,6.86 h -1.21 v -11.406 c -0.04,-2.11 0.46,-2.454 3.14,-2.5 h 2.32 c 8.2,-0.047 10.25,1.796 11.79,10.406 h 2.21 l -0.71,-12.766"
       id="path100" />
    <path
       class="StaffText"
       d="m 2157.26,325.289 h -30.04 v 2.36 h 0.89 c 2.86,0.046 3.81,0.203 4.2,0.703 0.3,0.437 0.3,0.547 0.3,3.093 v 23.797 c 0,2.563 0,2.657 -0.3,3.11 -0.39,0.5 -1.34,0.703 -4.2,0.703 h -0.89 v 2.344 h 30.7 l 1,-13.344 h -2.2 c -1.91,8.89 -3.96,10.797 -11.61,11 h -3.3 c -3,-0.11 -3.75,-0.61 -3.59,-2.406 v -12.75 h 1 c 5.14,-0.204 7,1.656 7.2,7.203 h 2.34 v -16.407 h -2.34 c -0.31,4.907 -2.25,6.86 -7,6.86 h -1.2 v -11.406 c -0.05,-2.11 0.45,-2.454 3.14,-2.5 h 2.61 c 8.2,-0.047 10.25,1.75 11.84,10.406 h 2.16 l -0.71,-12.766"
       id="path101" />
    <path
       class="StaffText"
       d="m 2600.57,324.945 h -1.9 l -2,2.954 c -3.64,-2.657 -5.5,-3.36 -8.96,-3.36 -4.75,0 -8.79,2 -12.14,6 -3.2,3.813 -4.7,8.016 -4.7,13.156 0,10.797 7.05,18.454 16.91,18.454 8,0 13.09,-4.704 14.25,-13.094 l -2.36,-0.406 c -1.35,7.453 -5.14,11.156 -11.3,11.156 -7.41,0 -10.91,-5.11 -10.91,-15.906 0,-5.704 0.75,-9.454 2.46,-12.454 1.54,-2.796 4.61,-4.546 7.86,-4.546 3.5,0 6.59,1.843 8.5,5.046 0.95,1.657 1.64,3.5 2.84,7.454 h 2.2 l -0.75,-14.454"
       id="path102" />
    <path
       class="StaffText"
       d="m 566.034,323.945 h -1.891 l -1.953,3 c -3.25,-2.546 -5.453,-3.406 -9.11,-3.406 -3.953,0 -7.046,1.11 -10.203,3.656 -4.937,4 -7.25,9.047 -7.25,15.797 0,5.11 1.453,9.36 4.407,12.61 3.093,3.5 7.703,5.547 12.5,5.547 4.203,0 7.156,-1.297 10.406,-4.547 l 1.844,4.5 h 2.109 v -11 c 0,-2.547 0,-2.657 0.297,-3.11 0.453,-0.547 1.344,-0.687 4.203,-0.687 h 0.75 v -2.36 h -15.906 v 2.36 h 0.953 c 4.203,0 4.547,0.25 4.547,3.047 0,2.14 -0.344,4.093 -1,5.297 -1.25,2.453 -4.453,4.156 -7.703,4.156 -3.25,0 -6.454,-1.656 -8.157,-4.156 -1.843,-2.797 -2.64,-6.297 -2.64,-11.657 0,-11.14 3.703,-17.093 10.64,-17.093 5.703,0 9.657,4.093 11.703,12.093 h 2.157 l -0.703,-14.047"
       id="path103" />
  </g>
  <metadata
     id="metadata103">
    <rdf:RDF>
      <cc:Work
         rdf:about="">
        <dc:title>30</dc:title>
      </cc:Work>
    </rdf:RDF>
  </metadata>
</svg>
