<?xml version="1.0" encoding="UTF-8" standalone="no"?>
<svg
   width="2555"
   height="700"
   viewBox="0 0 2555 700.00002"
   version="1.2"
   id="svg181"
   sodipodi:docname="38-1.svg"
   inkscape:version="1.3 (0e150ed6c4, 2023-07-21)"
   xmlns:inkscape="http://www.inkscape.org/namespaces/inkscape"
   xmlns:sodipodi="http://sodipodi.sourceforge.net/DTD/sodipodi-0.dtd"
   xmlns="http://www.w3.org/2000/svg"
   xmlns:svg="http://www.w3.org/2000/svg"
   xmlns:rdf="http://www.w3.org/1999/02/22-rdf-syntax-ns#"
   xmlns:cc="http://creativecommons.org/ns#"
   xmlns:dc="http://purl.org/dc/elements/1.1/">
  <defs
     id="defs181" />
  <sodipodi:namedview
     id="namedview181"
     pagecolor="#505050"
     bordercolor="#ffffff"
     borderopacity="1"
     inkscape:showpageshadow="0"
     inkscape:pageopacity="0"
     inkscape:pagecheckerboard="1"
     inkscape:deskcolor="#505050"
     inkscape:zoom="0.18605646"
     inkscape:cx="1486.108"
     inkscape:cy="2104.2"
     inkscape:window-width="1680"
     inkscape:window-height="979"
     inkscape:window-x="1358"
     inkscape:window-y="-8"
     inkscape:window-maximized="1"
     inkscape:current-layer="svg181" />
  <title
     id="title1">38</title>
  <desc
     id="desc1">Generated by MuseScore Studio 4.3.0</desc>
  <g
     id="g183"
     transform="translate(-211.099,-207.52627)">
    <g
       id="g181"
       transform="translate(0,-327.85746)">
      <polyline
         class="StaffLines"
         fill="none"
         stroke="#000000"
         stroke-width="2.73"
         stroke-linejoin="bevel"
         points="212.598,993.799 2764.6,993.799"
         id="polyline6" />
      <polyline
         class="StaffLines"
         fill="none"
         stroke="#000000"
         stroke-width="2.73"
         stroke-linejoin="bevel"
         points="212.598,1018.6 2764.6,1018.6"
         id="polyline7" />
      <polyline
         class="StaffLines"
         fill="none"
         stroke="#000000"
         stroke-width="2.73"
         stroke-linejoin="bevel"
         points="212.598,1043.4 2764.6,1043.4"
         id="polyline8" />
      <polyline
         class="StaffLines"
         fill="none"
         stroke="#000000"
         stroke-width="2.73"
         stroke-linejoin="bevel"
         points="212.598,1068.2 2764.6,1068.2"
         id="polyline9" />
      <polyline
         class="StaffLines"
         fill="none"
         stroke="#000000"
         stroke-width="2.73"
         stroke-linejoin="bevel"
         points="212.598,1093 2764.6,1093"
         id="polyline10" />
      <path
         class="MeasureNumber"
         d="m 229.958,915.887 h -1.157 c -2.203,1.64 -6.437,3.031 -9.328,3.031 l -0.468,1.766 h 2.75 c 2.437,0 2.718,0.078 2.718,0.797 0,0.359 0,0.359 -0.39,1.796 l -4.282,16 c -0.531,2 -0.562,2.125 -0.921,2.485 -0.407,0.39 -1.25,0.515 -3.36,0.562 h -1.719 l -0.203,1.875 h 14.797 l 0.235,-1.875 h -2.157 c -2.593,0 -3.156,-0.203 -3.156,-1.078 0,-0.281 0.156,-1.203 0.359,-1.969 l 6.282,-23.39 m 17.672,0.156 c -8.594,0 -12.875,11.844 -12.875,18.875 0,5.797 2.89,9.875 6.968,9.875 6.828,0 12.953,-8.875 12.953,-18.797 0,-5.953 -2.843,-9.953 -7.046,-9.953 m -0.032,1.594 c 2.078,0 3.203,1.844 3.203,5.281 0,3.922 -1,9 -2.64,13.125 -1.922,5 -3.844,7.156 -6.25,7.156 -2.156,0 -3.36,-1.922 -3.36,-5.312 0,-5.203 1.844,-12.172 4.407,-16.797 1.234,-2.25 2.843,-3.453 4.64,-3.453"
         id="path10" />
      <polyline
         class="BarLine"
         fill="none"
         stroke="#000000"
         stroke-width="4.46"
         stroke-linejoin="bevel"
         points="1667.11,992.435 1667.11,1094.36"
         id="polyline15" />
      <polyline
         class="BarLine"
         fill="none"
         stroke="#000000"
         stroke-width="4.46"
         stroke-linejoin="bevel"
         points="2430.39,992.435 2430.39,1094.36"
         id="polyline17" />
      <polyline
         class="BarLine"
         fill="none"
         stroke="#000000"
         stroke-width="4.46"
         stroke-linejoin="bevel"
         points="994.66,992.435 994.66,1094.36"
         id="polyline21" />
      <polyline
         class="BarLine"
         fill="none"
         stroke="#000000"
         stroke-width="4.46"
         stroke-linejoin="bevel"
         points="2739.55,992.435 2739.55,1094.36"
         id="polyline23" />
      <polyline
         class="BarLine"
         fill="none"
         stroke="#000000"
         stroke-width="13.64"
         stroke-linejoin="bevel"
         points="2757.78,992.435 2757.78,1094.36"
         id="polyline24" />
      <polyline
         class="LedgerLine"
         fill="none"
         stroke="#000000"
         stroke-width="3.97"
         stroke-linejoin="bevel"
         points="2456.67,1117.8 2505.27,1117.8"
         id="polyline25" />
      <polyline
         class="Stem"
         fill="none"
         stroke="#000000"
         stroke-width="2.48"
         stroke-linejoin="bevel"
         points="387.671,1089.03 387.671,1006.2"
         id="polyline26" />
      <polyline
         class="Stem"
         fill="none"
         stroke="#000000"
         stroke-width="2.48"
         stroke-linejoin="bevel"
         points="2277.5,1064.23 2277.5,993.799"
         id="polyline38" />
      <polyline
         class="Stem"
         fill="none"
         stroke="#000000"
         stroke-width="2.48"
         stroke-linejoin="bevel"
         points="2095.86,1064.23 2095.86,993.799"
         id="polyline40" />
      <polyline
         class="Stem"
         fill="none"
         stroke="#000000"
         stroke-width="2.48"
         stroke-linejoin="bevel"
         points="1914.22,1101.43 1914.22,1024.8"
         id="polyline41" />
      <polyline
         class="Stem"
         fill="none"
         stroke="#000000"
         stroke-width="2.48"
         stroke-linejoin="bevel"
         points="1732.58,1101.43 1732.58,1024.8"
         id="polyline42" />
      <polyline
         class="Stem"
         fill="none"
         stroke="#000000"
         stroke-width="2.48"
         stroke-linejoin="bevel"
         points="2495.85,1113.83 2495.85,1031"
         id="polyline46" />
      <polyline
         class="Stem"
         fill="none"
         stroke="#000000"
         stroke-width="2.48"
         stroke-linejoin="bevel"
         points="1332.59,1089.03 1332.59,1018.6"
         id="polyline51" />
      <polyline
         class="Stem"
         fill="none"
         stroke="#000000"
         stroke-width="2.48"
         stroke-linejoin="bevel"
         points="1060.12,1076.63 1060.12,993.799"
         id="polyline52" />
      <polyline
         class="Stem"
         fill="none"
         stroke="#000000"
         stroke-width="2.48"
         stroke-linejoin="bevel"
         points="1514.23,1089.03 1514.23,1018.6"
         id="polyline53" />
      <polyline
         class="Stem"
         fill="none"
         stroke="#000000"
         stroke-width="2.48"
         stroke-linejoin="bevel"
         points="841.777,1064.23 841.777,993.799"
         id="polyline57" />
      <polyline
         class="Stem"
         fill="none"
         stroke="#000000"
         stroke-width="2.48"
         stroke-linejoin="bevel"
         points="660.135,1064.23 660.135,993.799"
         id="polyline60" />
      <path
         class="Note"
         transform="matrix(0.992001,0,0,0.992001,356.679,1093)"
         d="M 0,4.20313 C 0,8.5 3.09375,13.2969 11.2031,13.2969 21.5938,13.2969 32.5,4.79688 32.5,-4 c 0,-5.90625 -5,-9.2031 -11.2031,-9.2031 C 11.5938,-13.2031 0,-5 0,4.20313"
         id="path61" />
      <path
         class="Note"
         transform="matrix(0.992001,0,0,0.992001,629.143,1068.2)"
         d="M 0,4.20313 C 0,8.5 3.09375,13.2969 11.2031,13.2969 21.5938,13.2969 32.5,4.79688 32.5,-4 c 0,-5.90625 -5,-9.2031 -11.2031,-9.2031 C 11.5938,-13.2031 0,-5 0,4.20313"
         id="path62" />
      <path
         class="Note"
         transform="matrix(0.992001,0,0,0.992001,810.785,1068.2)"
         d="M 0,4.20313 C 0,8.5 3.09375,13.2969 11.2031,13.2969 21.5938,13.2969 32.5,4.79688 32.5,-4 c 0,-5.90625 -5,-9.2031 -11.2031,-9.2031 C 11.5938,-13.2031 0,-5 0,4.20313"
         id="path64" />
      <path
         class="Note"
         transform="matrix(0.992001,0,0,0.992001,1029.13,1080.6)"
         d="M 0,4.20313 C 0,8.5 3.09375,13.2969 11.2031,13.2969 21.5938,13.2969 32.5,4.79688 32.5,-4 c 0,-5.90625 -5,-9.2031 -11.2031,-9.2031 C 11.5938,-13.2031 0,-5 0,4.20313"
         id="path65" />
      <path
         class="Note"
         transform="matrix(0.992001,0,0,0.992001,1301.6,1093)"
         d="M 0,4.20313 C 0,8.5 3.09375,13.2969 11.2031,13.2969 21.5938,13.2969 32.5,4.79688 32.5,-4 c 0,-5.90625 -5,-9.2031 -11.2031,-9.2031 C 11.5938,-13.2031 0,-5 0,4.20313"
         id="path66" />
      <path
         class="Note"
         transform="matrix(0.992001,0,0,0.992001,1483.24,1093)"
         d="M 0,4.20313 C 0,8.5 3.09375,13.2969 11.2031,13.2969 21.5938,13.2969 32.5,4.79688 32.5,-4 c 0,-5.90625 -5,-9.2031 -11.2031,-9.2031 C 11.5938,-13.2031 0,-5 0,4.20313"
         id="path68" />
      <path
         class="Note"
         transform="matrix(0.992001,0,0,0.992001,1701.58,1105.4)"
         d="M 0,4.20313 C 0,8.5 3.09375,13.2969 11.2031,13.2969 21.5938,13.2969 32.5,4.79688 32.5,-4 c 0,-5.90625 -5,-9.2031 -11.2031,-9.2031 C 11.5938,-13.2031 0,-5 0,4.20313"
         id="path69" />
      <path
         class="Note"
         transform="matrix(0.992001,0,0,0.992001,1883.23,1105.4)"
         d="M 0,4.20313 C 0,8.5 3.09375,13.2969 11.2031,13.2969 21.5938,13.2969 32.5,4.79688 32.5,-4 c 0,-5.90625 -5,-9.2031 -11.2031,-9.2031 C 11.5938,-13.2031 0,-5 0,4.20313"
         id="path71" />
      <path
         class="Note"
         transform="matrix(0.992001,0,0,0.992001,2064.87,1068.2)"
         d="M 0,4.20313 C 0,8.5 3.09375,13.2969 11.2031,13.2969 21.5938,13.2969 32.5,4.79688 32.5,-4 c 0,-5.90625 -5,-9.2031 -11.2031,-9.2031 C 11.5938,-13.2031 0,-5 0,4.20313"
         id="path72" />
      <path
         class="Note"
         transform="matrix(0.992001,0,0,0.992001,2246.51,1068.2)"
         d="M 0,4.20313 C 0,8.5 3.09375,13.2969 11.2031,13.2969 21.5938,13.2969 32.5,4.79688 32.5,-4 c 0,-5.90625 -5,-9.2031 -11.2031,-9.2031 C 11.5938,-13.2031 0,-5 0,4.20313"
         id="path73" />
      <path
         class="Note"
         transform="matrix(0.992001,0,0,0.992001,2464.86,1117.8)"
         d="M 0,4.20313 C 0,8.5 3.09375,13.2969 11.2031,13.2969 21.5938,13.2969 32.5,4.79688 32.5,-4 c 0,-5.90625 -5,-9.2031 -11.2031,-9.2031 C 11.5938,-13.2031 0,-5 0,4.20313"
         id="path75" />
      <path
         class="Clef"
         transform="matrix(0.992001,0,0,0.992001,231.198,1068.2)"
         d="m 12.2969,51.2969 c 0,6.6094 5,15.3125 18.5,15.3125 4.7031,0 8.8125,-1.2031 12.4062,-3.4063 C 48.6094,59.4063 50,52.7969 50,46.5 c 0,-3.8906 -0.5937,-8.3906 -1.5937,-14.0937 -0.2969,-2 -0.9063,-5 -1.5,-8.9063 C 56.7031,20.2969 64,10.0938 64,-0.203125 64,-15.2969 53.2969,-25.5 38.7031,-25.5 c -1,-6 -2,-11.9063 -2.7968,-17.5 10.5,-11.1094 17.7968,-23.6094 17.7968,-39.5 0,-9.1094 -2.7968,-16.5 -4.4062,-20.109 -2.3906,-5.094 -5.2969,-8.594 -7.0938,-8.594 -0.7031,0 -3.7968,1.203 -7.0937,5.094 -6.4063,7.609 -8.2031,20.4059 -8.2031,28.7965 0,5.4062 0.5,10.3125 2.2031,21.5156 -0.1094,0.0938 -5.3125,5.3906 -7.4063,7.0938 C 12.5938,-40.2969 0,-28.1094 0,-8.09375 0,10.5938 16.2969,25.2969 34.9063,25.2969 c 2.8906,0 5.5937,-0.2969 7.8906,-0.7031 1.9062,9.6093 3.1094,16.6093 3.1094,21.9062 0,10.4063 -5.4063,15.9063 -15.5,15.9063 -2.4063,0 -4.5,-0.5 -4.7032,-0.5 -0.0937,-0.1094 -0.2968,-0.2032 -0.2968,-0.2969 0,-0.2031 0.2031,-0.3125 0.5,-0.3125 C 30.6094,60.5 35.2969,56.5 35.2969,50.1094 35.2969,44.7031 31.2031,39 23.7031,39 c -7,0 -11.4062,5.7031 -11.4062,12.2969 m 20.9062,-133.5 c 0.9063,-4 5.5,-14.5 10.7032,-14.5 1.5,0 3.8906,4.7968 3.8906,11.7968 0,10.4063 -7.6875,18.2032 -14.5938,25 -0.5937,-4 -1.0937,-7.8906 -1.0937,-12.0937 0,-3.7031 0.2969,-7.1094 1.0937,-10.2031 M 42,20.5938 c -2,0.4062 -3.8906,0.6093 -5.7969,0.6093 -14.2968,0 -26.49997,-10 -26.49997,-25.10935 0,-12.18755 8.59377,-23.09375 17.40627,-30.70315 1.6875,-1.5 3.2969,-2.8906 4.7969,-4.3906 0.8906,5.3906 1.5937,10.0937 2.2968,14.2031 -9.1093,2.7031 -15.2968,12.2969 -15.2968,21.70315 0,7 5.5,16.59375 13.5,16.59375 0.7968,0 1.7031,-0.4062 1.7031,-1.2969 0,-0.9062 -1,-1.4062 -2.2031,-2.2031 C 28,7.59375 25.7969,5 25.7969,0.09375 25.7969,-6 30.4063,-10.9063 36.2031,-12.2969 L 42,20.5938 M 56.2031,2.09375 c 0,7.10938 -2.9062,14.40625 -10,17.31255 -2.0937,-12.00005 -4.7968,-27.9063 -5.5,-32.3126 9,0 15.5,6.10942 15.5,15.00005"
         id="path96" />
      <path
         class="Beam"
         fill-rule="evenodd"
         d="m 1731.34,1018.6 h 184.12 v 12.4 h -184.12 v -12.4"
         id="path99" />
      <path
         class="Beam"
         fill-rule="evenodd"
         d="m 1331.35,1012.4 h 184.12 v 12.4 h -184.12 v -12.4"
         id="path101" />
      <path
         class="Beam"
         fill-rule="evenodd"
         d="m 2094.62,987.599 h 184.12 v 12.4 h -184.12 v -12.4"
         id="path103" />
      <path
         class="Beam"
         fill-rule="evenodd"
         d="m 658.895,987.599 h 184.122 v 12.4 H 658.895 v -12.4"
         id="path108" />
      <path
         class="Lyrics"
         d="m 1704.11,1169.69 -8.86,0.55 v 2.16 h 2.04 c 1.91,0.04 2.16,0.34 2.16,2.5 v 14.29 c -0.05,0.75 -0.09,1.05 -0.3,1.3 -0.36,0.45 -1.36,0.66 -3.5,0.7 h -0.2 v 1.8 h 13.34 v -1.8 h -0.89 c -3.36,-0.1 -3.79,-0.35 -3.79,-2.15 v -2.7 c 0.04,-8.4 3.04,-14.8 6.93,-15 -0.68,0.81 -0.89,1.31 -0.89,2.25 0,1.6 1.14,2.75 2.75,2.75 1.85,0 3.05,-1.35 3.05,-3.35 0,-2.45 -1.7,-4.05 -4.34,-4.05 -3.16,0 -5.86,2.5 -7.5,6.96 v -6.21 m 35.34,12.05 c 0.05,-7.5 -4.2,-12.8 -10.3,-12.8 -6.4,0 -11.2,5.55 -11.2,13.05 0,7.05 4.55,11.75 11.3,11.75 4.79,0 8.15,-2.34 10.2,-7.09 l -1.75,-0.96 c -2.05,3.85 -4.16,5.35 -7.5,5.35 -2.55,0 -4.41,-1.05 -5.7,-3.3 -0.89,-1.5 -1.3,-3.25 -1.25,-6 h 16.2 m -16.16,-2.15 c 0,-3.5 1.61,-8.5 5.82,-8.5 3,0 5,2.65 5,6.7 0,1.4 -0.46,1.8 -2.07,1.8 h -8.75"
         id="path111" />
      <path
         class="Lyrics"
         d="m 1885.75,1169.69 -8.86,0.55 v 2.16 h 2.05 c 1.9,0.04 2.15,0.34 2.15,2.5 v 14.29 c -0.04,0.75 -0.09,1.05 -0.29,1.3 -0.36,0.45 -1.36,0.66 -3.5,0.7 h -0.21 v 1.8 h 13.35 v -1.8 h -0.89 c -3.36,-0.1 -3.8,-0.35 -3.8,-2.15 v -2.7 c 0.05,-8.4 3.05,-14.8 6.94,-15 -0.69,0.81 -0.89,1.31 -0.89,2.25 0,1.6 1.14,2.75 2.75,2.75 1.84,0 3.04,-1.35 3.04,-3.35 0,-2.45 -1.7,-4.05 -4.34,-4.05 -3.16,0 -5.86,2.5 -7.5,6.96 v -6.21 m 35.34,12.05 c 0.05,-7.5 -4.2,-12.8 -10.29,-12.8 -6.41,0 -11.21,5.55 -11.21,13.05 0,7.05 4.55,11.75 11.3,11.75 4.8,0 8.16,-2.34 10.2,-7.09 l -1.75,-0.96 c -2.04,3.85 -4.15,5.35 -7.5,5.35 -2.54,0 -4.4,-1.05 -5.7,-3.3 -0.89,-1.5 -1.3,-3.25 -1.25,-6 h 16.2 m -16.15,-2.15 c 0,-3.5 1.61,-8.5 5.81,-8.5 3,0 5,2.65 5,6.7 0,1.4 -0.45,1.8 -2.06,1.8 h -8.75"
         id="path116" />
      <path
         class="Lyrics"
         d="m 2067.99,1169.15 h -1.75 l -1.46,1.79 c -1.79,-1.4 -3.59,-2 -6.09,-2 -4.41,0 -7.3,2.85 -7.3,7.25 0,4.71 3.05,5.9 7.05,6.85 l 2.64,0.61 c 3.95,0.94 5.36,1.94 5.36,3.94 0,2.35 -2.05,4 -4.95,4 -4.25,0 -7.25,-2.69 -8.46,-7.69 h -2 v 9.44 h 1.75 l 1.75,-2.05 c 2.05,1.65 4.3,2.45 6.86,2.45 4.89,0 8.14,-3.05 8.14,-7.7 0,-2.2 -0.7,-3.89 -2.09,-5.05 -1.2,-1.05 -2.2,-1.45 -5.25,-2.09 l -2.5,-0.56 c -2.75,-0.6 -2.75,-0.6 -3.66,-1.1 -1.09,-0.5 -1.75,-1.55 -1.75,-2.65 0,-2.05 1.91,-3.44 4.66,-3.44 4.09,0 6.09,2.89 7.3,6.39 h 1.75 v -8.39 m 16.09,-0.21 c -6.14,0 -10.89,5.46 -10.89,12.46 0,6.84 4.8,12.34 10.8,12.34 6,0 10.79,-5.5 10.79,-12.4 0,-6.85 -4.79,-12.4 -10.7,-12.4 m 0,2.15 c 3.5,0 5.45,3.65 5.45,10.25 0,6.65 -1.95,10.25 -5.54,10.25 -3.6,0 -5.55,-3.6 -5.55,-10.19 0,-6.81 1.89,-10.31 5.64,-10.31 m 22.61,-14.96 -9.25,0.56 v 2.15 h 2.45 c 1.85,0.04 2.1,0.35 2.1,2.5 v 27.85 c -0.05,0.75 -0.1,1.05 -0.3,1.3 -0.36,0.45 -1.3,0.66 -3.45,0.7 h -0.35 v 1.8 h 12.94 v -1.8 h -0.34 c -3.35,-0.1 -3.8,-0.35 -3.8,-2.15 v -32.91"
         id="path122" />
      <path
         class="Lyrics"
         d="m 2249.63,1169.15 h -1.75 l -1.45,1.79 c -1.8,-1.4 -3.6,-2 -6.1,-2 -4.4,0 -7.3,2.85 -7.3,7.25 0,4.71 3.05,5.9 7.05,6.85 l 2.64,0.61 c 3.96,0.94 5.36,1.94 5.36,3.94 0,2.35 -2.05,4 -4.95,4 -4.25,0 -7.25,-2.69 -8.45,-7.69 h -2 v 9.44 h 1.75 l 1.75,-2.05 c 2.04,1.65 4.29,2.45 6.85,2.45 4.9,0 8.15,-3.05 8.15,-7.7 0,-2.2 -0.71,-3.89 -2.1,-5.05 -1.2,-1.05 -2.2,-1.45 -5.25,-2.09 l -2.5,-0.56 c -2.75,-0.6 -2.75,-0.6 -3.65,-1.1 -1.1,-0.5 -1.75,-1.55 -1.75,-2.65 0,-2.05 1.9,-3.44 4.65,-3.44 4.1,0 6.1,2.89 7.3,6.39 h 1.75 v -8.39 m 16.09,-0.21 c -6.14,0 -10.89,5.46 -10.89,12.46 0,6.84 4.8,12.34 10.8,12.34 6,0 10.8,-5.5 10.8,-12.4 0,-6.85 -4.8,-12.4 -10.71,-12.4 m 0,2.15 c 3.5,0 5.46,3.65 5.46,10.25 0,6.65 -1.96,10.25 -5.55,10.25 -3.6,0 -5.55,-3.6 -5.55,-10.19 0,-6.81 1.89,-10.31 5.64,-10.31 m 22.61,-14.96 -9.25,0.56 v 2.15 h 2.45 c 1.85,0.04 2.1,0.35 2.1,2.5 v 27.85 c -0.05,0.75 -0.1,1.05 -0.3,1.3 -0.36,0.45 -1.3,0.66 -3.45,0.7 h -0.35 v 1.8 h 12.94 v -1.8 h -0.34 c -3.35,-0.1 -3.8,-0.35 -3.8,-2.15 v -32.91"
         id="path123" />
      <path
         class="Lyrics"
         d="m 2472.47,1193.34 8.71,-0.35 v -2.15 h -0.91 c -2.84,-0.15 -3.09,-0.44 -3.09,-3.65 v -31.06 l -9.8,0.56 v 2.15 h 2.94 c 1.9,0.04 2.15,0.35 2.15,2.5 v 11.31 c -1.84,-2.56 -4,-3.71 -6.9,-3.71 -5.64,0 -9.94,5.46 -9.94,12.65 0,7.1 4.14,12.15 9.94,12.15 3.15,0 5.31,-1.34 6.9,-4.34 v 3.94 m -5.9,-21.69 c 2.06,0 4,1.5 4.9,3.79 0.66,1.5 0.96,3.55 0.96,6 0,5.85 -2.3,9.6 -5.91,9.6 -3.55,0 -5.64,-3.3 -5.64,-8.85 0,-3 0.3,-5.25 0.94,-6.9 0.86,-2.25 2.7,-3.64 4.75,-3.64 m 28.5,-2.71 c -6.14,0 -10.89,5.46 -10.89,12.46 0,6.84 4.79,12.34 10.79,12.34 6,0 10.8,-5.5 10.8,-12.4 0,-6.85 -4.8,-12.4 -10.7,-12.4 m 0,2.15 c 3.5,0 5.45,3.65 5.45,10.25 0,6.65 -1.95,10.25 -5.55,10.25 -3.59,0 -5.54,-3.6 -5.54,-10.19 0,-6.81 1.89,-10.31 5.64,-10.31"
         id="path131" />
      <path
         class="Lyrics"
         d="m 352.842,1169.69 -8.891,0.55 v 2.16 h 2.047 c 1.891,0.04 2.141,0.34 2.141,2.5 v 14.29 c -0.047,0.75 -0.094,1.05 -0.297,1.3 -0.344,0.45 -1.297,0.66 -3.453,0.7 h -0.188 v 1.8 h 12.594 v -1.8 h -0.203 c -3.297,-0.1 -3.75,-0.35 -3.75,-2.2 v -9.25 c 0,-4.45 2.453,-7.75 5.703,-7.75 2.844,0 4.297,2.05 4.297,6.1 v 11.15 c -0.047,0.66 -0.094,1 -0.344,1.25 -0.297,0.45 -1.297,0.66 -3.453,0.7 h -0.203 v 1.8 h 12.656 v -1.8 h -0.203 c -3.297,-0.1 -3.75,-0.35 -3.75,-2.15 v -8.85 c 0,-5 2.25,-8.2 5.75,-8.2 2.859,0 4.25,2.16 4.25,6.66 v 10.54 c -0.047,0.71 -0.094,1.05 -0.344,1.3 -0.297,0.45 -1.297,0.66 -3.453,0.7 h -0.203 v 1.8 h 12.656 v -1.8 h -0.203 c -3.297,-0.1 -3.75,-0.35 -3.75,-2.2 v -11.34 c 0,-3.11 -0.297,-4.16 -1.594,-5.86 -1.453,-1.85 -3.5,-2.85 -5.906,-2.85 -3.25,0 -5.656,1.55 -7.797,5 -0.859,-3 -3.562,-5 -6.906,-5 -3.047,0 -5.25,1.46 -7.203,4.6 v -3.85 m 41.906,-12.45 c -1.609,0 -2.906,1.3 -2.906,2.89 0,1.61 1.297,2.91 2.859,2.91 1.641,0 2.938,-1.3 2.938,-2.91 0,-1.59 -1.297,-2.89 -2.891,-2.89 m 2.344,12.45 -9.391,0.55 v 2.16 h 2.547 c 1.891,0.04 2.141,0.34 2.141,2.5 v 14.29 c -0.047,0.75 -0.094,1.05 -0.297,1.3 -0.344,0.45 -1.297,0.66 -3.453,0.7 h -0.344 v 1.8 h 12.953 v -1.8 h -0.359 c -3.344,-0.1 -3.797,-0.35 -3.797,-2.15 v -19.35"
         id="path135" />
      <path
         class="Lyrics"
         d="m 632.259,1169.15 h -1.75 l -1.453,1.79 c -1.797,-1.4 -3.594,-2 -6.094,-2 -4.406,0 -7.297,2.85 -7.297,7.25 0,4.71 3.047,5.9 7.047,6.85 l 2.64,0.61 c 3.954,0.94 5.36,1.94 5.36,3.94 0,2.35 -2.047,4 -4.953,4 -4.25,0 -7.25,-2.69 -8.453,-7.69 h -2 v 9.44 h 1.75 l 1.75,-2.05 c 2.046,1.65 4.296,2.45 6.859,2.45 4.891,0 8.141,-3.05 8.141,-7.7 0,-2.2 -0.704,-3.89 -2.094,-5.05 -1.203,-1.05 -2.203,-1.45 -5.25,-2.09 l -2.5,-0.56 c -2.75,-0.6 -2.75,-0.6 -3.656,-1.1 -1.094,-0.5 -1.75,-1.55 -1.75,-2.65 0,-2.05 1.906,-3.44 4.656,-3.44 4.094,0 6.094,2.89 7.297,6.39 h 1.75 v -8.39 m 16.093,-0.21 c -6.14,0 -10.89,5.46 -10.89,12.46 0,6.84 4.797,12.34 10.797,12.34 6,0 10.797,-5.5 10.797,-12.4 0,-6.85 -4.797,-12.4 -10.704,-12.4 m 0,2.15 c 3.5,0 5.454,3.65 5.454,10.25 0,6.65 -1.954,10.25 -5.547,10.25 -3.594,0 -5.547,-3.6 -5.547,-10.19 0,-6.81 1.89,-10.31 5.64,-10.31 m 22.61,-14.96 -9.25,0.56 v 2.15 h 2.453 c 1.844,0.04 2.094,0.35 2.094,2.5 v 27.85 c -0.047,0.75 -0.094,1.05 -0.297,1.3 -0.36,0.45 -1.297,0.66 -3.453,0.7 h -0.344 v 1.8 h 12.937 v -1.8 h -0.343 c -3.344,-0.1 -3.797,-0.35 -3.797,-2.15 v -32.91"
         id="path136" />
      <path
         class="Lyrics"
         d="m 813.901,1169.15 h -1.75 l -1.453,1.79 c -1.797,-1.4 -3.594,-2 -6.094,-2 -4.406,0 -7.297,2.85 -7.297,7.25 0,4.71 3.047,5.9 7.047,6.85 l 2.641,0.61 c 3.953,0.94 5.359,1.94 5.359,3.94 0,2.35 -2.047,4 -4.953,4 -4.25,0 -7.25,-2.69 -8.453,-7.69 h -2 v 9.44 h 1.75 l 1.75,-2.05 c 2.047,1.65 4.297,2.45 6.859,2.45 4.891,0 8.141,-3.05 8.141,-7.7 0,-2.2 -0.703,-3.89 -2.094,-5.05 -1.203,-1.05 -2.203,-1.45 -5.25,-2.09 l -2.5,-0.56 c -2.75,-0.6 -2.75,-0.6 -3.656,-1.1 -1.094,-0.5 -1.75,-1.55 -1.75,-2.65 0,-2.05 1.906,-3.44 4.656,-3.44 4.094,0 6.094,2.89 7.297,6.39 h 1.75 v -8.39 m 16.094,-0.21 c -6.141,0 -10.891,5.46 -10.891,12.46 0,6.84 4.797,12.34 10.797,12.34 6,0 10.797,-5.5 10.797,-12.4 0,-6.85 -4.797,-12.4 -10.703,-12.4 m 0,2.15 c 3.5,0 5.453,3.65 5.453,10.25 0,6.65 -1.953,10.25 -5.547,10.25 -3.594,0 -5.547,-3.6 -5.547,-10.19 0,-6.81 1.891,-10.31 5.641,-10.31 m 22.609,-14.96 -9.25,0.56 v 2.15 h 2.453 c 1.844,0.04 2.094,0.35 2.094,2.5 v 27.85 c -0.047,0.75 -0.094,1.05 -0.297,1.3 -0.359,0.45 -1.297,0.66 -3.453,0.7 h -0.344 v 1.8 h 12.938 v -1.8 h -0.344 c -3.344,-0.1 -3.797,-0.35 -3.797,-2.15 v -32.91"
         id="path137" />
      <path
         class="Lyrics"
         d="m 1032.79,1169.69 v -2.85 c 0,-2.5 0.16,-4.15 0.55,-5.15 0.81,-2.2 2.56,-3.56 4.56,-3.56 1.05,0 1.69,0.31 1.69,0.86 0,0.2 0,0.25 -0.3,0.64 -0.29,0.46 -0.45,1.06 -0.45,1.61 0,1.5 1.2,2.64 2.75,2.64 1.66,0 2.81,-1.25 2.81,-3.04 0,-2.9 -2.5,-4.71 -6.56,-4.71 -3.44,0 -6,1.21 -7.75,3.71 -1.5,2.1 -2,4.25 -2,8.31 v 1.54 h -4.39 v 2.15 h 4.39 v 17.35 c -0.05,0.71 -0.09,1 -0.3,1.3 -0.34,0.45 -1.29,0.66 -3.45,0.7 h -0.19 v 1.8 h 13.35 v -1.8 h -0.91 c -3.34,-0.1 -3.8,-0.35 -3.8,-2.15 v -17.2 h 5.5 v -2.15 h -5.5 m 28.55,7.21 c 0,-3.16 -0.55,-4.75 -2,-5.96 -1.64,-1.35 -4.09,-2 -7.3,-2 -5.64,0 -9.75,2.65 -9.75,6.3 0,1.85 1.16,3.05 2.91,3.05 1.59,0 2.7,-1.05 2.7,-2.55 0,-0.65 -0.25,-1.34 -0.75,-2.05 -0.31,-0.35 -0.36,-0.45 -0.36,-0.7 0,-1 2,-1.9 4.41,-1.9 1.59,0 3.34,0.5 4.14,1.25 0.95,0.81 1.31,2 1.31,4.25 v 1.95 c -5.2,0.9 -6.86,1.3 -9.31,2.25 -4.34,1.61 -6.39,3.9 -6.39,7.11 0,3.59 2.8,5.84 7.25,5.84 3.45,0 6.55,-1.4 8.7,-3.95 0.8,2.55 2.05,3.55 4.39,3.55 2.25,0 4.61,-1.44 4.61,-2.9 0,-0.35 -0.2,-0.6 -0.5,-0.6 -0.2,0 -0.4,0.06 -0.75,0.2 -0.7,0.3 -1,0.36 -1.4,0.36 -1.41,0 -1.91,-0.91 -1.91,-3.46 v -10.04 m -4.69,6.09 c 0,3 -0.15,3.7 -1,5 -1.25,1.85 -3.5,3.1 -5.7,3.1 -2.3,0 -3.95,-1.65 -3.95,-3.9 0,-2.1 1.04,-3.6 3.25,-4.65 1.54,-0.7 3.5,-1.2 7.4,-1.85 v 2.3"
         id="path140" />
      <path
         class="Lyrics"
         d="m 1297.76,1169.69 -8.89,0.55 v 2.16 h 2.04 c 1.9,0.04 2.15,0.34 2.15,2.5 v 14.29 c -0.05,0.75 -0.1,1.05 -0.3,1.3 -0.35,0.45 -1.3,0.66 -3.45,0.7 h -0.19 v 1.8 h 12.59 v -1.8 h -0.2 c -3.3,-0.1 -3.75,-0.35 -3.75,-2.2 v -9.25 c 0,-4.45 2.45,-7.75 5.7,-7.75 2.85,0 4.3,2.05 4.3,6.1 v 11.15 c -0.05,0.66 -0.1,1 -0.35,1.25 -0.29,0.45 -1.29,0.66 -3.45,0.7 h -0.2 v 1.8 h 12.65 v -1.8 h -0.2 c -3.3,-0.1 -3.75,-0.35 -3.75,-2.15 v -8.85 c 0,-5 2.25,-8.2 5.75,-8.2 2.86,0 4.25,2.16 4.25,6.66 v 10.54 c -0.05,0.71 -0.09,1.05 -0.34,1.3 -0.3,0.45 -1.3,0.66 -3.46,0.7 h -0.2 v 1.8 h 12.66 v -1.8 h -0.21 c -3.29,-0.1 -3.75,-0.35 -3.75,-2.2 v -11.34 c 0,-3.11 -0.29,-4.16 -1.59,-5.86 -1.45,-1.85 -3.5,-2.85 -5.91,-2.85 -3.25,0 -5.65,1.55 -7.79,5 -0.86,-3 -3.56,-5 -6.91,-5 -3.05,0 -5.25,1.46 -7.2,4.6 v -3.85 m 41.9,-12.45 c -1.6,0 -2.9,1.3 -2.9,2.89 0,1.61 1.3,2.91 2.86,2.91 1.64,0 2.94,-1.3 2.94,-2.91 0,-1.59 -1.3,-2.89 -2.9,-2.89 m 2.35,12.45 -9.39,0.55 v 2.16 h 2.54 c 1.9,0.04 2.15,0.34 2.15,2.5 v 14.29 c -0.05,0.75 -0.1,1.05 -0.3,1.3 -0.35,0.45 -1.3,0.66 -3.45,0.7 h -0.35 v 1.8 h 12.95 v -1.8 h -0.35 c -3.35,-0.1 -3.8,-0.35 -3.8,-2.15 v -19.35"
         id="path142" />
      <path
         class="Lyrics"
         d="m 1479.4,1169.69 -8.89,0.55 v 2.16 h 2.05 c 1.89,0.04 2.14,0.34 2.14,2.5 v 14.29 c -0.05,0.75 -0.1,1.05 -0.3,1.3 -0.34,0.45 -1.3,0.66 -3.45,0.7 h -0.19 v 1.8 h 12.59 v -1.8 h -0.2 c -3.3,-0.1 -3.75,-0.35 -3.75,-2.2 v -9.25 c 0,-4.45 2.45,-7.75 5.7,-7.75 2.85,0 4.3,2.05 4.3,6.1 v 11.15 c -0.05,0.66 -0.09,1 -0.34,1.25 -0.3,0.45 -1.3,0.66 -3.46,0.7 h -0.2 v 1.8 h 12.66 v -1.8 h -0.21 c -3.29,-0.1 -3.75,-0.35 -3.75,-2.15 v -8.85 c 0,-5 2.25,-8.2 5.75,-8.2 2.86,0 4.25,2.16 4.25,6.66 v 10.54 c -0.04,0.71 -0.09,1.05 -0.34,1.3 -0.3,0.45 -1.3,0.66 -3.45,0.7 h -0.21 v 1.8 h 12.66 v -1.8 h -0.2 c -3.3,-0.1 -3.75,-0.35 -3.75,-2.2 v -11.34 c 0,-3.11 -0.3,-4.16 -1.6,-5.86 -1.45,-1.85 -3.5,-2.85 -5.9,-2.85 -3.25,0 -5.66,1.55 -7.8,5 -0.86,-3 -3.56,-5 -6.91,-5 -3.04,0 -5.25,1.46 -7.2,4.6 v -3.85 m 41.91,-12.45 c -1.61,0 -2.91,1.3 -2.91,2.89 0,1.61 1.3,2.91 2.86,2.91 1.64,0 2.94,-1.3 2.94,-2.91 0,-1.59 -1.3,-2.89 -2.89,-2.89 m 2.34,12.45 -9.39,0.55 v 2.16 h 2.55 c 1.89,0.04 2.14,0.34 2.14,2.5 v 14.29 c -0.05,0.75 -0.1,1.05 -0.3,1.3 -0.34,0.45 -1.3,0.66 -3.45,0.7 h -0.35 v 1.8 h 12.96 v -1.8 h -0.36 c -3.35,-0.1 -3.8,-0.35 -3.8,-2.15 v -19.35"
         id="path143" />
      <path
         class="StaffText"
         d="m 659.643,932.546 h -1.891 l -1.953,3 c -3.25,-2.547 -5.453,-3.406 -9.11,-3.406 -3.953,0 -7.046,1.109 -10.203,3.656 -4.937,4 -7.25,9.047 -7.25,15.797 0,5.109 1.453,9.359 4.407,12.609 3.093,3.5 7.703,5.547 12.5,5.547 4.203,0 7.156,-1.297 10.406,-4.547 l 1.844,4.5 h 2.109 v -11 c 0,-2.546 0,-2.656 0.297,-3.109 0.453,-0.547 1.344,-0.687 4.203,-0.687 h 0.75 v -2.36 h -15.906 v 2.36 h 0.953 c 4.203,0 4.547,0.25 4.547,3.046 0,2.141 -0.344,4.094 -1,5.297 -1.25,2.453 -4.453,4.157 -7.703,4.157 -3.25,0 -6.454,-1.657 -8.157,-4.157 -1.843,-2.797 -2.64,-6.297 -2.64,-11.656 0,-11.141 3.703,-17.094 10.64,-17.094 5.703,0 9.657,4.094 11.703,12.094 h 2.157 l -0.703,-14.047"
         id="path158" />
      <path
         class="StaffText"
         d="m 841.285,932.546 h -1.891 l -1.953,3 c -3.25,-2.547 -5.453,-3.406 -9.109,-3.406 -3.953,0 -7.047,1.109 -10.203,3.656 -4.938,4 -7.25,9.047 -7.25,15.797 0,5.109 1.453,9.359 4.406,12.609 3.094,3.5 7.703,5.547 12.5,5.547 4.203,0 7.156,-1.297 10.406,-4.547 l 1.844,4.5 h 2.109 v -11 c 0,-2.546 0,-2.656 0.297,-3.109 0.453,-0.547 1.344,-0.687 4.203,-0.687 h 0.75 v -2.36 h -15.906 v 2.36 h 0.953 c 4.203,0 4.547,0.25 4.547,3.046 0,2.141 -0.344,4.094 -1,5.297 -1.25,2.453 -4.453,4.157 -7.703,4.157 -3.25,0 -6.453,-1.657 -8.156,-4.157 -1.844,-2.797 -2.641,-6.297 -2.641,-11.656 0,-11.141 3.703,-17.094 10.641,-17.094 5.703,0 9.656,4.094 11.703,12.094 h 2.156 l -0.703,-14.047"
         id="path159" />
      <path
         class="StaffText"
         d="m 1702.04,968.999 h 16.79 c 4.46,0 7.86,-0.703 10.5,-2.203 5.05,-2.844 7.86,-8.547 7.86,-16.047 0,-6.906 -2.5,-12.297 -7.11,-15.297 -2.75,-1.75 -6.45,-2.562 -12.15,-2.562 h -15.89 v 2.359 h 0.95 c 2.8,0.047 3.75,0.203 4.14,0.703 0.3,0.438 0.3,0.547 0.3,3.094 v 23.797 c 0,2.563 0,2.656 -0.3,3.109 -0.39,0.5 -1.34,0.641 -4.14,0.704 h -0.95 v 2.343 m 13.84,-2.343 c -2.55,0 -2.84,-0.313 -2.84,-2.75 v -25.86 c 0,-2.453 0.34,-2.797 2.84,-2.797 h 2.61 c 8.55,0 12.09,4.641 12.09,15.703 0,11.204 -3.2,15.704 -11.29,15.704 h -3.41"
         id="path160" />
      <path
         class="StaffText"
         d="m 1332.1,932.89 h -30.05 v 2.359 h 0.89 c 2.86,0.047 3.81,0.203 4.2,0.703 0.3,0.438 0.3,0.547 0.3,3.094 v 23.797 c 0,2.563 0,2.656 -0.3,3.109 -0.39,0.5 -1.34,0.704 -4.2,0.704 h -0.89 v 2.343 h 30.7 l 1,-13.343 h -2.2 c -1.91,8.89 -3.95,10.796 -11.61,11 h -3.3 c -3,-0.11 -3.75,-0.61 -3.59,-2.407 v -12.75 h 1 c 5.14,-0.203 7,1.657 7.2,7.203 h 2.35 v -16.406 h -2.35 c -0.31,4.906 -2.25,6.86 -7,6.86 h -1.2 v -11.407 c -0.05,-2.109 0.45,-2.453 3.14,-2.5 h 2.61 c 8.2,-0.047 10.25,1.75 11.84,10.407 h 2.16 l -0.7,-12.766"
         id="path163" />
      <path
         class="StaffText"
         d="m 1883.68,968.999 h 16.8 c 4.45,0 7.86,-0.703 10.5,-2.203 5.04,-2.844 7.86,-8.547 7.86,-16.047 0,-6.906 -2.5,-12.297 -7.11,-15.297 -2.75,-1.75 -6.46,-2.562 -12.16,-2.562 h -15.89 v 2.359 h 0.95 c 2.8,0.047 3.75,0.203 4.14,0.703 0.3,0.438 0.3,0.547 0.3,3.094 v 23.797 c 0,2.563 0,2.656 -0.3,3.109 -0.39,0.5 -1.34,0.641 -4.14,0.704 h -0.95 v 2.343 m 13.84,-2.343 c -2.54,0 -2.84,-0.313 -2.84,-2.75 v -25.86 c 0,-2.453 0.34,-2.797 2.84,-2.797 h 2.61 c 8.55,0 12.1,4.641 12.1,15.703 0,11.204 -3.21,15.704 -11.3,15.704 h -3.41"
         id="path164" />
      <path
         class="StaffText"
         d="m 387.179,932.89 h -30.047 v 2.359 h 0.891 c 2.859,0.047 3.812,0.203 4.203,0.703 0.297,0.438 0.297,0.547 0.297,3.094 v 23.797 c 0,2.563 0,2.656 -0.297,3.109 -0.391,0.5 -1.344,0.704 -4.203,0.704 h -0.891 v 2.343 h 30.703 l 1,-13.343 h -2.203 c -1.906,8.89 -3.953,10.796 -11.609,11 h -3.297 c -3,-0.11 -3.75,-0.61 -3.594,-2.407 v -12.75 h 1 c 5.141,-0.203 7,1.657 7.203,7.203 h 2.344 v -16.406 h -2.344 c -0.312,4.906 -2.25,6.86 -7,6.86 h -1.203 v -11.407 c -0.047,-2.109 0.453,-2.453 3.141,-2.5 h 2.609 c 8.203,-0.047 10.25,1.75 11.844,10.407 h 2.156 l -0.703,-12.766"
         id="path165" />
      <path
         class="StaffText"
         d="m 2095.37,932.546 h -1.89 l -1.95,3 c -3.25,-2.547 -5.46,-3.406 -9.11,-3.406 -3.96,0 -7.05,1.109 -10.21,3.656 -4.93,4 -7.25,9.047 -7.25,15.797 0,5.109 1.46,9.359 4.41,12.609 3.09,3.5 7.7,5.547 12.5,5.547 4.2,0 7.16,-1.297 10.41,-4.547 l 1.84,4.5 h 2.11 v -11 c 0,-2.546 0,-2.656 0.3,-3.109 0.45,-0.547 1.34,-0.687 4.2,-0.687 h 0.75 v -2.36 h -15.91 v 2.36 h 0.96 c 4.2,0 4.54,0.25 4.54,3.046 0,2.141 -0.34,4.094 -1,5.297 -1.25,2.453 -4.45,4.157 -7.7,4.157 -3.25,0 -6.45,-1.657 -8.16,-4.157 -1.84,-2.797 -2.64,-6.297 -2.64,-11.656 0,-11.141 3.71,-17.094 10.64,-17.094 5.71,0 9.66,4.094 11.71,12.094 h 2.15 l -0.7,-14.047"
         id="path169" />
      <path
         class="StaffText"
         d="m 1059.33,932.89 h -29.75 v 2.359 h 0.9 c 2.85,0.047 3.81,0.203 4.2,0.703 0.3,0.438 0.3,0.547 0.3,3.094 v 23.797 c 0,2.563 0,2.656 -0.3,3.109 -0.39,0.5 -1.35,0.704 -4.2,0.704 h -0.9 v 2.343 h 17.15 v -2.343 h -1.65 c -2.85,0 -3.79,-0.204 -4.2,-0.704 -0.3,-0.453 -0.3,-0.609 -0.3,-3.109 v -11.344 h 1 c 5.15,-0.203 7,1.657 7.21,7.203 h 2.34 v -16.406 h -2.34 c -0.31,4.906 -2.25,6.797 -7,6.86 h -1.21 v -11.407 c -0.04,-2.109 0.46,-2.453 3.15,-2.5 h 2.31 c 8.2,-0.047 10.25,1.797 11.79,10.407 h 2.21 l -0.71,-12.766"
         id="path172" />
      <path
         class="StaffText"
         d="m 2277.01,932.546 h -1.89 l -1.95,3 c -3.25,-2.547 -5.45,-3.406 -9.11,-3.406 -3.95,0 -7.05,1.109 -10.2,3.656 -4.94,4 -7.25,9.047 -7.25,15.797 0,5.109 1.45,9.359 4.4,12.609 3.1,3.5 7.71,5.547 12.5,5.547 4.21,0 7.16,-1.297 10.41,-4.547 l 1.84,4.5 h 2.11 v -11 c 0,-2.546 0,-2.656 0.3,-3.109 0.45,-0.547 1.34,-0.687 4.2,-0.687 h 0.75 v -2.36 h -15.9 v 2.36 h 0.95 c 4.2,0 4.55,0.25 4.55,3.046 0,2.141 -0.35,4.094 -1,5.297 -1.25,2.453 -4.46,4.157 -7.71,4.157 -3.25,0 -6.45,-1.657 -8.15,-4.157 -1.85,-2.797 -2.64,-6.297 -2.64,-11.656 0,-11.141 3.7,-17.094 10.64,-17.094 5.7,0 9.65,4.094 11.7,12.094 h 2.16 l -0.71,-14.047"
         id="path173" />
      <path
         class="StaffText"
         d="m 1513.74,932.89 h -30.05 v 2.359 h 0.89 c 2.86,0.047 3.81,0.203 4.2,0.703 0.3,0.438 0.3,0.547 0.3,3.094 v 23.797 c 0,2.563 0,2.656 -0.3,3.109 -0.39,0.5 -1.34,0.704 -4.2,0.704 h -0.89 v 2.343 h 30.7 l 1,-13.343 h -2.2 c -1.91,8.89 -3.95,10.796 -11.61,11 h -3.3 c -3,-0.11 -3.75,-0.61 -3.59,-2.407 v -12.75 h 1 c 5.14,-0.203 7,1.657 7.2,7.203 h 2.35 v -16.406 h -2.35 c -0.31,4.906 -2.25,6.86 -7,6.86 h -1.2 v -11.407 c -0.05,-2.109 0.45,-2.453 3.14,-2.5 h 2.61 c 8.2,-0.047 10.25,1.75 11.84,10.407 h 2.16 l -0.7,-12.766"
         id="path174" />
      <path
         class="StaffText"
         d="m 2494.81,932.546 h -1.9 l -2,2.953 c -3.65,-2.656 -5.5,-3.359 -8.96,-3.359 -4.75,0 -8.79,2 -12.14,6 -3.2,3.812 -4.7,8.016 -4.7,13.156 0,10.797 7.05,18.453 16.9,18.453 8,0 13.1,-4.703 14.25,-13.093 l -2.35,-0.407 c -1.35,7.453 -5.15,11.157 -11.3,11.157 -7.41,0 -10.91,-5.11 -10.91,-15.907 0,-5.703 0.75,-9.453 2.46,-12.453 1.54,-2.797 4.6,-4.547 7.85,-4.547 3.5,0 6.6,1.844 8.5,5.047 0.96,1.656 1.65,3.5 2.85,7.453 h 2.2 l -0.75,-14.453"
         id="path180" />
    </g>
    <g
       id="g182">
      <polyline
         class="StaffLines"
         fill="none"
         stroke="#000000"
         stroke-width="2.73"
         stroke-linejoin="bevel"
         points="336.599,386.199 2764.6,386.199"
         id="polyline1" />
      <polyline
         class="StaffLines"
         fill="none"
         stroke="#000000"
         stroke-width="2.73"
         stroke-linejoin="bevel"
         points="336.599,410.999 2764.6,410.999"
         id="polyline2" />
      <polyline
         class="StaffLines"
         fill="none"
         stroke="#000000"
         stroke-width="2.73"
         stroke-linejoin="bevel"
         points="336.599,435.799 2764.6,435.799"
         id="polyline3" />
      <polyline
         class="StaffLines"
         fill="none"
         stroke="#000000"
         stroke-width="2.73"
         stroke-linejoin="bevel"
         points="336.599,460.599 2764.6,460.599"
         id="polyline4" />
      <polyline
         class="StaffLines"
         fill="none"
         stroke="#000000"
         stroke-width="2.73"
         stroke-linejoin="bevel"
         points="336.599,485.399 2764.6,485.399"
         id="polyline5" />
      <polyline
         class="BarLine"
         fill="none"
         stroke="#000000"
         stroke-width="4.46"
         stroke-linejoin="bevel"
         points="2762.37,384.835 2762.37,486.763"
         id="polyline11" />
      <polyline
         class="BarLine"
         fill="none"
         stroke="#000000"
         stroke-width="4.46"
         stroke-linejoin="bevel"
         points="1946.93,384.835 1946.93,486.763"
         id="polyline12" />
      <polyline
         class="BarLine"
         fill="none"
         stroke="#000000"
         stroke-width="4.46"
         stroke-linejoin="bevel"
         points="907.576,384.835 907.576,486.763"
         id="polyline13" />
      <polyline
         class="BarLine"
         fill="none"
         stroke="#000000"
         stroke-width="4.46"
         stroke-linejoin="bevel"
         points="2489.56,384.835 2489.56,486.763"
         id="polyline14" />
      <polyline
         class="BarLine"
         fill="none"
         stroke="#000000"
         stroke-width="4.46"
         stroke-linejoin="bevel"
         points="2219.74,384.835 2219.74,486.763"
         id="polyline16" />
      <polyline
         class="BarLine"
         fill="none"
         stroke="#000000"
         stroke-width="4.46"
         stroke-linejoin="bevel"
         points="1716.23,384.835 1716.23,486.763"
         id="polyline18" />
      <polyline
         class="BarLine"
         fill="none"
         stroke="#000000"
         stroke-width="4.46"
         stroke-linejoin="bevel"
         points="634.762,384.835 634.762,486.763"
         id="polyline19" />
      <polyline
         class="BarLine"
         fill="none"
         stroke="#000000"
         stroke-width="4.46"
         stroke-linejoin="bevel"
         points="1138.27,384.835 1138.27,486.763"
         id="polyline20" />
      <polyline
         class="BarLine"
         fill="none"
         stroke="#000000"
         stroke-width="4.46"
         stroke-linejoin="bevel"
         points="1411.09,384.835 1411.09,486.763"
         id="polyline22" />
      <polyline
         class="Stem"
         fill="none"
         stroke="#000000"
         stroke-width="2.48"
         stroke-linejoin="bevel"
         points="1675.56,456.631 1675.56,386.199"
         id="polyline27" />
      <polyline
         class="Stem"
         fill="none"
         stroke="#000000"
         stroke-width="2.48"
         stroke-linejoin="bevel"
         points="566.526,456.631 566.526,373.799"
         id="polyline28" />
      <polyline
         class="Stem"
         fill="none"
         stroke="#000000"
         stroke-width="2.48"
         stroke-linejoin="bevel"
         points="2382.2,481.431 2382.2,410.999"
         id="polyline29" />
      <polyline
         class="Stem"
         fill="none"
         stroke="#000000"
         stroke-width="2.48"
         stroke-linejoin="bevel"
         points="700.227,444.231 700.227,367.599"
         id="polyline30" />
      <polyline
         class="Stem"
         fill="none"
         stroke="#000000"
         stroke-width="2.48"
         stroke-linejoin="bevel"
         points="1781.7,493.831 1781.7,410.999"
         id="polyline31" />
      <polyline
         class="Stem"
         fill="none"
         stroke="#000000"
         stroke-width="2.48"
         stroke-linejoin="bevel"
         points="2285.21,469.031 2285.21,386.199"
         id="polyline32" />
      <polyline
         class="Stem"
         fill="none"
         stroke="#000000"
         stroke-width="2.48"
         stroke-linejoin="bevel"
         points="797.224,456.631 797.224,386.199"
         id="polyline33" />
      <polyline
         class="Stem"
         fill="none"
         stroke="#000000"
         stroke-width="2.48"
         stroke-linejoin="bevel"
         points="2721.7,456.631 2721.7,386.199"
         id="polyline34" />
      <polyline
         class="Stem"
         fill="none"
         stroke="#000000"
         stroke-width="2.48"
         stroke-linejoin="bevel"
         points="2652.02,456.631 2652.02,386.199"
         id="polyline35" />
      <polyline
         class="Stem"
         fill="none"
         stroke="#000000"
         stroke-width="2.48"
         stroke-linejoin="bevel"
         points="2179.07,456.631 2179.07,386.199"
         id="polyline36" />
      <polyline
         class="Stem"
         fill="none"
         stroke="#000000"
         stroke-width="2.48"
         stroke-linejoin="bevel"
         points="2012.39,481.431 2012.39,398.599"
         id="polyline37" />
      <polyline
         class="Stem"
         fill="none"
         stroke="#000000"
         stroke-width="2.48"
         stroke-linejoin="bevel"
         points="1300.73,456.631 1300.73,386.199"
         id="polyline39" />
      <polyline
         class="Stem"
         fill="none"
         stroke="#000000"
         stroke-width="2.48"
         stroke-linejoin="bevel"
         points="1370.41,456.631 1370.41,386.199"
         id="polyline43" />
      <polyline
         class="Stem"
         fill="none"
         stroke="#000000"
         stroke-width="2.48"
         stroke-linejoin="bevel"
         points="1070.04,456.631 1070.04,373.799"
         id="polyline44" />
      <polyline
         class="Stem"
         fill="none"
         stroke="#000000"
         stroke-width="2.48"
         stroke-linejoin="bevel"
         points="973.04,493.831 973.04,410.999"
         id="polyline45" />
      <polyline
         class="Stem"
         fill="none"
         stroke="#000000"
         stroke-width="2.48"
         stroke-linejoin="bevel"
         points="2555.02,493.831 2555.02,410.999"
         id="polyline47" />
      <polyline
         class="Stem"
         fill="none"
         stroke="#000000"
         stroke-width="2.48"
         stroke-linejoin="bevel"
         points="1203.74,481.431 1203.74,398.599"
         id="polyline48" />
      <polyline
         class="Stem"
         fill="none"
         stroke="#000000"
         stroke-width="2.48"
         stroke-linejoin="bevel"
         points="1476.55,444.231 1476.55,379.999"
         id="polyline49" />
      <polyline
         class="Stem"
         fill="none"
         stroke="#000000"
         stroke-width="2.48"
         stroke-linejoin="bevel"
         points="2448.88,481.431 2448.88,410.999"
         id="polyline50" />
      <polyline
         class="Stem"
         fill="none"
         stroke="#000000"
         stroke-width="2.48"
         stroke-linejoin="bevel"
         points="1541.22,444.231 1541.22,379.999"
         id="polyline54" />
      <polyline
         class="Stem"
         fill="none"
         stroke="#000000"
         stroke-width="2.48"
         stroke-linejoin="bevel"
         points="2109.39,456.631 2109.39,386.199"
         id="polyline55" />
      <polyline
         class="Stem"
         fill="none"
         stroke="#000000"
         stroke-width="2.48"
         stroke-linejoin="bevel"
         points="866.904,456.631 866.904,386.199"
         id="polyline56" />
      <polyline
         class="Stem"
         fill="none"
         stroke="#000000"
         stroke-width="2.48"
         stroke-linejoin="bevel"
         points="1605.88,456.631 1605.88,386.199"
         id="polyline58" />
      <polyline
         class="Stem"
         fill="none"
         stroke="#000000"
         stroke-width="2.48"
         stroke-linejoin="bevel"
         points="1878.69,456.631 1878.69,373.799"
         id="polyline59" />
      <path
         class="Note"
         transform="matrix(0.992001,0,0,0.992001,2690.71,460.599)"
         d="M 0,4.20313 C 0,8.5 3.09375,13.2969 11.2031,13.2969 21.5938,13.2969 32.5,4.79688 32.5,-4 c 0,-5.90625 -5,-9.2031 -11.2031,-9.2031 C 11.5938,-13.2031 0,-5 0,4.20313"
         id="path60" />
      <path
         class="Note"
         transform="matrix(0.992001,0,0,0.992001,535.534,460.599)"
         d="M 0,4.20313 C 0,8.5 3.09375,13.2969 11.2031,13.2969 21.5938,13.2969 32.5,4.79688 32.5,-4 c 0,-5.90625 -5,-9.2031 -11.2031,-9.2031 C 11.5938,-13.2031 0,-5 0,4.20313"
         id="path63" />
      <path
         class="Note"
         transform="matrix(0.992001,0,0,0.992001,669.234,448.199)"
         d="M 0,4.20313 C 0,8.5 3.09375,13.2969 11.2031,13.2969 21.5938,13.2969 32.5,4.79688 32.5,-4 c 0,-5.90625 -5,-9.2031 -11.2031,-9.2031 C 11.5938,-13.2031 0,-5 0,4.20313"
         id="path67" />
      <path
         class="Note"
         transform="matrix(0.992001,0,0,0.992001,766.231,460.599)"
         d="M 0,4.20313 C 0,8.5 3.09375,13.2969 11.2031,13.2969 21.5938,13.2969 32.5,4.79688 32.5,-4 c 0,-5.90625 -5,-9.2031 -11.2031,-9.2031 C 11.5938,-13.2031 0,-5 0,4.20313"
         id="path70" />
      <path
         class="Note"
         transform="matrix(0.992001,0,0,0.992001,835.911,460.599)"
         d="M 0,4.20313 C 0,8.5 3.09375,13.2969 11.2031,13.2969 21.5938,13.2969 32.5,4.79688 32.5,-4 c 0,-5.90625 -5,-9.2031 -11.2031,-9.2031 C 11.5938,-13.2031 0,-5 0,4.20313"
         id="path74" />
      <path
         class="Note"
         transform="matrix(0.992001,0,0,0.992001,1339.42,460.599)"
         d="M 0,4.20313 C 0,8.5 3.09375,13.2969 11.2031,13.2969 21.5938,13.2969 32.5,4.79688 32.5,-4 c 0,-5.90625 -5,-9.2031 -11.2031,-9.2031 C 11.5938,-13.2031 0,-5 0,4.20313"
         id="path76" />
      <path
         class="Note"
         transform="matrix(0.992001,0,0,0.992001,942.048,497.799)"
         d="M 0,4.20313 C 0,8.5 3.09375,13.2969 11.2031,13.2969 21.5938,13.2969 32.5,4.79688 32.5,-4 c 0,-5.90625 -5,-9.2031 -11.2031,-9.2031 C 11.5938,-13.2031 0,-5 0,4.20313"
         id="path77" />
      <path
         class="Note"
         transform="matrix(0.992001,0,0,0.992001,1039.04,460.599)"
         d="M 0,4.20313 C 0,8.5 3.09375,13.2969 11.2031,13.2969 21.5938,13.2969 32.5,4.79688 32.5,-4 c 0,-5.90625 -5,-9.2031 -11.2031,-9.2031 C 11.5938,-13.2031 0,-5 0,4.20313"
         id="path78" />
      <path
         class="Note"
         transform="matrix(0.992001,0,0,0.992001,1172.75,485.399)"
         d="M 0,4.20313 C 0,8.5 3.09375,13.2969 11.2031,13.2969 21.5938,13.2969 32.5,4.79688 32.5,-4 c 0,-5.90625 -5,-9.2031 -11.2031,-9.2031 C 11.5938,-13.2031 0,-5 0,4.20313"
         id="path79" />
      <path
         class="Note"
         transform="matrix(0.992001,0,0,0.992001,1269.74,460.599)"
         d="M 0,4.20313 C 0,8.5 3.09375,13.2969 11.2031,13.2969 21.5938,13.2969 32.5,4.79688 32.5,-4 c 0,-5.90625 -5,-9.2031 -11.2031,-9.2031 C 11.5938,-13.2031 0,-5 0,4.20313"
         id="path80" />
      <path
         class="Note"
         transform="matrix(0.992001,0,0,0.992001,1445.56,448.199)"
         d="M 0,4.20313 C 0,8.5 3.09375,13.2969 11.2031,13.2969 21.5938,13.2969 32.5,4.79688 32.5,-4 c 0,-5.90625 -5,-9.2031 -11.2031,-9.2031 C 11.5938,-13.2031 0,-5 0,4.20313"
         id="path81" />
      <path
         class="Note"
         transform="matrix(0.992001,0,0,0.992001,1510.22,448.199)"
         d="M 0,4.20313 C 0,8.5 3.09375,13.2969 11.2031,13.2969 21.5938,13.2969 32.5,4.79688 32.5,-4 c 0,-5.90625 -5,-9.2031 -11.2031,-9.2031 C 11.5938,-13.2031 0,-5 0,4.20313"
         id="path82" />
      <path
         class="Note"
         transform="matrix(0.992001,0,0,0.992001,1574.89,460.599)"
         d="M 0,4.20313 C 0,8.5 3.09375,13.2969 11.2031,13.2969 21.5938,13.2969 32.5,4.79688 32.5,-4 c 0,-5.90625 -5,-9.2031 -11.2031,-9.2031 C 11.5938,-13.2031 0,-5 0,4.20313"
         id="path83" />
      <path
         class="Note"
         transform="matrix(0.992001,0,0,0.992001,1644.57,460.599)"
         d="M 0,4.20313 C 0,8.5 3.09375,13.2969 11.2031,13.2969 21.5938,13.2969 32.5,4.79688 32.5,-4 c 0,-5.90625 -5,-9.2031 -11.2031,-9.2031 C 11.5938,-13.2031 0,-5 0,4.20313"
         id="path84" />
      <path
         class="Note"
         transform="matrix(0.992001,0,0,0.992001,1750.7,497.799)"
         d="M 0,4.20313 C 0,8.5 3.09375,13.2969 11.2031,13.2969 21.5938,13.2969 32.5,4.79688 32.5,-4 c 0,-5.90625 -5,-9.2031 -11.2031,-9.2031 C 11.5938,-13.2031 0,-5 0,4.20313"
         id="path85" />
      <path
         class="Note"
         transform="matrix(0.992001,0,0,0.992001,1847.7,460.599)"
         d="M 0,4.20313 C 0,8.5 3.09375,13.2969 11.2031,13.2969 21.5938,13.2969 32.5,4.79688 32.5,-4 c 0,-5.90625 -5,-9.2031 -11.2031,-9.2031 C 11.5938,-13.2031 0,-5 0,4.20313"
         id="path86" />
      <path
         class="Note"
         transform="matrix(0.992001,0,0,0.992001,1981.4,485.399)"
         d="M 0,4.20313 C 0,8.5 3.09375,13.2969 11.2031,13.2969 21.5938,13.2969 32.5,4.79688 32.5,-4 c 0,-5.90625 -5,-9.2031 -11.2031,-9.2031 C 11.5938,-13.2031 0,-5 0,4.20313"
         id="path87" />
      <path
         class="Note"
         transform="matrix(0.992001,0,0,0.992001,2078.4,460.599)"
         d="M 0,4.20313 C 0,8.5 3.09375,13.2969 11.2031,13.2969 21.5938,13.2969 32.5,4.79688 32.5,-4 c 0,-5.90625 -5,-9.2031 -11.2031,-9.2031 C 11.5938,-13.2031 0,-5 0,4.20313"
         id="path88" />
      <path
         class="Note"
         transform="matrix(0.992001,0,0,0.992001,2148.08,460.599)"
         d="M 0,4.20313 C 0,8.5 3.09375,13.2969 11.2031,13.2969 21.5938,13.2969 32.5,4.79688 32.5,-4 c 0,-5.90625 -5,-9.2031 -11.2031,-9.2031 C 11.5938,-13.2031 0,-5 0,4.20313"
         id="path89" />
      <path
         class="Note"
         transform="matrix(0.992001,0,0,0.992001,2621.03,460.599)"
         d="M 0,4.20313 C 0,8.5 3.09375,13.2969 11.2031,13.2969 21.5938,13.2969 32.5,4.79688 32.5,-4 c 0,-5.90625 -5,-9.2031 -11.2031,-9.2031 C 11.5938,-13.2031 0,-5 0,4.20313"
         id="path90" />
      <path
         class="Note"
         transform="matrix(0.992001,0,0,0.992001,2254.22,472.999)"
         d="M 0,4.20313 C 0,8.5 3.09375,13.2969 11.2031,13.2969 21.5938,13.2969 32.5,4.79688 32.5,-4 c 0,-5.90625 -5,-9.2031 -11.2031,-9.2031 C 11.5938,-13.2031 0,-5 0,4.20313"
         id="path91" />
      <path
         class="Note"
         transform="matrix(0.992001,0,0,0.992001,2351.21,485.399)"
         d="M 0,4.20313 C 0,8.5 3.09375,13.2969 11.2031,13.2969 21.5938,13.2969 32.5,4.79688 32.5,-4 c 0,-5.90625 -5,-9.2031 -11.2031,-9.2031 C 11.5938,-13.2031 0,-5 0,4.20313"
         id="path92" />
      <path
         class="Note"
         transform="matrix(0.992001,0,0,0.992001,2417.89,485.399)"
         d="M 0,4.20313 C 0,8.5 3.09375,13.2969 11.2031,13.2969 21.5938,13.2969 32.5,4.79688 32.5,-4 c 0,-5.90625 -5,-9.2031 -11.2031,-9.2031 C 11.5938,-13.2031 0,-5 0,4.20313"
         id="path93" />
      <path
         class="Note"
         transform="matrix(0.992001,0,0,0.992001,2524.03,497.799)"
         d="M 0,4.20313 C 0,8.5 3.09375,13.2969 11.2031,13.2969 21.5938,13.2969 32.5,4.79688 32.5,-4 c 0,-5.90625 -5,-9.2031 -11.2031,-9.2031 C 11.5938,-13.2031 0,-5 0,4.20313"
         id="path94" />
      <path
         class="Clef"
         transform="matrix(0.992001,0,0,0.992001,355.199,460.599)"
         d="m 12.2969,51.2969 c 0,6.6094 5,15.3125 18.5,15.3125 4.7031,0 8.8125,-1.2031 12.4062,-3.4063 C 48.6094,59.4063 50,52.7969 50,46.5 c 0,-3.8906 -0.5937,-8.3906 -1.5937,-14.0937 -0.2969,-2 -0.9063,-5 -1.5,-8.9063 C 56.7031,20.2969 64,10.0938 64,-0.203125 64,-15.2969 53.2969,-25.5 38.7031,-25.5 c -1,-6 -2,-11.9063 -2.7968,-17.5 10.5,-11.1094 17.7968,-23.6094 17.7968,-39.5 0,-9.1094 -2.7968,-16.5 -4.4062,-20.109 -2.3906,-5.094 -5.2969,-8.594 -7.0938,-8.594 -0.7031,0 -3.7968,1.203 -7.0937,5.094 -6.4063,7.609 -8.2031,20.4059 -8.2031,28.7965 0,5.4062 0.5,10.3125 2.2031,21.5156 -0.1094,0.0938 -5.3125,5.3906 -7.4063,7.0938 C 12.5938,-40.2969 0,-28.1094 0,-8.09375 0,10.5938 16.2969,25.2969 34.9063,25.2969 c 2.8906,0 5.5937,-0.2969 7.8906,-0.7031 1.9062,9.6093 3.1094,16.6093 3.1094,21.9062 0,10.4063 -5.4063,15.9063 -15.5,15.9063 -2.4063,0 -4.5,-0.5 -4.7032,-0.5 -0.0937,-0.1094 -0.2968,-0.2032 -0.2968,-0.2969 0,-0.2031 0.2031,-0.3125 0.5,-0.3125 C 30.6094,60.5 35.2969,56.5 35.2969,50.1094 35.2969,44.7031 31.2031,39 23.7031,39 c -7,0 -11.4062,5.7031 -11.4062,12.2969 m 20.9062,-133.5 c 0.9063,-4 5.5,-14.5 10.7032,-14.5 1.5,0 3.8906,4.7968 3.8906,11.7968 0,10.4063 -7.6875,18.2032 -14.5938,25 -0.5937,-4 -1.0937,-7.8906 -1.0937,-12.0937 0,-3.7031 0.2969,-7.1094 1.0937,-10.2031 M 42,20.5938 c -2,0.4062 -3.8906,0.6093 -5.7969,0.6093 -14.2968,0 -26.49997,-10 -26.49997,-25.10935 0,-12.18755 8.59377,-23.09375 17.40627,-30.70315 1.6875,-1.5 3.2969,-2.8906 4.7969,-4.3906 0.8906,5.3906 1.5937,10.0937 2.2968,14.2031 -9.1093,2.7031 -15.2968,12.2969 -15.2968,21.70315 0,7 5.5,16.59375 13.5,16.59375 0.7968,0 1.7031,-0.4062 1.7031,-1.2969 0,-0.9062 -1,-1.4062 -2.2031,-2.2031 C 28,7.59375 25.7969,5 25.7969,0.09375 25.7969,-6 30.4063,-10.9063 36.2031,-12.2969 L 42,20.5938 M 56.2031,2.09375 c 0,7.10938 -2.9062,14.40625 -10,17.31255 -2.0937,-12.00005 -4.7968,-27.9063 -5.5,-32.3126 9,0 15.5,6.10942 15.5,15.00005"
         id="path95" />
      <path
         class="TimeSig"
         transform="matrix(0.992001,0,0,0.992001,445.362,411.495)"
         d="m 34.2031,3.90625 c -0.7968,2.1875 -2.7968,9.39065 -7.7031,9.39065 -6.5,0 -7.9062,-4.00002 -13.2969,-4.00002 -0.7968,0 -1.6093,0.10937 -2.6093,0.29687 0,0 2.5,-3.79687 13.1093,-7.09375 C 34.2969,-0.796875 37,-6 37,-12 c 0,-4.2031 -1.8906,-12.5 -17,-12.5 -15.09375,0 -17.90625,9.0937 -17.90625,13.7031 0,4.09377 3.40625,7.39065 7.5,7.39065 4.10935,0 7.40625,-3.29688 7.40625,-7.39065 0,-2.7969 -2,-5.9062 -4.5937,-6.9062 -0.3125,-0.0938 -0.7032,-0.5938 -0.7032,-1.0938 0,-0.6094 0.5,-1.2969 2.2969,-1.7969 0.5,-0.2031 1.9063,-0.5 3.4063,-0.5 5.6875,0 6.7968,3.5 6.7968,8.5938 0,11.703125 -13.9062,14.20313 -19.7031,22.9063 0,0 -3,4.1875 -3,8.8906 0,4.7031 2.40625,5 3.59375,5 1.60938,0 3.3125,-1.2969 3.3125,-3.0938 0,-0.4062 -0.10937,-0.7968 -0.3125,-1.2968 C 7.5,18.5 7.29688,17.4063 7.29688,16.5938 c 0,-0.2969 0,-0.5938 0.10937,-0.8907 0.09375,-0.6093 0.89063,-1.6093 3.29685,-1.6093 2.8907,0 4,3.4062 5.7969,6 1.7969,2.6093 4.5938,4.2031 7.7969,4.2031 3.2031,0 7.5,-2.2969 9.3125,-6 C 35.4063,14.5938 37.7031,7.09375 37.7031,4.40625 37.7031,3.09375 36.9063,2.5 36,2.5 c -0.7031,0 -1.3906,0.40625 -1.7969,1.40625"
         id="path97" />
      <path
         class="TimeSig"
         transform="matrix(0.992001,0,0,0.992001,442.092,460.599)"
         d="m 20.7969,12.7031 v 7.3907 H 12.5 c -0.7031,0 -1.4062,0.6093 -1.4062,1.4062 v 1.9063 c 0,0.7968 0.7031,1.3906 1.4062,1.3906 h 30.2969 c 0.8125,0 1.4062,-0.5938 1.4062,-1.3906 V 21.5 c 0,-0.7969 -0.5937,-1.4062 -1.4062,-1.4062 h -8.8906 v -7.3907 h 8.8906 c 0.8125,0 1.4062,-0.7031 1.4062,-1.5 V 9.29688 c 0,-0.70313 -0.5937,-1.39063 -1.4062,-1.39063 H 33.9063 V -8 c 0,-0.59375 -0.2969,-1.09375 -0.7969,-1.29688 L 31.9063,-9.90625 C 31.7031,-10 31.4063,-10.0938 31.2031,-10.0938 30.9063,-10 30.5,-9.90625 30.2969,-9.70313 l -9.0938,8.29688 c -0.2968,0.3125 -0.4062,0.703125 -0.4062,1.109375 V 7.90625 H 9.29688 c 0,0 11.10942,-12 22.90622,-27.81255 0.4063,-0.5 0.5,-1 0.5,-1.3906 0,-0.5 -0.2031,-0.9062 -0.2968,-1 L 30.2031,-24.5 c -0.2031,-0.2031 -0.5937,-0.4063 -1,-0.4063 -0.5937,0 -14.1093,0 -14.7968,0 -0.8125,0 -1.3125,0.6094 -1.4063,1.2032 0,0 -0.5,7.4062 -3.09375,15.49997 -2.60937,8.10938 -5.60937,13.10938 -8.20312,16.79688 0,0 -0.29688,0.5 -0.29688,1.10938 0,0.20312 0,0.39067 0.09375,0.59377 0.40625,0.7031 1,1.7969 1,1.7969 0,0 0.20313,0.6093 1.09375,0.6093 H 20.7969"
         id="path98" />
      <path
         class="Beam"
         fill-rule="evenodd"
         d="m 2650.78,379.999 h 72.16 v 12.4 h -72.16 v -12.4"
         id="path100" />
      <path
         class="Beam"
         fill-rule="evenodd"
         d="m 795.984,379.999 h 72.16 v 12.4 h -72.16 v -12.4"
         id="path102" />
      <path
         class="Beam"
         fill-rule="evenodd"
         d="m 1475.31,373.799 h 67.15 v 12.4 h -67.15 v -12.4"
         id="path104" />
      <path
         class="Beam"
         fill-rule="evenodd"
         d="m 1299.49,379.999 h 72.16 v 12.4 h -72.16 v -12.4"
         id="path105" />
      <path
         class="Beam"
         fill-rule="evenodd"
         d="m 1604.64,379.999 h 72.16 v 12.4 h -72.16 v -12.4"
         id="path106" />
      <path
         class="Beam"
         fill-rule="evenodd"
         d="m 2108.15,379.999 h 72.16 v 12.4 h -72.16 v -12.4"
         id="path107" />
      <path
         class="Beam"
         fill-rule="evenodd"
         d="m 2380.96,404.799 h 69.16 v 12.4 h -69.16 v -12.4"
         id="path109" />
      <path
         class="Lyrics"
         d="m 538.65,536.147 h -1.75 l -1.453,1.797 c -1.797,-1.406 -3.594,-2 -6.094,-2 -4.406,0 -7.297,2.844 -7.297,7.25 0,4.703 3.047,5.891 7.047,6.844 l 2.64,0.609 c 3.954,0.938 5.36,1.938 5.36,3.938 0,2.359 -2.047,4 -4.953,4 -4.25,0 -7.25,-2.688 -8.453,-7.688 h -2 v 9.438 h 1.75 l 1.75,-2.047 c 2.046,1.656 4.296,2.453 6.859,2.453 4.891,0 8.141,-3.047 8.141,-7.703 0,-2.203 -0.704,-3.891 -2.094,-5.047 -1.203,-1.047 -2.203,-1.453 -5.25,-2.094 l -2.5,-0.562 c -2.75,-0.594 -2.75,-0.594 -3.656,-1.094 -1.094,-0.5 -1.75,-1.547 -1.75,-2.656 0,-2.047 1.906,-3.438 4.656,-3.438 4.094,0 6.094,2.891 7.297,6.391 h 1.75 v -8.391 m 16.093,-0.203 c -6.14,0 -10.89,5.453 -10.89,12.453 0,6.844 4.797,12.344 10.797,12.344 6,0 10.797,-5.5 10.797,-12.406 0,-6.844 -4.797,-12.391 -10.704,-12.391 m 0,2.141 c 3.5,0 5.454,3.656 5.454,10.25 0,6.656 -1.954,10.25 -5.547,10.25 -3.594,0 -5.547,-3.594 -5.547,-10.188 0,-6.812 1.89,-10.312 5.64,-10.312 m 22.61,-14.954 -9.25,0.563 v 2.141 h 2.453 c 1.844,0.046 2.094,0.359 2.094,2.5 v 27.859 c -0.047,0.75 -0.094,1.047 -0.297,1.297 -0.36,0.453 -1.297,0.656 -3.453,0.703 h -0.344 v 1.797 h 12.937 v -1.797 h -0.343 c -3.344,-0.109 -3.797,-0.359 -3.797,-2.156 v -32.907"
         id="path110" />
      <path
         class="Lyrics"
         d="m 1272.86,536.147 h -1.75 l -1.45,1.797 c -1.8,-1.406 -3.6,-2 -6.1,-2 -4.4,0 -7.3,2.844 -7.3,7.25 0,4.703 3.05,5.891 7.05,6.844 l 2.64,0.609 c 3.96,0.938 5.36,1.938 5.36,3.938 0,2.359 -2.05,4 -4.95,4 -4.25,0 -7.25,-2.688 -8.45,-7.688 h -2 v 9.438 h 1.75 l 1.75,-2.047 c 2.04,1.656 4.29,2.453 6.85,2.453 4.9,0 8.15,-3.047 8.15,-7.703 0,-2.203 -0.71,-3.891 -2.1,-5.047 -1.2,-1.047 -2.2,-1.453 -5.25,-2.094 l -2.5,-0.562 c -2.75,-0.594 -2.75,-0.594 -3.65,-1.094 -1.1,-0.5 -1.75,-1.547 -1.75,-2.656 0,-2.047 1.9,-3.438 4.65,-3.438 4.1,0 6.1,2.891 7.3,6.391 h 1.75 v -8.391 m 16.09,-0.203 c -6.14,0 -10.89,5.453 -10.89,12.453 0,6.844 4.8,12.344 10.8,12.344 6,0 10.8,-5.5 10.8,-12.406 0,-6.844 -4.8,-12.391 -10.71,-12.391 m 0,2.141 c 3.5,0 5.46,3.656 5.46,10.25 0,6.656 -1.96,10.25 -5.55,10.25 -3.6,0 -5.55,-3.594 -5.55,-10.188 0,-6.812 1.89,-10.312 5.64,-10.312 m 22.61,-14.954 -9.25,0.563 v 2.141 h 2.45 c 1.85,0.046 2.1,0.359 2.1,2.5 v 27.859 c -0.05,0.75 -0.1,1.047 -0.3,1.297 -0.36,0.453 -1.3,0.656 -3.45,0.703 h -0.35 v 1.797 h 12.94 v -1.797 h -0.34 c -3.35,-0.109 -3.8,-0.359 -3.8,-2.156 v -32.907"
         id="path112" />
      <path
         class="Lyrics"
         d="m 673.554,523.131 -9.25,0.563 v 2.141 h 2.453 c 1.844,0.046 2.094,0.359 2.094,2.5 v 27.859 c -0.047,0.75 -0.094,1.047 -0.297,1.297 -0.36,0.453 -1.297,0.656 -3.453,0.703 h -0.344 v 1.797 h 12.937 v -1.797 h -0.343 c -3.344,-0.109 -3.797,-0.359 -3.797,-2.156 v -32.907 m 28.39,20.766 c 0,-3.156 -0.546,-4.75 -2,-5.953 -1.64,-1.359 -4.093,-2 -7.296,-2 -5.641,0 -9.75,2.641 -9.75,6.297 0,1.844 1.156,3.047 2.906,3.047 1.594,0 2.703,-1.047 2.703,-2.547 0,-0.656 -0.25,-1.344 -0.75,-2.047 -0.313,-0.359 -0.359,-0.453 -0.359,-0.703 0,-1 2,-1.906 4.406,-1.906 1.594,0 3.344,0.5 4.14,1.25 0.954,0.812 1.313,2 1.313,4.25 v 1.953 c -5.203,0.906 -6.859,1.297 -9.313,2.25 -4.343,1.609 -6.39,3.906 -6.39,7.109 0,3.594 2.797,5.844 7.25,5.844 3.453,0 6.547,-1.406 8.703,-3.953 0.797,2.547 2.047,3.547 4.391,3.547 2.25,0 4.609,-1.438 4.609,-2.891 0,-0.359 -0.203,-0.609 -0.5,-0.609 -0.203,0 -0.406,0.062 -0.75,0.203 -0.703,0.297 -1,0.359 -1.406,0.359 -1.407,0 -1.907,-0.906 -1.907,-3.453 v -10.047 m -4.687,6.094 c 0,3 -0.156,3.703 -1,5 -1.25,1.844 -3.5,3.094 -5.703,3.094 -2.297,0 -3.953,-1.641 -3.953,-3.891 0,-2.109 1.047,-3.609 3.25,-4.656 1.547,-0.703 3.5,-1.203 7.406,-1.844 v 2.297"
         id="path113" />
      <path
         class="Lyrics"
         d="m 2081.52,536.147 h -1.75 l -1.46,1.797 c -1.79,-1.406 -3.59,-2 -6.09,-2 -4.41,0 -7.3,2.844 -7.3,7.25 0,4.703 3.05,5.891 7.05,6.844 l 2.64,0.609 c 3.95,0.938 5.36,1.938 5.36,3.938 0,2.359 -2.05,4 -4.95,4 -4.25,0 -7.25,-2.688 -8.46,-7.688 h -2 v 9.438 h 1.75 l 1.75,-2.047 c 2.05,1.656 4.3,2.453 6.86,2.453 4.89,0 8.14,-3.047 8.14,-7.703 0,-2.203 -0.7,-3.891 -2.09,-5.047 -1.2,-1.047 -2.2,-1.453 -5.25,-2.094 l -2.5,-0.562 c -2.75,-0.594 -2.75,-0.594 -3.66,-1.094 -1.09,-0.5 -1.75,-1.547 -1.75,-2.656 0,-2.047 1.91,-3.438 4.66,-3.438 4.09,0 6.09,2.891 7.3,6.391 h 1.75 v -8.391 m 16.09,-0.203 c -6.14,0 -10.89,5.453 -10.89,12.453 0,6.844 4.8,12.344 10.8,12.344 6,0 10.79,-5.5 10.79,-12.406 0,-6.844 -4.79,-12.391 -10.7,-12.391 m 0,2.141 c 3.5,0 5.45,3.656 5.45,10.25 0,6.656 -1.95,10.25 -5.54,10.25 -3.6,0 -5.55,-3.594 -5.55,-10.188 0,-6.812 1.89,-10.312 5.64,-10.312 m 22.61,-14.954 -9.25,0.563 v 2.141 h 2.45 c 1.85,0.046 2.1,0.359 2.1,2.5 v 27.859 c -0.05,0.75 -0.1,1.047 -0.3,1.297 -0.36,0.453 -1.3,0.656 -3.45,0.703 h -0.35 v 1.797 h 12.94 v -1.797 h -0.34 c -3.35,-0.109 -3.8,-0.359 -3.8,-2.156 v -32.907"
         id="path114" />
      <path
         class="Lyrics"
         d="m 769.348,536.147 h -1.75 l -1.454,1.797 c -1.796,-1.406 -3.593,-2 -6.093,-2 -4.407,0 -7.297,2.844 -7.297,7.25 0,4.703 3.047,5.891 7.047,6.844 l 2.64,0.609 c 3.953,0.938 5.36,1.938 5.36,3.938 0,2.359 -2.047,4 -4.953,4 -4.25,0 -7.25,-2.688 -8.454,-7.688 h -2 v 9.438 h 1.75 l 1.75,-2.047 c 2.047,1.656 4.297,2.453 6.86,2.453 4.89,0 8.14,-3.047 8.14,-7.703 0,-2.203 -0.703,-3.891 -2.093,-5.047 -1.203,-1.047 -2.203,-1.453 -5.25,-2.094 l -2.5,-0.562 c -2.75,-0.594 -2.75,-0.594 -3.657,-1.094 -1.093,-0.5 -1.75,-1.547 -1.75,-2.656 0,-2.047 1.907,-3.438 4.657,-3.438 4.093,0 6.093,2.891 7.297,6.391 h 1.75 v -8.391 m 16.093,-0.203 c -6.14,0 -10.89,5.453 -10.89,12.453 0,6.844 4.797,12.344 10.797,12.344 6,0 10.796,-5.5 10.796,-12.406 0,-6.844 -4.796,-12.391 -10.703,-12.391 m 0,2.141 c 3.5,0 5.453,3.656 5.453,10.25 0,6.656 -1.953,10.25 -5.546,10.25 -3.594,0 -5.547,-3.594 -5.547,-10.188 0,-6.812 1.89,-10.312 5.64,-10.312 m 22.61,-14.954 -9.25,0.563 v 2.141 h 2.453 c 1.844,0.046 2.094,0.359 2.094,2.5 v 27.859 c -0.047,0.75 -0.094,1.047 -0.297,1.297 -0.36,0.453 -1.297,0.656 -3.453,0.703 h -0.344 v 1.797 h 12.937 v -1.797 h -0.343 c -3.344,-0.109 -3.797,-0.359 -3.797,-2.156 v -32.907"
         id="path115" />
      <path
         class="Lyrics"
         d="m 839.028,536.147 h -1.75 l -1.454,1.797 c -1.796,-1.406 -3.593,-2 -6.093,-2 -4.407,0 -7.297,2.844 -7.297,7.25 0,4.703 3.047,5.891 7.047,6.844 l 2.64,0.609 c 3.953,0.938 5.36,1.938 5.36,3.938 0,2.359 -2.047,4 -4.953,4 -4.25,0 -7.25,-2.688 -8.454,-7.688 h -2 v 9.438 h 1.75 l 1.75,-2.047 c 2.047,1.656 4.297,2.453 6.86,2.453 4.89,0 8.14,-3.047 8.14,-7.703 0,-2.203 -0.703,-3.891 -2.093,-5.047 -1.203,-1.047 -2.203,-1.453 -5.25,-2.094 l -2.5,-0.562 c -2.75,-0.594 -2.75,-0.594 -3.657,-1.094 -1.093,-0.5 -1.75,-1.547 -1.75,-2.656 0,-2.047 1.907,-3.438 4.657,-3.438 4.093,0 6.093,2.891 7.297,6.391 h 1.75 v -8.391 m 16.093,-0.203 c -6.14,0 -10.89,5.453 -10.89,12.453 0,6.844 4.797,12.344 10.797,12.344 6,0 10.796,-5.5 10.796,-12.406 0,-6.844 -4.796,-12.391 -10.703,-12.391 m 0,2.141 c 3.5,0 5.453,3.656 5.453,10.25 0,6.656 -1.953,10.25 -5.546,10.25 -3.594,0 -5.547,-3.594 -5.547,-10.188 0,-6.812 1.89,-10.312 5.64,-10.312 m 22.61,-14.954 -9.25,0.563 v 2.141 h 2.453 c 1.844,0.046 2.094,0.359 2.094,2.5 v 27.859 c -0.047,0.75 -0.094,1.047 -0.297,1.297 -0.36,0.453 -1.297,0.656 -3.453,0.703 h -0.344 v 1.797 h 12.937 v -1.797 h -0.343 c -3.344,-0.109 -3.797,-0.359 -3.797,-2.156 v -32.907"
         id="path117" />
      <path
         class="Lyrics"
         d="m 2414.06,536.694 -8.89,0.547 v 2.156 h 2.04 c 1.89,0.047 2.14,0.344 2.14,2.5 v 14.297 c -0.04,0.75 -0.09,1.047 -0.29,1.297 -0.35,0.453 -1.3,0.656 -3.46,0.703 h -0.18 v 1.797 h 12.59 v -1.797 h -0.2 c -3.3,-0.109 -3.75,-0.359 -3.75,-2.203 v -9.25 c 0,-4.453 2.45,-7.75 5.7,-7.75 2.84,0 4.3,2.047 4.3,6.094 v 11.156 c -0.05,0.656 -0.1,1 -0.35,1.25 -0.29,0.453 -1.29,0.656 -3.45,0.703 h -0.2 v 1.797 h 12.65 v -1.797 h -0.2 c -3.3,-0.109 -3.75,-0.359 -3.75,-2.156 v -8.844 c 0,-5 2.25,-8.203 5.75,-8.203 2.86,0 4.25,2.156 4.25,6.656 v 10.547 c -0.05,0.703 -0.09,1.047 -0.34,1.297 -0.3,0.453 -1.3,0.656 -3.46,0.703 h -0.2 v 1.797 h 12.66 v -1.797 h -0.21 c -3.29,-0.109 -3.75,-0.359 -3.75,-2.203 v -11.344 c 0,-3.109 -0.29,-4.156 -1.59,-5.859 -1.45,-1.844 -3.5,-2.844 -5.91,-2.844 -3.25,0 -5.65,1.547 -7.79,5 -0.86,-3 -3.57,-5 -6.91,-5 -3.05,0 -5.25,1.453 -7.2,4.594 v -3.844 m 41.9,-12.453 c -1.61,0 -2.9,1.297 -2.9,2.89 0,1.61 1.29,2.907 2.86,2.907 1.64,0 2.93,-1.297 2.93,-2.907 0,-1.593 -1.29,-2.89 -2.89,-2.89 m 2.35,12.453 -9.39,0.547 v 2.156 h 2.54 c 1.89,0.047 2.14,0.344 2.14,2.5 v 14.297 c -0.04,0.75 -0.09,1.047 -0.29,1.297 -0.35,0.453 -1.3,0.656 -3.46,0.703 h -0.34 v 1.797 h 12.95 v -1.797 h -0.36 c -3.34,-0.109 -3.79,-0.359 -3.79,-2.156 v -19.344"
         id="path118" />
      <path
         class="Lyrics"
         d="m 1850.82,536.147 h -1.75 l -1.46,1.797 c -1.79,-1.406 -3.59,-2 -6.09,-2 -4.41,0 -7.3,2.844 -7.3,7.25 0,4.703 3.05,5.891 7.05,6.844 l 2.64,0.609 c 3.95,0.938 5.36,1.938 5.36,3.938 0,2.359 -2.05,4 -4.95,4 -4.25,0 -7.25,-2.688 -8.46,-7.688 h -2 v 9.438 h 1.75 l 1.75,-2.047 c 2.05,1.656 4.3,2.453 6.86,2.453 4.89,0 8.14,-3.047 8.14,-7.703 0,-2.203 -0.7,-3.891 -2.09,-5.047 -1.2,-1.047 -2.2,-1.453 -5.25,-2.094 l -2.5,-0.562 c -2.75,-0.594 -2.75,-0.594 -3.66,-1.094 -1.09,-0.5 -1.75,-1.547 -1.75,-2.656 0,-2.047 1.91,-3.438 4.66,-3.438 4.09,0 6.09,2.891 7.3,6.391 h 1.75 v -8.391 m 16.09,-0.203 c -6.14,0 -10.89,5.453 -10.89,12.453 0,6.844 4.8,12.344 10.8,12.344 6,0 10.79,-5.5 10.79,-12.406 0,-6.844 -4.79,-12.391 -10.7,-12.391 m 0,2.141 c 3.5,0 5.45,3.656 5.45,10.25 0,6.656 -1.95,10.25 -5.54,10.25 -3.6,0 -5.55,-3.594 -5.55,-10.188 0,-6.812 1.89,-10.312 5.64,-10.312 m 22.61,-14.954 -9.25,0.563 v 2.141 h 2.45 c 1.85,0.046 2.1,0.359 2.1,2.5 v 27.859 c -0.05,0.75 -0.1,1.047 -0.3,1.297 -0.36,0.453 -1.3,0.656 -3.45,0.703 h -0.35 v 1.797 h 12.94 v -1.797 h -0.34 c -3.35,-0.109 -3.8,-0.359 -3.8,-2.156 v -32.907"
         id="path119" />
      <path
         class="Lyrics"
         d="m 2151.2,536.147 h -1.75 l -1.46,1.797 c -1.79,-1.406 -3.59,-2 -6.09,-2 -4.41,0 -7.3,2.844 -7.3,7.25 0,4.703 3.05,5.891 7.05,6.844 l 2.64,0.609 c 3.95,0.938 5.36,1.938 5.36,3.938 0,2.359 -2.05,4 -4.95,4 -4.25,0 -7.25,-2.688 -8.46,-7.688 h -2 v 9.438 h 1.75 l 1.75,-2.047 c 2.05,1.656 4.3,2.453 6.86,2.453 4.89,0 8.14,-3.047 8.14,-7.703 0,-2.203 -0.7,-3.891 -2.09,-5.047 -1.2,-1.047 -2.2,-1.453 -5.25,-2.094 l -2.5,-0.562 c -2.75,-0.594 -2.75,-0.594 -3.66,-1.094 -1.09,-0.5 -1.75,-1.547 -1.75,-2.656 0,-2.047 1.91,-3.438 4.66,-3.438 4.09,0 6.09,2.891 7.3,6.391 h 1.75 v -8.391 m 16.09,-0.203 c -6.14,0 -10.89,5.453 -10.89,12.453 0,6.844 4.8,12.344 10.8,12.344 6,0 10.79,-5.5 10.79,-12.406 0,-6.844 -4.79,-12.391 -10.7,-12.391 m 0,2.141 c 3.5,0 5.45,3.656 5.45,10.25 0,6.656 -1.95,10.25 -5.54,10.25 -3.6,0 -5.55,-3.594 -5.55,-10.188 0,-6.812 1.89,-10.312 5.64,-10.312 m 22.61,-14.954 -9.25,0.563 v 2.141 h 2.45 c 1.85,0.046 2.1,0.359 2.1,2.5 v 27.859 c -0.05,0.75 -0.1,1.047 -0.3,1.297 -0.36,0.453 -1.3,0.656 -3.45,0.703 h -0.35 v 1.797 h 12.94 v -1.797 h -0.34 c -3.35,-0.109 -3.8,-0.359 -3.8,-2.156 v -32.907"
         id="path120" />
      <path
         class="Lyrics"
         d="m 2526.55,536.694 -8.86,0.547 v 2.156 h 2.05 c 1.91,0.047 2.16,0.344 2.16,2.5 v 14.297 c -0.05,0.75 -0.1,1.047 -0.3,1.297 -0.36,0.453 -1.36,0.656 -3.5,0.703 h -0.2 v 1.797 h 13.34 v -1.797 h -0.89 c -3.36,-0.109 -3.8,-0.359 -3.8,-2.156 v -2.703 c 0.05,-8.391 3.05,-14.797 6.94,-15 -0.69,0.812 -0.89,1.312 -0.89,2.25 0,1.609 1.14,2.75 2.75,2.75 1.84,0 3.05,-1.344 3.05,-3.344 0,-2.453 -1.71,-4.047 -4.35,-4.047 -3.15,0 -5.86,2.5 -7.5,6.953 v -6.203 m 35.35,12.047 c 0.04,-7.5 -4.21,-12.797 -10.3,-12.797 -6.41,0 -11.2,5.547 -11.2,13.047 0,7.047 4.54,11.75 11.29,11.75 4.8,0 8.16,-2.344 10.21,-7.094 l -1.75,-0.953 c -2.05,3.844 -4.16,5.344 -7.5,5.344 -2.55,0 -4.41,-1.047 -5.71,-3.297 -0.89,-1.5 -1.29,-3.25 -1.25,-6 h 16.21 m -16.16,-2.156 c 0,-3.5 1.61,-8.5 5.81,-8.5 3,0 5,2.656 5,6.703 0,1.406 -0.45,1.797 -2.06,1.797 h -8.75"
         id="path121" />
      <path
         class="Lyrics"
         d="m 1168.91,536.694 -8.89,0.547 v 2.156 h 2.04 c 1.9,0.047 2.15,0.344 2.15,2.5 v 14.297 c -0.05,0.75 -0.1,1.047 -0.3,1.297 -0.35,0.453 -1.3,0.656 -3.45,0.703 h -0.19 v 1.797 h 12.59 v -1.797 h -0.2 c -3.3,-0.109 -3.75,-0.359 -3.75,-2.203 v -9.25 c 0,-4.453 2.45,-7.75 5.7,-7.75 2.85,0 4.3,2.047 4.3,6.094 v 11.156 c -0.05,0.656 -0.1,1 -0.35,1.25 -0.29,0.453 -1.29,0.656 -3.45,0.703 h -0.2 v 1.797 h 12.65 v -1.797 h -0.2 c -3.3,-0.109 -3.75,-0.359 -3.75,-2.156 v -8.844 c 0,-5 2.25,-8.203 5.75,-8.203 2.86,0 4.25,2.156 4.25,6.656 v 10.547 c -0.05,0.703 -0.09,1.047 -0.34,1.297 -0.3,0.453 -1.3,0.656 -3.46,0.703 h -0.2 v 1.797 h 12.66 v -1.797 h -0.21 c -3.29,-0.109 -3.75,-0.359 -3.75,-2.203 v -11.344 c 0,-3.109 -0.29,-4.156 -1.59,-5.859 -1.45,-1.844 -3.5,-2.844 -5.91,-2.844 -3.25,0 -5.65,1.547 -7.79,5 -0.86,-3 -3.56,-5 -6.91,-5 -3.05,0 -5.25,1.453 -7.2,4.594 v -3.844 m 41.9,-12.453 c -1.6,0 -2.9,1.297 -2.9,2.89 0,1.61 1.3,2.907 2.86,2.907 1.64,0 2.94,-1.297 2.94,-2.907 0,-1.593 -1.3,-2.89 -2.9,-2.89 m 2.35,12.453 -9.39,0.547 v 2.156 h 2.54 c 1.9,0.047 2.15,0.344 2.15,2.5 v 14.297 c -0.05,0.75 -0.1,1.047 -0.3,1.297 -0.35,0.453 -1.3,0.656 -3.45,0.703 h -0.35 v 1.797 h 12.95 v -1.797 h -0.35 c -3.35,-0.109 -3.8,-0.359 -3.8,-2.156 v -19.344"
         id="path124" />
      <path
         class="Lyrics"
         d="m 2624.14,536.147 h -1.75 l -1.45,1.797 c -1.8,-1.406 -3.59,-2 -6.09,-2 -4.41,0 -7.3,2.844 -7.3,7.25 0,4.703 3.05,5.891 7.05,6.844 l 2.64,0.609 c 3.95,0.938 5.36,1.938 5.36,3.938 0,2.359 -2.05,4 -4.96,4 -4.25,0 -7.25,-2.688 -8.45,-7.688 h -2 v 9.438 h 1.75 l 1.75,-2.047 c 2.05,1.656 4.3,2.453 6.86,2.453 4.89,0 8.14,-3.047 8.14,-7.703 0,-2.203 -0.7,-3.891 -2.09,-5.047 -1.21,-1.047 -2.21,-1.453 -5.25,-2.094 l -2.5,-0.562 c -2.75,-0.594 -2.75,-0.594 -3.66,-1.094 -1.09,-0.5 -1.75,-1.547 -1.75,-2.656 0,-2.047 1.91,-3.438 4.66,-3.438 4.09,0 6.09,2.891 7.29,6.391 h 1.75 v -8.391 m 16.1,-0.203 c -6.14,0 -10.89,5.453 -10.89,12.453 0,6.844 4.79,12.344 10.79,12.344 6,0 10.8,-5.5 10.8,-12.406 0,-6.844 -4.8,-12.391 -10.7,-12.391 m 0,2.141 c 3.5,0 5.45,3.656 5.45,10.25 0,6.656 -1.95,10.25 -5.55,10.25 -3.59,0 -5.54,-3.594 -5.54,-10.188 0,-6.812 1.89,-10.312 5.64,-10.312 m 22.61,-14.954 -9.25,0.563 v 2.141 h 2.45 c 1.84,0.046 2.09,0.359 2.09,2.5 v 27.859 c -0.04,0.75 -0.09,1.047 -0.29,1.297 -0.36,0.453 -1.3,0.656 -3.46,0.703 h -0.34 v 1.797 h 12.94 v -1.797 h -0.35 c -3.34,-0.109 -3.79,-0.359 -3.79,-2.156 v -32.907"
         id="path125" />
      <path
         class="Lyrics"
         d="m 1042.16,536.147 h -1.75 l -1.45,1.797 c -1.8,-1.406 -3.6,-2 -6.1,-2 -4.4,0 -7.29,2.844 -7.29,7.25 0,4.703 3.04,5.891 7.04,6.844 l 2.64,0.609 c 3.96,0.938 5.36,1.938 5.36,3.938 0,2.359 -2.04,4 -4.95,4 -4.25,0 -7.25,-2.688 -8.45,-7.688 h -2 v 9.438 h 1.75 l 1.75,-2.047 c 2.04,1.656 4.29,2.453 6.86,2.453 4.89,0 8.14,-3.047 8.14,-7.703 0,-2.203 -0.71,-3.891 -2.1,-5.047 -1.2,-1.047 -2.2,-1.453 -5.25,-2.094 l -2.5,-0.562 c -2.75,-0.594 -2.75,-0.594 -3.65,-1.094 -1.1,-0.5 -1.75,-1.547 -1.75,-2.656 0,-2.047 1.9,-3.438 4.65,-3.438 4.1,0 6.1,2.891 7.3,6.391 h 1.75 v -8.391 m 16.09,-0.203 c -6.14,0 -10.89,5.453 -10.89,12.453 0,6.844 4.8,12.344 10.8,12.344 6,0 10.8,-5.5 10.8,-12.406 0,-6.844 -4.8,-12.391 -10.71,-12.391 m 0,2.141 c 3.5,0 5.46,3.656 5.46,10.25 0,6.656 -1.96,10.25 -5.55,10.25 -3.59,0 -5.55,-3.594 -5.55,-10.188 0,-6.812 1.89,-10.312 5.64,-10.312 m 22.61,-14.954 -9.25,0.563 v 2.141 h 2.46 c 1.84,0.046 2.09,0.359 2.09,2.5 v 27.859 c -0.05,0.75 -0.09,1.047 -0.3,1.297 -0.36,0.453 -1.29,0.656 -3.45,0.703 h -0.34 v 1.797 H 1085 v -1.797 h -0.34 c -3.34,-0.109 -3.8,-0.359 -3.8,-2.156 v -32.907"
         id="path126" />
      <path
         class="Lyrics"
         d="m 1753.23,536.694 -8.86,0.547 v 2.156 h 2.04 c 1.91,0.047 2.16,0.344 2.16,2.5 v 14.297 c -0.05,0.75 -0.09,1.047 -0.3,1.297 -0.36,0.453 -1.36,0.656 -3.5,0.703 h -0.2 v 1.797 h 13.34 v -1.797 h -0.89 c -3.36,-0.109 -3.79,-0.359 -3.79,-2.156 v -2.703 c 0.04,-8.391 3.04,-14.797 6.93,-15 -0.68,0.812 -0.89,1.312 -0.89,2.25 0,1.609 1.14,2.75 2.75,2.75 1.85,0 3.05,-1.344 3.05,-3.344 0,-2.453 -1.7,-4.047 -4.34,-4.047 -3.16,0 -5.86,2.5 -7.5,6.953 v -6.203 m 35.34,12.047 c 0.05,-7.5 -4.2,-12.797 -10.3,-12.797 -6.4,0 -11.2,5.547 -11.2,13.047 0,7.047 4.55,11.75 11.3,11.75 4.79,0 8.15,-2.344 10.2,-7.094 l -1.75,-0.953 c -2.05,3.844 -4.16,5.344 -7.5,5.344 -2.55,0 -4.41,-1.047 -5.7,-3.297 -0.89,-1.5 -1.3,-3.25 -1.25,-6 h 16.2 m -16.16,-2.156 c 0,-3.5 1.61,-8.5 5.82,-8.5 3,0 5,2.656 5,6.703 0,1.406 -0.46,1.797 -2.07,1.797 h -8.75"
         id="path127" />
      <path
         class="Lyrics"
         d="m 2257.88,536.694 v -2.859 c 0,-2.5 0.16,-4.141 0.55,-5.141 0.81,-2.203 2.56,-3.563 4.56,-3.563 1.05,0 1.69,0.313 1.69,0.86 0,0.203 0,0.25 -0.3,0.64 -0.3,0.454 -0.45,1.063 -0.45,1.61 0,1.5 1.2,2.64 2.75,2.64 1.65,0 2.81,-1.25 2.81,-3.046 0,-2.891 -2.5,-4.704 -6.56,-4.704 -3.44,0 -6,1.204 -7.75,3.704 -1.5,2.109 -2,4.25 -2,8.312 v 1.547 h -4.39 v 2.141 h 4.39 v 17.359 c -0.05,0.703 -0.1,1 -0.3,1.297 -0.34,0.453 -1.3,0.656 -3.45,0.703 h -0.19 v 1.797 h 13.34 v -1.797 h -0.9 c -3.35,-0.109 -3.8,-0.359 -3.8,-2.156 v -17.203 h 5.5 v -2.141 h -5.5 m 28.55,7.203 c 0,-3.156 -0.55,-4.75 -2,-5.953 -1.64,-1.359 -4.1,-2 -7.3,-2 -5.64,0 -9.75,2.641 -9.75,6.297 0,1.844 1.16,3.047 2.91,3.047 1.59,0 2.7,-1.047 2.7,-2.547 0,-0.656 -0.25,-1.344 -0.75,-2.047 -0.31,-0.359 -0.36,-0.453 -0.36,-0.703 0,-1 2,-1.906 4.41,-1.906 1.59,0 3.34,0.5 4.14,1.25 0.95,0.812 1.31,2 1.31,4.25 v 1.953 c -5.2,0.906 -6.86,1.297 -9.31,2.25 -4.35,1.609 -6.39,3.906 -6.39,7.109 0,3.594 2.79,5.844 7.25,5.844 3.45,0 6.54,-1.406 8.7,-3.953 0.8,2.547 2.05,3.547 4.39,3.547 2.25,0 4.61,-1.438 4.61,-2.891 0,-0.359 -0.2,-0.609 -0.5,-0.609 -0.2,0 -0.41,0.062 -0.75,0.203 -0.7,0.297 -1,0.359 -1.41,0.359 -1.4,0 -1.9,-0.906 -1.9,-3.453 v -10.047 m -4.69,6.094 c 0,3 -0.16,3.703 -1,5 -1.25,1.844 -3.5,3.094 -5.7,3.094 -2.3,0 -3.96,-1.641 -3.96,-3.891 0,-2.109 1.05,-3.609 3.25,-4.656 1.55,-0.703 3.5,-1.203 7.41,-1.844 v 2.297"
         id="path128" />
      <path
         class="Lyrics"
         d="m 2693.82,536.147 h -1.75 l -1.45,1.797 c -1.8,-1.406 -3.59,-2 -6.09,-2 -4.41,0 -7.3,2.844 -7.3,7.25 0,4.703 3.05,5.891 7.05,6.844 l 2.64,0.609 c 3.95,0.938 5.36,1.938 5.36,3.938 0,2.359 -2.05,4 -4.96,4 -4.25,0 -7.25,-2.688 -8.45,-7.688 h -2 v 9.438 h 1.75 l 1.75,-2.047 c 2.05,1.656 4.3,2.453 6.86,2.453 4.89,0 8.14,-3.047 8.14,-7.703 0,-2.203 -0.7,-3.891 -2.09,-5.047 -1.21,-1.047 -2.21,-1.453 -5.25,-2.094 l -2.5,-0.562 c -2.75,-0.594 -2.75,-0.594 -3.66,-1.094 -1.09,-0.5 -1.75,-1.547 -1.75,-2.656 0,-2.047 1.91,-3.438 4.66,-3.438 4.09,0 6.09,2.891 7.29,6.391 h 1.75 v -8.391 m 16.1,-0.203 c -6.14,0 -10.89,5.453 -10.89,12.453 0,6.844 4.79,12.344 10.79,12.344 6,0 10.8,-5.5 10.8,-12.406 0,-6.844 -4.8,-12.391 -10.7,-12.391 m 0,2.141 c 3.5,0 5.45,3.656 5.45,10.25 0,6.656 -1.95,10.25 -5.55,10.25 -3.59,0 -5.54,-3.594 -5.54,-10.188 0,-6.812 1.89,-10.312 5.64,-10.312 m 22.61,-14.954 -9.25,0.563 v 2.141 h 2.45 c 1.84,0.046 2.09,0.359 2.09,2.5 v 27.859 c -0.04,0.75 -0.09,1.047 -0.29,1.297 -0.36,0.453 -1.3,0.656 -3.46,0.703 h -0.34 v 1.797 h 12.94 v -1.797 h -0.35 c -3.34,-0.109 -3.79,-0.359 -3.79,-2.156 v -32.907"
         id="path129" />
      <path
         class="Lyrics"
         d="m 1977.57,536.694 -8.9,0.547 v 2.156 h 2.05 c 1.89,0.047 2.14,0.344 2.14,2.5 v 14.297 c -0.04,0.75 -0.09,1.047 -0.29,1.297 -0.35,0.453 -1.3,0.656 -3.46,0.703 h -0.19 v 1.797 h 12.6 v -1.797 h -0.2 c -3.3,-0.109 -3.75,-0.359 -3.75,-2.203 v -9.25 c 0,-4.453 2.45,-7.75 5.7,-7.75 2.84,0 4.3,2.047 4.3,6.094 v 11.156 c -0.05,0.656 -0.1,1 -0.35,1.25 -0.3,0.453 -1.3,0.656 -3.45,0.703 h -0.2 v 1.797 h 12.65 v -1.797 h -0.2 c -3.3,-0.109 -3.75,-0.359 -3.75,-2.156 v -8.844 c 0,-5 2.25,-8.203 5.75,-8.203 2.86,0 4.25,2.156 4.25,6.656 v 10.547 c -0.05,0.703 -0.1,1.047 -0.35,1.297 -0.29,0.453 -1.29,0.656 -3.45,0.703 h -0.2 v 1.797 h 12.65 v -1.797 h -0.2 c -3.3,-0.109 -3.75,-0.359 -3.75,-2.203 v -11.344 c 0,-3.109 -0.3,-4.156 -1.59,-5.859 -1.46,-1.844 -3.5,-2.844 -5.91,-2.844 -3.25,0 -5.65,1.547 -7.8,5 -0.85,-3 -3.56,-5 -6.9,-5 -3.05,0 -5.25,1.453 -7.2,4.594 v -3.844 m 41.9,-12.453 c -1.61,0 -2.9,1.297 -2.9,2.89 0,1.61 1.29,2.907 2.85,2.907 1.65,0 2.94,-1.297 2.94,-2.907 0,-1.593 -1.29,-2.89 -2.89,-2.89 m 2.35,12.453 -9.4,0.547 v 2.156 h 2.55 c 1.89,0.047 2.14,0.344 2.14,2.5 v 14.297 c -0.04,0.75 -0.09,1.047 -0.29,1.297 -0.35,0.453 -1.3,0.656 -3.46,0.703 h -0.34 v 1.797 h 12.95 v -1.797 h -0.36 c -3.34,-0.109 -3.79,-0.359 -3.79,-2.156 v -19.344"
         id="path130" />
      <path
         class="Lyrics"
         d="m 1647.68,536.147 h -1.75 l -1.45,1.797 c -1.8,-1.406 -3.59,-2 -6.09,-2 -4.41,0 -7.3,2.844 -7.3,7.25 0,4.703 3.05,5.891 7.05,6.844 l 2.64,0.609 c 3.95,0.938 5.36,1.938 5.36,3.938 0,2.359 -2.05,4 -4.96,4 -4.25,0 -7.25,-2.688 -8.45,-7.688 h -2 v 9.438 h 1.75 l 1.75,-2.047 c 2.05,1.656 4.3,2.453 6.86,2.453 4.89,0 8.14,-3.047 8.14,-7.703 0,-2.203 -0.7,-3.891 -2.09,-5.047 -1.21,-1.047 -2.21,-1.453 -5.25,-2.094 l -2.5,-0.562 c -2.75,-0.594 -2.75,-0.594 -3.66,-1.094 -1.09,-0.5 -1.75,-1.547 -1.75,-2.656 0,-2.047 1.91,-3.438 4.66,-3.438 4.09,0 6.09,2.891 7.29,6.391 h 1.75 v -8.391 m 16.1,-0.203 c -6.14,0 -10.89,5.453 -10.89,12.453 0,6.844 4.79,12.344 10.79,12.344 6,0 10.8,-5.5 10.8,-12.406 0,-6.844 -4.8,-12.391 -10.7,-12.391 m 0,2.141 c 3.5,0 5.45,3.656 5.45,10.25 0,6.656 -1.95,10.25 -5.55,10.25 -3.59,0 -5.54,-3.594 -5.54,-10.188 0,-6.812 1.89,-10.312 5.64,-10.312 m 22.61,-14.954 -9.25,0.563 v 2.141 h 2.45 c 1.84,0.046 2.09,0.359 2.09,2.5 v 27.859 c -0.04,0.75 -0.09,1.047 -0.29,1.297 -0.36,0.453 -1.3,0.656 -3.46,0.703 h -0.34 v 1.797 h 12.94 v -1.797 h -0.35 c -3.34,-0.109 -3.79,-0.359 -3.79,-2.156 v -32.907"
         id="path132" />
      <path
         class="Lyrics"
         d="m 944.57,536.694 -8.859,0.547 v 2.156 h 2.047 c 1.906,0.047 2.156,0.344 2.156,2.5 v 14.297 c -0.047,0.75 -0.094,1.047 -0.297,1.297 -0.359,0.453 -1.359,0.656 -3.5,0.703 h -0.203 v 1.797 h 13.344 v -1.797 h -0.891 c -3.359,-0.109 -3.797,-0.359 -3.797,-2.156 v -2.703 c 0.047,-8.391 3.047,-14.797 6.938,-15 -0.688,0.812 -0.891,1.312 -0.891,2.25 0,1.609 1.141,2.75 2.75,2.75 1.844,0 3.047,-1.344 3.047,-3.344 0,-2.453 -1.703,-4.047 -4.344,-4.047 -3.156,0 -5.859,2.5 -7.5,6.953 v -6.203 m 35.344,12.047 c 0.047,-7.5 -4.203,-12.797 -10.297,-12.797 -6.406,0 -11.203,5.547 -11.203,13.047 0,7.047 4.547,11.75 11.297,11.75 4.797,0 8.156,-2.344 10.203,-7.094 l -1.75,-0.953 c -2.047,3.844 -4.156,5.344 -7.5,5.344 -2.547,0 -4.406,-1.047 -5.703,-3.297 -0.891,-1.5 -1.297,-3.25 -1.25,-6 h 16.203 m -16.156,-2.156 c 0,-3.5 1.609,-8.5 5.812,-8.5 3,0 5,2.656 5,6.703 0,1.406 -0.453,1.797 -2.062,1.797 h -8.75"
         id="path133" />
      <path
         class="Lyrics"
         d="m 1578,536.147 h -1.75 l -1.45,1.797 c -1.8,-1.406 -3.59,-2 -6.09,-2 -4.41,0 -7.3,2.844 -7.3,7.25 0,4.703 3.05,5.891 7.05,6.844 l 2.64,0.609 c 3.95,0.938 5.36,1.938 5.36,3.938 0,2.359 -2.05,4 -4.96,4 -4.25,0 -7.25,-2.688 -8.45,-7.688 h -2 v 9.438 h 1.75 l 1.75,-2.047 c 2.05,1.656 4.3,2.453 6.86,2.453 4.89,0 8.14,-3.047 8.14,-7.703 0,-2.203 -0.7,-3.891 -2.09,-5.047 -1.21,-1.047 -2.21,-1.453 -5.25,-2.094 l -2.5,-0.562 c -2.75,-0.594 -2.75,-0.594 -3.66,-1.094 -1.09,-0.5 -1.75,-1.547 -1.75,-2.656 0,-2.047 1.91,-3.438 4.66,-3.438 4.09,0 6.09,2.891 7.29,6.391 h 1.75 v -8.391 m 16.1,-0.203 c -6.14,0 -10.89,5.453 -10.89,12.453 0,6.844 4.79,12.344 10.79,12.344 6,0 10.8,-5.5 10.8,-12.406 0,-6.844 -4.8,-12.391 -10.7,-12.391 m 0,2.141 c 3.5,0 5.45,3.656 5.45,10.25 0,6.656 -1.95,10.25 -5.55,10.25 -3.59,0 -5.54,-3.594 -5.54,-10.188 0,-6.812 1.89,-10.312 5.64,-10.312 m 22.61,-14.954 -9.25,0.563 v 2.141 h 2.45 c 1.84,0.046 2.09,0.359 2.09,2.5 v 27.859 c -0.04,0.75 -0.09,1.047 -0.29,1.297 -0.36,0.453 -1.3,0.656 -3.46,0.703 h -0.34 v 1.797 h 12.94 v -1.797 h -0.35 c -3.34,-0.109 -3.79,-0.359 -3.79,-2.156 v -32.907"
         id="path134" />
      <path
         class="Lyrics"
         d="m 1514.54,523.131 -9.25,0.563 v 2.141 h 2.46 c 1.84,0.046 2.09,0.359 2.09,2.5 v 27.859 c -0.05,0.75 -0.09,1.047 -0.3,1.297 -0.36,0.453 -1.29,0.656 -3.45,0.703 h -0.34 v 1.797 h 12.93 v -1.797 h -0.34 c -3.34,-0.109 -3.8,-0.359 -3.8,-2.156 v -32.907 m 28.39,20.766 c 0,-3.156 -0.54,-4.75 -2,-5.953 -1.64,-1.359 -4.09,-2 -7.29,-2 -5.64,0 -9.75,2.641 -9.75,6.297 0,1.844 1.15,3.047 2.9,3.047 1.6,0 2.71,-1.047 2.71,-2.547 0,-0.656 -0.25,-1.344 -0.75,-2.047 -0.32,-0.359 -0.36,-0.453 -0.36,-0.703 0,-1 2,-1.906 4.4,-1.906 1.6,0 3.35,0.5 4.14,1.25 0.96,0.812 1.32,2 1.32,4.25 v 1.953 c -5.21,0.906 -6.86,1.297 -9.32,2.25 -4.34,1.609 -6.39,3.906 -6.39,7.109 0,3.594 2.8,5.844 7.25,5.844 3.46,0 6.55,-1.406 8.71,-3.953 0.79,2.547 2.04,3.547 4.39,3.547 2.25,0 4.61,-1.438 4.61,-2.891 0,-0.359 -0.21,-0.609 -0.5,-0.609 -0.21,0 -0.41,0.062 -0.75,0.203 -0.71,0.297 -1,0.359 -1.41,0.359 -1.41,0 -1.91,-0.906 -1.91,-3.453 v -10.047 m -4.68,6.094 c 0,3 -0.16,3.703 -1,5 -1.25,1.844 -3.5,3.094 -5.71,3.094 -2.29,0 -3.95,-1.641 -3.95,-3.891 0,-2.109 1.05,-3.609 3.25,-4.656 1.55,-0.703 3.5,-1.203 7.41,-1.844 v 2.297"
         id="path138" />
      <path
         class="Lyrics"
         d="m 1449.88,523.131 -9.25,0.563 v 2.141 h 2.45 c 1.85,0.046 2.1,0.359 2.1,2.5 v 27.859 c -0.05,0.75 -0.1,1.047 -0.3,1.297 -0.36,0.453 -1.3,0.656 -3.45,0.703 h -0.35 v 1.797 h 12.94 v -1.797 h -0.34 c -3.35,-0.109 -3.8,-0.359 -3.8,-2.156 v -32.907 m 28.39,20.766 c 0,-3.156 -0.55,-4.75 -2,-5.953 -1.64,-1.359 -4.09,-2 -7.3,-2 -5.64,0 -9.75,2.641 -9.75,6.297 0,1.844 1.16,3.047 2.91,3.047 1.59,0 2.7,-1.047 2.7,-2.547 0,-0.656 -0.25,-1.344 -0.75,-2.047 -0.31,-0.359 -0.36,-0.453 -0.36,-0.703 0,-1 2,-1.906 4.41,-1.906 1.59,0 3.34,0.5 4.14,1.25 0.95,0.812 1.31,2 1.31,4.25 v 1.953 c -5.2,0.906 -6.86,1.297 -9.31,2.25 -4.34,1.609 -6.39,3.906 -6.39,7.109 0,3.594 2.8,5.844 7.25,5.844 3.45,0 6.55,-1.406 8.7,-3.953 0.8,2.547 2.05,3.547 4.39,3.547 2.25,0 4.61,-1.438 4.61,-2.891 0,-0.359 -0.2,-0.609 -0.5,-0.609 -0.2,0 -0.4,0.062 -0.75,0.203 -0.7,0.297 -1,0.359 -1.4,0.359 -1.41,0 -1.91,-0.906 -1.91,-3.453 v -10.047 m -4.69,6.094 c 0,3 -0.15,3.703 -1,5 -1.25,1.844 -3.5,3.094 -5.7,3.094 -2.3,0 -3.95,-1.641 -3.95,-3.891 0,-2.109 1.04,-3.609 3.25,-4.656 1.54,-0.703 3.5,-1.203 7.4,-1.844 v 2.297"
         id="path139" />
      <path
         class="Lyrics"
         d="m 2347.38,536.694 -8.89,0.547 v 2.156 h 2.04 c 1.89,0.047 2.14,0.344 2.14,2.5 v 14.297 c -0.04,0.75 -0.09,1.047 -0.29,1.297 -0.35,0.453 -1.3,0.656 -3.46,0.703 h -0.18 v 1.797 h 12.59 v -1.797 h -0.2 c -3.3,-0.109 -3.75,-0.359 -3.75,-2.203 v -9.25 c 0,-4.453 2.45,-7.75 5.7,-7.75 2.84,0 4.3,2.047 4.3,6.094 v 11.156 c -0.05,0.656 -0.1,1 -0.35,1.25 -0.29,0.453 -1.29,0.656 -3.45,0.703 h -0.2 v 1.797 h 12.65 v -1.797 h -0.2 c -3.3,-0.109 -3.75,-0.359 -3.75,-2.156 v -8.844 c 0,-5 2.25,-8.203 5.75,-8.203 2.86,0 4.25,2.156 4.25,6.656 v 10.547 c -0.05,0.703 -0.09,1.047 -0.34,1.297 -0.3,0.453 -1.3,0.656 -3.46,0.703 h -0.2 v 1.797 h 12.66 v -1.797 h -0.21 c -3.29,-0.109 -3.75,-0.359 -3.75,-2.203 v -11.344 c 0,-3.109 -0.29,-4.156 -1.59,-5.859 -1.45,-1.844 -3.5,-2.844 -5.91,-2.844 -3.25,0 -5.65,1.547 -7.79,5 -0.86,-3 -3.57,-5 -6.91,-5 -3.05,0 -5.25,1.453 -7.2,4.594 v -3.844 m 41.9,-12.453 c -1.61,0 -2.9,1.297 -2.9,2.89 0,1.61 1.29,2.907 2.86,2.907 1.64,0 2.93,-1.297 2.93,-2.907 0,-1.593 -1.29,-2.89 -2.89,-2.89 m 2.35,12.453 -9.39,0.547 v 2.156 h 2.54 c 1.89,0.047 2.14,0.344 2.14,2.5 v 14.297 c -0.04,0.75 -0.09,1.047 -0.29,1.297 -0.35,0.453 -1.3,0.656 -3.46,0.703 h -0.34 v 1.797 h 12.95 v -1.797 h -0.36 c -3.34,-0.109 -3.79,-0.359 -3.79,-2.156 v -19.344"
         id="path141" />
      <path
         class="Lyrics"
         d="m 1342.54,536.147 h -1.75 l -1.45,1.797 c -1.8,-1.406 -3.6,-2 -6.1,-2 -4.4,0 -7.3,2.844 -7.3,7.25 0,4.703 3.05,5.891 7.05,6.844 l 2.64,0.609 c 3.96,0.938 5.36,1.938 5.36,3.938 0,2.359 -2.05,4 -4.95,4 -4.25,0 -7.25,-2.688 -8.45,-7.688 h -2 v 9.438 h 1.75 l 1.75,-2.047 c 2.04,1.656 4.29,2.453 6.85,2.453 4.9,0 8.15,-3.047 8.15,-7.703 0,-2.203 -0.71,-3.891 -2.1,-5.047 -1.2,-1.047 -2.2,-1.453 -5.25,-2.094 l -2.5,-0.562 c -2.75,-0.594 -2.75,-0.594 -3.65,-1.094 -1.1,-0.5 -1.75,-1.547 -1.75,-2.656 0,-2.047 1.9,-3.438 4.65,-3.438 4.1,0 6.1,2.891 7.3,6.391 h 1.75 v -8.391 m 16.09,-0.203 c -6.14,0 -10.89,5.453 -10.89,12.453 0,6.844 4.8,12.344 10.8,12.344 6,0 10.8,-5.5 10.8,-12.406 0,-6.844 -4.8,-12.391 -10.71,-12.391 m 0,2.141 c 3.5,0 5.46,3.656 5.46,10.25 0,6.656 -1.96,10.25 -5.55,10.25 -3.6,0 -5.55,-3.594 -5.55,-10.188 0,-6.812 1.89,-10.312 5.64,-10.312 m 22.61,-14.954 -9.25,0.563 v 2.141 h 2.45 c 1.85,0.046 2.1,0.359 2.1,2.5 v 27.859 c -0.05,0.75 -0.1,1.047 -0.3,1.297 -0.36,0.453 -1.3,0.656 -3.45,0.703 h -0.35 v 1.797 h 12.94 v -1.797 h -0.34 c -3.35,-0.109 -3.8,-0.359 -3.8,-2.156 v -32.907"
         id="path144" />
      <path
         class="Tempo"
         d="m 473.073,249.17 h -3.266 v 42.266 c -1.094,-0.687 -2.484,-1.094 -4.062,-1.281 -3.563,0 -6.438,0.39 -9.61,2.172 -3.953,2.078 -8.312,6.437 -8.312,11.281 0,4.75 4.265,7.031 8.609,7.031 6.938,0 16.641,-5.937 16.641,-13.469 v -48"
         id="path145" />
      <path
         class="Tempo"
         d="m 494.807,287.124 h 30.234 v -6.907 h -30.234 v 6.907 m 0,12.359 h 30.234 v -6.906 h -30.234 v 6.906 m 72.078,-14.219 c 0,5.688 -0.234,17.453 -8.281,17.453 -1.266,0 -1.984,-0.422 -1.984,-1.203 0,-0.359 0.125,-0.719 0.359,-1.078 1.078,-1.734 1.203,-2.094 1.203,-3.422 0,-2.875 -2.031,-4.859 -5.031,-4.859 -3.313,0 -5.703,2.531 -5.703,6 0,4.687 4.375,7.687 11.156,7.687 13.625,0 18.844,-12.125 18.844,-24 0,-5.515 -1.203,-9.609 -3.719,-13.015 -3.063,-4.094 -7.438,-6.313 -12.484,-6.313 -8.704,0 -15,6.063 -15,14.406 0,7.079 5.046,12.297 11.875,12.297 3.718,0 6.25,-1.14 8.765,-3.953 m -5.156,-19.625 c 4.375,0 4.922,7.375 4.922,10.438 0,5.281 -1.922,8.64 -4.985,8.64 -4.75,0 -5.046,-5.75 -5.046,-9.172 0,-6.546 1.75,-9.906 5.109,-9.906 m 34.234,-3.125 c -9,0 -15.593,9.188 -15.593,21.672 0,12.469 6.593,21.656 15.593,21.656 8.813,0 15.547,-9.187 15.547,-21.359 0,-7.078 -1.625,-12.297 -5.172,-16.75 -2.812,-3.406 -6.359,-5.219 -10.375,-5.219 m -0.062,3.125 c 1.797,0 3.25,1.078 3.906,3 0.781,1.985 1.25,8.281 1.25,15.719 0,6.187 -0.469,12.656 -1.016,14.703 -0.656,2.391 -2.093,3.656 -4.14,3.656 -1.86,0 -3.235,-1.015 -3.953,-3 -0.782,-1.984 -1.266,-8.343 -1.266,-15.531 0,-6.312 0.484,-12.844 1.016,-14.891 0.672,-2.39 2.109,-3.656 4.203,-3.656"
         id="path146" />
      <path
         class="StaffText"
         d="m 566.034,323.945 h -1.891 l -1.953,3 c -3.25,-2.546 -5.453,-3.406 -9.11,-3.406 -3.953,0 -7.046,1.11 -10.203,3.656 -4.937,4 -7.25,9.047 -7.25,15.797 0,5.11 1.453,9.36 4.407,12.61 3.093,3.5 7.703,5.547 12.5,5.547 4.203,0 7.156,-1.297 10.406,-4.547 l 1.844,4.5 h 2.109 v -11 c 0,-2.547 0,-2.657 0.297,-3.11 0.453,-0.547 1.344,-0.687 4.203,-0.687 h 0.75 v -2.36 h -15.906 v 2.36 h 0.953 c 4.203,0 4.547,0.25 4.547,3.047 0,2.14 -0.344,4.093 -1,5.297 -1.25,2.453 -4.453,4.156 -7.703,4.156 -3.25,0 -6.454,-1.656 -8.157,-4.156 -1.843,-2.797 -2.64,-6.297 -2.64,-11.657 0,-11.14 3.703,-17.093 10.64,-17.093 5.703,0 9.657,4.093 11.703,12.093 h 2.157 l -0.703,-14.047"
         id="path147" />
      <path
         class="StaffText"
         d="m 689.141,318.402 h -2.11 l -11.5,29.14 c -1.343,3.907 -2.64,5.11 -5.5,5.313 h -0.203 v 2.344 h 13.25 v -2.344 h -1 c -2.687,0 -4.047,-0.953 -4.047,-2.86 0,-0.64 0.157,-1.25 0.453,-2.093 l 1.657,-4.407 h 13.25 l 2.703,6.704 c 0.297,0.796 0.39,1.093 0.39,1.343 0,0.813 -1.25,1.313 -3.093,1.313 h -2.11 v 2.344 h 15.5 v -2.344 h -0.687 c -2.61,-0.063 -3.063,-0.36 -4.203,-3.203 l -12.75,-31.25 m -2.453,8.187 5.64,14.203 h -11.187 l 5.547,-14.203"
         id="path148" />
      <path
         class="StaffText"
         d="m 796.731,324.945 h -1.89 l -1.953,3 c -3.25,-2.546 -5.453,-3.406 -9.11,-3.406 -3.953,0 -7.047,1.11 -10.203,3.656 -4.937,4 -7.25,9.047 -7.25,15.797 0,5.11 1.453,9.36 4.406,12.61 3.094,3.5 7.704,5.547 12.5,5.547 4.204,0 7.157,-1.297 10.407,-4.547 l 1.843,4.5 h 2.11 v -11 c 0,-2.547 0,-2.657 0.297,-3.11 0.453,-0.547 1.343,-0.687 4.203,-0.687 h 0.75 v -2.36 h -15.906 v 2.36 h 0.953 c 4.203,0 4.547,0.25 4.547,3.047 0,2.14 -0.344,4.093 -1,5.297 -1.25,2.453 -4.454,4.156 -7.704,4.156 -3.25,0 -6.453,-1.656 -8.156,-4.156 -1.844,-2.797 -2.64,-6.297 -2.64,-11.657 0,-11.14 3.703,-17.093 10.64,-17.093 5.703,0 9.656,4.093 11.703,12.093 h 2.157 l -0.704,-14.047"
         id="path149" />
      <path
         class="StaffText"
         d="m 1878.2,323.945 h -1.89 l -1.95,3 c -3.25,-2.546 -5.46,-3.406 -9.11,-3.406 -3.95,0 -7.05,1.11 -10.2,3.656 -4.94,4 -7.25,9.047 -7.25,15.797 0,5.11 1.45,9.36 4.4,12.61 3.1,3.5 7.7,5.547 12.5,5.547 4.2,0 7.16,-1.297 10.41,-4.547 l 1.84,4.5 h 2.11 v -11 c 0,-2.547 0,-2.657 0.3,-3.11 0.45,-0.547 1.34,-0.687 4.2,-0.687 h 0.75 v -2.36 h -15.91 v 2.36 h 0.96 c 4.2,0 4.54,0.25 4.54,3.047 0,2.14 -0.34,4.093 -1,5.297 -1.25,2.453 -4.45,4.156 -7.7,4.156 -3.25,0 -6.45,-1.656 -8.15,-4.156 -1.85,-2.797 -2.65,-6.297 -2.65,-11.657 0,-11.14 3.71,-17.093 10.65,-17.093 5.7,0 9.65,4.093 11.7,12.093 h 2.15 l -0.7,-14.047"
         id="path150" />
      <path
         class="StaffText"
         d="m 2524.48,361.399 h 16.8 c 4.45,0 7.86,-0.704 10.5,-2.204 5.05,-2.843 7.86,-8.546 7.86,-16.046 0,-6.907 -2.5,-12.297 -7.11,-15.297 -2.75,-1.75 -6.45,-2.563 -12.16,-2.563 h -15.89 v 2.36 h 0.96 c 2.79,0.046 3.75,0.203 4.14,0.703 0.29,0.437 0.29,0.547 0.29,3.093 v 23.797 c 0,2.563 0,2.657 -0.29,3.11 -0.39,0.5 -1.35,0.64 -4.14,0.703 h -0.96 v 2.344 m 13.85,-2.344 c -2.55,0 -2.85,-0.313 -2.85,-2.75 v -25.86 c 0,-2.453 0.35,-2.796 2.85,-2.796 h 2.61 c 8.54,0 12.09,4.64 12.09,15.703 0,11.203 -3.2,15.703 -11.3,15.703 h -3.4"
         id="path151" />
      <path
         class="StaffText"
         d="m 1751.16,361.399 h 16.79 c 4.46,0 7.86,-0.704 10.5,-2.204 5.05,-2.843 7.86,-8.546 7.86,-16.046 0,-6.907 -2.5,-12.297 -7.11,-15.297 -2.75,-1.75 -6.45,-2.563 -12.15,-2.563 h -15.89 v 2.36 h 0.95 c 2.8,0.046 3.75,0.203 4.14,0.703 0.3,0.437 0.3,0.547 0.3,3.093 v 23.797 c 0,2.563 0,2.657 -0.3,3.11 -0.39,0.5 -1.34,0.64 -4.14,0.703 h -0.95 v 2.344 m 13.84,-2.344 c -2.55,0 -2.84,-0.313 -2.84,-2.75 v -25.86 c 0,-2.453 0.34,-2.796 2.84,-2.796 h 2.61 c 8.55,0 12.09,4.64 12.09,15.703 0,11.203 -3.2,15.703 -11.29,15.703 H 1765"
         id="path152" />
      <path
         class="StaffText"
         d="m 2178.58,324.945 h -1.89 l -1.95,3 c -3.25,-2.546 -5.46,-3.406 -9.11,-3.406 -3.96,0 -7.05,1.11 -10.21,3.656 -4.93,4 -7.25,9.047 -7.25,15.797 0,5.11 1.46,9.36 4.41,12.61 3.09,3.5 7.7,5.547 12.5,5.547 4.2,0 7.16,-1.297 10.41,-4.547 l 1.84,4.5 h 2.11 v -11 c 0,-2.547 0,-2.657 0.3,-3.11 0.45,-0.547 1.34,-0.687 4.2,-0.687 h 0.75 v -2.36 h -15.91 v 2.36 h 0.96 c 4.2,0 4.54,0.25 4.54,3.047 0,2.14 -0.34,4.093 -1,5.297 -1.25,2.453 -4.45,4.156 -7.7,4.156 -3.25,0 -6.45,-1.656 -8.16,-4.156 -1.84,-2.797 -2.64,-6.297 -2.64,-11.657 0,-11.14 3.71,-17.093 10.64,-17.093 5.71,0 9.66,4.093 11.71,12.093 h 2.15 l -0.7,-14.047"
         id="path153" />
      <path
         class="StaffText"
         d="m 2651.53,324.945 h -1.89 l -1.96,3 c -3.25,-2.546 -5.45,-3.406 -9.11,-3.406 -3.95,0 -7.04,1.11 -10.2,3.656 -4.94,4 -7.25,9.047 -7.25,15.797 0,5.11 1.45,9.36 4.41,12.61 3.09,3.5 7.7,5.547 12.5,5.547 4.2,0 7.15,-1.297 10.4,-4.547 l 1.85,4.5 h 2.11 v -11 c 0,-2.547 0,-2.657 0.29,-3.11 0.46,-0.547 1.35,-0.687 4.21,-0.687 h 0.75 v -2.36 h -15.91 v 2.36 h 0.95 c 4.21,0 4.55,0.25 4.55,3.047 0,2.14 -0.34,4.093 -1,5.297 -1.25,2.453 -4.45,4.156 -7.7,4.156 -3.25,0 -6.46,-1.656 -8.16,-4.156 -1.84,-2.797 -2.64,-6.297 -2.64,-11.657 0,-11.14 3.7,-17.093 10.64,-17.093 5.7,0 9.66,4.093 11.7,12.093 h 2.16 l -0.7,-14.047"
         id="path154" />
      <path
         class="StaffText"
         d="m 2721.21,324.945 h -1.89 l -1.96,3 c -3.25,-2.546 -5.45,-3.406 -9.11,-3.406 -3.95,0 -7.04,1.11 -10.2,3.656 -4.94,4 -7.25,9.047 -7.25,15.797 0,5.11 1.45,9.36 4.41,12.61 3.09,3.5 7.7,5.547 12.5,5.547 4.2,0 7.15,-1.297 10.4,-4.547 l 1.85,4.5 h 2.11 v -11 c 0,-2.547 0,-2.657 0.29,-3.11 0.46,-0.547 1.35,-0.687 4.21,-0.687 h 0.75 v -2.36 h -15.91 v 2.36 h 0.95 c 4.21,0 4.55,0.25 4.55,3.047 0,2.14 -0.34,4.093 -1,5.297 -1.25,2.453 -4.45,4.156 -7.7,4.156 -3.25,0 -6.46,-1.656 -8.16,-4.156 -1.84,-2.797 -2.64,-6.297 -2.64,-11.657 0,-11.14 3.7,-17.093 10.64,-17.093 5.7,0 9.66,4.093 11.7,12.093 h 2.16 l -0.7,-14.047"
         id="path155" />
      <path
         class="StaffText"
         d="m 1675.07,324.945 h -1.89 l -1.96,3 c -3.25,-2.546 -5.45,-3.406 -9.1,-3.406 -3.96,0 -7.05,1.11 -10.21,3.656 -4.94,4 -7.25,9.047 -7.25,15.797 0,5.11 1.46,9.36 4.41,12.61 3.09,3.5 7.7,5.547 12.5,5.547 4.2,0 7.15,-1.297 10.4,-4.547 l 1.85,4.5 h 2.11 v -11 c 0,-2.547 0,-2.657 0.29,-3.11 0.46,-0.547 1.35,-0.687 4.21,-0.687 h 0.75 v -2.36 h -15.91 v 2.36 h 0.95 c 4.21,0 4.55,0.25 4.55,3.047 0,2.14 -0.34,4.093 -1,5.297 -1.25,2.453 -4.45,4.156 -7.7,4.156 -3.25,0 -6.45,-1.656 -8.16,-4.156 -1.84,-2.797 -2.64,-6.297 -2.64,-11.657 0,-11.14 3.7,-17.093 10.64,-17.093 5.71,0 9.66,4.093 11.71,12.093 h 2.15 l -0.7,-14.047"
         id="path156" />
      <path
         class="StaffText"
         d="m 1605.39,324.945 h -1.89 l -1.96,3 c -3.25,-2.546 -5.45,-3.406 -9.1,-3.406 -3.96,0 -7.05,1.11 -10.21,3.656 -4.94,4 -7.25,9.047 -7.25,15.797 0,5.11 1.46,9.36 4.41,12.61 3.09,3.5 7.7,5.547 12.5,5.547 4.2,0 7.15,-1.297 10.4,-4.547 l 1.85,4.5 h 2.11 v -11 c 0,-2.547 0,-2.657 0.29,-3.11 0.46,-0.547 1.35,-0.687 4.21,-0.687 h 0.75 v -2.36 h -15.91 v 2.36 h 0.95 c 4.21,0 4.55,0.25 4.55,3.047 0,2.14 -0.34,4.093 -1,5.297 -1.25,2.453 -4.45,4.156 -7.7,4.156 -3.25,0 -6.45,-1.656 -8.16,-4.156 -1.84,-2.797 -2.64,-6.297 -2.64,-11.657 0,-11.14 3.7,-17.093 10.64,-17.093 5.71,0 9.66,4.093 11.71,12.093 h 2.15 l -0.7,-14.047"
         id="path157" />
      <path
         class="StaffText"
         d="m 1530.13,324.602 h -2.11 l -11.5,29.14 c -1.34,3.907 -2.64,5.11 -5.5,5.313 h -0.2 v 2.344 h 13.25 v -2.344 h -1 c -2.69,0 -4.05,-0.953 -4.05,-2.86 0,-0.64 0.16,-1.25 0.45,-2.093 l 1.66,-4.407 h 13.25 l 2.7,6.704 c 0.3,0.796 0.39,1.093 0.39,1.343 0,0.813 -1.25,1.313 -3.09,1.313 h -2.11 v 2.344 h 15.5 v -2.344 h -0.69 c -2.61,-0.063 -3.06,-0.36 -4.2,-3.203 l -12.75,-31.25 m -2.45,8.187 5.64,14.203 h -11.19 l 5.55,-14.203"
         id="path161" />
      <path
         class="StaffText"
         d="m 1465.47,324.602 h -2.11 l -11.5,29.14 c -1.35,3.907 -2.64,5.11 -5.5,5.313 h -0.21 v 2.344 h 13.25 v -2.344 h -1 c -2.68,0 -4.04,-0.953 -4.04,-2.86 0,-0.64 0.15,-1.25 0.45,-2.093 l 1.66,-4.407 h 13.25 l 2.7,6.704 c 0.3,0.796 0.39,1.093 0.39,1.343 0,0.813 -1.25,1.313 -3.09,1.313 h -2.11 v 2.344 h 15.5 v -2.344 h -0.69 c -2.61,-0.063 -3.06,-0.36 -4.2,-3.203 l -12.75,-31.25 m -2.46,8.187 5.64,14.203 h -11.18 l 5.54,-14.203"
         id="path162" />
      <path
         class="StaffText"
         d="m 1369.92,324.945 h -1.89 l -1.95,3 c -3.25,-2.546 -5.45,-3.406 -9.11,-3.406 -3.95,0 -7.05,1.11 -10.2,3.656 -4.94,4 -7.25,9.047 -7.25,15.797 0,5.11 1.45,9.36 4.4,12.61 3.1,3.5 7.71,5.547 12.5,5.547 4.21,0 7.16,-1.297 10.41,-4.547 l 1.84,4.5 h 2.11 v -11 c 0,-2.547 0,-2.657 0.3,-3.11 0.45,-0.547 1.34,-0.687 4.2,-0.687 h 0.75 v -2.36 h -15.9 v 2.36 h 0.95 c 4.2,0 4.55,0.25 4.55,3.047 0,2.14 -0.35,4.093 -1,5.297 -1.25,2.453 -4.46,4.156 -7.71,4.156 -3.25,0 -6.45,-1.656 -8.15,-4.156 -1.85,-2.797 -2.64,-6.297 -2.64,-11.657 0,-11.14 3.7,-17.093 10.64,-17.093 5.7,0 9.65,4.093 11.7,12.093 h 2.16 l -0.71,-14.047"
         id="path166" />
      <path
         class="StaffText"
         d="m 2284.42,325.289 h -29.75 v 2.36 h 0.89 c 2.86,0.046 3.81,0.203 4.2,0.703 0.3,0.437 0.3,0.547 0.3,3.093 v 23.797 c 0,2.563 0,2.657 -0.3,3.11 -0.39,0.5 -1.34,0.703 -4.2,0.703 h -0.89 v 2.344 h 17.14 v -2.344 h -1.64 c -2.86,0 -3.8,-0.203 -4.2,-0.703 -0.3,-0.453 -0.3,-0.61 -0.3,-3.11 v -11.343 h 1 c 5.14,-0.204 7,1.656 7.2,7.203 h 2.35 v -16.407 h -2.35 c -0.31,4.907 -2.25,6.797 -7,6.86 h -1.2 v -11.406 c -0.05,-2.11 0.45,-2.454 3.14,-2.5 h 2.31 c 8.21,-0.047 10.25,1.796 11.8,10.406 h 2.2 l -0.7,-12.766"
         id="path167" />
      <path
         class="StaffText"
         d="m 2381.71,325.289 h -30.04 v 2.36 h 0.89 c 2.86,0.046 3.81,0.203 4.2,0.703 0.3,0.437 0.3,0.547 0.3,3.093 v 23.797 c 0,2.563 0,2.657 -0.3,3.11 -0.39,0.5 -1.34,0.703 -4.2,0.703 h -0.89 v 2.344 h 30.7 l 1,-13.344 h -2.2 c -1.91,8.89 -3.96,10.797 -11.61,11 h -3.3 c -3,-0.11 -3.75,-0.61 -3.59,-2.406 v -12.75 h 1 c 5.14,-0.204 7,1.656 7.2,7.203 h 2.34 v -16.407 h -2.34 c -0.31,4.907 -2.25,6.86 -7,6.86 h -1.2 v -11.406 c -0.05,-2.11 0.45,-2.454 3.14,-2.5 h 2.61 c 8.2,-0.047 10.25,1.75 11.84,10.406 h 2.16 l -0.71,-12.766"
         id="path168" />
      <path
         class="StaffText"
         d="m 1203.25,325.289 h -30.05 v 2.36 h 0.89 c 2.86,0.046 3.81,0.203 4.2,0.703 0.3,0.437 0.3,0.547 0.3,3.093 v 23.797 c 0,2.563 0,2.657 -0.3,3.11 -0.39,0.5 -1.34,0.703 -4.2,0.703 h -0.89 v 2.344 h 30.7 l 1,-13.344 h -2.2 c -1.91,8.89 -3.95,10.797 -11.61,11 h -3.3 c -3,-0.11 -3.75,-0.61 -3.59,-2.406 v -12.75 h 1 c 5.14,-0.204 7,1.656 7.2,7.203 h 2.35 v -16.407 h -2.35 c -0.31,4.907 -2.25,6.86 -7,6.86 h -1.2 v -11.406 c -0.05,-2.11 0.45,-2.454 3.14,-2.5 h 2.61 c 8.2,-0.047 10.25,1.75 11.84,10.406 h 2.16 l -0.7,-12.766"
         id="path170" />
      <path
         class="StaffText"
         d="m 2448.39,325.289 h -30.04 v 2.36 h 0.89 c 2.86,0.046 3.81,0.203 4.2,0.703 0.3,0.437 0.3,0.547 0.3,3.093 v 23.797 c 0,2.563 0,2.657 -0.3,3.11 -0.39,0.5 -1.34,0.703 -4.2,0.703 h -0.89 v 2.344 h 30.7 l 1,-13.344 h -2.2 c -1.91,8.89 -3.96,10.797 -11.61,11 h -3.3 c -3,-0.11 -3.75,-0.61 -3.59,-2.406 v -12.75 h 1 c 5.14,-0.204 7,1.656 7.2,7.203 h 2.34 v -16.407 h -2.34 c -0.31,4.907 -2.25,6.86 -7,6.86 h -1.2 v -11.406 c -0.05,-2.11 0.45,-2.454 3.14,-2.5 h 2.61 c 8.2,-0.047 10.25,1.75 11.84,10.406 h 2.16 l -0.71,-12.766"
         id="path171" />
      <path
         class="StaffText"
         d="m 1069.54,323.945 h -1.89 l -1.95,3 c -3.25,-2.546 -5.45,-3.406 -9.11,-3.406 -3.95,0 -7.05,1.11 -10.2,3.656 -4.94,4 -7.25,9.047 -7.25,15.797 0,5.11 1.45,9.36 4.4,12.61 3.1,3.5 7.71,5.547 12.5,5.547 4.21,0 7.16,-1.297 10.41,-4.547 l 1.84,4.5 h 2.11 v -11 c 0,-2.547 0,-2.657 0.3,-3.11 0.45,-0.547 1.34,-0.687 4.2,-0.687 h 0.75 v -2.36 h -15.9 v 2.36 h 0.95 c 4.2,0 4.55,0.25 4.55,3.047 0,2.14 -0.35,4.093 -1,5.297 -1.25,2.453 -4.46,4.156 -7.71,4.156 -3.25,0 -6.45,-1.656 -8.15,-4.156 -1.85,-2.797 -2.64,-6.297 -2.64,-11.657 0,-11.14 3.7,-17.093 10.64,-17.093 5.7,0 9.65,4.093 11.7,12.093 h 2.16 l -0.71,-14.047"
         id="path175" />
      <path
         class="StaffText"
         d="m 2108.9,324.945 h -1.89 l -1.95,3 c -3.25,-2.546 -5.46,-3.406 -9.11,-3.406 -3.96,0 -7.05,1.11 -10.21,3.656 -4.93,4 -7.25,9.047 -7.25,15.797 0,5.11 1.46,9.36 4.41,12.61 3.09,3.5 7.7,5.547 12.5,5.547 4.2,0 7.16,-1.297 10.41,-4.547 l 1.84,4.5 h 2.11 v -11 c 0,-2.547 0,-2.657 0.3,-3.11 0.45,-0.547 1.34,-0.687 4.2,-0.687 h 0.75 v -2.36 h -15.91 v 2.36 h 0.96 c 4.2,0 4.54,0.25 4.54,3.047 0,2.14 -0.34,4.093 -1,5.297 -1.25,2.453 -4.45,4.156 -7.7,4.156 -3.25,0 -6.45,-1.656 -8.16,-4.156 -1.84,-2.797 -2.64,-6.297 -2.64,-11.657 0,-11.14 3.71,-17.093 10.64,-17.093 5.71,0 9.66,4.093 11.71,12.093 h 2.15 l -0.7,-14.047"
         id="path176" />
      <path
         class="StaffText"
         d="m 942.501,361.399 h 16.797 c 4.453,0 7.859,-0.704 10.5,-2.204 5.047,-2.843 7.859,-8.546 7.859,-16.046 0,-6.907 -2.5,-12.297 -7.109,-15.297 -2.75,-1.75 -6.453,-2.563 -12.156,-2.563 h -15.891 v 2.36 h 0.953 c 2.797,0.046 3.75,0.203 4.141,0.703 0.297,0.437 0.297,0.547 0.297,3.093 v 23.797 c 0,2.563 0,2.657 -0.297,3.11 -0.391,0.5 -1.344,0.64 -4.141,0.703 h -0.953 v 2.344 m 13.844,-2.344 c -2.547,0 -2.844,-0.313 -2.844,-2.75 v -25.86 c 0,-2.453 0.344,-2.796 2.844,-2.796 h 2.609 c 8.547,0 12.094,4.64 12.094,15.703 0,11.203 -3.203,15.703 -11.297,15.703 h -3.406"
         id="path177" />
      <path
         class="StaffText"
         d="m 866.411,324.945 h -1.89 l -1.953,3 c -3.25,-2.546 -5.453,-3.406 -9.11,-3.406 -3.953,0 -7.047,1.11 -10.203,3.656 -4.937,4 -7.25,9.047 -7.25,15.797 0,5.11 1.453,9.36 4.406,12.61 3.094,3.5 7.704,5.547 12.5,5.547 4.204,0 7.157,-1.297 10.407,-4.547 l 1.843,4.5 h 2.11 v -11 c 0,-2.547 0,-2.657 0.297,-3.11 0.453,-0.547 1.343,-0.687 4.203,-0.687 h 0.75 v -2.36 h -15.906 v 2.36 h 0.953 c 4.203,0 4.547,0.25 4.547,3.047 0,2.14 -0.344,4.093 -1,5.297 -1.25,2.453 -4.454,4.156 -7.704,4.156 -3.25,0 -6.453,-1.656 -8.156,-4.156 -1.844,-2.797 -2.64,-6.297 -2.64,-11.657 0,-11.14 3.703,-17.093 10.64,-17.093 5.703,0 9.656,4.093 11.703,12.093 h 2.157 l -0.704,-14.047"
         id="path178" />
      <path
         class="StaffText"
         d="m 1300.24,324.945 h -1.89 l -1.95,3 c -3.25,-2.546 -5.45,-3.406 -9.11,-3.406 -3.95,0 -7.05,1.11 -10.2,3.656 -4.94,4 -7.25,9.047 -7.25,15.797 0,5.11 1.45,9.36 4.4,12.61 3.1,3.5 7.71,5.547 12.5,5.547 4.21,0 7.16,-1.297 10.41,-4.547 l 1.84,4.5 h 2.11 v -11 c 0,-2.547 0,-2.657 0.3,-3.11 0.45,-0.547 1.34,-0.687 4.2,-0.687 h 0.75 v -2.36 h -15.9 v 2.36 h 0.95 c 4.2,0 4.55,0.25 4.55,3.047 0,2.14 -0.35,4.093 -1,5.297 -1.25,2.453 -4.46,4.156 -7.71,4.156 -3.25,0 -6.45,-1.656 -8.15,-4.156 -1.85,-2.797 -2.64,-6.297 -2.64,-11.657 0,-11.14 3.7,-17.093 10.64,-17.093 5.7,0 9.65,4.093 11.7,12.093 h 2.16 l -0.71,-14.047"
         id="path179" />
      <path
         class="StaffText"
         d="m 2011.9,325.289 h -30.04 v 2.36 h 0.89 c 2.86,0.046 3.81,0.203 4.2,0.703 0.3,0.437 0.3,0.547 0.3,3.093 v 23.797 c 0,2.563 0,2.657 -0.3,3.11 -0.39,0.5 -1.34,0.703 -4.2,0.703 h -0.89 v 2.344 h 30.7 l 1,-13.344 h -2.2 c -1.91,8.89 -3.96,10.797 -11.61,11 h -3.3 c -3,-0.11 -3.75,-0.61 -3.59,-2.406 v -12.75 h 1 c 5.14,-0.204 7,1.656 7.2,7.203 h 2.34 v -16.407 h -2.34 c -0.31,4.907 -2.25,6.86 -7,6.86 h -1.2 v -11.406 c -0.05,-2.11 0.45,-2.454 3.14,-2.5 h 2.61 c 8.2,-0.047 10.25,1.75 11.84,10.406 h 2.16 l -0.71,-12.766"
         id="path181" />
    </g>
  </g>
  <metadata
     id="metadata183">
    <rdf:RDF>
      <cc:Work
         rdf:about="">
        <dc:title>38</dc:title>
      </cc:Work>
    </rdf:RDF>
  </metadata>
</svg>
