<?xml version="1.0" encoding="UTF-8" standalone="no"?>
<svg
   width="2555"
   height="400"
   viewBox="0 0 2555 400.00001"
   version="1.2"
   id="svg138"
   sodipodi:docname="40-1.svg"
   inkscape:version="1.3 (0e150ed6c4, 2023-07-21)"
   xmlns:inkscape="http://www.inkscape.org/namespaces/inkscape"
   xmlns:sodipodi="http://sodipodi.sourceforge.net/DTD/sodipodi-0.dtd"
   xmlns="http://www.w3.org/2000/svg"
   xmlns:svg="http://www.w3.org/2000/svg"
   xmlns:rdf="http://www.w3.org/1999/02/22-rdf-syntax-ns#"
   xmlns:cc="http://creativecommons.org/ns#"
   xmlns:dc="http://purl.org/dc/elements/1.1/">
  <defs
     id="defs138" />
  <sodipodi:namedview
     id="namedview138"
     pagecolor="#505050"
     bordercolor="#ffffff"
     borderopacity="1"
     inkscape:showpageshadow="0"
     inkscape:pageopacity="0"
     inkscape:pagecheckerboard="1"
     inkscape:deskcolor="#505050"
     inkscape:zoom="0.18605646"
     inkscape:cx="1486.108"
     inkscape:cy="2104.2"
     inkscape:window-width="1680"
     inkscape:window-height="979"
     inkscape:window-x="1358"
     inkscape:window-y="-8"
     inkscape:window-maximized="1"
     inkscape:current-layer="svg138" />
  <title
     id="title1">40</title>
  <desc
     id="desc1">Generated by MuseScore Studio 4.3.0</desc>
  <g
     id="g138"
     transform="translate(-209.6,-217.66)">
    <polyline
       class="StaffLines"
       fill="none"
       stroke="#000000"
       stroke-width="2.73"
       stroke-linejoin="bevel"
       points="336.599,386.199 2764.6,386.199"
       id="polyline1" />
    <polyline
       class="StaffLines"
       fill="none"
       stroke="#000000"
       stroke-width="2.73"
       stroke-linejoin="bevel"
       points="336.599,410.999 2764.6,410.999"
       id="polyline2" />
    <polyline
       class="StaffLines"
       fill="none"
       stroke="#000000"
       stroke-width="2.73"
       stroke-linejoin="bevel"
       points="336.599,435.799 2764.6,435.799"
       id="polyline3" />
    <polyline
       class="StaffLines"
       fill="none"
       stroke="#000000"
       stroke-width="2.73"
       stroke-linejoin="bevel"
       points="336.599,460.599 2764.6,460.599"
       id="polyline4" />
    <polyline
       class="StaffLines"
       fill="none"
       stroke="#000000"
       stroke-width="2.73"
       stroke-linejoin="bevel"
       points="336.599,485.399 2764.6,485.399"
       id="polyline5" />
    <polyline
       class="BarLine"
       fill="none"
       stroke="#000000"
       stroke-width="4.46"
       stroke-linejoin="bevel"
       points="964.999,384.835 964.999,486.763"
       id="polyline6" />
    <polyline
       class="BarLine"
       fill="none"
       stroke="#000000"
       stroke-width="4.46"
       stroke-linejoin="bevel"
       points="1786.74,384.835 1786.74,486.763"
       id="polyline7" />
    <polyline
       class="BarLine"
       fill="none"
       stroke="#000000"
       stroke-width="4.46"
       stroke-linejoin="bevel"
       points="2050.16,384.835 2050.16,486.763"
       id="polyline8" />
    <polyline
       class="BarLine"
       fill="none"
       stroke="#000000"
       stroke-width="4.46"
       stroke-linejoin="bevel"
       points="2608.48,384.835 2608.48,486.763"
       id="polyline9" />
    <polyline
       class="BarLine"
       fill="none"
       stroke="#000000"
       stroke-width="4.46"
       stroke-linejoin="bevel"
       points="2313.59,384.835 2313.59,486.763"
       id="polyline10" />
    <polyline
       class="BarLine"
       fill="none"
       stroke="#000000"
       stroke-width="4.46"
       stroke-linejoin="bevel"
       points="2739.55,384.835 2739.55,486.763"
       id="polyline11" />
    <polyline
       class="BarLine"
       fill="none"
       stroke="#000000"
       stroke-width="13.64"
       stroke-linejoin="bevel"
       points="2757.78,384.835 2757.78,486.763"
       id="polyline12" />
    <polyline
       class="BarLine"
       fill="none"
       stroke="#000000"
       stroke-width="4.46"
       stroke-linejoin="bevel"
       points="1523.31,384.835 1523.31,486.763"
       id="polyline13" />
    <polyline
       class="BarLine"
       fill="none"
       stroke="#000000"
       stroke-width="4.46"
       stroke-linejoin="bevel"
       points="1228.43,384.835 1228.43,486.763"
       id="polyline14" />
    <polyline
       class="BarLine"
       fill="none"
       stroke="#000000"
       stroke-width="4.46"
       stroke-linejoin="bevel"
       points="670.114,384.835 670.114,486.763"
       id="polyline15" />
    <polyline
       class="Stem"
       fill="none"
       stroke="#000000"
       stroke-width="2.48"
       stroke-linejoin="bevel"
       points="1716.31,427.565 1716.31,510.316"
       id="polyline16" />
    <polyline
       class="Stem"
       fill="none"
       stroke="#000000"
       stroke-width="2.48"
       stroke-linejoin="bevel"
       points="1264.14,439.965 1264.14,503.881"
       id="polyline17" />
    <polyline
       class="Stem"
       fill="none"
       stroke="#000000"
       stroke-width="2.48"
       stroke-linejoin="bevel"
       points="1559.02,427.565 1559.02,503.999"
       id="polyline18" />
    <polyline
       class="Stem"
       fill="none"
       stroke="#000000"
       stroke-width="2.48"
       stroke-linejoin="bevel"
       points="566.526,456.631 566.526,386.081"
       id="polyline19" />
    <polyline
       class="Stem"
       fill="none"
       stroke="#000000"
       stroke-width="2.48"
       stroke-linejoin="bevel"
       points="1327.05,427.565 1327.05,497.916"
       id="polyline20" />
    <polyline
       class="Stem"
       fill="none"
       stroke="#000000"
       stroke-width="2.48"
       stroke-linejoin="bevel"
       points="2115.63,456.631 2115.63,373.799"
       id="polyline21" />
    <polyline
       class="Stem"
       fill="none"
       stroke="#000000"
       stroke-width="2.48"
       stroke-linejoin="bevel"
       points="2210,456.631 2210,386.081"
       id="polyline22" />
    <polyline
       class="Stem"
       fill="none"
       stroke="#000000"
       stroke-width="2.48"
       stroke-linejoin="bevel"
       points="1979.74,427.565 1979.74,510.316"
       id="polyline23" />
    <polyline
       class="Stem"
       fill="none"
       stroke="#000000"
       stroke-width="2.48"
       stroke-linejoin="bevel"
       points="2475.14,415.165 2475.14,497.916"
       id="polyline24" />
    <polyline
       class="Stem"
       fill="none"
       stroke="#000000"
       stroke-width="2.48"
       stroke-linejoin="bevel"
       points="629.442,444.231 629.442,380.116"
       id="polyline25" />
    <polyline
       class="Stem"
       fill="none"
       stroke="#000000"
       stroke-width="2.48"
       stroke-linejoin="bevel"
       points="2272.92,444.231 2272.92,380.116"
       id="polyline26" />
    <polyline
       class="Stem"
       fill="none"
       stroke="#000000"
       stroke-width="2.48"
       stroke-linejoin="bevel"
       points="1389.97,415.165 1389.97,497.916"
       id="polyline27" />
    <polyline
       class="Stem"
       fill="none"
       stroke="#000000"
       stroke-width="2.48"
       stroke-linejoin="bevel"
       points="2349.3,439.965 2349.3,503.881"
       id="polyline28" />
    <polyline
       class="Stem"
       fill="none"
       stroke="#000000"
       stroke-width="2.48"
       stroke-linejoin="bevel"
       points="705.826,439.965 705.826,503.881"
       id="polyline29" />
    <polyline
       class="Stem"
       fill="none"
       stroke="#000000"
       stroke-width="2.48"
       stroke-linejoin="bevel"
       points="2538.05,439.965 2538.05,503.881"
       id="polyline30" />
    <polyline
       class="Stem"
       fill="none"
       stroke="#000000"
       stroke-width="2.48"
       stroke-linejoin="bevel"
       points="2644.19,427.565 2644.19,503.999"
       id="polyline31" />
    <polyline
       class="Stem"
       fill="none"
       stroke="#000000"
       stroke-width="2.48"
       stroke-linejoin="bevel"
       points="1916.82,452.365 1916.82,516.281"
       id="polyline32" />
    <polyline
       class="Stem"
       fill="none"
       stroke="#000000"
       stroke-width="2.48"
       stroke-linejoin="bevel"
       points="768.742,427.565 768.742,497.916"
       id="polyline33" />
    <polyline
       class="Stem"
       fill="none"
       stroke="#000000"
       stroke-width="2.48"
       stroke-linejoin="bevel"
       points="831.658,415.165 831.658,497.916"
       id="polyline34" />
    <polyline
       class="Stem"
       fill="none"
       stroke="#000000"
       stroke-width="2.48"
       stroke-linejoin="bevel"
       points="1852.2,456.631 1852.2,373.799"
       id="polyline35" />
    <polyline
       class="Stem"
       fill="none"
       stroke="#000000"
       stroke-width="2.48"
       stroke-linejoin="bevel"
       points="894.575,439.965 894.575,503.881"
       id="polyline36" />
    <polyline
       class="Stem"
       fill="none"
       stroke="#000000"
       stroke-width="2.48"
       stroke-linejoin="bevel"
       points="1653.4,452.365 1653.4,516.281"
       id="polyline37" />
    <polyline
       class="Stem"
       fill="none"
       stroke="#000000"
       stroke-width="2.48"
       stroke-linejoin="bevel"
       points="1000.71,427.565 1000.71,503.999"
       id="polyline38" />
    <polyline
       class="Stem"
       fill="none"
       stroke="#000000"
       stroke-width="2.48"
       stroke-linejoin="bevel"
       points="1452.89,439.965 1452.89,503.881"
       id="polyline39" />
    <polyline
       class="Stem"
       fill="none"
       stroke="#000000"
       stroke-width="2.48"
       stroke-linejoin="bevel"
       points="1124.84,456.631 1124.84,386.081"
       id="polyline40" />
    <polyline
       class="Stem"
       fill="none"
       stroke="#000000"
       stroke-width="2.48"
       stroke-linejoin="bevel"
       points="2412.22,427.565 2412.22,497.916"
       id="polyline41" />
    <polyline
       class="Stem"
       fill="none"
       stroke="#000000"
       stroke-width="2.48"
       stroke-linejoin="bevel"
       points="1187.75,444.231 1187.75,380.116"
       id="polyline42" />
    <path
       class="Note"
       transform="matrix(0.992001,0,0,0.992001,2179.01,460.599)"
       d="M 0,4.20313 C 0,8.5 3.09375,13.2969 11.2031,13.2969 21.5938,13.2969 32.5,4.79688 32.5,-4 c 0,-5.90625 -5,-9.2031 -11.2031,-9.2031 C 11.5938,-13.2031 0,-5 0,4.20313"
       id="path42" />
    <path
       class="Note"
       transform="matrix(0.992001,0,0,0.992001,1821.21,460.599)"
       d="M 0,4.20313 C 0,8.5 3.09375,13.2969 11.2031,13.2969 21.5938,13.2969 32.5,4.79688 32.5,-4 c 0,-5.90625 -5,-9.2031 -11.2031,-9.2031 C 11.5938,-13.2031 0,-5 0,4.20313"
       id="path43" />
    <path
       class="Note"
       transform="matrix(0.992001,0,0,0.992001,830.418,410.999)"
       d="M 0,4.20313 C 0,8.5 3.09375,13.2969 11.2031,13.2969 21.5938,13.2969 32.5,4.79688 32.5,-4 c 0,-5.90625 -5,-9.2031 -11.2031,-9.2031 C 11.5938,-13.2031 0,-5 0,4.20313"
       id="path44" />
    <path
       class="Note"
       transform="matrix(0.992001,0,0,0.992001,535.534,460.599)"
       d="M 0,4.20313 C 0,8.5 3.09375,13.2969 11.2031,13.2969 21.5938,13.2969 32.5,4.79688 32.5,-4 c 0,-5.90625 -5,-9.2031 -11.2031,-9.2031 C 11.5938,-13.2031 0,-5 0,4.20313"
       id="path45" />
    <path
       class="Note"
       transform="matrix(0.992001,0,0,0.992001,2241.93,448.199)"
       d="M 0,4.20313 C 0,8.5 3.09375,13.2969 11.2031,13.2969 21.5938,13.2969 32.5,4.79688 32.5,-4 c 0,-5.90625 -5,-9.2031 -11.2031,-9.2031 C 11.5938,-13.2031 0,-5 0,4.20313"
       id="path46" />
    <path
       class="Note"
       transform="matrix(0.992001,0,0,0.992001,1652.16,448.199)"
       d="M 0,4.20313 C 0,8.5 3.09375,13.2969 11.2031,13.2969 21.5938,13.2969 32.5,4.79688 32.5,-4 c 0,-5.90625 -5,-9.2031 -11.2031,-9.2031 C 11.5938,-13.2031 0,-5 0,4.20313"
       id="path47" />
    <path
       class="Note"
       transform="matrix(0.992001,0,0,0.992001,1262.9,435.799)"
       d="M 0,4.20313 C 0,8.5 3.09375,13.2969 11.2031,13.2969 21.5938,13.2969 32.5,4.79688 32.5,-4 c 0,-5.90625 -5,-9.2031 -11.2031,-9.2031 C 11.5938,-13.2031 0,-5 0,4.20313"
       id="path48" />
    <path
       class="Note"
       transform="matrix(0.992001,0,0,0.992001,598.45,448.199)"
       d="M 0,4.20313 C 0,8.5 3.09375,13.2969 11.2031,13.2969 21.5938,13.2969 32.5,4.79688 32.5,-4 c 0,-5.90625 -5,-9.2031 -11.2031,-9.2031 C 11.5938,-13.2031 0,-5 0,4.20313"
       id="path49" />
    <path
       class="Note"
       transform="matrix(0.992001,0,0,0.992001,1915.58,448.199)"
       d="M 0,4.20313 C 0,8.5 3.09375,13.2969 11.2031,13.2969 21.5938,13.2969 32.5,4.79688 32.5,-4 c 0,-5.90625 -5,-9.2031 -11.2031,-9.2031 C 11.5938,-13.2031 0,-5 0,4.20313"
       id="path50" />
    <path
       class="Note"
       transform="matrix(0.992001,0,0,0.992001,1156.76,448.199)"
       d="M 0,4.20313 C 0,8.5 3.09375,13.2969 11.2031,13.2969 21.5938,13.2969 32.5,4.79688 32.5,-4 c 0,-5.90625 -5,-9.2031 -11.2031,-9.2031 C 11.5938,-13.2031 0,-5 0,4.20313"
       id="path51" />
    <path
       class="Note"
       transform="matrix(0.992001,0,0,0.992001,1388.73,410.999)"
       d="M 0,4.20313 C 0,8.5 3.09375,13.2969 11.2031,13.2969 21.5938,13.2969 32.5,4.79688 32.5,-4 c 0,-5.90625 -5,-9.2031 -11.2031,-9.2031 C 11.5938,-13.2031 0,-5 0,4.20313"
       id="path52" />
    <path
       class="Note"
       transform="matrix(0.992001,0,0,0.992001,1715.07,423.399)"
       d="M 0,4.20313 C 0,8.5 3.09375,13.2969 11.2031,13.2969 21.5938,13.2969 32.5,4.79688 32.5,-4 c 0,-5.90625 -5,-9.2031 -11.2031,-9.2031 C 11.5938,-13.2031 0,-5 0,4.20313"
       id="path53" />
    <path
       class="Note"
       transform="matrix(0.992001,0,0,0.992001,1325.81,423.399)"
       d="M 0,4.20313 C 0,8.5 3.09375,13.2969 11.2031,13.2969 21.5938,13.2969 32.5,4.79688 32.5,-4 c 0,-5.90625 -5,-9.2031 -11.2031,-9.2031 C 11.5938,-13.2031 0,-5 0,4.20313"
       id="path54" />
    <path
       class="Note"
       transform="matrix(0.992001,0,0,0.992001,1557.78,423.399)"
       d="M 0,4.20313 C 0,8.5 3.09375,13.2969 11.2031,13.2969 21.5938,13.2969 32.5,4.79688 32.5,-4 c 0,-5.90625 -5,-9.2031 -11.2031,-9.2031 C 11.5938,-13.2031 0,-5 0,4.20313"
       id="path55" />
    <path
       class="Note"
       transform="matrix(0.992001,0,0,0.992001,1978.5,423.399)"
       d="M 0,4.20313 C 0,8.5 3.09375,13.2969 11.2031,13.2969 21.5938,13.2969 32.5,4.79688 32.5,-4 c 0,-5.90625 -5,-9.2031 -11.2031,-9.2031 C 11.5938,-13.2031 0,-5 0,4.20313"
       id="path56" />
    <path
       class="Note"
       transform="matrix(0.992001,0,0,0.992001,704.586,435.799)"
       d="M 0,4.20313 C 0,8.5 3.09375,13.2969 11.2031,13.2969 21.5938,13.2969 32.5,4.79688 32.5,-4 c 0,-5.90625 -5,-9.2031 -11.2031,-9.2031 C 11.5938,-13.2031 0,-5 0,4.20313"
       id="path57" />
    <path
       class="Note"
       transform="matrix(0.992001,0,0,0.992001,893.335,435.799)"
       d="M 0,4.20313 C 0,8.5 3.09375,13.2969 11.2031,13.2969 21.5938,13.2969 32.5,4.79688 32.5,-4 c 0,-5.90625 -5,-9.2031 -11.2031,-9.2031 C 11.5938,-13.2031 0,-5 0,4.20313"
       id="path58" />
    <path
       class="Note"
       transform="matrix(0.992001,0,0,0.992001,1093.85,460.599)"
       d="M 0,4.20313 C 0,8.5 3.09375,13.2969 11.2031,13.2969 21.5938,13.2969 32.5,4.79688 32.5,-4 c 0,-5.90625 -5,-9.2031 -11.2031,-9.2031 C 11.5938,-13.2031 0,-5 0,4.20313"
       id="path59" />
    <path
       class="Note"
       transform="matrix(0.992001,0,0,0.992001,2084.64,460.599)"
       d="M 0,4.20313 C 0,8.5 3.09375,13.2969 11.2031,13.2969 21.5938,13.2969 32.5,4.79688 32.5,-4 c 0,-5.90625 -5,-9.2031 -11.2031,-9.2031 C 11.5938,-13.2031 0,-5 0,4.20313"
       id="path60" />
    <path
       class="Note"
       transform="matrix(0.992001,0,0,0.992001,999.471,423.399)"
       d="M 0,4.20313 C 0,8.5 3.09375,13.2969 11.2031,13.2969 21.5938,13.2969 32.5,4.79688 32.5,-4 c 0,-5.90625 -5,-9.2031 -11.2031,-9.2031 C 11.5938,-13.2031 0,-5 0,4.20313"
       id="path61" />
    <path
       class="Note"
       transform="matrix(0.992001,0,0,0.992001,2348.06,435.799)"
       d="M 0,4.20313 C 0,8.5 3.09375,13.2969 11.2031,13.2969 21.5938,13.2969 32.5,4.79688 32.5,-4 c 0,-5.90625 -5,-9.2031 -11.2031,-9.2031 C 11.5938,-13.2031 0,-5 0,4.20313"
       id="path62" />
    <path
       class="Note"
       transform="matrix(0.992001,0,0,0.992001,1451.65,435.799)"
       d="M 0,4.20313 C 0,8.5 3.09375,13.2969 11.2031,13.2969 21.5938,13.2969 32.5,4.79688 32.5,-4 c 0,-5.90625 -5,-9.2031 -11.2031,-9.2031 C 11.5938,-13.2031 0,-5 0,4.20313"
       id="path63" />
    <path
       class="Note"
       transform="matrix(0.992001,0,0,0.992001,2410.98,423.399)"
       d="M 0,4.20313 C 0,8.5 3.09375,13.2969 11.2031,13.2969 21.5938,13.2969 32.5,4.79688 32.5,-4 c 0,-5.90625 -5,-9.2031 -11.2031,-9.2031 C 11.5938,-13.2031 0,-5 0,4.20313"
       id="path64" />
    <path
       class="Note"
       transform="matrix(0.992001,0,0,0.992001,2473.9,410.999)"
       d="M 0,4.20313 C 0,8.5 3.09375,13.2969 11.2031,13.2969 21.5938,13.2969 32.5,4.79688 32.5,-4 c 0,-5.90625 -5,-9.2031 -11.2031,-9.2031 C 11.5938,-13.2031 0,-5 0,4.20313"
       id="path65" />
    <path
       class="Note"
       transform="matrix(0.992001,0,0,0.992001,2536.81,435.799)"
       d="M 0,4.20313 C 0,8.5 3.09375,13.2969 11.2031,13.2969 21.5938,13.2969 32.5,4.79688 32.5,-4 c 0,-5.90625 -5,-9.2031 -11.2031,-9.2031 C 11.5938,-13.2031 0,-5 0,4.20313"
       id="path66" />
    <path
       class="Note"
       transform="matrix(0.992001,0,0,0.992001,767.502,423.399)"
       d="M 0,4.20313 C 0,8.5 3.09375,13.2969 11.2031,13.2969 21.5938,13.2969 32.5,4.79688 32.5,-4 c 0,-5.90625 -5,-9.2031 -11.2031,-9.2031 C 11.5938,-13.2031 0,-5 0,4.20313"
       id="path67" />
    <path
       class="Note"
       transform="matrix(0.992001,0,0,0.992001,2642.95,423.399)"
       d="M 0,4.20313 C 0,8.5 3.09375,13.2969 11.2031,13.2969 21.5938,13.2969 32.5,4.79688 32.5,-4 c 0,-5.90625 -5,-9.2031 -11.2031,-9.2031 C 11.5938,-13.2031 0,-5 0,4.20313"
       id="path68" />
    <path
       class="Clef"
       transform="matrix(0.992001,0,0,0.992001,355.199,460.599)"
       d="m 12.2969,51.2969 c 0,6.6094 5,15.3125 18.5,15.3125 4.7031,0 8.8125,-1.2031 12.4062,-3.4063 C 48.6094,59.4063 50,52.7969 50,46.5 c 0,-3.8906 -0.5937,-8.3906 -1.5937,-14.0937 -0.2969,-2 -0.9063,-5 -1.5,-8.9063 C 56.7031,20.2969 64,10.0938 64,-0.203125 64,-15.2969 53.2969,-25.5 38.7031,-25.5 c -1,-6 -2,-11.9063 -2.7968,-17.5 10.5,-11.1094 17.7968,-23.6094 17.7968,-39.5 0,-9.1094 -2.7968,-16.5 -4.4062,-20.109 -2.3906,-5.094 -5.2969,-8.594 -7.0938,-8.594 -0.7031,0 -3.7968,1.203 -7.0937,5.094 -6.4063,7.609 -8.2031,20.4059 -8.2031,28.7965 0,5.4062 0.5,10.3125 2.2031,21.5156 -0.1094,0.0938 -5.3125,5.3906 -7.4063,7.0938 C 12.5938,-40.2969 0,-28.1094 0,-8.09375 0,10.5938 16.2969,25.2969 34.9063,25.2969 c 2.8906,0 5.5937,-0.2969 7.8906,-0.7031 1.9062,9.6093 3.1094,16.6093 3.1094,21.9062 0,10.4063 -5.4063,15.9063 -15.5,15.9063 -2.4063,0 -4.5,-0.5 -4.7032,-0.5 -0.0937,-0.1094 -0.2968,-0.2032 -0.2968,-0.2969 0,-0.2031 0.2031,-0.3125 0.5,-0.3125 C 30.6094,60.5 35.2969,56.5 35.2969,50.1094 35.2969,44.7031 31.2031,39 23.7031,39 c -7,0 -11.4062,5.7031 -11.4062,12.2969 m 20.9062,-133.5 c 0.9063,-4 5.5,-14.5 10.7032,-14.5 1.5,0 3.8906,4.7968 3.8906,11.7968 0,10.4063 -7.6875,18.2032 -14.5938,25 -0.5937,-4 -1.0937,-7.8906 -1.0937,-12.0937 0,-3.7031 0.2969,-7.1094 1.0937,-10.2031 M 42,20.5938 c -2,0.4062 -3.8906,0.6093 -5.7969,0.6093 -14.2968,0 -26.49997,-10 -26.49997,-25.10935 0,-12.18755 8.59377,-23.09375 17.40627,-30.70315 1.6875,-1.5 3.2969,-2.8906 4.7969,-4.3906 0.8906,5.3906 1.5937,10.0937 2.2968,14.2031 -9.1093,2.7031 -15.2968,12.2969 -15.2968,21.70315 0,7 5.5,16.59375 13.5,16.59375 0.7968,0 1.7031,-0.4062 1.7031,-1.2969 0,-0.9062 -1,-1.4062 -2.2031,-2.2031 C 28,7.59375 25.7969,5 25.7969,0.09375 25.7969,-6 30.4063,-10.9063 36.2031,-12.2969 L 42,20.5938 M 56.2031,2.09375 c 0,7.10938 -2.9062,14.40625 -10,17.31255 -2.0937,-12.00005 -4.7968,-27.9063 -5.5,-32.3126 9,0 15.5,6.10942 15.5,15.00005"
       id="path69" />
    <path
       class="TimeSig"
       transform="matrix(0.992001,0,0,0.992001,445.362,411.495)"
       d="m 34.2031,3.90625 c -0.7968,2.1875 -2.7968,9.39065 -7.7031,9.39065 -6.5,0 -7.9062,-4.00002 -13.2969,-4.00002 -0.7968,0 -1.6093,0.10937 -2.6093,0.29687 0,0 2.5,-3.79687 13.1093,-7.09375 C 34.2969,-0.796875 37,-6 37,-12 c 0,-4.2031 -1.8906,-12.5 -17,-12.5 -15.09375,0 -17.90625,9.0937 -17.90625,13.7031 0,4.09377 3.40625,7.39065 7.5,7.39065 4.10935,0 7.40625,-3.29688 7.40625,-7.39065 0,-2.7969 -2,-5.9062 -4.5937,-6.9062 -0.3125,-0.0938 -0.7032,-0.5938 -0.7032,-1.0938 0,-0.6094 0.5,-1.2969 2.2969,-1.7969 0.5,-0.2031 1.9063,-0.5 3.4063,-0.5 5.6875,0 6.7968,3.5 6.7968,8.5938 0,11.703125 -13.9062,14.20313 -19.7031,22.9063 0,0 -3,4.1875 -3,8.8906 0,4.7031 2.40625,5 3.59375,5 1.60938,0 3.3125,-1.2969 3.3125,-3.0938 0,-0.4062 -0.10937,-0.7968 -0.3125,-1.2968 C 7.5,18.5 7.29688,17.4063 7.29688,16.5938 c 0,-0.2969 0,-0.5938 0.10937,-0.8907 0.09375,-0.6093 0.89063,-1.6093 3.29685,-1.6093 2.8907,0 4,3.4062 5.7969,6 1.7969,2.6093 4.5938,4.2031 7.7969,4.2031 3.2031,0 7.5,-2.2969 9.3125,-6 C 35.4063,14.5938 37.7031,7.09375 37.7031,4.40625 37.7031,3.09375 36.9063,2.5 36,2.5 c -0.7031,0 -1.3906,0.40625 -1.7969,1.40625"
       id="path70" />
    <path
       class="TimeSig"
       transform="matrix(0.992001,0,0,0.992001,442.092,460.599)"
       d="m 20.7969,12.7031 v 7.3907 H 12.5 c -0.7031,0 -1.4062,0.6093 -1.4062,1.4062 v 1.9063 c 0,0.7968 0.7031,1.3906 1.4062,1.3906 h 30.2969 c 0.8125,0 1.4062,-0.5938 1.4062,-1.3906 V 21.5 c 0,-0.7969 -0.5937,-1.4062 -1.4062,-1.4062 h -8.8906 v -7.3907 h 8.8906 c 0.8125,0 1.4062,-0.7031 1.4062,-1.5 V 9.29688 c 0,-0.70313 -0.5937,-1.39063 -1.4062,-1.39063 H 33.9063 V -8 c 0,-0.59375 -0.2969,-1.09375 -0.7969,-1.29688 L 31.9063,-9.90625 C 31.7031,-10 31.4063,-10.0938 31.2031,-10.0938 30.9063,-10 30.5,-9.90625 30.2969,-9.70313 l -9.0938,8.29688 c -0.2968,0.3125 -0.4062,0.703125 -0.4062,1.109375 V 7.90625 H 9.29688 c 0,0 11.10942,-12 22.90622,-27.81255 0.4063,-0.5 0.5,-1 0.5,-1.3906 0,-0.5 -0.2031,-0.9062 -0.2968,-1 L 30.2031,-24.5 c -0.2031,-0.2031 -0.5937,-0.4063 -1,-0.4063 -0.5937,0 -14.1093,0 -14.7968,0 -0.8125,0 -1.3125,0.6094 -1.4063,1.2032 0,0 -0.5,7.4062 -3.09375,15.49997 -2.60937,8.10938 -5.60937,13.10938 -8.20312,16.79688 0,0 -0.29688,0.5 -0.29688,1.10938 0,0.20312 0,0.39067 0.09375,0.59377 0.40625,0.7031 1,1.7969 1,1.7969 0,0 0.20313,0.6093 1.09375,0.6093 H 20.7969"
       id="path71" />
    <path
       class="Beam"
       fill-rule="evenodd"
       d="m 2208.76,379.971 65.4,-6.2 v 12.455 l -65.4,6.2 v -12.455"
       id="path72" />
    <path
       class="Beam"
       fill-rule="evenodd"
       d="m 2348.06,497.771 65.4,-6.2 v 12.456 l -65.4,6.2 v -12.456"
       id="path73" />
    <path
       class="Beam"
       fill-rule="evenodd"
       d="m 704.586,497.771 65.396,-6.2 v 12.456 l -65.396,6.2 v -12.456"
       id="path74" />
    <path
       class="Beam"
       fill-rule="evenodd"
       d="m 1915.58,510.171 65.4,-6.2 v 12.456 l -65.4,6.2 v -12.456"
       id="path75" />
    <path
       class="Beam"
       fill-rule="evenodd"
       d="m 565.286,379.971 65.396,-6.2 v 12.455 l -65.396,6.2 v -12.455"
       id="path76" />
    <path
       class="Beam"
       fill-rule="evenodd"
       d="m 2473.9,491.571 65.39,6.2 v 12.456 l -65.39,-6.2 v -12.456"
       id="path77" />
    <path
       class="Beam"
       fill-rule="evenodd"
       d="m 1123.6,379.971 65.39,-6.2 v 12.455 l -65.39,6.2 v -12.455"
       id="path78" />
    <path
       class="Beam"
       fill-rule="evenodd"
       d="m 1388.73,491.571 65.4,6.2 v 12.456 l -65.4,-6.2 v -12.456"
       id="path79" />
    <path
       class="Beam"
       fill-rule="evenodd"
       d="m 1652.16,510.171 65.39,-6.2 v 12.456 l -65.39,6.2 v -12.456"
       id="path80" />
    <path
       class="Beam"
       fill-rule="evenodd"
       d="m 1262.9,497.771 65.39,-6.2 v 12.456 l -65.39,6.2 v -12.456"
       id="path81" />
    <path
       class="Beam"
       fill-rule="evenodd"
       d="m 830.418,491.571 65.397,6.2 v 12.456 l -65.397,-6.2 v -12.456"
       id="path82" />
    <path
       class="Lyrics"
       d="m 1096.96,560.583 h -1.75 l -1.45,1.797 c -1.8,-1.407 -3.6,-2 -6.1,-2 -4.4,0 -7.29,2.843 -7.29,7.25 0,4.703 3.04,5.89 7.04,6.843 l 2.65,0.61 c 3.95,0.937 5.35,1.937 5.35,3.937 0,2.36 -2.04,4 -4.95,4 -4.25,0 -7.25,-2.687 -8.45,-7.687 h -2 v 9.437 h 1.75 l 1.75,-2.047 c 2.05,1.657 4.3,2.454 6.86,2.454 4.89,0 8.14,-3.047 8.14,-7.704 0,-2.203 -0.7,-3.89 -2.1,-5.046 -1.2,-1.047 -2.2,-1.454 -5.25,-2.094 l -2.5,-0.563 c -2.75,-0.593 -2.75,-0.593 -3.65,-1.093 -1.1,-0.5 -1.75,-1.547 -1.75,-2.657 0,-2.047 1.9,-3.437 4.65,-3.437 4.1,0 6.1,2.89 7.3,6.39 h 1.75 v -8.39 m 16.1,-0.203 c -6.15,0 -10.9,5.453 -10.9,12.453 0,6.844 4.8,12.344 10.8,12.344 6,0 10.8,-5.5 10.8,-12.407 0,-6.843 -4.8,-12.39 -10.7,-12.39 m 0,2.14 c 3.5,0 5.45,3.657 5.45,10.25 0,6.657 -1.95,10.25 -5.55,10.25 -3.59,0 -5.55,-3.593 -5.55,-10.187 0,-6.813 1.9,-10.313 5.65,-10.313 m 22.6,-14.953 -9.25,0.563 v 2.14 h 2.46 c 1.84,0.047 2.09,0.36 2.09,2.5 v 27.86 c -0.05,0.75 -0.09,1.047 -0.3,1.297 -0.35,0.453 -1.29,0.656 -3.45,0.703 h -0.34 v 1.797 h 12.94 v -1.797 h -0.35 c -3.34,-0.11 -3.8,-0.36 -3.8,-2.157 v -32.906"
       id="path83" />
    <path
       class="Lyrics"
       d="m 1161.08,547.567 -9.25,0.563 v 2.14 h 2.45 c 1.85,0.047 2.1,0.36 2.1,2.5 v 27.86 c -0.05,0.75 -0.1,1.047 -0.3,1.297 -0.36,0.453 -1.3,0.656 -3.45,0.703 h -0.35 v 1.797 h 12.94 v -1.797 h -0.34 c -3.35,-0.11 -3.8,-0.36 -3.8,-2.157 v -32.906 m 28.39,20.766 c 0,-3.156 -0.55,-4.75 -2,-5.953 -1.64,-1.36 -4.09,-2 -7.3,-2 -5.64,0 -9.75,2.64 -9.75,6.297 0,1.843 1.16,3.046 2.91,3.046 1.59,0 2.7,-1.046 2.7,-2.546 0,-0.657 -0.25,-1.344 -0.75,-2.047 -0.31,-0.36 -0.36,-0.453 -0.36,-0.703 0,-1 2,-1.907 4.41,-1.907 1.59,0 3.34,0.5 4.14,1.25 0.95,0.813 1.31,2 1.31,4.25 v 1.953 c -5.2,0.907 -6.86,1.297 -9.31,2.25 -4.34,1.61 -6.39,3.907 -6.39,7.11 0,3.594 2.8,5.844 7.25,5.844 3.45,0 6.55,-1.407 8.7,-3.954 0.8,2.547 2.05,3.547 4.39,3.547 2.25,0 4.61,-1.437 4.61,-2.89 0,-0.36 -0.2,-0.61 -0.5,-0.61 -0.2,0 -0.4,0.063 -0.75,0.203 -0.7,0.297 -1,0.36 -1.4,0.36 -1.41,0 -1.91,-0.906 -1.91,-3.453 v -10.047 m -4.69,6.094 c 0,3 -0.15,3.703 -1,5 -1.25,1.843 -3.5,3.093 -5.7,3.093 -2.3,0 -3.95,-1.64 -3.95,-3.89 0,-2.11 1.04,-3.61 3.25,-4.657 1.54,-0.703 3.5,-1.203 7.4,-1.843 v 2.297"
       id="path84" />
    <path
       class="Lyrics"
       d="m 1333.43,584.77 8.7,-0.343 v -2.157 h -0.9 c -2.85,-0.14 -3.1,-0.437 -3.1,-3.64 v -31.063 l -9.79,0.563 v 2.14 h 2.93 c 1.91,0.047 2.16,0.36 2.16,2.5 v 11.313 c -1.84,-2.563 -4,-3.703 -6.91,-3.703 -5.64,0 -9.93,5.453 -9.93,12.64 0,7.11 4.14,12.157 9.93,12.157 3.16,0 5.32,-1.344 6.91,-4.344 v 3.937 m -5.91,-21.687 c 2.07,0 4,1.5 4.91,3.797 0.66,1.5 0.95,3.547 0.95,6 0,5.843 -2.29,9.593 -5.9,9.593 -3.55,0 -5.64,-3.296 -5.64,-8.843 0,-3 0.29,-5.25 0.93,-6.907 0.86,-2.25 2.71,-3.64 4.75,-3.64 m 28.5,-2.703 c -6.14,0 -10.89,5.453 -10.89,12.453 0,6.844 4.8,12.344 10.8,12.344 6,0 10.8,-5.5 10.8,-12.407 0,-6.843 -4.8,-12.39 -10.71,-12.39 m 0,2.14 c 3.5,0 5.46,3.657 5.46,10.25 0,6.657 -1.96,10.25 -5.55,10.25 -3.59,0 -5.55,-3.593 -5.55,-10.187 0,-6.813 1.89,-10.313 5.64,-10.313"
       id="path85" />
    <path
       class="Lyrics"
       d="m 1391.25,561.13 -8.86,0.547 v 2.156 h 2.05 c 1.91,0.047 2.16,0.344 2.16,2.5 v 14.297 c -0.05,0.75 -0.1,1.047 -0.3,1.297 -0.36,0.453 -1.36,0.656 -3.5,0.703 h -0.2 v 1.797 h 13.34 v -1.797 h -0.89 c -3.36,-0.11 -3.8,-0.36 -3.8,-2.157 v -2.703 c 0.05,-8.39 3.05,-14.797 6.94,-15 -0.69,0.813 -0.89,1.313 -0.89,2.25 0,1.61 1.14,2.75 2.75,2.75 1.84,0 3.05,-1.343 3.05,-3.343 0,-2.454 -1.71,-4.047 -4.35,-4.047 -3.15,0 -5.86,2.5 -7.5,6.953 v -6.203 m 35.35,12.047 c 0.04,-7.5 -4.21,-12.797 -10.3,-12.797 -6.41,0 -11.2,5.547 -11.2,13.047 0,7.046 4.54,11.75 11.29,11.75 4.8,0 8.16,-2.344 10.21,-7.094 l -1.75,-0.953 c -2.05,3.843 -4.16,5.343 -7.5,5.343 -2.55,0 -4.41,-1.046 -5.71,-3.296 -0.89,-1.5 -1.29,-3.25 -1.25,-6 h 16.21 m -16.16,-2.157 c 0,-3.5 1.61,-8.5 5.81,-8.5 3,0 5,2.657 5,6.703 0,1.407 -0.45,1.797 -2.06,1.797 h -8.75"
       id="path86" />
    <path
       class="Lyrics"
       d="m 2246.25,547.567 -9.25,0.563 v 2.14 h 2.45 c 1.84,0.047 2.09,0.36 2.09,2.5 v 27.86 c -0.04,0.75 -0.09,1.047 -0.29,1.297 -0.36,0.453 -1.3,0.656 -3.46,0.703 h -0.34 v 1.797 h 12.94 v -1.797 h -0.35 c -3.34,-0.11 -3.79,-0.36 -3.79,-2.157 v -32.906 m 28.39,20.766 c 0,-3.156 -0.55,-4.75 -2,-5.953 -1.64,-1.36 -4.1,-2 -7.3,-2 -5.64,0 -9.75,2.64 -9.75,6.297 0,1.843 1.16,3.046 2.91,3.046 1.59,0 2.7,-1.046 2.7,-2.546 0,-0.657 -0.25,-1.344 -0.75,-2.047 -0.31,-0.36 -0.36,-0.453 -0.36,-0.703 0,-1 2,-1.907 4.41,-1.907 1.59,0 3.34,0.5 4.14,1.25 0.95,0.813 1.31,2 1.31,4.25 v 1.953 c -5.2,0.907 -6.86,1.297 -9.31,2.25 -4.35,1.61 -6.39,3.907 -6.39,7.11 0,3.594 2.79,5.844 7.25,5.844 3.45,0 6.54,-1.407 8.7,-3.954 0.8,2.547 2.05,3.547 4.39,3.547 2.25,0 4.61,-1.437 4.61,-2.89 0,-0.36 -0.2,-0.61 -0.5,-0.61 -0.2,0 -0.41,0.063 -0.75,0.203 -0.7,0.297 -1,0.36 -1.41,0.36 -1.4,0 -1.9,-0.906 -1.9,-3.453 v -10.047 m -4.69,6.094 c 0,3 -0.16,3.703 -1,5 -1.25,1.843 -3.5,3.093 -5.7,3.093 -2.3,0 -3.96,-1.64 -3.96,-3.89 0,-2.11 1.05,-3.61 3.25,-4.657 1.55,-0.703 3.5,-1.203 7.41,-1.843 v 2.297"
       id="path87" />
    <path
       class="Lyrics"
       d="m 1460.47,561.13 v -9.907 h -2.05 c -0.5,6.5 -2.7,9.797 -6.75,10.11 v 1.937 h 4.09 v 12.75 c 0,3.5 0.1,4.75 0.6,5.907 0.81,2.093 2.81,3.25 5.7,3.25 4.5,0 7.41,-3.407 7.41,-8.704 0,-0.296 0,-0.64 -0.05,-1.14 h -2.11 c -0.14,4.5 -1.45,6.797 -3.89,6.797 -1.16,0 -2.16,-0.61 -2.5,-1.453 -0.31,-0.704 -0.45,-1.954 -0.45,-3.75 V 563.27 h 7.34 v -2.14 h -7.34 m 17.25,-12.453 c -1.61,0 -2.91,1.296 -2.91,2.89 0,1.61 1.3,2.906 2.86,2.906 1.64,0 2.94,-1.296 2.94,-2.906 0,-1.594 -1.3,-2.89 -2.89,-2.89 m 2.34,12.453 -9.39,0.547 v 2.156 h 2.55 c 1.89,0.047 2.14,0.344 2.14,2.5 v 14.297 c -0.05,0.75 -0.1,1.047 -0.3,1.297 -0.34,0.453 -1.3,0.656 -3.45,0.703 h -0.35 v 1.797 h 12.96 v -1.797 h -0.36 c -3.35,-0.11 -3.8,-0.36 -3.8,-2.157 V 561.13"
       id="path88" />
    <path
       class="Lyrics"
       d="m 1271.72,561.13 v -9.907 h -2.05 c -0.5,6.5 -2.7,9.797 -6.75,10.11 v 1.937 h 4.09 v 12.75 c 0,3.5 0.1,4.75 0.6,5.907 0.81,2.093 2.81,3.25 5.7,3.25 4.5,0 7.41,-3.407 7.41,-8.704 0,-0.296 0,-0.64 -0.05,-1.14 h -2.11 c -0.14,4.5 -1.45,6.797 -3.89,6.797 -1.16,0 -2.16,-0.61 -2.5,-1.453 -0.31,-0.704 -0.45,-1.954 -0.45,-3.75 V 563.27 h 7.34 v -2.14 h -7.34 m 17.25,-12.453 c -1.61,0 -2.91,1.296 -2.91,2.89 0,1.61 1.3,2.906 2.86,2.906 1.64,0 2.94,-1.296 2.94,-2.906 0,-1.594 -1.3,-2.89 -2.89,-2.89 m 2.34,12.453 -9.39,0.547 v 2.156 h 2.55 c 1.89,0.047 2.14,0.344 2.14,2.5 v 14.297 c -0.05,0.75 -0.1,1.047 -0.3,1.297 -0.34,0.453 -1.3,0.656 -3.45,0.703 h -0.35 v 1.797 h 12.96 v -1.797 h -0.36 c -3.35,-0.11 -3.8,-0.36 -3.8,-2.157 V 561.13"
       id="path89" />
    <path
       class="Lyrics"
       d="m 1565.4,584.77 8.7,-0.343 v -2.157 h -0.9 c -2.85,-0.14 -3.1,-0.437 -3.1,-3.64 v -31.063 l -9.79,0.563 v 2.14 h 2.93 c 1.91,0.047 2.16,0.36 2.16,2.5 v 11.313 c -1.84,-2.563 -4,-3.703 -6.91,-3.703 -5.64,0 -9.93,5.453 -9.93,12.64 0,7.11 4.14,12.157 9.93,12.157 3.16,0 5.32,-1.344 6.91,-4.344 v 3.937 m -5.91,-21.687 c 2.07,0 4,1.5 4.91,3.797 0.66,1.5 0.95,3.547 0.95,6 0,5.843 -2.29,9.593 -5.9,9.593 -3.55,0 -5.64,-3.296 -5.64,-8.843 0,-3 0.29,-5.25 0.93,-6.907 0.86,-2.25 2.71,-3.64 4.75,-3.64 m 28.5,-2.703 c -6.14,0 -10.89,5.453 -10.89,12.453 0,6.844 4.8,12.344 10.8,12.344 6,0 10.8,-5.5 10.8,-12.407 0,-6.843 -4.8,-12.39 -10.71,-12.39 m 0,2.14 c 3.5,0 5.46,3.657 5.46,10.25 0,6.657 -1.96,10.25 -5.55,10.25 -3.59,0 -5.55,-3.593 -5.55,-10.187 0,-6.813 1.89,-10.313 5.64,-10.313"
       id="path90" />
    <path
       class="Lyrics"
       d="m 1656.48,547.567 -9.25,0.563 v 2.14 h 2.45 c 1.84,0.047 2.09,0.36 2.09,2.5 v 27.86 c -0.04,0.75 -0.09,1.047 -0.29,1.297 -0.36,0.453 -1.3,0.656 -3.46,0.703 h -0.34 v 1.797 h 12.94 v -1.797 h -0.35 c -3.34,-0.11 -3.79,-0.36 -3.79,-2.157 v -32.906 m 28.39,20.766 c 0,-3.156 -0.55,-4.75 -2,-5.953 -1.64,-1.36 -4.1,-2 -7.3,-2 -5.64,0 -9.75,2.64 -9.75,6.297 0,1.843 1.16,3.046 2.91,3.046 1.59,0 2.7,-1.046 2.7,-2.546 0,-0.657 -0.25,-1.344 -0.75,-2.047 -0.31,-0.36 -0.36,-0.453 -0.36,-0.703 0,-1 2,-1.907 4.41,-1.907 1.59,0 3.34,0.5 4.14,1.25 0.95,0.813 1.31,2 1.31,4.25 v 1.953 c -5.2,0.907 -6.86,1.297 -9.31,2.25 -4.35,1.61 -6.39,3.907 -6.39,7.11 0,3.594 2.79,5.844 7.25,5.844 3.45,0 6.54,-1.407 8.7,-3.954 0.8,2.547 2.05,3.547 4.39,3.547 2.25,0 4.61,-1.437 4.61,-2.89 0,-0.36 -0.2,-0.61 -0.5,-0.61 -0.2,0 -0.41,0.063 -0.75,0.203 -0.7,0.297 -1,0.36 -1.41,0.36 -1.4,0 -1.9,-0.906 -1.9,-3.453 v -10.047 m -4.69,6.094 c 0,3 -0.16,3.703 -1,5 -1.25,1.843 -3.5,3.093 -5.7,3.093 -2.3,0 -3.96,-1.64 -3.96,-3.89 0,-2.11 1.05,-3.61 3.25,-4.657 1.55,-0.703 3.5,-1.203 7.41,-1.843 v 2.297"
       id="path91" />
    <path
       class="Lyrics"
       d="m 1722.69,584.77 8.7,-0.343 v -2.157 h -0.9 c -2.85,-0.14 -3.1,-0.437 -3.1,-3.64 v -31.063 l -9.79,0.563 v 2.14 h 2.93 c 1.91,0.047 2.16,0.36 2.16,2.5 v 11.313 c -1.84,-2.563 -4,-3.703 -6.91,-3.703 -5.64,0 -9.93,5.453 -9.93,12.64 0,7.11 4.14,12.157 9.93,12.157 3.16,0 5.32,-1.344 6.91,-4.344 v 3.937 m -5.91,-21.687 c 2.07,0 4,1.5 4.91,3.797 0.66,1.5 0.95,3.547 0.95,6 0,5.843 -2.29,9.593 -5.9,9.593 -3.55,0 -5.64,-3.296 -5.64,-8.843 0,-3 0.29,-5.25 0.93,-6.907 0.86,-2.25 2.71,-3.64 4.75,-3.64 m 28.5,-2.703 c -6.14,0 -10.89,5.453 -10.89,12.453 0,6.844 4.8,12.344 10.8,12.344 6,0 10.8,-5.5 10.8,-12.407 0,-6.843 -4.8,-12.39 -10.71,-12.39 m 0,2.14 c 3.5,0 5.46,3.657 5.46,10.25 0,6.657 -1.96,10.25 -5.55,10.25 -3.59,0 -5.55,-3.593 -5.55,-10.187 0,-6.813 1.89,-10.313 5.64,-10.313"
       id="path92" />
    <path
       class="Lyrics"
       d="m 2356.88,561.13 v -9.907 h -2.04 c -0.5,6.5 -2.71,9.797 -6.75,10.11 v 1.937 h 4.09 v 12.75 c 0,3.5 0.09,4.75 0.59,5.907 0.82,2.093 2.82,3.25 5.71,3.25 4.5,0 7.4,-3.407 7.4,-8.704 0,-0.296 0,-0.64 -0.04,-1.14 h -2.11 c -0.14,4.5 -1.46,6.797 -3.89,6.797 -1.16,0 -2.16,-0.61 -2.5,-1.453 -0.32,-0.704 -0.46,-1.954 -0.46,-3.75 V 563.27 h 7.35 v -2.14 h -7.35 m 17.25,-12.453 c -1.61,0 -2.9,1.296 -2.9,2.89 0,1.61 1.29,2.906 2.86,2.906 1.64,0 2.93,-1.296 2.93,-2.906 0,-1.594 -1.29,-2.89 -2.89,-2.89 m 2.35,12.453 -9.39,0.547 v 2.156 h 2.54 c 1.89,0.047 2.14,0.344 2.14,2.5 v 14.297 c -0.04,0.75 -0.09,1.047 -0.29,1.297 -0.35,0.453 -1.3,0.656 -3.46,0.703 h -0.34 v 1.797 h 12.95 v -1.797 h -0.36 c -3.34,-0.11 -3.79,-0.36 -3.79,-2.157 V 561.13"
       id="path93" />
    <path
       class="Lyrics"
       d="m 1824.33,560.583 h -1.75 l -1.46,1.797 c -1.79,-1.407 -3.59,-2 -6.09,-2 -4.41,0 -7.3,2.843 -7.3,7.25 0,4.703 3.05,5.89 7.05,6.843 l 2.64,0.61 c 3.95,0.937 5.36,1.937 5.36,3.937 0,2.36 -2.05,4 -4.95,4 -4.25,0 -7.25,-2.687 -8.46,-7.687 h -2 v 9.437 h 1.75 l 1.75,-2.047 c 2.05,1.657 4.3,2.454 6.86,2.454 4.89,0 8.14,-3.047 8.14,-7.704 0,-2.203 -0.7,-3.89 -2.09,-5.046 -1.2,-1.047 -2.2,-1.454 -5.25,-2.094 l -2.5,-0.563 c -2.75,-0.593 -2.75,-0.593 -3.66,-1.093 -1.09,-0.5 -1.75,-1.547 -1.75,-2.657 0,-2.047 1.91,-3.437 4.66,-3.437 4.09,0 6.09,2.89 7.3,6.39 h 1.75 v -8.39 m 16.09,-0.203 c -6.14,0 -10.89,5.453 -10.89,12.453 0,6.844 4.8,12.344 10.8,12.344 6,0 10.79,-5.5 10.79,-12.407 0,-6.843 -4.79,-12.39 -10.7,-12.39 m 0,2.14 c 3.5,0 5.45,3.657 5.45,10.25 0,6.657 -1.95,10.25 -5.54,10.25 -3.6,0 -5.55,-3.593 -5.55,-10.187 0,-6.813 1.89,-10.313 5.64,-10.313 m 22.61,-14.953 -9.25,0.563 v 2.14 h 2.45 c 1.85,0.047 2.1,0.36 2.1,2.5 v 27.86 c -0.05,0.75 -0.1,1.047 -0.3,1.297 -0.36,0.453 -1.3,0.656 -3.45,0.703 h -0.35 v 1.797 h 12.94 v -1.797 h -0.34 c -3.35,-0.11 -3.8,-0.36 -3.8,-2.157 v -32.906"
       id="path94" />
    <path
       class="Lyrics"
       d="m 1919.9,547.567 -9.25,0.563 v 2.14 h 2.46 c 1.84,0.047 2.09,0.36 2.09,2.5 v 27.86 c -0.05,0.75 -0.09,1.047 -0.3,1.297 -0.36,0.453 -1.29,0.656 -3.45,0.703 h -0.34 v 1.797 h 12.93 v -1.797 h -0.34 c -3.34,-0.11 -3.8,-0.36 -3.8,-2.157 v -32.906 m 28.39,20.766 c 0,-3.156 -0.54,-4.75 -2,-5.953 -1.64,-1.36 -4.09,-2 -7.29,-2 -5.64,0 -9.75,2.64 -9.75,6.297 0,1.843 1.15,3.046 2.9,3.046 1.6,0 2.71,-1.046 2.71,-2.546 0,-0.657 -0.25,-1.344 -0.75,-2.047 -0.32,-0.36 -0.36,-0.453 -0.36,-0.703 0,-1 2,-1.907 4.4,-1.907 1.6,0 3.35,0.5 4.14,1.25 0.96,0.813 1.32,2 1.32,4.25 v 1.953 c -5.21,0.907 -6.86,1.297 -9.32,2.25 -4.34,1.61 -6.39,3.907 -6.39,7.11 0,3.594 2.8,5.844 7.25,5.844 3.46,0 6.55,-1.407 8.71,-3.954 0.79,2.547 2.04,3.547 4.39,3.547 2.25,0 4.61,-1.437 4.61,-2.89 0,-0.36 -0.21,-0.61 -0.5,-0.61 -0.21,0 -0.41,0.063 -0.75,0.203 -0.71,0.297 -1,0.36 -1.41,0.36 -1.41,0 -1.91,-0.906 -1.91,-3.453 v -10.047 m -4.68,6.094 c 0,3 -0.16,3.703 -1,5 -1.25,1.843 -3.5,3.093 -5.71,3.093 -2.29,0 -3.95,-1.64 -3.95,-3.89 0,-2.11 1.05,-3.61 3.25,-4.657 1.55,-0.703 3.5,-1.203 7.41,-1.843 v 2.297"
       id="path95" />
    <path
       class="Lyrics"
       d="m 2418.6,584.77 8.7,-0.343 v -2.157 h -0.91 c -2.84,-0.14 -3.09,-0.437 -3.09,-3.64 v -31.063 l -9.8,0.563 v 2.14 h 2.94 c 1.91,0.047 2.16,0.36 2.16,2.5 v 11.313 c -1.85,-2.563 -4,-3.703 -6.91,-3.703 -5.64,0 -9.94,5.453 -9.94,12.64 0,7.11 4.14,12.157 9.94,12.157 3.16,0 5.31,-1.344 6.91,-4.344 v 3.937 m -5.91,-21.687 c 2.06,0 4,1.5 4.91,3.797 0.65,1.5 0.95,3.547 0.95,6 0,5.843 -2.3,9.593 -5.91,9.593 -3.54,0 -5.64,-3.296 -5.64,-8.843 0,-3 0.3,-5.25 0.94,-6.907 0.86,-2.25 2.7,-3.64 4.75,-3.64 m 28.5,-2.703 c -6.14,0 -10.89,5.453 -10.89,12.453 0,6.844 4.8,12.344 10.8,12.344 6,0 10.79,-5.5 10.79,-12.407 0,-6.843 -4.79,-12.39 -10.7,-12.39 m 0,2.14 c 3.5,0 5.45,3.657 5.45,10.25 0,6.657 -1.95,10.25 -5.54,10.25 -3.6,0 -5.55,-3.593 -5.55,-10.187 0,-6.813 1.89,-10.313 5.64,-10.313"
       id="path96" />
    <path
       class="Lyrics"
       d="m 2182.13,560.583 h -1.75 l -1.46,1.797 c -1.79,-1.407 -3.59,-2 -6.09,-2 -4.41,0 -7.3,2.843 -7.3,7.25 0,4.703 3.05,5.89 7.05,6.843 l 2.64,0.61 c 3.95,0.937 5.36,1.937 5.36,3.937 0,2.36 -2.05,4 -4.95,4 -4.25,0 -7.25,-2.687 -8.46,-7.687 h -2 v 9.437 h 1.75 l 1.75,-2.047 c 2.05,1.657 4.3,2.454 6.86,2.454 4.89,0 8.14,-3.047 8.14,-7.704 0,-2.203 -0.7,-3.89 -2.09,-5.046 -1.2,-1.047 -2.2,-1.454 -5.25,-2.094 l -2.5,-0.563 c -2.75,-0.593 -2.75,-0.593 -3.66,-1.093 -1.09,-0.5 -1.75,-1.547 -1.75,-2.657 0,-2.047 1.91,-3.437 4.66,-3.437 4.09,0 6.09,2.89 7.3,6.39 h 1.75 v -8.39 m 16.09,-0.203 c -6.14,0 -10.89,5.453 -10.89,12.453 0,6.844 4.8,12.344 10.8,12.344 6,0 10.79,-5.5 10.79,-12.407 0,-6.843 -4.79,-12.39 -10.7,-12.39 m 0,2.14 c 3.5,0 5.45,3.657 5.45,10.25 0,6.657 -1.95,10.25 -5.54,10.25 -3.6,0 -5.55,-3.593 -5.55,-10.187 0,-6.813 1.89,-10.313 5.64,-10.313 m 22.61,-14.953 -9.25,0.563 v 2.14 h 2.45 c 1.85,0.047 2.1,0.36 2.1,2.5 v 27.86 c -0.05,0.75 -0.1,1.047 -0.3,1.297 -0.36,0.453 -1.3,0.656 -3.45,0.703 h -0.35 v 1.797 h 12.94 v -1.797 h -0.34 c -3.35,-0.11 -3.8,-0.36 -3.8,-2.157 v -32.906"
       id="path97" />
    <path
       class="Lyrics"
       d="m 538.65,560.583 h -1.75 l -1.453,1.797 c -1.797,-1.407 -3.594,-2 -6.094,-2 -4.406,0 -7.297,2.843 -7.297,7.25 0,4.703 3.047,5.89 7.047,6.843 l 2.64,0.61 c 3.954,0.937 5.36,1.937 5.36,3.937 0,2.36 -2.047,4 -4.953,4 -4.25,0 -7.25,-2.687 -8.453,-7.687 h -2 v 9.437 h 1.75 l 1.75,-2.047 c 2.046,1.657 4.296,2.454 6.859,2.454 4.891,0 8.141,-3.047 8.141,-7.704 0,-2.203 -0.704,-3.89 -2.094,-5.046 -1.203,-1.047 -2.203,-1.454 -5.25,-2.094 l -2.5,-0.563 c -2.75,-0.593 -2.75,-0.593 -3.656,-1.093 -1.094,-0.5 -1.75,-1.547 -1.75,-2.657 0,-2.047 1.906,-3.437 4.656,-3.437 4.094,0 6.094,2.89 7.297,6.39 h 1.75 v -8.39 m 16.093,-0.203 c -6.14,0 -10.89,5.453 -10.89,12.453 0,6.844 4.797,12.344 10.797,12.344 6,0 10.797,-5.5 10.797,-12.407 0,-6.843 -4.797,-12.39 -10.704,-12.39 m 0,2.14 c 3.5,0 5.454,3.657 5.454,10.25 0,6.657 -1.954,10.25 -5.547,10.25 -3.594,0 -5.547,-3.593 -5.547,-10.187 0,-6.813 1.89,-10.313 5.64,-10.313 m 22.61,-14.953 -9.25,0.563 v 2.14 h 2.453 c 1.844,0.047 2.094,0.36 2.094,2.5 v 27.86 c -0.047,0.75 -0.094,1.047 -0.297,1.297 -0.36,0.453 -1.297,0.656 -3.453,0.703 h -0.344 v 1.797 h 12.937 v -1.797 h -0.343 c -3.344,-0.11 -3.797,-0.36 -3.797,-2.157 v -32.906"
       id="path98" />
    <path
       class="Lyrics"
       d="m 1986.12,584.77 8.7,-0.343 v -2.157 h -0.91 c -2.84,-0.14 -3.09,-0.437 -3.09,-3.64 v -31.063 l -9.8,0.563 v 2.14 h 2.94 c 1.91,0.047 2.16,0.36 2.16,2.5 v 11.313 c -1.85,-2.563 -4,-3.703 -6.91,-3.703 -5.64,0 -9.94,5.453 -9.94,12.64 0,7.11 4.14,12.157 9.94,12.157 3.16,0 5.31,-1.344 6.91,-4.344 v 3.937 m -5.91,-21.687 c 2.06,0 4,1.5 4.91,3.797 0.65,1.5 0.95,3.547 0.95,6 0,5.843 -2.3,9.593 -5.91,9.593 -3.54,0 -5.64,-3.296 -5.64,-8.843 0,-3 0.3,-5.25 0.94,-6.907 0.86,-2.25 2.7,-3.64 4.75,-3.64 m 28.5,-2.703 c -6.14,0 -10.89,5.453 -10.89,12.453 0,6.844 4.8,12.344 10.8,12.344 6,0 10.79,-5.5 10.79,-12.407 0,-6.843 -4.79,-12.39 -10.7,-12.39 m 0,2.14 c 3.5,0 5.45,3.657 5.45,10.25 0,6.657 -1.95,10.25 -5.54,10.25 -3.6,0 -5.55,-3.593 -5.55,-10.187 0,-6.813 1.89,-10.313 5.64,-10.313"
       id="path99" />
    <path
       class="Lyrics"
       d="m 2476.42,561.13 -8.86,0.547 v 2.156 h 2.05 c 1.9,0.047 2.15,0.344 2.15,2.5 v 14.297 c -0.05,0.75 -0.09,1.047 -0.3,1.297 -0.35,0.453 -1.35,0.656 -3.5,0.703 h -0.2 v 1.797 h 13.35 v -1.797 h -0.9 c -3.35,-0.11 -3.79,-0.36 -3.79,-2.157 v -2.703 c 0.04,-8.39 3.04,-14.797 6.94,-15 -0.69,0.813 -0.9,1.313 -0.9,2.25 0,1.61 1.15,2.75 2.75,2.75 1.85,0 3.05,-1.343 3.05,-3.343 0,-2.454 -1.7,-4.047 -4.34,-4.047 -3.16,0 -5.86,2.5 -7.5,6.953 v -6.203 m 35.34,12.047 c 0.05,-7.5 -4.2,-12.797 -10.3,-12.797 -6.4,0 -11.2,5.547 -11.2,13.047 0,7.046 4.55,11.75 11.3,11.75 4.8,0 8.15,-2.344 10.2,-7.094 l -1.75,-0.953 c -2.05,3.843 -4.15,5.343 -7.5,5.343 -2.55,0 -4.4,-1.046 -5.7,-3.296 -0.89,-1.5 -1.3,-3.25 -1.25,-6 h 16.2 m -16.15,-2.157 c 0,-3.5 1.6,-8.5 5.81,-8.5 3,0 5,2.657 5,6.703 0,1.407 -0.46,1.797 -2.06,1.797 h -8.75"
       id="path100" />
    <path
       class="Lyrics"
       d="m 602.769,547.567 -9.25,0.563 v 2.14 h 2.453 c 1.844,0.047 2.094,0.36 2.094,2.5 v 27.86 c -0.047,0.75 -0.094,1.047 -0.297,1.297 -0.359,0.453 -1.297,0.656 -3.453,0.703 h -0.344 v 1.797 h 12.938 v -1.797 h -0.344 c -3.344,-0.11 -3.797,-0.36 -3.797,-2.157 v -32.906 m 28.391,20.766 c 0,-3.156 -0.547,-4.75 -2,-5.953 -1.641,-1.36 -4.094,-2 -7.297,-2 -5.641,0 -9.75,2.64 -9.75,6.297 0,1.843 1.156,3.046 2.906,3.046 1.594,0 2.703,-1.046 2.703,-2.546 0,-0.657 -0.25,-1.344 -0.75,-2.047 -0.312,-0.36 -0.359,-0.453 -0.359,-0.703 0,-1 2,-1.907 4.406,-1.907 1.594,0 3.344,0.5 4.141,1.25 0.953,0.813 1.312,2 1.312,4.25 v 1.953 c -5.203,0.907 -6.859,1.297 -9.312,2.25 -4.344,1.61 -6.391,3.907 -6.391,7.11 0,3.594 2.797,5.844 7.25,5.844 3.453,0 6.547,-1.407 8.703,-3.954 0.797,2.547 2.047,3.547 4.391,3.547 2.25,0 4.609,-1.437 4.609,-2.89 0,-0.36 -0.203,-0.61 -0.5,-0.61 -0.203,0 -0.406,0.063 -0.75,0.203 -0.703,0.297 -1,0.36 -1.406,0.36 -1.406,0 -1.906,-0.906 -1.906,-3.453 v -10.047 m -4.688,6.094 c 0,3 -0.156,3.703 -1,5 -1.25,1.843 -3.5,3.093 -5.703,3.093 -2.297,0 -3.953,-1.64 -3.953,-3.89 0,-2.11 1.047,-3.61 3.25,-4.657 1.547,-0.703 3.5,-1.203 7.406,-1.843 v 2.297"
       id="path101" />
    <path
       class="Lyrics"
       d="m 713.405,561.13 v -9.907 h -2.047 c -0.5,6.5 -2.703,9.797 -6.75,10.11 v 1.937 h 4.094 v 12.75 c 0,3.5 0.094,4.75 0.594,5.907 0.812,2.093 2.812,3.25 5.703,3.25 4.5,0 7.406,-3.407 7.406,-8.704 0,-0.296 0,-0.64 -0.047,-1.14 h -2.109 c -0.141,4.5 -1.453,6.797 -3.891,6.797 -1.156,0 -2.156,-0.61 -2.5,-1.453 -0.312,-0.704 -0.453,-1.954 -0.453,-3.75 V 563.27 h 7.344 v -2.14 h -7.344 m 17.25,-12.453 c -1.609,0 -2.906,1.296 -2.906,2.89 0,1.61 1.297,2.906 2.859,2.906 1.641,0 2.938,-1.296 2.938,-2.906 0,-1.594 -1.297,-2.89 -2.891,-2.89 m 2.344,12.453 -9.391,0.547 v 2.156 h 2.547 c 1.891,0.047 2.141,0.344 2.141,2.5 v 14.297 c -0.047,0.75 -0.094,1.047 -0.297,1.297 -0.344,0.453 -1.297,0.656 -3.453,0.703 h -0.344 v 1.797 h 12.953 v -1.797 h -0.359 c -3.344,-0.11 -3.797,-0.36 -3.797,-2.157 V 561.13"
       id="path102" />
    <path
       class="Lyrics"
       d="m 2545.63,561.13 v -9.907 h -2.05 c -0.5,6.5 -2.7,9.797 -6.75,10.11 v 1.937 h 4.1 v 12.75 c 0,3.5 0.09,4.75 0.59,5.907 0.81,2.093 2.81,3.25 5.7,3.25 4.5,0 7.41,-3.407 7.41,-8.704 0,-0.296 0,-0.64 -0.05,-1.14 h -2.11 c -0.14,4.5 -1.45,6.797 -3.89,6.797 -1.15,0 -2.15,-0.61 -2.5,-1.453 -0.31,-0.704 -0.45,-1.954 -0.45,-3.75 V 563.27 h 7.34 v -2.14 h -7.34 m 17.25,-12.453 c -1.61,0 -2.91,1.296 -2.91,2.89 0,1.61 1.3,2.906 2.86,2.906 1.64,0 2.94,-1.296 2.94,-2.906 0,-1.594 -1.3,-2.89 -2.89,-2.89 m 2.34,12.453 -9.39,0.547 v 2.156 h 2.55 c 1.89,0.047 2.14,0.344 2.14,2.5 v 14.297 c -0.05,0.75 -0.09,1.047 -0.3,1.297 -0.34,0.453 -1.29,0.656 -3.45,0.703 h -0.34 v 1.797 h 12.95 v -1.797 h -0.36 c -3.34,-0.11 -3.8,-0.36 -3.8,-2.157 V 561.13"
       id="path103" />
    <path
       class="Lyrics"
       d="m 775.118,584.77 8.704,-0.343 v -2.157 h -0.907 c -2.843,-0.14 -3.093,-0.437 -3.093,-3.64 v -31.063 l -9.797,0.563 v 2.14 h 2.937 c 1.906,0.047 2.156,0.36 2.156,2.5 v 11.313 c -1.843,-2.563 -4,-3.703 -6.906,-3.703 -5.64,0 -9.937,5.453 -9.937,12.64 0,7.11 4.14,12.157 9.937,12.157 3.156,0 5.313,-1.344 6.906,-4.344 v 3.937 m -5.906,-21.687 c 2.063,0 4,1.5 4.906,3.797 0.657,1.5 0.954,3.547 0.954,6 0,5.843 -2.297,9.593 -5.907,9.593 -3.547,0 -5.64,-3.296 -5.64,-8.843 0,-3 0.297,-5.25 0.937,-6.907 0.86,-2.25 2.703,-3.64 4.75,-3.64 m 28.5,-2.703 c -6.14,0 -10.89,5.453 -10.89,12.453 0,6.844 4.796,12.344 10.796,12.344 6,0 10.797,-5.5 10.797,-12.407 0,-6.843 -4.797,-12.39 -10.703,-12.39 m 0,2.14 c 3.5,0 5.453,3.657 5.453,10.25 0,6.657 -1.953,10.25 -5.547,10.25 -3.593,0 -5.546,-3.593 -5.546,-10.187 0,-6.813 1.89,-10.313 5.64,-10.313"
       id="path104" />
    <path
       class="Lyrics"
       d="m 832.941,561.13 -8.86,0.547 v 2.156 h 2.047 c 1.907,0.047 2.157,0.344 2.157,2.5 v 14.297 c -0.047,0.75 -0.094,1.047 -0.297,1.297 -0.36,0.453 -1.36,0.656 -3.5,0.703 h -0.203 v 1.797 h 13.343 v -1.797 h -0.89 c -3.36,-0.11 -3.797,-0.36 -3.797,-2.157 v -2.703 c 0.047,-8.39 3.047,-14.797 6.937,-15 -0.687,0.813 -0.89,1.313 -0.89,2.25 0,1.61 1.14,2.75 2.75,2.75 1.843,0 3.047,-1.343 3.047,-3.343 0,-2.454 -1.704,-4.047 -4.344,-4.047 -3.156,0 -5.86,2.5 -7.5,6.953 v -6.203 m 35.344,12.047 c 0.046,-7.5 -4.204,-12.797 -10.297,-12.797 -6.407,0 -11.203,5.547 -11.203,13.047 0,7.046 4.546,11.75 11.296,11.75 4.797,0 8.157,-2.344 10.204,-7.094 l -1.75,-0.953 c -2.047,3.843 -4.157,5.343 -7.5,5.343 -2.547,0 -4.407,-1.046 -5.704,-3.296 -0.89,-1.5 -1.296,-3.25 -1.25,-6 h 16.204 m -16.157,-2.157 c 0,-3.5 1.61,-8.5 5.813,-8.5 3,0 5,2.657 5,6.703 0,1.407 -0.453,1.797 -2.063,1.797 h -8.75"
       id="path105" />
    <path
       class="Lyrics"
       d="M 2087.75,560.583 H 2086 l -1.45,1.797 c -1.8,-1.407 -3.59,-2 -6.09,-2 -4.41,0 -7.3,2.843 -7.3,7.25 0,4.703 3.05,5.89 7.05,6.843 l 2.64,0.61 c 3.95,0.937 5.36,1.937 5.36,3.937 0,2.36 -2.05,4 -4.96,4 -4.25,0 -7.25,-2.687 -8.45,-7.687 h -2 v 9.437 h 1.75 l 1.75,-2.047 c 2.05,1.657 4.3,2.454 6.86,2.454 4.89,0 8.14,-3.047 8.14,-7.704 0,-2.203 -0.7,-3.89 -2.09,-5.046 -1.21,-1.047 -2.21,-1.454 -5.25,-2.094 l -2.5,-0.563 c -2.75,-0.593 -2.75,-0.593 -3.66,-1.093 -1.09,-0.5 -1.75,-1.547 -1.75,-2.657 0,-2.047 1.91,-3.437 4.66,-3.437 4.09,0 6.09,2.89 7.29,6.39 h 1.75 v -8.39 m 16.1,-0.203 c -6.14,0 -10.89,5.453 -10.89,12.453 0,6.844 4.79,12.344 10.79,12.344 6,0 10.8,-5.5 10.8,-12.407 0,-6.843 -4.8,-12.39 -10.7,-12.39 m 0,2.14 c 3.5,0 5.45,3.657 5.45,10.25 0,6.657 -1.95,10.25 -5.55,10.25 -3.59,0 -5.54,-3.593 -5.54,-10.187 0,-6.813 1.89,-10.313 5.64,-10.313 m 22.61,-14.953 -9.25,0.563 v 2.14 h 2.45 c 1.84,0.047 2.09,0.36 2.09,2.5 v 27.86 c -0.04,0.75 -0.09,1.047 -0.29,1.297 -0.36,0.453 -1.3,0.656 -3.46,0.703 h -0.34 v 1.797 h 12.94 v -1.797 h -0.35 c -3.34,-0.11 -3.79,-0.36 -3.79,-2.157 v -32.906"
       id="path106" />
    <path
       class="Lyrics"
       d="m 902.154,561.13 v -9.907 h -2.047 c -0.5,6.5 -2.703,9.797 -6.75,10.11 v 1.937 h 4.094 v 12.75 c 0,3.5 0.093,4.75 0.593,5.907 0.813,2.093 2.813,3.25 5.704,3.25 4.5,0 7.406,-3.407 7.406,-8.704 0,-0.296 0,-0.64 -0.047,-1.14 h -2.109 c -0.141,4.5 -1.454,6.797 -3.891,6.797 -1.156,0 -2.156,-0.61 -2.5,-1.453 -0.313,-0.704 -0.453,-1.954 -0.453,-3.75 V 563.27 h 7.344 v -2.14 h -7.344 m 17.25,-12.453 c -1.61,0 -2.906,1.296 -2.906,2.89 0,1.61 1.296,2.906 2.859,2.906 1.641,0 2.937,-1.296 2.937,-2.906 0,-1.594 -1.296,-2.89 -2.89,-2.89 m 2.344,12.453 -9.391,0.547 v 2.156 h 2.547 c 1.89,0.047 2.14,0.344 2.14,2.5 v 14.297 c -0.046,0.75 -0.093,1.047 -0.296,1.297 -0.344,0.453 -1.297,0.656 -3.454,0.703 h -0.343 v 1.797 h 12.953 v -1.797 h -0.36 c -3.343,-0.11 -3.796,-0.36 -3.796,-2.157 V 561.13"
       id="path107" />
    <path
       class="Lyrics"
       d="m 1007.09,584.77 8.7,-0.343 v -2.157 h -0.91 c -2.84,-0.14 -3.09,-0.437 -3.09,-3.64 v -31.063 l -9.8,0.563 v 2.14 h 2.94 c 1.91,0.047 2.16,0.36 2.16,2.5 v 11.313 c -1.85,-2.563 -4,-3.703 -6.91,-3.703 -5.64,0 -9.937,5.453 -9.937,12.64 0,7.11 4.141,12.157 9.937,12.157 3.16,0 5.31,-1.344 6.91,-4.344 v 3.937 m -5.91,-21.687 c 2.06,0 4,1.5 4.91,3.797 0.65,1.5 0.95,3.547 0.95,6 0,5.843 -2.3,9.593 -5.91,9.593 -3.543,0 -5.637,-3.296 -5.637,-8.843 0,-3 0.297,-5.25 0.938,-6.907 0.859,-2.25 2.703,-3.64 4.749,-3.64 m 28.5,-2.703 c -6.14,0 -10.89,5.453 -10.89,12.453 0,6.844 4.8,12.344 10.8,12.344 6,0 10.79,-5.5 10.79,-12.407 0,-6.843 -4.79,-12.39 -10.7,-12.39 m 0,2.14 c 3.5,0 5.45,3.657 5.45,10.25 0,6.657 -1.95,10.25 -5.54,10.25 -3.6,0 -5.55,-3.593 -5.55,-10.187 0,-6.813 1.89,-10.313 5.64,-10.313"
       id="path108" />
    <path
       class="Lyrics"
       d="m 2650.56,584.77 8.71,-0.343 v -2.157 h -0.91 c -2.84,-0.14 -3.09,-0.437 -3.09,-3.64 v -31.063 l -9.8,0.563 v 2.14 h 2.94 c 1.9,0.047 2.15,0.36 2.15,2.5 v 11.313 c -1.84,-2.563 -4,-3.703 -6.9,-3.703 -5.64,0 -9.94,5.453 -9.94,12.64 0,7.11 4.14,12.157 9.94,12.157 3.15,0 5.31,-1.344 6.9,-4.344 v 3.937 m -5.9,-21.687 c 2.06,0 4,1.5 4.9,3.797 0.66,1.5 0.96,3.547 0.96,6 0,5.843 -2.3,9.593 -5.91,9.593 -3.55,0 -5.64,-3.296 -5.64,-8.843 0,-3 0.3,-5.25 0.94,-6.907 0.86,-2.25 2.7,-3.64 4.75,-3.64 m 28.5,-2.703 c -6.14,0 -10.89,5.453 -10.89,12.453 0,6.844 4.79,12.344 10.79,12.344 6,0 10.8,-5.5 10.8,-12.407 0,-6.843 -4.8,-12.39 -10.7,-12.39 m 0,2.14 c 3.5,0 5.45,3.657 5.45,10.25 0,6.657 -1.95,10.25 -5.55,10.25 -3.59,0 -5.54,-3.593 -5.54,-10.187 0,-6.813 1.89,-10.313 5.64,-10.313"
       id="path109" />
    <path
       class="Tempo"
       d="m 473.073,250.143 h -3.266 v 42.265 c -1.094,-0.687 -2.484,-1.094 -4.062,-1.281 -3.563,0 -6.438,0.391 -9.61,2.172 -3.953,2.078 -8.312,6.437 -8.312,11.281 0,4.75 4.265,7.031 8.609,7.031 6.938,0 16.641,-5.937 16.641,-13.468 v -48"
       id="path110" />
    <path
       class="Tempo"
       d="m 494.807,288.096 h 30.234 v -6.907 h -30.234 v 6.907 m 0,12.359 h 30.234 v -6.906 h -30.234 v 6.906 m 72.078,-14.219 c 0,5.688 -0.234,17.453 -8.281,17.453 -1.266,0 -1.984,-0.421 -1.984,-1.203 0,-0.359 0.125,-0.718 0.359,-1.078 1.078,-1.734 1.203,-2.094 1.203,-3.422 0,-2.875 -2.031,-4.859 -5.031,-4.859 -3.313,0 -5.703,2.531 -5.703,6 0,4.687 4.375,7.687 11.156,7.687 13.625,0 18.844,-12.125 18.844,-24 0,-5.515 -1.203,-9.609 -3.719,-13.015 -3.063,-4.094 -7.438,-6.313 -12.484,-6.313 -8.704,0 -15,6.063 -15,14.407 0,7.078 5.046,12.296 11.875,12.296 3.718,0 6.25,-1.14 8.765,-3.953 m -5.156,-19.625 c 4.375,0 4.922,7.375 4.922,10.438 0,5.281 -1.922,8.64 -4.985,8.64 -4.75,0 -5.046,-5.75 -5.046,-9.171 0,-6.547 1.75,-9.907 5.109,-9.907 m 34.234,-3.125 c -9,0 -15.593,9.188 -15.593,21.672 0,12.469 6.593,21.656 15.593,21.656 8.813,0 15.547,-9.187 15.547,-21.359 0,-7.078 -1.625,-12.297 -5.172,-16.75 -2.812,-3.406 -6.359,-5.219 -10.375,-5.219 m -0.062,3.125 c 1.797,0 3.25,1.078 3.906,3 0.781,1.985 1.25,8.282 1.25,15.719 0,6.188 -0.469,12.656 -1.016,14.703 -0.656,2.391 -2.093,3.656 -4.14,3.656 -1.86,0 -3.235,-1.015 -3.953,-3 -0.782,-1.984 -1.266,-8.343 -1.266,-15.531 0,-6.312 0.484,-12.844 1.016,-14.89 0.672,-2.391 2.109,-3.657 4.203,-3.657"
       id="path111" />
    <path
       class="StaffText"
       d="m 705.086,325.289 v 2.36 h 0.906 c 2.844,0.046 3.797,0.203 4.188,0.703 0.312,0.437 0.312,0.547 0.312,3.093 v 23.797 c 0,2.563 0,2.657 -0.312,3.11 -0.391,0.5 -1.344,0.703 -4.188,0.703 h -0.906 v 2.344 h 18.156 c 8.641,0 13.844,-3.657 13.844,-9.797 0,-5 -3.141,-7.86 -10,-9.047 2.406,-0.5 3.5,-0.953 4.797,-1.906 2.062,-1.547 3.312,-4 3.312,-6.5 0,-3.25 -2,-6.407 -4.906,-7.657 -1.797,-0.797 -4.297,-1.203 -7.25,-1.203 h -17.953 m 11,16.266 v -11.406 c 0,-1.954 0.656,-2.454 3.297,-2.5 h 2 c 4.906,0 8,1.593 8,7.046 0,4.954 -2.391,6.86 -8.844,6.86 h -4.453 m 0,2.344 h 4.406 c 7.641,0 10.453,2.046 10.453,7.546 0,6.704 -4.203,7.61 -9.859,7.61 h -2.094 c -2.5,0 -3,-0.5 -2.906,-3.156 v -12"
       id="path112" />
    <path
       class="StaffText"
       d="m 2261.83,324.574 h -2.11 l -11.5,29.14 c -1.34,3.907 -2.64,5.11 -5.5,5.313 h -0.2 v 2.344 h 13.25 v -2.344 h -1 c -2.69,0 -4.05,-0.953 -4.05,-2.859 0,-0.641 0.16,-1.25 0.46,-2.094 l 1.65,-4.406 h 13.25 l 2.71,6.703 c 0.29,0.797 0.39,1.093 0.39,1.343 0,0.813 -1.25,1.313 -3.1,1.313 h -2.11 v 2.344 h 15.5 v -2.344 h -0.68 c -2.61,-0.063 -3.07,-0.359 -4.21,-3.203 l -12.75,-31.25 m -2.45,8.187 5.64,14.203 h -11.19 l 5.55,-14.203"
       id="path113" />
    <path
       class="StaffText"
       d="m 618.356,324.574 h -2.109 l -11.5,29.14 c -1.344,3.907 -2.641,5.11 -5.5,5.313 h -0.204 v 2.344 h 13.25 v -2.344 h -1 c -2.687,0 -4.046,-0.953 -4.046,-2.859 0,-0.641 0.156,-1.25 0.453,-2.094 l 1.656,-4.406 h 13.25 l 2.703,6.703 c 0.297,0.797 0.391,1.093 0.391,1.343 0,0.813 -1.25,1.313 -3.094,1.313 h -2.109 v 2.344 h 15.5 v -2.344 h -0.688 c -2.609,-0.063 -3.062,-0.359 -4.203,-3.203 l -12.75,-31.25 m -2.453,8.187 5.64,14.203 h -11.187 l 5.547,-14.203"
       id="path114" />
    <path
       class="StaffText"
       d="m 566.034,324.945 h -1.891 l -1.953,3 c -3.25,-2.546 -5.453,-3.406 -9.11,-3.406 -3.953,0 -7.046,1.11 -10.203,3.656 -4.937,4 -7.25,9.047 -7.25,15.797 0,5.11 1.453,9.36 4.407,12.61 3.093,3.5 7.703,5.547 12.5,5.547 4.203,0 7.156,-1.297 10.406,-4.547 l 1.844,4.5 h 2.109 v -11 c 0,-2.547 0,-2.657 0.297,-3.11 0.453,-0.547 1.344,-0.687 4.203,-0.687 h 0.75 v -2.36 h -15.906 v 2.36 h 0.953 c 4.203,0 4.547,0.25 4.547,3.047 0,2.14 -0.344,4.093 -1,5.297 -1.25,2.453 -4.453,4.156 -7.703,4.156 -3.25,0 -6.454,-1.656 -8.157,-4.156 -1.843,-2.797 -2.64,-6.297 -2.64,-11.657 0,-11.14 3.703,-17.093 10.64,-17.093 5.703,0 9.657,4.093 11.703,12.093 h 2.157 l -0.703,-14.047"
       id="path115" />
    <path
       class="StaffText"
       d="m 1355.77,324.945 h -1.91 l -2,2.954 c -3.64,-2.657 -5.5,-3.36 -8.95,-3.36 -4.75,0 -8.8,2 -12.14,6 -3.21,3.813 -4.71,8.016 -4.71,13.156 0,10.797 7.05,18.454 16.91,18.454 8,0 13.09,-4.704 14.25,-13.094 l -2.36,-0.406 c -1.34,7.453 -5.14,11.156 -11.3,11.156 -7.4,0 -10.9,-5.11 -10.9,-15.906 0,-5.704 0.75,-9.454 2.45,-12.454 1.55,-2.796 4.61,-4.546 7.86,-4.546 3.5,0 6.59,1.843 8.5,5.046 0.95,1.657 1.64,3.5 2.84,7.454 h 2.21 l -0.75,-14.454"
       id="path116" />
    <path
       class="StaffText"
       d="m 1935.49,324.602 h -2.11 l -11.5,29.14 c -1.34,3.907 -2.64,5.11 -5.5,5.313 h -0.2 v 2.344 h 13.25 v -2.344 h -1 c -2.69,0 -4.05,-0.953 -4.05,-2.86 0,-0.64 0.16,-1.25 0.45,-2.093 l 1.66,-4.407 h 13.25 l 2.7,6.704 c 0.3,0.796 0.39,1.093 0.39,1.343 0,0.813 -1.25,1.313 -3.09,1.313 h -2.11 v 2.344 h 15.5 v -2.344 h -0.69 c -2.61,-0.063 -3.06,-0.36 -4.2,-3.203 l -12.75,-31.25 m -2.45,8.187 5.64,14.203 h -11.19 l 5.55,-14.203"
       id="path117" />
    <path
       class="StaffText"
       d="m 1263.4,325.289 v 2.36 h 0.9 c 2.85,0.046 3.8,0.203 4.19,0.703 0.31,0.437 0.31,0.547 0.31,3.093 v 23.797 c 0,2.563 0,2.657 -0.31,3.11 -0.39,0.5 -1.34,0.703 -4.19,0.703 h -0.9 v 2.344 h 18.15 c 8.64,0 13.85,-3.657 13.85,-9.797 0,-5 -3.14,-7.86 -10,-9.047 2.4,-0.5 3.5,-0.953 4.79,-1.906 2.07,-1.547 3.32,-4 3.32,-6.5 0,-3.25 -2,-6.407 -4.91,-7.657 -1.8,-0.797 -4.3,-1.203 -7.25,-1.203 h -17.95 m 11,16.266 v -11.406 c 0,-1.954 0.65,-2.454 3.29,-2.5 h 2 c 4.91,0 8,1.593 8,7.046 0,4.954 -2.39,6.86 -8.84,6.86 h -4.45 m 0,2.344 h 4.4 c 7.64,0 10.46,2.046 10.46,7.546 0,6.704 -4.21,7.61 -9.86,7.61 h -2.1 c -2.5,0 -3,-0.5 -2.9,-3.156 v -12"
       id="path118" />
    <path
       class="StaffText"
       d="m 2348.56,325.289 v 2.36 h 0.91 c 2.84,0.046 3.8,0.203 4.19,0.703 0.31,0.437 0.31,0.547 0.31,3.093 v 23.797 c 0,2.563 0,2.657 -0.31,3.11 -0.39,0.5 -1.35,0.703 -4.19,0.703 h -0.91 v 2.344 h 18.16 c 8.64,0 13.84,-3.657 13.84,-9.797 0,-5 -3.14,-7.86 -10,-9.047 2.41,-0.5 3.5,-0.953 4.8,-1.906 2.06,-1.547 3.31,-4 3.31,-6.5 0,-3.25 -2,-6.407 -4.9,-7.657 -1.8,-0.797 -4.3,-1.203 -7.25,-1.203 h -17.96 m 11,16.266 v -11.406 c 0,-1.954 0.66,-2.454 3.3,-2.5 h 2 c 4.91,0 8,1.593 8,7.046 0,4.954 -2.39,6.86 -8.84,6.86 h -4.46 m 0,2.344 h 4.41 c 7.64,0 10.45,2.046 10.45,7.546 0,6.704 -4.2,7.61 -9.86,7.61 h -2.09 c -2.5,0 -3,-0.5 -2.91,-3.156 v -12"
       id="path119" />
    <path
       class="StaffText"
       d="m 1452.15,325.289 v 2.36 h 0.9 c 2.85,0.046 3.8,0.203 4.19,0.703 0.31,0.437 0.31,0.547 0.31,3.093 v 23.797 c 0,2.563 0,2.657 -0.31,3.11 -0.39,0.5 -1.34,0.703 -4.19,0.703 h -0.9 v 2.344 h 18.15 c 8.64,0 13.85,-3.657 13.85,-9.797 0,-5 -3.14,-7.86 -10,-9.047 2.4,-0.5 3.5,-0.953 4.79,-1.906 2.07,-1.547 3.32,-4 3.32,-6.5 0,-3.25 -2,-6.407 -4.91,-7.657 -1.8,-0.797 -4.3,-1.203 -7.25,-1.203 h -17.95 m 11,16.266 v -11.406 c 0,-1.954 0.65,-2.454 3.29,-2.5 h 2 c 4.91,0 8,1.593 8,7.046 0,4.954 -2.39,6.86 -8.84,6.86 h -4.45 m 0,2.344 h 4.4 c 7.64,0 10.46,2.046 10.46,7.546 0,6.704 -4.21,7.61 -9.86,7.61 h -2.1 c -2.5,0 -3,-0.5 -2.9,-3.156 v -12"
       id="path120" />
    <path
       class="StaffText"
       d="m 2008.45,324.945 h -1.9 l -2,2.954 c -3.64,-2.657 -5.5,-3.36 -8.96,-3.36 -4.75,0 -8.79,2 -12.14,6 -3.2,3.813 -4.7,8.016 -4.7,13.156 0,10.797 7.05,18.454 16.91,18.454 8,0 13.09,-4.704 14.25,-13.094 l -2.36,-0.406 c -1.35,7.453 -5.14,11.156 -11.3,11.156 -7.41,0 -10.91,-5.11 -10.91,-15.906 0,-5.704 0.75,-9.454 2.46,-12.454 1.54,-2.796 4.61,-4.546 7.86,-4.546 3.5,0 6.59,1.843 8.5,5.046 0.95,1.657 1.64,3.5 2.84,7.454 h 2.2 l -0.75,-14.454"
       id="path121" />
    <path
       class="StaffText"
       d="m 1672.06,324.602 h -2.11 l -11.5,29.14 c -1.34,3.907 -2.64,5.11 -5.5,5.313 h -0.2 v 2.344 H 1666 v -2.344 h -1 c -2.69,0 -4.05,-0.953 -4.05,-2.86 0,-0.64 0.16,-1.25 0.46,-2.093 l 1.65,-4.407 h 13.25 l 2.71,6.704 c 0.29,0.796 0.39,1.093 0.39,1.343 0,0.813 -1.25,1.313 -3.1,1.313 h -2.11 v 2.344 h 15.5 v -2.344 h -0.68 c -2.61,-0.063 -3.07,-0.36 -4.21,-3.203 l -12.75,-31.25 m -2.45,8.187 5.64,14.203 h -11.19 l 5.55,-14.203"
       id="path122" />
    <path
       class="StaffText"
       d="m 2440.93,324.945 h -1.9 l -2,2.954 c -3.64,-2.657 -5.5,-3.36 -8.96,-3.36 -4.75,0 -8.79,2 -12.14,6 -3.2,3.813 -4.7,8.016 -4.7,13.156 0,10.797 7.05,18.454 16.91,18.454 8,0 13.09,-4.704 14.25,-13.094 l -2.36,-0.406 c -1.35,7.453 -5.14,11.156 -11.3,11.156 -7.41,0 -10.91,-5.11 -10.91,-15.906 0,-5.704 0.75,-9.454 2.46,-12.454 1.54,-2.796 4.61,-4.546 7.86,-4.546 3.5,0 6.59,1.843 8.5,5.046 0.95,1.657 1.64,3.5 2.84,7.454 h 2.2 l -0.75,-14.454"
       id="path123" />
    <path
       class="StaffText"
       d="m 1176.67,324.574 h -2.11 l -11.5,29.14 c -1.35,3.907 -2.64,5.11 -5.5,5.313 h -0.2 v 2.344 h 13.25 v -2.344 h -1 c -2.69,0 -4.05,-0.953 -4.05,-2.859 0,-0.641 0.15,-1.25 0.45,-2.094 l 1.66,-4.406 h 13.25 l 2.7,6.703 c 0.3,0.797 0.39,1.093 0.39,1.343 0,0.813 -1.25,1.313 -3.09,1.313 h -2.11 v 2.344 h 15.5 v -2.344 h -0.69 c -2.61,-0.063 -3.06,-0.359 -4.2,-3.203 l -12.75,-31.25 m -2.46,8.187 5.65,14.203 h -11.19 l 5.54,-14.203"
       id="path124" />
    <path
       class="StaffText"
       d="m 1124.35,324.945 h -1.9 l -1.95,3 c -3.25,-2.546 -5.45,-3.406 -9.11,-3.406 -3.95,0 -7.04,1.11 -10.2,3.656 -4.94,4 -7.25,9.047 -7.25,15.797 0,5.11 1.45,9.36 4.41,12.61 3.09,3.5 7.7,5.547 12.5,5.547 4.2,0 7.15,-1.297 10.4,-4.547 l 1.85,4.5 h 2.1 v -11 c 0,-2.547 0,-2.657 0.3,-3.11 0.45,-0.547 1.35,-0.687 4.2,-0.687 h 0.75 v -2.36 h -15.9 v 2.36 h 0.95 c 4.2,0 4.55,0.25 4.55,3.047 0,2.14 -0.35,4.093 -1,5.297 -1.25,2.453 -4.45,4.156 -7.7,4.156 -3.25,0 -6.46,-1.656 -8.16,-4.156 -1.84,-2.797 -2.64,-6.297 -2.64,-11.657 0,-11.14 3.7,-17.093 10.64,-17.093 5.7,0 9.66,4.093 11.7,12.093 h 2.16 l -0.7,-14.047"
       id="path125" />
    <path
       class="StaffText"
       d="m 1587.74,324.945 h -1.91 l -2,2.954 c -3.64,-2.657 -5.5,-3.36 -8.95,-3.36 -4.75,0 -8.8,2 -12.14,6 -3.21,3.813 -4.71,8.016 -4.71,13.156 0,10.797 7.05,18.454 16.91,18.454 8,0 13.09,-4.704 14.25,-13.094 l -2.36,-0.406 c -1.34,7.453 -5.14,11.156 -11.3,11.156 -7.4,0 -10.9,-5.11 -10.9,-15.906 0,-5.704 0.75,-9.454 2.45,-12.454 1.55,-2.796 4.61,-4.546 7.86,-4.546 3.5,0 6.59,1.843 8.5,5.046 0.95,1.657 1.64,3.5 2.84,7.454 h 2.21 l -0.75,-14.454"
       id="path126" />
    <path
       class="StaffText"
       d="m 1745.03,324.945 h -1.91 l -2,2.954 c -3.64,-2.657 -5.5,-3.36 -8.95,-3.36 -4.75,0 -8.8,2 -12.14,6 -3.21,3.813 -4.71,8.016 -4.71,13.156 0,10.797 7.05,18.454 16.91,18.454 8,0 13.09,-4.704 14.25,-13.094 l -2.36,-0.406 c -1.34,7.453 -5.14,11.156 -11.3,11.156 -7.4,0 -10.9,-5.11 -10.9,-15.906 0,-5.704 0.75,-9.454 2.45,-12.454 1.55,-2.796 4.61,-4.546 7.86,-4.546 3.5,0 6.59,1.843 8.5,5.046 0.95,1.657 1.64,3.5 2.84,7.454 h 2.21 l -0.75,-14.454"
       id="path127" />
    <path
       class="StaffText"
       d="m 2474.35,361.399 h 16.8 c 4.45,0 7.85,-0.704 10.5,-2.204 5.04,-2.843 7.85,-8.546 7.85,-16.046 0,-6.907 -2.5,-12.297 -7.1,-15.297 -2.75,-1.75 -6.46,-2.563 -12.16,-2.563 h -15.89 v 2.36 h 0.95 c 2.8,0.046 3.75,0.203 4.14,0.703 0.3,0.437 0.3,0.547 0.3,3.093 v 23.797 c 0,2.563 0,2.657 -0.3,3.11 -0.39,0.5 -1.34,0.64 -4.14,0.703 h -0.95 v 2.344 m 13.84,-2.344 c -2.54,0 -2.84,-0.313 -2.84,-2.75 v -25.86 c 0,-2.453 0.34,-2.796 2.84,-2.796 h 2.61 c 8.55,0 12.1,4.64 12.1,15.703 0,11.203 -3.21,15.703 -11.3,15.703 h -3.41"
       id="path128" />
    <path
       class="StaffText"
       d="m 2115.14,323.945 h -1.89 l -1.96,3 c -3.25,-2.546 -5.45,-3.406 -9.11,-3.406 -3.95,0 -7.04,1.11 -10.2,3.656 -4.94,4 -7.25,9.047 -7.25,15.797 0,5.11 1.45,9.36 4.41,12.61 3.09,3.5 7.7,5.547 12.5,5.547 4.2,0 7.15,-1.297 10.4,-4.547 l 1.85,4.5 h 2.11 v -11 c 0,-2.547 0,-2.657 0.29,-3.11 0.46,-0.547 1.35,-0.687 4.21,-0.687 h 0.75 v -2.36 h -15.91 v 2.36 h 0.95 c 4.21,0 4.55,0.25 4.55,3.047 0,2.14 -0.34,4.093 -1,5.297 -1.25,2.453 -4.45,4.156 -7.7,4.156 -3.25,0 -6.46,-1.656 -8.16,-4.156 -1.84,-2.797 -2.64,-6.297 -2.64,-11.657 0,-11.14 3.7,-17.093 10.64,-17.093 5.7,0 9.66,4.093 11.7,12.093 h 2.16 l -0.7,-14.047"
       id="path129" />
    <path
       class="StaffText"
       d="m 1029.42,324.945 h -1.9 l -2,2.954 c -3.64,-2.657 -5.5,-3.36 -8.96,-3.36 -4.75,0 -8.79,2 -12.14,6 -3.2,3.813 -4.699,8.016 -4.699,13.156 0,10.797 7.049,18.454 16.909,18.454 8,0 13.09,-4.704 14.25,-13.094 l -2.36,-0.406 c -1.35,7.453 -5.14,11.156 -11.3,11.156 -7.41,0 -10.91,-5.11 -10.91,-15.906 0,-5.704 0.75,-9.454 2.46,-12.454 1.54,-2.796 4.61,-4.546 7.86,-4.546 3.5,0 6.59,1.843 8.5,5.046 0.95,1.657 1.64,3.5 2.84,7.454 h 2.2 l -0.75,-14.454"
       id="path130" />
    <path
       class="StaffText"
       d="m 893.835,325.289 v 2.36 h 0.906 c 2.844,0.046 3.797,0.203 4.187,0.703 0.313,0.437 0.313,0.547 0.313,3.093 v 23.797 c 0,2.563 0,2.657 -0.313,3.11 -0.39,0.5 -1.343,0.703 -4.187,0.703 h -0.906 v 2.344 h 18.156 c 8.64,0 13.844,-3.657 13.844,-9.797 0,-5 -3.141,-7.86 -10,-9.047 2.406,-0.5 3.5,-0.953 4.796,-1.906 2.063,-1.547 3.313,-4 3.313,-6.5 0,-3.25 -2,-6.407 -4.906,-7.657 -1.797,-0.797 -4.297,-1.203 -7.25,-1.203 h -17.953 m 11,16.266 v -11.406 c 0,-1.954 0.656,-2.454 3.296,-2.5 h 2 c 4.907,0 8,1.593 8,7.046 0,4.954 -2.39,6.86 -8.843,6.86 h -4.453 m 0,2.344 h 4.406 c 7.64,0 10.453,2.046 10.453,7.546 0,6.704 -4.203,7.61 -9.859,7.61 h -2.094 c -2.5,0 -3,-0.5 -2.906,-3.156 v -12"
       id="path131" />
    <path
       class="StaffText"
       d="m 2537.31,325.289 v 2.36 h 0.91 c 2.84,0.046 3.79,0.203 4.19,0.703 0.31,0.437 0.31,0.547 0.31,3.093 v 23.797 c 0,2.563 0,2.657 -0.31,3.11 -0.4,0.5 -1.35,0.703 -4.19,0.703 h -0.91 v 2.344 h 18.16 c 8.64,0 13.84,-3.657 13.84,-9.797 0,-5 -3.14,-7.86 -10,-9.047 2.41,-0.5 3.5,-0.953 4.8,-1.906 2.06,-1.547 3.31,-4 3.31,-6.5 0,-3.25 -2,-6.407 -4.91,-7.657 -1.79,-0.797 -4.29,-1.203 -7.25,-1.203 h -17.95 m 11,16.266 v -11.406 c 0,-1.954 0.66,-2.454 3.3,-2.5 h 2 c 4.9,0 8,1.593 8,7.046 0,4.954 -2.39,6.86 -8.85,6.86 h -4.45 m 0,2.344 h 4.41 c 7.64,0 10.45,2.046 10.45,7.546 0,6.704 -4.2,7.61 -9.86,7.61 h -2.09 c -2.5,0 -3,-0.5 -2.91,-3.156 v -12"
       id="path132" />
    <path
       class="StaffText"
       d="m 830.872,361.399 h 16.796 c 4.454,0 7.86,-0.704 10.5,-2.204 5.047,-2.843 7.86,-8.546 7.86,-16.046 0,-6.907 -2.5,-12.297 -7.11,-15.297 -2.75,-1.75 -6.453,-2.563 -12.156,-2.563 h -15.89 v 2.36 h 0.953 c 2.797,0.046 3.75,0.203 4.14,0.703 0.297,0.437 0.297,0.547 0.297,3.093 v 23.797 c 0,2.563 0,2.657 -0.297,3.11 -0.39,0.5 -1.343,0.64 -4.14,0.703 h -0.953 v 2.344 m 13.843,-2.344 c -2.547,0 -2.843,-0.313 -2.843,-2.75 v -25.86 c 0,-2.453 0.343,-2.796 2.843,-2.796 h 2.61 c 8.547,0 12.093,4.64 12.093,15.703 0,11.203 -3.203,15.703 -11.296,15.703 h -3.407"
       id="path133" />
    <path
       class="StaffText"
       d="m 797.455,324.945 h -1.906 l -2,2.954 c -3.64,-2.657 -5.5,-3.36 -8.953,-3.36 -4.75,0 -8.797,2 -12.141,6 -3.203,3.813 -4.703,8.016 -4.703,13.156 0,10.797 7.047,18.454 16.907,18.454 8,0 13.093,-4.704 14.25,-13.094 l -2.36,-0.406 c -1.344,7.453 -5.14,11.156 -11.297,11.156 -7.406,0 -10.906,-5.11 -10.906,-15.906 0,-5.704 0.75,-9.454 2.453,-12.454 1.547,-2.796 4.61,-4.546 7.86,-4.546 3.5,0 6.593,1.843 8.5,5.046 0.953,1.657 1.64,3.5 2.843,7.454 h 2.203 l -0.75,-14.454"
       id="path134" />
    <path
       class="StaffText"
       d="m 2209.51,324.945 h -1.89 l -1.95,3 c -3.25,-2.546 -5.46,-3.406 -9.11,-3.406 -3.96,0 -7.05,1.11 -10.21,3.656 -4.93,4 -7.25,9.047 -7.25,15.797 0,5.11 1.46,9.36 4.41,12.61 3.09,3.5 7.7,5.547 12.5,5.547 4.2,0 7.16,-1.297 10.41,-4.547 l 1.84,4.5 h 2.11 v -11 c 0,-2.547 0,-2.657 0.3,-3.11 0.45,-0.547 1.34,-0.687 4.2,-0.687 h 0.75 v -2.36 h -15.91 v 2.36 h 0.96 c 4.2,0 4.54,0.25 4.54,3.047 0,2.14 -0.34,4.093 -1,5.297 -1.25,2.453 -4.45,4.156 -7.7,4.156 -3.25,0 -6.45,-1.656 -8.16,-4.156 -1.84,-2.797 -2.64,-6.297 -2.64,-11.657 0,-11.14 3.71,-17.093 10.64,-17.093 5.71,0 9.66,4.093 11.71,12.093 h 2.15 l -0.7,-14.047"
       id="path135" />
    <path
       class="StaffText"
       d="m 1389.18,361.399 h 16.8 c 4.45,0 7.86,-0.704 10.5,-2.204 5.05,-2.843 7.86,-8.546 7.86,-16.046 0,-6.907 -2.5,-12.297 -7.11,-15.297 -2.75,-1.75 -6.45,-2.563 -12.16,-2.563 h -15.89 v 2.36 h 0.96 c 2.79,0.046 3.75,0.203 4.14,0.703 0.29,0.437 0.29,0.547 0.29,3.093 v 23.797 c 0,2.563 0,2.657 -0.29,3.11 -0.39,0.5 -1.35,0.64 -4.14,0.703 h -0.96 v 2.344 m 13.85,-2.344 c -2.55,0 -2.85,-0.313 -2.85,-2.75 v -25.86 c 0,-2.453 0.35,-2.796 2.85,-2.796 h 2.61 c 8.54,0 12.09,4.64 12.09,15.703 0,11.203 -3.2,15.703 -11.3,15.703 h -3.4"
       id="path136" />
    <path
       class="StaffText"
       d="m 2672.9,324.945 h -1.91 l -2,2.954 c -3.64,-2.657 -5.5,-3.36 -8.95,-3.36 -4.75,0 -8.8,2 -12.14,6 -3.2,3.813 -4.7,8.016 -4.7,13.156 0,10.797 7.04,18.454 16.9,18.454 8,0 13.1,-4.704 14.25,-13.094 l -2.36,-0.406 c -1.34,7.453 -5.14,11.156 -11.29,11.156 -7.41,0 -10.91,-5.11 -10.91,-15.906 0,-5.704 0.75,-9.454 2.45,-12.454 1.55,-2.796 4.61,-4.546 7.86,-4.546 3.5,0 6.6,1.843 8.5,5.046 0.96,1.657 1.64,3.5 2.85,7.454 h 2.2 l -0.75,-14.454"
       id="path137" />
    <path
       class="StaffText"
       d="m 1851.71,323.945 h -1.89 l -1.95,3 c -3.25,-2.546 -5.46,-3.406 -9.11,-3.406 -3.96,0 -7.05,1.11 -10.21,3.656 -4.93,4 -7.25,9.047 -7.25,15.797 0,5.11 1.46,9.36 4.41,12.61 3.09,3.5 7.7,5.547 12.5,5.547 4.2,0 7.16,-1.297 10.41,-4.547 l 1.84,4.5 h 2.11 v -11 c 0,-2.547 0,-2.657 0.3,-3.11 0.45,-0.547 1.34,-0.687 4.2,-0.687 h 0.75 v -2.36 h -15.91 v 2.36 h 0.96 c 4.2,0 4.54,0.25 4.54,3.047 0,2.14 -0.34,4.093 -1,5.297 -1.25,2.453 -4.45,4.156 -7.7,4.156 -3.25,0 -6.45,-1.656 -8.16,-4.156 -1.84,-2.797 -2.64,-6.297 -2.64,-11.657 0,-11.14 3.71,-17.093 10.64,-17.093 5.71,0 9.66,4.093 11.71,12.093 h 2.15 l -0.7,-14.047"
       id="path138" />
  </g>
  <metadata
     id="metadata138">
    <rdf:RDF>
      <cc:Work
         rdf:about="">
        <dc:title>40</dc:title>
      </cc:Work>
    </rdf:RDF>
  </metadata>
</svg>
