<?xml version="1.0" encoding="UTF-8" standalone="no"?>
<svg
   width="2555"
   height="700"
   viewBox="0 0 2555 700.00003"
   version="1.2"
   id="svg147"
   sodipodi:docname="54-1.svg"
   inkscape:version="1.3 (0e150ed6c4, 2023-07-21)"
   xmlns:inkscape="http://www.inkscape.org/namespaces/inkscape"
   xmlns:sodipodi="http://sodipodi.sourceforge.net/DTD/sodipodi-0.dtd"
   xmlns="http://www.w3.org/2000/svg"
   xmlns:svg="http://www.w3.org/2000/svg"
   xmlns:rdf="http://www.w3.org/1999/02/22-rdf-syntax-ns#"
   xmlns:cc="http://creativecommons.org/ns#"
   xmlns:dc="http://purl.org/dc/elements/1.1/">
  <defs
     id="defs147" />
  <sodipodi:namedview
     id="namedview147"
     pagecolor="#505050"
     bordercolor="#ffffff"
     borderopacity="1"
     inkscape:showpageshadow="0"
     inkscape:pageopacity="0"
     inkscape:pagecheckerboard="1"
     inkscape:deskcolor="#505050"
     inkscape:zoom="0.18605646"
     inkscape:cx="1488.7954"
     inkscape:cy="2104.2"
     inkscape:window-width="1680"
     inkscape:window-height="979"
     inkscape:window-x="1358"
     inkscape:window-y="-8"
     inkscape:window-maximized="1"
     inkscape:current-layer="svg147" />
  <title
     id="title1">54</title>
  <desc
     id="desc1">Generated by MuseScore Studio 4.3.0</desc>
  <g
     id="g149"
     transform="translate(-211.099,-213.40098)">
    <g
       id="g147"
       transform="translate(0,-317.10804)">
      <polyline
         class="StaffLines"
         fill="none"
         stroke="#000000"
         stroke-width="2.73"
         stroke-linejoin="bevel"
         points="212.598,993.799 572.408,993.799"
         id="polyline6" />
      <polyline
         class="StaffLines"
         fill="none"
         stroke="#000000"
         stroke-width="2.73"
         stroke-linejoin="bevel"
         points="212.598,1018.6 572.408,1018.6"
         id="polyline7" />
      <polyline
         class="StaffLines"
         fill="none"
         stroke="#000000"
         stroke-width="2.73"
         stroke-linejoin="bevel"
         points="212.598,1043.4 572.408,1043.4"
         id="polyline8" />
      <polyline
         class="StaffLines"
         fill="none"
         stroke="#000000"
         stroke-width="2.73"
         stroke-linejoin="bevel"
         points="212.598,1068.2 572.408,1068.2"
         id="polyline9" />
      <polyline
         class="StaffLines"
         fill="none"
         stroke="#000000"
         stroke-width="2.73"
         stroke-linejoin="bevel"
         points="212.598,1093 572.408,1093"
         id="polyline10" />
      <path
         class="MeasureNumber"
         d="m 227.63,929.402 c 3.125,-1.484 6.046,-3.125 6.046,-7.125 0,-3.64 -3.078,-6.234 -7.359,-6.234 -5.156,0 -9.156,3.719 -9.156,8.563 0,2.437 0.844,4 3,5.562 -4.719,1.797 -7.25,4.719 -7.25,8.359 0,3.875 3.203,6.266 8.328,6.266 6.156,0 10.562,-3.75 10.562,-8.953 0,-3.156 -1.718,-4.844 -4.171,-6.438 m -1.719,-0.953 c -4.078,-1.922 -5.547,-3.484 -5.547,-5.765 0,-2.766 2.469,-4.922 5.625,-4.922 2.766,0 4.687,1.765 4.687,4.281 0,3 -2.078,5.359 -4.765,6.406 m -4.235,2.797 c 1.922,0.875 2.563,1.188 3.563,1.797 2,1.203 3.078,2.797 3.078,4.594 0,3.078 -2.875,5.406 -6.641,5.406 -3.406,0 -5.515,-1.922 -5.515,-5 0,-3 1.922,-5.359 5.515,-6.797"
         id="path10" />
      <polyline
         class="BarLine"
         fill="none"
         stroke="#000000"
         stroke-width="4.46"
         stroke-linejoin="bevel"
         points="547.36,992.435 547.36,1094.36"
         id="polyline16" />
      <polyline
         class="BarLine"
         fill="none"
         stroke="#000000"
         stroke-width="13.64"
         stroke-linejoin="bevel"
         points="565.588,992.435 565.588,1094.36"
         id="polyline17" />
      <polyline
         class="LedgerLine"
         fill="none"
         stroke="#000000"
         stroke-width="3.97"
         stroke-linejoin="bevel"
         points="348.495,1117.8 397.095,1117.8"
         id="polyline22" />
      <polyline
         class="LedgerLine"
         fill="none"
         stroke="#000000"
         stroke-width="3.97"
         stroke-linejoin="bevel"
         points="423.874,1117.8 472.475,1117.8"
         id="polyline24" />
      <polyline
         class="Stem"
         fill="none"
         stroke="#000000"
         stroke-width="2.48"
         stroke-linejoin="bevel"
         points="387.671,1113.83 387.671,1031"
         id="polyline34" />
      <polyline
         class="Stem"
         fill="none"
         stroke="#000000"
         stroke-width="2.48"
         stroke-linejoin="bevel"
         points="463.051,1113.83 463.051,1031"
         id="polyline35" />
      <path
         class="Note"
         transform="matrix(0.992001,0,0,0.992001,356.679,1117.8)"
         d="M 0,4.20313 C 0,8.5 3.09375,13.2969 11.2031,13.2969 21.5938,13.2969 32.5,4.79688 32.5,-4 c 0,-5.90625 -5,-9.2031 -11.2031,-9.2031 C 11.5938,-13.2031 0,-5 0,4.20313"
         id="path54" />
      <path
         class="Note"
         transform="matrix(0.992001,0,0,0.992001,432.058,1117.8)"
         d="M 21.2969,-13.2031 C 11.5938,-13.2031 0,-5.09375 0,4.20313 0,8.5 3.09375,13.2969 11.2031,13.2969 21.5938,13.2969 32.5,4.79688 32.5,-4 c 0,-5.90625 -5,-9.2031 -11.2031,-9.2031 M 7.5,8.59375 C 4.20313,8.59375 3.5,5.90625 3.5,5 3.5,0.09375 20.2969,-8.5 25,-8.5 c 2.4063,0 4,1.40625 4,3.59375 0,5 -16.9062,13.5 -21.5,13.5"
         id="path58" />
      <path
         class="Clef"
         transform="matrix(0.992001,0,0,0.992001,231.198,1068.2)"
         d="m 12.2969,51.2969 c 0,6.6094 5,15.3125 18.5,15.3125 4.7031,0 8.8125,-1.2031 12.4062,-3.4063 C 48.6094,59.4063 50,52.7969 50,46.5 c 0,-3.8906 -0.5937,-8.3906 -1.5937,-14.0937 -0.2969,-2 -0.9063,-5 -1.5,-8.9063 C 56.7031,20.2969 64,10.0938 64,-0.203125 64,-15.2969 53.2969,-25.5 38.7031,-25.5 c -1,-6 -2,-11.9063 -2.7968,-17.5 10.5,-11.1094 17.7968,-23.6094 17.7968,-39.5 0,-9.1094 -2.7968,-16.5 -4.4062,-20.109 -2.3906,-5.094 -5.2969,-8.594 -7.0938,-8.594 -0.7031,0 -3.7968,1.203 -7.0937,5.094 -6.4063,7.609 -8.2031,20.4059 -8.2031,28.7965 0,5.4062 0.5,10.3125 2.2031,21.5156 -0.1094,0.0938 -5.3125,5.3906 -7.4063,7.0938 C 12.5938,-40.2969 0,-28.1094 0,-8.09375 0,10.5938 16.2969,25.2969 34.9063,25.2969 c 2.8906,0 5.5937,-0.2969 7.8906,-0.7031 1.9062,9.6093 3.1094,16.6093 3.1094,21.9062 0,10.4063 -5.4063,15.9063 -15.5,15.9063 -2.4063,0 -4.5,-0.5 -4.7032,-0.5 -0.0937,-0.1094 -0.2968,-0.2032 -0.2968,-0.2969 0,-0.2031 0.2031,-0.3125 0.5,-0.3125 C 30.6094,60.5 35.2969,56.5 35.2969,50.1094 35.2969,44.7031 31.2031,39 23.7031,39 c -7,0 -11.4062,5.7031 -11.4062,12.2969 m 20.9062,-133.5 c 0.9063,-4 5.5,-14.5 10.7032,-14.5 1.5,0 3.8906,4.7968 3.8906,11.7968 0,10.4063 -7.6875,18.2032 -14.5938,25 -0.5937,-4 -1.0937,-7.8906 -1.0937,-12.0937 0,-3.7031 0.2969,-7.1094 1.0937,-10.2031 M 42,20.5938 c -2,0.4062 -3.8906,0.6093 -5.7969,0.6093 -14.2968,0 -26.49997,-10 -26.49997,-25.10935 0,-12.18755 8.59377,-23.09375 17.40627,-30.70315 1.6875,-1.5 3.2969,-2.8906 4.7969,-4.3906 0.8906,5.3906 1.5937,10.0937 2.2968,14.2031 -9.1093,2.7031 -15.2968,12.2969 -15.2968,21.70315 0,7 5.5,16.59375 13.5,16.59375 0.7968,0 1.7031,-0.4062 1.7031,-1.2969 0,-0.9062 -1,-1.4062 -2.2031,-2.2031 C 28,7.59375 25.7969,5 25.7969,0.09375 25.7969,-6 30.4063,-10.9063 36.2031,-12.2969 L 42,20.5938 M 56.2031,2.09375 c 0,7.10938 -2.9062,14.40625 -10,17.31255 -2.0937,-12.00005 -4.7968,-27.9063 -5.5,-32.3126 9,0 15.5,6.10942 15.5,15.00005"
         id="path80" />
      <path
         class="Lyrics"
         d="m 364.295,1193.34 8.703,-0.35 v -2.15 h -0.906 c -2.844,-0.15 -3.094,-0.44 -3.094,-3.65 v -31.06 l -9.797,0.56 v 2.15 h 2.938 c 1.906,0.04 2.156,0.35 2.156,2.5 v 11.31 c -1.844,-2.56 -4,-3.71 -6.906,-3.71 -5.641,0 -9.938,5.46 -9.938,12.65 0,7.1 4.141,12.15 9.938,12.15 3.156,0 5.312,-1.34 6.906,-4.34 v 3.94 m -5.906,-21.69 c 2.062,0 4,1.5 4.906,3.79 0.656,1.5 0.953,3.55 0.953,6 0,5.85 -2.297,9.6 -5.906,9.6 -3.547,0 -5.641,-3.3 -5.641,-8.85 0,-3 0.297,-5.25 0.938,-6.9 0.859,-2.25 2.703,-3.64 4.75,-3.64 m 28.5,-2.71 c -6.141,0 -10.891,5.46 -10.891,12.46 0,6.84 4.797,12.34 10.797,12.34 6,0 10.797,-5.5 10.797,-12.4 0,-6.85 -4.797,-12.4 -10.703,-12.4 m 0,2.15 c 3.5,0 5.453,3.65 5.453,10.25 0,6.65 -1.953,10.25 -5.547,10.25 -3.594,0 -5.547,-3.6 -5.547,-10.19 0,-6.81 1.891,-10.31 5.641,-10.31"
         id="path112" />
      <path
         class="Lyrics"
         d="m 439.675,1193.34 8.703,-0.35 v -2.15 h -0.906 c -2.844,-0.15 -3.094,-0.44 -3.094,-3.65 v -31.06 l -9.797,0.56 v 2.15 h 2.937 c 1.907,0.04 2.157,0.35 2.157,2.5 v 11.31 c -1.844,-2.56 -4,-3.71 -6.907,-3.71 -5.64,0 -9.937,5.46 -9.937,12.65 0,7.1 4.141,12.15 9.937,12.15 3.157,0 5.313,-1.34 6.907,-4.34 v 3.94 m -5.907,-21.69 c 2.063,0 4,1.5 4.907,3.79 0.656,1.5 0.953,3.55 0.953,6 0,5.85 -2.297,9.6 -5.906,9.6 -3.547,0 -5.641,-3.3 -5.641,-8.85 0,-3 0.297,-5.25 0.937,-6.9 0.86,-2.25 2.704,-3.64 4.75,-3.64 m 28.5,-2.71 c -6.14,0 -10.89,5.46 -10.89,12.46 0,6.84 4.797,12.34 10.797,12.34 6,0 10.797,-5.5 10.797,-12.4 0,-6.85 -4.797,-12.4 -10.704,-12.4 m 0,2.15 c 3.5,0 5.454,3.65 5.454,10.25 0,6.65 -1.954,10.25 -5.547,10.25 -3.594,0 -5.547,-3.6 -5.547,-10.19 0,-6.81 1.89,-10.31 5.64,-10.31"
         id="path116" />
      <path
         class="StaffText"
         d="m 386.632,932.546 h -1.906 l -2,2.953 c -3.641,-2.656 -5.5,-3.359 -8.953,-3.359 -4.75,0 -8.797,2 -12.141,6 -3.203,3.812 -4.703,8.016 -4.703,13.156 0,10.797 7.047,18.453 16.906,18.453 8,0 13.094,-4.703 14.25,-13.093 l -2.359,-0.407 c -1.344,7.453 -5.141,11.157 -11.297,11.157 -7.406,0 -10.906,-5.11 -10.906,-15.907 0,-5.703 0.75,-9.453 2.453,-12.453 1.547,-2.797 4.609,-4.547 7.859,-4.547 3.5,0 6.594,1.844 8.5,5.047 0.953,1.656 1.641,3.5 2.844,7.453 h 2.203 l -0.75,-14.453"
         id="path141" />
      <path
         class="StaffText"
         d="m 462.012,932.546 h -1.907 l -2,2.953 c -3.64,-2.656 -5.5,-3.359 -8.953,-3.359 -4.75,0 -8.797,2 -12.14,6 -3.204,3.812 -4.704,8.016 -4.704,13.156 0,10.797 7.047,18.453 16.907,18.453 8,0 13.093,-4.703 14.25,-13.093 l -2.36,-0.407 c -1.343,7.453 -5.14,11.157 -11.297,11.157 -7.406,0 -10.906,-5.11 -10.906,-15.907 0,-5.703 0.75,-9.453 2.453,-12.453 1.547,-2.797 4.61,-4.547 7.86,-4.547 3.5,0 6.593,1.844 8.5,5.047 0.953,1.656 1.64,3.5 2.843,7.453 h 2.204 l -0.75,-14.453"
         id="path146" />
    </g>
    <g
       id="g148">
      <polyline
         class="StaffLines"
         fill="none"
         stroke="#000000"
         stroke-width="2.73"
         stroke-linejoin="bevel"
         points="336.599,386.199 2764.6,386.199"
         id="polyline1" />
      <polyline
         class="StaffLines"
         fill="none"
         stroke="#000000"
         stroke-width="2.73"
         stroke-linejoin="bevel"
         points="336.599,410.999 2764.6,410.999"
         id="polyline2" />
      <polyline
         class="StaffLines"
         fill="none"
         stroke="#000000"
         stroke-width="2.73"
         stroke-linejoin="bevel"
         points="336.599,435.799 2764.6,435.799"
         id="polyline3" />
      <polyline
         class="StaffLines"
         fill="none"
         stroke="#000000"
         stroke-width="2.73"
         stroke-linejoin="bevel"
         points="336.599,460.599 2764.6,460.599"
         id="polyline4" />
      <polyline
         class="StaffLines"
         fill="none"
         stroke="#000000"
         stroke-width="2.73"
         stroke-linejoin="bevel"
         points="336.599,485.399 2764.6,485.399"
         id="polyline5" />
      <polyline
         class="BarLine"
         fill="none"
         stroke="#000000"
         stroke-width="4.46"
         stroke-linejoin="bevel"
         points="843.992,384.835 843.992,486.763"
         id="polyline11" />
      <polyline
         class="BarLine"
         fill="none"
         stroke="#000000"
         stroke-width="4.46"
         stroke-linejoin="bevel"
         points="1172.14,384.835 1172.14,486.763"
         id="polyline12" />
      <polyline
         class="BarLine"
         fill="none"
         stroke="#000000"
         stroke-width="4.46"
         stroke-linejoin="bevel"
         points="2762.37,384.835 2762.37,486.763"
         id="polyline13" />
      <polyline
         class="BarLine"
         fill="none"
         stroke="#000000"
         stroke-width="4.46"
         stroke-linejoin="bevel"
         points="1504.07,384.835 1504.07,486.763"
         id="polyline14" />
      <polyline
         class="BarLine"
         fill="none"
         stroke="#000000"
         stroke-width="4.46"
         stroke-linejoin="bevel"
         points="1759.36,384.835 1759.36,486.763"
         id="polyline15" />
      <polyline
         class="BarLine"
         fill="none"
         stroke="#000000"
         stroke-width="4.46"
         stroke-linejoin="bevel"
         points="2102.29,384.835 2102.29,486.763"
         id="polyline18" />
      <polyline
         class="BarLine"
         fill="none"
         stroke="#000000"
         stroke-width="4.46"
         stroke-linejoin="bevel"
         points="2430.44,384.835 2430.44,486.763"
         id="polyline19" />
      <polyline
         class="LedgerLine"
         fill="none"
         stroke="#000000"
         stroke-width="3.97"
         stroke-linejoin="bevel"
         points="1785.65,510.199 1834.25,510.199"
         id="polyline20" />
      <polyline
         class="LedgerLine"
         fill="none"
         stroke="#000000"
         stroke-width="3.97"
         stroke-linejoin="bevel"
         points="527.35,510.199 575.95,510.199"
         id="polyline21" />
      <polyline
         class="LedgerLine"
         fill="none"
         stroke="#000000"
         stroke-width="3.97"
         stroke-linejoin="bevel"
         points="1406.22,510.199 1454.82,510.199"
         id="polyline23" />
      <polyline
         class="Stem"
         fill="none"
         stroke="#000000"
         stroke-width="2.48"
         stroke-linejoin="bevel"
         points="2284.33,444.231 2284.33,367.599"
         id="polyline25" />
      <polyline
         class="Stem"
         fill="none"
         stroke="#000000"
         stroke-width="2.48"
         stroke-linejoin="bevel"
         points="2371.77,456.631 2371.77,373.799"
         id="polyline26" />
      <polyline
         class="Stem"
         fill="none"
         stroke="#000000"
         stroke-width="2.48"
         stroke-linejoin="bevel"
         points="2495.9,469.031 2495.9,404.921"
         id="polyline27" />
      <polyline
         class="Stem"
         fill="none"
         stroke="#000000"
         stroke-width="2.48"
         stroke-linejoin="bevel"
         points="566.526,506.231 566.526,417.082"
         id="polyline28" />
      <polyline
         class="Stem"
         fill="none"
         stroke="#000000"
         stroke-width="2.48"
         stroke-linejoin="bevel"
         points="2556.08,481.431 2556.08,410.876"
         id="polyline29" />
      <polyline
         class="Stem"
         fill="none"
         stroke="#000000"
         stroke-width="2.48"
         stroke-linejoin="bevel"
         points="2616.26,493.831 2616.26,410.999"
         id="polyline30" />
      <polyline
         class="Stem"
         fill="none"
         stroke="#000000"
         stroke-width="2.48"
         stroke-linejoin="bevel"
         points="2703.7,481.431 2703.7,398.599"
         id="polyline31" />
      <polyline
         class="Stem"
         fill="none"
         stroke="#000000"
         stroke-width="2.48"
         stroke-linejoin="bevel"
         points="2226.04,444.231 2226.04,373.672"
         id="polyline32" />
      <polyline
         class="Stem"
         fill="none"
         stroke="#000000"
         stroke-width="2.48"
         stroke-linejoin="bevel"
         points="1237.61,469.031 1237.61,404.921"
         id="polyline33" />
      <polyline
         class="Stem"
         fill="none"
         stroke="#000000"
         stroke-width="2.48"
         stroke-linejoin="bevel"
         points="697.886,456.631 697.886,373.799"
         id="polyline36" />
      <polyline
         class="Stem"
         fill="none"
         stroke="#000000"
         stroke-width="2.48"
         stroke-linejoin="bevel"
         points="1824.82,506.231 1824.82,417.082"
         id="polyline37" />
      <polyline
         class="Stem"
         fill="none"
         stroke="#000000"
         stroke-width="2.48"
         stroke-linejoin="bevel"
         points="755.567,427.565 755.567,503.999"
         id="polyline38" />
      <polyline
         class="Stem"
         fill="none"
         stroke="#000000"
         stroke-width="2.48"
         stroke-linejoin="bevel"
         points="1569.54,444.231 1569.54,367.599"
         id="polyline39" />
      <polyline
         class="Stem"
         fill="none"
         stroke="#000000"
         stroke-width="2.48"
         stroke-linejoin="bevel"
         points="2167.75,431.831 2167.75,367.725"
         id="polyline40" />
      <polyline
         class="Stem"
         fill="none"
         stroke="#000000"
         stroke-width="2.48"
         stroke-linejoin="bevel"
         points="909.457,431.831 909.457,367.725"
         id="polyline41" />
      <polyline
         class="Stem"
         fill="none"
         stroke="#000000"
         stroke-width="2.48"
         stroke-linejoin="bevel"
         points="967.746,444.231 967.746,373.672"
         id="polyline42" />
      <polyline
         class="Stem"
         fill="none"
         stroke="#000000"
         stroke-width="2.48"
         stroke-linejoin="bevel"
         points="1026.03,444.231 1026.03,367.599"
         id="polyline43" />
      <polyline
         class="Stem"
         fill="none"
         stroke="#000000"
         stroke-width="2.48"
         stroke-linejoin="bevel"
         points="2013.87,427.565 2013.87,503.999"
         id="polyline44" />
      <polyline
         class="Stem"
         fill="none"
         stroke="#000000"
         stroke-width="2.48"
         stroke-linejoin="bevel"
         points="1113.47,456.631 1113.47,373.799"
         id="polyline45" />
      <polyline
         class="Stem"
         fill="none"
         stroke="#000000"
         stroke-width="2.48"
         stroke-linejoin="bevel"
         points="1956.18,456.631 1956.18,373.799"
         id="polyline46" />
      <polyline
         class="Stem"
         fill="none"
         stroke="#000000"
         stroke-width="2.48"
         stroke-linejoin="bevel"
         points="629.706,481.431 629.706,411.116"
         id="polyline47" />
      <polyline
         class="Stem"
         fill="none"
         stroke="#000000"
         stroke-width="2.48"
         stroke-linejoin="bevel"
         points="1656.97,456.631 1656.97,373.799"
         id="polyline48" />
      <polyline
         class="Stem"
         fill="none"
         stroke="#000000"
         stroke-width="2.48"
         stroke-linejoin="bevel"
         points="1297.79,481.431 1297.79,410.876"
         id="polyline49" />
      <polyline
         class="Stem"
         fill="none"
         stroke="#000000"
         stroke-width="2.48"
         stroke-linejoin="bevel"
         points="1888,481.431 1888,411.116"
         id="polyline50" />
      <polyline
         class="Stem"
         fill="none"
         stroke="#000000"
         stroke-width="2.48"
         stroke-linejoin="bevel"
         points="1357.97,493.831 1357.97,410.999"
         id="polyline51" />
      <polyline
         class="Stem"
         fill="none"
         stroke="#000000"
         stroke-width="2.48"
         stroke-linejoin="bevel"
         points="1445.4,506.231 1445.4,423.399"
         id="polyline52" />
      <path
         class="Note"
         transform="matrix(0.992001,0,0,0.992001,2464.91,472.999)"
         d="M 0,4.20313 C 0,8.5 3.09375,13.2969 11.2031,13.2969 21.5938,13.2969 32.5,4.79688 32.5,-4 c 0,-5.90625 -5,-9.2031 -11.2031,-9.2031 C 11.5938,-13.2031 0,-5 0,4.20313"
         id="path52" />
      <path
         class="Note"
         transform="matrix(0.992001,0,0,0.992001,878.464,435.799)"
         d="M 0,4.20313 C 0,8.5 3.09375,13.2969 11.2031,13.2969 21.5938,13.2969 32.5,4.79688 32.5,-4 c 0,-5.90625 -5,-9.2031 -11.2031,-9.2031 C 11.5938,-13.2031 0,-5 0,4.20313"
         id="path53" />
      <path
         class="Note"
         transform="matrix(0.992001,0,0,0.992001,535.534,510.199)"
         d="M 0,4.20313 C 0,8.5 3.09375,13.2969 11.2031,13.2969 21.5938,13.2969 32.5,4.79688 32.5,-4 c 0,-5.90625 -5,-9.2031 -11.2031,-9.2031 C 11.5938,-13.2031 0,-5 0,4.20313"
         id="path55" />
      <path
         class="Note"
         transform="matrix(0.992001,0,0,0.992001,1082.48,460.599)"
         d="M 0,4.20313 C 0,8.5 3.09375,13.2969 11.2031,13.2969 21.5938,13.2969 32.5,4.79688 32.5,-4 c 0,-5.90625 -5,-9.2031 -11.2031,-9.2031 C 11.5938,-13.2031 0,-5 0,4.20313"
         id="path56" />
      <path
         class="Note"
         transform="matrix(0.992001,0,0,0.992001,754.327,423.399)"
         d="M 0,4.20313 C 0,8.5 3.09375,13.2969 11.2031,13.2969 21.5938,13.2969 32.5,4.79688 32.5,-4 c 0,-5.90625 -5,-9.2031 -11.2031,-9.2031 C 11.5938,-13.2031 0,-5 0,4.20313"
         id="path57" />
      <path
         class="Note"
         transform="matrix(0.992001,0,0,0.992001,598.714,485.399)"
         d="M 0,4.20313 C 0,8.5 3.09375,13.2969 11.2031,13.2969 21.5938,13.2969 32.5,4.79688 32.5,-4 c 0,-5.90625 -5,-9.2031 -11.2031,-9.2031 C 11.5938,-13.2031 0,-5 0,4.20313"
         id="path59" />
      <path
         class="Note"
         transform="matrix(0.992001,0,0,0.992001,2136.76,435.799)"
         d="M 0,4.20313 C 0,8.5 3.09375,13.2969 11.2031,13.2969 21.5938,13.2969 32.5,4.79688 32.5,-4 c 0,-5.90625 -5,-9.2031 -11.2031,-9.2031 C 11.5938,-13.2031 0,-5 0,4.20313"
         id="path60" />
      <path
         class="Note"
         transform="matrix(0.992001,0,0,0.992001,1414.41,510.199)"
         d="M 0,4.20313 C 0,8.5 3.09375,13.2969 11.2031,13.2969 21.5938,13.2969 32.5,4.79688 32.5,-4 c 0,-5.90625 -5,-9.2031 -11.2031,-9.2031 C 11.5938,-13.2031 0,-5 0,4.20313"
         id="path61" />
      <path
         class="Note"
         transform="matrix(0.992001,0,0,0.992001,1925.19,460.599)"
         d="M 0,4.20313 C 0,8.5 3.09375,13.2969 11.2031,13.2969 21.5938,13.2969 32.5,4.79688 32.5,-4 c 0,-5.90625 -5,-9.2031 -11.2031,-9.2031 C 11.5938,-13.2031 0,-5 0,4.20313"
         id="path62" />
      <path
         class="Note"
         transform="matrix(0.992001,0,0,0.992001,2195.05,448.199)"
         d="M 0,4.20313 C 0,8.5 3.09375,13.2969 11.2031,13.2969 21.5938,13.2969 32.5,4.79688 32.5,-4 c 0,-5.90625 -5,-9.2031 -11.2031,-9.2031 C 11.5938,-13.2031 0,-5 0,4.20313"
         id="path63" />
      <path
         class="Note"
         transform="matrix(0.992001,0,0,0.992001,1266.79,485.399)"
         d="M 0,4.20313 C 0,8.5 3.09375,13.2969 11.2031,13.2969 21.5938,13.2969 32.5,4.79688 32.5,-4 c 0,-5.90625 -5,-9.2031 -11.2031,-9.2031 C 11.5938,-13.2031 0,-5 0,4.20313"
         id="path64" />
      <path
         class="Note"
         transform="matrix(0.992001,0,0,0.992001,2253.34,448.199)"
         d="M 0,4.20313 C 0,8.5 3.09375,13.2969 11.2031,13.2969 21.5938,13.2969 32.5,4.79688 32.5,-4 c 0,-5.90625 -5,-9.2031 -11.2031,-9.2031 C 11.5938,-13.2031 0,-5 0,4.20313"
         id="path65" />
      <path
         class="Note"
         transform="matrix(0.992001,0,0,0.992001,1625.98,460.599)"
         d="M 21.2969,-13.2031 C 11.5938,-13.2031 0,-5.09375 0,4.20313 0,8.5 3.09375,13.2969 11.2031,13.2969 21.5938,13.2969 32.5,4.79688 32.5,-4 c 0,-5.90625 -5,-9.2031 -11.2031,-9.2031 M 7.5,8.59375 C 4.20313,8.59375 3.5,5.90625 3.5,5 3.5,0.09375 20.2969,-8.5 25,-8.5 c 2.4063,0 4,1.40625 4,3.59375 0,5 -16.9062,13.5 -21.5,13.5"
         id="path66" />
      <path
         class="Note"
         transform="matrix(0.992001,0,0,0.992001,2340.77,460.599)"
         d="M 0,4.20313 C 0,8.5 3.09375,13.2969 11.2031,13.2969 21.5938,13.2969 32.5,4.79688 32.5,-4 c 0,-5.90625 -5,-9.2031 -11.2031,-9.2031 C 11.5938,-13.2031 0,-5 0,4.20313"
         id="path67" />
      <path
         class="Note"
         transform="matrix(0.992001,0,0,0.992001,995.042,448.199)"
         d="M 0,4.20313 C 0,8.5 3.09375,13.2969 11.2031,13.2969 21.5938,13.2969 32.5,4.79688 32.5,-4 c 0,-5.90625 -5,-9.2031 -11.2031,-9.2031 C 11.5938,-13.2031 0,-5 0,4.20313"
         id="path68" />
      <path
         class="Note"
         transform="matrix(0.992001,0,0,0.992001,936.753,448.199)"
         d="M 0,4.20313 C 0,8.5 3.09375,13.2969 11.2031,13.2969 21.5938,13.2969 32.5,4.79688 32.5,-4 c 0,-5.90625 -5,-9.2031 -11.2031,-9.2031 C 11.5938,-13.2031 0,-5 0,4.20313"
         id="path69" />
      <path
         class="Note"
         transform="matrix(0.992001,0,0,0.992001,1206.61,472.999)"
         d="M 0,4.20313 C 0,8.5 3.09375,13.2969 11.2031,13.2969 21.5938,13.2969 32.5,4.79688 32.5,-4 c 0,-5.90625 -5,-9.2031 -11.2031,-9.2031 C 11.5938,-13.2031 0,-5 0,4.20313"
         id="path70" />
      <path
         class="Note"
         transform="matrix(0.992001,0,0,0.992001,666.894,460.599)"
         d="M 0,4.20313 C 0,8.5 3.09375,13.2969 11.2031,13.2969 21.5938,13.2969 32.5,4.79688 32.5,-4 c 0,-5.90625 -5,-9.2031 -11.2031,-9.2031 C 11.5938,-13.2031 0,-5 0,4.20313"
         id="path71" />
      <path
         class="Note"
         transform="matrix(0.992001,0,0,0.992001,1857.01,485.399)"
         d="M 0,4.20313 C 0,8.5 3.09375,13.2969 11.2031,13.2969 21.5938,13.2969 32.5,4.79688 32.5,-4 c 0,-5.90625 -5,-9.2031 -11.2031,-9.2031 C 11.5938,-13.2031 0,-5 0,4.20313"
         id="path72" />
      <path
         class="Note"
         transform="matrix(0.992001,0,0,0.992001,2525.09,485.399)"
         d="M 0,4.20313 C 0,8.5 3.09375,13.2969 11.2031,13.2969 21.5938,13.2969 32.5,4.79688 32.5,-4 c 0,-5.90625 -5,-9.2031 -11.2031,-9.2031 C 11.5938,-13.2031 0,-5 0,4.20313"
         id="path73" />
      <path
         class="Note"
         transform="matrix(0.992001,0,0,0.992001,1326.97,497.799)"
         d="M 0,4.20313 C 0,8.5 3.09375,13.2969 11.2031,13.2969 21.5938,13.2969 32.5,4.79688 32.5,-4 c 0,-5.90625 -5,-9.2031 -11.2031,-9.2031 C 11.5938,-13.2031 0,-5 0,4.20313"
         id="path74" />
      <path
         class="Note"
         transform="matrix(0.992001,0,0,0.992001,2585.27,497.799)"
         d="M 0,4.20313 C 0,8.5 3.09375,13.2969 11.2031,13.2969 21.5938,13.2969 32.5,4.79688 32.5,-4 c 0,-5.90625 -5,-9.2031 -11.2031,-9.2031 C 11.5938,-13.2031 0,-5 0,4.20313"
         id="path75" />
      <path
         class="Note"
         transform="matrix(0.992001,0,0,0.992001,2012.63,423.399)"
         d="M 0,4.20313 C 0,8.5 3.09375,13.2969 11.2031,13.2969 21.5938,13.2969 32.5,4.79688 32.5,-4 c 0,-5.90625 -5,-9.2031 -11.2031,-9.2031 C 11.5938,-13.2031 0,-5 0,4.20313"
         id="path76" />
      <path
         class="Note"
         transform="matrix(0.992001,0,0,0.992001,2672.7,485.399)"
         d="M 0,4.20313 C 0,8.5 3.09375,13.2969 11.2031,13.2969 21.5938,13.2969 32.5,4.79688 32.5,-4 c 0,-5.90625 -5,-9.2031 -11.2031,-9.2031 C 11.5938,-13.2031 0,-5 0,4.20313"
         id="path77" />
      <path
         class="Note"
         transform="matrix(0.992001,0,0,0.992001,1793.83,510.199)"
         d="M 0,4.20313 C 0,8.5 3.09375,13.2969 11.2031,13.2969 21.5938,13.2969 32.5,4.79688 32.5,-4 c 0,-5.90625 -5,-9.2031 -11.2031,-9.2031 C 11.5938,-13.2031 0,-5 0,4.20313"
         id="path78" />
      <path
         class="Note"
         transform="matrix(0.992001,0,0,0.992001,1538.54,448.199)"
         d="M 0,4.20313 C 0,8.5 3.09375,13.2969 11.2031,13.2969 21.5938,13.2969 32.5,4.79688 32.5,-4 c 0,-5.90625 -5,-9.2031 -11.2031,-9.2031 C 11.5938,-13.2031 0,-5 0,4.20313"
         id="path79" />
      <path
         class="Clef"
         transform="matrix(0.992001,0,0,0.992001,355.199,460.599)"
         d="m 12.2969,51.2969 c 0,6.6094 5,15.3125 18.5,15.3125 4.7031,0 8.8125,-1.2031 12.4062,-3.4063 C 48.6094,59.4063 50,52.7969 50,46.5 c 0,-3.8906 -0.5937,-8.3906 -1.5937,-14.0937 -0.2969,-2 -0.9063,-5 -1.5,-8.9063 C 56.7031,20.2969 64,10.0938 64,-0.203125 64,-15.2969 53.2969,-25.5 38.7031,-25.5 c -1,-6 -2,-11.9063 -2.7968,-17.5 10.5,-11.1094 17.7968,-23.6094 17.7968,-39.5 0,-9.1094 -2.7968,-16.5 -4.4062,-20.109 -2.3906,-5.094 -5.2969,-8.594 -7.0938,-8.594 -0.7031,0 -3.7968,1.203 -7.0937,5.094 -6.4063,7.609 -8.2031,20.4059 -8.2031,28.7965 0,5.4062 0.5,10.3125 2.2031,21.5156 -0.1094,0.0938 -5.3125,5.3906 -7.4063,7.0938 C 12.5938,-40.2969 0,-28.1094 0,-8.09375 0,10.5938 16.2969,25.2969 34.9063,25.2969 c 2.8906,0 5.5937,-0.2969 7.8906,-0.7031 1.9062,9.6093 3.1094,16.6093 3.1094,21.9062 0,10.4063 -5.4063,15.9063 -15.5,15.9063 -2.4063,0 -4.5,-0.5 -4.7032,-0.5 -0.0937,-0.1094 -0.2968,-0.2032 -0.2968,-0.2969 0,-0.2031 0.2031,-0.3125 0.5,-0.3125 C 30.6094,60.5 35.2969,56.5 35.2969,50.1094 35.2969,44.7031 31.2031,39 23.7031,39 c -7,0 -11.4062,5.7031 -11.4062,12.2969 m 20.9062,-133.5 c 0.9063,-4 5.5,-14.5 10.7032,-14.5 1.5,0 3.8906,4.7968 3.8906,11.7968 0,10.4063 -7.6875,18.2032 -14.5938,25 -0.5937,-4 -1.0937,-7.8906 -1.0937,-12.0937 0,-3.7031 0.2969,-7.1094 1.0937,-10.2031 M 42,20.5938 c -2,0.4062 -3.8906,0.6093 -5.7969,0.6093 -14.2968,0 -26.49997,-10 -26.49997,-25.10935 0,-12.18755 8.59377,-23.09375 17.40627,-30.70315 1.6875,-1.5 3.2969,-2.8906 4.7969,-4.3906 0.8906,5.3906 1.5937,10.0937 2.2968,14.2031 -9.1093,2.7031 -15.2968,12.2969 -15.2968,21.70315 0,7 5.5,16.59375 13.5,16.59375 0.7968,0 1.7031,-0.4062 1.7031,-1.2969 0,-0.9062 -1,-1.4062 -2.2031,-2.2031 C 28,7.59375 25.7969,5 25.7969,0.09375 25.7969,-6 30.4063,-10.9063 36.2031,-12.2969 L 42,20.5938 M 56.2031,2.09375 c 0,7.10938 -2.9062,14.40625 -10,17.31255 -2.0937,-12.00005 -4.7968,-27.9063 -5.5,-32.3126 9,0 15.5,6.10942 15.5,15.00005"
         id="path81" />
      <path
         class="TimeSig"
         transform="matrix(0.992001,0,0,0.992001,445.998,411.495)"
         d="m 27.2031,-1.59375 c 5,-1.90625 8.5,-5.10938 8.5,-10.60935 0,-0.8907 -0.2968,-12.2032 -17.5,-12.2032 C 1,-24.4063 1.5,-12.2031 1.5,-12.2031 H 1.59375 L 1.5,-12 c 0,3.59375 2.90625,6.40625 6.5,6.40625 3.5938,0 6.4063,-2.8125 6.4063,-6.40625 0,-2.9063 -2.2032,-5.7031 -5.00005,-6.2969 0.09375,-0.1094 0.1875,-0.2031 0.29688,-0.2969 1.39067,-1 3.29687,-1.5 5.20317,-1.5 4.1875,0 8.6875,2.5 8.6875,7.8907 0,6.29685 -4.6875,7.2031 -5.8907,7.40622 -1.2031,0.20313 -6.7968,0.59375 -7.99997,0.59375 -1.20313,0 -1.29688,1.40625 -1.29688,1.40625 v 2.000005 c 0,0 0.1875,1.09375 1.29688,1.203125 C 11.4063,0.5 13.7031,0.5 16.9063,1 c 4.3906,0.59375 6.6875,3.59375 6.6875,10.5938 0,6.7031 -4.5,8.5 -8.6875,8.5 C 12.0938,20.0938 9.5,19.2969 8.40625,18.5 11.7031,18.2969 14.4063,15.4063 14.4063,12.0938 14.4063,8.5 11.5938,5.59375 8,5.59375 4.40625,5.59375 1.5,8.5 1.5,12.0938 c 0,8.2031 7.5,12.3125 14.9063,12.3125 9.5937,0 20,-3.3125 20,-14.2032 0,-7.29685 -5,-10.406225 -9.4063,-11.79685 h 0.2031"
         id="path82" />
      <path
         class="TimeSig"
         transform="matrix(0.992001,0,0,0.992001,442.092,460.599)"
         d="m 20.7969,12.7031 v 7.3907 H 12.5 c -0.7031,0 -1.4062,0.6093 -1.4062,1.4062 v 1.9063 c 0,0.7968 0.7031,1.3906 1.4062,1.3906 h 30.2969 c 0.8125,0 1.4062,-0.5938 1.4062,-1.3906 V 21.5 c 0,-0.7969 -0.5937,-1.4062 -1.4062,-1.4062 h -8.8906 v -7.3907 h 8.8906 c 0.8125,0 1.4062,-0.7031 1.4062,-1.5 V 9.29688 c 0,-0.70313 -0.5937,-1.39063 -1.4062,-1.39063 H 33.9063 V -8 c 0,-0.59375 -0.2969,-1.09375 -0.7969,-1.29688 L 31.9063,-9.90625 C 31.7031,-10 31.4063,-10.0938 31.2031,-10.0938 30.9063,-10 30.5,-9.90625 30.2969,-9.70313 l -9.0938,8.29688 c -0.2968,0.3125 -0.4062,0.703125 -0.4062,1.109375 V 7.90625 H 9.29688 c 0,0 11.10942,-12 22.90622,-27.81255 0.4063,-0.5 0.5,-1 0.5,-1.3906 0,-0.5 -0.2031,-0.9062 -0.2968,-1 L 30.2031,-24.5 c -0.2031,-0.2031 -0.5937,-0.4063 -1,-0.4063 -0.5937,0 -14.1093,0 -14.7968,0 -0.8125,0 -1.3125,0.6094 -1.4063,1.2032 0,0 -0.5,7.4062 -3.09375,15.49997 -2.60937,8.10938 -5.60937,13.10938 -8.20312,16.79688 0,0 -0.29688,0.5 -0.29688,1.10938 0,0.20312 0,0.39067 0.09375,0.59377 0.40625,0.7031 1,1.7969 1,1.7969 0,0 0.20313,0.6093 1.09375,0.6093 H 20.7969"
         id="path83" />
      <path
         class="Beam"
         fill-rule="evenodd"
         d="m 565.286,410.971 65.66,-6.2 v 12.455 l -65.66,6.2 v -12.455"
         id="path84" />
      <path
         class="Beam"
         fill-rule="evenodd"
         d="m 1823.58,410.971 65.66,-6.2 v 12.455 l -65.66,6.2 v -12.455"
         id="path85" />
      <path
         class="Beam"
         fill-rule="evenodd"
         d="m 2166.51,361.366 60.77,6.2 v 12.465 l -60.77,-6.2 v -12.465"
         id="path86" />
      <path
         class="Beam"
         fill-rule="evenodd"
         d="m 2494.66,398.568 62.66,6.2 v 12.461 l -62.66,-6.2 v -12.461"
         id="path87" />
      <path
         class="Beam"
         fill-rule="evenodd"
         d="m 908.217,361.366 60.769,6.2 v 12.465 l -60.769,-6.2 v -12.465"
         id="path88" />
      <path
         class="Beam"
         fill-rule="evenodd"
         d="m 1236.37,398.568 62.66,6.2 v 12.461 l -62.66,-6.2 v -12.461"
         id="path89" />
      <path
         class="Lyrics"
         d="m 1085.59,561.547 h -1.75 l -1.45,1.797 c -1.8,-1.406 -3.59,-2 -6.09,-2 -4.41,0 -7.3,2.844 -7.3,7.25 0,4.703 3.05,5.891 7.05,6.844 l 2.64,0.609 c 3.95,0.938 5.36,1.938 5.36,3.938 0,2.359 -2.05,4 -4.96,4 -4.25,0 -7.25,-2.688 -8.45,-7.688 h -2 v 9.438 h 1.75 l 1.75,-2.047 c 2.05,1.656 4.3,2.453 6.86,2.453 4.89,0 8.14,-3.047 8.14,-7.703 0,-2.203 -0.7,-3.891 -2.09,-5.047 -1.21,-1.047 -2.21,-1.453 -5.25,-2.094 l -2.5,-0.562 c -2.75,-0.594 -2.75,-0.594 -3.66,-1.094 -1.09,-0.5 -1.75,-1.547 -1.75,-2.656 0,-2.047 1.91,-3.438 4.66,-3.438 4.09,0 6.09,2.891 7.29,6.391 h 1.75 v -8.391 m 16.1,-0.203 c -6.14,0 -10.89,5.453 -10.89,12.453 0,6.844 4.79,12.344 10.79,12.344 6,0 10.8,-5.5 10.8,-12.406 0,-6.844 -4.8,-12.391 -10.7,-12.391 m 0,2.141 c 3.5,0 5.45,3.656 5.45,10.25 0,6.656 -1.95,10.25 -5.55,10.25 -3.59,0 -5.54,-3.594 -5.54,-10.188 0,-6.812 1.89,-10.312 5.64,-10.312 m 22.61,-14.954 -9.25,0.563 v 2.141 h 2.45 c 1.84,0.046 2.09,0.359 2.09,2.5 v 27.859 c -0.04,0.75 -0.09,1.047 -0.29,1.297 -0.36,0.453 -1.3,0.656 -3.46,0.703 h -0.34 v 1.797 h 12.94 v -1.797 h -0.35 c -3.34,-0.109 -3.79,-0.359 -3.79,-2.156 v -32.907"
         id="path90" />
      <path
         class="Lyrics"
         d="m 1210.28,562.094 v -2.859 c 0,-2.5 0.15,-4.141 0.54,-5.141 0.82,-2.203 2.57,-3.563 4.57,-3.563 1.04,0 1.68,0.313 1.68,0.86 0,0.203 0,0.25 -0.29,0.64 -0.3,0.454 -0.46,1.063 -0.46,1.61 0,1.5 1.21,2.64 2.75,2.64 1.66,0 2.82,-1.25 2.82,-3.046 0,-2.891 -2.5,-4.704 -6.57,-4.704 -3.43,0 -6,1.204 -7.75,3.704 -1.5,2.109 -2,4.25 -2,8.312 v 1.547 h -4.39 v 2.141 h 4.39 v 17.359 c -0.04,0.703 -0.09,1 -0.29,1.297 -0.35,0.453 -1.3,0.656 -3.46,0.703 h -0.18 v 1.797 h 13.34 v -1.797 h -0.91 c -3.34,-0.109 -3.79,-0.359 -3.79,-2.156 v -17.203 h 5.5 v -2.141 h -5.5 m 28.54,7.203 c 0,-3.156 -0.54,-4.75 -2,-5.953 -1.64,-1.359 -4.09,-2 -7.29,-2 -5.64,0 -9.75,2.641 -9.75,6.297 0,1.844 1.15,3.047 2.9,3.047 1.6,0 2.71,-1.047 2.71,-2.547 0,-0.656 -0.25,-1.344 -0.75,-2.047 -0.32,-0.359 -0.36,-0.453 -0.36,-0.703 0,-1 2,-1.906 4.4,-1.906 1.6,0 3.35,0.5 4.14,1.25 0.96,0.812 1.32,2 1.32,4.25 v 1.953 c -5.21,0.906 -6.86,1.297 -9.32,2.25 -4.34,1.609 -6.39,3.906 -6.39,7.109 0,3.594 2.8,5.844 7.25,5.844 3.46,0 6.55,-1.406 8.71,-3.953 0.79,2.547 2.04,3.547 4.39,3.547 2.25,0 4.61,-1.438 4.61,-2.891 0,-0.359 -0.21,-0.609 -0.5,-0.609 -0.21,0 -0.41,0.062 -0.75,0.203 -0.71,0.297 -1,0.359 -1.41,0.359 -1.41,0 -1.91,-0.906 -1.91,-3.453 v -10.047 m -4.68,6.094 c 0,3 -0.16,3.703 -1,5 -1.25,1.844 -3.5,3.094 -5.71,3.094 -2.29,0 -3.95,-1.641 -3.95,-3.891 0,-2.109 1.05,-3.609 3.25,-4.656 1.55,-0.703 3.5,-1.203 7.41,-1.844 v 2.297"
         id="path91" />
      <path
         class="Lyrics"
         d="m 1262.96,562.094 -8.89,0.547 v 2.156 h 2.04 c 1.89,0.047 2.14,0.344 2.14,2.5 v 14.297 c -0.04,0.75 -0.09,1.047 -0.29,1.297 -0.35,0.453 -1.3,0.656 -3.46,0.703 h -0.18 v 1.797 h 12.59 v -1.797 h -0.2 c -3.3,-0.109 -3.75,-0.359 -3.75,-2.203 v -9.25 c 0,-4.453 2.45,-7.75 5.7,-7.75 2.84,0 4.3,2.047 4.3,6.094 v 11.156 c -0.05,0.656 -0.1,1 -0.35,1.25 -0.29,0.453 -1.29,0.656 -3.45,0.703 h -0.2 v 1.797 h 12.65 v -1.797 h -0.2 c -3.3,-0.109 -3.75,-0.359 -3.75,-2.156 v -8.844 c 0,-5 2.25,-8.203 5.75,-8.203 2.86,0 4.25,2.156 4.25,6.656 v 10.547 c -0.05,0.703 -0.09,1.047 -0.34,1.297 -0.3,0.453 -1.3,0.656 -3.46,0.703 h -0.2 v 1.797 h 12.66 v -1.797 h -0.21 c -3.29,-0.109 -3.75,-0.359 -3.75,-2.203 v -11.344 c 0,-3.109 -0.29,-4.156 -1.59,-5.859 -1.45,-1.844 -3.5,-2.844 -5.91,-2.844 -3.25,0 -5.65,1.547 -7.79,5 -0.86,-3 -3.57,-5 -6.91,-5 -3.05,0 -5.25,1.453 -7.2,4.594 v -3.844 m 41.9,-12.453 c -1.61,0 -2.9,1.297 -2.9,2.89 0,1.61 1.29,2.907 2.86,2.907 1.64,0 2.93,-1.297 2.93,-2.907 0,-1.593 -1.29,-2.89 -2.89,-2.89 m 2.35,12.453 -9.39,0.547 v 2.156 h 2.54 c 1.89,0.047 2.14,0.344 2.14,2.5 v 14.297 c -0.04,0.75 -0.09,1.047 -0.29,1.297 -0.35,0.453 -1.3,0.656 -3.46,0.703 h -0.34 v 1.797 h 12.95 v -1.797 H 1311 c -3.34,-0.109 -3.79,-0.359 -3.79,-2.156 v -19.344"
         id="path92" />
      <path
         class="Lyrics"
         d="m 1329.5,562.094 -8.86,0.547 v 2.156 h 2.04 c 1.91,0.047 2.16,0.344 2.16,2.5 v 14.297 c -0.05,0.75 -0.09,1.047 -0.3,1.297 -0.36,0.453 -1.36,0.656 -3.5,0.703 h -0.2 v 1.797 h 13.34 v -1.797 h -0.89 c -3.36,-0.109 -3.79,-0.359 -3.79,-2.156 v -2.703 c 0.04,-8.391 3.04,-14.797 6.93,-15 -0.68,0.812 -0.89,1.312 -0.89,2.25 0,1.609 1.14,2.75 2.75,2.75 1.85,0 3.05,-1.344 3.05,-3.344 0,-2.453 -1.7,-4.047 -4.34,-4.047 -3.16,0 -5.86,2.5 -7.5,6.953 v -6.203 m 35.34,12.047 c 0.05,-7.5 -4.2,-12.797 -10.3,-12.797 -6.4,0 -11.2,5.547 -11.2,13.047 0,7.047 4.55,11.75 11.3,11.75 4.79,0 8.15,-2.344 10.2,-7.094 l -1.75,-0.953 c -2.05,3.844 -4.16,5.344 -7.5,5.344 -2.55,0 -4.41,-1.047 -5.7,-3.297 -0.89,-1.5 -1.3,-3.25 -1.25,-6 h 16.2 m -16.16,-2.156 c 0,-3.5 1.61,-8.5 5.82,-8.5 3,0 5,2.656 5,6.703 0,1.406 -0.46,1.797 -2.07,1.797 h -8.75"
         id="path93" />
      <path
         class="Lyrics"
         d="m 2468.57,562.094 v -2.859 c 0,-2.5 0.16,-4.141 0.55,-5.141 0.81,-2.203 2.56,-3.563 4.56,-3.563 1.05,0 1.69,0.313 1.69,0.86 0,0.203 0,0.25 -0.3,0.64 -0.29,0.454 -0.45,1.063 -0.45,1.61 0,1.5 1.2,2.64 2.75,2.64 1.66,0 2.81,-1.25 2.81,-3.046 0,-2.891 -2.5,-4.704 -6.56,-4.704 -3.44,0 -6,1.204 -7.75,3.704 -1.5,2.109 -2,4.25 -2,8.312 v 1.547 h -4.39 v 2.141 h 4.39 v 17.359 c -0.05,0.703 -0.09,1 -0.3,1.297 -0.34,0.453 -1.29,0.656 -3.45,0.703 h -0.19 v 1.797 h 13.35 v -1.797 h -0.91 c -3.34,-0.109 -3.8,-0.359 -3.8,-2.156 v -17.203 h 5.5 v -2.141 h -5.5 m 28.55,7.203 c 0,-3.156 -0.55,-4.75 -2,-5.953 -1.64,-1.359 -4.09,-2 -7.3,-2 -5.64,0 -9.75,2.641 -9.75,6.297 0,1.844 1.16,3.047 2.91,3.047 1.59,0 2.7,-1.047 2.7,-2.547 0,-0.656 -0.25,-1.344 -0.75,-2.047 -0.31,-0.359 -0.36,-0.453 -0.36,-0.703 0,-1 2,-1.906 4.41,-1.906 1.59,0 3.34,0.5 4.14,1.25 0.95,0.812 1.31,2 1.31,4.25 v 1.953 c -5.2,0.906 -6.86,1.297 -9.31,2.25 -4.34,1.609 -6.39,3.906 -6.39,7.109 0,3.594 2.8,5.844 7.25,5.844 3.45,0 6.55,-1.406 8.7,-3.953 0.8,2.547 2.05,3.547 4.39,3.547 2.25,0 4.61,-1.438 4.61,-2.891 0,-0.359 -0.2,-0.609 -0.5,-0.609 -0.2,0 -0.4,0.062 -0.75,0.203 -0.7,0.297 -1,0.359 -1.4,0.359 -1.41,0 -1.91,-0.906 -1.91,-3.453 v -10.047 m -4.69,6.094 c 0,3 -0.15,3.703 -1,5 -1.25,1.844 -3.5,3.094 -5.7,3.094 -2.3,0 -3.95,-1.641 -3.95,-3.891 0,-2.109 1.04,-3.609 3.25,-4.656 1.54,-0.703 3.5,-1.203 7.4,-1.844 v 2.297"
         id="path94" />
      <path
         class="Lyrics"
         d="m 1422.02,585.735 8.71,-0.344 v -2.156 h -0.91 c -2.84,-0.141 -3.09,-0.438 -3.09,-3.641 v -31.063 l -9.8,0.563 v 2.141 h 2.94 c 1.9,0.046 2.15,0.359 2.15,2.5 v 11.312 c -1.84,-2.562 -4,-3.703 -6.9,-3.703 -5.64,0 -9.94,5.453 -9.94,12.641 0,7.109 4.14,12.156 9.94,12.156 3.15,0 5.31,-1.344 6.9,-4.344 v 3.938 m -5.9,-21.688 c 2.06,0 4,1.5 4.9,3.797 0.66,1.5 0.96,3.547 0.96,6 0,5.844 -2.3,9.594 -5.91,9.594 -3.55,0 -5.64,-3.297 -5.64,-8.844 0,-3 0.3,-5.25 0.94,-6.906 0.86,-2.25 2.7,-3.641 4.75,-3.641 m 28.5,-2.703 c -6.14,0 -10.89,5.453 -10.89,12.453 0,6.844 4.79,12.344 10.79,12.344 6,0 10.8,-5.5 10.8,-12.406 0,-6.844 -4.8,-12.391 -10.7,-12.391 m 0,2.141 c 3.5,0 5.45,3.656 5.45,10.25 0,6.656 -1.95,10.25 -5.55,10.25 -3.59,0 -5.54,-3.594 -5.54,-10.188 0,-6.812 1.89,-10.312 5.64,-10.312"
         id="path95" />
      <path
         class="Lyrics"
         d="m 1542.86,548.531 -9.25,0.563 v 2.141 h 2.46 c 1.84,0.046 2.09,0.359 2.09,2.5 v 27.859 c -0.05,0.75 -0.09,1.047 -0.3,1.297 -0.36,0.453 -1.29,0.656 -3.45,0.703 h -0.34 v 1.797 H 1547 v -1.797 h -0.34 c -3.34,-0.109 -3.8,-0.359 -3.8,-2.156 v -32.907 m 28.39,20.766 c 0,-3.156 -0.54,-4.75 -2,-5.953 -1.64,-1.359 -4.09,-2 -7.29,-2 -5.64,0 -9.75,2.641 -9.75,6.297 0,1.844 1.15,3.047 2.9,3.047 1.6,0 2.71,-1.047 2.71,-2.547 0,-0.656 -0.25,-1.344 -0.75,-2.047 -0.32,-0.359 -0.36,-0.453 -0.36,-0.703 0,-1 2,-1.906 4.4,-1.906 1.6,0 3.35,0.5 4.14,1.25 0.96,0.812 1.32,2 1.32,4.25 v 1.953 c -5.21,0.906 -6.86,1.297 -9.32,2.25 -4.34,1.609 -6.39,3.906 -6.39,7.109 0,3.594 2.8,5.844 7.25,5.844 3.46,0 6.55,-1.406 8.71,-3.953 0.79,2.547 2.04,3.547 4.39,3.547 2.25,0 4.61,-1.438 4.61,-2.891 0,-0.359 -0.21,-0.609 -0.5,-0.609 -0.21,0 -0.41,0.062 -0.75,0.203 -0.71,0.297 -1,0.359 -1.41,0.359 -1.41,0 -1.91,-0.906 -1.91,-3.453 v -10.047 m -4.68,6.094 c 0,3 -0.16,3.703 -1,5 -1.25,1.844 -3.5,3.094 -5.71,3.094 -2.29,0 -3.95,-1.641 -3.95,-3.891 0,-2.109 1.05,-3.609 3.25,-4.656 1.55,-0.703 3.5,-1.203 7.41,-1.844 v 2.297"
         id="path96" />
      <path
         class="Lyrics"
         d="m 2521.25,562.094 -8.89,0.547 v 2.156 h 2.05 c 1.89,0.047 2.14,0.344 2.14,2.5 v 14.297 c -0.05,0.75 -0.09,1.047 -0.3,1.297 -0.34,0.453 -1.29,0.656 -3.45,0.703 h -0.19 v 1.797 h 12.6 v -1.797 H 2525 c -3.29,-0.109 -3.75,-0.359 -3.75,-2.203 v -9.25 c 0,-4.453 2.46,-7.75 5.71,-7.75 2.84,0 4.29,2.047 4.29,6.094 v 11.156 c -0.04,0.656 -0.09,1 -0.34,1.25 -0.3,0.453 -1.3,0.656 -3.45,0.703 h -0.21 v 1.797 h 12.66 v -1.797 h -0.2 c -3.3,-0.109 -3.75,-0.359 -3.75,-2.156 v -8.844 c 0,-5 2.25,-8.203 5.75,-8.203 2.86,0 4.25,2.156 4.25,6.656 v 10.547 c -0.05,0.703 -0.1,1.047 -0.35,1.297 -0.29,0.453 -1.29,0.656 -3.45,0.703 h -0.2 v 1.797 h 12.65 v -1.797 h -0.2 c -3.3,-0.109 -3.75,-0.359 -3.75,-2.203 v -11.344 c 0,-3.109 -0.3,-4.156 -1.59,-5.859 -1.46,-1.844 -3.5,-2.844 -5.91,-2.844 -3.25,0 -5.66,1.547 -7.8,5 -0.86,-3 -3.56,-5 -6.9,-5 -3.05,0 -5.25,1.453 -7.21,4.594 v -3.844 m 41.91,-12.453 c -1.61,0 -2.91,1.297 -2.91,2.89 0,1.61 1.3,2.907 2.86,2.907 1.64,0 2.94,-1.297 2.94,-2.907 0,-1.593 -1.3,-2.89 -2.89,-2.89 m 2.34,12.453 -9.39,0.547 v 2.156 h 2.55 c 1.89,0.047 2.14,0.344 2.14,2.5 v 14.297 c -0.05,0.75 -0.09,1.047 -0.3,1.297 -0.34,0.453 -1.29,0.656 -3.45,0.703 h -0.34 v 1.797 h 12.95 v -1.797 h -0.36 c -3.34,-0.109 -3.8,-0.359 -3.8,-2.156 v -19.344"
         id="path97" />
      <path
         class="Lyrics"
         d="m 1629.09,561.547 h -1.75 l -1.45,1.797 c -1.8,-1.406 -3.59,-2 -6.09,-2 -4.41,0 -7.3,2.844 -7.3,7.25 0,4.703 3.05,5.891 7.05,6.844 l 2.64,0.609 c 3.95,0.938 5.36,1.938 5.36,3.938 0,2.359 -2.05,4 -4.96,4 -4.25,0 -7.25,-2.688 -8.45,-7.688 h -2 v 9.438 h 1.75 l 1.75,-2.047 c 2.05,1.656 4.3,2.453 6.86,2.453 4.89,0 8.14,-3.047 8.14,-7.703 0,-2.203 -0.7,-3.891 -2.09,-5.047 -1.21,-1.047 -2.21,-1.453 -5.25,-2.094 l -2.5,-0.562 c -2.75,-0.594 -2.75,-0.594 -3.66,-1.094 -1.09,-0.5 -1.75,-1.547 -1.75,-2.656 0,-2.047 1.91,-3.438 4.66,-3.438 4.09,0 6.09,2.891 7.29,6.391 h 1.75 v -8.391 m 16.1,-0.203 c -6.14,0 -10.89,5.453 -10.89,12.453 0,6.844 4.79,12.344 10.79,12.344 6,0 10.8,-5.5 10.8,-12.406 0,-6.844 -4.8,-12.391 -10.7,-12.391 m 0,2.141 c 3.5,0 5.45,3.656 5.45,10.25 0,6.656 -1.95,10.25 -5.55,10.25 -3.59,0 -5.54,-3.594 -5.54,-10.188 0,-6.812 1.89,-10.312 5.64,-10.312 m 22.61,-14.954 -9.25,0.563 v 2.141 h 2.45 c 1.84,0.046 2.09,0.359 2.09,2.5 v 27.859 c -0.04,0.75 -0.09,1.047 -0.29,1.297 -0.36,0.453 -1.3,0.656 -3.46,0.703 H 1659 v 1.797 h 12.94 v -1.797 h -0.35 c -3.34,-0.109 -3.79,-0.359 -3.79,-2.156 v -32.907"
         id="path98" />
      <path
         class="Lyrics"
         d="m 999.362,548.531 -9.25,0.563 v 2.141 h 2.453 c 1.843,0.046 2.093,0.359 2.093,2.5 v 27.859 c -0.046,0.75 -0.093,1.047 -0.296,1.297 -0.36,0.453 -1.297,0.656 -3.454,0.703 h -0.343 v 1.797 h 12.935 v -1.797 h -0.34 c -3.345,-0.109 -3.798,-0.359 -3.798,-2.156 v -32.907 m 28.388,20.766 c 0,-3.156 -0.54,-4.75 -2,-5.953 -1.64,-1.359 -4.09,-2 -7.29,-2 -5.65,0 -9.75,2.641 -9.75,6.297 0,1.844 1.15,3.047 2.9,3.047 1.6,0 2.7,-1.047 2.7,-2.547 0,-0.656 -0.25,-1.344 -0.75,-2.047 -0.31,-0.359 -0.35,-0.453 -0.35,-0.703 0,-1 2,-1.906 4.4,-1.906 1.6,0 3.35,0.5 4.14,1.25 0.96,0.812 1.31,2 1.31,4.25 v 1.953 c -5.2,0.906 -6.85,1.297 -9.31,2.25 -4.34,1.609 -6.39,3.906 -6.39,7.109 0,3.594 2.8,5.844 7.25,5.844 3.45,0 6.55,-1.406 8.7,-3.953 0.8,2.547 2.05,3.547 4.4,3.547 2.25,0 4.6,-1.438 4.6,-2.891 0,-0.359 -0.2,-0.609 -0.5,-0.609 -0.2,0 -0.4,0.062 -0.75,0.203 -0.7,0.297 -1,0.359 -1.4,0.359 -1.41,0 -1.91,-0.906 -1.91,-3.453 v -10.047 m -4.69,6.094 c 0,3 -0.15,3.703 -1,5 -1.25,1.844 -3.5,3.094 -5.7,3.094 -2.3,0 -3.95,-1.641 -3.95,-3.891 0,-2.109 1.05,-3.609 3.25,-4.656 1.55,-0.703 3.5,-1.203 7.4,-1.844 v 2.297"
         id="path99" />
      <path
         class="Lyrics"
         d="m 2587.79,562.094 -8.86,0.547 v 2.156 h 2.05 c 1.91,0.047 2.16,0.344 2.16,2.5 v 14.297 c -0.05,0.75 -0.1,1.047 -0.3,1.297 -0.36,0.453 -1.36,0.656 -3.5,0.703 h -0.2 v 1.797 h 13.34 v -1.797 h -0.89 c -3.36,-0.109 -3.8,-0.359 -3.8,-2.156 v -2.703 c 0.05,-8.391 3.05,-14.797 6.94,-15 -0.69,0.812 -0.89,1.312 -0.89,2.25 0,1.609 1.14,2.75 2.75,2.75 1.84,0 3.05,-1.344 3.05,-3.344 0,-2.453 -1.71,-4.047 -4.35,-4.047 -3.15,0 -5.86,2.5 -7.5,6.953 v -6.203 m 35.35,12.047 c 0.04,-7.5 -4.21,-12.797 -10.3,-12.797 -6.41,0 -11.2,5.547 -11.2,13.047 0,7.047 4.54,11.75 11.29,11.75 4.8,0 8.16,-2.344 10.21,-7.094 l -1.75,-0.953 c -2.05,3.844 -4.16,5.344 -7.5,5.344 -2.55,0 -4.41,-1.047 -5.71,-3.297 -0.89,-1.5 -1.29,-3.25 -1.25,-6 h 16.21 m -16.16,-2.156 c 0,-3.5 1.61,-8.5 5.81,-8.5 3,0 5,2.656 5,6.703 0,1.406 -0.45,1.797 -2.06,1.797 h -8.75"
         id="path100" />
      <path
         class="Lyrics"
         d="m 1801.45,585.735 8.7,-0.344 v -2.156 h -0.91 c -2.84,-0.141 -3.09,-0.438 -3.09,-3.641 v -31.063 l -9.8,0.563 v 2.141 h 2.94 c 1.91,0.046 2.16,0.359 2.16,2.5 v 11.312 c -1.85,-2.562 -4,-3.703 -6.91,-3.703 -5.64,0 -9.94,5.453 -9.94,12.641 0,7.109 4.14,12.156 9.94,12.156 3.16,0 5.31,-1.344 6.91,-4.344 v 3.938 m -5.91,-21.688 c 2.06,0 4,1.5 4.91,3.797 0.65,1.5 0.95,3.547 0.95,6 0,5.844 -2.3,9.594 -5.91,9.594 -3.54,0 -5.64,-3.297 -5.64,-8.844 0,-3 0.3,-5.25 0.94,-6.906 0.86,-2.25 2.7,-3.641 4.75,-3.641 m 28.5,-2.703 c -6.14,0 -10.89,5.453 -10.89,12.453 0,6.844 4.8,12.344 10.8,12.344 6,0 10.79,-5.5 10.79,-12.406 0,-6.844 -4.79,-12.391 -10.7,-12.391 m 0,2.141 c 3.5,0 5.45,3.656 5.45,10.25 0,6.656 -1.95,10.25 -5.54,10.25 -3.6,0 -5.55,-3.594 -5.55,-10.188 0,-6.812 1.89,-10.312 5.64,-10.312"
         id="path101" />
      <path
         class="Lyrics"
         d="m 1853.17,562.094 -8.89,0.547 v 2.156 h 2.05 c 1.89,0.047 2.14,0.344 2.14,2.5 v 14.297 c -0.05,0.75 -0.09,1.047 -0.3,1.297 -0.34,0.453 -1.29,0.656 -3.45,0.703 h -0.19 v 1.797 h 12.6 v -1.797 h -0.21 c -3.29,-0.109 -3.75,-0.359 -3.75,-2.203 v -9.25 c 0,-4.453 2.46,-7.75 5.71,-7.75 2.84,0 4.29,2.047 4.29,6.094 v 11.156 c -0.04,0.656 -0.09,1 -0.34,1.25 -0.3,0.453 -1.3,0.656 -3.45,0.703 h -0.21 v 1.797 h 12.66 v -1.797 h -0.2 c -3.3,-0.109 -3.75,-0.359 -3.75,-2.156 v -8.844 c 0,-5 2.25,-8.203 5.75,-8.203 2.86,0 4.25,2.156 4.25,6.656 v 10.547 c -0.05,0.703 -0.1,1.047 -0.35,1.297 -0.29,0.453 -1.29,0.656 -3.45,0.703 h -0.2 v 1.797 h 12.65 v -1.797 h -0.2 c -3.3,-0.109 -3.75,-0.359 -3.75,-2.203 v -11.344 c 0,-3.109 -0.3,-4.156 -1.59,-5.859 -1.46,-1.844 -3.5,-2.844 -5.91,-2.844 -3.25,0 -5.66,1.547 -7.8,5 -0.86,-3 -3.56,-5 -6.9,-5 -3.05,0 -5.25,1.453 -7.21,4.594 v -3.844 m 41.91,-12.453 c -1.61,0 -2.91,1.297 -2.91,2.89 0,1.61 1.3,2.907 2.86,2.907 1.64,0 2.94,-1.297 2.94,-2.907 0,-1.593 -1.3,-2.89 -2.89,-2.89 m 2.34,12.453 -9.39,0.547 v 2.156 h 2.55 c 1.89,0.047 2.14,0.344 2.14,2.5 v 14.297 c -0.05,0.75 -0.09,1.047 -0.3,1.297 -0.34,0.453 -1.29,0.656 -3.45,0.703 h -0.34 v 1.797 h 12.95 v -1.797 h -0.36 c -3.34,-0.109 -3.8,-0.359 -3.8,-2.156 v -19.344"
         id="path102" />
      <path
         class="Lyrics"
         d="m 2668.87,562.094 -8.89,0.547 v 2.156 h 2.04 c 1.89,0.047 2.14,0.344 2.14,2.5 v 14.297 c -0.04,0.75 -0.09,1.047 -0.29,1.297 -0.35,0.453 -1.3,0.656 -3.46,0.703 h -0.18 v 1.797 h 12.59 v -1.797 h -0.2 c -3.3,-0.109 -3.75,-0.359 -3.75,-2.203 v -9.25 c 0,-4.453 2.45,-7.75 5.7,-7.75 2.84,0 4.3,2.047 4.3,6.094 v 11.156 c -0.05,0.656 -0.1,1 -0.35,1.25 -0.29,0.453 -1.29,0.656 -3.45,0.703 h -0.2 v 1.797 h 12.65 v -1.797 h -0.2 c -3.3,-0.109 -3.75,-0.359 -3.75,-2.156 v -8.844 c 0,-5 2.25,-8.203 5.75,-8.203 2.86,0 4.25,2.156 4.25,6.656 v 10.547 c -0.05,0.703 -0.09,1.047 -0.34,1.297 -0.3,0.453 -1.3,0.656 -3.46,0.703 h -0.2 v 1.797 h 12.66 v -1.797 h -0.21 c -3.29,-0.109 -3.75,-0.359 -3.75,-2.203 v -11.344 c 0,-3.109 -0.29,-4.156 -1.59,-5.859 -1.45,-1.844 -3.5,-2.844 -5.91,-2.844 -3.25,0 -5.65,1.547 -7.79,5 -0.86,-3 -3.57,-5 -6.91,-5 -3.05,0 -5.25,1.453 -7.2,4.594 v -3.844 m 41.9,-12.453 c -1.61,0 -2.9,1.297 -2.9,2.89 0,1.61 1.29,2.907 2.86,2.907 1.64,0 2.93,-1.297 2.93,-2.907 0,-1.593 -1.29,-2.89 -2.89,-2.89 m 2.35,12.453 -9.39,0.547 v 2.156 h 2.54 c 1.89,0.047 2.14,0.344 2.14,2.5 v 14.297 c -0.04,0.75 -0.09,1.047 -0.29,1.297 -0.35,0.453 -1.3,0.656 -3.46,0.703 h -0.34 v 1.797 h 12.95 v -1.797 h -0.36 c -3.34,-0.109 -3.79,-0.359 -3.79,-2.156 v -19.344"
         id="path103" />
      <path
         class="Lyrics"
         d="m 1928.31,561.547 h -1.75 l -1.46,1.797 c -1.79,-1.406 -3.59,-2 -6.09,-2 -4.41,0 -7.3,2.844 -7.3,7.25 0,4.703 3.05,5.891 7.05,6.844 l 2.64,0.609 c 3.95,0.938 5.36,1.938 5.36,3.938 0,2.359 -2.05,4 -4.95,4 -4.25,0 -7.25,-2.688 -8.46,-7.688 h -2 v 9.438 h 1.75 l 1.75,-2.047 c 2.05,1.656 4.3,2.453 6.86,2.453 4.89,0 8.14,-3.047 8.14,-7.703 0,-2.203 -0.7,-3.891 -2.09,-5.047 -1.2,-1.047 -2.2,-1.453 -5.25,-2.094 l -2.5,-0.562 c -2.75,-0.594 -2.75,-0.594 -3.66,-1.094 -1.09,-0.5 -1.75,-1.547 -1.75,-2.656 0,-2.047 1.91,-3.438 4.66,-3.438 4.09,0 6.09,2.891 7.3,6.391 h 1.75 v -8.391 m 16.09,-0.203 c -6.14,0 -10.89,5.453 -10.89,12.453 0,6.844 4.8,12.344 10.8,12.344 6,0 10.79,-5.5 10.79,-12.406 0,-6.844 -4.79,-12.391 -10.7,-12.391 m 0,2.141 c 3.5,0 5.45,3.656 5.45,10.25 0,6.656 -1.95,10.25 -5.54,10.25 -3.6,0 -5.55,-3.594 -5.55,-10.188 0,-6.812 1.89,-10.312 5.64,-10.312 m 22.61,-14.954 -9.25,0.563 v 2.141 h 2.45 c 1.85,0.046 2.1,0.359 2.1,2.5 v 27.859 c -0.05,0.75 -0.1,1.047 -0.3,1.297 -0.36,0.453 -1.3,0.656 -3.45,0.703 h -0.35 v 1.797 h 12.94 v -1.797 h -0.34 c -3.35,-0.109 -3.8,-0.359 -3.8,-2.156 v -32.907"
         id="path104" />
      <path
         class="Lyrics"
         d="m 2020.24,585.735 8.7,-0.344 v -2.156 h -0.9 c -2.85,-0.141 -3.1,-0.438 -3.1,-3.641 v -31.063 l -9.79,0.563 v 2.141 h 2.94 c 1.9,0.046 2.15,0.359 2.15,2.5 v 11.312 c -1.84,-2.562 -4,-3.703 -6.9,-3.703 -5.65,0 -9.94,5.453 -9.94,12.641 0,7.109 4.14,12.156 9.94,12.156 3.15,0 5.31,-1.344 6.9,-4.344 v 3.938 m -5.9,-21.688 c 2.06,0 4,1.5 4.9,3.797 0.66,1.5 0.95,3.547 0.95,6 0,5.844 -2.29,9.594 -5.9,9.594 -3.55,0 -5.64,-3.297 -5.64,-8.844 0,-3 0.29,-5.25 0.94,-6.906 0.85,-2.25 2.7,-3.641 4.75,-3.641 m 28.5,-2.703 c -6.15,0 -10.9,5.453 -10.9,12.453 0,6.844 4.8,12.344 10.8,12.344 6,0 10.8,-5.5 10.8,-12.406 0,-6.844 -4.8,-12.391 -10.7,-12.391 m 0,2.141 c 3.5,0 5.45,3.656 5.45,10.25 0,6.656 -1.95,10.25 -5.55,10.25 -3.59,0 -5.55,-3.594 -5.55,-10.188 0,-6.812 1.9,-10.312 5.65,-10.312"
         id="path105" />
      <path
         class="Lyrics"
         d="m 2145.58,562.094 v -9.906 h -2.04 c -0.5,6.5 -2.71,9.797 -6.75,10.109 v 1.938 h 4.09 v 12.75 c 0,3.5 0.09,4.75 0.59,5.906 0.82,2.094 2.82,3.25 5.71,3.25 4.5,0 7.4,-3.406 7.4,-8.703 0,-0.297 0,-0.641 -0.04,-1.141 h -2.11 c -0.14,4.5 -1.46,6.797 -3.89,6.797 -1.16,0 -2.16,-0.609 -2.5,-1.453 -0.32,-0.703 -0.46,-1.953 -0.46,-3.75 v -13.656 h 7.35 v -2.141 h -7.35 m 17.25,-12.453 c -1.61,0 -2.9,1.297 -2.9,2.89 0,1.61 1.29,2.907 2.86,2.907 1.64,0 2.93,-1.297 2.93,-2.907 0,-1.593 -1.29,-2.89 -2.89,-2.89 m 2.35,12.453 -9.39,0.547 v 2.156 h 2.54 c 1.89,0.047 2.14,0.344 2.14,2.5 v 14.297 c -0.04,0.75 -0.09,1.047 -0.29,1.297 -0.35,0.453 -1.3,0.656 -3.46,0.703 h -0.34 v 1.797 h 12.95 v -1.797 h -0.36 c -3.34,-0.109 -3.79,-0.359 -3.79,-2.156 v -19.344"
         id="path106" />
      <path
         class="Lyrics"
         d="m 543.15,585.735 8.703,-0.344 v -2.156 h -0.906 c -2.844,-0.141 -3.094,-0.438 -3.094,-3.641 v -31.063 l -9.797,0.563 v 2.141 h 2.937 c 1.907,0.046 2.157,0.359 2.157,2.5 v 11.312 c -1.844,-2.562 -4,-3.703 -6.907,-3.703 -5.64,0 -9.937,5.453 -9.937,12.641 0,7.109 4.141,12.156 9.937,12.156 3.157,0 5.313,-1.344 6.907,-4.344 v 3.938 m -5.907,-21.688 c 2.063,0 4,1.5 4.907,3.797 0.656,1.5 0.953,3.547 0.953,6 0,5.844 -2.297,9.594 -5.906,9.594 -3.547,0 -5.641,-3.297 -5.641,-8.844 0,-3 0.297,-5.25 0.937,-6.906 0.86,-2.25 2.704,-3.641 4.75,-3.641 m 28.5,-2.703 c -6.14,0 -10.89,5.453 -10.89,12.453 0,6.844 4.797,12.344 10.797,12.344 6,0 10.797,-5.5 10.797,-12.406 0,-6.844 -4.797,-12.391 -10.704,-12.391 m 0,2.141 c 3.5,0 5.454,3.656 5.454,10.25 0,6.656 -1.954,10.25 -5.547,10.25 -3.594,0 -5.547,-3.594 -5.547,-10.188 0,-6.812 1.89,-10.312 5.64,-10.312"
         id="path107" />
      <path
         class="Lyrics"
         d="m 2199.37,548.531 -9.25,0.563 v 2.141 h 2.45 c 1.85,0.046 2.1,0.359 2.1,2.5 v 27.859 c -0.05,0.75 -0.1,1.047 -0.3,1.297 -0.36,0.453 -1.3,0.656 -3.45,0.703 h -0.35 v 1.797 h 12.94 v -1.797 h -0.34 c -3.35,-0.109 -3.8,-0.359 -3.8,-2.156 v -32.907 m 28.39,20.766 c 0,-3.156 -0.55,-4.75 -2,-5.953 -1.64,-1.359 -4.09,-2 -7.3,-2 -5.64,0 -9.75,2.641 -9.75,6.297 0,1.844 1.16,3.047 2.91,3.047 1.59,0 2.7,-1.047 2.7,-2.547 0,-0.656 -0.25,-1.344 -0.75,-2.047 -0.31,-0.359 -0.36,-0.453 -0.36,-0.703 0,-1 2,-1.906 4.41,-1.906 1.59,0 3.34,0.5 4.14,1.25 0.95,0.812 1.31,2 1.31,4.25 v 1.953 c -5.2,0.906 -6.86,1.297 -9.31,2.25 -4.34,1.609 -6.39,3.906 -6.39,7.109 0,3.594 2.8,5.844 7.25,5.844 3.45,0 6.55,-1.406 8.7,-3.953 0.8,2.547 2.05,3.547 4.39,3.547 2.25,0 4.61,-1.438 4.61,-2.891 0,-0.359 -0.2,-0.609 -0.5,-0.609 -0.2,0 -0.4,0.062 -0.75,0.203 -0.7,0.297 -1,0.359 -1.4,0.359 -1.41,0 -1.91,-0.906 -1.91,-3.453 v -10.047 m -4.69,6.094 c 0,3 -0.15,3.703 -1,5 -1.25,1.844 -3.5,3.094 -5.7,3.094 -2.3,0 -3.95,-1.641 -3.95,-3.891 0,-2.109 1.04,-3.609 3.25,-4.656 1.54,-0.703 3.5,-1.203 7.4,-1.844 v 2.297"
         id="path108" />
      <path
         class="Lyrics"
         d="m 594.877,562.094 -8.891,0.547 v 2.156 h 2.047 c 1.89,0.047 2.14,0.344 2.14,2.5 v 14.297 c -0.046,0.75 -0.093,1.047 -0.296,1.297 -0.344,0.453 -1.297,0.656 -3.454,0.703 h -0.187 v 1.797 h 12.594 v -1.797 h -0.203 c -3.297,-0.109 -3.75,-0.359 -3.75,-2.203 v -9.25 c 0,-4.453 2.453,-7.75 5.703,-7.75 2.843,0 4.297,2.047 4.297,6.094 v 11.156 c -0.047,0.656 -0.094,1 -0.344,1.25 -0.297,0.453 -1.297,0.656 -3.453,0.703 h -0.203 v 1.797 h 12.656 v -1.797 h -0.203 c -3.297,-0.109 -3.75,-0.359 -3.75,-2.156 v -8.844 c 0,-5 2.25,-8.203 5.75,-8.203 2.859,0 4.25,2.156 4.25,6.656 v 10.547 c -0.047,0.703 -0.094,1.047 -0.344,1.297 -0.297,0.453 -1.297,0.656 -3.453,0.703 h -0.203 v 1.797 h 12.656 v -1.797 h -0.203 c -3.297,-0.109 -3.75,-0.359 -3.75,-2.203 v -11.344 c 0,-3.109 -0.297,-4.156 -1.594,-5.859 -1.453,-1.844 -3.5,-2.844 -5.906,-2.844 -3.25,0 -5.656,1.547 -7.797,5 -0.859,-3 -3.563,-5 -6.906,-5 -3.047,0 -5.25,1.453 -7.203,4.594 v -3.844 m 41.906,-12.453 c -1.61,0 -2.906,1.297 -2.906,2.89 0,1.61 1.296,2.907 2.859,2.907 1.641,0 2.937,-1.297 2.937,-2.907 0,-1.593 -1.296,-2.89 -2.89,-2.89 m 2.344,12.453 -9.391,0.547 v 2.156 h 2.547 c 1.89,0.047 2.14,0.344 2.14,2.5 v 14.297 c -0.046,0.75 -0.093,1.047 -0.296,1.297 -0.344,0.453 -1.297,0.656 -3.454,0.703 h -0.343 v 1.797 h 12.953 v -1.797 h -0.36 c -3.343,-0.109 -3.796,-0.359 -3.796,-2.156 v -19.344"
         id="path109" />
      <path
         class="Lyrics"
         d="m 670.01,561.547 h -1.75 l -1.453,1.797 c -1.797,-1.406 -3.594,-2 -6.094,-2 -4.406,0 -7.297,2.844 -7.297,7.25 0,4.703 3.047,5.891 7.047,6.844 l 2.64,0.609 c 3.954,0.938 5.36,1.938 5.36,3.938 0,2.359 -2.047,4 -4.953,4 -4.25,0 -7.25,-2.688 -8.453,-7.688 h -2 v 9.438 h 1.75 l 1.75,-2.047 c 2.046,1.656 4.296,2.453 6.859,2.453 4.891,0 8.141,-3.047 8.141,-7.703 0,-2.203 -0.704,-3.891 -2.094,-5.047 -1.203,-1.047 -2.203,-1.453 -5.25,-2.094 l -2.5,-0.562 c -2.75,-0.594 -2.75,-0.594 -3.656,-1.094 -1.094,-0.5 -1.75,-1.547 -1.75,-2.656 0,-2.047 1.906,-3.438 4.656,-3.438 4.094,0 6.094,2.891 7.297,6.391 h 1.75 v -8.391 m 16.093,-0.203 c -6.14,0 -10.89,5.453 -10.89,12.453 0,6.844 4.797,12.344 10.797,12.344 6,0 10.797,-5.5 10.797,-12.406 0,-6.844 -4.797,-12.391 -10.704,-12.391 m 0,2.141 c 3.5,0 5.454,3.656 5.454,10.25 0,6.656 -1.954,10.25 -5.547,10.25 -3.594,0 -5.547,-3.594 -5.547,-10.188 0,-6.812 1.89,-10.312 5.64,-10.312 m 22.61,-14.954 -9.25,0.563 v 2.141 h 2.453 c 1.844,0.046 2.094,0.359 2.094,2.5 v 27.859 c -0.047,0.75 -0.094,1.047 -0.297,1.297 -0.36,0.453 -1.297,0.656 -3.453,0.703 h -0.344 v 1.797 h 12.937 v -1.797 h -0.343 c -3.344,-0.109 -3.797,-0.359 -3.797,-2.156 v -32.907"
         id="path110" />
      <path
         class="Lyrics"
         d="m 2257.66,548.531 -9.25,0.563 v 2.141 h 2.45 c 1.85,0.046 2.1,0.359 2.1,2.5 v 27.859 c -0.05,0.75 -0.1,1.047 -0.3,1.297 -0.36,0.453 -1.3,0.656 -3.45,0.703 h -0.35 v 1.797 h 12.94 v -1.797 h -0.34 c -3.35,-0.109 -3.8,-0.359 -3.8,-2.156 v -32.907 m 28.39,20.766 c 0,-3.156 -0.55,-4.75 -2,-5.953 -1.64,-1.359 -4.09,-2 -7.3,-2 -5.64,0 -9.75,2.641 -9.75,6.297 0,1.844 1.16,3.047 2.91,3.047 1.59,0 2.7,-1.047 2.7,-2.547 0,-0.656 -0.25,-1.344 -0.75,-2.047 -0.31,-0.359 -0.36,-0.453 -0.36,-0.703 0,-1 2,-1.906 4.41,-1.906 1.59,0 3.34,0.5 4.14,1.25 0.95,0.812 1.31,2 1.31,4.25 v 1.953 c -5.2,0.906 -6.86,1.297 -9.31,2.25 -4.34,1.609 -6.39,3.906 -6.39,7.109 0,3.594 2.8,5.844 7.25,5.844 3.45,0 6.55,-1.406 8.7,-3.953 0.8,2.547 2.05,3.547 4.39,3.547 2.25,0 4.61,-1.438 4.61,-2.891 0,-0.359 -0.2,-0.609 -0.5,-0.609 -0.2,0 -0.4,0.062 -0.75,0.203 -0.7,0.297 -1,0.359 -1.4,0.359 -1.41,0 -1.91,-0.906 -1.91,-3.453 v -10.047 m -4.69,6.094 c 0,3 -0.15,3.703 -1,5 -1.25,1.844 -3.5,3.094 -5.7,3.094 -2.3,0 -3.95,-1.641 -3.95,-3.891 0,-2.109 1.04,-3.609 3.25,-4.656 1.54,-0.703 3.5,-1.203 7.4,-1.844 v 2.297"
         id="path111" />
      <path
         class="Lyrics"
         d="m 761.943,585.735 8.703,-0.344 v -2.156 h -0.906 c -2.844,-0.141 -3.094,-0.438 -3.094,-3.641 v -31.063 l -9.797,0.563 v 2.141 h 2.938 c 1.906,0.046 2.156,0.359 2.156,2.5 v 11.312 c -1.844,-2.562 -4,-3.703 -6.906,-3.703 -5.641,0 -9.938,5.453 -9.938,12.641 0,7.109 4.141,12.156 9.938,12.156 3.156,0 5.312,-1.344 6.906,-4.344 v 3.938 m -5.906,-21.688 c 2.062,0 4,1.5 4.906,3.797 0.656,1.5 0.953,3.547 0.953,6 0,5.844 -2.297,9.594 -5.906,9.594 -3.547,0 -5.641,-3.297 -5.641,-8.844 0,-3 0.297,-5.25 0.938,-6.906 0.859,-2.25 2.703,-3.641 4.75,-3.641 m 28.5,-2.703 c -6.141,0 -10.891,5.453 -10.891,12.453 0,6.844 4.797,12.344 10.797,12.344 6,0 10.797,-5.5 10.797,-12.406 0,-6.844 -4.797,-12.391 -10.703,-12.391 m 0,2.141 c 3.5,0 5.453,3.656 5.453,10.25 0,6.656 -1.953,10.25 -5.547,10.25 -3.594,0 -5.547,-3.594 -5.547,-10.188 0,-6.812 1.891,-10.312 5.641,-10.312"
         id="path113" />
      <path
         class="Lyrics"
         d="m 887.284,562.094 v -9.906 h -2.047 c -0.5,6.5 -2.703,9.797 -6.75,10.109 v 1.938 h 4.094 v 12.75 c 0,3.5 0.093,4.75 0.593,5.906 0.813,2.094 2.813,3.25 5.703,3.25 4.5,0 7.407,-3.406 7.407,-8.703 0,-0.297 0,-0.641 -0.047,-1.141 h -2.11 c -0.14,4.5 -1.453,6.797 -3.89,6.797 -1.156,0 -2.156,-0.609 -2.5,-1.453 -0.313,-0.703 -0.453,-1.953 -0.453,-3.75 v -13.656 h 7.343 v -2.141 h -7.343 m 17.25,-12.453 c -1.61,0 -2.907,1.297 -2.907,2.89 0,1.61 1.297,2.907 2.86,2.907 1.64,0 2.937,-1.297 2.937,-2.907 0,-1.593 -1.297,-2.89 -2.89,-2.89 m 2.343,12.453 -9.39,0.547 v 2.156 h 2.547 c 1.89,0.047 2.14,0.344 2.14,2.5 v 14.297 c -0.047,0.75 -0.093,1.047 -0.297,1.297 -0.343,0.453 -1.296,0.656 -3.453,0.703 h -0.343 v 1.797 h 12.953 v -1.797 h -0.36 c -3.343,-0.109 -3.797,-0.359 -3.797,-2.156 v -19.344"
         id="path114" />
      <path
         class="Lyrics"
         d="m 2343.89,561.547 h -1.75 l -1.45,1.797 c -1.8,-1.406 -3.6,-2 -6.1,-2 -4.4,0 -7.29,2.844 -7.29,7.25 0,4.703 3.04,5.891 7.04,6.844 l 2.64,0.609 c 3.96,0.938 5.36,1.938 5.36,3.938 0,2.359 -2.04,4 -4.95,4 -4.25,0 -7.25,-2.688 -8.45,-7.688 h -2 v 9.438 h 1.75 l 1.75,-2.047 c 2.04,1.656 4.29,2.453 6.86,2.453 4.89,0 8.14,-3.047 8.14,-7.703 0,-2.203 -0.71,-3.891 -2.1,-5.047 -1.2,-1.047 -2.2,-1.453 -5.25,-2.094 l -2.5,-0.562 c -2.75,-0.594 -2.75,-0.594 -3.65,-1.094 -1.1,-0.5 -1.75,-1.547 -1.75,-2.656 0,-2.047 1.9,-3.438 4.65,-3.438 4.1,0 6.1,2.891 7.3,6.391 h 1.75 v -8.391 m 16.09,-0.203 c -6.14,0 -10.89,5.453 -10.89,12.453 0,6.844 4.8,12.344 10.8,12.344 6,0 10.8,-5.5 10.8,-12.406 0,-6.844 -4.8,-12.391 -10.71,-12.391 m 0,2.141 c 3.5,0 5.46,3.656 5.46,10.25 0,6.656 -1.96,10.25 -5.55,10.25 -3.59,0 -5.55,-3.594 -5.55,-10.188 0,-6.812 1.89,-10.312 5.64,-10.312 m 22.61,-14.954 -9.25,0.563 v 2.141 h 2.46 c 1.84,0.046 2.09,0.359 2.09,2.5 v 27.859 c -0.05,0.75 -0.09,1.047 -0.3,1.297 -0.36,0.453 -1.29,0.656 -3.45,0.703 h -0.34 v 1.797 h 12.93 v -1.797 h -0.34 c -3.34,-0.109 -3.8,-0.359 -3.8,-2.156 v -32.907"
         id="path115" />
      <path
         class="Lyrics"
         d="m 941.073,548.531 -9.25,0.563 v 2.141 h 2.453 c 1.844,0.046 2.094,0.359 2.094,2.5 v 27.859 c -0.047,0.75 -0.094,1.047 -0.297,1.297 -0.36,0.453 -1.297,0.656 -3.453,0.703 h -0.344 v 1.797 h 12.937 v -1.797 h -0.343 c -3.344,-0.109 -3.797,-0.359 -3.797,-2.156 v -32.907 m 28.39,20.766 c 0,-3.156 -0.547,-4.75 -2,-5.953 -1.64,-1.359 -4.093,-2 -7.297,-2 -5.64,0 -9.75,2.641 -9.75,6.297 0,1.844 1.157,3.047 2.907,3.047 1.593,0 2.703,-1.047 2.703,-2.547 0,-0.656 -0.25,-1.344 -0.75,-2.047 -0.313,-0.359 -0.36,-0.453 -0.36,-0.703 0,-1 2,-1.906 4.407,-1.906 1.593,0 3.343,0.5 4.14,1.25 0.953,0.812 1.313,2 1.313,4.25 v 1.953 c -5.203,0.906 -6.86,1.297 -9.313,2.25 -4.343,1.609 -6.39,3.906 -6.39,7.109 0,3.594 2.797,5.844 7.25,5.844 3.453,0 6.547,-1.406 8.703,-3.953 0.797,2.547 2.047,3.547 4.39,3.547 2.25,0 4.61,-1.438 4.61,-2.891 0,-0.359 -0.203,-0.609 -0.5,-0.609 -0.203,0 -0.406,0.062 -0.75,0.203 -0.703,0.297 -1,0.359 -1.406,0.359 -1.407,0 -1.907,-0.906 -1.907,-3.453 v -10.047 m -4.687,6.094 c 0,3 -0.156,3.703 -1,5 -1.25,1.844 -3.5,3.094 -5.703,3.094 -2.297,0 -3.953,-1.641 -3.953,-3.891 0,-2.109 1.046,-3.609 3.25,-4.656 1.546,-0.703 3.5,-1.203 7.406,-1.844 v 2.297"
         id="path117" />
      <path
         class="Tempo"
         d="m 473.073,250.17 h -3.266 v 42.266 c -1.094,-0.687 -2.484,-1.094 -4.062,-1.281 -3.563,0 -6.438,0.39 -9.61,2.172 -3.953,2.078 -8.312,6.437 -8.312,11.281 0,4.75 4.265,7.031 8.609,7.031 6.938,0 16.641,-5.937 16.641,-13.469 v -48"
         id="path118" />
      <path
         class="Tempo"
         d="m 494.807,288.124 h 30.234 v -6.907 h -30.234 v 6.907 m 0,12.359 h 30.234 v -6.906 h -30.234 v 6.906 m 72.078,-14.219 c 0,5.688 -0.234,17.453 -8.281,17.453 -1.266,0 -1.984,-0.422 -1.984,-1.203 0,-0.359 0.125,-0.719 0.359,-1.078 1.078,-1.734 1.203,-2.094 1.203,-3.422 0,-2.875 -2.031,-4.859 -5.031,-4.859 -3.313,0 -5.703,2.531 -5.703,6 0,4.687 4.375,7.687 11.156,7.687 13.625,0 18.844,-12.125 18.844,-24 0,-5.515 -1.203,-9.609 -3.719,-13.015 -3.063,-4.094 -7.438,-6.313 -12.484,-6.313 -8.704,0 -15,6.063 -15,14.406 0,7.079 5.046,12.297 11.875,12.297 3.718,0 6.25,-1.14 8.765,-3.953 m -5.156,-19.625 c 4.375,0 4.922,7.375 4.922,10.438 0,5.281 -1.922,8.64 -4.985,8.64 -4.75,0 -5.046,-5.75 -5.046,-9.172 0,-6.546 1.75,-9.906 5.109,-9.906 m 34.234,-3.125 c -9,0 -15.593,9.188 -15.593,21.672 0,12.469 6.593,21.656 15.593,21.656 8.813,0 15.547,-9.187 15.547,-21.359 0,-7.078 -1.625,-12.297 -5.172,-16.75 -2.812,-3.406 -6.359,-5.219 -10.375,-5.219 m -0.062,3.125 c 1.797,0 3.25,1.078 3.906,3 0.781,1.985 1.25,8.281 1.25,15.719 0,6.187 -0.469,12.656 -1.016,14.703 -0.656,2.391 -2.093,3.656 -4.14,3.656 -1.86,0 -3.235,-1.015 -3.953,-3 -0.782,-1.984 -1.266,-8.343 -1.266,-15.531 0,-6.312 0.484,-12.844 1.016,-14.891 0.672,-2.39 2.109,-3.656 4.203,-3.656"
         id="path119" />
      <path
         class="StaffText"
         d="m 2495.11,325.289 h -29.75 v 2.36 h 0.9 c 2.85,0.046 3.81,0.203 4.2,0.703 0.3,0.437 0.3,0.547 0.3,3.093 v 23.797 c 0,2.563 0,2.657 -0.3,3.11 -0.39,0.5 -1.35,0.703 -4.2,0.703 h -0.9 v 2.344 h 17.15 v -2.344 h -1.65 c -2.85,0 -3.79,-0.203 -4.2,-0.703 -0.3,-0.453 -0.3,-0.61 -0.3,-3.11 v -11.343 h 1 c 5.15,-0.204 7,1.656 7.21,7.203 h 2.34 v -16.407 h -2.34 c -0.31,4.907 -2.25,6.797 -7,6.86 h -1.21 v -11.406 c -0.04,-2.11 0.46,-2.454 3.15,-2.5 h 2.31 c 8.2,-0.047 10.25,1.796 11.79,10.406 h 2.21 l -0.71,-12.766"
         id="path120" />
      <path
         class="StaffText"
         d="m 784.28,324.945 h -1.906 l -2,2.954 c -3.641,-2.657 -5.5,-3.36 -8.953,-3.36 -4.75,0 -8.797,2 -12.141,6 -3.203,3.813 -4.703,8.016 -4.703,13.156 0,10.797 7.047,18.454 16.906,18.454 8,0 13.094,-4.704 14.25,-13.094 l -2.359,-0.406 c -1.344,7.453 -5.141,11.156 -11.297,11.156 -7.406,0 -10.906,-5.11 -10.906,-15.906 0,-5.704 0.75,-9.454 2.453,-12.454 1.547,-2.796 4.609,-4.546 7.859,-4.546 3.5,0 6.594,1.843 8.5,5.046 0.953,1.657 1.641,3.5 2.844,7.454 h 2.203 l -0.75,-14.454"
         id="path121" />
      <path
         class="StaffText"
         d="m 629.214,325.289 h -30.047 v 2.36 h 0.89 c 2.86,0.046 3.813,0.203 4.203,0.703 0.297,0.437 0.297,0.547 0.297,3.093 v 23.797 c 0,2.563 0,2.657 -0.297,3.11 -0.39,0.5 -1.343,0.703 -4.203,0.703 h -0.89 v 2.344 h 30.703 l 1,-13.344 h -2.203 c -1.907,8.89 -3.953,10.797 -11.61,11 h -3.297 c -3,-0.11 -3.75,-0.61 -3.593,-2.406 v -12.75 h 1 c 5.14,-0.204 7,1.656 7.203,7.203 h 2.344 v -16.407 h -2.344 c -0.313,4.907 -2.25,6.86 -7,6.86 h -1.203 v -11.406 c -0.047,-2.11 0.453,-2.454 3.14,-2.5 h 2.61 c 8.203,-0.047 10.25,1.75 11.843,10.406 h 2.157 l -0.703,-12.766"
         id="path122" />
      <path
         class="StaffText"
         d="m 565.487,324.945 h -1.907 l -2,2.954 c -3.64,-2.657 -5.5,-3.36 -8.953,-3.36 -4.75,0 -8.797,2 -12.14,6 -3.203,3.813 -4.703,8.016 -4.703,13.156 0,10.797 7.046,18.454 16.906,18.454 8,0 13.094,-4.704 14.25,-13.094 l -2.36,-0.406 c -1.343,7.453 -5.14,11.156 -11.296,11.156 -7.407,0 -10.907,-5.11 -10.907,-15.906 0,-5.704 0.75,-9.454 2.453,-12.454 1.547,-2.796 4.61,-4.546 7.86,-4.546 3.5,0 6.594,1.843 8.5,5.046 0.953,1.657 1.64,3.5 2.844,7.454 h 2.203 l -0.75,-14.454"
         id="path123" />
      <path
         class="StaffText"
         d="m 2555.59,325.289 h -30.05 v 2.36 h 0.9 c 2.85,0.046 3.81,0.203 4.2,0.703 0.3,0.437 0.3,0.547 0.3,3.093 v 23.797 c 0,2.563 0,2.657 -0.3,3.11 -0.39,0.5 -1.35,0.703 -4.2,0.703 h -0.9 v 2.344 h 30.71 l 1,-13.344 h -2.21 c -1.9,8.89 -3.95,10.797 -11.6,11 h -3.3 c -3,-0.11 -3.75,-0.61 -3.6,-2.406 v -12.75 h 1 c 5.15,-0.204 7,1.656 7.21,7.203 h 2.34 v -16.407 h -2.34 c -0.31,4.907 -2.25,6.86 -7,6.86 h -1.21 v -11.406 c -0.04,-2.11 0.46,-2.454 3.15,-2.5 h 2.6 c 8.21,-0.047 10.25,1.75 11.85,10.406 h 2.15 l -0.7,-12.766"
         id="path124" />
      <path
         class="StaffText"
         d="m 1823.78,324.945 h -1.9 l -2,2.954 c -3.64,-2.657 -5.5,-3.36 -8.95,-3.36 -4.75,0 -8.8,2 -12.15,6 -3.2,3.813 -4.7,8.016 -4.7,13.156 0,10.797 7.05,18.454 16.91,18.454 8,0 13.09,-4.704 14.25,-13.094 l -2.36,-0.406 c -1.35,7.453 -5.14,11.156 -11.3,11.156 -7.4,0 -10.9,-5.11 -10.9,-15.906 0,-5.704 0.75,-9.454 2.45,-12.454 1.55,-2.796 4.61,-4.546 7.86,-4.546 3.5,0 6.59,1.843 8.5,5.046 0.95,1.657 1.64,3.5 2.84,7.454 h 2.2 l -0.75,-14.454"
         id="path125" />
      <path
         class="StaffText"
         d="m 2137.26,312.857 v 2.359 h 0.91 c 2.84,0.047 3.8,0.203 4.19,0.703 0.31,0.438 0.31,0.547 0.31,3.094 v 23.797 c 0,2.563 0,2.656 -0.31,3.109 -0.39,0.5 -1.35,0.704 -4.19,0.704 h -0.91 v 2.343 h 18.16 c 8.64,0 13.84,-3.656 13.84,-9.797 0,-5 -3.14,-7.859 -10,-9.046 2.41,-0.5 3.5,-0.954 4.8,-1.907 2.06,-1.547 3.31,-4 3.31,-6.5 0,-3.25 -2,-6.406 -4.9,-7.656 -1.8,-0.797 -4.3,-1.203 -7.25,-1.203 h -17.96 m 11,16.266 v -11.407 c 0,-1.953 0.66,-2.453 3.3,-2.5 h 2 c 4.91,0 8,1.594 8,7.047 0,4.953 -2.39,6.86 -8.84,6.86 h -4.46 m 0,2.343 h 4.41 c 7.64,0 10.45,2.047 10.45,7.547 0,6.703 -4.2,7.61 -9.86,7.61 h -2.09 c -2.5,0 -3,-0.5 -2.91,-3.157 v -12"
         id="path126" />
      <path
         class="StaffText"
         d="m 2585.72,361.399 h 16.8 c 4.45,0 7.86,-0.704 10.5,-2.204 5.05,-2.843 7.86,-8.546 7.86,-16.046 0,-6.907 -2.5,-12.297 -7.11,-15.297 -2.75,-1.75 -6.45,-2.563 -12.15,-2.563 h -15.9 v 2.36 h 0.96 c 2.79,0.046 3.75,0.203 4.14,0.703 0.3,0.437 0.3,0.547 0.3,3.093 v 23.797 c 0,2.563 0,2.657 -0.3,3.11 -0.39,0.5 -1.35,0.64 -4.14,0.703 h -0.96 v 2.344 m 13.85,-2.344 c -2.55,0 -2.85,-0.313 -2.85,-2.75 v -25.86 c 0,-2.453 0.35,-2.796 2.85,-2.796 h 2.61 c 8.54,0 12.09,4.64 12.09,15.703 0,11.203 -3.2,15.703 -11.3,15.703 h -3.4"
         id="path127" />
      <path
         class="StaffText"
         d="m 1297.29,325.289 h -30.04 v 2.36 h 0.89 c 2.86,0.046 3.81,0.203 4.2,0.703 0.3,0.437 0.3,0.547 0.3,3.093 v 23.797 c 0,2.563 0,2.657 -0.3,3.11 -0.39,0.5 -1.34,0.703 -4.2,0.703 h -0.89 v 2.344 h 30.7 l 1,-13.344 h -2.2 c -1.91,8.89 -3.96,10.797 -11.61,11 h -3.3 c -3,-0.11 -3.75,-0.61 -3.59,-2.406 v -12.75 h 1 c 5.14,-0.204 7,1.656 7.2,7.203 h 2.34 v -16.407 h -2.34 c -0.31,4.907 -2.25,6.86 -7,6.86 h -1.2 v -11.406 c -0.05,-2.11 0.45,-2.454 3.14,-2.5 h 2.61 c 8.2,-0.047 10.25,1.75 11.84,10.406 h 2.16 l -0.71,-12.766"
         id="path128" />
      <path
         class="StaffText"
         d="m 1236.82,325.289 h -29.75 v 2.36 h 0.89 c 2.86,0.046 3.81,0.203 4.2,0.703 0.3,0.437 0.3,0.547 0.3,3.093 v 23.797 c 0,2.563 0,2.657 -0.3,3.11 -0.39,0.5 -1.34,0.703 -4.2,0.703 h -0.89 v 2.344 h 17.14 v -2.344 h -1.64 c -2.86,0 -3.8,-0.203 -4.21,-0.703 -0.29,-0.453 -0.29,-0.61 -0.29,-3.11 v -11.343 h 1 c 5.14,-0.204 7,1.656 7.2,7.203 h 2.34 v -16.407 h -2.34 c -0.31,4.907 -2.25,6.797 -7,6.86 h -1.2 v -11.406 c -0.05,-2.11 0.45,-2.454 3.14,-2.5 h 2.31 c 8.2,-0.047 10.25,1.796 11.8,10.406 h 2.2 l -0.7,-12.766"
         id="path129" />
      <path
         class="StaffText"
         d="m 2214.96,314.236 h -2.11 l -11.5,29.141 c -1.35,3.906 -2.64,5.109 -5.5,5.312 h -0.2 v 2.344 h 13.25 v -2.344 h -1 c -2.69,0 -4.05,-0.953 -4.05,-2.859 0,-0.641 0.15,-1.25 0.45,-2.094 l 1.66,-4.406 h 13.25 l 2.7,6.703 c 0.3,0.797 0.39,1.094 0.39,1.344 0,0.812 -1.25,1.312 -3.09,1.312 h -2.11 v 2.344 h 15.5 v -2.344 h -0.69 c -2.61,-0.062 -3.06,-0.359 -4.2,-3.203 l -12.75,-31.25 m -2.46,8.188 5.65,14.203 h -11.19 l 5.54,-14.203"
         id="path130" />
      <path
         class="StaffText"
         d="m 2703.2,325.289 h -30.04 v 2.36 h 0.89 c 2.86,0.046 3.81,0.203 4.2,0.703 0.3,0.437 0.3,0.547 0.3,3.093 v 23.797 c 0,2.563 0,2.657 -0.3,3.11 -0.39,0.5 -1.34,0.703 -4.2,0.703 h -0.89 v 2.344 h 30.7 l 1,-13.344 h -2.2 c -1.91,8.89 -3.96,10.797 -11.61,11 h -3.3 c -3,-0.11 -3.75,-0.61 -3.59,-2.406 v -12.75 h 1 c 5.14,-0.204 7,1.656 7.2,7.203 h 2.34 v -16.407 h -2.34 c -0.31,4.907 -2.25,6.86 -7,6.86 h -1.2 v -11.406 c -0.05,-2.11 0.45,-2.454 3.14,-2.5 h 2.61 c 8.2,-0.047 10.25,1.75 11.84,10.406 h 2.16 l -0.71,-12.766"
         id="path131" />
      <path
         class="StaffText"
         d="m 1558.45,318.402 h -2.11 l -11.5,29.14 c -1.34,3.907 -2.64,5.11 -5.5,5.313 h -0.2 v 2.344 h 13.25 v -2.344 h -1 c -2.69,0 -4.05,-0.953 -4.05,-2.86 0,-0.64 0.16,-1.25 0.45,-2.093 l 1.66,-4.407 h 13.25 l 2.7,6.704 c 0.3,0.796 0.39,1.093 0.39,1.343 0,0.813 -1.25,1.313 -3.09,1.313 h -2.11 v 2.344 h 15.5 v -2.344 h -0.69 c -2.61,-0.063 -3.06,-0.36 -4.2,-3.203 l -12.75,-31.25 m -2.45,8.187 5.64,14.203 h -11.19 l 5.55,-14.203"
         id="path132" />
      <path
         class="StaffText"
         d="m 1887.51,325.289 h -30.05 v 2.36 h 0.9 c 2.85,0.046 3.81,0.203 4.2,0.703 0.3,0.437 0.3,0.547 0.3,3.093 v 23.797 c 0,2.563 0,2.657 -0.3,3.11 -0.39,0.5 -1.35,0.703 -4.2,0.703 h -0.9 v 2.344 h 30.71 l 1,-13.344 h -2.21 c -1.9,8.89 -3.95,10.797 -11.6,11 h -3.3 c -3,-0.11 -3.75,-0.61 -3.6,-2.406 v -12.75 h 1 c 5.15,-0.204 7,1.656 7.21,7.203 h 2.34 v -16.407 h -2.34 c -0.31,4.907 -2.25,6.86 -7,6.86 h -1.21 v -11.406 c -0.04,-2.11 0.46,-2.454 3.15,-2.5 h 2.6 c 8.21,-0.047 10.25,1.75 11.85,10.406 h 2.15 l -0.7,-12.766"
         id="path133" />
      <path
         class="StaffText"
         d="m 1112.98,323.945 h -1.89 l -1.96,3 c -3.25,-2.546 -5.45,-3.406 -9.11,-3.406 -3.95,0 -7.04,1.11 -10.2,3.656 -4.94,4 -7.25,9.047 -7.25,15.797 0,5.11 1.45,9.36 4.41,12.61 3.09,3.5 7.7,5.547 12.5,5.547 4.2,0 7.15,-1.297 10.4,-4.547 l 1.85,4.5 h 2.11 v -11 c 0,-2.547 0,-2.657 0.29,-3.11 0.46,-0.547 1.35,-0.687 4.21,-0.687 h 0.75 v -2.36 h -15.91 v 2.36 h 0.95 c 4.21,0 4.55,0.25 4.55,3.047 0,2.14 -0.34,4.093 -1,5.297 -1.25,2.453 -4.45,4.156 -7.7,4.156 -3.25,0 -6.46,-1.656 -8.16,-4.156 -1.84,-2.797 -2.64,-6.297 -2.64,-11.657 0,-11.14 3.7,-17.093 10.64,-17.093 5.7,0 9.66,4.093 11.7,12.093 h 2.16 l -0.7,-14.047"
         id="path134" />
      <path
         class="StaffText"
         d="m 2273.25,318.402 h -2.11 l -11.5,29.14 c -1.35,3.907 -2.64,5.11 -5.5,5.313 h -0.21 v 2.344 h 13.25 v -2.344 h -1 c -2.68,0 -4.04,-0.953 -4.04,-2.86 0,-0.64 0.15,-1.25 0.45,-2.093 l 1.66,-4.407 h 13.25 l 2.7,6.704 c 0.3,0.796 0.39,1.093 0.39,1.343 0,0.813 -1.25,1.313 -3.09,1.313 h -2.11 v 2.344 h 15.5 v -2.344 h -0.69 c -2.61,-0.063 -3.06,-0.36 -4.2,-3.203 l -12.75,-31.25 m -2.46,8.187 5.64,14.203 h -11.18 l 5.54,-14.203"
         id="path135" />
      <path
         class="StaffText"
         d="m 1014.95,318.402 h -2.11 l -11.5,29.14 c -1.345,3.907 -2.641,5.11 -5.501,5.313 h -0.203 v 2.344 h 13.254 v -2.344 h -1 c -2.69,0 -4.05,-0.953 -4.05,-2.86 0,-0.64 0.16,-1.25 0.45,-2.093 l 1.66,-4.407 h 13.25 l 2.7,6.704 c 0.3,0.796 0.39,1.093 0.39,1.343 0,0.813 -1.25,1.313 -3.09,1.313 h -2.11 v 2.344 h 15.5 v -2.344 h -0.69 c -2.61,-0.063 -3.06,-0.36 -4.2,-3.203 l -12.75,-31.25 m -2.45,8.187 5.64,14.203 h -11.19 l 5.55,-14.203"
         id="path136" />
      <path
         class="StaffText"
         d="m 1444.36,324.945 h -1.91 l -2,2.954 c -3.64,-2.657 -5.5,-3.36 -8.95,-3.36 -4.75,0 -8.8,2 -12.14,6 -3.2,3.813 -4.7,8.016 -4.7,13.156 0,10.797 7.04,18.454 16.9,18.454 8,0 13.1,-4.704 14.25,-13.094 l -2.36,-0.406 c -1.34,7.453 -5.14,11.156 -11.29,11.156 -7.41,0 -10.91,-5.11 -10.91,-15.906 0,-5.704 0.75,-9.454 2.45,-12.454 1.55,-2.796 4.61,-4.546 7.86,-4.546 3.5,0 6.6,1.843 8.5,5.046 0.96,1.657 1.64,3.5 2.85,7.454 h 2.2 l -0.75,-14.454"
         id="path137" />
      <path
         class="StaffText"
         d="m 1955.69,323.945 h -1.89 l -1.95,3 c -3.25,-2.546 -5.46,-3.406 -9.11,-3.406 -3.95,0 -7.05,1.11 -10.2,3.656 -4.94,4 -7.25,9.047 -7.25,15.797 0,5.11 1.45,9.36 4.4,12.61 3.1,3.5 7.7,5.547 12.5,5.547 4.2,0 7.16,-1.297 10.41,-4.547 l 1.84,4.5 h 2.11 v -11 c 0,-2.547 0,-2.657 0.3,-3.11 0.45,-0.547 1.34,-0.687 4.2,-0.687 h 0.75 v -2.36 h -15.91 v 2.36 h 0.96 c 4.2,0 4.54,0.25 4.54,3.047 0,2.14 -0.34,4.093 -1,5.297 -1.25,2.453 -4.45,4.156 -7.7,4.156 -3.25,0 -6.45,-1.656 -8.15,-4.156 -1.85,-2.797 -2.65,-6.297 -2.65,-11.657 0,-11.14 3.71,-17.093 10.65,-17.093 5.7,0 9.65,4.093 11.7,12.093 h 2.15 l -0.7,-14.047"
         id="path138" />
      <path
         class="StaffText"
         d="m 2371.27,323.945 h -1.89 l -1.95,3 c -3.25,-2.546 -5.45,-3.406 -9.11,-3.406 -3.95,0 -7.05,1.11 -10.2,3.656 -4.94,4 -7.25,9.047 -7.25,15.797 0,5.11 1.45,9.36 4.4,12.61 3.1,3.5 7.71,5.547 12.5,5.547 4.21,0 7.16,-1.297 10.41,-4.547 l 1.84,4.5 h 2.11 v -11 c 0,-2.547 0,-2.657 0.3,-3.11 0.45,-0.547 1.34,-0.687 4.2,-0.687 h 0.75 v -2.36 h -15.9 v 2.36 h 0.95 c 4.2,0 4.55,0.25 4.55,3.047 0,2.14 -0.35,4.093 -1,5.297 -1.25,2.453 -4.46,4.156 -7.71,4.156 -3.25,0 -6.45,-1.656 -8.15,-4.156 -1.85,-2.797 -2.64,-6.297 -2.64,-11.657 0,-11.14 3.7,-17.093 10.64,-17.093 5.7,0 9.65,4.093 11.7,12.093 h 2.16 l -0.71,-14.047"
         id="path139" />
      <path
         class="StaffText"
         d="m 697.394,323.945 h -1.891 l -1.953,3 c -3.25,-2.546 -5.453,-3.406 -9.11,-3.406 -3.953,0 -7.046,1.11 -10.203,3.656 -4.937,4 -7.25,9.047 -7.25,15.797 0,5.11 1.453,9.36 4.407,12.61 3.093,3.5 7.703,5.547 12.5,5.547 4.203,0 7.156,-1.297 10.406,-4.547 l 1.844,4.5 h 2.109 v -11 c 0,-2.547 0,-2.657 0.297,-3.11 0.453,-0.547 1.344,-0.687 4.203,-0.687 h 0.75 v -2.36 h -15.906 v 2.36 h 0.953 c 4.203,0 4.547,0.25 4.547,3.047 0,2.14 -0.344,4.093 -1,5.297 -1.25,2.453 -4.453,4.156 -7.703,4.156 -3.25,0 -6.454,-1.656 -8.157,-4.156 -1.843,-2.797 -2.64,-6.297 -2.64,-11.657 0,-11.14 3.703,-17.093 10.64,-17.093 5.703,0 9.657,4.093 11.703,12.093 h 2.157 l -0.703,-14.047"
         id="path140" />
      <path
         class="StaffText"
         d="m 956.66,314.236 h -2.11 l -11.5,29.141 c -1.343,3.906 -2.64,5.109 -5.5,5.312 h -0.203 v 2.344 h 13.25 v -2.344 h -1 c -2.687,0 -4.047,-0.953 -4.047,-2.859 0,-0.641 0.157,-1.25 0.453,-2.094 l 1.657,-4.406 h 13.25 l 2.703,6.703 c 0.297,0.797 0.39,1.094 0.39,1.344 0,0.812 -1.25,1.312 -3.093,1.312 h -2.11 v 2.344 h 15.5 v -2.344 h -0.687 c -2.61,-0.062 -3.063,-0.359 -4.203,-3.203 l -12.75,-31.25 m -2.453,8.188 5.64,14.203 H 948.66 l 5.547,-14.203"
         id="path142" />
      <path
         class="StaffText"
         d="m 1656.48,323.945 h -1.89 l -1.96,3 c -3.25,-2.546 -5.45,-3.406 -9.11,-3.406 -3.95,0 -7.04,1.11 -10.2,3.656 -4.94,4 -7.25,9.047 -7.25,15.797 0,5.11 1.45,9.36 4.41,12.61 3.09,3.5 7.7,5.547 12.5,5.547 4.2,0 7.15,-1.297 10.4,-4.547 l 1.85,4.5 h 2.11 v -11 c 0,-2.547 0,-2.657 0.29,-3.11 0.46,-0.547 1.35,-0.687 4.21,-0.687 h 0.75 v -2.36 h -15.91 v 2.36 h 0.95 c 4.21,0 4.55,0.25 4.55,3.047 0,2.14 -0.34,4.093 -1,5.297 -1.25,2.453 -4.45,4.156 -7.7,4.156 -3.25,0 -6.46,-1.656 -8.16,-4.156 -1.84,-2.797 -2.64,-6.297 -2.64,-11.657 0,-11.14 3.7,-17.093 10.64,-17.093 5.7,0 9.66,4.093 11.7,12.093 h 2.16 l -0.7,-14.047"
         id="path143" />
      <path
         class="StaffText"
         d="m 2042.58,324.945 h -1.91 l -2,2.954 c -3.64,-2.657 -5.5,-3.36 -8.95,-3.36 -4.75,0 -8.8,2 -12.14,6 -3.2,3.813 -4.7,8.016 -4.7,13.156 0,10.797 7.04,18.454 16.9,18.454 8,0 13.1,-4.704 14.25,-13.094 l -2.36,-0.406 c -1.34,7.453 -5.14,11.156 -11.29,11.156 -7.41,0 -10.91,-5.11 -10.91,-15.906 0,-5.704 0.75,-9.454 2.45,-12.454 1.55,-2.796 4.61,-4.546 7.86,-4.546 3.5,0 6.6,1.843 8.5,5.046 0.95,1.657 1.64,3.5 2.85,7.454 h 2.2 l -0.75,-14.454"
         id="path144" />
      <path
         class="StaffText"
         d="m 1327.43,361.399 h 16.79 c 4.46,0 7.86,-0.704 10.5,-2.204 5.05,-2.843 7.86,-8.546 7.86,-16.046 0,-6.907 -2.5,-12.297 -7.11,-15.297 -2.75,-1.75 -6.45,-2.563 -12.15,-2.563 h -15.89 v 2.36 h 0.95 c 2.8,0.046 3.75,0.203 4.14,0.703 0.3,0.437 0.3,0.547 0.3,3.093 v 23.797 c 0,2.563 0,2.657 -0.3,3.11 -0.39,0.5 -1.34,0.64 -4.14,0.703 h -0.95 v 2.344 m 13.84,-2.344 c -2.55,0 -2.84,-0.313 -2.84,-2.75 v -25.86 c 0,-2.453 0.34,-2.796 2.84,-2.796 h 2.61 c 8.55,0 12.09,4.64 12.09,15.703 0,11.203 -3.2,15.703 -11.29,15.703 h -3.41"
         id="path145" />
      <path
         class="StaffText"
         d="m 878.964,312.857 v 2.359 h 0.907 c 2.843,0.047 3.797,0.203 4.187,0.703 0.313,0.438 0.313,0.547 0.313,3.094 v 23.797 c 0,2.563 0,2.656 -0.313,3.109 -0.39,0.5 -1.344,0.704 -4.187,0.704 h -0.907 v 2.343 h 18.157 c 8.64,0 13.843,-3.656 13.843,-9.797 0,-5 -3.14,-7.859 -10,-9.046 2.407,-0.5 3.5,-0.954 4.797,-1.907 2.063,-1.547 3.313,-4 3.313,-6.5 0,-3.25 -2,-6.406 -4.906,-7.656 -1.797,-0.797 -4.297,-1.203 -7.25,-1.203 h -17.954 m 11,16.266 v -11.407 c 0,-1.953 0.657,-2.453 3.297,-2.5 h 2 c 4.907,0 8,1.594 8,7.047 0,4.953 -2.39,6.86 -8.843,6.86 h -4.454 m 0,2.343 h 4.407 c 7.64,0 10.453,2.047 10.453,7.547 0,6.703 -4.203,7.61 -9.86,7.61 h -2.093 c -2.5,0 -3,-0.5 -2.907,-3.157 v -12"
         id="path147" />
    </g>
  </g>
  <metadata
     id="metadata149">
    <rdf:RDF>
      <cc:Work
         rdf:about="">
        <dc:title>54</dc:title>
      </cc:Work>
    </rdf:RDF>
  </metadata>
</svg>
