<?xml version="1.0" encoding="UTF-8" standalone="no"?>
<svg
   width="2555"
   height="400"
   viewBox="0 0 2555 400.00001"
   version="1.2"
   id="svg89"
   sodipodi:docname="64-1.svg"
   inkscape:version="1.3 (0e150ed6c4, 2023-07-21)"
   xmlns:inkscape="http://www.inkscape.org/namespaces/inkscape"
   xmlns:sodipodi="http://sodipodi.sourceforge.net/DTD/sodipodi-0.dtd"
   xmlns="http://www.w3.org/2000/svg"
   xmlns:svg="http://www.w3.org/2000/svg"
   xmlns:rdf="http://www.w3.org/1999/02/22-rdf-syntax-ns#"
   xmlns:cc="http://creativecommons.org/ns#"
   xmlns:dc="http://purl.org/dc/elements/1.1/">
  <defs
     id="defs89" />
  <sodipodi:namedview
     id="namedview89"
     pagecolor="#505050"
     bordercolor="#ffffff"
     borderopacity="1"
     inkscape:showpageshadow="0"
     inkscape:pageopacity="0"
     inkscape:pagecheckerboard="1"
     inkscape:deskcolor="#505050"
     inkscape:zoom="0.18605646"
     inkscape:cx="1486.108"
     inkscape:cy="2104.2"
     inkscape:window-width="1680"
     inkscape:window-height="979"
     inkscape:window-x="1358"
     inkscape:window-y="-8"
     inkscape:window-maximized="1"
     inkscape:current-layer="svg89" />
  <title
     id="title1">64</title>
  <desc
     id="desc1">Generated by MuseScore Studio 4.3.0</desc>
  <g
     id="g89"
     transform="translate(-209.6,-210.4595)">
    <polyline
       class="StaffLines"
       fill="none"
       stroke="#000000"
       stroke-width="2.73"
       stroke-linejoin="bevel"
       points="336.599,386.199 2764.6,386.199"
       id="polyline1" />
    <polyline
       class="StaffLines"
       fill="none"
       stroke="#000000"
       stroke-width="2.73"
       stroke-linejoin="bevel"
       points="336.599,410.999 2764.6,410.999"
       id="polyline2" />
    <polyline
       class="StaffLines"
       fill="none"
       stroke="#000000"
       stroke-width="2.73"
       stroke-linejoin="bevel"
       points="336.599,435.799 2764.6,435.799"
       id="polyline3" />
    <polyline
       class="StaffLines"
       fill="none"
       stroke="#000000"
       stroke-width="2.73"
       stroke-linejoin="bevel"
       points="336.599,460.599 2764.6,460.599"
       id="polyline4" />
    <polyline
       class="StaffLines"
       fill="none"
       stroke="#000000"
       stroke-width="2.73"
       stroke-linejoin="bevel"
       points="336.599,485.399 2764.6,485.399"
       id="polyline5" />
    <polyline
       class="BarLine"
       fill="none"
       stroke="#000000"
       stroke-width="4.46"
       stroke-linejoin="bevel"
       points="834.055,384.835 834.055,486.763"
       id="polyline6" />
    <polyline
       class="BarLine"
       fill="none"
       stroke="#000000"
       stroke-width="4.46"
       stroke-linejoin="bevel"
       points="1118.04,384.835 1118.04,486.763"
       id="polyline7" />
    <polyline
       class="BarLine"
       fill="none"
       stroke="#000000"
       stroke-width="4.46"
       stroke-linejoin="bevel"
       points="2171.57,384.835 2171.57,486.763"
       id="polyline8" />
    <polyline
       class="BarLine"
       fill="none"
       stroke="#000000"
       stroke-width="4.46"
       stroke-linejoin="bevel"
       points="1402.03,384.835 1402.03,486.763"
       id="polyline9" />
    <polyline
       class="BarLine"
       fill="none"
       stroke="#000000"
       stroke-width="4.46"
       stroke-linejoin="bevel"
       points="2739.55,384.835 2739.55,486.763"
       id="polyline10" />
    <polyline
       class="BarLine"
       fill="none"
       stroke="#000000"
       stroke-width="13.64"
       stroke-linejoin="bevel"
       points="2757.78,384.835 2757.78,486.763"
       id="polyline11" />
    <polyline
       class="BarLine"
       fill="none"
       stroke="#000000"
       stroke-width="4.46"
       stroke-linejoin="bevel"
       points="1928.8,384.835 1928.8,486.763"
       id="polyline12" />
    <polyline
       class="BarLine"
       fill="none"
       stroke="#000000"
       stroke-width="4.46"
       stroke-linejoin="bevel"
       points="1686.02,384.835 1686.02,486.763"
       id="polyline13" />
    <polyline
       class="BarLine"
       fill="none"
       stroke="#000000"
       stroke-width="4.46"
       stroke-linejoin="bevel"
       points="2455.56,384.835 2455.56,486.763"
       id="polyline14" />
    <polyline
       class="Stem"
       fill="none"
       stroke="#000000"
       stroke-width="2.48"
       stroke-linejoin="bevel"
       points="2207.29,427.565 2207.29,503.999"
       id="polyline15" />
    <polyline
       class="Stem"
       fill="none"
       stroke="#000000"
       stroke-width="2.48"
       stroke-linejoin="bevel"
       points="2289.72,439.965 2289.72,510.199"
       id="polyline16" />
    <polyline
       class="Stem"
       fill="none"
       stroke="#000000"
       stroke-width="2.48"
       stroke-linejoin="bevel"
       points="2401.9,444.231 2401.9,367.599"
       id="polyline17" />
    <polyline
       class="Stem"
       fill="none"
       stroke="#000000"
       stroke-width="2.48"
       stroke-linejoin="bevel"
       points="615.529,456.631 615.529,373.799"
       id="polyline18" />
    <polyline
       class="Stem"
       fill="none"
       stroke="#000000"
       stroke-width="2.48"
       stroke-linejoin="bevel"
       points="1437.75,439.965 1437.75,510.199"
       id="polyline19" />
    <polyline
       class="Stem"
       fill="none"
       stroke="#000000"
       stroke-width="2.48"
       stroke-linejoin="bevel"
       points="697.958,456.631 697.958,373.799"
       id="polyline20" />
    <polyline
       class="Stem"
       fill="none"
       stroke="#000000"
       stroke-width="2.48"
       stroke-linejoin="bevel"
       points="2521.03,456.631 2521.03,373.799"
       id="polyline21" />
    <polyline
       class="Stem"
       fill="none"
       stroke="#000000"
       stroke-width="2.48"
       stroke-linejoin="bevel"
       points="1318.61,427.565 1318.61,503.999"
       id="polyline22" />
    <polyline
       class="Stem"
       fill="none"
       stroke="#000000"
       stroke-width="2.48"
       stroke-linejoin="bevel"
       points="780.386,444.231 780.386,367.599"
       id="polyline23" />
    <polyline
       class="Stem"
       fill="none"
       stroke="#000000"
       stroke-width="2.48"
       stroke-linejoin="bevel"
       points="899.519,456.631 899.519,373.799"
       id="polyline24" />
    <polyline
       class="Stem"
       fill="none"
       stroke="#000000"
       stroke-width="2.48"
       stroke-linejoin="bevel"
       points="1804.16,415.165 1804.16,497.799"
       id="polyline25" />
    <polyline
       class="Stem"
       fill="none"
       stroke="#000000"
       stroke-width="2.48"
       stroke-linejoin="bevel"
       points="1153.76,439.965 1153.76,510.199"
       id="polyline26" />
    <polyline
       class="Stem"
       fill="none"
       stroke="#000000"
       stroke-width="2.48"
       stroke-linejoin="bevel"
       points="1964.51,439.965 1964.51,510.199"
       id="polyline27" />
    <polyline
       class="Stem"
       fill="none"
       stroke="#000000"
       stroke-width="2.48"
       stroke-linejoin="bevel"
       points="1236.18,439.965 1236.18,510.199"
       id="polyline28" />
    <polyline
       class="Stem"
       fill="none"
       stroke="#000000"
       stroke-width="2.48"
       stroke-linejoin="bevel"
       points="1721.74,439.965 1721.74,510.199"
       id="polyline29" />
    <polyline
       class="Stem"
       fill="none"
       stroke="#000000"
       stroke-width="2.48"
       stroke-linejoin="bevel"
       points="2046.94,415.165 2046.94,497.799"
       id="polyline30" />
    <path
       class="Note"
       transform="matrix(0.992001,0,0,0.992001,584.537,460.599)"
       d="M 0,4.20313 C 0,8.5 3.09375,13.2969 11.2031,13.2969 21.5938,13.2969 32.5,4.79688 32.5,-4 c 0,-5.90625 -5,-9.2031 -11.2031,-9.2031 C 11.5938,-13.2031 0,-5 0,4.20313"
       id="path30" />
    <path
       class="Note"
       transform="matrix(0.992001,0,0,0.992001,666.965,460.599)"
       d="M 0,4.20313 C 0,8.5 3.09375,13.2969 11.2031,13.2969 21.5938,13.2969 32.5,4.79688 32.5,-4 c 0,-5.90625 -5,-9.2031 -11.2031,-9.2031 C 11.5938,-13.2031 0,-5 0,4.20313"
       id="path31" />
    <path
       class="Note"
       transform="matrix(0.992001,0,0,0.992001,1963.27,435.799)"
       d="M 0,4.20313 C 0,8.5 3.09375,13.2969 11.2031,13.2969 21.5938,13.2969 32.5,4.79688 32.5,-4 c 0,-5.90625 -5,-9.2031 -11.2031,-9.2031 C 11.5938,-13.2031 0,-5 0,4.20313"
       id="path32" />
    <path
       class="Note"
       transform="matrix(0.992001,0,0,0.992001,1436.51,435.799)"
       d="M 0,4.20313 C 0,8.5 3.09375,13.2969 11.2031,13.2969 21.5938,13.2969 32.5,4.79688 32.5,-4 c 0,-5.90625 -5,-9.2031 -11.2031,-9.2031 C 11.5938,-13.2031 0,-5 0,4.20313"
       id="path33" />
    <path
       class="Note"
       transform="matrix(0.992001,0,0,0.992001,2045.7,410.999)"
       d="M 21.2969,-13.2031 C 11.5938,-13.2031 0,-5.09375 0,4.20313 0,8.5 3.09375,13.2969 11.2031,13.2969 21.5938,13.2969 32.5,4.79688 32.5,-4 c 0,-5.90625 -5,-9.2031 -11.2031,-9.2031 M 7.5,8.59375 C 4.20313,8.59375 3.5,5.90625 3.5,5 3.5,0.09375 20.2969,-8.5 25,-8.5 c 2.4063,0 4,1.40625 4,3.59375 0,5 -16.9062,13.5 -21.5,13.5"
       id="path34" />
    <path
       class="Note"
       transform="matrix(0.992001,0,0,0.992001,868.527,460.599)"
       d="M 0,4.20313 C 0,8.5 3.09375,13.2969 11.2031,13.2969 21.5938,13.2969 32.5,4.79688 32.5,-4 c 0,-5.90625 -5,-9.2031 -11.2031,-9.2031 C 11.5938,-13.2031 0,-5 0,4.20313"
       id="path35" />
    <path
       class="Note"
       transform="matrix(0.992001,0,0,0.992001,1802.92,410.999)"
       d="M 21.2969,-13.2031 C 11.5938,-13.2031 0,-5.09375 0,4.20313 0,8.5 3.09375,13.2969 11.2031,13.2969 21.5938,13.2969 32.5,4.79688 32.5,-4 c 0,-5.90625 -5,-9.2031 -11.2031,-9.2031 M 7.5,8.59375 C 4.20313,8.59375 3.5,5.90625 3.5,5 3.5,0.09375 20.2969,-8.5 25,-8.5 c 2.4063,0 4,1.40625 4,3.59375 0,5 -16.9062,13.5 -21.5,13.5"
       id="path36" />
    <path
       class="Note"
       transform="matrix(0.992001,0,0,0.992001,1234.94,435.799)"
       d="M 0,4.20313 C 0,8.5 3.09375,13.2969 11.2031,13.2969 21.5938,13.2969 32.5,4.79688 32.5,-4 c 0,-5.90625 -5,-9.2031 -11.2031,-9.2031 C 11.5938,-13.2031 0,-5 0,4.20313"
       id="path37" />
    <path
       class="Note"
       transform="matrix(0.992001,0,0,0.992001,2206.05,423.399)"
       d="M 0,4.20313 C 0,8.5 3.09375,13.2969 11.2031,13.2969 21.5938,13.2969 32.5,4.79688 32.5,-4 c 0,-5.90625 -5,-9.2031 -11.2031,-9.2031 C 11.5938,-13.2031 0,-5 0,4.20313"
       id="path38" />
    <path
       class="Note"
       transform="matrix(0.992001,0,0,0.992001,2288.48,435.799)"
       d="M 0,4.20313 C 0,8.5 3.09375,13.2969 11.2031,13.2969 21.5938,13.2969 32.5,4.79688 32.5,-4 c 0,-5.90625 -5,-9.2031 -11.2031,-9.2031 C 11.5938,-13.2031 0,-5 0,4.20313"
       id="path39" />
    <path
       class="Note"
       transform="matrix(0.992001,0,0,0.992001,1720.5,435.799)"
       d="M 0,4.20313 C 0,8.5 3.09375,13.2969 11.2031,13.2969 21.5938,13.2969 32.5,4.79688 32.5,-4 c 0,-5.90625 -5,-9.2031 -11.2031,-9.2031 C 11.5938,-13.2031 0,-5 0,4.20313"
       id="path40" />
    <path
       class="Note"
       transform="matrix(0.992001,0,0,0.992001,1152.52,435.799)"
       d="M 0,4.20313 C 0,8.5 3.09375,13.2969 11.2031,13.2969 21.5938,13.2969 32.5,4.79688 32.5,-4 c 0,-5.90625 -5,-9.2031 -11.2031,-9.2031 C 11.5938,-13.2031 0,-5 0,4.20313"
       id="path41" />
    <path
       class="Note"
       transform="matrix(0.992001,0,0,0.992001,749.394,448.199)"
       d="M 0,4.20313 C 0,8.5 3.09375,13.2969 11.2031,13.2969 21.5938,13.2969 32.5,4.79688 32.5,-4 c 0,-5.90625 -5,-9.2031 -11.2031,-9.2031 C 11.5938,-13.2031 0,-5 0,4.20313"
       id="path42" />
    <path
       class="Note"
       transform="matrix(0.992001,0,0,0.992001,1317.37,423.399)"
       d="M 0,4.20313 C 0,8.5 3.09375,13.2969 11.2031,13.2969 21.5938,13.2969 32.5,4.79688 32.5,-4 c 0,-5.90625 -5,-9.2031 -11.2031,-9.2031 C 11.5938,-13.2031 0,-5 0,4.20313"
       id="path43" />
    <path
       class="Note"
       transform="matrix(0.992001,0,0,0.992001,2490.04,460.599)"
       d="M 0,4.20313 C 0,8.5 3.09375,13.2969 11.2031,13.2969 21.5938,13.2969 32.5,4.79688 32.5,-4 c 0,-5.90625 -5,-9.2031 -11.2031,-9.2031 C 11.5938,-13.2031 0,-5 0,4.20313"
       id="path44" />
    <path
       class="Note"
       transform="matrix(0.992001,0,0,0.992001,2370.9,448.199)"
       d="M 0,4.20313 C 0,8.5 3.09375,13.2969 11.2031,13.2969 21.5938,13.2969 32.5,4.79688 32.5,-4 c 0,-5.90625 -5,-9.2031 -11.2031,-9.2031 C 11.5938,-13.2031 0,-5 0,4.20313"
       id="path45" />
    <path
       class="Clef"
       transform="matrix(0.992001,0,0,0.992001,355.199,460.599)"
       d="m 12.2969,51.2969 c 0,6.6094 5,15.3125 18.5,15.3125 4.7031,0 8.8125,-1.2031 12.4062,-3.4063 C 48.6094,59.4063 50,52.7969 50,46.5 c 0,-3.8906 -0.5937,-8.3906 -1.5937,-14.0937 -0.2969,-2 -0.9063,-5 -1.5,-8.9063 C 56.7031,20.2969 64,10.0938 64,-0.203125 64,-15.2969 53.2969,-25.5 38.7031,-25.5 c -1,-6 -2,-11.9063 -2.7968,-17.5 10.5,-11.1094 17.7968,-23.6094 17.7968,-39.5 0,-9.1094 -2.7968,-16.5 -4.4062,-20.109 -2.3906,-5.094 -5.2969,-8.594 -7.0938,-8.594 -0.7031,0 -3.7968,1.203 -7.0937,5.094 -6.4063,7.609 -8.2031,20.4059 -8.2031,28.7965 0,5.4062 0.5,10.3125 2.2031,21.5156 -0.1094,0.0938 -5.3125,5.3906 -7.4063,7.0938 C 12.5938,-40.2969 0,-28.1094 0,-8.09375 0,10.5938 16.2969,25.2969 34.9063,25.2969 c 2.8906,0 5.5937,-0.2969 7.8906,-0.7031 1.9062,9.6093 3.1094,16.6093 3.1094,21.9062 0,10.4063 -5.4063,15.9063 -15.5,15.9063 -2.4063,0 -4.5,-0.5 -4.7032,-0.5 -0.0937,-0.1094 -0.2968,-0.2032 -0.2968,-0.2969 0,-0.2031 0.2031,-0.3125 0.5,-0.3125 C 30.6094,60.5 35.2969,56.5 35.2969,50.1094 35.2969,44.7031 31.2031,39 23.7031,39 c -7,0 -11.4062,5.7031 -11.4062,12.2969 m 20.9062,-133.5 c 0.9063,-4 5.5,-14.5 10.7032,-14.5 1.5,0 3.8906,4.7968 3.8906,11.7968 0,10.4063 -7.6875,18.2032 -14.5938,25 -0.5937,-4 -1.0937,-7.8906 -1.0937,-12.0937 0,-3.7031 0.2969,-7.1094 1.0937,-10.2031 M 42,20.5938 c -2,0.4062 -3.8906,0.6093 -5.7969,0.6093 -14.2968,0 -26.49997,-10 -26.49997,-25.10935 0,-12.18755 8.59377,-23.09375 17.40627,-30.70315 1.6875,-1.5 3.2969,-2.8906 4.7969,-4.3906 0.8906,5.3906 1.5937,10.0937 2.2968,14.2031 -9.1093,2.7031 -15.2968,12.2969 -15.2968,21.70315 0,7 5.5,16.59375 13.5,16.59375 0.7968,0 1.7031,-0.4062 1.7031,-1.2969 0,-0.9062 -1,-1.4062 -2.2031,-2.2031 C 28,7.59375 25.7969,5 25.7969,0.09375 25.7969,-6 30.4063,-10.9063 36.2031,-12.2969 L 42,20.5938 M 56.2031,2.09375 c 0,7.10938 -2.9062,14.40625 -10,17.31255 -2.0937,-12.00005 -4.7968,-27.9063 -5.5,-32.3126 9,0 15.5,6.10942 15.5,15.00005"
       id="path46" />
    <path
       class="KeySig"
       transform="matrix(0.992001,0,0,0.992001,443.479,386.199)"
       d="m 23.2969,-10.5 c 0.6094,-0.0938 1.1094,-0.7969 1.1094,-1.4063 v -5.8906 c 0,-1 -0.7032,-1.4062 -1.6094,-1.4062 L 19.5,-18.5 v -14.9063 h -2.7969 v 15.5 l -8.90622,1.8125 V -30.2031 H 5 V -15.5 l -3.90625,0.7969 C 0.5,-14.5938 0,-13.9063 0,-13.2969 V -7.5 c 0,1.09375 0.796875,1.40625 1.70313,1.40625 L 5,-6.79688 V 9.70313 L 1.09375,10.5 C 0.5,10.5938 0,11.2969 0,11.9063 v 5.7968 c 0,1.0938 0.796875,1.3907 1.70313,1.3907 L 5,18.4063 v 14.8906 h 2.79688 v -15.5 L 16.7031,16 V 30.1094 H 19.5 V 15.4063 l 3.7969,-0.7032 c 0.6094,-0.1093 1.1094,-0.7968 1.1094,-1.4062 V 7.40625 C 24.4063,6.40625 23.7031,6 22.7969,6 L 19.5,6.70313 V -9.79688 L 23.2969,-10.5 M 7.79688,-7.40625 16.7031,-9.20313 V 7.29688 L 7.79688,9.20313 V -7.40625"
       id="path47" />
    <path
       class="TimeSig"
       transform="matrix(0.992001,0,0,0.992001,495.001,411.495)"
       d="m 27.2031,-1.59375 c 5,-1.90625 8.5,-5.10938 8.5,-10.60935 0,-0.8907 -0.2968,-12.2032 -17.5,-12.2032 C 1,-24.4063 1.5,-12.2031 1.5,-12.2031 H 1.59375 L 1.5,-12 c 0,3.59375 2.90625,6.40625 6.5,6.40625 3.5938,0 6.4063,-2.8125 6.4063,-6.40625 0,-2.9063 -2.2032,-5.7031 -5.00005,-6.2969 0.09375,-0.1094 0.1875,-0.2031 0.29688,-0.2969 1.39067,-1 3.29687,-1.5 5.20317,-1.5 4.1875,0 8.6875,2.5 8.6875,7.8907 0,6.29685 -4.6875,7.2031 -5.8907,7.40622 -1.2031,0.20313 -6.7968,0.59375 -7.99997,0.59375 -1.20313,0 -1.29688,1.40625 -1.29688,1.40625 v 2.000005 c 0,0 0.1875,1.09375 1.29688,1.203125 C 11.4063,0.5 13.7031,0.5 16.9063,1 c 4.3906,0.59375 6.6875,3.59375 6.6875,10.5938 0,6.7031 -4.5,8.5 -8.6875,8.5 C 12.0938,20.0938 9.5,19.2969 8.40625,18.5 11.7031,18.2969 14.4063,15.4063 14.4063,12.0938 14.4063,8.5 11.5938,5.59375 8,5.59375 4.40625,5.59375 1.5,8.5 1.5,12.0938 c 0,8.2031 7.5,12.3125 14.9063,12.3125 9.5937,0 20,-3.3125 20,-14.2032 0,-7.29685 -5,-10.406225 -9.4063,-11.79685 h 0.2031"
       id="path48" />
    <path
       class="TimeSig"
       transform="matrix(0.992001,0,0,0.992001,491.095,460.599)"
       d="m 20.7969,12.7031 v 7.3907 H 12.5 c -0.7031,0 -1.4062,0.6093 -1.4062,1.4062 v 1.9063 c 0,0.7968 0.7031,1.3906 1.4062,1.3906 h 30.2969 c 0.8125,0 1.4062,-0.5938 1.4062,-1.3906 V 21.5 c 0,-0.7969 -0.5937,-1.4062 -1.4062,-1.4062 h -8.8906 v -7.3907 h 8.8906 c 0.8125,0 1.4062,-0.7031 1.4062,-1.5 V 9.29688 c 0,-0.70313 -0.5937,-1.39063 -1.4062,-1.39063 H 33.9063 V -8 c 0,-0.59375 -0.2969,-1.09375 -0.7969,-1.29688 L 31.9063,-9.90625 C 31.7031,-10 31.4063,-10.0938 31.2031,-10.0938 30.9063,-10 30.5,-9.90625 30.2969,-9.70313 l -9.0938,8.29688 c -0.2968,0.3125 -0.4062,0.703125 -0.4062,1.109375 V 7.90625 H 9.29688 c 0,0 11.10942,-12 22.90622,-27.81255 0.4063,-0.5 0.5,-1 0.5,-1.3906 0,-0.5 -0.2031,-0.9062 -0.2968,-1 L 30.2031,-24.5 c -0.2031,-0.2031 -0.5937,-0.4063 -1,-0.4063 -0.5937,0 -14.1093,0 -14.7968,0 -0.8125,0 -1.3125,0.6094 -1.4063,1.2032 0,0 -0.5,7.4062 -3.09375,15.49997 -2.60937,8.10938 -5.60937,13.10938 -8.20312,16.79688 0,0 -0.29688,0.5 -0.29688,1.10938 0,0.20312 0,0.39067 0.09375,0.59377 0.40625,0.7031 1,1.7969 1,1.7969 0,0 0.20313,0.6093 1.09375,0.6093 H 20.7969"
       id="path49" />
    <path
       class="Rest"
       transform="matrix(0.992001,0,0,0.992001,1033.38,435.799)"
       d="M 23,16.5938 C 22.9063,16.5 22.7031,16.2969 22.4063,15.9063 L 10.9063,1.70313 C 10.7969,1.59375 10.7031,1.29688 10.7031,1.09375 c 0,-0.296875 0.0938,-0.6875 0.2032,-0.890625 L 21.0938,-15.2031 c 0.1093,-0.2032 0.2031,-0.5 0.2031,-0.7032 v -0.8906 c 0,-0.2969 -0.0938,-0.6094 -0.2969,-0.7969 L 4.79688,-39.5 c 0,0 -0.39063,-0.6094 -1,-0.6094 -0.29688,0 -0.5,0 -0.79688,0.3125 -0.40625,0.2969 -0.5,0.6875 -0.5,1 0,0.5938 0.29688,1.0938 0.29688,1.0938 l 7.60942,10.4062 c 0.1875,0.2969 0.2968,0.6875 0.2968,1.1875 0,0.4063 -0.1093,0.9063 -0.2968,1.2031 L 0.296875,-9.5 C 0.203125,-9.29688 0.09375,-8.90625 0.09375,-8.70313 v 0.90625 C 0.09375,-7.5 0.203125,-7.20313 0.40625,-7 L 11.5938,6.90625 C 11.2031,6.79688 10.2969,6.59375 9.09375,6.59375 4,6.59375 0,10.7969 0,15.9063 0,17.2969 0.296875,18.7031 1.09375,19.7969 3.20313,23 10.7031,32.5 10.7031,32.5 c 0,0 0.5,0.6094 1.2032,0.6094 0.1875,0 0.3906,0 0.5937,-0.2031 C 13,32.5 13.2031,32.1094 13.2031,31.7031 13.2031,31.2969 13,31 12.9063,30.7969 12.5938,30.2969 9.40625,24.5 9.40625,24.5 c 0,0 -0.70312,-1.4062 -0.70312,-3.2031 0,-3.2031 2.39067,-5.7969 5.59377,-5.7969 1.2969,0 2.4062,0.4063 3.2031,0.9063 l 3.9063,2.5 c 0,0 0.3906,0.1875 0.7968,0.1875 0.3907,0 0.7032,-0.0938 1,-0.5 C 23.4063,18.2969 23.5,18 23.5,17.7031 c 0,-0.2968 -0.0937,-0.5 -0.2969,-0.7968 L 23,16.5938"
       id="path50" />
    <path
       class="Rest"
       transform="matrix(0.992001,0,0,0.992001,950.955,435.799)"
       d="M 23,16.5938 C 22.9063,16.5 22.7031,16.2969 22.4063,15.9063 L 10.9063,1.70313 C 10.7969,1.59375 10.7031,1.29688 10.7031,1.09375 c 0,-0.296875 0.0938,-0.6875 0.2032,-0.890625 L 21.0938,-15.2031 c 0.1093,-0.2032 0.2031,-0.5 0.2031,-0.7032 v -0.8906 c 0,-0.2969 -0.0938,-0.6094 -0.2969,-0.7969 L 4.79688,-39.5 c 0,0 -0.39063,-0.6094 -1,-0.6094 -0.29688,0 -0.5,0 -0.79688,0.3125 -0.40625,0.2969 -0.5,0.6875 -0.5,1 0,0.5938 0.29688,1.0938 0.29688,1.0938 l 7.60942,10.4062 c 0.1875,0.2969 0.2968,0.6875 0.2968,1.1875 0,0.4063 -0.1093,0.9063 -0.2968,1.2031 L 0.296875,-9.5 C 0.203125,-9.29688 0.09375,-8.90625 0.09375,-8.70313 v 0.90625 C 0.09375,-7.5 0.203125,-7.20313 0.40625,-7 L 11.5938,6.90625 C 11.2031,6.79688 10.2969,6.59375 9.09375,6.59375 4,6.59375 0,10.7969 0,15.9063 0,17.2969 0.296875,18.7031 1.09375,19.7969 3.20313,23 10.7031,32.5 10.7031,32.5 c 0,0 0.5,0.6094 1.2032,0.6094 0.1875,0 0.3906,0 0.5937,-0.2031 C 13,32.5 13.2031,32.1094 13.2031,31.7031 13.2031,31.2969 13,31 12.9063,30.7969 12.5938,30.2969 9.40625,24.5 9.40625,24.5 c 0,0 -0.70312,-1.4062 -0.70312,-3.2031 0,-3.2031 2.39067,-5.7969 5.59377,-5.7969 1.2969,0 2.4062,0.4063 3.2031,0.9063 l 3.9063,2.5 c 0,0 0.3906,0.1875 0.7968,0.1875 0.3907,0 0.7032,-0.0938 1,-0.5 C 23.4063,18.2969 23.5,18 23.5,17.7031 c 0,-0.2968 -0.0937,-0.5 -0.2969,-0.7968 L 23,16.5938"
       id="path51" />
    <path
       class="Rest"
       transform="matrix(0.992001,0,0,0.992001,1518.93,435.799)"
       d="M 23,16.5938 C 22.9063,16.5 22.7031,16.2969 22.4063,15.9063 L 10.9063,1.70313 C 10.7969,1.59375 10.7031,1.29688 10.7031,1.09375 c 0,-0.296875 0.0938,-0.6875 0.2032,-0.890625 L 21.0938,-15.2031 c 0.1093,-0.2032 0.2031,-0.5 0.2031,-0.7032 v -0.8906 c 0,-0.2969 -0.0938,-0.6094 -0.2969,-0.7969 L 4.79688,-39.5 c 0,0 -0.39063,-0.6094 -1,-0.6094 -0.29688,0 -0.5,0 -0.79688,0.3125 -0.40625,0.2969 -0.5,0.6875 -0.5,1 0,0.5938 0.29688,1.0938 0.29688,1.0938 l 7.60942,10.4062 c 0.1875,0.2969 0.2968,0.6875 0.2968,1.1875 0,0.4063 -0.1093,0.9063 -0.2968,1.2031 L 0.296875,-9.5 C 0.203125,-9.29688 0.09375,-8.90625 0.09375,-8.70313 v 0.90625 C 0.09375,-7.5 0.203125,-7.20313 0.40625,-7 L 11.5938,6.90625 C 11.2031,6.79688 10.2969,6.59375 9.09375,6.59375 4,6.59375 0,10.7969 0,15.9063 0,17.2969 0.296875,18.7031 1.09375,19.7969 3.20313,23 10.7031,32.5 10.7031,32.5 c 0,0 0.5,0.6094 1.2032,0.6094 0.1875,0 0.3906,0 0.5937,-0.2031 C 13,32.5 13.2031,32.1094 13.2031,31.7031 13.2031,31.2969 13,31 12.9063,30.7969 12.5938,30.2969 9.40625,24.5 9.40625,24.5 c 0,0 -0.70312,-1.4062 -0.70312,-3.2031 0,-3.2031 2.39067,-5.7969 5.59377,-5.7969 1.2969,0 2.4062,0.4063 3.2031,0.9063 l 3.9063,2.5 c 0,0 0.3906,0.1875 0.7968,0.1875 0.3907,0 0.7032,-0.0938 1,-0.5 C 23.4063,18.2969 23.5,18 23.5,17.7031 c 0,-0.2968 -0.0937,-0.5 -0.2969,-0.7968 L 23,16.5938"
       id="path52" />
    <path
       class="Rest"
       transform="matrix(0.992001,0,0,0.992001,1601.36,435.799)"
       d="M 23,16.5938 C 22.9063,16.5 22.7031,16.2969 22.4063,15.9063 L 10.9063,1.70313 C 10.7969,1.59375 10.7031,1.29688 10.7031,1.09375 c 0,-0.296875 0.0938,-0.6875 0.2032,-0.890625 L 21.0938,-15.2031 c 0.1093,-0.2032 0.2031,-0.5 0.2031,-0.7032 v -0.8906 c 0,-0.2969 -0.0938,-0.6094 -0.2969,-0.7969 L 4.79688,-39.5 c 0,0 -0.39063,-0.6094 -1,-0.6094 -0.29688,0 -0.5,0 -0.79688,0.3125 -0.40625,0.2969 -0.5,0.6875 -0.5,1 0,0.5938 0.29688,1.0938 0.29688,1.0938 l 7.60942,10.4062 c 0.1875,0.2969 0.2968,0.6875 0.2968,1.1875 0,0.4063 -0.1093,0.9063 -0.2968,1.2031 L 0.296875,-9.5 C 0.203125,-9.29688 0.09375,-8.90625 0.09375,-8.70313 v 0.90625 C 0.09375,-7.5 0.203125,-7.20313 0.40625,-7 L 11.5938,6.90625 C 11.2031,6.79688 10.2969,6.59375 9.09375,6.59375 4,6.59375 0,10.7969 0,15.9063 0,17.2969 0.296875,18.7031 1.09375,19.7969 3.20313,23 10.7031,32.5 10.7031,32.5 c 0,0 0.5,0.6094 1.2032,0.6094 0.1875,0 0.3906,0 0.5937,-0.2031 C 13,32.5 13.2031,32.1094 13.2031,31.7031 13.2031,31.2969 13,31 12.9063,30.7969 12.5938,30.2969 9.40625,24.5 9.40625,24.5 c 0,0 -0.70312,-1.4062 -0.70312,-3.2031 0,-3.2031 2.39067,-5.7969 5.59377,-5.7969 1.2969,0 2.4062,0.4063 3.2031,0.9063 l 3.9063,2.5 c 0,0 0.3906,0.1875 0.7968,0.1875 0.3907,0 0.7032,-0.0938 1,-0.5 C 23.4063,18.2969 23.5,18 23.5,17.7031 c 0,-0.2968 -0.0937,-0.5 -0.2969,-0.7968 L 23,16.5938"
       id="path53" />
    <path
       class="Rest"
       transform="matrix(0.992001,0,0,0.992001,2572.47,435.799)"
       d="M 23,16.5938 C 22.9063,16.5 22.7031,16.2969 22.4063,15.9063 L 10.9063,1.70313 C 10.7969,1.59375 10.7031,1.29688 10.7031,1.09375 c 0,-0.296875 0.0938,-0.6875 0.2032,-0.890625 L 21.0938,-15.2031 c 0.1093,-0.2032 0.2031,-0.5 0.2031,-0.7032 v -0.8906 c 0,-0.2969 -0.0938,-0.6094 -0.2969,-0.7969 L 4.79688,-39.5 c 0,0 -0.39063,-0.6094 -1,-0.6094 -0.29688,0 -0.5,0 -0.79688,0.3125 -0.40625,0.2969 -0.5,0.6875 -0.5,1 0,0.5938 0.29688,1.0938 0.29688,1.0938 l 7.60942,10.4062 c 0.1875,0.2969 0.2968,0.6875 0.2968,1.1875 0,0.4063 -0.1093,0.9063 -0.2968,1.2031 L 0.296875,-9.5 C 0.203125,-9.29688 0.09375,-8.90625 0.09375,-8.70313 v 0.90625 C 0.09375,-7.5 0.203125,-7.20313 0.40625,-7 L 11.5938,6.90625 C 11.2031,6.79688 10.2969,6.59375 9.09375,6.59375 4,6.59375 0,10.7969 0,15.9063 0,17.2969 0.296875,18.7031 1.09375,19.7969 3.20313,23 10.7031,32.5 10.7031,32.5 c 0,0 0.5,0.6094 1.2032,0.6094 0.1875,0 0.3906,0 0.5937,-0.2031 C 13,32.5 13.2031,32.1094 13.2031,31.7031 13.2031,31.2969 13,31 12.9063,30.7969 12.5938,30.2969 9.40625,24.5 9.40625,24.5 c 0,0 -0.70312,-1.4062 -0.70312,-3.2031 0,-3.2031 2.39067,-5.7969 5.59377,-5.7969 1.2969,0 2.4062,0.4063 3.2031,0.9063 l 3.9063,2.5 c 0,0 0.3906,0.1875 0.7968,0.1875 0.3907,0 0.7032,-0.0938 1,-0.5 C 23.4063,18.2969 23.5,18 23.5,17.7031 c 0,-0.2968 -0.0937,-0.5 -0.2969,-0.7968 L 23,16.5938"
       id="path54" />
    <path
       class="Rest"
       transform="matrix(0.992001,0,0,0.992001,2654.89,435.799)"
       d="M 23,16.5938 C 22.9063,16.5 22.7031,16.2969 22.4063,15.9063 L 10.9063,1.70313 C 10.7969,1.59375 10.7031,1.29688 10.7031,1.09375 c 0,-0.296875 0.0938,-0.6875 0.2032,-0.890625 L 21.0938,-15.2031 c 0.1093,-0.2032 0.2031,-0.5 0.2031,-0.7032 v -0.8906 c 0,-0.2969 -0.0938,-0.6094 -0.2969,-0.7969 L 4.79688,-39.5 c 0,0 -0.39063,-0.6094 -1,-0.6094 -0.29688,0 -0.5,0 -0.79688,0.3125 -0.40625,0.2969 -0.5,0.6875 -0.5,1 0,0.5938 0.29688,1.0938 0.29688,1.0938 l 7.60942,10.4062 c 0.1875,0.2969 0.2968,0.6875 0.2968,1.1875 0,0.4063 -0.1093,0.9063 -0.2968,1.2031 L 0.296875,-9.5 C 0.203125,-9.29688 0.09375,-8.90625 0.09375,-8.70313 v 0.90625 C 0.09375,-7.5 0.203125,-7.20313 0.40625,-7 L 11.5938,6.90625 C 11.2031,6.79688 10.2969,6.59375 9.09375,6.59375 4,6.59375 0,10.7969 0,15.9063 0,17.2969 0.296875,18.7031 1.09375,19.7969 3.20313,23 10.7031,32.5 10.7031,32.5 c 0,0 0.5,0.6094 1.2032,0.6094 0.1875,0 0.3906,0 0.5937,-0.2031 C 13,32.5 13.2031,32.1094 13.2031,31.7031 13.2031,31.2969 13,31 12.9063,30.7969 12.5938,30.2969 9.40625,24.5 9.40625,24.5 c 0,0 -0.70312,-1.4062 -0.70312,-3.2031 0,-3.2031 2.39067,-5.7969 5.59377,-5.7969 1.2969,0 2.4062,0.4063 3.2031,0.9063 l 3.9063,2.5 c 0,0 0.3906,0.1875 0.7968,0.1875 0.3907,0 0.7032,-0.0938 1,-0.5 C 23.4063,18.2969 23.5,18 23.5,17.7031 c 0,-0.2968 -0.0937,-0.5 -0.2969,-0.7968 L 23,16.5938"
       id="path55" />
    <path
       class="Lyrics"
       d="m 1445.33,547.702 v -9.906 h -2.05 c -0.5,6.5 -2.7,9.797 -6.75,10.109 v 1.938 h 4.09 v 12.75 c 0,3.5 0.1,4.75 0.6,5.906 0.81,2.094 2.81,3.25 5.7,3.25 4.5,0 7.41,-3.406 7.41,-8.703 0,-0.297 0,-0.641 -0.05,-1.141 h -2.11 c -0.14,4.5 -1.45,6.797 -3.89,6.797 -1.16,0 -2.16,-0.609 -2.5,-1.453 -0.31,-0.703 -0.45,-1.953 -0.45,-3.75 v -13.656 h 7.34 v -2.141 h -7.34 m 17.25,-12.453 c -1.61,0 -2.91,1.297 -2.91,2.89 0,1.61 1.3,2.907 2.86,2.907 1.64,0 2.94,-1.297 2.94,-2.907 0,-1.593 -1.3,-2.89 -2.89,-2.89 m 2.34,12.453 -9.39,0.547 v 2.156 h 2.55 c 1.89,0.047 2.14,0.344 2.14,2.5 v 14.297 c -0.05,0.75 -0.1,1.047 -0.3,1.297 -0.34,0.453 -1.3,0.656 -3.45,0.703 h -0.35 v 1.797 h 12.96 v -1.797 h -0.36 c -3.35,-0.109 -3.8,-0.359 -3.8,-2.156 v -19.344"
       id="path56" />
    <path
       class="Lyrics"
       d="m 2213.66,571.343 8.71,-0.344 v -2.156 h -0.91 c -2.84,-0.141 -3.09,-0.438 -3.09,-3.641 v -31.063 l -9.8,0.563 v 2.141 h 2.94 c 1.9,0.046 2.15,0.359 2.15,2.5 v 11.312 c -1.84,-2.562 -4,-3.703 -6.9,-3.703 -5.64,0 -9.94,5.453 -9.94,12.641 0,7.109 4.14,12.156 9.94,12.156 3.15,0 5.31,-1.344 6.9,-4.344 v 3.938 m -5.9,-21.688 c 2.06,0 4,1.5 4.9,3.797 0.66,1.5 0.96,3.547 0.96,6 0,5.844 -2.3,9.594 -5.91,9.594 -3.55,0 -5.64,-3.297 -5.64,-8.844 0,-3 0.3,-5.25 0.94,-6.906 0.86,-2.25 2.7,-3.641 4.75,-3.641 m 28.5,-2.703 c -6.14,0 -10.89,5.453 -10.89,12.453 0,6.844 4.79,12.344 10.79,12.344 6,0 10.8,-5.5 10.8,-12.406 0,-6.844 -4.8,-12.391 -10.7,-12.391 m 0,2.141 c 3.5,0 5.45,3.656 5.45,10.25 0,6.656 -1.95,10.25 -5.55,10.25 -3.59,0 -5.54,-3.594 -5.54,-10.188 0,-6.812 1.89,-10.312 5.64,-10.312"
       id="path57" />
    <path
       class="Lyrics"
       d="m 670.082,547.155 h -1.75 l -1.454,1.797 c -1.796,-1.406 -3.593,-2 -6.093,-2 -4.407,0 -7.297,2.844 -7.297,7.25 0,4.703 3.047,5.891 7.047,6.844 l 2.64,0.609 c 3.953,0.938 5.36,1.938 5.36,3.938 0,2.359 -2.047,4 -4.953,4 -4.25,0 -7.25,-2.688 -8.454,-7.688 h -2 v 9.438 h 1.75 l 1.75,-2.047 c 2.047,1.656 4.297,2.453 6.86,2.453 4.89,0 8.14,-3.047 8.14,-7.703 0,-2.203 -0.703,-3.891 -2.093,-5.047 -1.203,-1.047 -2.203,-1.453 -5.25,-2.094 l -2.5,-0.562 c -2.75,-0.594 -2.75,-0.594 -3.657,-1.094 -1.093,-0.5 -1.75,-1.547 -1.75,-2.656 0,-2.047 1.907,-3.438 4.657,-3.438 4.093,0 6.093,2.891 7.297,6.391 h 1.75 v -8.391 m 16.093,-0.203 c -6.14,0 -10.89,5.453 -10.89,12.453 0,6.844 4.797,12.344 10.797,12.344 6,0 10.796,-5.5 10.796,-12.406 0,-6.844 -4.796,-12.391 -10.703,-12.391 m 0,2.141 c 3.5,0 5.453,3.656 5.453,10.25 0,6.656 -1.953,10.25 -5.546,10.25 -3.594,0 -5.547,-3.594 -5.547,-10.188 0,-6.812 1.89,-10.312 5.64,-10.312 m 22.61,-14.954 -9.25,0.563 v 2.141 h 2.453 c 1.844,0.046 2.094,0.359 2.094,2.5 v 27.859 c -0.047,0.75 -0.094,1.047 -0.297,1.297 -0.36,0.453 -1.297,0.656 -3.453,0.703 h -0.344 v 1.797 h 12.937 v -1.797 h -0.343 c -3.344,-0.109 -3.797,-0.359 -3.797,-2.156 v -32.907"
       id="path58" />
    <path
       class="Lyrics"
       d="m 1729.32,547.702 v -9.906 h -2.05 c -0.5,6.5 -2.7,9.797 -6.75,10.109 v 1.938 h 4.09 v 12.75 c 0,3.5 0.1,4.75 0.6,5.906 0.81,2.094 2.81,3.25 5.7,3.25 4.5,0 7.41,-3.406 7.41,-8.703 0,-0.297 0,-0.641 -0.05,-1.141 h -2.11 c -0.14,4.5 -1.45,6.797 -3.89,6.797 -1.16,0 -2.16,-0.609 -2.5,-1.453 -0.31,-0.703 -0.45,-1.953 -0.45,-3.75 v -13.656 h 7.34 v -2.141 h -7.34 m 17.25,-12.453 c -1.61,0 -2.91,1.297 -2.91,2.89 0,1.61 1.3,2.907 2.86,2.907 1.64,0 2.94,-1.297 2.94,-2.907 0,-1.593 -1.3,-2.89 -2.89,-2.89 m 2.34,12.453 -9.39,0.547 v 2.156 h 2.55 c 1.89,0.047 2.14,0.344 2.14,2.5 v 14.297 c -0.05,0.75 -0.1,1.047 -0.3,1.297 -0.34,0.453 -1.3,0.656 -3.45,0.703 h -0.35 v 1.797 h 12.96 v -1.797 h -0.36 c -3.35,-0.109 -3.8,-0.359 -3.8,-2.156 v -19.344"
       id="path59" />
    <path
       class="Lyrics"
       d="m 2297.29,547.702 v -9.906 h -2.04 c -0.5,6.5 -2.71,9.797 -6.75,10.109 v 1.938 h 4.09 v 12.75 c 0,3.5 0.1,4.75 0.6,5.906 0.81,2.094 2.81,3.25 5.7,3.25 4.5,0 7.4,-3.406 7.4,-8.703 0,-0.297 0,-0.641 -0.04,-1.141 h -2.11 c -0.14,4.5 -1.45,6.797 -3.89,6.797 -1.16,0 -2.16,-0.609 -2.5,-1.453 -0.31,-0.703 -0.46,-1.953 -0.46,-3.75 v -13.656 h 7.35 v -2.141 h -7.35 m 17.25,-12.453 c -1.6,0 -2.9,1.297 -2.9,2.89 0,1.61 1.3,2.907 2.86,2.907 1.64,0 2.94,-1.297 2.94,-2.907 0,-1.593 -1.3,-2.89 -2.9,-2.89 m 2.35,12.453 -9.39,0.547 v 2.156 h 2.54 c 1.9,0.047 2.15,0.344 2.15,2.5 v 14.297 c -0.05,0.75 -0.1,1.047 -0.3,1.297 -0.35,0.453 -1.3,0.656 -3.45,0.703 h -0.35 v 1.797 h 12.95 v -1.797 h -0.35 c -3.35,-0.109 -3.8,-0.359 -3.8,-2.156 v -19.344"
       id="path60" />
    <path
       class="Lyrics"
       d="m 1805.45,547.702 -8.86,0.547 v 2.156 h 2.04 c 1.91,0.047 2.16,0.344 2.16,2.5 v 14.297 c -0.05,0.75 -0.09,1.047 -0.3,1.297 -0.36,0.453 -1.36,0.656 -3.5,0.703 h -0.2 v 1.797 h 13.34 v -1.797 h -0.89 c -3.36,-0.109 -3.79,-0.359 -3.79,-2.156 v -2.703 c 0.04,-8.391 3.04,-14.797 6.93,-15 -0.68,0.812 -0.89,1.312 -0.89,2.25 0,1.609 1.14,2.75 2.75,2.75 1.85,0 3.05,-1.344 3.05,-3.344 0,-2.453 -1.7,-4.047 -4.34,-4.047 -3.16,0 -5.86,2.5 -7.5,6.953 v -6.203 m 35.34,12.047 c 0.05,-7.5 -4.2,-12.797 -10.3,-12.797 -6.4,0 -11.2,5.547 -11.2,13.047 0,7.047 4.55,11.75 11.3,11.75 4.79,0 8.15,-2.344 10.2,-7.094 l -1.75,-0.953 c -2.05,3.844 -4.16,5.344 -7.5,5.344 -2.55,0 -4.41,-1.047 -5.7,-3.297 -0.89,-1.5 -1.3,-3.25 -1.25,-6 h 16.2 m -16.16,-2.156 c 0,-3.5 1.61,-8.5 5.82,-8.5 3,0 5,2.656 5,6.703 0,1.406 -0.46,1.797 -2.07,1.797 h -8.75"
       id="path61" />
    <path
       class="Lyrics"
       d="m 587.653,547.155 h -1.75 l -1.453,1.797 c -1.797,-1.406 -3.594,-2 -6.094,-2 -4.406,0 -7.297,2.844 -7.297,7.25 0,4.703 3.047,5.891 7.047,6.844 l 2.641,0.609 c 3.953,0.938 5.359,1.938 5.359,3.938 0,2.359 -2.047,4 -4.953,4 -4.25,0 -7.25,-2.688 -8.453,-7.688 h -2 v 9.438 h 1.75 l 1.75,-2.047 c 2.047,1.656 4.297,2.453 6.859,2.453 4.891,0 8.141,-3.047 8.141,-7.703 0,-2.203 -0.703,-3.891 -2.094,-5.047 -1.203,-1.047 -2.203,-1.453 -5.25,-2.094 l -2.5,-0.562 c -2.75,-0.594 -2.75,-0.594 -3.656,-1.094 -1.094,-0.5 -1.75,-1.547 -1.75,-2.656 0,-2.047 1.906,-3.438 4.656,-3.438 4.094,0 6.094,2.891 7.297,6.391 h 1.75 v -8.391 m 16.094,-0.203 c -6.141,0 -10.891,5.453 -10.891,12.453 0,6.844 4.797,12.344 10.797,12.344 6,0 10.797,-5.5 10.797,-12.406 0,-6.844 -4.797,-12.391 -10.703,-12.391 m 0,2.141 c 3.5,0 5.453,3.656 5.453,10.25 0,6.656 -1.953,10.25 -5.547,10.25 -3.594,0 -5.547,-3.594 -5.547,-10.188 0,-6.812 1.891,-10.312 5.641,-10.312 m 22.609,-14.954 -9.25,0.563 v 2.141 h 2.453 c 1.844,0.046 2.094,0.359 2.094,2.5 v 27.859 c -0.047,0.75 -0.094,1.047 -0.297,1.297 -0.359,0.453 -1.297,0.656 -3.453,0.703 h -0.344 v 1.797 h 12.938 v -1.797 h -0.344 c -3.344,-0.109 -3.797,-0.359 -3.797,-2.156 v -32.907"
       id="path62" />
    <path
       class="Lyrics"
       d="m 2375.22,534.139 -9.25,0.563 v 2.141 h 2.46 c 1.84,0.046 2.09,0.359 2.09,2.5 v 27.859 c -0.05,0.75 -0.09,1.047 -0.3,1.297 -0.36,0.453 -1.29,0.656 -3.45,0.703 h -0.34 v 1.797 h 12.93 v -1.797 h -0.34 c -3.34,-0.109 -3.8,-0.359 -3.8,-2.156 v -32.907 m 28.39,20.766 c 0,-3.156 -0.54,-4.75 -2,-5.953 -1.64,-1.359 -4.09,-2 -7.29,-2 -5.64,0 -9.75,2.641 -9.75,6.297 0,1.844 1.15,3.047 2.9,3.047 1.6,0 2.71,-1.047 2.71,-2.547 0,-0.656 -0.25,-1.344 -0.75,-2.047 -0.32,-0.359 -0.36,-0.453 -0.36,-0.703 0,-1 2,-1.906 4.4,-1.906 1.6,0 3.35,0.5 4.14,1.25 0.96,0.812 1.32,2 1.32,4.25 v 1.953 c -5.21,0.906 -6.86,1.297 -9.32,2.25 -4.34,1.609 -6.39,3.906 -6.39,7.109 0,3.594 2.8,5.844 7.25,5.844 3.46,0 6.55,-1.406 8.71,-3.953 0.79,2.547 2.04,3.547 4.39,3.547 2.25,0 4.61,-1.438 4.61,-2.891 0,-0.359 -0.21,-0.609 -0.5,-0.609 -0.21,0 -0.41,0.062 -0.75,0.203 -0.71,0.297 -1,0.359 -1.41,0.359 -1.41,0 -1.91,-0.906 -1.91,-3.453 v -10.047 m -4.68,6.094 c 0,3 -0.16,3.703 -1,5 -1.25,1.844 -3.5,3.094 -5.71,3.094 -2.29,0 -3.95,-1.641 -3.95,-3.891 0,-2.109 1.05,-3.609 3.25,-4.656 1.55,-0.703 3.5,-1.203 7.41,-1.844 v 2.297"
       id="path63" />
    <path
       class="Lyrics"
       d="m 1972.09,547.702 v -9.906 h -2.05 c -0.5,6.5 -2.7,9.797 -6.75,10.109 v 1.938 h 4.1 v 12.75 c 0,3.5 0.09,4.75 0.59,5.906 0.81,2.094 2.81,3.25 5.7,3.25 4.5,0 7.41,-3.406 7.41,-8.703 0,-0.297 0,-0.641 -0.05,-1.141 h -2.11 c -0.14,4.5 -1.45,6.797 -3.89,6.797 -1.15,0 -2.15,-0.609 -2.5,-1.453 -0.31,-0.703 -0.45,-1.953 -0.45,-3.75 v -13.656 h 7.34 v -2.141 h -7.34 m 17.25,-12.453 c -1.61,0 -2.91,1.297 -2.91,2.89 0,1.61 1.3,2.907 2.86,2.907 1.64,0 2.94,-1.297 2.94,-2.907 0,-1.593 -1.3,-2.89 -2.89,-2.89 m 2.34,12.453 -9.39,0.547 v 2.156 h 2.55 c 1.89,0.047 2.14,0.344 2.14,2.5 v 14.297 c -0.05,0.75 -0.09,1.047 -0.3,1.297 -0.34,0.453 -1.29,0.656 -3.45,0.703 h -0.34 v 1.797 h 12.95 v -1.797 h -0.36 c -3.34,-0.109 -3.8,-0.359 -3.8,-2.156 v -19.344"
       id="path64" />
    <path
       class="Lyrics"
       d="m 753.713,534.139 -9.25,0.563 v 2.141 h 2.453 c 1.844,0.046 2.094,0.359 2.094,2.5 v 27.859 c -0.047,0.75 -0.094,1.047 -0.297,1.297 -0.359,0.453 -1.297,0.656 -3.453,0.703 h -0.344 v 1.797 h 12.938 v -1.797 h -0.344 c -3.344,-0.109 -3.797,-0.359 -3.797,-2.156 v -32.907 m 28.391,20.766 c 0,-3.156 -0.547,-4.75 -2,-5.953 -1.641,-1.359 -4.094,-2 -7.297,-2 -5.641,0 -9.75,2.641 -9.75,6.297 0,1.844 1.156,3.047 2.906,3.047 1.594,0 2.703,-1.047 2.703,-2.547 0,-0.656 -0.25,-1.344 -0.75,-2.047 -0.312,-0.359 -0.359,-0.453 -0.359,-0.703 0,-1 2,-1.906 4.406,-1.906 1.594,0 3.344,0.5 4.141,1.25 0.953,0.812 1.312,2 1.312,4.25 v 1.953 c -5.203,0.906 -6.859,1.297 -9.312,2.25 -4.344,1.609 -6.391,3.906 -6.391,7.109 0,3.594 2.797,5.844 7.25,5.844 3.453,0 6.547,-1.406 8.703,-3.953 0.797,2.547 2.047,3.547 4.391,3.547 2.25,0 4.609,-1.438 4.609,-2.891 0,-0.359 -0.203,-0.609 -0.5,-0.609 -0.203,0 -0.406,0.062 -0.75,0.203 -0.703,0.297 -1,0.359 -1.406,0.359 -1.406,0 -1.906,-0.906 -1.906,-3.453 v -10.047 m -4.688,6.094 c 0,3 -0.156,3.703 -1,5 -1.25,1.844 -3.5,3.094 -5.703,3.094 -2.297,0 -3.953,-1.641 -3.953,-3.891 0,-2.109 1.047,-3.609 3.25,-4.656 1.547,-0.703 3.5,-1.203 7.406,-1.844 v 2.297"
       id="path65" />
    <path
       class="Lyrics"
       d="m 871.643,547.155 h -1.75 l -1.453,1.797 c -1.797,-1.406 -3.594,-2 -6.094,-2 -4.406,0 -7.297,2.844 -7.297,7.25 0,4.703 3.047,5.891 7.047,6.844 l 2.64,0.609 c 3.954,0.938 5.36,1.938 5.36,3.938 0,2.359 -2.047,4 -4.953,4 -4.25,0 -7.25,-2.688 -8.453,-7.688 h -2 v 9.438 h 1.75 l 1.75,-2.047 c 2.046,1.656 4.296,2.453 6.859,2.453 4.891,0 8.141,-3.047 8.141,-7.703 0,-2.203 -0.704,-3.891 -2.094,-5.047 -1.203,-1.047 -2.203,-1.453 -5.25,-2.094 l -2.5,-0.562 c -2.75,-0.594 -2.75,-0.594 -3.656,-1.094 -1.094,-0.5 -1.75,-1.547 -1.75,-2.656 0,-2.047 1.906,-3.438 4.656,-3.438 4.094,0 6.094,2.891 7.297,6.391 h 1.75 v -8.391 m 16.093,-0.203 c -6.14,0 -10.89,5.453 -10.89,12.453 0,6.844 4.797,12.344 10.797,12.344 6,0 10.797,-5.5 10.797,-12.406 0,-6.844 -4.797,-12.391 -10.704,-12.391 m 0,2.141 c 3.5,0 5.454,3.656 5.454,10.25 0,6.656 -1.954,10.25 -5.547,10.25 -3.594,0 -5.547,-3.594 -5.547,-10.188 0,-6.812 1.89,-10.312 5.64,-10.312 m 22.61,-14.954 -9.25,0.563 v 2.141 h 2.453 c 1.844,0.046 2.094,0.359 2.094,2.5 v 27.859 c -0.047,0.75 -0.094,1.047 -0.297,1.297 -0.36,0.453 -1.297,0.656 -3.453,0.703 h -0.344 v 1.797 h 12.937 v -1.797 h -0.343 c -3.344,-0.109 -3.797,-0.359 -3.797,-2.156 v -32.907"
       id="path66" />
    <path
       class="Lyrics"
       d="m 2048.22,547.702 -8.86,0.547 v 2.156 h 2.05 c 1.91,0.047 2.16,0.344 2.16,2.5 v 14.297 c -0.05,0.75 -0.1,1.047 -0.3,1.297 -0.36,0.453 -1.36,0.656 -3.5,0.703 h -0.2 v 1.797 h 13.34 v -1.797 h -0.89 c -3.36,-0.109 -3.8,-0.359 -3.8,-2.156 v -2.703 c 0.05,-8.391 3.05,-14.797 6.94,-15 -0.69,0.812 -0.89,1.312 -0.89,2.25 0,1.609 1.14,2.75 2.75,2.75 1.84,0 3.05,-1.344 3.05,-3.344 0,-2.453 -1.71,-4.047 -4.35,-4.047 -3.15,0 -5.86,2.5 -7.5,6.953 v -6.203 m 35.35,12.047 c 0.04,-7.5 -4.21,-12.797 -10.3,-12.797 -6.41,0 -11.2,5.547 -11.2,13.047 0,7.047 4.54,11.75 11.29,11.75 4.8,0 8.16,-2.344 10.21,-7.094 l -1.75,-0.953 c -2.05,3.844 -4.16,5.344 -7.5,5.344 -2.55,0 -4.41,-1.047 -5.71,-3.297 -0.89,-1.5 -1.29,-3.25 -1.25,-6 h 16.21 m -16.16,-2.156 c 0,-3.5 1.61,-8.5 5.81,-8.5 3,0 5,2.656 5,6.703 0,1.406 -0.45,1.797 -2.06,1.797 h -8.75"
       id="path67" />
    <path
       class="Lyrics"
       d="m 2493.15,547.155 h -1.75 l -1.45,1.797 c -1.8,-1.406 -3.59,-2 -6.09,-2 -4.41,0 -7.3,2.844 -7.3,7.25 0,4.703 3.05,5.891 7.05,6.844 l 2.64,0.609 c 3.95,0.938 5.36,1.938 5.36,3.938 0,2.359 -2.05,4 -4.96,4 -4.25,0 -7.25,-2.688 -8.45,-7.688 h -2 v 9.438 h 1.75 l 1.75,-2.047 c 2.05,1.656 4.3,2.453 6.86,2.453 4.89,0 8.14,-3.047 8.14,-7.703 0,-2.203 -0.7,-3.891 -2.09,-5.047 -1.21,-1.047 -2.21,-1.453 -5.25,-2.094 l -2.5,-0.562 c -2.75,-0.594 -2.75,-0.594 -3.66,-1.094 -1.09,-0.5 -1.75,-1.547 -1.75,-2.656 0,-2.047 1.91,-3.438 4.66,-3.438 4.09,0 6.09,2.891 7.29,6.391 h 1.75 v -8.391 m 16.1,-0.203 c -6.14,0 -10.89,5.453 -10.89,12.453 0,6.844 4.79,12.344 10.79,12.344 6,0 10.8,-5.5 10.8,-12.406 0,-6.844 -4.8,-12.391 -10.7,-12.391 m 0,2.141 c 3.5,0 5.45,3.656 5.45,10.25 0,6.656 -1.95,10.25 -5.55,10.25 -3.59,0 -5.54,-3.594 -5.54,-10.188 0,-6.812 1.89,-10.312 5.64,-10.312 m 22.61,-14.954 -9.25,0.563 v 2.141 h 2.45 c 1.84,0.046 2.09,0.359 2.09,2.5 v 27.859 c -0.04,0.75 -0.09,1.047 -0.29,1.297 -0.36,0.453 -1.3,0.656 -3.46,0.703 h -0.34 v 1.797 H 2536 v -1.797 h -0.35 c -3.34,-0.109 -3.79,-0.359 -3.79,-2.156 v -32.907"
       id="path68" />
    <path
       class="Lyrics"
       d="m 1161.34,547.702 v -9.906 h -2.05 c -0.5,6.5 -2.7,9.797 -6.75,10.109 v 1.938 h 4.09 v 12.75 c 0,3.5 0.1,4.75 0.6,5.906 0.81,2.094 2.81,3.25 5.7,3.25 4.5,0 7.41,-3.406 7.41,-8.703 0,-0.297 0,-0.641 -0.05,-1.141 h -2.11 c -0.14,4.5 -1.45,6.797 -3.89,6.797 -1.16,0 -2.16,-0.609 -2.5,-1.453 -0.31,-0.703 -0.45,-1.953 -0.45,-3.75 v -13.656 h 7.34 v -2.141 h -7.34 m 17.25,-12.453 c -1.61,0 -2.91,1.297 -2.91,2.89 0,1.61 1.3,2.907 2.86,2.907 1.64,0 2.94,-1.297 2.94,-2.907 0,-1.593 -1.3,-2.89 -2.89,-2.89 m 2.34,12.453 -9.39,0.547 v 2.156 h 2.55 c 1.89,0.047 2.14,0.344 2.14,2.5 v 14.297 c -0.05,0.75 -0.1,1.047 -0.3,1.297 -0.34,0.453 -1.3,0.656 -3.45,0.703 h -0.35 v 1.797 h 12.96 v -1.797 h -0.36 c -3.35,-0.109 -3.8,-0.359 -3.8,-2.156 v -19.344"
       id="path69" />
    <path
       class="Lyrics"
       d="m 1243.76,547.702 v -9.906 h -2.04 c -0.5,6.5 -2.71,9.797 -6.75,10.109 v 1.938 h 4.09 v 12.75 c 0,3.5 0.09,4.75 0.59,5.906 0.82,2.094 2.82,3.25 5.71,3.25 4.5,0 7.4,-3.406 7.4,-8.703 0,-0.297 0,-0.641 -0.04,-1.141 h -2.11 c -0.14,4.5 -1.46,6.797 -3.89,6.797 -1.16,0 -2.16,-0.609 -2.5,-1.453 -0.32,-0.703 -0.46,-1.953 -0.46,-3.75 v -13.656 h 7.35 v -2.141 h -7.35 m 17.25,-12.453 c -1.61,0 -2.9,1.297 -2.9,2.89 0,1.61 1.29,2.907 2.86,2.907 1.64,0 2.93,-1.297 2.93,-2.907 0,-1.593 -1.29,-2.89 -2.89,-2.89 m 2.35,12.453 -9.39,0.547 v 2.156 h 2.54 c 1.89,0.047 2.14,0.344 2.14,2.5 v 14.297 c -0.04,0.75 -0.09,1.047 -0.29,1.297 -0.35,0.453 -1.3,0.656 -3.46,0.703 h -0.34 v 1.797 h 12.95 v -1.797 h -0.36 c -3.34,-0.109 -3.79,-0.359 -3.79,-2.156 v -19.344"
       id="path70" />
    <path
       class="Lyrics"
       d="m 1324.99,571.343 8.7,-0.344 v -2.156 h -0.9 c -2.85,-0.141 -3.1,-0.438 -3.1,-3.641 v -31.063 l -9.79,0.563 v 2.141 h 2.93 c 1.91,0.046 2.16,0.359 2.16,2.5 v 11.312 c -1.84,-2.562 -4,-3.703 -6.91,-3.703 -5.64,0 -9.93,5.453 -9.93,12.641 0,7.109 4.14,12.156 9.93,12.156 3.16,0 5.32,-1.344 6.91,-4.344 v 3.938 m -5.91,-21.688 c 2.07,0 4,1.5 4.91,3.797 0.66,1.5 0.95,3.547 0.95,6 0,5.844 -2.29,9.594 -5.9,9.594 -3.55,0 -5.64,-3.297 -5.64,-8.844 0,-3 0.29,-5.25 0.93,-6.906 0.86,-2.25 2.71,-3.641 4.75,-3.641 m 28.5,-2.703 c -6.14,0 -10.89,5.453 -10.89,12.453 0,6.844 4.8,12.344 10.8,12.344 6,0 10.8,-5.5 10.8,-12.406 0,-6.844 -4.8,-12.391 -10.71,-12.391 m 0,2.141 c 3.5,0 5.46,3.656 5.46,10.25 0,6.656 -1.96,10.25 -5.55,10.25 -3.59,0 -5.55,-3.594 -5.55,-10.188 0,-6.812 1.89,-10.312 5.64,-10.312"
       id="path71" />
    <path
       class="Tempo"
       d="m 522.076,249.17 h -3.266 v 42.266 c -1.093,-0.687 -2.484,-1.094 -4.062,-1.281 -3.563,0 -6.438,0.39 -9.61,2.172 -3.953,2.078 -8.312,6.437 -8.312,11.281 0,4.75 4.266,7.031 8.609,7.031 6.938,0 16.641,-5.937 16.641,-13.469 v -48"
       id="path72" />
    <path
       class="Tempo"
       d="m 543.81,287.124 h 30.235 v -6.907 H 543.81 v 6.907 m 0,12.359 h 30.235 v -6.906 H 543.81 v 6.906 m 72.078,-14.219 c 0,5.688 -0.234,17.453 -8.281,17.453 -1.265,0 -1.984,-0.422 -1.984,-1.203 0,-0.359 0.125,-0.719 0.359,-1.078 1.078,-1.734 1.203,-2.094 1.203,-3.422 0,-2.875 -2.031,-4.859 -5.031,-4.859 -3.312,0 -5.703,2.531 -5.703,6 0,4.687 4.375,7.687 11.156,7.687 13.625,0 18.844,-12.125 18.844,-24 0,-5.515 -1.203,-9.609 -3.719,-13.015 -3.062,-4.094 -7.437,-6.313 -12.484,-6.313 -8.703,0 -15,6.063 -15,14.406 0,7.079 5.047,12.297 11.875,12.297 3.719,0 6.25,-1.14 8.765,-3.953 m -5.156,-19.625 c 4.375,0 4.922,7.375 4.922,10.438 0,5.281 -1.922,8.64 -4.984,8.64 -4.75,0 -5.047,-5.75 -5.047,-9.172 0,-6.546 1.75,-9.906 5.109,-9.906 m 34.235,-3.125 c -9,0 -15.594,9.188 -15.594,21.672 0,12.469 6.594,21.656 15.594,21.656 8.812,0 15.546,-9.187 15.546,-21.359 0,-7.078 -1.625,-12.297 -5.171,-16.75 -2.813,-3.406 -6.36,-5.219 -10.375,-5.219 m -0.063,3.125 c 1.797,0 3.25,1.078 3.906,3 0.782,1.985 1.25,8.281 1.25,15.719 0,6.187 -0.468,12.656 -1.015,14.703 -0.657,2.391 -2.094,3.656 -4.141,3.656 -1.859,0 -3.234,-1.015 -3.953,-3 -0.781,-1.984 -1.266,-8.343 -1.266,-15.531 0,-6.312 0.485,-12.844 1.016,-14.891 0.672,-2.39 2.109,-3.656 4.203,-3.656"
       id="path73" />
    <path
       class="StaffText"
       d="m 1235.44,325.289 v 2.36 h 0.91 c 2.84,0.046 3.8,0.203 4.19,0.703 0.31,0.437 0.31,0.547 0.31,3.093 v 23.797 c 0,2.563 0,2.657 -0.31,3.11 -0.39,0.5 -1.35,0.703 -4.19,0.703 h -0.91 v 2.344 h 18.16 c 8.64,0 13.84,-3.657 13.84,-9.797 0,-5 -3.14,-7.86 -10,-9.047 2.41,-0.5 3.5,-0.953 4.8,-1.906 2.06,-1.547 3.31,-4 3.31,-6.5 0,-3.25 -2,-6.407 -4.9,-7.657 -1.8,-0.797 -4.3,-1.203 -7.25,-1.203 h -17.96 m 11,16.266 v -11.406 c 0,-1.954 0.66,-2.454 3.3,-2.5 h 2 c 4.91,0 8,1.593 8,7.046 0,4.954 -2.39,6.86 -8.84,6.86 h -4.46 m 0,2.344 h 4.41 c 7.64,0 10.45,2.046 10.45,7.546 0,6.704 -4.2,7.61 -9.86,7.61 h -2.09 c -2.5,0 -3,-0.5 -2.91,-3.156 v -12"
       id="path74" />
    <path
       class="StaffText"
       d="m 1153.02,325.289 v 2.36 h 0.9 c 2.85,0.046 3.8,0.203 4.19,0.703 0.31,0.437 0.31,0.547 0.31,3.093 v 23.797 c 0,2.563 0,2.657 -0.31,3.11 -0.39,0.5 -1.34,0.703 -4.19,0.703 h -0.9 v 2.344 h 18.15 c 8.64,0 13.85,-3.657 13.85,-9.797 0,-5 -3.14,-7.86 -10,-9.047 2.4,-0.5 3.5,-0.953 4.79,-1.906 2.07,-1.547 3.32,-4 3.32,-6.5 0,-3.25 -2,-6.407 -4.91,-7.657 -1.8,-0.797 -4.3,-1.203 -7.25,-1.203 h -17.95 m 11,16.266 v -11.406 c 0,-1.954 0.65,-2.454 3.29,-2.5 h 2 c 4.91,0 8,1.593 8,7.046 0,4.954 -2.39,6.86 -8.84,6.86 h -4.45 m 0,2.344 h 4.4 c 7.64,0 10.46,2.046 10.46,7.546 0,6.704 -4.21,7.61 -9.86,7.61 h -2.1 c -2.5,0 -3,-0.5 -2.9,-3.156 v -12"
       id="path75" />
    <path
       class="StaffText"
       d="m 2288.98,325.289 v 2.36 h 0.9 c 2.85,0.046 3.8,0.203 4.19,0.703 0.31,0.437 0.31,0.547 0.31,3.093 v 23.797 c 0,2.563 0,2.657 -0.31,3.11 -0.39,0.5 -1.34,0.703 -4.19,0.703 h -0.9 v 2.344 h 18.15 c 8.64,0 13.85,-3.657 13.85,-9.797 0,-5 -3.15,-7.86 -10,-9.047 2.4,-0.5 3.5,-0.953 4.79,-1.906 2.06,-1.547 3.31,-4 3.31,-6.5 0,-3.25 -2,-6.407 -4.9,-7.657 -1.8,-0.797 -4.3,-1.203 -7.25,-1.203 h -17.95 m 11,16.266 v -11.406 c 0,-1.954 0.65,-2.454 3.29,-2.5 h 2 c 4.91,0 8,1.593 8,7.046 0,4.954 -2.39,6.86 -8.84,6.86 h -4.45 m 0,2.344 h 4.4 c 7.64,0 10.45,2.046 10.45,7.546 0,6.704 -4.2,7.61 -9.85,7.61 h -2.1 c -2.5,0 -3,-0.5 -2.9,-3.156 v -12"
       id="path76" />
    <path
       class="StaffText"
       d="m 1963.77,325.289 v 2.36 h 0.91 c 2.84,0.046 3.79,0.203 4.19,0.703 0.31,0.437 0.31,0.547 0.31,3.093 v 23.797 c 0,2.563 0,2.657 -0.31,3.11 -0.4,0.5 -1.35,0.703 -4.19,0.703 h -0.91 v 2.344 h 18.16 c 8.64,0 13.84,-3.657 13.84,-9.797 0,-5 -3.14,-7.86 -10,-9.047 2.41,-0.5 3.5,-0.953 4.8,-1.906 2.06,-1.547 3.31,-4 3.31,-6.5 0,-3.25 -2,-6.407 -4.91,-7.657 -1.79,-0.797 -4.29,-1.203 -7.25,-1.203 h -17.95 m 11,16.266 v -11.406 c 0,-1.954 0.66,-2.454 3.3,-2.5 h 2 c 4.9,0 8,1.593 8,7.046 0,4.954 -2.39,6.86 -8.85,6.86 h -4.45 m 0,2.344 h 4.41 c 7.64,0 10.45,2.046 10.45,7.546 0,6.704 -4.2,7.61 -9.86,7.61 h -2.09 c -2.5,0 -3,-0.5 -2.91,-3.156 v -12"
       id="path77" />
    <path
       class="StaffText"
       d="m 1437.01,325.289 v 2.36 h 0.9 c 2.85,0.046 3.8,0.203 4.19,0.703 0.31,0.437 0.31,0.547 0.31,3.093 v 23.797 c 0,2.563 0,2.657 -0.31,3.11 -0.39,0.5 -1.34,0.703 -4.19,0.703 h -0.9 v 2.344 h 18.15 c 8.64,0 13.85,-3.657 13.85,-9.797 0,-5 -3.14,-7.86 -10,-9.047 2.4,-0.5 3.5,-0.953 4.79,-1.906 2.07,-1.547 3.32,-4 3.32,-6.5 0,-3.25 -2,-6.407 -4.91,-7.657 -1.8,-0.797 -4.3,-1.203 -7.25,-1.203 h -17.95 m 11,16.266 v -11.406 c 0,-1.954 0.65,-2.454 3.29,-2.5 h 2 c 4.91,0 8,1.593 8,7.046 0,4.954 -2.39,6.86 -8.84,6.86 h -4.45 m 0,2.344 h 4.4 c 7.64,0 10.46,2.046 10.46,7.546 0,6.704 -4.21,7.61 -9.86,7.61 h -2.1 c -2.5,0 -3,-0.5 -2.9,-3.156 v -12"
       id="path78" />
    <path
       class="StaffText"
       d="m 1721,325.289 v 2.36 h 0.9 c 2.85,0.046 3.8,0.203 4.19,0.703 0.31,0.437 0.31,0.547 0.31,3.093 v 23.797 c 0,2.563 0,2.657 -0.31,3.11 -0.39,0.5 -1.34,0.703 -4.19,0.703 h -0.9 v 2.344 h 18.15 c 8.64,0 13.85,-3.657 13.85,-9.797 0,-5 -3.14,-7.86 -10,-9.047 2.4,-0.5 3.5,-0.953 4.79,-1.906 2.07,-1.547 3.32,-4 3.32,-6.5 0,-3.25 -2,-6.407 -4.91,-7.657 -1.8,-0.797 -4.3,-1.203 -7.25,-1.203 H 1721 m 11,16.266 v -11.406 c 0,-1.954 0.65,-2.454 3.29,-2.5 h 2 c 4.91,0 8,1.593 8,7.046 0,4.954 -2.39,6.86 -8.84,6.86 H 1732 m 0,2.344 h 4.4 c 7.64,0 10.46,2.046 10.46,7.546 0,6.704 -4.21,7.61 -9.86,7.61 h -2.1 c -2.5,0 -3,-0.5 -2.9,-3.156 v -12"
       id="path79" />
    <path
       class="StaffText"
       d="m 2390.81,318.402 h -2.11 l -11.5,29.14 c -1.34,3.907 -2.64,5.11 -5.5,5.313 h -0.2 v 2.344 h 13.25 v -2.344 h -1 c -2.69,0 -4.05,-0.953 -4.05,-2.86 0,-0.64 0.16,-1.25 0.45,-2.093 l 1.66,-4.407 h 13.25 l 2.7,6.704 c 0.3,0.796 0.39,1.093 0.39,1.343 0,0.813 -1.25,1.313 -3.09,1.313 h -2.11 v 2.344 h 15.5 v -2.344 h -0.69 c -2.61,-0.063 -3.06,-0.36 -4.2,-3.203 l -12.75,-31.25 m -2.45,8.187 5.64,14.203 h -11.19 l 5.55,-14.203"
       id="path80" />
    <path
       class="StaffText"
       d="m 899.027,323.945 h -1.891 l -1.953,3 c -3.25,-2.546 -5.453,-3.406 -9.11,-3.406 -3.953,0 -7.046,1.11 -10.203,3.656 -4.937,4 -7.25,9.047 -7.25,15.797 0,5.11 1.453,9.36 4.407,12.61 3.093,3.5 7.703,5.547 12.5,5.547 4.203,0 7.156,-1.297 10.406,-4.547 l 1.844,4.5 h 2.109 v -11 c 0,-2.547 0,-2.657 0.297,-3.11 0.453,-0.547 1.344,-0.687 4.203,-0.687 h 0.75 v -2.36 H 889.23 v 2.36 h 0.953 c 4.203,0 4.547,0.25 4.547,3.047 0,2.14 -0.344,4.093 -1,5.297 -1.25,2.453 -4.453,4.156 -7.703,4.156 -3.25,0 -6.454,-1.656 -8.157,-4.156 -1.843,-2.797 -2.64,-6.297 -2.64,-11.657 0,-11.14 3.703,-17.093 10.64,-17.093 5.703,0 9.657,4.093 11.703,12.093 h 2.157 l -0.703,-14.047"
       id="path81" />
    <path
       class="StaffText"
       d="m 2046.15,361.399 h 16.8 c 4.45,0 7.86,-0.704 10.5,-2.204 5.05,-2.843 7.86,-8.546 7.86,-16.046 0,-6.907 -2.5,-12.297 -7.11,-15.297 -2.75,-1.75 -6.45,-2.563 -12.16,-2.563 h -15.89 v 2.36 h 0.96 c 2.79,0.046 3.75,0.203 4.14,0.703 0.29,0.437 0.29,0.547 0.29,3.093 v 23.797 c 0,2.563 0,2.657 -0.29,3.11 -0.39,0.5 -1.35,0.64 -4.14,0.703 h -0.96 v 2.344 m 13.85,-2.344 c -2.55,0 -2.85,-0.313 -2.85,-2.75 v -25.86 c 0,-2.453 0.35,-2.796 2.85,-2.796 h 2.61 c 8.54,0 12.09,4.64 12.09,15.703 0,11.203 -3.2,15.703 -11.3,15.703 h -3.4"
       id="path82" />
    <path
       class="StaffText"
       d="m 769.3,318.402 h -2.109 l -11.5,29.14 c -1.344,3.907 -2.641,5.11 -5.5,5.313 h -0.203 v 2.344 h 13.25 v -2.344 h -1 c -2.688,0 -4.047,-0.953 -4.047,-2.86 0,-0.64 0.156,-1.25 0.453,-2.093 l 1.656,-4.407 h 13.25 l 2.703,6.704 c 0.297,0.796 0.391,1.093 0.391,1.343 0,0.813 -1.25,1.313 -3.094,1.313 h -2.109 v 2.344 h 15.5 v -2.344 h -0.688 c -2.609,-0.063 -3.062,-0.36 -4.203,-3.203 l -12.75,-31.25 m -2.453,8.187 5.641,14.203 H 761.3 l 5.547,-14.203"
       id="path83" />
    <path
       class="StaffText"
       d="m 1347.33,324.945 h -1.91 l -2,2.954 c -3.64,-2.657 -5.5,-3.36 -8.95,-3.36 -4.75,0 -8.8,2 -12.14,6 -3.21,3.813 -4.71,8.016 -4.71,13.156 0,10.797 7.05,18.454 16.91,18.454 8,0 13.09,-4.704 14.25,-13.094 l -2.36,-0.406 c -1.34,7.453 -5.14,11.156 -11.3,11.156 -7.4,0 -10.9,-5.11 -10.9,-15.906 0,-5.704 0.75,-9.454 2.45,-12.454 1.55,-2.796 4.61,-4.546 7.86,-4.546 3.5,0 6.59,1.843 8.5,5.046 0.95,1.657 1.64,3.5 2.84,7.454 h 2.21 l -0.75,-14.454"
       id="path84" />
    <path
       class="StaffText"
       d="m 1803.38,361.399 h 16.79 c 4.46,0 7.86,-0.704 10.5,-2.204 5.05,-2.843 7.86,-8.546 7.86,-16.046 0,-6.907 -2.5,-12.297 -7.11,-15.297 -2.75,-1.75 -6.45,-2.563 -12.15,-2.563 h -15.89 v 2.36 h 0.95 c 2.8,0.046 3.75,0.203 4.14,0.703 0.3,0.437 0.3,0.547 0.3,3.093 v 23.797 c 0,2.563 0,2.657 -0.3,3.11 -0.39,0.5 -1.34,0.64 -4.14,0.703 h -0.95 v 2.344 m 13.84,-2.344 c -2.55,0 -2.84,-0.313 -2.84,-2.75 v -25.86 c 0,-2.453 0.34,-2.796 2.84,-2.796 h 2.61 c 8.55,0 12.09,4.64 12.09,15.703 0,11.203 -3.2,15.703 -11.29,15.703 h -3.41"
       id="path85" />
    <path
       class="StaffText"
       d="m 2520.54,323.945 h -1.89 l -1.96,3 c -3.25,-2.546 -5.45,-3.406 -9.11,-3.406 -3.95,0 -7.04,1.11 -10.2,3.656 -4.94,4 -7.25,9.047 -7.25,15.797 0,5.11 1.45,9.36 4.41,12.61 3.09,3.5 7.7,5.547 12.5,5.547 4.2,0 7.15,-1.297 10.4,-4.547 l 1.85,4.5 h 2.11 v -11 c 0,-2.547 0,-2.657 0.29,-3.11 0.46,-0.547 1.35,-0.687 4.21,-0.687 h 0.75 v -2.36 h -15.91 v 2.36 h 0.95 c 4.21,0 4.55,0.25 4.55,3.047 0,2.14 -0.34,4.093 -1,5.297 -1.25,2.453 -4.45,4.156 -7.7,4.156 -3.25,0 -6.46,-1.656 -8.16,-4.156 -1.84,-2.797 -2.64,-6.297 -2.64,-11.657 0,-11.14 3.7,-17.093 10.64,-17.093 5.7,0 9.66,4.093 11.7,12.093 h 2.16 l -0.7,-14.047"
       id="path86" />
    <path
       class="StaffText"
       d="m 697.465,323.945 h -1.89 l -1.953,3 c -3.25,-2.546 -5.453,-3.406 -9.11,-3.406 -3.953,0 -7.047,1.11 -10.203,3.656 -4.937,4 -7.25,9.047 -7.25,15.797 0,5.11 1.453,9.36 4.406,12.61 3.094,3.5 7.704,5.547 12.5,5.547 4.204,0 7.157,-1.297 10.407,-4.547 l 1.843,4.5 h 2.11 v -11 c 0,-2.547 0,-2.657 0.297,-3.11 0.453,-0.547 1.343,-0.687 4.203,-0.687 h 0.75 v -2.36 h -15.906 v 2.36 h 0.953 c 4.203,0 4.547,0.25 4.547,3.047 0,2.14 -0.344,4.093 -1,5.297 -1.25,2.453 -4.454,4.156 -7.704,4.156 -3.25,0 -6.453,-1.656 -8.156,-4.156 -1.844,-2.797 -2.64,-6.297 -2.64,-11.657 0,-11.14 3.703,-17.093 10.64,-17.093 5.703,0 9.656,4.093 11.703,12.093 h 2.157 l -0.704,-14.047"
       id="path87" />
    <path
       class="StaffText"
       d="m 615.037,323.945 h -1.891 l -1.953,3 c -3.25,-2.546 -5.453,-3.406 -9.109,-3.406 -3.953,0 -7.047,1.11 -10.203,3.656 -4.938,4 -7.25,9.047 -7.25,15.797 0,5.11 1.453,9.36 4.406,12.61 3.094,3.5 7.703,5.547 12.5,5.547 4.203,0 7.156,-1.297 10.406,-4.547 l 1.844,4.5 h 2.109 v -11 c 0,-2.547 0,-2.657 0.297,-3.11 0.453,-0.547 1.344,-0.687 4.203,-0.687 h 0.75 v -2.36 H 605.24 v 2.36 h 0.953 c 4.203,0 4.547,0.25 4.547,3.047 0,2.14 -0.344,4.093 -1,5.297 -1.25,2.453 -4.453,4.156 -7.703,4.156 -3.25,0 -6.453,-1.656 -8.156,-4.156 -1.844,-2.797 -2.641,-6.297 -2.641,-11.657 0,-11.14 3.703,-17.093 10.641,-17.093 5.703,0 9.656,4.093 11.703,12.093 h 2.156 l -0.703,-14.047"
       id="path88" />
    <path
       class="StaffText"
       d="m 2236,324.945 h -1.91 l -2,2.954 c -3.64,-2.657 -5.5,-3.36 -8.95,-3.36 -4.75,0 -8.8,2 -12.14,6 -3.2,3.813 -4.7,8.016 -4.7,13.156 0,10.797 7.04,18.454 16.9,18.454 8,0 13.1,-4.704 14.25,-13.094 l -2.36,-0.406 c -1.34,7.453 -5.14,11.156 -11.29,11.156 -7.41,0 -10.91,-5.11 -10.91,-15.906 0,-5.704 0.75,-9.454 2.45,-12.454 1.55,-2.796 4.61,-4.546 7.86,-4.546 3.5,0 6.6,1.843 8.5,5.046 0.96,1.657 1.64,3.5 2.85,7.454 h 2.2 L 2236,324.945"
       id="path89" />
  </g>
  <metadata
     id="metadata89">
    <rdf:RDF>
      <cc:Work
         rdf:about="">
        <dc:title>64</dc:title>
      </cc:Work>
    </rdf:RDF>
  </metadata>
</svg>
