<?xml version="1.0" encoding="UTF-8" standalone="no"?>
<svg
   width="2555"
   height="400"
   viewBox="0 0 2555 400.00002"
   version="1.2"
   id="svg143"
   sodipodi:docname="70-1.svg"
   inkscape:version="1.3 (0e150ed6c4, 2023-07-21)"
   xmlns:inkscape="http://www.inkscape.org/namespaces/inkscape"
   xmlns:sodipodi="http://sodipodi.sourceforge.net/DTD/sodipodi-0.dtd"
   xmlns="http://www.w3.org/2000/svg"
   xmlns:svg="http://www.w3.org/2000/svg"
   xmlns:rdf="http://www.w3.org/1999/02/22-rdf-syntax-ns#"
   xmlns:cc="http://creativecommons.org/ns#"
   xmlns:dc="http://purl.org/dc/elements/1.1/">
  <defs
     id="defs143" />
  <sodipodi:namedview
     id="namedview143"
     pagecolor="#505050"
     bordercolor="#ffffff"
     borderopacity="1"
     inkscape:showpageshadow="0"
     inkscape:pageopacity="0"
     inkscape:pagecheckerboard="1"
     inkscape:deskcolor="#505050"
     inkscape:zoom="0.18605646"
     inkscape:cx="1486.108"
     inkscape:cy="2104.2"
     inkscape:window-width="1680"
     inkscape:window-height="979"
     inkscape:window-x="1358"
     inkscape:window-y="-8"
     inkscape:window-maximized="1"
     inkscape:current-layer="svg143" />
  <title
     id="title1">70</title>
  <desc
     id="desc1">Generated by MuseScore Studio 4.3.0</desc>
  <g
     id="g143"
     transform="translate(-209.6,-217.6735)">
    <polyline
       class="StaffLines"
       fill="none"
       stroke="#000000"
       stroke-width="2.73"
       stroke-linejoin="bevel"
       points="336.599,386.199 2764.6,386.199"
       id="polyline1" />
    <polyline
       class="StaffLines"
       fill="none"
       stroke="#000000"
       stroke-width="2.73"
       stroke-linejoin="bevel"
       points="336.599,410.999 2764.6,410.999"
       id="polyline2" />
    <polyline
       class="StaffLines"
       fill="none"
       stroke="#000000"
       stroke-width="2.73"
       stroke-linejoin="bevel"
       points="336.599,435.799 2764.6,435.799"
       id="polyline3" />
    <polyline
       class="StaffLines"
       fill="none"
       stroke="#000000"
       stroke-width="2.73"
       stroke-linejoin="bevel"
       points="336.599,460.599 2764.6,460.599"
       id="polyline4" />
    <polyline
       class="StaffLines"
       fill="none"
       stroke="#000000"
       stroke-width="2.73"
       stroke-linejoin="bevel"
       points="336.599,485.399 2764.6,485.399"
       id="polyline5" />
    <polyline
       class="BarLine"
       fill="none"
       stroke="#000000"
       stroke-width="4.46"
       stroke-linejoin="bevel"
       points="2484.48,384.835 2484.48,486.763"
       id="polyline6" />
    <polyline
       class="BarLine"
       fill="none"
       stroke="#000000"
       stroke-width="4.46"
       stroke-linejoin="bevel"
       points="1094.39,384.835 1094.39,486.763"
       id="polyline7" />
    <polyline
       class="BarLine"
       fill="none"
       stroke="#000000"
       stroke-width="4.46"
       stroke-linejoin="bevel"
       points="2739.55,384.835 2739.55,486.763"
       id="polyline8" />
    <polyline
       class="BarLine"
       fill="none"
       stroke="#000000"
       stroke-width="13.64"
       stroke-linejoin="bevel"
       points="2757.78,384.835 2757.78,486.763"
       id="polyline9" />
    <polyline
       class="BarLine"
       fill="none"
       stroke="#000000"
       stroke-width="4.46"
       stroke-linejoin="bevel"
       points="1642.78,384.835 1642.78,486.763"
       id="polyline10" />
    <polyline
       class="BarLine"
       fill="none"
       stroke="#000000"
       stroke-width="4.46"
       stroke-linejoin="bevel"
       points="1936.09,384.835 1936.09,486.763"
       id="polyline11" />
    <polyline
       class="BarLine"
       fill="none"
       stroke="#000000"
       stroke-width="4.46"
       stroke-linejoin="bevel"
       points="839.309,384.835 839.309,486.763"
       id="polyline12" />
    <polyline
       class="BarLine"
       fill="none"
       stroke="#000000"
       stroke-width="4.46"
       stroke-linejoin="bevel"
       points="2191.16,384.835 2191.16,486.763"
       id="polyline13" />
    <polyline
       class="BarLine"
       fill="none"
       stroke="#000000"
       stroke-width="4.46"
       stroke-linejoin="bevel"
       points="1387.7,384.835 1387.7,486.763"
       id="polyline14" />
    <polyline
       class="Stem"
       fill="none"
       stroke="#000000"
       stroke-width="2.48"
       stroke-linejoin="bevel"
       points="1803.27,427.565 1803.27,510.317"
       id="polyline15" />
    <polyline
       class="Stem"
       fill="none"
       stroke="#000000"
       stroke-width="2.48"
       stroke-linejoin="bevel"
       points="1222.24,444.231 1222.24,379.999"
       id="polyline16" />
    <polyline
       class="Stem"
       fill="none"
       stroke="#000000"
       stroke-width="2.48"
       stroke-linejoin="bevel"
       points="1284.63,444.231 1284.63,380.117"
       id="polyline17" />
    <polyline
       class="Stem"
       fill="none"
       stroke="#000000"
       stroke-width="2.48"
       stroke-linejoin="bevel"
       points="611.46,444.231 611.46,379.999"
       id="polyline18" />
    <polyline
       class="Stem"
       fill="none"
       stroke="#000000"
       stroke-width="2.48"
       stroke-linejoin="bevel"
       points="1678.49,427.565 1678.49,510.317"
       id="polyline19" />
    <polyline
       class="Stem"
       fill="none"
       stroke="#000000"
       stroke-width="2.48"
       stroke-linejoin="bevel"
       points="1347.03,456.631 1347.03,386.08"
       id="polyline20" />
    <polyline
       class="Stem"
       fill="none"
       stroke="#000000"
       stroke-width="2.48"
       stroke-linejoin="bevel"
       points="1453.16,469.031 1453.16,392.399"
       id="polyline21" />
    <polyline
       class="Stem"
       fill="none"
       stroke="#000000"
       stroke-width="2.48"
       stroke-linejoin="bevel"
       points="1577.95,469.031 1577.95,386.199"
       id="polyline22" />
    <polyline
       class="Stem"
       fill="none"
       stroke="#000000"
       stroke-width="2.48"
       stroke-linejoin="bevel"
       points="2001.55,469.031 2001.55,392.399"
       id="polyline23" />
    <polyline
       class="Stem"
       fill="none"
       stroke="#000000"
       stroke-width="2.48"
       stroke-linejoin="bevel"
       points="2063.94,469.031 2063.94,392.399"
       id="polyline24" />
    <polyline
       class="Stem"
       fill="none"
       stroke="#000000"
       stroke-width="2.48"
       stroke-linejoin="bevel"
       points="2126.34,456.631 2126.34,373.799"
       id="polyline25" />
    <polyline
       class="Stem"
       fill="none"
       stroke="#000000"
       stroke-width="2.48"
       stroke-linejoin="bevel"
       points="706.492,427.565 706.492,510.317"
       id="polyline26" />
    <polyline
       class="Stem"
       fill="none"
       stroke="#000000"
       stroke-width="2.48"
       stroke-linejoin="bevel"
       points="2256.63,444.231 2256.63,379.999"
       id="polyline27" />
    <polyline
       class="Stem"
       fill="none"
       stroke="#000000"
       stroke-width="2.48"
       stroke-linejoin="bevel"
       points="2319.02,444.231 2319.02,379.999"
       id="polyline28" />
    <polyline
       class="Stem"
       fill="none"
       stroke="#000000"
       stroke-width="2.48"
       stroke-linejoin="bevel"
       points="2381.41,444.231 2381.41,380.117"
       id="polyline29" />
    <polyline
       class="Stem"
       fill="none"
       stroke="#000000"
       stroke-width="2.48"
       stroke-linejoin="bevel"
       points="2443.81,456.631 2443.81,386.08"
       id="polyline30" />
    <polyline
       class="Stem"
       fill="none"
       stroke="#000000"
       stroke-width="2.48"
       stroke-linejoin="bevel"
       points="768.885,452.365 768.885,516.28"
       id="polyline31" />
    <polyline
       class="Stem"
       fill="none"
       stroke="#000000"
       stroke-width="2.48"
       stroke-linejoin="bevel"
       points="1740.88,452.365 1740.88,516.28"
       id="polyline32" />
    <polyline
       class="Stem"
       fill="none"
       stroke="#000000"
       stroke-width="2.48"
       stroke-linejoin="bevel"
       points="2549.94,469.031 2549.94,392.399"
       id="polyline33" />
    <polyline
       class="Stem"
       fill="none"
       stroke="#000000"
       stroke-width="2.48"
       stroke-linejoin="bevel"
       points="904.773,469.031 904.773,392.399"
       id="polyline34" />
    <polyline
       class="Stem"
       fill="none"
       stroke="#000000"
       stroke-width="2.48"
       stroke-linejoin="bevel"
       points="2612.33,469.031 2612.33,392.399"
       id="polyline35" />
    <polyline
       class="Stem"
       fill="none"
       stroke="#000000"
       stroke-width="2.48"
       stroke-linejoin="bevel"
       points="2674.73,469.031 2674.73,386.199"
       id="polyline36" />
    <polyline
       class="Stem"
       fill="none"
       stroke="#000000"
       stroke-width="2.48"
       stroke-linejoin="bevel"
       points="967.165,469.031 967.165,392.399"
       id="polyline37" />
    <polyline
       class="Stem"
       fill="none"
       stroke="#000000"
       stroke-width="2.48"
       stroke-linejoin="bevel"
       points="1515.56,469.031 1515.56,392.399"
       id="polyline38" />
    <polyline
       class="Stem"
       fill="none"
       stroke="#000000"
       stroke-width="2.48"
       stroke-linejoin="bevel"
       points="1865.66,452.365 1865.66,516.28"
       id="polyline39" />
    <polyline
       class="Stem"
       fill="none"
       stroke="#000000"
       stroke-width="2.48"
       stroke-linejoin="bevel"
       points="1029.56,456.631 1029.56,373.799"
       id="polyline40" />
    <polyline
       class="Stem"
       fill="none"
       stroke="#000000"
       stroke-width="2.48"
       stroke-linejoin="bevel"
       points="1159.85,444.231 1159.85,379.999"
       id="polyline41" />
    <polyline
       class="Stem"
       fill="none"
       stroke="#000000"
       stroke-width="2.48"
       stroke-linejoin="bevel"
       points="673.853,444.231 673.853,379.999"
       id="polyline42" />
    <path
       class="Note"
       transform="matrix(0.992001,0,0,0.992001,1970.56,472.999)"
       d="M 0,4.20313 C 0,8.5 3.09375,13.2969 11.2031,13.2969 21.5938,13.2969 32.5,4.79688 32.5,-4 c 0,-5.90625 -5,-9.2031 -11.2031,-9.2031 C 11.5938,-13.2031 0,-5 0,4.20313"
       id="path42" />
    <path
       class="Note"
       transform="matrix(0.992001,0,0,0.992001,1191.25,448.199)"
       d="M 0,4.20313 C 0,8.5 3.09375,13.2969 11.2031,13.2969 21.5938,13.2969 32.5,4.79688 32.5,-4 c 0,-5.90625 -5,-9.2031 -11.2031,-9.2031 C 11.5938,-13.2031 0,-5 0,4.20313"
       id="path43" />
    <path
       class="Note"
       transform="matrix(0.992001,0,0,0.992001,1864.42,448.199)"
       d="M 0,4.20313 C 0,8.5 3.09375,13.2969 11.2031,13.2969 21.5938,13.2969 32.5,4.79688 32.5,-4 c 0,-5.90625 -5,-9.2031 -11.2031,-9.2031 C 11.5938,-13.2031 0,-5 0,4.20313"
       id="path44" />
    <path
       class="Note"
       transform="matrix(0.992001,0,0,0.992001,580.468,448.199)"
       d="M 0,4.20313 C 0,8.5 3.09375,13.2969 11.2031,13.2969 21.5938,13.2969 32.5,4.79688 32.5,-4 c 0,-5.90625 -5,-9.2031 -11.2031,-9.2031 C 11.5938,-13.2031 0,-5 0,4.20313"
       id="path45" />
    <path
       class="Note"
       transform="matrix(0.992001,0,0,0.992001,1677.25,423.399)"
       d="M 0,4.20313 C 0,8.5 3.09375,13.2969 11.2031,13.2969 21.5938,13.2969 32.5,4.79688 32.5,-4 c 0,-5.90625 -5,-9.2031 -11.2031,-9.2031 C 11.5938,-13.2031 0,-5 0,4.20313"
       id="path46" />
    <path
       class="Note"
       transform="matrix(0.992001,0,0,0.992001,1484.56,472.999)"
       d="M 0,4.20313 C 0,8.5 3.09375,13.2969 11.2031,13.2969 21.5938,13.2969 32.5,4.79688 32.5,-4 c 0,-5.90625 -5,-9.2031 -11.2031,-9.2031 C 11.5938,-13.2031 0,-5 0,4.20313"
       id="path47" />
    <path
       class="Note"
       transform="matrix(0.992001,0,0,0.992001,642.86,448.199)"
       d="M 0,4.20313 C 0,8.5 3.09375,13.2969 11.2031,13.2969 21.5938,13.2969 32.5,4.79688 32.5,-4 c 0,-5.90625 -5,-9.2031 -11.2031,-9.2031 C 11.5938,-13.2031 0,-5 0,4.20313"
       id="path48" />
    <path
       class="Note"
       transform="matrix(0.992001,0,0,0.992001,1422.17,472.999)"
       d="M 0,4.20313 C 0,8.5 3.09375,13.2969 11.2031,13.2969 21.5938,13.2969 32.5,4.79688 32.5,-4 c 0,-5.90625 -5,-9.2031 -11.2031,-9.2031 C 11.5938,-13.2031 0,-5 0,4.20313"
       id="path49" />
    <path
       class="Note"
       transform="matrix(0.992001,0,0,0.992001,705.252,423.399)"
       d="M 0,4.20313 C 0,8.5 3.09375,13.2969 11.2031,13.2969 21.5938,13.2969 32.5,4.79688 32.5,-4 c 0,-5.90625 -5,-9.2031 -11.2031,-9.2031 C 11.5938,-13.2031 0,-5 0,4.20313"
       id="path50" />
    <path
       class="Note"
       transform="matrix(0.992001,0,0,0.992001,2518.95,472.999)"
       d="M 0,4.20313 C 0,8.5 3.09375,13.2969 11.2031,13.2969 21.5938,13.2969 32.5,4.79688 32.5,-4 c 0,-5.90625 -5,-9.2031 -11.2031,-9.2031 C 11.5938,-13.2031 0,-5 0,4.20313"
       id="path51" />
    <path
       class="Note"
       transform="matrix(0.992001,0,0,0.992001,1802.03,423.399)"
       d="M 0,4.20313 C 0,8.5 3.09375,13.2969 11.2031,13.2969 21.5938,13.2969 32.5,4.79688 32.5,-4 c 0,-5.90625 -5,-9.2031 -11.2031,-9.2031 C 11.5938,-13.2031 0,-5 0,4.20313"
       id="path52" />
    <path
       class="Note"
       transform="matrix(0.992001,0,0,0.992001,1316.03,460.599)"
       d="M 0,4.20313 C 0,8.5 3.09375,13.2969 11.2031,13.2969 21.5938,13.2969 32.5,4.79688 32.5,-4 c 0,-5.90625 -5,-9.2031 -11.2031,-9.2031 C 11.5938,-13.2031 0,-5 0,4.20313"
       id="path53" />
    <path
       class="Note"
       transform="matrix(0.992001,0,0,0.992001,767.645,448.199)"
       d="M 0,4.20313 C 0,8.5 3.09375,13.2969 11.2031,13.2969 21.5938,13.2969 32.5,4.79688 32.5,-4 c 0,-5.90625 -5,-9.2031 -11.2031,-9.2031 C 11.5938,-13.2031 0,-5 0,4.20313"
       id="path54" />
    <path
       class="Note"
       transform="matrix(0.992001,0,0,0.992001,1546.95,472.999)"
       d="M 0,4.20313 C 0,8.5 3.09375,13.2969 11.2031,13.2969 21.5938,13.2969 32.5,4.79688 32.5,-4 c 0,-5.90625 -5,-9.2031 -11.2031,-9.2031 C 11.5938,-13.2031 0,-5 0,4.20313"
       id="path55" />
    <path
       class="Note"
       transform="matrix(0.992001,0,0,0.992001,873.781,472.999)"
       d="M 0,4.20313 C 0,8.5 3.09375,13.2969 11.2031,13.2969 21.5938,13.2969 32.5,4.79688 32.5,-4 c 0,-5.90625 -5,-9.2031 -11.2031,-9.2031 C 11.5938,-13.2031 0,-5 0,4.20313"
       id="path56" />
    <path
       class="Note"
       transform="matrix(0.992001,0,0,0.992001,2581.34,472.999)"
       d="M 0,4.20313 C 0,8.5 3.09375,13.2969 11.2031,13.2969 21.5938,13.2969 32.5,4.79688 32.5,-4 c 0,-5.90625 -5,-9.2031 -11.2031,-9.2031 C 11.5938,-13.2031 0,-5 0,4.20313"
       id="path57" />
    <path
       class="Note"
       transform="matrix(0.992001,0,0,0.992001,998.565,460.599)"
       d="M 0,4.20313 C 0,8.5 3.09375,13.2969 11.2031,13.2969 21.5938,13.2969 32.5,4.79688 32.5,-4 c 0,-5.90625 -5,-9.2031 -11.2031,-9.2031 C 11.5938,-13.2031 0,-5 0,4.20313"
       id="path58" />
    <path
       class="Note"
       transform="matrix(0.992001,0,0,0.992001,1253.64,448.199)"
       d="M 0,4.20313 C 0,8.5 3.09375,13.2969 11.2031,13.2969 21.5938,13.2969 32.5,4.79688 32.5,-4 c 0,-5.90625 -5,-9.2031 -11.2031,-9.2031 C 11.5938,-13.2031 0,-5 0,4.20313"
       id="path59" />
    <path
       class="Note"
       transform="matrix(0.992001,0,0,0.992001,2032.95,472.999)"
       d="M 0,4.20313 C 0,8.5 3.09375,13.2969 11.2031,13.2969 21.5938,13.2969 32.5,4.79688 32.5,-4 c 0,-5.90625 -5,-9.2031 -11.2031,-9.2031 C 11.5938,-13.2031 0,-5 0,4.20313"
       id="path60" />
    <path
       class="Note"
       transform="matrix(0.992001,0,0,0.992001,2643.73,472.999)"
       d="M 0,4.20313 C 0,8.5 3.09375,13.2969 11.2031,13.2969 21.5938,13.2969 32.5,4.79688 32.5,-4 c 0,-5.90625 -5,-9.2031 -11.2031,-9.2031 C 11.5938,-13.2031 0,-5 0,4.20313"
       id="path61" />
    <path
       class="Note"
       transform="matrix(0.992001,0,0,0.992001,2095.34,460.599)"
       d="M 0,4.20313 C 0,8.5 3.09375,13.2969 11.2031,13.2969 21.5938,13.2969 32.5,4.79688 32.5,-4 c 0,-5.90625 -5,-9.2031 -11.2031,-9.2031 C 11.5938,-13.2031 0,-5 0,4.20313"
       id="path62" />
    <path
       class="Note"
       transform="matrix(0.992001,0,0,0.992001,2412.81,460.599)"
       d="M 0,4.20313 C 0,8.5 3.09375,13.2969 11.2031,13.2969 21.5938,13.2969 32.5,4.79688 32.5,-4 c 0,-5.90625 -5,-9.2031 -11.2031,-9.2031 C 11.5938,-13.2031 0,-5 0,4.20313"
       id="path63" />
    <path
       class="Note"
       transform="matrix(0.992001,0,0,0.992001,936.173,472.999)"
       d="M 0,4.20313 C 0,8.5 3.09375,13.2969 11.2031,13.2969 21.5938,13.2969 32.5,4.79688 32.5,-4 c 0,-5.90625 -5,-9.2031 -11.2031,-9.2031 C 11.5938,-13.2031 0,-5 0,4.20313"
       id="path64" />
    <path
       class="Note"
       transform="matrix(0.992001,0,0,0.992001,2225.64,448.199)"
       d="M 0,4.20313 C 0,8.5 3.09375,13.2969 11.2031,13.2969 21.5938,13.2969 32.5,4.79688 32.5,-4 c 0,-5.90625 -5,-9.2031 -11.2031,-9.2031 C 11.5938,-13.2031 0,-5 0,4.20313"
       id="path65" />
    <path
       class="Note"
       transform="matrix(0.992001,0,0,0.992001,2288.03,448.199)"
       d="M 0,4.20313 C 0,8.5 3.09375,13.2969 11.2031,13.2969 21.5938,13.2969 32.5,4.79688 32.5,-4 c 0,-5.90625 -5,-9.2031 -11.2031,-9.2031 C 11.5938,-13.2031 0,-5 0,4.20313"
       id="path66" />
    <path
       class="Note"
       transform="matrix(0.992001,0,0,0.992001,1739.64,448.199)"
       d="M 0,4.20313 C 0,8.5 3.09375,13.2969 11.2031,13.2969 21.5938,13.2969 32.5,4.79688 32.5,-4 c 0,-5.90625 -5,-9.2031 -11.2031,-9.2031 C 11.5938,-13.2031 0,-5 0,4.20313"
       id="path67" />
    <path
       class="Note"
       transform="matrix(0.992001,0,0,0.992001,2350.42,448.199)"
       d="M 0,4.20313 C 0,8.5 3.09375,13.2969 11.2031,13.2969 21.5938,13.2969 32.5,4.79688 32.5,-4 c 0,-5.90625 -5,-9.2031 -11.2031,-9.2031 C 11.5938,-13.2031 0,-5 0,4.20313"
       id="path68" />
    <path
       class="Note"
       transform="matrix(0.992001,0,0,0.992001,1128.86,448.199)"
       d="M 0,4.20313 C 0,8.5 3.09375,13.2969 11.2031,13.2969 21.5938,13.2969 32.5,4.79688 32.5,-4 c 0,-5.90625 -5,-9.2031 -11.2031,-9.2031 C 11.5938,-13.2031 0,-5 0,4.20313"
       id="path69" />
    <path
       class="Clef"
       transform="matrix(0.992001,0,0,0.992001,355.199,460.599)"
       d="m 12.2969,51.2969 c 0,6.6094 5,15.3125 18.5,15.3125 4.7031,0 8.8125,-1.2031 12.4062,-3.4063 C 48.6094,59.4063 50,52.7969 50,46.5 c 0,-3.8906 -0.5937,-8.3906 -1.5937,-14.0937 -0.2969,-2 -0.9063,-5 -1.5,-8.9063 C 56.7031,20.2969 64,10.0938 64,-0.203125 64,-15.2969 53.2969,-25.5 38.7031,-25.5 c -1,-6 -2,-11.9063 -2.7968,-17.5 10.5,-11.1094 17.7968,-23.6094 17.7968,-39.5 0,-9.1094 -2.7968,-16.5 -4.4062,-20.109 -2.3906,-5.094 -5.2969,-8.594 -7.0938,-8.594 -0.7031,0 -3.7968,1.203 -7.0937,5.094 -6.4063,7.609 -8.2031,20.4059 -8.2031,28.7965 0,5.4062 0.5,10.3125 2.2031,21.5156 -0.1094,0.0938 -5.3125,5.3906 -7.4063,7.0938 C 12.5938,-40.2969 0,-28.1094 0,-8.09375 0,10.5938 16.2969,25.2969 34.9063,25.2969 c 2.8906,0 5.5937,-0.2969 7.8906,-0.7031 1.9062,9.6093 3.1094,16.6093 3.1094,21.9062 0,10.4063 -5.4063,15.9063 -15.5,15.9063 -2.4063,0 -4.5,-0.5 -4.7032,-0.5 -0.0937,-0.1094 -0.2968,-0.2032 -0.2968,-0.2969 0,-0.2031 0.2031,-0.3125 0.5,-0.3125 C 30.6094,60.5 35.2969,56.5 35.2969,50.1094 35.2969,44.7031 31.2031,39 23.7031,39 c -7,0 -11.4062,5.7031 -11.4062,12.2969 m 20.9062,-133.5 c 0.9063,-4 5.5,-14.5 10.7032,-14.5 1.5,0 3.8906,4.7968 3.8906,11.7968 0,10.4063 -7.6875,18.2032 -14.5938,25 -0.5937,-4 -1.0937,-7.8906 -1.0937,-12.0937 0,-3.7031 0.2969,-7.1094 1.0937,-10.2031 M 42,20.5938 c -2,0.4062 -3.8906,0.6093 -5.7969,0.6093 -14.2968,0 -26.49997,-10 -26.49997,-25.10935 0,-12.18755 8.59377,-23.09375 17.40627,-30.70315 1.6875,-1.5 3.2969,-2.8906 4.7969,-4.3906 0.8906,5.3906 1.5937,10.0937 2.2968,14.2031 -9.1093,2.7031 -15.2968,12.2969 -15.2968,21.70315 0,7 5.5,16.59375 13.5,16.59375 0.7968,0 1.7031,-0.4062 1.7031,-1.2969 0,-0.9062 -1,-1.4062 -2.2031,-2.2031 C 28,7.59375 25.7969,5 25.7969,0.09375 25.7969,-6 30.4063,-10.9063 36.2031,-12.2969 L 42,20.5938 M 56.2031,2.09375 c 0,7.10938 -2.9062,14.40625 -10,17.31255 -2.0937,-12.00005 -4.7968,-27.9063 -5.5,-32.3126 9,0 15.5,6.10942 15.5,15.00005"
       id="path70" />
    <path
       class="KeySig"
       transform="matrix(0.992001,0,0,0.992001,443.479,435.799)"
       d="m 12,-15.5 c -5,0 -7.90625,3.0937 -8.40625,3.7031 L 4,-43.9063 c 0,-0.7968 -0.59375,-1.3906 -1.40625,-1.3906 H 1.40625 C 0.59375,-45.2969 0,-44.7031 0,-43.9063 L 0.5,16.2031 C 0.5,17 1.09375,17.5938 1.90625,17.5938 2.09375,17.5938 2.5,17.5 2.70313,17.4063 11.2969,13.0938 20.2969,4.90625 20.2969,-5.40625 20.2969,-10.5938 17.9063,-15.5 12,-15.5 M 3.29688,12.7031 3.59375,-6.79688 c 0.20313,-0.90625 1.70313,-3.79692 5.70313,-3.79692 3.60942,0 3.90622,3.39067 3.90622,5.50005 0,8.89063 -3.29685,12.59375 -9.90622,17.79685"
       id="path71" />
    <path
       class="TimeSig"
       transform="matrix(0.992001,0,0,0.992001,490.297,411.495)"
       d="m 34.2031,3.90625 c -0.7968,2.1875 -2.7968,9.39065 -7.7031,9.39065 -6.5,0 -7.9062,-4.00002 -13.2969,-4.00002 -0.7968,0 -1.6093,0.10937 -2.6093,0.29687 0,0 2.5,-3.79687 13.1093,-7.09375 C 34.2969,-0.796875 37,-6 37,-12 c 0,-4.2031 -1.8906,-12.5 -17,-12.5 -15.09375,0 -17.90625,9.0937 -17.90625,13.7031 0,4.09377 3.40625,7.39065 7.5,7.39065 4.10935,0 7.40625,-3.29688 7.40625,-7.39065 0,-2.7969 -2,-5.9062 -4.5937,-6.9062 -0.3125,-0.0938 -0.7032,-0.5938 -0.7032,-1.0938 0,-0.6094 0.5,-1.2969 2.2969,-1.7969 0.5,-0.2031 1.9063,-0.5 3.4063,-0.5 5.6875,0 6.7968,3.5 6.7968,8.5938 0,11.703125 -13.9062,14.20313 -19.7031,22.9063 0,0 -3,4.1875 -3,8.8906 0,4.7031 2.40625,5 3.59375,5 1.60938,0 3.3125,-1.2969 3.3125,-3.0938 0,-0.4062 -0.10937,-0.7968 -0.3125,-1.2968 C 7.5,18.5 7.29688,17.4063 7.29688,16.5938 c 0,-0.2969 0,-0.5938 0.10937,-0.8907 0.09375,-0.6093 0.89063,-1.6093 3.29685,-1.6093 2.8907,0 4,3.4062 5.7969,6 1.7969,2.6093 4.5938,4.2031 7.7969,4.2031 3.2031,0 7.5,-2.2969 9.3125,-6 C 35.4063,14.5938 37.7031,7.09375 37.7031,4.40625 37.7031,3.09375 36.9063,2.5 36,2.5 c -0.7031,0 -1.3906,0.40625 -1.7969,1.40625"
       id="path72" />
    <path
       class="TimeSig"
       transform="matrix(0.992001,0,0,0.992001,487.026,460.599)"
       d="m 20.7969,12.7031 v 7.3907 H 12.5 c -0.7031,0 -1.4062,0.6093 -1.4062,1.4062 v 1.9063 c 0,0.7968 0.7031,1.3906 1.4062,1.3906 h 30.2969 c 0.8125,0 1.4062,-0.5938 1.4062,-1.3906 V 21.5 c 0,-0.7969 -0.5937,-1.4062 -1.4062,-1.4062 h -8.8906 v -7.3907 h 8.8906 c 0.8125,0 1.4062,-0.7031 1.4062,-1.5 V 9.29688 c 0,-0.70313 -0.5937,-1.39063 -1.4062,-1.39063 H 33.9063 V -8 c 0,-0.59375 -0.2969,-1.09375 -0.7969,-1.29688 L 31.9063,-9.90625 C 31.7031,-10 31.4063,-10.0938 31.2031,-10.0938 30.9063,-10 30.5,-9.90625 30.2969,-9.70313 l -9.0938,8.29688 c -0.2968,0.3125 -0.4062,0.703125 -0.4062,1.109375 V 7.90625 H 9.29688 c 0,0 11.10942,-12 22.90622,-27.81255 0.4063,-0.5 0.5,-1 0.5,-1.3906 0,-0.5 -0.2031,-0.9062 -0.2968,-1 L 30.2031,-24.5 c -0.2031,-0.2031 -0.5937,-0.4063 -1,-0.4063 -0.5937,0 -14.1093,0 -14.7968,0 -0.8125,0 -1.3125,0.6094 -1.4063,1.2032 0,0 -0.5,7.4062 -3.09375,15.49997 -2.60937,8.10938 -5.60937,13.10938 -8.20312,16.79688 0,0 -0.29688,0.5 -0.29688,1.10938 0,0.20312 0,0.39067 0.09375,0.59377 0.40625,0.7031 1,1.7969 1,1.7969 0,0 0.20313,0.6093 1.09375,0.6093 H 20.7969"
       id="path73" />
    <path
       class="Beam"
       fill-rule="evenodd"
       d="m 610.22,373.799 h 64.873 v 12.4 H 610.22 v -12.4"
       id="path74" />
    <path
       class="Beam"
       fill-rule="evenodd"
       d="m 705.252,503.97 64.873,6.2 v 12.457 l -64.873,-6.2 V 503.97"
       id="path75" />
    <path
       class="Beam"
       fill-rule="evenodd"
       d="m 1451.92,386.199 h 64.88 v 12.4 h -64.88 v -12.4"
       id="path76" />
    <path
       class="Beam"
       fill-rule="evenodd"
       d="m 903.533,386.199 h 64.872 v 12.4 h -64.872 v -12.4"
       id="path77" />
    <path
       class="Beam"
       fill-rule="evenodd"
       d="m 1283.39,373.77 64.88,6.2 v 12.457 l -64.88,-6.2 V 373.77"
       id="path78" />
    <path
       class="Beam"
       fill-rule="evenodd"
       d="m 1677.25,503.97 64.87,6.2 v 12.457 l -64.87,-6.2 V 503.97"
       id="path79" />
    <path
       class="Beam"
       fill-rule="evenodd"
       d="m 1158.61,373.799 h 64.87 v 12.4 h -64.87 v -12.4"
       id="path80" />
    <path
       class="Beam"
       fill-rule="evenodd"
       d="m 2255.39,373.799 h 64.87 v 12.4 h -64.87 v -12.4"
       id="path81" />
    <path
       class="Beam"
       fill-rule="evenodd"
       d="m 2000.31,386.199 h 64.87 v 12.4 h -64.87 v -12.4"
       id="path82" />
    <path
       class="Beam"
       fill-rule="evenodd"
       d="m 1802.03,503.97 64.87,6.2 v 12.457 l -64.87,-6.2 V 503.97"
       id="path83" />
    <path
       class="Beam"
       fill-rule="evenodd"
       d="m 2380.17,373.77 64.88,6.2 v 12.457 l -64.88,-6.2 V 373.77"
       id="path84" />
    <path
       class="Beam"
       fill-rule="evenodd"
       d="m 2548.7,386.199 h 64.87 v 12.4 h -64.87 v -12.4"
       id="path85" />
    <path
       class="Lyrics"
       d="m 1133.18,547.568 -9.25,0.562 v 2.141 h 2.45 c 1.84,0.047 2.09,0.359 2.09,2.5 v 27.859 c -0.04,0.75 -0.09,1.047 -0.29,1.297 -0.36,0.453 -1.3,0.656 -3.46,0.703 h -0.34 v 1.797 h 12.94 v -1.797 h -0.35 c -3.34,-0.109 -3.79,-0.359 -3.79,-2.156 v -32.906 m 28.39,20.765 c 0,-3.156 -0.55,-4.75 -2,-5.953 -1.64,-1.359 -4.1,-2 -7.3,-2 -5.64,0 -9.75,2.641 -9.75,6.297 0,1.844 1.16,3.047 2.91,3.047 1.59,0 2.7,-1.047 2.7,-2.547 0,-0.656 -0.25,-1.344 -0.75,-2.047 -0.31,-0.359 -0.36,-0.453 -0.36,-0.703 0,-1 2,-1.906 4.41,-1.906 1.59,0 3.34,0.5 4.14,1.25 0.95,0.812 1.31,2 1.31,4.25 v 1.953 c -5.2,0.906 -6.86,1.297 -9.31,2.25 -4.35,1.609 -6.39,3.906 -6.39,7.109 0,3.594 2.79,5.844 7.25,5.844 3.45,0 6.54,-1.406 8.7,-3.953 0.8,2.547 2.05,3.547 4.39,3.547 2.25,0 4.61,-1.438 4.61,-2.891 0,-0.359 -0.2,-0.609 -0.5,-0.609 -0.2,0 -0.41,0.062 -0.75,0.203 -0.7,0.297 -1,0.359 -1.41,0.359 -1.4,0 -1.9,-0.906 -1.9,-3.453 v -10.047 m -4.69,6.094 c 0,3 -0.16,3.703 -1,5 -1.25,1.844 -3.5,3.094 -5.7,3.094 -2.3,0 -3.96,-1.641 -3.96,-3.891 0,-2.109 1.05,-3.609 3.25,-4.656 1.55,-0.703 3.5,-1.203 7.41,-1.844 v 2.297"
       id="path86" />
    <path
       class="Lyrics"
       d="m 1195.57,547.568 -9.25,0.562 v 2.141 h 2.45 c 1.85,0.047 2.1,0.359 2.1,2.5 v 27.859 c -0.05,0.75 -0.1,1.047 -0.3,1.297 -0.36,0.453 -1.3,0.656 -3.45,0.703 h -0.35 v 1.797 h 12.94 v -1.797 h -0.34 c -3.35,-0.109 -3.8,-0.359 -3.8,-2.156 v -32.906 m 28.39,20.765 c 0,-3.156 -0.55,-4.75 -2,-5.953 -1.64,-1.359 -4.09,-2 -7.3,-2 -5.64,0 -9.75,2.641 -9.75,6.297 0,1.844 1.16,3.047 2.91,3.047 1.59,0 2.7,-1.047 2.7,-2.547 0,-0.656 -0.25,-1.344 -0.75,-2.047 -0.31,-0.359 -0.36,-0.453 -0.36,-0.703 0,-1 2,-1.906 4.41,-1.906 1.59,0 3.34,0.5 4.14,1.25 0.95,0.812 1.31,2 1.31,4.25 v 1.953 c -5.2,0.906 -6.86,1.297 -9.31,2.25 -4.34,1.609 -6.39,3.906 -6.39,7.109 0,3.594 2.8,5.844 7.25,5.844 3.45,0 6.55,-1.406 8.7,-3.953 0.8,2.547 2.05,3.547 4.39,3.547 2.25,0 4.61,-1.438 4.61,-2.891 0,-0.359 -0.2,-0.609 -0.5,-0.609 -0.2,0 -0.4,0.062 -0.75,0.203 -0.7,0.297 -1,0.359 -1.4,0.359 -1.41,0 -1.91,-0.906 -1.91,-3.453 v -10.047 m -4.69,6.094 c 0,3 -0.15,3.703 -1,5 -1.25,1.844 -3.5,3.094 -5.7,3.094 -2.3,0 -3.95,-1.641 -3.95,-3.891 0,-2.109 1.04,-3.609 3.25,-4.656 1.54,-0.703 3.5,-1.203 7.4,-1.844 v 2.297"
       id="path87" />
    <path
       class="Lyrics"
       d="m 1257.96,547.568 -9.25,0.562 v 2.141 h 2.45 c 1.85,0.047 2.1,0.359 2.1,2.5 v 27.859 c -0.05,0.75 -0.1,1.047 -0.3,1.297 -0.36,0.453 -1.3,0.656 -3.45,0.703 h -0.35 v 1.797 h 12.94 v -1.797 h -0.34 c -3.35,-0.109 -3.8,-0.359 -3.8,-2.156 v -32.906 m 28.39,20.765 c 0,-3.156 -0.54,-4.75 -2,-5.953 -1.64,-1.359 -4.09,-2 -7.29,-2 -5.65,0 -9.75,2.641 -9.75,6.297 0,1.844 1.15,3.047 2.9,3.047 1.6,0 2.7,-1.047 2.7,-2.547 0,-0.656 -0.25,-1.344 -0.75,-2.047 -0.31,-0.359 -0.35,-0.453 -0.35,-0.703 0,-1 2,-1.906 4.4,-1.906 1.6,0 3.35,0.5 4.14,1.25 0.96,0.812 1.31,2 1.31,4.25 v 1.953 c -5.2,0.906 -6.85,1.297 -9.31,2.25 -4.34,1.609 -6.39,3.906 -6.39,7.109 0,3.594 2.8,5.844 7.25,5.844 3.45,0 6.55,-1.406 8.7,-3.953 0.8,2.547 2.05,3.547 4.4,3.547 2.25,0 4.6,-1.438 4.6,-2.891 0,-0.359 -0.2,-0.609 -0.5,-0.609 -0.2,0 -0.4,0.062 -0.75,0.203 -0.7,0.297 -1,0.359 -1.4,0.359 -1.41,0 -1.91,-0.906 -1.91,-3.453 v -10.047 m -4.69,6.094 c 0,3 -0.15,3.703 -1,5 -1.25,1.844 -3.5,3.094 -5.7,3.094 -2.3,0 -3.95,-1.641 -3.95,-3.891 0,-2.109 1.05,-3.609 3.25,-4.656 1.55,-0.703 3.5,-1.203 7.4,-1.844 v 2.297"
       id="path88" />
    <path
       class="Lyrics"
       d="m 1319.15,560.583 h -1.75 l -1.45,1.797 c -1.8,-1.406 -3.6,-2 -6.1,-2 -4.4,0 -7.29,2.844 -7.29,7.25 0,4.703 3.04,5.891 7.04,6.844 l 2.64,0.609 c 3.96,0.938 5.36,1.938 5.36,3.938 0,2.359 -2.04,4 -4.95,4 -4.25,0 -7.25,-2.688 -8.45,-7.688 h -2 v 9.438 h 1.75 l 1.75,-2.047 c 2.04,1.656 4.29,2.453 6.86,2.453 4.89,0 8.14,-3.047 8.14,-7.703 0,-2.203 -0.71,-3.891 -2.1,-5.047 -1.2,-1.047 -2.2,-1.453 -5.25,-2.094 l -2.5,-0.562 c -2.75,-0.594 -2.75,-0.594 -3.65,-1.094 -1.1,-0.5 -1.75,-1.547 -1.75,-2.656 0,-2.047 1.9,-3.438 4.65,-3.438 4.1,0 6.1,2.891 7.3,6.391 h 1.75 v -8.391 m 16.09,-0.203 c -6.14,0 -10.89,5.453 -10.89,12.453 0,6.844 4.8,12.344 10.8,12.344 6,0 10.8,-5.5 10.8,-12.406 0,-6.844 -4.8,-12.391 -10.71,-12.391 m 0,2.141 c 3.5,0 5.46,3.656 5.46,10.25 0,6.656 -1.96,10.25 -5.55,10.25 -3.59,0 -5.55,-3.594 -5.55,-10.188 0,-6.812 1.89,-10.312 5.64,-10.312 m 22.61,-14.953 -9.25,0.562 v 2.141 h 2.46 c 1.84,0.047 2.09,0.359 2.09,2.5 v 27.859 c -0.05,0.75 -0.09,1.047 -0.3,1.297 -0.36,0.453 -1.29,0.656 -3.45,0.703 h -0.34 v 1.797 h 12.93 v -1.797 h -0.34 c -3.34,-0.109 -3.8,-0.359 -3.8,-2.156 v -32.906"
       id="path89" />
    <path
       class="Lyrics"
       d="m 2229.96,547.568 -9.25,0.562 v 2.141 h 2.45 c 1.84,0.047 2.09,0.359 2.09,2.5 v 27.859 c -0.04,0.75 -0.09,1.047 -0.29,1.297 -0.36,0.453 -1.3,0.656 -3.46,0.703 h -0.34 v 1.797 h 12.94 v -1.797 h -0.35 c -3.34,-0.109 -3.79,-0.359 -3.79,-2.156 v -32.906 m 28.39,20.765 c 0,-3.156 -0.55,-4.75 -2,-5.953 -1.64,-1.359 -4.1,-2 -7.3,-2 -5.64,0 -9.75,2.641 -9.75,6.297 0,1.844 1.16,3.047 2.91,3.047 1.59,0 2.7,-1.047 2.7,-2.547 0,-0.656 -0.25,-1.344 -0.75,-2.047 -0.31,-0.359 -0.36,-0.453 -0.36,-0.703 0,-1 2,-1.906 4.41,-1.906 1.59,0 3.34,0.5 4.14,1.25 0.95,0.812 1.31,2 1.31,4.25 v 1.953 c -5.2,0.906 -6.86,1.297 -9.31,2.25 -4.35,1.609 -6.39,3.906 -6.39,7.109 0,3.594 2.79,5.844 7.25,5.844 3.45,0 6.54,-1.406 8.7,-3.953 0.8,2.547 2.05,3.547 4.39,3.547 2.25,0 4.61,-1.438 4.61,-2.891 0,-0.359 -0.2,-0.609 -0.5,-0.609 -0.2,0 -0.41,0.062 -0.75,0.203 -0.7,0.297 -1,0.359 -1.41,0.359 -1.4,0 -1.9,-0.906 -1.9,-3.453 v -10.047 m -4.69,6.094 c 0,3 -0.16,3.703 -1,5 -1.25,1.844 -3.5,3.094 -5.7,3.094 -2.3,0 -3.96,-1.641 -3.96,-3.891 0,-2.109 1.05,-3.609 3.25,-4.656 1.55,-0.703 3.5,-1.203 7.41,-1.844 v 2.297"
       id="path90" />
    <path
       class="Lyrics"
       d="m 1425.83,561.13 v -2.859 c 0,-2.5 0.16,-4.141 0.55,-5.141 0.81,-2.203 2.56,-3.562 4.56,-3.562 1.05,0 1.69,0.312 1.69,0.859 0,0.203 0,0.25 -0.3,0.641 -0.29,0.453 -0.45,1.062 -0.45,1.609 0,1.5 1.2,2.641 2.75,2.641 1.66,0 2.81,-1.25 2.81,-3.047 0,-2.891 -2.5,-4.703 -6.56,-4.703 -3.44,0 -6,1.203 -7.75,3.703 -1.5,2.109 -2,4.25 -2,8.312 v 1.547 h -4.39 v 2.141 h 4.39 v 17.359 c -0.05,0.703 -0.09,1 -0.3,1.297 -0.34,0.453 -1.29,0.656 -3.45,0.703 h -0.19 v 1.797 h 13.35 v -1.797 h -0.91 c -3.34,-0.109 -3.8,-0.359 -3.8,-2.156 v -17.203 h 5.5 v -2.141 h -5.5 m 28.55,7.203 c 0,-3.156 -0.55,-4.75 -2,-5.953 -1.64,-1.359 -4.09,-2 -7.3,-2 -5.64,0 -9.75,2.641 -9.75,6.297 0,1.844 1.16,3.047 2.91,3.047 1.59,0 2.7,-1.047 2.7,-2.547 0,-0.656 -0.25,-1.344 -0.75,-2.047 -0.31,-0.359 -0.36,-0.453 -0.36,-0.703 0,-1 2,-1.906 4.41,-1.906 1.59,0 3.34,0.5 4.14,1.25 0.95,0.812 1.31,2 1.31,4.25 v 1.953 c -5.2,0.906 -6.86,1.297 -9.31,2.25 -4.34,1.609 -6.39,3.906 -6.39,7.109 0,3.594 2.8,5.844 7.25,5.844 3.45,0 6.55,-1.406 8.7,-3.953 0.8,2.547 2.05,3.547 4.39,3.547 2.25,0 4.61,-1.438 4.61,-2.891 0,-0.359 -0.2,-0.609 -0.5,-0.609 -0.2,0 -0.4,0.062 -0.75,0.203 -0.7,0.297 -1,0.359 -1.4,0.359 -1.41,0 -1.91,-0.906 -1.91,-3.453 v -10.047 m -4.69,6.094 c 0,3 -0.15,3.703 -1,5 -1.25,1.844 -3.5,3.094 -5.7,3.094 -2.3,0 -3.95,-1.641 -3.95,-3.891 0,-2.109 1.04,-3.609 3.25,-4.656 1.54,-0.703 3.5,-1.203 7.4,-1.844 v 2.297"
       id="path91" />
    <path
       class="Lyrics"
       d="m 1488.23,561.13 v -2.859 c 0,-2.5 0.15,-4.141 0.54,-5.141 0.82,-2.203 2.57,-3.562 4.57,-3.562 1.04,0 1.68,0.312 1.68,0.859 0,0.203 0,0.25 -0.29,0.641 -0.3,0.453 -0.46,1.062 -0.46,1.609 0,1.5 1.21,2.641 2.75,2.641 1.66,0 2.82,-1.25 2.82,-3.047 0,-2.891 -2.5,-4.703 -6.57,-4.703 -3.43,0 -6,1.203 -7.75,3.703 -1.5,2.109 -2,4.25 -2,8.312 v 1.547 h -4.39 v 2.141 h 4.39 v 17.359 c -0.04,0.703 -0.09,1 -0.29,1.297 -0.35,0.453 -1.3,0.656 -3.46,0.703 h -0.18 v 1.797 h 13.34 v -1.797 h -0.91 c -3.34,-0.109 -3.79,-0.359 -3.79,-2.156 v -17.203 h 5.5 v -2.141 h -5.5 m 28.54,7.203 c 0,-3.156 -0.54,-4.75 -2,-5.953 -1.64,-1.359 -4.09,-2 -7.29,-2 -5.64,0 -9.75,2.641 -9.75,6.297 0,1.844 1.15,3.047 2.9,3.047 1.6,0 2.71,-1.047 2.71,-2.547 0,-0.656 -0.25,-1.344 -0.75,-2.047 -0.32,-0.359 -0.36,-0.453 -0.36,-0.703 0,-1 2,-1.906 4.4,-1.906 1.6,0 3.35,0.5 4.14,1.25 0.96,0.812 1.32,2 1.32,4.25 v 1.953 c -5.21,0.906 -6.86,1.297 -9.32,2.25 -4.34,1.609 -6.39,3.906 -6.39,7.109 0,3.594 2.8,5.844 7.25,5.844 3.46,0 6.55,-1.406 8.71,-3.953 0.79,2.547 2.04,3.547 4.39,3.547 2.25,0 4.61,-1.438 4.61,-2.891 0,-0.359 -0.21,-0.609 -0.5,-0.609 -0.21,0 -0.41,0.062 -0.75,0.203 -0.71,0.297 -1,0.359 -1.41,0.359 -1.41,0 -1.91,-0.906 -1.91,-3.453 v -10.047 m -4.68,6.094 c 0,3 -0.16,3.703 -1,5 -1.25,1.844 -3.5,3.094 -5.71,3.094 -2.29,0 -3.95,-1.641 -3.95,-3.891 0,-2.109 1.05,-3.609 3.25,-4.656 1.55,-0.703 3.5,-1.203 7.41,-1.844 v 2.297"
       id="path92" />
    <path
       class="Lyrics"
       d="m 2292.35,547.568 -9.25,0.562 v 2.141 h 2.45 c 1.85,0.047 2.1,0.359 2.1,2.5 v 27.859 c -0.05,0.75 -0.1,1.047 -0.3,1.297 -0.36,0.453 -1.3,0.656 -3.45,0.703 h -0.35 v 1.797 h 12.94 v -1.797 h -0.34 c -3.35,-0.109 -3.8,-0.359 -3.8,-2.156 v -32.906 m 28.39,20.765 c 0,-3.156 -0.55,-4.75 -2,-5.953 -1.64,-1.359 -4.09,-2 -7.3,-2 -5.64,0 -9.75,2.641 -9.75,6.297 0,1.844 1.16,3.047 2.91,3.047 1.59,0 2.7,-1.047 2.7,-2.547 0,-0.656 -0.25,-1.344 -0.75,-2.047 -0.31,-0.359 -0.36,-0.453 -0.36,-0.703 0,-1 2,-1.906 4.41,-1.906 1.59,0 3.34,0.5 4.14,1.25 0.95,0.812 1.31,2 1.31,4.25 v 1.953 c -5.2,0.906 -6.86,1.297 -9.31,2.25 -4.34,1.609 -6.39,3.906 -6.39,7.109 0,3.594 2.8,5.844 7.25,5.844 3.45,0 6.55,-1.406 8.7,-3.953 0.8,2.547 2.05,3.547 4.39,3.547 2.25,0 4.61,-1.438 4.61,-2.891 0,-0.359 -0.2,-0.609 -0.5,-0.609 -0.2,0 -0.4,0.062 -0.75,0.203 -0.7,0.297 -1,0.359 -1.4,0.359 -1.41,0 -1.91,-0.906 -1.91,-3.453 v -10.047 m -4.69,6.094 c 0,3 -0.15,3.703 -1,5 -1.25,1.844 -3.5,3.094 -5.7,3.094 -2.3,0 -3.95,-1.641 -3.95,-3.891 0,-2.109 1.04,-3.609 3.25,-4.656 1.54,-0.703 3.5,-1.203 7.4,-1.844 v 2.297"
       id="path93" />
    <path
       class="Lyrics"
       d="m 1550.62,561.13 v -2.859 c 0,-2.5 0.15,-4.141 0.54,-5.141 0.82,-2.203 2.57,-3.562 4.57,-3.562 1.04,0 1.68,0.312 1.68,0.859 0,0.203 0,0.25 -0.29,0.641 -0.3,0.453 -0.46,1.062 -0.46,1.609 0,1.5 1.21,2.641 2.75,2.641 1.66,0 2.82,-1.25 2.82,-3.047 0,-2.891 -2.5,-4.703 -6.57,-4.703 -3.43,0 -6,1.203 -7.75,3.703 -1.5,2.109 -2,4.25 -2,8.312 v 1.547 h -4.39 v 2.141 h 4.39 v 17.359 c -0.04,0.703 -0.09,1 -0.29,1.297 -0.35,0.453 -1.3,0.656 -3.46,0.703 h -0.18 v 1.797 h 13.34 v -1.797 h -0.91 c -3.34,-0.109 -3.79,-0.359 -3.79,-2.156 v -17.203 h 5.5 v -2.141 h -5.5 m 28.54,7.203 c 0,-3.156 -0.54,-4.75 -2,-5.953 -1.64,-1.359 -4.09,-2 -7.29,-2 -5.64,0 -9.75,2.641 -9.75,6.297 0,1.844 1.15,3.047 2.9,3.047 1.6,0 2.71,-1.047 2.71,-2.547 0,-0.656 -0.25,-1.344 -0.75,-2.047 -0.32,-0.359 -0.36,-0.453 -0.36,-0.703 0,-1 2,-1.906 4.4,-1.906 1.6,0 3.35,0.5 4.14,1.25 0.96,0.812 1.32,2 1.32,4.25 v 1.953 c -5.21,0.906 -6.86,1.297 -9.32,2.25 -4.34,1.609 -6.39,3.906 -6.39,7.109 0,3.594 2.8,5.844 7.25,5.844 3.46,0 6.55,-1.406 8.71,-3.953 0.79,2.547 2.04,3.547 4.39,3.547 2.25,0 4.61,-1.438 4.61,-2.891 0,-0.359 -0.21,-0.609 -0.5,-0.609 -0.21,0 -0.41,0.062 -0.75,0.203 -0.71,0.297 -1,0.359 -1.41,0.359 -1.41,0 -1.91,-0.906 -1.91,-3.453 v -10.047 m -4.68,6.094 c 0,3 -0.16,3.703 -1,5 -1.25,1.844 -3.5,3.094 -5.71,3.094 -2.29,0 -3.95,-1.641 -3.95,-3.891 0,-2.109 1.05,-3.609 3.25,-4.656 1.55,-0.703 3.5,-1.203 7.41,-1.844 v 2.297"
       id="path94" />
    <path
       class="Lyrics"
       d="m 1001.68,560.583 h -1.749 l -1.453,1.797 c -1.797,-1.406 -3.593,-2 -6.093,-2 -4.407,0 -7.297,2.844 -7.297,7.25 0,4.703 3.047,5.891 7.047,6.844 l 2.64,0.609 c 3.953,0.938 5.355,1.938 5.355,3.938 0,2.359 -2.042,4 -4.949,4 -4.25,0 -7.25,-2.688 -8.453,-7.688 h -2 v 9.438 h 1.75 l 1.75,-2.047 c 2.047,1.656 4.297,2.453 6.86,2.453 4.89,0 8.142,-3.047 8.142,-7.703 0,-2.203 -0.7,-3.891 -2.1,-5.047 -1.199,-1.047 -2.199,-1.453 -5.245,-2.094 l -2.5,-0.562 c -2.75,-0.594 -2.75,-0.594 -3.657,-1.094 -1.093,-0.5 -1.75,-1.547 -1.75,-2.656 0,-2.047 1.907,-3.438 4.657,-3.438 4.093,0 6.093,2.891 7.296,6.391 h 1.749 v -8.391 m 16.1,-0.203 c -6.15,0 -10.9,5.453 -10.9,12.453 0,6.844 4.8,12.344 10.8,12.344 6,0 10.8,-5.5 10.8,-12.406 0,-6.844 -4.8,-12.391 -10.7,-12.391 m 0,2.141 c 3.5,0 5.45,3.656 5.45,10.25 0,6.656 -1.95,10.25 -5.55,10.25 -3.59,0 -5.55,-3.594 -5.55,-10.188 0,-6.812 1.9,-10.312 5.65,-10.312 m 22.6,-14.953 -9.25,0.562 v 2.141 h 2.46 c 1.84,0.047 2.09,0.359 2.09,2.5 v 27.859 c -0.05,0.75 -0.09,1.047 -0.3,1.297 -0.35,0.453 -1.29,0.656 -3.45,0.703 h -0.34 v 1.797 h 12.94 v -1.797 h -0.35 c -3.34,-0.109 -3.8,-0.359 -3.8,-2.156 v -32.906"
       id="path95" />
    <path
       class="Lyrics"
       d="m 1684.86,584.771 8.71,-0.344 v -2.156 h -0.91 c -2.84,-0.141 -3.09,-0.438 -3.09,-3.641 v -31.062 l -9.8,0.562 v 2.141 h 2.94 c 1.9,0.047 2.15,0.359 2.15,2.5 v 11.312 c -1.84,-2.562 -4,-3.703 -6.9,-3.703 -5.64,0 -9.94,5.453 -9.94,12.641 0,7.109 4.14,12.156 9.94,12.156 3.15,0 5.31,-1.344 6.9,-4.344 v 3.938 m -5.9,-21.688 c 2.06,0 4,1.5 4.9,3.797 0.66,1.5 0.96,3.547 0.96,6 0,5.844 -2.3,9.594 -5.91,9.594 -3.55,0 -5.64,-3.297 -5.64,-8.844 0,-3 0.3,-5.25 0.94,-6.906 0.86,-2.25 2.7,-3.641 4.75,-3.641 m 28.5,-2.703 c -6.14,0 -10.89,5.453 -10.89,12.453 0,6.844 4.79,12.344 10.79,12.344 6,0 10.8,-5.5 10.8,-12.406 0,-6.844 -4.8,-12.391 -10.7,-12.391 m 0,2.141 c 3.5,0 5.45,3.656 5.45,10.25 0,6.656 -1.95,10.25 -5.55,10.25 -3.59,0 -5.54,-3.594 -5.54,-10.188 0,-6.812 1.89,-10.312 5.64,-10.312"
       id="path96" />
    <path
       class="Lyrics"
       d="m 2354.74,547.568 -9.25,0.562 v 2.141 h 2.45 c 1.85,0.047 2.1,0.359 2.1,2.5 v 27.859 c -0.05,0.75 -0.1,1.047 -0.3,1.297 -0.36,0.453 -1.3,0.656 -3.45,0.703 h -0.35 v 1.797 h 12.94 v -1.797 h -0.34 c -3.35,-0.109 -3.8,-0.359 -3.8,-2.156 v -32.906 m 28.39,20.765 c 0,-3.156 -0.55,-4.75 -2,-5.953 -1.64,-1.359 -4.09,-2 -7.3,-2 -5.64,0 -9.75,2.641 -9.75,6.297 0,1.844 1.16,3.047 2.91,3.047 1.59,0 2.7,-1.047 2.7,-2.547 0,-0.656 -0.25,-1.344 -0.75,-2.047 -0.31,-0.359 -0.36,-0.453 -0.36,-0.703 0,-1 2,-1.906 4.41,-1.906 1.59,0 3.34,0.5 4.14,1.25 0.95,0.812 1.31,2 1.31,4.25 v 1.953 c -5.2,0.906 -6.86,1.297 -9.31,2.25 -4.34,1.609 -6.39,3.906 -6.39,7.109 0,3.594 2.8,5.844 7.25,5.844 3.45,0 6.55,-1.406 8.7,-3.953 0.8,2.547 2.05,3.547 4.39,3.547 2.25,0 4.61,-1.438 4.61,-2.891 0,-0.359 -0.2,-0.609 -0.5,-0.609 -0.2,0 -0.4,0.062 -0.75,0.203 -0.7,0.297 -1,0.359 -1.4,0.359 -1.41,0 -1.91,-0.906 -1.91,-3.453 v -10.047 m -4.69,6.094 c 0,3 -0.15,3.703 -1,5 -1.25,1.844 -3.5,3.094 -5.7,3.094 -2.3,0 -3.95,-1.641 -3.95,-3.891 0,-2.109 1.04,-3.609 3.25,-4.656 1.54,-0.703 3.5,-1.203 7.4,-1.844 v 2.297"
       id="path97" />
    <path
       class="Lyrics"
       d="m 1743.96,547.568 -9.25,0.562 v 2.141 h 2.45 c 1.85,0.047 2.1,0.359 2.1,2.5 v 27.859 c -0.05,0.75 -0.1,1.047 -0.3,1.297 -0.36,0.453 -1.3,0.656 -3.45,0.703 h -0.35 v 1.797 h 12.94 v -1.797 h -0.34 c -3.35,-0.109 -3.8,-0.359 -3.8,-2.156 v -32.906 m 28.39,20.765 c 0,-3.156 -0.55,-4.75 -2,-5.953 -1.64,-1.359 -4.09,-2 -7.3,-2 -5.64,0 -9.75,2.641 -9.75,6.297 0,1.844 1.16,3.047 2.91,3.047 1.59,0 2.7,-1.047 2.7,-2.547 0,-0.656 -0.25,-1.344 -0.75,-2.047 -0.31,-0.359 -0.36,-0.453 -0.36,-0.703 0,-1 2,-1.906 4.41,-1.906 1.59,0 3.34,0.5 4.14,1.25 0.95,0.812 1.31,2 1.31,4.25 v 1.953 c -5.2,0.906 -6.86,1.297 -9.31,2.25 -4.34,1.609 -6.39,3.906 -6.39,7.109 0,3.594 2.8,5.844 7.25,5.844 3.45,0 6.55,-1.406 8.7,-3.953 0.8,2.547 2.05,3.547 4.39,3.547 2.25,0 4.61,-1.438 4.61,-2.891 0,-0.359 -0.2,-0.609 -0.5,-0.609 -0.2,0 -0.4,0.062 -0.75,0.203 -0.7,0.297 -1,0.359 -1.4,0.359 -1.41,0 -1.91,-0.906 -1.91,-3.453 v -10.047 m -4.69,6.094 c 0,3 -0.15,3.703 -1,5 -1.25,1.844 -3.5,3.094 -5.7,3.094 -2.3,0 -3.95,-1.641 -3.95,-3.891 0,-2.109 1.04,-3.609 3.25,-4.656 1.54,-0.703 3.5,-1.203 7.4,-1.844 v 2.297"
       id="path98" />
    <path
       class="Lyrics"
       d="m 1809.65,584.771 8.7,-0.344 v -2.156 h -0.91 c -2.84,-0.141 -3.09,-0.438 -3.09,-3.641 v -31.062 l -9.8,0.562 v 2.141 h 2.94 c 1.91,0.047 2.16,0.359 2.16,2.5 v 11.312 c -1.85,-2.562 -4,-3.703 -6.91,-3.703 -5.64,0 -9.94,5.453 -9.94,12.641 0,7.109 4.14,12.156 9.94,12.156 3.16,0 5.31,-1.344 6.91,-4.344 v 3.938 m -5.91,-21.688 c 2.06,0 4,1.5 4.91,3.797 0.65,1.5 0.95,3.547 0.95,6 0,5.844 -2.3,9.594 -5.91,9.594 -3.54,0 -5.64,-3.297 -5.64,-8.844 0,-3 0.3,-5.25 0.94,-6.906 0.86,-2.25 2.7,-3.641 4.75,-3.641 m 28.5,-2.703 c -6.14,0 -10.89,5.453 -10.89,12.453 0,6.844 4.8,12.344 10.8,12.344 6,0 10.79,-5.5 10.79,-12.406 0,-6.844 -4.79,-12.391 -10.7,-12.391 m 0,2.141 c 3.5,0 5.45,3.656 5.45,10.25 0,6.656 -1.95,10.25 -5.54,10.25 -3.6,0 -5.55,-3.594 -5.55,-10.188 0,-6.812 1.89,-10.312 5.64,-10.312"
       id="path99" />
    <path
       class="Lyrics"
       d="m 2415.93,560.583 h -1.75 l -1.45,1.797 c -1.8,-1.406 -3.6,-2 -6.1,-2 -4.4,0 -7.29,2.844 -7.29,7.25 0,4.703 3.04,5.891 7.04,6.844 l 2.64,0.609 c 3.96,0.938 5.36,1.938 5.36,3.938 0,2.359 -2.04,4 -4.95,4 -4.25,0 -7.25,-2.688 -8.45,-7.688 h -2 v 9.438 h 1.75 l 1.75,-2.047 c 2.04,1.656 4.29,2.453 6.86,2.453 4.89,0 8.14,-3.047 8.14,-7.703 0,-2.203 -0.71,-3.891 -2.1,-5.047 -1.2,-1.047 -2.2,-1.453 -5.25,-2.094 l -2.5,-0.562 c -2.75,-0.594 -2.75,-0.594 -3.65,-1.094 -1.1,-0.5 -1.75,-1.547 -1.75,-2.656 0,-2.047 1.9,-3.438 4.65,-3.438 4.1,0 6.1,2.891 7.3,6.391 h 1.75 v -8.391 m 16.09,-0.203 c -6.14,0 -10.89,5.453 -10.89,12.453 0,6.844 4.8,12.344 10.8,12.344 6,0 10.8,-5.5 10.8,-12.406 0,-6.844 -4.8,-12.391 -10.71,-12.391 m 0,2.141 c 3.5,0 5.46,3.656 5.46,10.25 0,6.656 -1.96,10.25 -5.55,10.25 -3.59,0 -5.55,-3.594 -5.55,-10.188 0,-6.812 1.89,-10.312 5.64,-10.312 m 22.61,-14.953 -9.25,0.562 v 2.141 h 2.46 c 1.84,0.047 2.09,0.359 2.09,2.5 v 27.859 c -0.05,0.75 -0.09,1.047 -0.3,1.297 -0.36,0.453 -1.29,0.656 -3.45,0.703 h -0.34 v 1.797 h 12.93 v -1.797 h -0.34 c -3.34,-0.109 -3.8,-0.359 -3.8,-2.156 v -32.906"
       id="path100" />
    <path
       class="Lyrics"
       d="m 1868.74,547.568 -9.25,0.562 v 2.141 h 2.46 c 1.84,0.047 2.09,0.359 2.09,2.5 v 27.859 c -0.05,0.75 -0.09,1.047 -0.3,1.297 -0.36,0.453 -1.29,0.656 -3.45,0.703 h -0.34 v 1.797 h 12.93 v -1.797 h -0.34 c -3.34,-0.109 -3.8,-0.359 -3.8,-2.156 v -32.906 m 28.39,20.765 c 0,-3.156 -0.54,-4.75 -2,-5.953 -1.64,-1.359 -4.09,-2 -7.29,-2 -5.64,0 -9.75,2.641 -9.75,6.297 0,1.844 1.15,3.047 2.9,3.047 1.6,0 2.71,-1.047 2.71,-2.547 0,-0.656 -0.25,-1.344 -0.75,-2.047 -0.32,-0.359 -0.36,-0.453 -0.36,-0.703 0,-1 2,-1.906 4.4,-1.906 1.6,0 3.35,0.5 4.14,1.25 0.96,0.812 1.32,2 1.32,4.25 v 1.953 c -5.21,0.906 -6.86,1.297 -9.32,2.25 -4.34,1.609 -6.39,3.906 -6.39,7.109 0,3.594 2.8,5.844 7.25,5.844 3.46,0 6.55,-1.406 8.71,-3.953 0.79,2.547 2.04,3.547 4.39,3.547 2.25,0 4.61,-1.438 4.61,-2.891 0,-0.359 -0.21,-0.609 -0.5,-0.609 -0.21,0 -0.41,0.062 -0.75,0.203 -0.71,0.297 -1,0.359 -1.41,0.359 -1.41,0 -1.91,-0.906 -1.91,-3.453 v -10.047 m -4.68,6.094 c 0,3 -0.16,3.703 -1,5 -1.25,1.844 -3.5,3.094 -5.71,3.094 -2.29,0 -3.95,-1.641 -3.95,-3.891 0,-2.109 1.05,-3.609 3.25,-4.656 1.55,-0.703 3.5,-1.203 7.41,-1.844 v 2.297"
       id="path101" />
    <path
       class="Lyrics"
       d="m 584.787,547.568 -9.25,0.562 v 2.141 h 2.453 c 1.844,0.047 2.094,0.359 2.094,2.5 v 27.859 c -0.047,0.75 -0.094,1.047 -0.297,1.297 -0.359,0.453 -1.297,0.656 -3.453,0.703 h -0.344 v 1.797 h 12.938 v -1.797 h -0.344 c -3.344,-0.109 -3.797,-0.359 -3.797,-2.156 v -32.906 m 28.391,20.765 c 0,-3.156 -0.547,-4.75 -2,-5.953 -1.641,-1.359 -4.094,-2 -7.297,-2 -5.641,0 -9.75,2.641 -9.75,6.297 0,1.844 1.156,3.047 2.906,3.047 1.594,0 2.703,-1.047 2.703,-2.547 0,-0.656 -0.25,-1.344 -0.75,-2.047 -0.312,-0.359 -0.359,-0.453 -0.359,-0.703 0,-1 2,-1.906 4.406,-1.906 1.594,0 3.344,0.5 4.141,1.25 0.953,0.812 1.312,2 1.312,4.25 v 1.953 c -5.203,0.906 -6.859,1.297 -9.312,2.25 -4.344,1.609 -6.391,3.906 -6.391,7.109 0,3.594 2.797,5.844 7.25,5.844 3.453,0 6.547,-1.406 8.703,-3.953 0.797,2.547 2.047,3.547 4.391,3.547 2.25,0 4.609,-1.438 4.609,-2.891 0,-0.359 -0.203,-0.609 -0.5,-0.609 -0.203,0 -0.406,0.062 -0.75,0.203 -0.703,0.297 -1,0.359 -1.406,0.359 -1.406,0 -1.906,-0.906 -1.906,-3.453 v -10.047 m -4.688,6.094 c 0,3 -0.156,3.703 -1,5 -1.25,1.844 -3.5,3.094 -5.703,3.094 -2.297,0 -3.953,-1.641 -3.953,-3.891 0,-2.109 1.047,-3.609 3.25,-4.656 1.547,-0.703 3.5,-1.203 7.406,-1.844 v 2.297"
       id="path102" />
    <path
       class="Lyrics"
       d="m 1974.22,561.13 v -2.859 c 0,-2.5 0.16,-4.141 0.55,-5.141 0.81,-2.203 2.56,-3.562 4.56,-3.562 1.05,0 1.69,0.312 1.69,0.859 0,0.203 0,0.25 -0.3,0.641 -0.29,0.453 -0.45,1.062 -0.45,1.609 0,1.5 1.2,2.641 2.75,2.641 1.66,0 2.81,-1.25 2.81,-3.047 0,-2.891 -2.5,-4.703 -6.56,-4.703 -3.44,0 -6,1.203 -7.75,3.703 -1.5,2.109 -2,4.25 -2,8.312 v 1.547 h -4.39 v 2.141 h 4.39 v 17.359 c -0.05,0.703 -0.09,1 -0.3,1.297 -0.34,0.453 -1.29,0.656 -3.45,0.703 h -0.19 v 1.797 h 13.35 v -1.797 h -0.91 c -3.34,-0.109 -3.8,-0.359 -3.8,-2.156 v -17.203 h 5.5 v -2.141 h -5.5 m 28.55,7.203 c 0,-3.156 -0.55,-4.75 -2,-5.953 -1.64,-1.359 -4.09,-2 -7.3,-2 -5.64,0 -9.75,2.641 -9.75,6.297 0,1.844 1.16,3.047 2.91,3.047 1.59,0 2.7,-1.047 2.7,-2.547 0,-0.656 -0.25,-1.344 -0.75,-2.047 -0.31,-0.359 -0.36,-0.453 -0.36,-0.703 0,-1 2,-1.906 4.41,-1.906 1.59,0 3.34,0.5 4.14,1.25 0.95,0.812 1.31,2 1.31,4.25 v 1.953 c -5.2,0.906 -6.86,1.297 -9.31,2.25 -4.34,1.609 -6.39,3.906 -6.39,7.109 0,3.594 2.8,5.844 7.25,5.844 3.45,0 6.55,-1.406 8.7,-3.953 0.8,2.547 2.05,3.547 4.39,3.547 2.25,0 4.61,-1.438 4.61,-2.891 0,-0.359 -0.2,-0.609 -0.5,-0.609 -0.2,0 -0.4,0.062 -0.75,0.203 -0.7,0.297 -1,0.359 -1.4,0.359 -1.41,0 -1.91,-0.906 -1.91,-3.453 v -10.047 m -4.69,6.094 c 0,3 -0.15,3.703 -1,5 -1.25,1.844 -3.5,3.094 -5.7,3.094 -2.3,0 -3.95,-1.641 -3.95,-3.891 0,-2.109 1.04,-3.609 3.25,-4.656 1.54,-0.703 3.5,-1.203 7.4,-1.844 v 2.297"
       id="path103" />
    <path
       class="Lyrics"
       d="m 647.18,547.568 -9.25,0.562 v 2.141 h 2.453 c 1.843,0.047 2.093,0.359 2.093,2.5 v 27.859 c -0.046,0.75 -0.093,1.047 -0.296,1.297 -0.36,0.453 -1.297,0.656 -3.454,0.703 h -0.343 v 1.797 h 12.937 v -1.797 h -0.344 c -3.343,-0.109 -3.796,-0.359 -3.796,-2.156 v -32.906 m 28.39,20.765 c 0,-3.156 -0.547,-4.75 -2,-5.953 -1.64,-1.359 -4.094,-2 -7.297,-2 -5.64,0 -9.75,2.641 -9.75,6.297 0,1.844 1.157,3.047 2.907,3.047 1.593,0 2.703,-1.047 2.703,-2.547 0,-0.656 -0.25,-1.344 -0.75,-2.047 -0.313,-0.359 -0.36,-0.453 -0.36,-0.703 0,-1 2,-1.906 4.407,-1.906 1.593,0 3.343,0.5 4.14,1.25 0.953,0.812 1.313,2 1.313,4.25 v 1.953 c -5.203,0.906 -6.86,1.297 -9.313,2.25 -4.344,1.609 -6.39,3.906 -6.39,7.109 0,3.594 2.796,5.844 7.25,5.844 3.453,0 6.546,-1.406 8.703,-3.953 0.797,2.547 2.047,3.547 4.39,3.547 2.25,0 4.61,-1.438 4.61,-2.891 0,-0.359 -0.203,-0.609 -0.5,-0.609 -0.203,0 -0.407,0.062 -0.75,0.203 -0.703,0.297 -1,0.359 -1.407,0.359 -1.406,0 -1.906,-0.906 -1.906,-3.453 v -10.047 m -4.687,6.094 c 0,3 -0.157,3.703 -1,5 -1.25,1.844 -3.5,3.094 -5.703,3.094 -2.297,0 -3.954,-1.641 -3.954,-3.891 0,-2.109 1.047,-3.609 3.25,-4.656 1.547,-0.703 3.5,-1.203 7.407,-1.844 v 2.297"
       id="path104" />
    <path
       class="Lyrics"
       d="m 712.869,584.771 8.703,-0.344 v -2.156 h -0.907 c -2.843,-0.141 -3.093,-0.438 -3.093,-3.641 v -31.062 l -9.797,0.562 v 2.141 h 2.937 c 1.907,0.047 2.157,0.359 2.157,2.5 v 11.312 c -1.844,-2.562 -4,-3.703 -6.907,-3.703 -5.64,0 -9.937,5.453 -9.937,12.641 0,7.109 4.14,12.156 9.937,12.156 3.157,0 5.313,-1.344 6.907,-4.344 v 3.938 m -5.907,-21.688 c 2.063,0 4,1.5 4.907,3.797 0.656,1.5 0.953,3.547 0.953,6 0,5.844 -2.297,9.594 -5.907,9.594 -3.546,0 -5.64,-3.297 -5.64,-8.844 0,-3 0.297,-5.25 0.937,-6.906 0.86,-2.25 2.703,-3.641 4.75,-3.641 m 28.5,-2.703 c -6.14,0 -10.89,5.453 -10.89,12.453 0,6.844 4.797,12.344 10.797,12.344 6,0 10.796,-5.5 10.796,-12.406 0,-6.844 -4.796,-12.391 -10.703,-12.391 m 0,2.141 c 3.5,0 5.453,3.656 5.453,10.25 0,6.656 -1.953,10.25 -5.546,10.25 -3.594,0 -5.547,-3.594 -5.547,-10.188 0,-6.812 1.89,-10.312 5.64,-10.312"
       id="path105" />
    <path
       class="Lyrics"
       d="m 2522.61,561.13 v -2.859 c 0,-2.5 0.16,-4.141 0.55,-5.141 0.81,-2.203 2.56,-3.562 4.56,-3.562 1.05,0 1.69,0.312 1.69,0.859 0,0.203 0,0.25 -0.3,0.641 -0.29,0.453 -0.45,1.062 -0.45,1.609 0,1.5 1.2,2.641 2.75,2.641 1.66,0 2.81,-1.25 2.81,-3.047 0,-2.891 -2.5,-4.703 -6.56,-4.703 -3.44,0 -6,1.203 -7.75,3.703 -1.5,2.109 -2,4.25 -2,8.312 v 1.547 h -4.39 v 2.141 h 4.39 v 17.359 c -0.05,0.703 -0.09,1 -0.3,1.297 -0.34,0.453 -1.29,0.656 -3.45,0.703 h -0.19 v 1.797 h 13.35 v -1.797 h -0.91 c -3.34,-0.109 -3.8,-0.359 -3.8,-2.156 v -17.203 h 5.5 v -2.141 h -5.5 m 28.55,7.203 c 0,-3.156 -0.55,-4.75 -2,-5.953 -1.64,-1.359 -4.09,-2 -7.3,-2 -5.64,0 -9.75,2.641 -9.75,6.297 0,1.844 1.16,3.047 2.91,3.047 1.59,0 2.7,-1.047 2.7,-2.547 0,-0.656 -0.25,-1.344 -0.75,-2.047 -0.31,-0.359 -0.36,-0.453 -0.36,-0.703 0,-1 2,-1.906 4.41,-1.906 1.59,0 3.34,0.5 4.14,1.25 0.95,0.812 1.31,2 1.31,4.25 v 1.953 c -5.2,0.906 -6.86,1.297 -9.31,2.25 -4.34,1.609 -6.39,3.906 -6.39,7.109 0,3.594 2.8,5.844 7.25,5.844 3.45,0 6.55,-1.406 8.7,-3.953 0.8,2.547 2.05,3.547 4.39,3.547 2.25,0 4.61,-1.438 4.61,-2.891 0,-0.359 -0.2,-0.609 -0.5,-0.609 -0.2,0 -0.4,0.062 -0.75,0.203 -0.7,0.297 -1,0.359 -1.4,0.359 -1.41,0 -1.91,-0.906 -1.91,-3.453 v -10.047 m -4.69,6.094 c 0,3 -0.15,3.703 -1,5 -1.25,1.844 -3.5,3.094 -5.7,3.094 -2.3,0 -3.95,-1.641 -3.95,-3.891 0,-2.109 1.04,-3.609 3.25,-4.656 1.54,-0.703 3.5,-1.203 7.4,-1.844 v 2.297"
       id="path106" />
    <path
       class="Lyrics"
       d="m 2036.62,561.13 v -2.859 c 0,-2.5 0.15,-4.141 0.54,-5.141 0.81,-2.203 2.56,-3.562 4.56,-3.562 1.05,0 1.69,0.312 1.69,0.859 0,0.203 0,0.25 -0.29,0.641 -0.3,0.453 -0.46,1.062 -0.46,1.609 0,1.5 1.21,2.641 2.75,2.641 1.66,0 2.81,-1.25 2.81,-3.047 0,-2.891 -2.5,-4.703 -6.56,-4.703 -3.44,0 -6,1.203 -7.75,3.703 -1.5,2.109 -2,4.25 -2,8.312 v 1.547 h -4.39 v 2.141 h 4.39 v 17.359 c -0.04,0.703 -0.09,1 -0.29,1.297 -0.35,0.453 -1.3,0.656 -3.46,0.703 h -0.19 v 1.797 h 13.35 v -1.797 h -0.91 c -3.34,-0.109 -3.79,-0.359 -3.79,-2.156 v -17.203 h 5.5 v -2.141 h -5.5 m 28.54,7.203 c 0,-3.156 -0.54,-4.75 -2,-5.953 -1.64,-1.359 -4.09,-2 -7.29,-2 -5.65,0 -9.75,2.641 -9.75,6.297 0,1.844 1.15,3.047 2.9,3.047 1.6,0 2.7,-1.047 2.7,-2.547 0,-0.656 -0.25,-1.344 -0.75,-2.047 -0.31,-0.359 -0.35,-0.453 -0.35,-0.703 0,-1 2,-1.906 4.4,-1.906 1.6,0 3.35,0.5 4.14,1.25 0.96,0.812 1.31,2 1.31,4.25 v 1.953 c -5.2,0.906 -6.85,1.297 -9.31,2.25 -4.34,1.609 -6.39,3.906 -6.39,7.109 0,3.594 2.8,5.844 7.25,5.844 3.45,0 6.55,-1.406 8.7,-3.953 0.8,2.547 2.05,3.547 4.4,3.547 2.25,0 4.6,-1.438 4.6,-2.891 0,-0.359 -0.2,-0.609 -0.5,-0.609 -0.2,0 -0.4,0.062 -0.75,0.203 -0.7,0.297 -1,0.359 -1.4,0.359 -1.41,0 -1.91,-0.906 -1.91,-3.453 v -10.047 m -4.69,6.094 c 0,3 -0.15,3.703 -1,5 -1.25,1.844 -3.5,3.094 -5.7,3.094 -2.3,0 -3.95,-1.641 -3.95,-3.891 0,-2.109 1.05,-3.609 3.25,-4.656 1.55,-0.703 3.5,-1.203 7.4,-1.844 v 2.297"
       id="path107" />
    <path
       class="Lyrics"
       d="m 771.964,547.568 -9.25,0.562 v 2.141 h 2.453 c 1.844,0.047 2.094,0.359 2.094,2.5 v 27.859 c -0.047,0.75 -0.094,1.047 -0.297,1.297 -0.36,0.453 -1.297,0.656 -3.453,0.703 h -0.344 v 1.797 h 12.937 v -1.797 h -0.343 c -3.344,-0.109 -3.797,-0.359 -3.797,-2.156 v -32.906 m 28.39,20.765 c 0,-3.156 -0.546,-4.75 -2,-5.953 -1.64,-1.359 -4.093,-2 -7.296,-2 -5.641,0 -9.75,2.641 -9.75,6.297 0,1.844 1.156,3.047 2.906,3.047 1.594,0 2.703,-1.047 2.703,-2.547 0,-0.656 -0.25,-1.344 -0.75,-2.047 -0.313,-0.359 -0.359,-0.453 -0.359,-0.703 0,-1 2,-1.906 4.406,-1.906 1.594,0 3.344,0.5 4.14,1.25 0.954,0.812 1.313,2 1.313,4.25 v 1.953 c -5.203,0.906 -6.859,1.297 -9.313,2.25 -4.343,1.609 -6.39,3.906 -6.39,7.109 0,3.594 2.797,5.844 7.25,5.844 3.453,0 6.547,-1.406 8.703,-3.953 0.797,2.547 2.047,3.547 4.391,3.547 2.25,0 4.609,-1.438 4.609,-2.891 0,-0.359 -0.203,-0.609 -0.5,-0.609 -0.203,0 -0.406,0.062 -0.75,0.203 -0.703,0.297 -1,0.359 -1.406,0.359 -1.407,0 -1.907,-0.906 -1.907,-3.453 v -10.047 m -4.687,6.094 c 0,3 -0.156,3.703 -1,5 -1.25,1.844 -3.5,3.094 -5.703,3.094 -2.297,0 -3.953,-1.641 -3.953,-3.891 0,-2.109 1.047,-3.609 3.25,-4.656 1.547,-0.703 3.5,-1.203 7.406,-1.844 v 2.297"
       id="path108" />
    <path
       class="Lyrics"
       d="m 2585,561.13 v -2.859 c 0,-2.5 0.16,-4.141 0.55,-5.141 0.81,-2.203 2.56,-3.562 4.56,-3.562 1.05,0 1.69,0.312 1.69,0.859 0,0.203 0,0.25 -0.3,0.641 -0.29,0.453 -0.45,1.062 -0.45,1.609 0,1.5 1.2,2.641 2.75,2.641 1.66,0 2.81,-1.25 2.81,-3.047 0,-2.891 -2.5,-4.703 -6.56,-4.703 -3.44,0 -6,1.203 -7.75,3.703 -1.5,2.109 -2,4.25 -2,8.312 v 1.547 h -4.39 v 2.141 h 4.39 v 17.359 c -0.05,0.703 -0.09,1 -0.3,1.297 -0.34,0.453 -1.29,0.656 -3.45,0.703 h -0.19 v 1.797 h 13.35 v -1.797 h -0.91 c -3.34,-0.109 -3.8,-0.359 -3.8,-2.156 v -17.203 h 5.5 v -2.141 h -5.5 m 28.55,7.203 c 0,-3.156 -0.55,-4.75 -2,-5.953 -1.64,-1.359 -4.09,-2 -7.3,-2 -5.64,0 -9.75,2.641 -9.75,6.297 0,1.844 1.16,3.047 2.91,3.047 1.59,0 2.7,-1.047 2.7,-2.547 0,-0.656 -0.25,-1.344 -0.75,-2.047 -0.31,-0.359 -0.36,-0.453 -0.36,-0.703 0,-1 2,-1.906 4.41,-1.906 1.59,0 3.34,0.5 4.14,1.25 0.95,0.812 1.31,2 1.31,4.25 v 1.953 c -5.2,0.906 -6.86,1.297 -9.31,2.25 -4.34,1.609 -6.39,3.906 -6.39,7.109 0,3.594 2.8,5.844 7.25,5.844 3.45,0 6.55,-1.406 8.7,-3.953 0.8,2.547 2.05,3.547 4.39,3.547 2.25,0 4.61,-1.438 4.61,-2.891 0,-0.359 -0.2,-0.609 -0.5,-0.609 -0.2,0 -0.4,0.062 -0.75,0.203 -0.7,0.297 -1,0.359 -1.4,0.359 -1.41,0 -1.91,-0.906 -1.91,-3.453 v -10.047 m -4.69,6.094 c 0,3 -0.15,3.703 -1,5 -1.25,1.844 -3.5,3.094 -5.7,3.094 -2.3,0 -3.95,-1.641 -3.95,-3.891 0,-2.109 1.04,-3.609 3.25,-4.656 1.54,-0.703 3.5,-1.203 7.4,-1.844 v 2.297"
       id="path109" />
    <path
       class="Lyrics"
       d="m 877.444,561.13 v -2.859 c 0,-2.5 0.156,-4.141 0.547,-5.141 0.812,-2.203 2.562,-3.562 4.562,-3.562 1.047,0 1.688,0.312 1.688,0.859 0,0.203 0,0.25 -0.297,0.641 -0.297,0.453 -0.453,1.062 -0.453,1.609 0,1.5 1.203,2.641 2.75,2.641 1.656,0 2.812,-1.25 2.812,-3.047 0,-2.891 -2.5,-4.703 -6.562,-4.703 -3.438,0 -6,1.203 -7.75,3.703 -1.5,2.109 -2,4.25 -2,8.312 v 1.547 h -4.391 v 2.141 h 4.391 v 17.359 c -0.047,0.703 -0.094,1 -0.297,1.297 -0.344,0.453 -1.297,0.656 -3.453,0.703 h -0.188 v 1.797 h 13.344 v -1.797 h -0.906 c -3.344,-0.109 -3.797,-0.359 -3.797,-2.156 v -17.203 h 5.5 v -2.141 h -5.5 m 28.547,7.203 c 0,-3.156 -0.547,-4.75 -2,-5.953 -1.641,-1.359 -4.094,-2 -7.297,-2 -5.641,0 -9.75,2.641 -9.75,6.297 0,1.844 1.156,3.047 2.906,3.047 1.594,0 2.703,-1.047 2.703,-2.547 0,-0.656 -0.25,-1.344 -0.75,-2.047 -0.312,-0.359 -0.359,-0.453 -0.359,-0.703 0,-1 2,-1.906 4.406,-1.906 1.594,0 3.344,0.5 4.141,1.25 0.953,0.812 1.312,2 1.312,4.25 v 1.953 c -5.203,0.906 -6.859,1.297 -9.312,2.25 -4.344,1.609 -6.391,3.906 -6.391,7.109 0,3.594 2.797,5.844 7.25,5.844 3.453,0 6.547,-1.406 8.703,-3.953 0.797,2.547 2.047,3.547 4.391,3.547 2.25,0 4.609,-1.438 4.609,-2.891 0,-0.359 -0.203,-0.609 -0.5,-0.609 -0.203,0 -0.406,0.062 -0.75,0.203 -0.703,0.297 -1,0.359 -1.406,0.359 -1.406,0 -1.906,-0.906 -1.906,-3.453 v -10.047 m -4.688,6.094 c 0,3 -0.156,3.703 -1,5 -1.25,1.844 -3.5,3.094 -5.703,3.094 -2.297,0 -3.953,-1.641 -3.953,-3.891 0,-2.109 1.047,-3.609 3.25,-4.656 1.547,-0.703 3.5,-1.203 7.406,-1.844 v 2.297"
       id="path110" />
    <path
       class="Lyrics"
       d="m 2098.46,560.583 h -1.75 l -1.45,1.797 c -1.8,-1.406 -3.6,-2 -6.1,-2 -4.4,0 -7.29,2.844 -7.29,7.25 0,4.703 3.04,5.891 7.04,6.844 l 2.64,0.609 c 3.96,0.938 5.36,1.938 5.36,3.938 0,2.359 -2.04,4 -4.95,4 -4.25,0 -7.25,-2.688 -8.45,-7.688 h -2 v 9.438 h 1.75 l 1.75,-2.047 c 2.04,1.656 4.29,2.453 6.86,2.453 4.89,0 8.14,-3.047 8.14,-7.703 0,-2.203 -0.71,-3.891 -2.1,-5.047 -1.2,-1.047 -2.2,-1.453 -5.25,-2.094 l -2.5,-0.562 c -2.75,-0.594 -2.75,-0.594 -3.65,-1.094 -1.1,-0.5 -1.75,-1.547 -1.75,-2.656 0,-2.047 1.9,-3.438 4.65,-3.438 4.1,0 6.1,2.891 7.3,6.391 h 1.75 v -8.391 m 16.09,-0.203 c -6.14,0 -10.89,5.453 -10.89,12.453 0,6.844 4.8,12.344 10.8,12.344 6,0 10.8,-5.5 10.8,-12.406 0,-6.844 -4.8,-12.391 -10.71,-12.391 m 0,2.141 c 3.5,0 5.46,3.656 5.46,10.25 0,6.656 -1.96,10.25 -5.55,10.25 -3.59,0 -5.55,-3.594 -5.55,-10.188 0,-6.812 1.89,-10.312 5.64,-10.312 m 22.61,-14.953 -9.25,0.562 v 2.141 h 2.46 c 1.84,0.047 2.09,0.359 2.09,2.5 v 27.859 c -0.05,0.75 -0.09,1.047 -0.3,1.297 -0.36,0.453 -1.29,0.656 -3.45,0.703 h -0.34 v 1.797 h 12.93 v -1.797 h -0.34 c -3.34,-0.109 -3.8,-0.359 -3.8,-2.156 v -32.906"
       id="path111" />
    <path
       class="Lyrics"
       d="m 939.836,561.13 v -2.859 c 0,-2.5 0.156,-4.141 0.547,-5.141 0.813,-2.203 2.563,-3.562 4.563,-3.562 1.046,0 1.687,0.312 1.687,0.859 0,0.203 0,0.25 -0.297,0.641 -0.297,0.453 -0.453,1.062 -0.453,1.609 0,1.5 1.203,2.641 2.75,2.641 1.656,0 2.813,-1.25 2.813,-3.047 0,-2.891 -2.5,-4.703 -6.563,-4.703 -3.437,0 -6,1.203 -7.75,3.703 -1.5,2.109 -2,4.25 -2,8.312 v 1.547 h -4.391 v 2.141 h 4.391 v 17.359 c -0.047,0.703 -0.094,1 -0.297,1.297 -0.344,0.453 -1.297,0.656 -3.453,0.703 h -0.187 v 1.797 h 13.343 v -1.797 h -0.906 c -3.344,-0.109 -3.797,-0.359 -3.797,-2.156 v -17.203 h 5.5 v -2.141 h -5.5 m 28.547,7.203 c 0,-3.156 -0.547,-4.75 -2,-5.953 -1.641,-1.359 -4.094,-2 -7.297,-2 -5.64,0 -9.75,2.641 -9.75,6.297 0,1.844 1.156,3.047 2.906,3.047 1.594,0 2.704,-1.047 2.704,-2.547 0,-0.656 -0.25,-1.344 -0.75,-2.047 -0.313,-0.359 -0.36,-0.453 -0.36,-0.703 0,-1 2,-1.906 4.406,-1.906 1.594,0 3.344,0.5 4.141,1.25 0.953,0.812 1.313,2 1.313,4.25 v 1.953 c -5.204,0.906 -6.86,1.297 -9.313,2.25 -4.344,1.609 -6.391,3.906 -6.391,7.109 0,3.594 2.797,5.844 7.25,5.844 3.454,0 6.547,-1.406 8.704,-3.953 0.796,2.547 2.046,3.547 4.39,3.547 2.25,0 4.61,-1.438 4.61,-2.891 0,-0.359 -0.204,-0.609 -0.5,-0.609 -0.204,0 -0.407,0.062 -0.75,0.203 -0.704,0.297 -1,0.359 -1.407,0.359 -1.406,0 -1.906,-0.906 -1.906,-3.453 v -10.047 m -4.687,6.094 c 0,3 -0.157,3.703 -1,5 -1.25,1.844 -3.5,3.094 -5.704,3.094 -2.296,0 -3.953,-1.641 -3.953,-3.891 0,-2.109 1.047,-3.609 3.25,-4.656 1.547,-0.703 3.5,-1.203 7.407,-1.844 v 2.297"
       id="path112" />
    <path
       class="Lyrics"
       d="m 2647.4,561.13 v -2.859 c 0,-2.5 0.15,-4.141 0.54,-5.141 0.82,-2.203 2.57,-3.562 4.57,-3.562 1.04,0 1.68,0.312 1.68,0.859 0,0.203 0,0.25 -0.29,0.641 -0.3,0.453 -0.46,1.062 -0.46,1.609 0,1.5 1.21,2.641 2.75,2.641 1.66,0 2.82,-1.25 2.82,-3.047 0,-2.891 -2.5,-4.703 -6.57,-4.703 -3.43,0 -6,1.203 -7.75,3.703 -1.5,2.109 -2,4.25 -2,8.312 v 1.547 h -4.39 v 2.141 h 4.39 v 17.359 c -0.04,0.703 -0.09,1 -0.29,1.297 -0.35,0.453 -1.3,0.656 -3.46,0.703 h -0.18 v 1.797 h 13.34 v -1.797 h -0.91 c -3.34,-0.109 -3.79,-0.359 -3.79,-2.156 v -17.203 h 5.5 v -2.141 h -5.5 m 28.54,7.203 c 0,-3.156 -0.54,-4.75 -2,-5.953 -1.64,-1.359 -4.09,-2 -7.29,-2 -5.64,0 -9.75,2.641 -9.75,6.297 0,1.844 1.15,3.047 2.9,3.047 1.6,0 2.71,-1.047 2.71,-2.547 0,-0.656 -0.25,-1.344 -0.75,-2.047 -0.32,-0.359 -0.36,-0.453 -0.36,-0.703 0,-1 2,-1.906 4.4,-1.906 1.6,0 3.35,0.5 4.14,1.25 0.96,0.812 1.32,2 1.32,4.25 v 1.953 c -5.21,0.906 -6.86,1.297 -9.32,2.25 -4.34,1.609 -6.39,3.906 -6.39,7.109 0,3.594 2.8,5.844 7.25,5.844 3.46,0 6.55,-1.406 8.71,-3.953 0.79,2.547 2.04,3.547 4.39,3.547 2.25,0 4.61,-1.438 4.61,-2.891 0,-0.359 -0.21,-0.609 -0.5,-0.609 -0.21,0 -0.41,0.062 -0.75,0.203 -0.71,0.297 -1,0.359 -1.41,0.359 -1.41,0 -1.91,-0.906 -1.91,-3.453 v -10.047 m -4.68,6.094 c 0,3 -0.16,3.703 -1,5 -1.25,1.844 -3.5,3.094 -5.71,3.094 -2.29,0 -3.95,-1.641 -3.95,-3.891 0,-2.109 1.05,-3.609 3.25,-4.656 1.55,-0.703 3.5,-1.203 7.41,-1.844 v 2.297"
       id="path113" />
    <path
       class="Tempo"
       d="m 518.007,250.17 h -3.265 v 42.266 c -1.094,-0.687 -2.485,-1.094 -4.063,-1.281 -3.562,0 -6.437,0.39 -9.609,2.172 -3.953,2.078 -8.313,6.437 -8.313,11.281 0,4.75 4.266,7.031 8.61,7.031 6.937,0 16.64,-5.937 16.64,-13.469 v -48"
       id="path114" />
    <path
       class="Tempo"
       d="m 539.742,288.124 h 30.234 v -6.907 h -30.234 v 6.907 m 0,12.359 h 30.234 v -6.906 h -30.234 v 6.906 m 72.078,-14.219 c 0,5.688 -0.235,17.453 -8.282,17.453 -1.265,0 -1.984,-0.422 -1.984,-1.203 0,-0.359 0.125,-0.719 0.359,-1.078 1.079,-1.734 1.204,-2.094 1.204,-3.422 0,-2.875 -2.032,-4.859 -5.032,-4.859 -3.312,0 -5.703,2.531 -5.703,6 0,4.687 4.375,7.687 11.156,7.687 13.625,0 18.844,-12.125 18.844,-24 0,-5.515 -1.203,-9.609 -3.719,-13.015 -3.062,-4.094 -7.437,-6.313 -12.484,-6.313 -8.703,0 -15,6.063 -15,14.406 0,7.079 5.047,12.297 11.875,12.297 3.719,0 6.25,-1.14 8.766,-3.953 m -5.157,-19.625 c 4.375,0 4.922,7.375 4.922,10.438 0,5.281 -1.922,8.64 -4.984,8.64 -4.75,0 -5.047,-5.75 -5.047,-9.172 0,-6.546 1.75,-9.906 5.109,-9.906 m 34.235,-3.125 c -9,0 -15.594,9.188 -15.594,21.672 0,12.469 6.594,21.656 15.594,21.656 8.812,0 15.547,-9.187 15.547,-21.359 0,-7.078 -1.625,-12.297 -5.172,-16.75 -2.813,-3.406 -6.36,-5.219 -10.375,-5.219 m -0.063,3.125 c 1.797,0 3.25,1.078 3.907,3 0.781,1.985 1.25,8.281 1.25,15.719 0,6.187 -0.469,12.656 -1.016,14.703 -0.656,2.391 -2.094,3.656 -4.141,3.656 -1.859,0 -3.234,-1.015 -3.953,-3 -0.781,-1.984 -1.265,-8.343 -1.265,-15.531 0,-6.312 0.484,-12.844 1.015,-14.891 0.672,-2.39 2.11,-3.656 4.203,-3.656"
       id="path115" />
    <path
       class="StaffText"
       d="m 2245.54,324.602 h -2.11 l -11.5,29.14 c -1.34,3.907 -2.64,5.11 -5.5,5.313 h -0.2 v 2.344 h 13.25 v -2.344 h -1 c -2.69,0 -4.05,-0.953 -4.05,-2.86 0,-0.64 0.16,-1.25 0.46,-2.093 l 1.65,-4.407 h 13.25 l 2.71,6.704 c 0.29,0.796 0.39,1.093 0.39,1.343 0,0.813 -1.25,1.313 -3.1,1.313 h -2.11 v 2.344 h 15.5 v -2.344 h -0.68 c -2.61,-0.063 -3.07,-0.36 -4.21,-3.203 l -12.75,-31.25 m -2.45,8.187 5.64,14.203 h -11.19 l 5.55,-14.203"
       id="path116" />
    <path
       class="StaffText"
       d="m 1884.33,324.602 h -2.11 l -11.5,29.14 c -1.34,3.907 -2.64,5.11 -5.5,5.313 h -0.2 v 2.344 h 13.25 v -2.344 h -1 c -2.69,0 -4.05,-0.953 -4.05,-2.86 0,-0.64 0.16,-1.25 0.45,-2.093 l 1.66,-4.407 h 13.25 l 2.7,6.704 c 0.3,0.796 0.39,1.093 0.39,1.343 0,0.813 -1.25,1.313 -3.09,1.313 h -2.11 v 2.344 h 15.5 v -2.344 h -0.69 c -2.61,-0.063 -3.06,-0.36 -4.2,-3.203 l -12.75,-31.25 m -2.45,8.187 5.64,14.203 h -11.19 l 5.55,-14.203"
       id="path117" />
    <path
       class="StaffText"
       d="m 787.551,324.602 h -2.11 l -11.5,29.14 c -1.343,3.907 -2.64,5.11 -5.5,5.313 h -0.203 v 2.344 h 13.25 v -2.344 h -1 c -2.687,0 -4.047,-0.953 -4.047,-2.86 0,-0.64 0.157,-1.25 0.454,-2.093 l 1.656,-4.407 h 13.25 l 2.703,6.704 c 0.297,0.796 0.391,1.093 0.391,1.343 0,0.813 -1.25,1.313 -3.094,1.313 h -2.11 v 2.344 h 15.5 v -2.344 h -0.687 c -2.609,-0.063 -3.063,-0.36 -4.203,-3.203 l -12.75,-31.25 m -2.453,8.187 5.64,14.203 h -11.187 l 5.547,-14.203"
       id="path118" />
    <path
       class="StaffText"
       d="m 662.767,324.602 h -2.11 l -11.5,29.14 c -1.344,3.907 -2.64,5.11 -5.5,5.313 h -0.203 v 2.344 h 13.25 v -2.344 h -1 c -2.687,0 -4.047,-0.953 -4.047,-2.86 0,-0.64 0.156,-1.25 0.453,-2.093 l 1.657,-4.407 h 13.25 l 2.703,6.704 c 0.297,0.796 0.39,1.093 0.39,1.343 0,0.813 -1.25,1.313 -3.093,1.313 h -2.11 v 2.344 h 15.5 v -2.344 h -0.687 c -2.61,-0.063 -3.063,-0.36 -4.203,-3.203 l -12.75,-31.25 m -2.454,8.187 5.641,14.203 h -11.187 l 5.546,-14.203"
       id="path119" />
    <path
       class="StaffText"
       d="m 2307.94,324.602 h -2.11 l -11.5,29.14 c -1.35,3.907 -2.64,5.11 -5.5,5.313 h -0.21 v 2.344 h 13.25 v -2.344 h -1 c -2.68,0 -4.04,-0.953 -4.04,-2.86 0,-0.64 0.15,-1.25 0.45,-2.093 l 1.66,-4.407 h 13.25 l 2.7,6.704 c 0.3,0.796 0.39,1.093 0.39,1.343 0,0.813 -1.25,1.313 -3.09,1.313 h -2.11 v 2.344 h 15.5 v -2.344 h -0.69 c -2.61,-0.063 -3.06,-0.36 -4.2,-3.203 l -12.75,-31.25 m -2.46,8.187 5.64,14.203 h -11.18 l 5.54,-14.203"
       id="path120" />
    <path
       class="StaffText"
       d="m 600.374,324.602 h -2.109 l -11.5,29.14 c -1.344,3.907 -2.641,5.11 -5.5,5.313 h -0.203 v 2.344 h 13.25 v -2.344 h -1 c -2.688,0 -4.047,-0.953 -4.047,-2.86 0,-0.64 0.156,-1.25 0.453,-2.093 l 1.656,-4.407 h 13.25 l 2.703,6.704 c 0.297,0.796 0.391,1.093 0.391,1.343 0,0.813 -1.25,1.313 -3.094,1.313 h -2.109 v 2.344 h 15.5 v -2.344 h -0.688 c -2.609,-0.063 -3.062,-0.36 -4.203,-3.203 l -12.75,-31.25 m -2.453,8.187 5.641,14.203 h -11.188 l 5.547,-14.203"
       id="path121" />
    <path
       class="StaffText"
       d="m 1577.16,325.289 h -29.75 v 2.36 h 0.89 c 2.86,0.046 3.81,0.203 4.2,0.703 0.3,0.437 0.3,0.547 0.3,3.093 v 23.797 c 0,2.563 0,2.657 -0.3,3.11 -0.39,0.5 -1.34,0.703 -4.2,0.703 h -0.89 v 2.344 h 17.14 v -2.344 h -1.64 c -2.86,0 -3.8,-0.203 -4.21,-0.703 -0.29,-0.453 -0.29,-0.61 -0.29,-3.11 v -11.343 h 1 c 5.14,-0.204 7,1.656 7.2,7.203 h 2.34 v -16.407 h -2.34 c -0.31,4.907 -2.25,6.797 -7,6.86 h -1.2 v -11.406 c -0.05,-2.11 0.45,-2.454 3.14,-2.5 h 2.31 c 8.2,-0.047 10.25,1.796 11.8,10.406 h 2.2 l -0.7,-12.766"
       id="path122" />
    <path
       class="StaffText"
       d="m 1707.2,324.945 h -1.91 l -2,2.954 c -3.64,-2.657 -5.5,-3.36 -8.95,-3.36 -4.75,0 -8.8,2 -12.14,6 -3.2,3.813 -4.7,8.016 -4.7,13.156 0,10.797 7.04,18.454 16.9,18.454 8,0 13.1,-4.704 14.25,-13.094 l -2.36,-0.406 c -1.34,7.453 -5.14,11.156 -11.29,11.156 -7.41,0 -10.91,-5.11 -10.91,-15.906 0,-5.704 0.75,-9.454 2.45,-12.454 1.55,-2.796 4.61,-4.546 7.86,-4.546 3.5,0 6.6,1.843 8.5,5.046 0.96,1.657 1.64,3.5 2.85,7.454 h 2.2 l -0.75,-14.454"
       id="path123" />
    <path
       class="StaffText"
       d="m 2370.33,324.573 h -2.11 l -11.5,29.141 c -1.35,3.906 -2.64,5.109 -5.5,5.313 h -0.21 v 2.343 h 13.25 v -2.343 h -1 c -2.68,0 -4.04,-0.954 -4.04,-2.86 0,-0.64 0.15,-1.25 0.45,-2.094 l 1.66,-4.406 h 13.25 l 2.7,6.703 c 0.3,0.797 0.39,1.094 0.39,1.344 0,0.813 -1.25,1.313 -3.09,1.313 h -2.11 v 2.343 h 15.5 v -2.343 h -0.69 c -2.61,-0.063 -3.06,-0.36 -4.2,-3.204 l -12.75,-31.25 m -2.46,8.188 5.64,14.203 h -11.18 l 5.54,-14.203"
       id="path124" />
    <path
       class="StaffText"
       d="m 2000.76,325.289 h -29.75 v 2.36 h 0.89 c 2.86,0.046 3.82,0.203 4.21,0.703 0.29,0.437 0.29,0.547 0.29,3.093 v 23.797 c 0,2.563 0,2.657 -0.29,3.11 -0.39,0.5 -1.35,0.703 -4.21,0.703 h -0.89 v 2.344 h 17.14 v -2.344 h -1.64 c -2.86,0 -3.79,-0.203 -4.2,-0.703 -0.3,-0.453 -0.3,-0.61 -0.3,-3.11 v -11.343 h 1 c 5.14,-0.204 7,1.656 7.21,7.203 h 2.34 v -16.407 h -2.34 c -0.32,4.907 -2.25,6.797 -7,6.86 h -1.21 v -11.406 c -0.04,-2.11 0.46,-2.454 3.14,-2.5 h 2.32 c 8.2,-0.047 10.25,1.796 11.79,10.406 h 2.21 l -0.71,-12.766"
       id="path125" />
    <path
       class="StaffText"
       d="m 1273.55,324.573 h -2.11 l -11.5,29.141 c -1.34,3.906 -2.64,5.109 -5.5,5.313 h -0.2 v 2.343 h 13.25 v -2.343 h -1 c -2.69,0 -4.05,-0.954 -4.05,-2.86 0,-0.64 0.16,-1.25 0.45,-2.094 l 1.66,-4.406 h 13.25 l 2.7,6.703 c 0.3,0.797 0.39,1.094 0.39,1.344 0,0.813 -1.25,1.313 -3.09,1.313 h -2.11 v 2.343 h 15.5 v -2.343 h -0.69 c -2.61,-0.063 -3.06,-0.36 -4.2,-3.204 l -12.75,-31.25 m -2.45,8.188 5.64,14.203 h -11.19 l 5.55,-14.203"
       id="path126" />
    <path
       class="StaffText"
       d="m 1211.16,324.602 h -2.11 l -11.5,29.14 c -1.35,3.907 -2.64,5.11 -5.5,5.313 h -0.21 v 2.344 h 13.25 v -2.344 h -1 c -2.68,0 -4.04,-0.953 -4.04,-2.86 0,-0.64 0.15,-1.25 0.45,-2.093 l 1.66,-4.407 h 13.25 l 2.7,6.704 c 0.3,0.796 0.39,1.093 0.39,1.343 0,0.813 -1.25,1.313 -3.09,1.313 h -2.11 v 2.344 h 15.5 v -2.344 h -0.69 c -2.61,-0.063 -3.06,-0.36 -4.2,-3.203 l -12.75,-31.25 m -2.46,8.187 5.64,14.203 h -11.18 l 5.54,-14.203"
       id="path127" />
    <path
       class="StaffText"
       d="m 2443.31,324.945 h -1.89 l -1.95,3 c -3.25,-2.546 -5.45,-3.406 -9.11,-3.406 -3.95,0 -7.05,1.11 -10.2,3.656 -4.94,4 -7.25,9.047 -7.25,15.797 0,5.11 1.45,9.36 4.4,12.61 3.1,3.5 7.71,5.547 12.5,5.547 4.21,0 7.16,-1.297 10.41,-4.547 l 1.84,4.5 h 2.11 v -11 c 0,-2.547 0,-2.657 0.3,-3.11 0.45,-0.547 1.34,-0.687 4.2,-0.687 h 0.75 v -2.36 h -15.9 v 2.36 h 0.95 c 4.2,0 4.55,0.25 4.55,3.047 0,2.14 -0.35,4.093 -1,5.297 -1.25,2.453 -4.46,4.156 -7.71,4.156 -3.25,0 -6.45,-1.656 -8.15,-4.156 -1.85,-2.797 -2.64,-6.297 -2.64,-11.657 0,-11.14 3.7,-17.093 10.64,-17.093 5.7,0 9.65,4.093 11.7,12.093 h 2.16 l -0.71,-14.047"
       id="path128" />
    <path
       class="StaffText"
       d="m 1514.77,325.289 h -29.75 v 2.36 h 0.89 c 2.86,0.046 3.81,0.203 4.2,0.703 0.3,0.437 0.3,0.547 0.3,3.093 v 23.797 c 0,2.563 0,2.657 -0.3,3.11 -0.39,0.5 -1.34,0.703 -4.2,0.703 h -0.89 v 2.344 h 17.14 v -2.344 h -1.64 c -2.86,0 -3.8,-0.203 -4.21,-0.703 -0.29,-0.453 -0.29,-0.61 -0.29,-3.11 v -11.343 h 1 c 5.14,-0.204 7,1.656 7.2,7.203 h 2.34 v -16.407 h -2.34 c -0.31,4.907 -2.25,6.797 -7,6.86 h -1.2 v -11.406 c -0.05,-2.11 0.45,-2.454 3.14,-2.5 h 2.31 c 8.2,-0.047 10.25,1.796 11.8,10.406 h 2.2 l -0.7,-12.766"
       id="path129" />
    <path
       class="StaffText"
       d="m 2063.16,325.289 h -29.75 v 2.36 h 0.89 c 2.86,0.046 3.81,0.203 4.2,0.703 0.3,0.437 0.3,0.547 0.3,3.093 v 23.797 c 0,2.563 0,2.657 -0.3,3.11 -0.39,0.5 -1.34,0.703 -4.2,0.703 h -0.89 v 2.344 h 17.14 v -2.344 h -1.64 c -2.86,0 -3.8,-0.203 -4.21,-0.703 -0.29,-0.453 -0.29,-0.61 -0.29,-3.11 v -11.343 h 1 c 5.14,-0.204 7,1.656 7.2,7.203 h 2.34 v -16.407 h -2.34 c -0.31,4.907 -2.25,6.797 -7,6.86 h -1.2 v -11.406 c -0.05,-2.11 0.45,-2.454 3.14,-2.5 h 2.31 c 8.2,-0.047 10.25,1.796 11.8,10.406 h 2.2 l -0.7,-12.766"
       id="path130" />
    <path
       class="StaffText"
       d="m 1759.55,324.602 h -2.11 l -11.5,29.14 c -1.35,3.907 -2.64,5.11 -5.5,5.313 h -0.21 v 2.344 h 13.25 v -2.344 h -1 c -2.68,0 -4.04,-0.953 -4.04,-2.86 0,-0.64 0.15,-1.25 0.45,-2.093 l 1.66,-4.407 h 13.25 l 2.7,6.704 c 0.3,0.796 0.39,1.093 0.39,1.343 0,0.813 -1.25,1.313 -3.09,1.313 h -2.11 v 2.344 h 15.5 v -2.344 h -0.69 c -2.61,-0.063 -3.06,-0.36 -4.2,-3.203 l -12.75,-31.25 m -2.46,8.187 5.64,14.203 h -11.18 l 5.54,-14.203"
       id="path131" />
    <path
       class="StaffText"
       d="m 1148.76,324.602 h -2.11 l -11.5,29.14 c -1.34,3.907 -2.64,5.11 -5.5,5.313 h -0.2 v 2.344 h 13.25 v -2.344 h -1 c -2.69,0 -4.05,-0.953 -4.05,-2.86 0,-0.64 0.16,-1.25 0.46,-2.093 l 1.65,-4.407 h 13.25 l 2.71,6.704 c 0.29,0.796 0.39,1.093 0.39,1.343 0,0.813 -1.25,1.313 -3.1,1.313 h -2.11 v 2.344 h 15.5 v -2.344 h -0.68 c -2.61,-0.063 -3.07,-0.36 -4.21,-3.203 l -12.75,-31.25 m -2.45,8.187 5.64,14.203 h -11.19 l 5.55,-14.203"
       id="path132" />
    <path
       class="StaffText"
       d="m 1029.07,323.945 h -1.9 l -1.95,3 c -3.25,-2.546 -5.45,-3.406 -9.11,-3.406 -3.95,0 -7.04,1.11 -10.2,3.656 -4.94,4 -7.251,9.047 -7.251,15.797 0,5.11 1.451,9.36 4.411,12.61 3.09,3.5 7.7,5.547 12.5,5.547 4.2,0 7.15,-1.297 10.4,-4.547 l 1.85,4.5 h 2.1 v -11 c 0,-2.547 0,-2.657 0.3,-3.11 0.45,-0.547 1.35,-0.687 4.2,-0.687 h 0.75 v -2.36 h -15.9 v 2.36 h 0.95 c 4.2,0 4.55,0.25 4.55,3.047 0,2.14 -0.35,4.093 -1,5.297 -1.25,2.453 -4.45,4.156 -7.7,4.156 -3.25,0 -6.46,-1.656 -8.16,-4.156 -1.84,-2.797 -2.64,-6.297 -2.64,-11.657 0,-11.14 3.7,-17.093 10.64,-17.093 5.7,0 9.66,4.093 11.7,12.093 h 2.16 l -0.7,-14.047"
       id="path133" />
    <path
       class="StaffText"
       d="m 2125.84,323.945 h -1.89 l -1.95,3 c -3.25,-2.546 -5.45,-3.406 -9.11,-3.406 -3.95,0 -7.05,1.11 -10.2,3.656 -4.94,4 -7.25,9.047 -7.25,15.797 0,5.11 1.45,9.36 4.4,12.61 3.1,3.5 7.71,5.547 12.5,5.547 4.21,0 7.16,-1.297 10.41,-4.547 l 1.84,4.5 h 2.11 v -11 c 0,-2.547 0,-2.657 0.3,-3.11 0.45,-0.547 1.34,-0.687 4.2,-0.687 h 0.75 v -2.36 h -15.9 v 2.36 h 0.95 c 4.2,0 4.55,0.25 4.55,3.047 0,2.14 -0.35,4.093 -1,5.297 -1.25,2.453 -4.46,4.156 -7.71,4.156 -3.25,0 -6.45,-1.656 -8.15,-4.156 -1.85,-2.797 -2.64,-6.297 -2.64,-11.657 0,-11.14 3.7,-17.093 10.64,-17.093 5.7,0 9.65,4.093 11.7,12.093 h 2.16 l -0.71,-14.047"
       id="path134" />
    <path
       class="StaffText"
       d="m 2549.15,325.289 h -29.75 v 2.36 h 0.89 c 2.86,0.046 3.82,0.203 4.21,0.703 0.29,0.437 0.29,0.547 0.29,3.093 v 23.797 c 0,2.563 0,2.657 -0.29,3.11 -0.39,0.5 -1.35,0.703 -4.21,0.703 h -0.89 v 2.344 h 17.14 v -2.344 h -1.64 c -2.86,0 -3.79,-0.203 -4.2,-0.703 -0.3,-0.453 -0.3,-0.61 -0.3,-3.11 v -11.343 h 1 c 5.14,-0.204 7,1.656 7.21,7.203 h 2.34 v -16.407 h -2.34 c -0.32,4.907 -2.25,6.797 -7,6.86 h -1.21 v -11.406 c -0.04,-2.11 0.46,-2.454 3.14,-2.5 h 2.32 c 8.2,-0.047 10.25,1.796 11.79,10.406 h 2.21 l -0.71,-12.766"
       id="path135" />
    <path
       class="StaffText"
       d="m 735.206,324.945 h -1.907 l -2,2.954 c -3.64,-2.657 -5.5,-3.36 -8.953,-3.36 -4.75,0 -8.797,2 -12.14,6 -3.204,3.813 -4.704,8.016 -4.704,13.156 0,10.797 7.047,18.454 16.907,18.454 8,0 13.093,-4.704 14.25,-13.094 l -2.36,-0.406 c -1.343,7.453 -5.14,11.156 -11.297,11.156 -7.406,0 -10.906,-5.11 -10.906,-15.906 0,-5.704 0.75,-9.454 2.453,-12.454 1.547,-2.796 4.61,-4.546 7.86,-4.546 3.5,0 6.593,1.843 8.5,5.046 0.953,1.657 1.64,3.5 2.843,7.454 h 2.204 l -0.75,-14.454"
       id="path136" />
    <path
       class="StaffText"
       d="m 1452.37,325.289 h -29.75 v 2.36 h 0.89 c 2.86,0.046 3.82,0.203 4.21,0.703 0.29,0.437 0.29,0.547 0.29,3.093 v 23.797 c 0,2.563 0,2.657 -0.29,3.11 -0.39,0.5 -1.35,0.703 -4.21,0.703 h -0.89 v 2.344 h 17.14 v -2.344 h -1.64 c -2.86,0 -3.79,-0.203 -4.2,-0.703 -0.3,-0.453 -0.3,-0.61 -0.3,-3.11 v -11.343 h 1 c 5.14,-0.204 7,1.656 7.21,7.203 h 2.34 v -16.407 h -2.34 c -0.32,4.907 -2.25,6.797 -7,6.86 h -1.21 v -11.406 c -0.04,-2.11 0.46,-2.454 3.14,-2.5 h 2.32 c 8.2,-0.047 10.25,1.796 11.79,10.406 h 2.21 l -0.71,-12.766"
       id="path137" />
    <path
       class="StaffText"
       d="m 1831.98,324.945 h -1.9 l -2,2.954 c -3.64,-2.657 -5.5,-3.36 -8.95,-3.36 -4.75,0 -8.8,2 -12.15,6 -3.2,3.813 -4.7,8.016 -4.7,13.156 0,10.797 7.05,18.454 16.91,18.454 8,0 13.09,-4.704 14.25,-13.094 l -2.36,-0.406 c -1.35,7.453 -5.14,11.156 -11.3,11.156 -7.4,0 -10.9,-5.11 -10.9,-15.906 0,-5.704 0.75,-9.454 2.45,-12.454 1.55,-2.796 4.61,-4.546 7.86,-4.546 3.5,0 6.59,1.843 8.5,5.046 0.95,1.657 1.64,3.5 2.84,7.454 h 2.2 l -0.75,-14.454"
       id="path138" />
    <path
       class="StaffText"
       d="m 2611.55,325.289 h -29.75 v 2.36 h 0.89 c 2.86,0.046 3.81,0.203 4.2,0.703 0.3,0.437 0.3,0.547 0.3,3.093 v 23.797 c 0,2.563 0,2.657 -0.3,3.11 -0.39,0.5 -1.34,0.703 -4.2,0.703 h -0.89 v 2.344 h 17.14 v -2.344 h -1.64 c -2.86,0 -3.8,-0.203 -4.21,-0.703 -0.29,-0.453 -0.29,-0.61 -0.29,-3.11 v -11.343 h 1 c 5.14,-0.204 7,1.656 7.2,7.203 h 2.34 V 334.695 H 2601 c -0.31,4.907 -2.25,6.797 -7,6.86 h -1.2 v -11.406 c -0.05,-2.11 0.45,-2.454 3.14,-2.5 h 2.31 c 8.2,-0.047 10.25,1.796 11.8,10.406 h 2.2 l -0.7,-12.766"
       id="path139" />
    <path
       class="StaffText"
       d="m 966.376,325.289 h -29.75 v 2.36 h 0.891 c 2.859,0.046 3.812,0.203 4.203,0.703 0.297,0.437 0.297,0.547 0.297,3.093 v 23.797 c 0,2.563 0,2.657 -0.297,3.11 -0.391,0.5 -1.344,0.703 -4.203,0.703 h -0.891 v 2.344 h 17.141 v -2.344 h -1.641 c -2.859,0 -3.797,-0.203 -4.203,-0.703 -0.297,-0.453 -0.297,-0.61 -0.297,-3.11 v -11.343 h 1 c 5.141,-0.204 7,1.656 7.203,7.203 h 2.344 v -16.407 h -2.344 c -0.312,4.907 -2.25,6.797 -7,6.86 h -1.203 v -11.406 c -0.047,-2.11 0.453,-2.454 3.141,-2.5 h 2.312 c 8.204,-0.047 10.25,1.796 11.797,10.406 h 2.203 l -0.703,-12.766"
       id="path140" />
    <path
       class="StaffText"
       d="m 903.984,325.289 h -29.75 v 2.36 h 0.891 c 2.859,0.046 3.812,0.203 4.203,0.703 0.297,0.437 0.297,0.547 0.297,3.093 v 23.797 c 0,2.563 0,2.657 -0.297,3.11 -0.391,0.5 -1.344,0.703 -4.203,0.703 h -0.891 v 2.344 h 17.141 v -2.344 h -1.641 c -2.859,0 -3.797,-0.203 -4.203,-0.703 -0.297,-0.453 -0.297,-0.61 -0.297,-3.11 v -11.343 h 1 c 5.141,-0.204 7,1.656 7.203,7.203 h 2.344 v -16.407 h -2.344 c -0.312,4.907 -2.25,6.797 -7,6.86 h -1.203 v -11.406 c -0.047,-2.11 0.453,-2.454 3.141,-2.5 h 2.312 c 8.203,-0.047 10.25,1.796 11.797,10.406 h 2.203 l -0.703,-12.766"
       id="path141" />
    <path
       class="StaffText"
       d="m 2673.94,325.289 h -29.75 v 2.36 h 0.89 c 2.86,0.046 3.81,0.203 4.2,0.703 0.3,0.437 0.3,0.547 0.3,3.093 v 23.797 c 0,2.563 0,2.657 -0.3,3.11 -0.39,0.5 -1.34,0.703 -4.2,0.703 h -0.89 v 2.344 h 17.14 v -2.344 h -1.64 c -2.86,0 -3.8,-0.203 -4.21,-0.703 -0.29,-0.453 -0.29,-0.61 -0.29,-3.11 v -11.343 h 1 c 5.14,-0.204 7,1.656 7.2,7.203 h 2.34 v -16.407 h -2.34 c -0.31,4.907 -2.25,6.797 -7,6.86 h -1.2 v -11.406 c -0.05,-2.11 0.45,-2.454 3.14,-2.5 h 2.31 c 8.2,-0.047 10.25,1.796 11.8,10.406 h 2.2 l -0.7,-12.766"
       id="path142" />
    <path
       class="StaffText"
       d="m 1346.53,324.945 h -1.89 l -1.95,3 c -3.25,-2.546 -5.45,-3.406 -9.11,-3.406 -3.95,0 -7.05,1.11 -10.2,3.656 -4.94,4 -7.25,9.047 -7.25,15.797 0,5.11 1.45,9.36 4.4,12.61 3.1,3.5 7.71,5.547 12.5,5.547 4.21,0 7.16,-1.297 10.41,-4.547 l 1.84,4.5 h 2.11 v -11 c 0,-2.547 0,-2.657 0.3,-3.11 0.45,-0.547 1.34,-0.687 4.2,-0.687 h 0.75 v -2.36 h -15.9 v 2.36 h 0.95 c 4.2,0 4.55,0.25 4.55,3.047 0,2.14 -0.35,4.093 -1,5.297 -1.25,2.453 -4.46,4.156 -7.71,4.156 -3.25,0 -6.45,-1.656 -8.15,-4.156 -1.85,-2.797 -2.64,-6.297 -2.64,-11.657 0,-11.14 3.7,-17.093 10.64,-17.093 5.7,0 9.65,4.093 11.7,12.093 h 2.16 l -0.71,-14.047"
       id="path143" />
  </g>
  <metadata
     id="metadata143">
    <rdf:RDF>
      <cc:Work
         rdf:about="">
        <dc:title>70</dc:title>
      </cc:Work>
    </rdf:RDF>
  </metadata>
</svg>
