<?xml version="1.0" encoding="UTF-8" standalone="no"?>
<svg
   width="2555"
   height="700"
   viewBox="0 0 2555 700.00002"
   version="1.2"
   id="svg143"
   sodipodi:docname="76-1.svg"
   inkscape:version="1.3 (0e150ed6c4, 2023-07-21)"
   xmlns:inkscape="http://www.inkscape.org/namespaces/inkscape"
   xmlns:sodipodi="http://sodipodi.sourceforge.net/DTD/sodipodi-0.dtd"
   xmlns="http://www.w3.org/2000/svg"
   xmlns:svg="http://www.w3.org/2000/svg"
   xmlns:rdf="http://www.w3.org/1999/02/22-rdf-syntax-ns#"
   xmlns:cc="http://creativecommons.org/ns#"
   xmlns:dc="http://purl.org/dc/elements/1.1/">
  <defs
     id="defs143" />
  <sodipodi:namedview
     id="namedview143"
     pagecolor="#505050"
     bordercolor="#ffffff"
     borderopacity="1"
     inkscape:showpageshadow="0"
     inkscape:pageopacity="0"
     inkscape:pagecheckerboard="1"
     inkscape:deskcolor="#505050"
     inkscape:zoom="0.18605646"
     inkscape:cx="1486.108"
     inkscape:cy="2104.2"
     inkscape:window-width="1680"
     inkscape:window-height="979"
     inkscape:window-x="1358"
     inkscape:window-y="-8"
     inkscape:window-maximized="1"
     inkscape:current-layer="svg143" />
  <title
     id="title1">76</title>
  <desc
     id="desc1">Generated by MuseScore Studio 4.3.0</desc>
  <g
     id="g145"
     transform="translate(-211.099,-215.32834)">
    <g
       id="g143"
       transform="translate(0,-311.73333)">
      <polyline
         class="StaffLines"
         fill="none"
         stroke="#000000"
         stroke-width="2.73"
         stroke-linejoin="bevel"
         points="212.598,1017.87 2764.6,1017.87"
         id="polyline6" />
      <polyline
         class="StaffLines"
         fill="none"
         stroke="#000000"
         stroke-width="2.73"
         stroke-linejoin="bevel"
         points="212.598,1042.67 2764.6,1042.67"
         id="polyline7" />
      <polyline
         class="StaffLines"
         fill="none"
         stroke="#000000"
         stroke-width="2.73"
         stroke-linejoin="bevel"
         points="212.598,1067.47 2764.6,1067.47"
         id="polyline8" />
      <polyline
         class="StaffLines"
         fill="none"
         stroke="#000000"
         stroke-width="2.73"
         stroke-linejoin="bevel"
         points="212.598,1092.27 2764.6,1092.27"
         id="polyline9" />
      <polyline
         class="StaffLines"
         fill="none"
         stroke="#000000"
         stroke-width="2.73"
         stroke-linejoin="bevel"
         points="212.598,1117.07 2764.6,1117.07"
         id="polyline10" />
      <path
         class="MeasureNumber"
         d="m 233.036,940.116 c -2.125,0.235 -4.719,0.407 -6.953,0.407 -1.125,0 -2.407,-0.047 -3.844,-0.125 -1.328,-0.079 -2.641,-0.157 -4,-0.235 l -1,-0.047 -3.875,8.438 1.469,0.484 0.968,-1.609 c 1.875,-3.11 2.75,-3.547 6.829,-3.516 h 6.765 l -4.359,6.25 c -5.125,7.188 -5.125,7.188 -7.078,10.391 -1.766,2.844 -2.485,4.594 -2.485,6.031 0,1.406 0.891,2.281 2.282,2.281 1.484,0 2.234,-0.718 2.765,-2.593 2,-7.516 3.203,-10.125 8.75,-19.11 l 3.766,-5.844 v -1.203"
         id="path10" />
      <polyline
         class="BarLine"
         fill="none"
         stroke="#000000"
         stroke-width="4.46"
         stroke-linejoin="bevel"
         points="2739.55,1016.51 2739.55,1118.44"
         id="polyline15" />
      <polyline
         class="BarLine"
         fill="none"
         stroke="#000000"
         stroke-width="13.64"
         stroke-linejoin="bevel"
         points="2757.78,1016.51 2757.78,1118.44"
         id="polyline16" />
      <polyline
         class="BarLine"
         fill="none"
         stroke="#000000"
         stroke-width="4.46"
         stroke-linejoin="bevel"
         points="1609.01,1016.51 1609.01,1118.44"
         id="polyline20" />
      <polyline
         class="Stem"
         fill="none"
         stroke="#000000"
         stroke-width="2.48"
         stroke-linejoin="bevel"
         points="1674.48,1088.3 1674.48,1005.47"
         id="polyline25" />
      <polyline
         class="Stem"
         fill="none"
         stroke="#000000"
         stroke-width="2.48"
         stroke-linejoin="bevel"
         points="1987,1113.1 1987,1030.27"
         id="polyline26" />
      <polyline
         class="Stem"
         fill="none"
         stroke="#000000"
         stroke-width="2.48"
         stroke-linejoin="bevel"
         points="1012.72,1088.3 1012.72,1005.47"
         id="polyline34" />
      <polyline
         class="Stem"
         fill="none"
         stroke="#000000"
         stroke-width="2.48"
         stroke-linejoin="bevel"
         points="387.671,1088.3 387.671,1005.47"
         id="polyline49" />
      <polyline
         class="Stem"
         fill="none"
         stroke="#000000"
         stroke-width="2.48"
         stroke-linejoin="bevel"
         points="700.196,1113.1 700.196,1030.27"
         id="polyline50" />
      <polyline
         class="Stem"
         fill="none"
         stroke="#000000"
         stroke-width="2.48"
         stroke-linejoin="bevel"
         points="1325.25,1113.1 1325.25,1030.27"
         id="polyline51" />
      <path
         class="Note"
         transform="matrix(0.992001,0,0,0.992001,1643.48,1092.27)"
         d="M 0,4.20313 C 0,8.5 3.09375,13.2969 11.2031,13.2969 21.5938,13.2969 32.5,4.79688 32.5,-4 c 0,-5.90625 -5,-9.2031 -11.2031,-9.2031 C 11.5938,-13.2031 0,-5 0,4.20313"
         id="path56" />
      <path
         class="Note"
         transform="matrix(0.992001,0,0,0.992001,1294.25,1117.07)"
         d="M 0,4.20313 C 0,8.5 3.09375,13.2969 11.2031,13.2969 21.5938,13.2969 32.5,4.79688 32.5,-4 c 0,-5.90625 -5,-9.2031 -11.2031,-9.2031 C 11.5938,-13.2031 0,-5 0,4.20313"
         id="path62" />
      <path
         class="Note"
         transform="matrix(0.992001,0,0,0.992001,981.729,1092.27)"
         d="M 0,4.20313 C 0,8.5 3.09375,13.2969 11.2031,13.2969 21.5938,13.2969 32.5,4.79688 32.5,-4 c 0,-5.90625 -5,-9.2031 -11.2031,-9.2031 C 11.5938,-13.2031 0,-5 0,4.20313"
         id="path63" />
      <path
         class="Note"
         transform="matrix(0.992001,0,0,0.992001,1956.01,1117.07)"
         d="M 0,4.20313 C 0,8.5 3.09375,13.2969 11.2031,13.2969 21.5938,13.2969 32.5,4.79688 32.5,-4 c 0,-5.90625 -5,-9.2031 -11.2031,-9.2031 C 11.5938,-13.2031 0,-5 0,4.20313"
         id="path67" />
      <path
         class="Note"
         transform="matrix(0.992001,0,0,0.992001,669.204,1117.07)"
         d="M 0,4.20313 C 0,8.5 3.09375,13.2969 11.2031,13.2969 21.5938,13.2969 32.5,4.79688 32.5,-4 c 0,-5.90625 -5,-9.2031 -11.2031,-9.2031 C 11.5938,-13.2031 0,-5 0,4.20313"
         id="path68" />
      <path
         class="Note"
         transform="matrix(0.992001,0,0,0.992001,356.679,1092.27)"
         d="M 0,4.20313 C 0,8.5 3.09375,13.2969 11.2031,13.2969 21.5938,13.2969 32.5,4.79688 32.5,-4 c 0,-5.90625 -5,-9.2031 -11.2031,-9.2031 C 11.5938,-13.2031 0,-5 0,4.20313"
         id="path70" />
      <path
         class="Clef"
         transform="matrix(0.992001,0,0,0.992001,231.198,1092.27)"
         d="m 12.2969,51.2969 c 0,6.6094 5,15.3125 18.5,15.3125 4.7031,0 8.8125,-1.2031 12.4062,-3.4063 C 48.6094,59.4063 50,52.7969 50,46.5 c 0,-3.8906 -0.5937,-8.3906 -1.5937,-14.0937 -0.2969,-2 -0.9063,-5 -1.5,-8.9063 C 56.7031,20.2969 64,10.0938 64,-0.203125 64,-15.2969 53.2969,-25.5 38.7031,-25.5 c -1,-6 -2,-11.9063 -2.7968,-17.5 10.5,-11.1094 17.7968,-23.6094 17.7968,-39.5 0,-9.1094 -2.7968,-16.5 -4.4062,-20.109 -2.3906,-5.094 -5.2969,-8.594 -7.0938,-8.594 -0.7031,0 -3.7968,1.203 -7.0937,5.094 -6.4063,7.609 -8.2031,20.4059 -8.2031,28.7965 0,5.4062 0.5,10.3125 2.2031,21.5156 -0.1094,0.0938 -5.3125,5.3906 -7.4063,7.0938 C 12.5938,-40.2969 0,-28.1094 0,-8.09375 0,10.5938 16.2969,25.2969 34.9063,25.2969 c 2.8906,0 5.5937,-0.2969 7.8906,-0.7031 1.9062,9.6093 3.1094,16.6093 3.1094,21.9062 0,10.4063 -5.4063,15.9063 -15.5,15.9063 -2.4063,0 -4.5,-0.5 -4.7032,-0.5 -0.0937,-0.1094 -0.2968,-0.2032 -0.2968,-0.2969 0,-0.2031 0.2031,-0.3125 0.5,-0.3125 C 30.6094,60.5 35.2969,56.5 35.2969,50.1094 35.2969,44.7031 31.2031,39 23.7031,39 c -7,0 -11.4062,5.7031 -11.4062,12.2969 m 20.9062,-133.5 c 0.9063,-4 5.5,-14.5 10.7032,-14.5 1.5,0 3.8906,4.7968 3.8906,11.7968 0,10.4063 -7.6875,18.2032 -14.5938,25 -0.5937,-4 -1.0937,-7.8906 -1.0937,-12.0937 0,-3.7031 0.2969,-7.1094 1.0937,-10.2031 M 42,20.5938 c -2,0.4062 -3.8906,0.6093 -5.7969,0.6093 -14.2968,0 -26.49997,-10 -26.49997,-25.10935 0,-12.18755 8.59377,-23.09375 17.40627,-30.70315 1.6875,-1.5 3.2969,-2.8906 4.7969,-4.3906 0.8906,5.3906 1.5937,10.0937 2.2968,14.2031 -9.1093,2.7031 -15.2968,12.2969 -15.2968,21.70315 0,7 5.5,16.59375 13.5,16.59375 0.7968,0 1.7031,-0.4062 1.7031,-1.2969 0,-0.9062 -1,-1.4062 -2.2031,-2.2031 C 28,7.59375 25.7969,5 25.7969,0.09375 25.7969,-6 30.4063,-10.9063 36.2031,-12.2969 L 42,20.5938 M 56.2031,2.09375 c 0,7.10938 -2.9062,14.40625 -10,17.31255 -2.0937,-12.00005 -4.7968,-27.9063 -5.5,-32.3126 9,0 15.5,6.10942 15.5,15.00005"
         id="path79" />
      <path
         class="Rest"
         transform="matrix(0.992001,0,0,0.992001,2268.53,1067.47)"
         d="M 0,-1 C 0,0.40625 0,0.40625 1.40625,0.40625 H 31.1094 c 1.3906,0 1.3906,0 1.3906,-1.40625 v -10.7969 c 0,-1.4062 0,-1.4062 -1.3906,-1.4062 H 1.40625 C 0,-13.2031 0,-13.2031 0,-11.7969 V -1"
         id="path84" />
      <path
         class="Lyrics"
         d="m 359.795,1167.63 h -1.75 l -1.453,1.8 c -1.797,-1.41 -3.594,-2 -6.094,-2 -4.406,0 -7.297,2.84 -7.297,7.25 0,4.7 3.047,5.89 7.047,6.84 l 2.641,0.61 c 3.953,0.94 5.359,1.94 5.359,3.94 0,2.36 -2.047,4 -4.953,4 -4.25,0 -7.25,-2.69 -8.453,-7.69 h -2 v 9.44 h 1.75 l 1.75,-2.05 c 2.047,1.66 4.297,2.45 6.859,2.45 4.891,0 8.141,-3.04 8.141,-7.7 0,-2.2 -0.703,-3.89 -2.094,-5.05 -1.203,-1.04 -2.203,-1.45 -5.25,-2.09 l -2.5,-0.56 c -2.75,-0.6 -2.75,-0.6 -3.656,-1.1 -1.094,-0.5 -1.75,-1.54 -1.75,-2.65 0,-2.05 1.906,-3.44 4.656,-3.44 4.094,0 6.094,2.89 7.297,6.39 h 1.75 v -8.39 m 16.094,-0.2 c -6.141,0 -10.891,5.45 -10.891,12.45 0,6.84 4.797,12.34 10.797,12.34 6,0 10.797,-5.5 10.797,-12.4 0,-6.85 -4.797,-12.39 -10.703,-12.39 m 0,2.14 c 3.5,0 5.453,3.65 5.453,10.25 0,6.65 -1.953,10.25 -5.547,10.25 -3.594,0 -5.547,-3.6 -5.547,-10.19 0,-6.81 1.891,-10.31 5.641,-10.31 m 22.609,-14.96 -9.25,0.57 v 2.14 h 2.453 c 1.844,0.04 2.094,0.36 2.094,2.5 v 27.86 c -0.047,0.75 -0.094,1.04 -0.297,1.29 -0.359,0.46 -1.297,0.66 -3.453,0.71 h -0.344 v 1.79 h 12.938 v -1.79 h -0.344 c -3.344,-0.11 -3.797,-0.36 -3.797,-2.16 v -32.91"
         id="path97" />
      <path
         class="Lyrics"
         d="m 665.367,1168.18 -8.891,0.54 v 2.16 h 2.047 c 1.891,0.05 2.141,0.34 2.141,2.5 v 14.3 c -0.047,0.75 -0.094,1.04 -0.297,1.29 -0.344,0.46 -1.297,0.66 -3.453,0.71 h -0.188 v 1.79 h 12.594 v -1.79 h -0.203 c -3.297,-0.11 -3.75,-0.36 -3.75,-2.21 v -9.25 c 0,-4.45 2.453,-7.75 5.703,-7.75 2.844,0 4.297,2.05 4.297,6.1 v 11.15 c -0.047,0.66 -0.094,1 -0.344,1.25 -0.297,0.46 -1.297,0.66 -3.453,0.71 h -0.203 v 1.79 h 12.656 v -1.79 h -0.203 c -3.297,-0.11 -3.75,-0.36 -3.75,-2.16 v -8.84 c 0,-5 2.25,-8.21 5.75,-8.21 2.86,0 4.25,2.16 4.25,6.66 v 10.55 c -0.047,0.7 -0.094,1.04 -0.344,1.29 -0.296,0.46 -1.296,0.66 -3.453,0.71 h -0.203 v 1.79 h 12.656 v -1.79 h -0.203 c -3.297,-0.11 -3.75,-0.36 -3.75,-2.21 v -11.34 c 0,-3.11 -0.297,-4.16 -1.593,-5.86 -1.454,-1.84 -3.5,-2.84 -5.907,-2.84 -3.25,0 -5.656,1.54 -7.797,5 -0.859,-3 -3.562,-5 -6.906,-5 -3.047,0 -5.25,1.45 -7.203,4.59 v -3.84 m 41.906,-12.46 c -1.609,0 -2.906,1.3 -2.906,2.89 0,1.61 1.297,2.91 2.859,2.91 1.641,0 2.938,-1.3 2.938,-2.91 0,-1.59 -1.297,-2.89 -2.891,-2.89 m 2.344,12.46 -9.391,0.54 v 2.16 h 2.547 c 1.891,0.05 2.141,0.34 2.141,2.5 v 14.3 c -0.047,0.75 -0.094,1.04 -0.297,1.29 -0.344,0.46 -1.297,0.66 -3.453,0.71 h -0.344 v 1.79 h 12.953 v -1.79 h -0.359 c -3.344,-0.11 -3.797,-0.36 -3.797,-2.16 v -19.34"
         id="path100" />
      <path
         class="Lyrics"
         d="m 984.845,1167.63 h -1.75 l -1.453,1.8 c -1.797,-1.41 -3.593,-2 -6.093,-2 -4.407,0 -7.297,2.84 -7.297,7.25 0,4.7 3.047,5.89 7.047,6.84 l 2.64,0.61 c 3.953,0.94 5.36,1.94 5.36,3.94 0,2.36 -2.047,4 -4.954,4 -4.25,0 -7.25,-2.69 -8.453,-7.69 h -2 v 9.44 h 1.75 l 1.75,-2.05 c 2.047,1.66 4.297,2.45 6.86,2.45 4.89,0 8.14,-3.04 8.14,-7.7 0,-2.2 -0.703,-3.89 -2.093,-5.05 -1.204,-1.04 -2.204,-1.45 -5.25,-2.09 l -2.5,-0.56 c -2.75,-0.6 -2.75,-0.6 -3.657,-1.1 -1.093,-0.5 -1.75,-1.54 -1.75,-2.65 0,-2.05 1.907,-3.44 4.657,-3.44 4.093,0 6.093,2.89 7.296,6.39 h 1.75 v -8.39 m 16.095,-0.2 c -6.141,0 -10.891,5.45 -10.891,12.45 0,6.84 4.796,12.34 10.801,12.34 6,0 10.79,-5.5 10.79,-12.4 0,-6.85 -4.79,-12.39 -10.7,-12.39 m 0,2.14 c 3.5,0 5.45,3.65 5.45,10.25 0,6.65 -1.95,10.25 -5.54,10.25 -3.598,0 -5.551,-3.6 -5.551,-10.19 0,-6.81 1.89,-10.31 5.641,-10.31 m 22.61,-14.96 -9.25,0.57 v 2.14 h 2.45 c 1.85,0.04 2.1,0.36 2.1,2.5 v 27.86 c -0.05,0.75 -0.1,1.04 -0.3,1.29 -0.36,0.46 -1.3,0.66 -3.45,0.71 h -0.35 v 1.79 h 12.94 v -1.79 h -0.34 c -3.35,-0.11 -3.8,-0.36 -3.8,-2.16 v -32.91"
         id="path102" />
      <path
         class="Lyrics"
         d="m 1290.42,1168.18 -8.89,0.54 v 2.16 h 2.04 c 1.89,0.05 2.14,0.34 2.14,2.5 v 14.3 c -0.04,0.75 -0.09,1.04 -0.29,1.29 -0.35,0.46 -1.3,0.66 -3.46,0.71 h -0.18 v 1.79 h 12.59 v -1.79 h -0.2 c -3.3,-0.11 -3.75,-0.36 -3.75,-2.21 v -9.25 c 0,-4.45 2.45,-7.75 5.7,-7.75 2.84,0 4.3,2.05 4.3,6.1 v 11.15 c -0.05,0.66 -0.1,1 -0.35,1.25 -0.29,0.46 -1.29,0.66 -3.45,0.71 h -0.2 v 1.79 h 12.65 v -1.79 h -0.2 c -3.3,-0.11 -3.75,-0.36 -3.75,-2.16 v -8.84 c 0,-5 2.25,-8.21 5.75,-8.21 2.86,0 4.25,2.16 4.25,6.66 v 10.55 c -0.05,0.7 -0.09,1.04 -0.34,1.29 -0.3,0.46 -1.3,0.66 -3.46,0.71 h -0.2 v 1.79 h 12.66 v -1.79 h -0.21 c -3.29,-0.11 -3.75,-0.36 -3.75,-2.21 v -11.34 c 0,-3.11 -0.29,-4.16 -1.59,-5.86 -1.45,-1.84 -3.5,-2.84 -5.91,-2.84 -3.25,0 -5.65,1.54 -7.79,5 -0.86,-3 -3.57,-5 -6.91,-5 -3.05,0 -5.25,1.45 -7.2,4.59 v -3.84 m 41.9,-12.46 c -1.61,0 -2.9,1.3 -2.9,2.89 0,1.61 1.29,2.91 2.86,2.91 1.64,0 2.93,-1.3 2.93,-2.91 0,-1.59 -1.29,-2.89 -2.89,-2.89 m 2.35,12.46 -9.39,0.54 v 2.16 h 2.54 c 1.89,0.05 2.14,0.34 2.14,2.5 v 14.3 c -0.04,0.75 -0.09,1.04 -0.29,1.29 -0.35,0.46 -1.3,0.66 -3.46,0.71 h -0.34 v 1.79 h 12.95 v -1.79 h -0.36 c -3.34,-0.11 -3.79,-0.36 -3.79,-2.16 v -19.34"
         id="path105" />
      <path
         class="Lyrics"
         d="m 1646.6,1167.63 h -1.75 l -1.45,1.8 c -1.8,-1.41 -3.6,-2 -6.1,-2 -4.4,0 -7.29,2.84 -7.29,7.25 0,4.7 3.04,5.89 7.04,6.84 l 2.64,0.61 c 3.96,0.94 5.36,1.94 5.36,3.94 0,2.36 -2.04,4 -4.95,4 -4.25,0 -7.25,-2.69 -8.45,-7.69 h -2 v 9.44 h 1.75 l 1.75,-2.05 c 2.04,1.66 4.29,2.45 6.86,2.45 4.89,0 8.14,-3.04 8.14,-7.7 0,-2.2 -0.71,-3.89 -2.1,-5.05 -1.2,-1.04 -2.2,-1.45 -5.25,-2.09 l -2.5,-0.56 c -2.75,-0.6 -2.75,-0.6 -3.65,-1.1 -1.1,-0.5 -1.75,-1.54 -1.75,-2.65 0,-2.05 1.9,-3.44 4.65,-3.44 4.1,0 6.1,2.89 7.3,6.39 h 1.75 v -8.39 m 16.09,-0.2 c -6.14,0 -10.89,5.45 -10.89,12.45 0,6.84 4.8,12.34 10.8,12.34 6,0 10.8,-5.5 10.8,-12.4 0,-6.85 -4.8,-12.39 -10.71,-12.39 m 0,2.14 c 3.5,0 5.46,3.65 5.46,10.25 0,6.65 -1.96,10.25 -5.55,10.25 -3.59,0 -5.55,-3.6 -5.55,-10.19 0,-6.81 1.89,-10.31 5.64,-10.31 m 22.61,-14.96 -9.25,0.57 v 2.14 h 2.46 c 1.84,0.04 2.09,0.36 2.09,2.5 v 27.86 c -0.05,0.75 -0.09,1.04 -0.3,1.29 -0.36,0.46 -1.29,0.66 -3.45,0.71 h -0.34 v 1.79 h 12.93 v -1.79 h -0.34 c -3.34,-0.11 -3.8,-0.36 -3.8,-2.16 v -32.91"
         id="path109" />
      <path
         class="Lyrics"
         d="m 1952.17,1168.18 -8.89,0.54 v 2.16 h 2.05 c 1.89,0.05 2.14,0.34 2.14,2.5 v 14.3 c -0.05,0.75 -0.09,1.04 -0.3,1.29 -0.34,0.46 -1.29,0.66 -3.45,0.71 h -0.19 v 1.79 h 12.6 v -1.79 h -0.21 c -3.29,-0.11 -3.75,-0.36 -3.75,-2.21 v -9.25 c 0,-4.45 2.46,-7.75 5.71,-7.75 2.84,0 4.29,2.05 4.29,6.1 v 11.15 c -0.04,0.66 -0.09,1 -0.34,1.25 -0.3,0.46 -1.3,0.66 -3.45,0.71 h -0.21 v 1.79 h 12.66 v -1.79 h -0.2 c -3.3,-0.11 -3.75,-0.36 -3.75,-2.16 v -8.84 c 0,-5 2.25,-8.21 5.75,-8.21 2.85,0 4.25,2.16 4.25,6.66 v 10.55 c -0.05,0.7 -0.1,1.04 -0.35,1.29 -0.3,0.46 -1.3,0.66 -3.45,0.71 h -0.2 v 1.79 h 12.65 v -1.79 h -0.2 c -3.3,-0.11 -3.75,-0.36 -3.75,-2.21 v -11.34 c 0,-3.11 -0.3,-4.16 -1.6,-5.86 -1.45,-1.84 -3.5,-2.84 -5.9,-2.84 -3.25,0 -5.66,1.54 -7.8,5 -0.86,-3 -3.56,-5 -6.9,-5 -3.05,0 -5.25,1.45 -7.21,4.59 v -3.84 m 41.91,-12.46 c -1.61,0 -2.91,1.3 -2.91,2.89 0,1.61 1.3,2.91 2.86,2.91 1.64,0 2.94,-1.3 2.94,-2.91 0,-1.59 -1.3,-2.89 -2.89,-2.89 m 2.34,12.46 -9.39,0.54 v 2.16 h 2.55 c 1.89,0.05 2.14,0.34 2.14,2.5 v 14.3 c -0.05,0.75 -0.09,1.04 -0.3,1.29 -0.34,0.46 -1.29,0.66 -3.45,0.71 h -0.34 v 1.79 h 12.95 v -1.79 h -0.36 c -3.34,-0.11 -3.8,-0.36 -3.8,-2.16 v -19.34"
         id="path113" />
      <path
         class="StaffText"
         d="m 387.179,955.619 h -1.891 l -1.953,3 c -3.25,-2.546 -5.453,-3.406 -9.109,-3.406 -3.953,0 -7.047,1.11 -10.203,3.656 -4.938,4 -7.25,9.047 -7.25,15.797 0,5.11 1.453,9.36 4.406,12.61 3.094,3.5 7.703,5.547 12.5,5.547 4.203,0 7.156,-1.297 10.406,-4.547 l 1.844,4.5 h 2.109 v -11 c 0,-2.547 0,-2.657 0.297,-3.11 0.453,-0.547 1.344,-0.687 4.203,-0.687 h 0.75 v -2.36 h -15.906 v 2.36 h 0.953 c 4.203,0 4.547,0.25 4.547,3.047 0,2.14 -0.344,4.093 -1,5.297 -1.25,2.453 -4.453,4.156 -7.703,4.156 -3.25,0 -6.453,-1.656 -8.156,-4.156 -1.844,-2.797 -2.641,-6.297 -2.641,-11.657 0,-11.14 3.703,-17.093 10.641,-17.093 5.703,0 9.656,4.093 11.703,12.093 h 2.156 l -0.703,-14.047"
         id="path119" />
      <path
         class="StaffText"
         d="m 699.704,956.963 h -30.047 v 2.36 h 0.891 c 2.859,0.046 3.812,0.203 4.203,0.703 0.297,0.437 0.297,0.547 0.297,3.093 v 23.797 c 0,2.563 0,2.657 -0.297,3.11 -0.391,0.5 -1.344,0.703 -4.203,0.703 h -0.891 v 2.344 h 30.703 l 1,-13.344 h -2.203 c -1.906,8.89 -3.953,10.797 -11.609,11 h -3.297 c -3,-0.11 -3.75,-0.61 -3.594,-2.406 v -12.75 h 1 c 5.141,-0.204 7,1.656 7.203,7.203 h 2.344 v -16.407 h -2.344 c -0.312,4.907 -2.25,6.86 -7,6.86 h -1.203 v -11.406 c -0.047,-2.11 0.453,-2.454 3.141,-2.5 h 2.609 c 8.203,-0.047 10.25,1.75 11.844,10.406 h 2.156 l -0.703,-12.766"
         id="path123" />
      <path
         class="StaffText"
         d="m 1012.23,955.619 h -1.89 l -1.95,3 c -3.25,-2.546 -5.46,-3.406 -9.114,-3.406 -3.953,0 -7.047,1.11 -10.203,3.656 -4.937,4 -7.25,9.047 -7.25,15.797 0,5.11 1.453,9.36 4.406,12.61 3.094,3.5 7.703,5.547 12.5,5.547 4.201,0 7.161,-1.297 10.411,-4.547 l 1.84,4.5 h 2.11 v -11 c 0,-2.547 0,-2.657 0.3,-3.11 0.45,-0.547 1.34,-0.687 4.2,-0.687 h 0.75 v -2.36 h -15.91 v 2.36 h 0.96 c 4.2,0 4.54,0.25 4.54,3.047 0,2.14 -0.34,4.093 -1,5.297 -1.25,2.453 -4.45,4.156 -7.701,4.156 -3.25,0 -6.453,-1.656 -8.156,-4.156 -1.844,-2.797 -2.641,-6.297 -2.641,-11.657 0,-11.14 3.704,-17.093 10.641,-17.093 5.707,0 9.657,4.093 11.707,12.093 h 2.15 l -0.7,-14.047"
         id="path127" />
      <path
         class="StaffText"
         d="m 1324.75,956.963 h -30.04 v 2.36 h 0.89 c 2.86,0.046 3.81,0.203 4.2,0.703 0.3,0.437 0.3,0.547 0.3,3.093 v 23.797 c 0,2.563 0,2.657 -0.3,3.11 -0.39,0.5 -1.34,0.703 -4.2,0.703 h -0.89 v 2.344 h 30.7 l 1,-13.344 h -2.2 c -1.91,8.89 -3.96,10.797 -11.61,11 h -3.3 c -3,-0.11 -3.75,-0.61 -3.59,-2.406 v -12.75 h 1 c 5.14,-0.204 7,1.656 7.2,7.203 h 2.34 v -16.407 h -2.34 c -0.31,4.907 -2.25,6.86 -7,6.86 h -1.2 v -11.406 c -0.05,-2.11 0.45,-2.454 3.14,-2.5 h 2.61 c 8.2,-0.047 10.25,1.75 11.84,10.406 h 2.16 l -0.71,-12.766"
         id="path131" />
      <path
         class="StaffText"
         d="m 1673.98,955.619 h -1.89 l -1.95,3 c -3.25,-2.546 -5.45,-3.406 -9.11,-3.406 -3.95,0 -7.05,1.11 -10.2,3.656 -4.94,4 -7.25,9.047 -7.25,15.797 0,5.11 1.45,9.36 4.4,12.61 3.1,3.5 7.71,5.547 12.5,5.547 4.21,0 7.16,-1.297 10.41,-4.547 l 1.84,4.5 h 2.11 v -11 c 0,-2.547 0,-2.657 0.3,-3.11 0.45,-0.547 1.34,-0.687 4.2,-0.687 h 0.75 v -2.36 h -15.9 v 2.36 h 0.95 c 4.2,0 4.55,0.25 4.55,3.047 0,2.14 -0.35,4.093 -1,5.297 -1.25,2.453 -4.46,4.156 -7.71,4.156 -3.25,0 -6.45,-1.656 -8.15,-4.156 -1.85,-2.797 -2.64,-6.297 -2.64,-11.657 0,-11.14 3.7,-17.093 10.64,-17.093 5.7,0 9.65,4.093 11.7,12.093 h 2.16 l -0.71,-14.047"
         id="path137" />
      <path
         class="StaffText"
         d="m 1986.51,956.963 h -30.05 v 2.36 h 0.89 c 2.86,0.046 3.82,0.203 4.21,0.703 0.29,0.437 0.29,0.547 0.29,3.093 v 23.797 c 0,2.563 0,2.657 -0.29,3.11 -0.39,0.5 -1.35,0.703 -4.21,0.703 h -0.89 v 2.344 h 30.71 l 1,-13.344 h -2.21 c -1.9,8.89 -3.95,10.797 -11.61,11 h -3.29 c -3,-0.11 -3.75,-0.61 -3.6,-2.406 v -12.75 h 1 c 5.14,-0.204 7,1.656 7.21,7.203 h 2.34 v -16.407 h -2.34 c -0.32,4.907 -2.25,6.86 -7,6.86 h -1.21 v -11.406 c -0.04,-2.11 0.46,-2.454 3.14,-2.5 h 2.61 c 8.21,-0.047 10.25,1.75 11.85,10.406 h 2.15 l -0.7,-12.766"
         id="path141" />
    </g>
    <g
       id="g144">
      <polyline
         class="StaffLines"
         fill="none"
         stroke="#000000"
         stroke-width="2.73"
         stroke-linejoin="bevel"
         points="336.599,386.199 2764.6,386.199"
         id="polyline1" />
      <polyline
         class="StaffLines"
         fill="none"
         stroke="#000000"
         stroke-width="2.73"
         stroke-linejoin="bevel"
         points="336.599,410.999 2764.6,410.999"
         id="polyline2" />
      <polyline
         class="StaffLines"
         fill="none"
         stroke="#000000"
         stroke-width="2.73"
         stroke-linejoin="bevel"
         points="336.599,435.799 2764.6,435.799"
         id="polyline3" />
      <polyline
         class="StaffLines"
         fill="none"
         stroke="#000000"
         stroke-width="2.73"
         stroke-linejoin="bevel"
         points="336.599,460.599 2764.6,460.599"
         id="polyline4" />
      <polyline
         class="StaffLines"
         fill="none"
         stroke="#000000"
         stroke-width="2.73"
         stroke-linejoin="bevel"
         points="336.599,485.399 2764.6,485.399"
         id="polyline5" />
      <path
         class="SlurSegment"
         stroke="#000000"
         stroke-width="1.24"
         stroke-linecap="round"
         stroke-linejoin="round"
         fill-rule="evenodd"
         d="m 672.396,507.719 c 18.183,12.13 48.273,5.93 60.18,-12.4 -10.305,26.103 -40.395,32.303 -60.18,12.4"
         id="path11" />
      <path
         class="SlurSegment"
         stroke="#000000"
         stroke-width="1.24"
         stroke-linecap="round"
         stroke-linejoin="round"
         fill-rule="evenodd"
         d="m 555.122,532.519 c 17.471,11.621 46.018,5.421 57.094,-12.4 -9.392,25.576 -37.939,31.776 -57.094,12.4"
         id="path12" />
      <polyline
         class="BarLine"
         fill="none"
         stroke="#000000"
         stroke-width="4.46"
         stroke-linejoin="bevel"
         points="2089.47,384.835 2089.47,486.763"
         id="polyline12" />
      <polyline
         class="BarLine"
         fill="none"
         stroke="#000000"
         stroke-width="4.46"
         stroke-linejoin="bevel"
         points="1710.2,384.835 1710.2,486.763"
         id="polyline13" />
      <polyline
         class="BarLine"
         fill="none"
         stroke="#000000"
         stroke-width="4.46"
         stroke-linejoin="bevel"
         points="2762.37,384.835 2762.37,486.763"
         id="polyline14" />
      <polyline
         class="BarLine"
         fill="none"
         stroke="#000000"
         stroke-width="4.46"
         stroke-linejoin="bevel"
         points="1330.93,384.835 1330.93,486.763"
         id="polyline17" />
      <polyline
         class="BarLine"
         fill="none"
         stroke="#000000"
         stroke-width="4.46"
         stroke-linejoin="bevel"
         points="951.656,384.835 951.656,486.763"
         id="polyline18" />
      <polyline
         class="BarLine"
         fill="none"
         stroke="#000000"
         stroke-width="4.46"
         stroke-linejoin="bevel"
         points="2425.92,384.835 2425.92,486.763"
         id="polyline19" />
      <polyline
         class="LedgerLine"
         fill="none"
         stroke="#000000"
         stroke-width="3.97"
         stroke-linejoin="bevel"
         points="530.822,510.199 579.422,510.199"
         id="polyline21" />
      <polyline
         class="LedgerLine"
         fill="none"
         stroke="#000000"
         stroke-width="3.97"
         stroke-linejoin="bevel"
         points="1907.77,510.199 1956.37,510.199"
         id="polyline22" />
      <polyline
         class="LedgerLine"
         fill="none"
         stroke="#000000"
         stroke-width="3.97"
         stroke-linejoin="bevel"
         points="1993.41,510.199 2042.01,510.199"
         id="polyline23" />
      <polyline
         class="Stem"
         fill="none"
         stroke="#000000"
         stroke-width="2.48"
         stroke-linejoin="bevel"
         points="1017.12,444.231 1017.12,367.599"
         id="polyline24" />
      <polyline
         class="Stem"
         fill="none"
         stroke="#000000"
         stroke-width="2.48"
         stroke-linejoin="bevel"
         points="569.998,506.231 569.998,417.113"
         id="polyline27" />
      <polyline
         class="Stem"
         fill="none"
         stroke="#000000"
         stroke-width="2.48"
         stroke-linejoin="bevel"
         points="1102.76,444.231 1102.76,367.599"
         id="polyline28" />
      <polyline
         class="Stem"
         fill="none"
         stroke="#000000"
         stroke-width="2.48"
         stroke-linejoin="bevel"
         points="1188.4,456.631 1188.4,373.799"
         id="polyline29" />
      <polyline
         class="Stem"
         fill="none"
         stroke="#000000"
         stroke-width="2.48"
         stroke-linejoin="bevel"
         points="1274.05,456.631 1274.05,373.799"
         id="polyline30" />
      <polyline
         class="Stem"
         fill="none"
         stroke="#000000"
         stroke-width="2.48"
         stroke-linejoin="bevel"
         points="1396.39,469.031 1396.39,386.199"
         id="polyline31" />
      <polyline
         class="Stem"
         fill="none"
         stroke="#000000"
         stroke-width="2.48"
         stroke-linejoin="bevel"
         points="1482.03,469.031 1482.03,386.199"
         id="polyline32" />
      <polyline
         class="Stem"
         fill="none"
         stroke="#000000"
         stroke-width="2.48"
         stroke-linejoin="bevel"
         points="627.092,493.831 627.092,413.179"
         id="polyline33" />
      <polyline
         class="Stem"
         fill="none"
         stroke="#000000"
         stroke-width="2.48"
         stroke-linejoin="bevel"
         points="1567.67,481.431 1567.67,398.599"
         id="polyline35" />
      <polyline
         class="Stem"
         fill="none"
         stroke="#000000"
         stroke-width="2.48"
         stroke-linejoin="bevel"
         points="687.272,481.431 687.272,409.031"
         id="polyline36" />
      <polyline
         class="Stem"
         fill="none"
         stroke="#000000"
         stroke-width="2.48"
         stroke-linejoin="bevel"
         points="1861.3,493.831 1861.3,410.999"
         id="polyline37" />
      <polyline
         class="Stem"
         fill="none"
         stroke="#000000"
         stroke-width="2.48"
         stroke-linejoin="bevel"
         points="1946.95,506.231 1946.95,423.399"
         id="polyline38" />
      <polyline
         class="Stem"
         fill="none"
         stroke="#000000"
         stroke-width="2.48"
         stroke-linejoin="bevel"
         points="2032.59,506.231 2032.59,423.399"
         id="polyline39" />
      <polyline
         class="Stem"
         fill="none"
         stroke="#000000"
         stroke-width="2.48"
         stroke-linejoin="bevel"
         points="747.452,469.031 747.452,404.884"
         id="polyline40" />
      <polyline
         class="Stem"
         fill="none"
         stroke="#000000"
         stroke-width="2.48"
         stroke-linejoin="bevel"
         points="1775.66,493.831 1775.66,410.999"
         id="polyline41" />
      <polyline
         class="Stem"
         fill="none"
         stroke="#000000"
         stroke-width="2.48"
         stroke-linejoin="bevel"
         points="2154.93,456.631 2154.93,373.799"
         id="polyline42" />
      <polyline
         class="Stem"
         fill="none"
         stroke="#000000"
         stroke-width="2.48"
         stroke-linejoin="bevel"
         points="2240.58,481.431 2240.58,398.599"
         id="polyline43" />
      <polyline
         class="Stem"
         fill="none"
         stroke="#000000"
         stroke-width="2.48"
         stroke-linejoin="bevel"
         points="809.132,456.631 809.132,373.799"
         id="polyline44" />
      <polyline
         class="Stem"
         fill="none"
         stroke="#000000"
         stroke-width="2.48"
         stroke-linejoin="bevel"
         points="2491.38,456.631 2491.38,373.799"
         id="polyline45" />
      <polyline
         class="Stem"
         fill="none"
         stroke="#000000"
         stroke-width="2.48"
         stroke-linejoin="bevel"
         points="2577.03,481.431 2577.03,398.599"
         id="polyline46" />
      <polyline
         class="Stem"
         fill="none"
         stroke="#000000"
         stroke-width="2.48"
         stroke-linejoin="bevel"
         points="1653.32,481.431 1653.32,398.599"
         id="polyline47" />
      <polyline
         class="Stem"
         fill="none"
         stroke="#000000"
         stroke-width="2.48"
         stroke-linejoin="bevel"
         points="894.774,456.631 894.774,373.799"
         id="polyline48" />
      <path
         class="Note"
         transform="matrix(0.992001,0,0,0.992001,596.1,497.799)"
         d="M 0,4.20313 C 0,8.5 3.09375,13.2969 11.2031,13.2969 21.5938,13.2969 32.5,4.79688 32.5,-4 c 0,-5.90625 -5,-9.2031 -11.2031,-9.2031 C 11.5938,-13.2031 0,-5 0,4.20313"
         id="path51" />
      <path
         class="Note"
         transform="matrix(0.992001,0,0,0.992001,1365.4,472.999)"
         d="M 0,4.20313 C 0,8.5 3.09375,13.2969 11.2031,13.2969 21.5938,13.2969 32.5,4.79688 32.5,-4 c 0,-5.90625 -5,-9.2031 -11.2031,-9.2031 C 11.5938,-13.2031 0,-5 0,4.20313"
         id="path52" />
      <path
         class="Note"
         transform="matrix(0.992001,0,0,0.992001,2546.03,485.399)"
         d="M 0,4.20313 C 0,8.5 3.09375,13.2969 11.2031,13.2969 21.5938,13.2969 32.5,4.79688 32.5,-4 c 0,-5.90625 -5,-9.2031 -11.2031,-9.2031 C 11.5938,-13.2031 0,-5 0,4.20313"
         id="path53" />
      <path
         class="Note"
         transform="matrix(0.992001,0,0,0.992001,539.006,510.199)"
         d="M 0,4.20313 C 0,8.5 3.09375,13.2969 11.2031,13.2969 21.5938,13.2969 32.5,4.79688 32.5,-4 c 0,-5.90625 -5,-9.2031 -11.2031,-9.2031 C 11.5938,-13.2031 0,-5 0,4.20313"
         id="path54" />
      <path
         class="Note"
         transform="matrix(0.992001,0,0,0.992001,1830.31,497.799)"
         d="M 0,4.20313 C 0,8.5 3.09375,13.2969 11.2031,13.2969 21.5938,13.2969 32.5,4.79688 32.5,-4 c 0,-5.90625 -5,-9.2031 -11.2031,-9.2031 C 11.5938,-13.2031 0,-5 0,4.20313"
         id="path55" />
      <path
         class="Note"
         transform="matrix(0.992001,0,0,0.992001,2123.94,460.599)"
         d="M 0,4.20313 C 0,8.5 3.09375,13.2969 11.2031,13.2969 21.5938,13.2969 32.5,4.79688 32.5,-4 c 0,-5.90625 -5,-9.2031 -11.2031,-9.2031 C 11.5938,-13.2031 0,-5 0,4.20313"
         id="path57" />
      <path
         class="Note"
         transform="matrix(0.992001,0,0,0.992001,1536.68,485.399)"
         d="M 0,4.20313 C 0,8.5 3.09375,13.2969 11.2031,13.2969 21.5938,13.2969 32.5,4.79688 32.5,-4 c 0,-5.90625 -5,-9.2031 -11.2031,-9.2031 C 11.5938,-13.2031 0,-5 0,4.20313"
         id="path58" />
      <path
         class="Note"
         transform="matrix(0.992001,0,0,0.992001,778.14,460.599)"
         d="M 0,4.20313 C 0,8.5 3.09375,13.2969 11.2031,13.2969 21.5938,13.2969 32.5,4.79688 32.5,-4 c 0,-5.90625 -5,-9.2031 -11.2031,-9.2031 C 11.5938,-13.2031 0,-5 0,4.20313"
         id="path59" />
      <path
         class="Note"
         transform="matrix(0.992001,0,0,0.992001,1071.77,448.199)"
         d="M 0,4.20313 C 0,8.5 3.09375,13.2969 11.2031,13.2969 21.5938,13.2969 32.5,4.79688 32.5,-4 c 0,-5.90625 -5,-9.2031 -11.2031,-9.2031 C 11.5938,-13.2031 0,-5 0,4.20313"
         id="path60" />
      <path
         class="Note"
         transform="matrix(0.992001,0,0,0.992001,656.28,485.399)"
         d="M 0,4.20313 C 0,8.5 3.09375,13.2969 11.2031,13.2969 21.5938,13.2969 32.5,4.79688 32.5,-4 c 0,-5.90625 -5,-9.2031 -11.2031,-9.2031 C 11.5938,-13.2031 0,-5 0,4.20313"
         id="path61" />
      <path
         class="Note"
         transform="matrix(0.992001,0,0,0.992001,716.46,472.999)"
         d="M 0,4.20313 C 0,8.5 3.09375,13.2969 11.2031,13.2969 21.5938,13.2969 32.5,4.79688 32.5,-4 c 0,-5.90625 -5,-9.2031 -11.2031,-9.2031 C 11.5938,-13.2031 0,-5 0,4.20313"
         id="path64" />
      <path
         class="Note"
         transform="matrix(0.992001,0,0,0.992001,863.782,460.599)"
         d="M 0,4.20313 C 0,8.5 3.09375,13.2969 11.2031,13.2969 21.5938,13.2969 32.5,4.79688 32.5,-4 c 0,-5.90625 -5,-9.2031 -11.2031,-9.2031 C 11.5938,-13.2031 0,-5 0,4.20313"
         id="path65" />
      <path
         class="Note"
         transform="matrix(0.992001,0,0,0.992001,1744.67,497.799)"
         d="M 0,4.20313 C 0,8.5 3.09375,13.2969 11.2031,13.2969 21.5938,13.2969 32.5,4.79688 32.5,-4 c 0,-5.90625 -5,-9.2031 -11.2031,-9.2031 C 11.5938,-13.2031 0,-5 0,4.20313"
         id="path66" />
      <path
         class="Note"
         transform="matrix(0.992001,0,0,0.992001,2001.6,510.199)"
         d="M 0,4.20313 C 0,8.5 3.09375,13.2969 11.2031,13.2969 21.5938,13.2969 32.5,4.79688 32.5,-4 c 0,-5.90625 -5,-9.2031 -11.2031,-9.2031 C 11.5938,-13.2031 0,-5 0,4.20313"
         id="path69" />
      <path
         class="Note"
         transform="matrix(0.992001,0,0,0.992001,1622.32,485.399)"
         d="M 0,4.20313 C 0,8.5 3.09375,13.2969 11.2031,13.2969 21.5938,13.2969 32.5,4.79688 32.5,-4 c 0,-5.90625 -5,-9.2031 -11.2031,-9.2031 C 11.5938,-13.2031 0,-5 0,4.20313"
         id="path71" />
      <path
         class="Note"
         transform="matrix(0.992001,0,0,0.992001,986.128,448.199)"
         d="M 0,4.20313 C 0,8.5 3.09375,13.2969 11.2031,13.2969 21.5938,13.2969 32.5,4.79688 32.5,-4 c 0,-5.90625 -5,-9.2031 -11.2031,-9.2031 C 11.5938,-13.2031 0,-5 0,4.20313"
         id="path72" />
      <path
         class="Note"
         transform="matrix(0.992001,0,0,0.992001,1451.04,472.999)"
         d="M 0,4.20313 C 0,8.5 3.09375,13.2969 11.2031,13.2969 21.5938,13.2969 32.5,4.79688 32.5,-4 c 0,-5.90625 -5,-9.2031 -11.2031,-9.2031 C 11.5938,-13.2031 0,-5 0,4.20313"
         id="path73" />
      <path
         class="Note"
         transform="matrix(0.992001,0,0,0.992001,1915.95,510.199)"
         d="M 0,4.20313 C 0,8.5 3.09375,13.2969 11.2031,13.2969 21.5938,13.2969 32.5,4.79688 32.5,-4 c 0,-5.90625 -5,-9.2031 -11.2031,-9.2031 C 11.5938,-13.2031 0,-5 0,4.20313"
         id="path74" />
      <path
         class="Note"
         transform="matrix(0.992001,0,0,0.992001,2209.58,485.399)"
         d="M 0,4.20313 C 0,8.5 3.09375,13.2969 11.2031,13.2969 21.5938,13.2969 32.5,4.79688 32.5,-4 c 0,-5.90625 -5,-9.2031 -11.2031,-9.2031 C 11.5938,-13.2031 0,-5 0,4.20313"
         id="path75" />
      <path
         class="Note"
         transform="matrix(0.992001,0,0,0.992001,1157.41,460.599)"
         d="M 0,4.20313 C 0,8.5 3.09375,13.2969 11.2031,13.2969 21.5938,13.2969 32.5,4.79688 32.5,-4 c 0,-5.90625 -5,-9.2031 -11.2031,-9.2031 C 11.5938,-13.2031 0,-5 0,4.20313"
         id="path76" />
      <path
         class="Note"
         transform="matrix(0.992001,0,0,0.992001,2460.39,460.599)"
         d="M 0,4.20313 C 0,8.5 3.09375,13.2969 11.2031,13.2969 21.5938,13.2969 32.5,4.79688 32.5,-4 c 0,-5.90625 -5,-9.2031 -11.2031,-9.2031 C 11.5938,-13.2031 0,-5 0,4.20313"
         id="path77" />
      <path
         class="Note"
         transform="matrix(0.992001,0,0,0.992001,1243.05,460.599)"
         d="M 0,4.20313 C 0,8.5 3.09375,13.2969 11.2031,13.2969 21.5938,13.2969 32.5,4.79688 32.5,-4 c 0,-5.90625 -5,-9.2031 -11.2031,-9.2031 C 11.5938,-13.2031 0,-5 0,4.20313"
         id="path78" />
      <path
         class="Clef"
         transform="matrix(0.992001,0,0,0.992001,355.199,460.599)"
         d="m 12.2969,51.2969 c 0,6.6094 5,15.3125 18.5,15.3125 4.7031,0 8.8125,-1.2031 12.4062,-3.4063 C 48.6094,59.4063 50,52.7969 50,46.5 c 0,-3.8906 -0.5937,-8.3906 -1.5937,-14.0937 -0.2969,-2 -0.9063,-5 -1.5,-8.9063 C 56.7031,20.2969 64,10.0938 64,-0.203125 64,-15.2969 53.2969,-25.5 38.7031,-25.5 c -1,-6 -2,-11.9063 -2.7968,-17.5 10.5,-11.1094 17.7968,-23.6094 17.7968,-39.5 0,-9.1094 -2.7968,-16.5 -4.4062,-20.109 -2.3906,-5.094 -5.2969,-8.594 -7.0938,-8.594 -0.7031,0 -3.7968,1.203 -7.0937,5.094 -6.4063,7.609 -8.2031,20.4059 -8.2031,28.7965 0,5.4062 0.5,10.3125 2.2031,21.5156 -0.1094,0.0938 -5.3125,5.3906 -7.4063,7.0938 C 12.5938,-40.2969 0,-28.1094 0,-8.09375 0,10.5938 16.2969,25.2969 34.9063,25.2969 c 2.8906,0 5.5937,-0.2969 7.8906,-0.7031 1.9062,9.6093 3.1094,16.6093 3.1094,21.9062 0,10.4063 -5.4063,15.9063 -15.5,15.9063 -2.4063,0 -4.5,-0.5 -4.7032,-0.5 -0.0937,-0.1094 -0.2968,-0.2032 -0.2968,-0.2969 0,-0.2031 0.2031,-0.3125 0.5,-0.3125 C 30.6094,60.5 35.2969,56.5 35.2969,50.1094 35.2969,44.7031 31.2031,39 23.7031,39 c -7,0 -11.4062,5.7031 -11.4062,12.2969 m 20.9062,-133.5 c 0.9063,-4 5.5,-14.5 10.7032,-14.5 1.5,0 3.8906,4.7968 3.8906,11.7968 0,10.4063 -7.6875,18.2032 -14.5938,25 -0.5937,-4 -1.0937,-7.8906 -1.0937,-12.0937 0,-3.7031 0.2969,-7.1094 1.0937,-10.2031 M 42,20.5938 c -2,0.4062 -3.8906,0.6093 -5.7969,0.6093 -14.2968,0 -26.49997,-10 -26.49997,-25.10935 0,-12.18755 8.59377,-23.09375 17.40627,-30.70315 1.6875,-1.5 3.2969,-2.8906 4.7969,-4.3906 0.8906,5.3906 1.5937,10.0937 2.2968,14.2031 -9.1093,2.7031 -15.2968,12.2969 -15.2968,21.70315 0,7 5.5,16.59375 13.5,16.59375 0.7968,0 1.7031,-0.4062 1.7031,-1.2969 0,-0.9062 -1,-1.4062 -2.2031,-2.2031 C 28,7.59375 25.7969,5 25.7969,0.09375 25.7969,-6 30.4063,-10.9063 36.2031,-12.2969 L 42,20.5938 M 56.2031,2.09375 c 0,7.10938 -2.9062,14.40625 -10,17.31255 -2.0937,-12.00005 -4.7968,-27.9063 -5.5,-32.3126 9,0 15.5,6.10942 15.5,15.00005"
         id="path80" />
      <path
         class="TimeSig"
         transform="matrix(0.992001,0,0,0.992001,443.479,435.799)"
         d="m 32.5,-17.9063 c -2.5,1.6094 -4.2969,4.5 -4.2969,7.7032 0,0.40622 0,0.79685 0.0938,1.2031 0.5,4.09375 3.8125,7.29687 7.9062,7.79687 0.2969,0 0.7969,0 1.0938,0 5,0 9,-4 9,-8.99997 0,-0.7032 0,-1.3907 -0.1875,-2.0938 -0.9063,-4.2969 -4.8125,-13.5 -21.8125,-13.5 C 2.5,-25.7969 0,-7.70313 0,-1.20313 0,10.7031 1.5,25.6094 26.5,25.6094 c 9.9063,0 17.6094,-5.8125 18,-16.51565 0,-0.5 -0.2969,-0.79687 -0.7969,-0.79687 H 42.4063 C 42,8.29688 41.6094,8.70313 41.6094,9.09375 41.2031,17.4063 35.2969,22.4063 26.5,22.4063 17.7969,22.4063 13.5938,17.7031 13.5938,8.90625 V -10.2031 c 0,-5.5938 2.2031,-12 11.1093,-12 4.7032,0 6.7969,1.7031 7.9063,3.4062 0.0937,0.2031 0.0937,0.2969 0.0937,0.5 0,0.0938 0,0.2969 -0.2031,0.3906"
         id="path81" />
      <path
         class="Rest"
         transform="matrix(0.992001,0,0,0.992001,2631.68,435.799)"
         d="M 0,-1 C 0,0.40625 0,0.40625 1.40625,0.40625 H 31.1094 c 1.3906,0 1.3906,0 1.3906,-1.40625 v -10.7969 c 0,-1.4062 0,-1.4062 -1.3906,-1.4062 H 1.40625 C 0,-13.2031 0,-13.2031 0,-11.7969 V -1"
         id="path82" />
      <path
         class="Rest"
         transform="matrix(0.992001,0,0,0.992001,2295.23,435.799)"
         d="M 0,-1 C 0,0.40625 0,0.40625 1.40625,0.40625 H 31.1094 c 1.3906,0 1.3906,0 1.3906,-1.40625 v -10.7969 c 0,-1.4062 0,-1.4062 -1.3906,-1.4062 H 1.40625 C 0,-13.2031 0,-13.2031 0,-11.7969 V -1"
         id="path83" />
      <path
         class="Beam"
         fill-rule="evenodd"
         d="m 568.758,410.984 179.934,-12.4 v 12.429 l -179.934,12.4 v -12.429"
         id="path85" />
      <path
         class="Lyrics"
         d="m 2542.2,583.575 -8.89,0.547 v 2.156 h 2.04 c 1.89,0.047 2.14,0.344 2.14,2.5 v 14.297 c -0.04,0.75 -0.09,1.047 -0.29,1.297 -0.35,0.453 -1.3,0.656 -3.46,0.703 h -0.18 v 1.797 h 12.59 v -1.797 h -0.2 c -3.3,-0.109 -3.75,-0.359 -3.75,-2.203 v -9.25 c 0,-4.453 2.45,-7.75 5.7,-7.75 2.84,0 4.3,2.047 4.3,6.094 v 11.156 c -0.05,0.656 -0.1,1 -0.35,1.25 -0.29,0.453 -1.29,0.656 -3.45,0.703 h -0.2 v 1.797 h 12.65 v -1.797 h -0.2 c -3.3,-0.109 -3.75,-0.359 -3.75,-2.156 v -8.844 c 0,-5 2.25,-8.203 5.75,-8.203 2.86,0 4.25,2.156 4.25,6.656 v 10.547 c -0.05,0.703 -0.09,1.047 -0.34,1.297 -0.3,0.453 -1.3,0.656 -3.46,0.703 h -0.2 v 1.797 h 12.66 v -1.797 h -0.21 c -3.29,-0.109 -3.75,-0.359 -3.75,-2.203 v -11.344 c 0,-3.109 -0.29,-4.156 -1.59,-5.859 -1.45,-1.844 -3.5,-2.844 -5.91,-2.844 -3.25,0 -5.65,1.547 -7.79,5 -0.86,-3 -3.57,-5 -6.91,-5 -3.05,0 -5.25,1.453 -7.2,4.594 v -3.844 m 41.9,-12.453 c -1.61,0 -2.9,1.297 -2.9,2.891 0,1.609 1.29,2.906 2.86,2.906 1.64,0 2.93,-1.297 2.93,-2.906 0,-1.594 -1.29,-2.891 -2.89,-2.891 m 2.35,12.453 -9.39,0.547 v 2.156 h 2.54 c 1.89,0.047 2.14,0.344 2.14,2.5 v 14.297 c -0.04,0.75 -0.09,1.047 -0.29,1.297 -0.35,0.453 -1.3,0.656 -3.46,0.703 h -0.34 v 1.797 h 12.95 v -1.797 h -0.36 c -3.34,-0.109 -3.79,-0.359 -3.79,-2.156 v -19.344"
         id="path86" />
      <path
         class="Lyrics"
         d="m 1246.17,583.028 h -1.75 l -1.45,1.797 c -1.8,-1.406 -3.6,-2 -6.1,-2 -4.4,0 -7.29,2.844 -7.29,7.25 0,4.703 3.04,5.891 7.04,6.844 l 2.64,0.609 c 3.96,0.938 5.36,1.938 5.36,3.938 0,2.359 -2.04,4 -4.95,4 -4.25,0 -7.25,-2.688 -8.45,-7.688 h -2 v 9.438 h 1.75 l 1.75,-2.047 c 2.04,1.656 4.29,2.453 6.86,2.453 4.89,0 8.14,-3.047 8.14,-7.703 0,-2.203 -0.71,-3.891 -2.1,-5.047 -1.2,-1.047 -2.2,-1.453 -5.25,-2.094 l -2.5,-0.562 c -2.75,-0.594 -2.75,-0.594 -3.65,-1.094 -1.1,-0.5 -1.75,-1.547 -1.75,-2.656 0,-2.047 1.9,-3.438 4.65,-3.438 4.1,0 6.1,2.891 7.3,6.391 h 1.75 v -8.391 m 16.09,-0.203 c -6.14,0 -10.89,5.453 -10.89,12.453 0,6.844 4.8,12.344 10.8,12.344 6,0 10.8,-5.5 10.8,-12.406 0,-6.844 -4.8,-12.391 -10.71,-12.391 m 0,2.141 c 3.5,0 5.46,3.656 5.46,10.25 0,6.656 -1.96,10.25 -5.55,10.25 -3.59,0 -5.55,-3.594 -5.55,-10.188 0,-6.812 1.89,-10.312 5.64,-10.312 m 22.61,-14.953 -9.25,0.562 v 2.141 h 2.46 c 1.84,0.047 2.09,0.359 2.09,2.5 v 27.859 c -0.05,0.75 -0.09,1.047 -0.3,1.297 -0.36,0.453 -1.29,0.656 -3.45,0.703 h -0.34 v 1.797 h 12.93 v -1.797 h -0.34 c -3.34,-0.109 -3.8,-0.359 -3.8,-2.156 v -32.906"
         id="path87" />
      <path
         class="Lyrics"
         d="m 1369.06,583.575 v -2.859 c 0,-2.5 0.16,-4.141 0.55,-5.141 0.81,-2.203 2.56,-3.562 4.56,-3.562 1.05,0 1.69,0.312 1.69,0.859 0,0.203 0,0.25 -0.3,0.641 -0.29,0.453 -0.45,1.062 -0.45,1.609 0,1.5 1.2,2.641 2.75,2.641 1.66,0 2.81,-1.25 2.81,-3.047 0,-2.891 -2.5,-4.703 -6.56,-4.703 -3.44,0 -6,1.203 -7.75,3.703 -1.5,2.109 -2,4.25 -2,8.312 v 1.547 h -4.39 v 2.141 h 4.39 v 17.359 c -0.05,0.703 -0.09,1 -0.3,1.297 -0.34,0.453 -1.29,0.656 -3.45,0.703 h -0.19 v 1.797 h 13.35 v -1.797 h -0.91 c -3.34,-0.109 -3.8,-0.359 -3.8,-2.156 v -17.203 h 5.5 v -2.141 h -5.5 m 28.55,7.203 c 0,-3.156 -0.55,-4.75 -2,-5.953 -1.64,-1.359 -4.09,-2 -7.3,-2 -5.64,0 -9.75,2.641 -9.75,6.297 0,1.844 1.16,3.047 2.91,3.047 1.59,0 2.7,-1.047 2.7,-2.547 0,-0.656 -0.25,-1.344 -0.75,-2.047 -0.31,-0.359 -0.36,-0.453 -0.36,-0.703 0,-1 2,-1.906 4.41,-1.906 1.59,0 3.34,0.5 4.14,1.25 0.95,0.812 1.31,2 1.31,4.25 v 1.953 c -5.2,0.906 -6.86,1.297 -9.31,2.25 -4.34,1.609 -6.39,3.906 -6.39,7.109 0,3.594 2.8,5.844 7.25,5.844 3.45,0 6.55,-1.406 8.7,-3.953 0.8,2.547 2.05,3.547 4.39,3.547 2.25,0 4.61,-1.438 4.61,-2.891 0,-0.359 -0.2,-0.609 -0.5,-0.609 -0.2,0 -0.4,0.062 -0.75,0.203 -0.7,0.297 -1,0.359 -1.4,0.359 -1.41,0 -1.91,-0.906 -1.91,-3.453 v -10.047 m -4.69,6.094 c 0,3 -0.15,3.703 -1,5 -1.25,1.844 -3.5,3.094 -5.7,3.094 -2.3,0 -3.95,-1.641 -3.95,-3.891 0,-2.109 1.04,-3.609 3.25,-4.656 1.54,-0.703 3.5,-1.203 7.4,-1.844 v 2.297"
         id="path88" />
      <path
         class="Lyrics"
         d="m 1160.53,583.028 h -1.75 l -1.46,1.797 c -1.79,-1.406 -3.59,-2 -6.09,-2 -4.41,0 -7.3,2.844 -7.3,7.25 0,4.703 3.05,5.891 7.05,6.844 l 2.64,0.609 c 3.95,0.938 5.36,1.938 5.36,3.938 0,2.359 -2.05,4 -4.95,4 -4.25,0 -7.25,-2.688 -8.46,-7.688 h -2 v 9.438 h 1.75 l 1.75,-2.047 c 2.05,1.656 4.3,2.453 6.86,2.453 4.89,0 8.14,-3.047 8.14,-7.703 0,-2.203 -0.7,-3.891 -2.09,-5.047 -1.2,-1.047 -2.2,-1.453 -5.25,-2.094 l -2.5,-0.562 c -2.75,-0.594 -2.75,-0.594 -3.66,-1.094 -1.09,-0.5 -1.75,-1.547 -1.75,-2.656 0,-2.047 1.91,-3.438 4.66,-3.438 4.09,0 6.09,2.891 7.3,6.391 h 1.75 v -8.391 m 16.09,-0.203 c -6.14,0 -10.89,5.453 -10.89,12.453 0,6.844 4.8,12.344 10.8,12.344 6,0 10.79,-5.5 10.79,-12.406 0,-6.844 -4.79,-12.391 -10.7,-12.391 m 0,2.141 c 3.5,0 5.45,3.656 5.45,10.25 0,6.656 -1.95,10.25 -5.54,10.25 -3.6,0 -5.55,-3.594 -5.55,-10.188 0,-6.812 1.89,-10.312 5.64,-10.312 m 22.61,-14.953 -9.25,0.562 v 2.141 h 2.45 c 1.85,0.047 2.1,0.359 2.1,2.5 v 27.859 c -0.05,0.75 -0.1,1.047 -0.3,1.297 -0.36,0.453 -1.3,0.656 -3.45,0.703 h -0.35 v 1.797 h 12.94 v -1.797 h -0.34 c -3.35,-0.109 -3.8,-0.359 -3.8,-2.156 v -32.906"
         id="path89" />
      <path
         class="Lyrics"
         d="m 2205.75,583.575 -8.89,0.547 v 2.156 h 2.04 c 1.89,0.047 2.14,0.344 2.14,2.5 v 14.297 c -0.04,0.75 -0.09,1.047 -0.29,1.297 -0.35,0.453 -1.3,0.656 -3.46,0.703 h -0.18 v 1.797 h 12.59 v -1.797 h -0.2 c -3.3,-0.109 -3.75,-0.359 -3.75,-2.203 v -9.25 c 0,-4.453 2.45,-7.75 5.7,-7.75 2.84,0 4.3,2.047 4.3,6.094 v 11.156 c -0.05,0.656 -0.1,1 -0.35,1.25 -0.29,0.453 -1.29,0.656 -3.45,0.703 h -0.2 v 1.797 h 12.65 v -1.797 h -0.2 c -3.3,-0.109 -3.75,-0.359 -3.75,-2.156 v -8.844 c 0,-5 2.25,-8.203 5.75,-8.203 2.86,0 4.25,2.156 4.25,6.656 v 10.547 c -0.05,0.703 -0.09,1.047 -0.34,1.297 -0.3,0.453 -1.3,0.656 -3.46,0.703 h -0.2 v 1.797 h 12.66 v -1.797 h -0.21 c -3.29,-0.109 -3.75,-0.359 -3.75,-2.203 v -11.344 c 0,-3.109 -0.29,-4.156 -1.59,-5.859 -1.45,-1.844 -3.5,-2.844 -5.91,-2.844 -3.25,0 -5.65,1.547 -7.79,5 -0.86,-3 -3.57,-5 -6.91,-5 -3.05,0 -5.25,1.453 -7.2,4.594 v -3.844 m 41.9,-12.453 c -1.61,0 -2.9,1.297 -2.9,2.891 0,1.609 1.29,2.906 2.86,2.906 1.64,0 2.93,-1.297 2.93,-2.906 0,-1.594 -1.29,-2.891 -2.89,-2.891 m 2.35,12.453 -9.39,0.547 v 2.156 h 2.54 c 1.89,0.047 2.14,0.344 2.14,2.5 v 14.297 c -0.04,0.75 -0.09,1.047 -0.29,1.297 -0.35,0.453 -1.3,0.656 -3.46,0.703 h -0.34 v 1.797 h 12.95 v -1.797 h -0.36 c -3.34,-0.109 -3.79,-0.359 -3.79,-2.156 v -19.344"
         id="path90" />
      <path
         class="Lyrics"
         d="m 1747.19,583.575 -8.86,0.547 v 2.156 h 2.05 c 1.91,0.047 2.16,0.344 2.16,2.5 v 14.297 c -0.05,0.75 -0.1,1.047 -0.3,1.297 -0.36,0.453 -1.36,0.656 -3.5,0.703 h -0.2 v 1.797 h 13.34 v -1.797 h -0.89 c -3.36,-0.109 -3.8,-0.359 -3.8,-2.156 v -2.703 c 0.05,-8.391 3.05,-14.797 6.94,-15 -0.69,0.812 -0.89,1.312 -0.89,2.25 0,1.609 1.14,2.75 2.75,2.75 1.84,0 3.05,-1.344 3.05,-3.344 0,-2.453 -1.71,-4.047 -4.35,-4.047 -3.15,0 -5.86,2.5 -7.5,6.953 v -6.203 m 35.35,12.047 c 0.04,-7.5 -4.21,-12.797 -10.3,-12.797 -6.41,0 -11.2,5.547 -11.2,13.047 0,7.047 4.54,11.75 11.29,11.75 4.8,0 8.16,-2.344 10.21,-7.094 l -1.75,-0.953 c -2.05,3.844 -4.16,5.344 -7.5,5.344 -2.55,0 -4.41,-1.047 -5.71,-3.297 -0.89,-1.5 -1.29,-3.25 -1.25,-6 h 16.21 m -16.16,-2.156 c 0,-3.5 1.61,-8.5 5.81,-8.5 3,0 5,2.656 5,6.703 0,1.406 -0.45,1.797 -2.06,1.797 h -8.75"
         id="path91" />
      <path
         class="Lyrics"
         d="m 1076.09,570.013 -9.25,0.562 v 2.141 h 2.45 c 1.85,0.047 2.1,0.359 2.1,2.5 v 27.859 c -0.05,0.75 -0.1,1.047 -0.3,1.297 -0.36,0.453 -1.3,0.656 -3.45,0.703 h -0.35 v 1.797 h 12.94 v -1.797 h -0.34 c -3.35,-0.109 -3.8,-0.359 -3.8,-2.156 v -32.906 m 28.39,20.765 c 0,-3.156 -0.55,-4.75 -2,-5.953 -1.64,-1.359 -4.09,-2 -7.3,-2 -5.64,0 -9.75,2.641 -9.75,6.297 0,1.844 1.16,3.047 2.91,3.047 1.59,0 2.7,-1.047 2.7,-2.547 0,-0.656 -0.25,-1.344 -0.75,-2.047 -0.31,-0.359 -0.36,-0.453 -0.36,-0.703 0,-1 2,-1.906 4.41,-1.906 1.59,0 3.34,0.5 4.14,1.25 0.95,0.812 1.31,2 1.31,4.25 v 1.953 c -5.2,0.906 -6.86,1.297 -9.31,2.25 -4.34,1.609 -6.39,3.906 -6.39,7.109 0,3.594 2.8,5.844 7.25,5.844 3.45,0 6.55,-1.406 8.7,-3.953 0.8,2.547 2.05,3.547 4.39,3.547 2.25,0 4.61,-1.438 4.61,-2.891 0,-0.359 -0.2,-0.609 -0.5,-0.609 -0.2,0 -0.4,0.062 -0.75,0.203 -0.7,0.297 -1,0.359 -1.4,0.359 -1.41,0 -1.91,-0.906 -1.91,-3.453 v -10.047 m -4.69,6.094 c 0,3 -0.15,3.703 -1,5 -1.25,1.844 -3.5,3.094 -5.7,3.094 -2.3,0 -3.95,-1.641 -3.95,-3.891 0,-2.109 1.04,-3.609 3.25,-4.656 1.54,-0.703 3.5,-1.203 7.4,-1.844 v 2.297"
         id="path92" />
      <path
         class="Lyrics"
         d="m 2127.06,583.028 h -1.75 l -1.46,1.797 c -1.79,-1.406 -3.59,-2 -6.09,-2 -4.41,0 -7.3,2.844 -7.3,7.25 0,4.703 3.05,5.891 7.05,6.844 l 2.64,0.609 c 3.95,0.938 5.36,1.938 5.36,3.938 0,2.359 -2.05,4 -4.95,4 -4.25,0 -7.25,-2.688 -8.46,-7.688 h -2 v 9.438 h 1.75 l 1.75,-2.047 c 2.05,1.656 4.3,2.453 6.86,2.453 4.89,0 8.14,-3.047 8.14,-7.703 0,-2.203 -0.7,-3.891 -2.09,-5.047 -1.2,-1.047 -2.2,-1.453 -5.25,-2.094 l -2.5,-0.562 c -2.75,-0.594 -2.75,-0.594 -3.66,-1.094 -1.09,-0.5 -1.75,-1.547 -1.75,-2.656 0,-2.047 1.91,-3.438 4.66,-3.438 4.09,0 6.09,2.891 7.3,6.391 h 1.75 v -8.391 m 16.09,-0.203 c -6.14,0 -10.89,5.453 -10.89,12.453 0,6.844 4.8,12.344 10.8,12.344 6,0 10.79,-5.5 10.79,-12.406 0,-6.844 -4.79,-12.391 -10.7,-12.391 m 0,2.141 c 3.5,0 5.45,3.656 5.45,10.25 0,6.656 -1.95,10.25 -5.54,10.25 -3.6,0 -5.55,-3.594 -5.55,-10.188 0,-6.812 1.89,-10.312 5.64,-10.312 m 22.61,-14.953 -9.25,0.562 v 2.141 h 2.45 c 1.85,0.047 2.1,0.359 2.1,2.5 v 27.859 c -0.05,0.75 -0.1,1.047 -0.3,1.297 -0.36,0.453 -1.3,0.656 -3.45,0.703 h -0.35 v 1.797 h 12.94 v -1.797 h -0.34 c -3.35,-0.109 -3.8,-0.359 -3.8,-2.156 v -32.906"
         id="path93" />
      <path
         class="Lyrics"
         d="m 1454.7,583.575 v -2.859 c 0,-2.5 0.16,-4.141 0.55,-5.141 0.81,-2.203 2.56,-3.562 4.56,-3.562 1.05,0 1.69,0.312 1.69,0.859 0,0.203 0,0.25 -0.3,0.641 -0.29,0.453 -0.45,1.062 -0.45,1.609 0,1.5 1.2,2.641 2.75,2.641 1.66,0 2.81,-1.25 2.81,-3.047 0,-2.891 -2.5,-4.703 -6.56,-4.703 -3.44,0 -6,1.203 -7.75,3.703 -1.5,2.109 -2,4.25 -2,8.312 v 1.547 h -4.39 v 2.141 h 4.39 v 17.359 c -0.05,0.703 -0.09,1 -0.3,1.297 -0.34,0.453 -1.29,0.656 -3.45,0.703 h -0.19 v 1.797 h 13.35 v -1.797 h -0.91 c -3.34,-0.109 -3.8,-0.359 -3.8,-2.156 v -17.203 h 5.5 v -2.141 h -5.5 m 28.55,7.203 c 0,-3.156 -0.55,-4.75 -2,-5.953 -1.64,-1.359 -4.09,-2 -7.3,-2 -5.64,0 -9.75,2.641 -9.75,6.297 0,1.844 1.16,3.047 2.91,3.047 1.59,0 2.7,-1.047 2.7,-2.547 0,-0.656 -0.25,-1.344 -0.75,-2.047 -0.31,-0.359 -0.36,-0.453 -0.36,-0.703 0,-1 2,-1.906 4.41,-1.906 1.59,0 3.34,0.5 4.14,1.25 0.95,0.812 1.31,2 1.31,4.25 v 1.953 c -5.2,0.906 -6.86,1.297 -9.31,2.25 -4.34,1.609 -6.39,3.906 -6.39,7.109 0,3.594 2.8,5.844 7.25,5.844 3.45,0 6.55,-1.406 8.7,-3.953 0.8,2.547 2.05,3.547 4.39,3.547 2.25,0 4.61,-1.438 4.61,-2.891 0,-0.359 -0.2,-0.609 -0.5,-0.609 -0.2,0 -0.4,0.062 -0.75,0.203 -0.7,0.297 -1,0.359 -1.4,0.359 -1.41,0 -1.91,-0.906 -1.91,-3.453 v -10.047 m -4.69,6.094 c 0,3 -0.15,3.703 -1,5 -1.25,1.844 -3.5,3.094 -5.7,3.094 -2.3,0 -3.95,-1.641 -3.95,-3.891 0,-2.109 1.04,-3.609 3.25,-4.656 1.54,-0.703 3.5,-1.203 7.4,-1.844 v 2.297"
         id="path94" />
      <path
         class="Lyrics"
         d="m 990.447,570.013 -9.25,0.562 v 2.141 h 2.453 c 1.844,0.047 2.094,0.359 2.094,2.5 v 27.859 c -0.047,0.75 -0.094,1.047 -0.297,1.297 -0.359,0.453 -1.297,0.656 -3.453,0.703 h -0.344 v 1.797 h 12.938 v -1.797 h -0.344 c -3.344,-0.109 -3.797,-0.359 -3.797,-2.156 v -32.906 m 28.393,20.765 c 0,-3.156 -0.55,-4.75 -2,-5.953 -1.64,-1.359 -4.1,-2 -7.3,-2 -5.64,0 -9.749,2.641 -9.749,6.297 0,1.844 1.159,3.047 2.909,3.047 1.59,0 2.7,-1.047 2.7,-2.547 0,-0.656 -0.25,-1.344 -0.75,-2.047 -0.31,-0.359 -0.36,-0.453 -0.36,-0.703 0,-1 2,-1.906 4.41,-1.906 1.59,0 3.34,0.5 4.14,1.25 0.95,0.812 1.31,2 1.31,4.25 v 1.953 c -5.2,0.906 -6.86,1.297 -9.31,2.25 -4.35,1.609 -6.393,3.906 -6.393,7.109 0,3.594 2.793,5.844 7.253,5.844 3.45,0 6.54,-1.406 8.7,-3.953 0.8,2.547 2.05,3.547 4.39,3.547 2.25,0 4.61,-1.438 4.61,-2.891 0,-0.359 -0.2,-0.609 -0.5,-0.609 -0.2,0 -0.41,0.062 -0.75,0.203 -0.7,0.297 -1,0.359 -1.41,0.359 -1.4,0 -1.9,-0.906 -1.9,-3.453 v -10.047 m -4.69,6.094 c 0,3 -0.16,3.703 -1,5 -1.25,1.844 -3.5,3.094 -5.7,3.094 -2.3,0 -3.96,-1.641 -3.96,-3.891 0,-2.109 1.05,-3.609 3.25,-4.656 1.55,-0.703 3.5,-1.203 7.41,-1.844 v 2.297"
         id="path95" />
      <path
         class="Lyrics"
         d="m 866.898,583.028 h -1.75 l -1.453,1.797 c -1.797,-1.406 -3.594,-2 -6.094,-2 -4.406,0 -7.297,2.844 -7.297,7.25 0,4.703 3.047,5.891 7.047,6.844 l 2.641,0.609 c 3.953,0.938 5.359,1.938 5.359,3.938 0,2.359 -2.047,4 -4.953,4 -4.25,0 -7.25,-2.688 -8.453,-7.688 h -2 v 9.438 h 1.75 l 1.75,-2.047 c 2.047,1.656 4.297,2.453 6.859,2.453 4.891,0 8.141,-3.047 8.141,-7.703 0,-2.203 -0.703,-3.891 -2.094,-5.047 -1.203,-1.047 -2.203,-1.453 -5.25,-2.094 l -2.5,-0.562 c -2.75,-0.594 -2.75,-0.594 -3.656,-1.094 -1.094,-0.5 -1.75,-1.547 -1.75,-2.656 0,-2.047 1.906,-3.438 4.656,-3.438 4.094,0 6.094,2.891 7.297,6.391 h 1.75 v -8.391 m 16.094,-0.203 c -6.141,0 -10.891,5.453 -10.891,12.453 0,6.844 4.797,12.344 10.797,12.344 6,0 10.797,-5.5 10.797,-12.406 0,-6.844 -4.797,-12.391 -10.703,-12.391 m 0,2.141 c 3.5,0 5.453,3.656 5.453,10.25 0,6.656 -1.953,10.25 -5.547,10.25 -3.594,0 -5.547,-3.594 -5.547,-10.188 0,-6.812 1.891,-10.312 5.641,-10.312 m 22.609,-14.953 -9.25,0.562 v 2.141 h 2.453 c 1.844,0.047 2.094,0.359 2.094,2.5 v 27.859 c -0.047,0.75 -0.094,1.047 -0.297,1.297 -0.359,0.453 -1.297,0.656 -3.453,0.703 h -0.344 v 1.797 h 12.938 v -1.797 h -0.344 c -3.344,-0.109 -3.797,-0.359 -3.797,-2.156 v -32.906"
         id="path96" />
      <path
         class="Lyrics"
         d="m 1532.85,583.575 -8.89,0.547 v 2.156 h 2.04 c 1.89,0.047 2.14,0.344 2.14,2.5 v 14.297 c -0.04,0.75 -0.09,1.047 -0.29,1.297 -0.35,0.453 -1.3,0.656 -3.46,0.703 h -0.18 v 1.797 h 12.59 v -1.797 h -0.2 c -3.3,-0.109 -3.75,-0.359 -3.75,-2.203 v -9.25 c 0,-4.453 2.45,-7.75 5.7,-7.75 2.84,0 4.3,2.047 4.3,6.094 v 11.156 c -0.05,0.656 -0.1,1 -0.35,1.25 -0.29,0.453 -1.29,0.656 -3.45,0.703 h -0.2 v 1.797 h 12.65 v -1.797 h -0.2 c -3.3,-0.109 -3.75,-0.359 -3.75,-2.156 v -8.844 c 0,-5 2.25,-8.203 5.75,-8.203 2.86,0 4.25,2.156 4.25,6.656 v 10.547 c -0.05,0.703 -0.09,1.047 -0.34,1.297 -0.3,0.453 -1.3,0.656 -3.46,0.703 h -0.2 v 1.797 h 12.66 v -1.797 H 1566 c -3.29,-0.109 -3.75,-0.359 -3.75,-2.203 v -11.344 c 0,-3.109 -0.29,-4.156 -1.59,-5.859 -1.45,-1.844 -3.5,-2.844 -5.91,-2.844 -3.25,0 -5.65,1.547 -7.79,5 -0.86,-3 -3.57,-5 -6.91,-5 -3.05,0 -5.25,1.453 -7.2,4.594 v -3.844 m 41.9,-12.453 c -1.61,0 -2.9,1.297 -2.9,2.891 0,1.609 1.29,2.906 2.86,2.906 1.64,0 2.93,-1.297 2.93,-2.906 0,-1.594 -1.29,-2.891 -2.89,-2.891 m 2.35,12.453 -9.39,0.547 v 2.156 h 2.54 c 1.89,0.047 2.14,0.344 2.14,2.5 v 14.297 c -0.04,0.75 -0.09,1.047 -0.29,1.297 -0.35,0.453 -1.3,0.656 -3.46,0.703 h -0.34 v 1.797 h 12.95 v -1.797 h -0.36 c -3.34,-0.109 -3.79,-0.359 -3.79,-2.156 v -19.344"
         id="path98" />
      <path
         class="Lyrics"
         d="m 781.256,583.028 h -1.75 l -1.453,1.797 c -1.797,-1.406 -3.594,-2 -6.094,-2 -4.406,0 -7.297,2.844 -7.297,7.25 0,4.703 3.047,5.891 7.047,6.844 l 2.641,0.609 c 3.953,0.938 5.359,1.938 5.359,3.938 0,2.359 -2.047,4 -4.953,4 -4.25,0 -7.25,-2.688 -8.453,-7.688 h -2 v 9.438 h 1.75 l 1.75,-2.047 c 2.047,1.656 4.297,2.453 6.859,2.453 4.891,0 8.141,-3.047 8.141,-7.703 0,-2.203 -0.703,-3.891 -2.094,-5.047 -1.203,-1.047 -2.203,-1.453 -5.25,-2.094 l -2.5,-0.562 c -2.75,-0.594 -2.75,-0.594 -3.656,-1.094 -1.094,-0.5 -1.75,-1.547 -1.75,-2.656 0,-2.047 1.906,-3.438 4.656,-3.438 4.094,0 6.094,2.891 7.297,6.391 h 1.75 v -8.391 m 16.094,-0.203 c -6.141,0 -10.891,5.453 -10.891,12.453 0,6.844 4.797,12.344 10.797,12.344 6,0 10.797,-5.5 10.797,-12.406 0,-6.844 -4.797,-12.391 -10.703,-12.391 m 0,2.141 c 3.5,0 5.453,3.656 5.453,10.25 0,6.656 -1.953,10.25 -5.547,10.25 -3.594,0 -5.547,-3.594 -5.547,-10.188 0,-6.812 1.891,-10.312 5.641,-10.312 m 22.609,-14.953 -9.25,0.562 v 2.141 h 2.453 c 1.844,0.047 2.094,0.359 2.094,2.5 v 27.859 c -0.047,0.75 -0.094,1.047 -0.297,1.297 -0.359,0.453 -1.297,0.656 -3.453,0.703 h -0.344 v 1.797 H 824.1 v -1.797 h -0.344 c -3.344,-0.109 -3.797,-0.359 -3.797,-2.156 v -32.906"
         id="path99" />
      <path
         class="Lyrics"
         d="m 720.123,583.575 v -2.859 c 0,-2.5 0.156,-4.141 0.547,-5.141 0.812,-2.203 2.562,-3.562 4.562,-3.562 1.047,0 1.688,0.312 1.688,0.859 0,0.203 0,0.25 -0.297,0.641 -0.297,0.453 -0.453,1.062 -0.453,1.609 0,1.5 1.203,2.641 2.75,2.641 1.656,0 2.812,-1.25 2.812,-3.047 0,-2.891 -2.5,-4.703 -6.562,-4.703 -3.438,0 -6,1.203 -7.75,3.703 -1.5,2.109 -2,4.25 -2,8.312 v 1.547 h -4.391 v 2.141 h 4.391 v 17.359 c -0.047,0.703 -0.094,1 -0.297,1.297 -0.344,0.453 -1.297,0.656 -3.453,0.703 h -0.188 v 1.797 h 13.344 v -1.797 h -0.906 c -3.344,-0.109 -3.797,-0.359 -3.797,-2.156 v -17.203 h 5.5 v -2.141 h -5.5 m 28.547,7.203 c 0,-3.156 -0.547,-4.75 -2,-5.953 -1.641,-1.359 -4.094,-2 -7.297,-2 -5.641,0 -9.75,2.641 -9.75,6.297 0,1.844 1.156,3.047 2.906,3.047 1.594,0 2.703,-1.047 2.703,-2.547 0,-0.656 -0.25,-1.344 -0.75,-2.047 -0.312,-0.359 -0.359,-0.453 -0.359,-0.703 0,-1 2,-1.906 4.406,-1.906 1.594,0 3.344,0.5 4.141,1.25 0.953,0.812 1.312,2 1.312,4.25 v 1.953 c -5.203,0.906 -6.859,1.297 -9.312,2.25 -4.344,1.609 -6.391,3.906 -6.391,7.109 0,3.594 2.797,5.844 7.25,5.844 3.453,0 6.547,-1.406 8.703,-3.953 0.797,2.547 2.047,3.547 4.391,3.547 2.25,0 4.609,-1.438 4.609,-2.891 0,-0.359 -0.203,-0.609 -0.5,-0.609 -0.203,0 -0.406,0.062 -0.75,0.203 -0.703,0.297 -1,0.359 -1.406,0.359 -1.406,0 -1.906,-0.906 -1.906,-3.453 v -10.047 m -4.688,6.094 c 0,3 -0.156,3.703 -1,5 -1.25,1.844 -3.5,3.094 -5.703,3.094 -2.297,0 -3.953,-1.641 -3.953,-3.891 0,-2.109 1.047,-3.609 3.25,-4.656 1.547,-0.703 3.5,-1.203 7.406,-1.844 v 2.297"
         id="path101" />
      <path
         class="Lyrics"
         d="m 2009.21,607.216 8.71,-0.344 v -2.156 h -0.91 c -2.84,-0.141 -3.09,-0.438 -3.09,-3.641 v -31.062 l -9.8,0.562 v 2.141 h 2.94 c 1.9,0.047 2.15,0.359 2.15,2.5 v 11.312 c -1.84,-2.562 -4,-3.703 -6.9,-3.703 -5.64,0 -9.94,5.453 -9.94,12.641 0,7.109 4.14,12.156 9.94,12.156 3.15,0 5.31,-1.344 6.9,-4.344 v 3.938 m -5.9,-21.688 c 2.06,0 4,1.5 4.9,3.797 0.66,1.5 0.96,3.547 0.96,6 0,5.844 -2.3,9.594 -5.91,9.594 -3.55,0 -5.64,-3.297 -5.64,-8.844 0,-3 0.3,-5.25 0.94,-6.906 0.86,-2.25 2.7,-3.641 4.75,-3.641 m 28.5,-2.703 c -6.14,0 -10.89,5.453 -10.89,12.453 0,6.844 4.79,12.344 10.79,12.344 6,0 10.8,-5.5 10.8,-12.406 0,-6.844 -4.8,-12.391 -10.7,-12.391 m 0,2.141 c 3.5,0 5.45,3.656 5.45,10.25 0,6.656 -1.95,10.25 -5.55,10.25 -3.59,0 -5.54,-3.594 -5.54,-10.188 0,-6.812 1.89,-10.312 5.64,-10.312"
         id="path103" />
      <path
         class="Lyrics"
         d="m 652.443,583.575 -8.891,0.547 v 2.156 h 2.047 c 1.891,0.047 2.141,0.344 2.141,2.5 v 14.297 c -0.047,0.75 -0.094,1.047 -0.297,1.297 -0.344,0.453 -1.297,0.656 -3.453,0.703 h -0.188 v 1.797 h 12.594 v -1.797 h -0.203 c -3.297,-0.109 -3.75,-0.359 -3.75,-2.203 v -9.25 c 0,-4.453 2.453,-7.75 5.703,-7.75 2.844,0 4.297,2.047 4.297,6.094 v 11.156 c -0.047,0.656 -0.094,1 -0.344,1.25 -0.297,0.453 -1.297,0.656 -3.453,0.703 h -0.203 v 1.797 h 12.656 v -1.797 h -0.203 c -3.297,-0.109 -3.75,-0.359 -3.75,-2.156 v -8.844 c 0,-5 2.25,-8.203 5.75,-8.203 2.86,0 4.25,2.156 4.25,6.656 v 10.547 c -0.047,0.703 -0.094,1.047 -0.344,1.297 -0.296,0.453 -1.296,0.656 -3.453,0.703 h -0.203 v 1.797 h 12.656 v -1.797 h -0.203 c -3.297,-0.109 -3.75,-0.359 -3.75,-2.203 v -11.344 c 0,-3.109 -0.297,-4.156 -1.593,-5.859 -1.454,-1.844 -3.5,-2.844 -5.907,-2.844 -3.25,0 -5.656,1.547 -7.797,5 -0.859,-3 -3.562,-5 -6.906,-5 -3.047,0 -5.25,1.453 -7.203,4.594 v -3.844 m 41.906,-12.453 c -1.609,0 -2.906,1.297 -2.906,2.891 0,1.609 1.297,2.906 2.859,2.906 1.641,0 2.938,-1.297 2.938,-2.906 0,-1.594 -1.297,-2.891 -2.891,-2.891 m 2.344,12.453 -9.391,0.547 v 2.156 h 2.547 c 1.891,0.047 2.141,0.344 2.141,2.5 v 14.297 c -0.047,0.75 -0.094,1.047 -0.297,1.297 -0.344,0.453 -1.297,0.656 -3.453,0.703 h -0.344 v 1.797 h 12.953 v -1.797 h -0.359 c -3.344,-0.109 -3.797,-0.359 -3.797,-2.156 v -19.344"
         id="path104" />
      <path
         class="Lyrics"
         d="m 598.622,583.575 -8.859,0.547 v 2.156 h 2.047 c 1.906,0.047 2.156,0.344 2.156,2.5 v 14.297 c -0.047,0.75 -0.094,1.047 -0.297,1.297 -0.359,0.453 -1.359,0.656 -3.5,0.703 h -0.203 v 1.797 h 13.344 v -1.797 h -0.891 c -3.359,-0.109 -3.797,-0.359 -3.797,-2.156 v -2.703 c 0.047,-8.391 3.047,-14.797 6.938,-15 -0.688,0.812 -0.891,1.312 -0.891,2.25 0,1.609 1.141,2.75 2.75,2.75 1.844,0 3.047,-1.344 3.047,-3.344 0,-2.453 -1.703,-4.047 -4.344,-4.047 -3.156,0 -5.859,2.5 -7.5,6.953 v -6.203 m 35.344,12.047 c 0.047,-7.5 -4.203,-12.797 -10.297,-12.797 -6.406,0 -11.203,5.547 -11.203,13.047 0,7.047 4.547,11.75 11.297,11.75 4.797,0 8.156,-2.344 10.203,-7.094 l -1.75,-0.953 c -2.047,3.844 -4.156,5.344 -7.5,5.344 -2.547,0 -4.406,-1.047 -5.703,-3.297 -0.891,-1.5 -1.297,-3.25 -1.25,-6 h 16.203 m -16.156,-2.156 c 0,-3.5 1.609,-8.5 5.812,-8.5 3,0 5,2.656 5,6.703 0,1.406 -0.453,1.797 -2.062,1.797 h -8.75"
         id="path106" />
      <path
         class="Lyrics"
         d="m 2463.51,583.028 h -1.75 l -1.45,1.797 c -1.8,-1.406 -3.6,-2 -6.1,-2 -4.4,0 -7.3,2.844 -7.3,7.25 0,4.703 3.05,5.891 7.05,6.844 l 2.64,0.609 c 3.96,0.938 5.36,1.938 5.36,3.938 0,2.359 -2.05,4 -4.95,4 -4.25,0 -7.25,-2.688 -8.45,-7.688 h -2 v 9.438 h 1.75 l 1.75,-2.047 c 2.04,1.656 4.29,2.453 6.85,2.453 4.9,0 8.15,-3.047 8.15,-7.703 0,-2.203 -0.71,-3.891 -2.1,-5.047 -1.2,-1.047 -2.2,-1.453 -5.25,-2.094 l -2.5,-0.562 c -2.75,-0.594 -2.75,-0.594 -3.65,-1.094 -1.1,-0.5 -1.75,-1.547 -1.75,-2.656 0,-2.047 1.9,-3.438 4.65,-3.438 4.1,0 6.1,2.891 7.3,6.391 h 1.75 v -8.391 m 16.09,-0.203 c -6.14,0 -10.89,5.453 -10.89,12.453 0,6.844 4.8,12.344 10.8,12.344 6,0 10.8,-5.5 10.8,-12.406 0,-6.844 -4.8,-12.391 -10.71,-12.391 m 0,2.141 c 3.5,0 5.46,3.656 5.46,10.25 0,6.656 -1.96,10.25 -5.55,10.25 -3.6,0 -5.55,-3.594 -5.55,-10.188 0,-6.812 1.89,-10.312 5.64,-10.312 m 22.61,-14.953 -9.25,0.562 v 2.141 h 2.45 c 1.85,0.047 2.1,0.359 2.1,2.5 v 27.859 c -0.05,0.75 -0.1,1.047 -0.3,1.297 -0.36,0.453 -1.3,0.656 -3.45,0.703 h -0.35 v 1.797 h 12.94 v -1.797 h -0.34 c -3.35,-0.109 -3.8,-0.359 -3.8,-2.156 v -32.906"
         id="path107" />
      <path
         class="Lyrics"
         d="m 546.622,607.216 8.703,-0.344 v -2.156 h -0.906 c -2.844,-0.141 -3.094,-0.438 -3.094,-3.641 v -31.062 l -9.797,0.562 v 2.141 h 2.937 c 1.907,0.047 2.157,0.359 2.157,2.5 v 11.312 c -1.844,-2.562 -4,-3.703 -6.907,-3.703 -5.64,0 -9.937,5.453 -9.937,12.641 0,7.109 4.141,12.156 9.937,12.156 3.157,0 5.313,-1.344 6.907,-4.344 v 3.938 m -5.907,-21.688 c 2.063,0 4,1.5 4.907,3.797 0.656,1.5 0.953,3.547 0.953,6 0,5.844 -2.297,9.594 -5.906,9.594 -3.547,0 -5.641,-3.297 -5.641,-8.844 0,-3 0.297,-5.25 0.937,-6.906 0.86,-2.25 2.704,-3.641 4.75,-3.641 m 28.5,-2.703 c -6.14,0 -10.89,5.453 -10.89,12.453 0,6.844 4.797,12.344 10.797,12.344 6,0 10.797,-5.5 10.797,-12.406 0,-6.844 -4.797,-12.391 -10.704,-12.391 m 0,2.141 c 3.5,0 5.454,3.656 5.454,10.25 0,6.656 -1.954,10.25 -5.547,10.25 -3.594,0 -5.547,-3.594 -5.547,-10.188 0,-6.812 1.89,-10.312 5.64,-10.312"
         id="path108" />
      <path
         class="Lyrics"
         d="m 1832.83,583.575 -8.85,0.547 v 2.156 h 2.04 c 1.91,0.047 2.16,0.344 2.16,2.5 v 14.297 c -0.05,0.75 -0.1,1.047 -0.3,1.297 -0.36,0.453 -1.36,0.656 -3.5,0.703 h -0.2 v 1.797 h 13.34 v -1.797 h -0.89 c -3.36,-0.109 -3.8,-0.359 -3.8,-2.156 v -2.703 c 0.05,-8.391 3.05,-14.797 6.94,-15 -0.69,0.812 -0.89,1.312 -0.89,2.25 0,1.609 1.14,2.75 2.75,2.75 1.85,0 3.05,-1.344 3.05,-3.344 0,-2.453 -1.7,-4.047 -4.35,-4.047 -3.15,0 -5.85,2.5 -7.5,6.953 v -6.203 m 35.35,12.047 c 0.05,-7.5 -4.2,-12.797 -10.3,-12.797 -6.4,0 -11.2,5.547 -11.2,13.047 0,7.047 4.55,11.75 11.3,11.75 4.79,0 8.15,-2.344 10.2,-7.094 l -1.75,-0.953 c -2.05,3.844 -4.16,5.344 -7.5,5.344 -2.55,0 -4.41,-1.047 -5.7,-3.297 -0.9,-1.5 -1.3,-3.25 -1.25,-6 h 16.2 m -16.16,-2.156 c 0,-3.5 1.61,-8.5 5.81,-8.5 3,0 5,2.656 5,6.703 0,1.406 -0.45,1.797 -2.06,1.797 h -8.75"
         id="path110" />
      <path
         class="Lyrics"
         d="m 1923.57,607.216 8.7,-0.344 v -2.156 h -0.9 c -2.85,-0.141 -3.1,-0.438 -3.1,-3.641 v -31.062 l -9.79,0.562 v 2.141 h 2.93 c 1.91,0.047 2.16,0.359 2.16,2.5 v 11.312 c -1.84,-2.562 -4,-3.703 -6.91,-3.703 -5.64,0 -9.93,5.453 -9.93,12.641 0,7.109 4.14,12.156 9.93,12.156 3.16,0 5.32,-1.344 6.91,-4.344 v 3.938 m -5.91,-21.688 c 2.07,0 4,1.5 4.91,3.797 0.66,1.5 0.95,3.547 0.95,6 0,5.844 -2.29,9.594 -5.9,9.594 -3.55,0 -5.64,-3.297 -5.64,-8.844 0,-3 0.29,-5.25 0.93,-6.906 0.86,-2.25 2.71,-3.641 4.75,-3.641 m 28.5,-2.703 c -6.14,0 -10.89,5.453 -10.89,12.453 0,6.844 4.8,12.344 10.8,12.344 6,0 10.8,-5.5 10.8,-12.406 0,-6.844 -4.8,-12.391 -10.71,-12.391 m 0,2.141 c 3.5,0 5.46,3.656 5.46,10.25 0,6.656 -1.96,10.25 -5.55,10.25 -3.59,0 -5.55,-3.594 -5.55,-10.188 0,-6.812 1.89,-10.312 5.64,-10.312"
         id="path111" />
      <path
         class="Lyrics"
         d="m 1618.49,583.575 -8.89,0.547 v 2.156 h 2.04 c 1.89,0.047 2.14,0.344 2.14,2.5 v 14.297 c -0.04,0.75 -0.09,1.047 -0.29,1.297 -0.35,0.453 -1.3,0.656 -3.46,0.703 h -0.18 v 1.797 h 12.59 v -1.797 h -0.2 c -3.3,-0.109 -3.75,-0.359 -3.75,-2.203 v -9.25 c 0,-4.453 2.45,-7.75 5.7,-7.75 2.84,0 4.3,2.047 4.3,6.094 v 11.156 c -0.05,0.656 -0.1,1 -0.35,1.25 -0.29,0.453 -1.29,0.656 -3.45,0.703 h -0.2 v 1.797 h 12.65 v -1.797 h -0.2 c -3.3,-0.109 -3.75,-0.359 -3.75,-2.156 v -8.844 c 0,-5 2.25,-8.203 5.75,-8.203 2.86,0 4.25,2.156 4.25,6.656 v 10.547 c -0.05,0.703 -0.09,1.047 -0.34,1.297 -0.3,0.453 -1.3,0.656 -3.46,0.703 h -0.2 v 1.797 h 12.66 v -1.797 h -0.21 c -3.29,-0.109 -3.75,-0.359 -3.75,-2.203 v -11.344 c 0,-3.109 -0.29,-4.156 -1.59,-5.859 -1.45,-1.844 -3.5,-2.844 -5.91,-2.844 -3.25,0 -5.65,1.547 -7.79,5 -0.86,-3 -3.57,-5 -6.91,-5 -3.05,0 -5.25,1.453 -7.2,4.594 v -3.844 m 41.9,-12.453 c -1.61,0 -2.9,1.297 -2.9,2.891 0,1.609 1.29,2.906 2.86,2.906 1.64,0 2.93,-1.297 2.93,-2.906 0,-1.594 -1.29,-2.891 -2.89,-2.891 m 2.35,12.453 -9.39,0.547 v 2.156 h 2.54 c 1.89,0.047 2.14,0.344 2.14,2.5 v 14.297 c -0.04,0.75 -0.09,1.047 -0.29,1.297 -0.35,0.453 -1.3,0.656 -3.46,0.703 h -0.34 v 1.797 h 12.95 v -1.797 h -0.36 c -3.34,-0.109 -3.79,-0.359 -3.79,-2.156 v -19.344"
         id="path112" />
      <path
         class="Tempo"
         d="m 474.46,250.17 h -3.266 v 42.266 c -1.093,-0.687 -2.484,-1.094 -4.062,-1.281 -3.563,0 -6.438,0.39 -9.61,2.172 -3.953,2.078 -8.312,6.437 -8.312,11.281 0,4.75 4.266,7.031 8.609,7.031 6.938,0 16.641,-5.937 16.641,-13.469 v -48"
         id="path114" />
      <path
         class="Tempo"
         d="m 496.194,288.124 h 30.235 v -6.907 h -30.235 v 6.907 m 0,12.359 h 30.235 v -6.906 h -30.235 v 6.906 m 72.078,-14.219 c 0,5.688 -0.234,17.453 -8.281,17.453 -1.265,0 -1.984,-0.422 -1.984,-1.203 0,-0.359 0.125,-0.719 0.359,-1.078 1.078,-1.734 1.203,-2.094 1.203,-3.422 0,-2.875 -2.031,-4.859 -5.031,-4.859 -3.312,0 -5.703,2.531 -5.703,6 0,4.687 4.375,7.687 11.156,7.687 13.625,0 18.844,-12.125 18.844,-24 0,-5.515 -1.203,-9.609 -3.719,-13.015 -3.062,-4.094 -7.437,-6.313 -12.484,-6.313 -8.703,0 -15,6.063 -15,14.406 0,7.079 5.047,12.297 11.875,12.297 3.719,0 6.25,-1.14 8.765,-3.953 m -5.156,-19.625 c 4.375,0 4.922,7.375 4.922,10.438 0,5.281 -1.922,8.64 -4.984,8.64 -4.75,0 -5.047,-5.75 -5.047,-9.172 0,-6.546 1.75,-9.906 5.109,-9.906 m 34.235,-3.125 c -9,0 -15.594,9.188 -15.594,21.672 0,12.469 6.594,21.656 15.594,21.656 8.812,0 15.546,-9.187 15.546,-21.359 0,-7.078 -1.625,-12.297 -5.171,-16.75 -2.813,-3.406 -6.36,-5.219 -10.375,-5.219 m -0.063,3.125 c 1.797,0 3.25,1.078 3.906,3 0.782,1.985 1.25,8.281 1.25,15.719 0,6.187 -0.468,12.656 -1.015,14.703 -0.657,2.391 -2.094,3.656 -4.141,3.656 -1.859,0 -3.234,-1.015 -3.953,-3 -0.781,-1.984 -1.266,-8.343 -1.266,-15.531 0,-6.312 0.485,-12.844 1.016,-14.891 0.672,-2.39 2.109,-3.656 4.203,-3.656"
         id="path115" />
      <path
         class="StaffText"
         d="m 808.64,323.945 h -1.891 l -1.953,3 c -3.25,-2.546 -5.453,-3.406 -9.109,-3.406 -3.953,0 -7.047,1.11 -10.203,3.656 -4.938,4 -7.25,9.047 -7.25,15.797 0,5.11 1.453,9.36 4.406,12.61 3.094,3.5 7.703,5.547 12.5,5.547 4.203,0 7.156,-1.297 10.406,-4.547 l 1.844,4.5 h 2.109 v -11 c 0,-2.547 0,-2.657 0.297,-3.11 0.453,-0.547 1.344,-0.687 4.203,-0.687 h 0.75 v -2.36 h -15.906 v 2.36 h 0.953 c 4.203,0 4.547,0.25 4.547,3.047 0,2.14 -0.344,4.093 -1,5.297 -1.25,2.453 -4.453,4.156 -7.703,4.156 -3.25,0 -6.453,-1.656 -8.156,-4.156 -1.844,-2.797 -2.641,-6.297 -2.641,-11.657 0,-11.14 3.703,-17.093 10.641,-17.093 5.703,0 9.656,4.093 11.703,12.093 h 2.156 l -0.703,-14.047"
         id="path116" />
      <path
         class="StaffText"
         d="m 2240.08,325.289 h -30.04 v 2.36 h 0.89 c 2.86,0.046 3.81,0.203 4.2,0.703 0.3,0.437 0.3,0.547 0.3,3.093 v 23.797 c 0,2.563 0,2.657 -0.3,3.11 -0.39,0.5 -1.34,0.703 -4.2,0.703 h -0.89 v 2.344 h 30.7 l 1,-13.344 h -2.2 c -1.91,8.89 -3.96,10.797 -11.61,11 h -3.3 c -3,-0.11 -3.75,-0.61 -3.59,-2.406 v -12.75 h 1 c 5.14,-0.204 7,1.656 7.2,7.203 h 2.34 v -16.407 h -2.34 c -0.31,4.907 -2.25,6.86 -7,6.86 h -1.2 v -11.406 c -0.05,-2.11 0.45,-2.454 3.14,-2.5 h 2.61 c 8.2,-0.047 10.25,1.75 11.84,10.406 h 2.16 l -0.71,-12.766"
         id="path117" />
      <path
         class="StaffText"
         d="m 894.282,323.945 h -1.891 l -1.953,3 c -3.25,-2.546 -5.453,-3.406 -9.109,-3.406 -3.953,0 -7.047,1.11 -10.203,3.656 -4.938,4 -7.25,9.047 -7.25,15.797 0,5.11 1.453,9.36 4.406,12.61 3.094,3.5 7.703,5.547 12.5,5.547 4.203,0 7.156,-1.297 10.406,-4.547 l 1.844,4.5 h 2.109 v -11 c 0,-2.547 0,-2.657 0.297,-3.11 0.453,-0.547 1.344,-0.687 4.203,-0.687 h 0.75 v -2.36 h -15.906 v 2.36 h 0.953 c 4.203,0 4.547,0.25 4.547,3.047 0,2.14 -0.344,4.093 -1,5.297 -1.25,2.453 -4.453,4.156 -7.703,4.156 -3.25,0 -6.453,-1.656 -8.156,-4.156 -1.844,-2.797 -2.641,-6.297 -2.641,-11.657 0,-11.14 3.703,-17.093 10.641,-17.093 5.703,0 9.656,4.093 11.703,12.093 h 2.156 l -0.703,-14.047"
         id="path118" />
      <path
         class="StaffText"
         d="m 1006.03,318.402 h -2.11 l -11.495,29.14 c -1.344,3.907 -2.641,5.11 -5.5,5.313 h -0.203 v 2.344 h 13.25 v -2.344 h -1 c -2.688,0 -4.047,-0.953 -4.047,-2.86 0,-0.64 0.156,-1.25 0.453,-2.093 l 1.656,-4.407 h 13.246 l 2.71,6.704 c 0.29,0.796 0.39,1.093 0.39,1.343 0,0.813 -1.25,1.313 -3.1,1.313 h -2.11 v 2.344 h 15.5 v -2.344 h -0.68 c -2.61,-0.063 -3.07,-0.36 -4.21,-3.203 l -12.75,-31.25 m -2.45,8.187 5.64,14.203 h -11.186 l 5.546,-14.203"
         id="path120" />
      <path
         class="StaffText"
         d="m 1091.68,318.402 h -2.11 l -11.5,29.14 c -1.35,3.907 -2.64,5.11 -5.5,5.313 h -0.21 v 2.344 h 13.25 v -2.344 h -1 c -2.68,0 -4.04,-0.953 -4.04,-2.86 0,-0.64 0.15,-1.25 0.45,-2.093 l 1.66,-4.407 h 13.25 l 2.7,6.704 c 0.3,0.796 0.39,1.093 0.39,1.343 0,0.813 -1.25,1.313 -3.09,1.313 h -2.11 v 2.344 h 15.5 v -2.344 h -0.69 c -2.61,-0.063 -3.06,-0.36 -4.2,-3.203 l -12.75,-31.25 m -2.46,8.187 5.64,14.203 h -11.18 l 5.54,-14.203"
         id="path121" />
      <path
         class="StaffText"
         d="M 1945.91,324.945 H 1944 l -2,2.954 c -3.64,-2.657 -5.5,-3.36 -8.95,-3.36 -4.75,0 -8.8,2 -12.14,6 -3.21,3.813 -4.71,8.016 -4.71,13.156 0,10.797 7.05,18.454 16.91,18.454 8,0 13.09,-4.704 14.25,-13.094 l -2.36,-0.406 c -1.34,7.453 -5.14,11.156 -11.3,11.156 -7.4,0 -10.9,-5.11 -10.9,-15.906 0,-5.704 0.75,-9.454 2.45,-12.454 1.55,-2.796 4.61,-4.546 7.86,-4.546 3.5,0 6.59,1.843 8.5,5.046 0.95,1.657 1.64,3.5 2.84,7.454 h 2.21 l -0.75,-14.454"
         id="path122" />
      <path
         class="StaffText"
         d="m 1187.91,323.945 h -1.89 l -1.95,3 c -3.25,-2.546 -5.46,-3.406 -9.11,-3.406 -3.95,0 -7.05,1.11 -10.2,3.656 -4.94,4 -7.25,9.047 -7.25,15.797 0,5.11 1.45,9.36 4.4,12.61 3.1,3.5 7.7,5.547 12.5,5.547 4.2,0 7.16,-1.297 10.41,-4.547 l 1.84,4.5 h 2.11 v -11 c 0,-2.547 0,-2.657 0.3,-3.11 0.45,-0.547 1.34,-0.687 4.2,-0.687 h 0.75 v -2.36 h -15.91 v 2.36 h 0.96 c 4.2,0 4.54,0.25 4.54,3.047 0,2.14 -0.34,4.093 -1,5.297 -1.25,2.453 -4.45,4.156 -7.7,4.156 -3.25,0 -6.45,-1.656 -8.15,-4.156 -1.85,-2.797 -2.65,-6.297 -2.65,-11.657 0,-11.14 3.71,-17.093 10.65,-17.093 5.7,0 9.65,4.093 11.7,12.093 h 2.15 l -0.7,-14.047"
         id="path124" />
      <path
         class="StaffText"
         d="m 1273.55,323.945 h -1.89 l -1.95,3 c -3.25,-2.546 -5.45,-3.406 -9.11,-3.406 -3.95,0 -7.05,1.11 -10.2,3.656 -4.94,4 -7.25,9.047 -7.25,15.797 0,5.11 1.45,9.36 4.4,12.61 3.1,3.5 7.71,5.547 12.5,5.547 4.21,0 7.16,-1.297 10.41,-4.547 l 1.84,4.5 h 2.11 v -11 c 0,-2.547 0,-2.657 0.3,-3.11 0.45,-0.547 1.34,-0.687 4.2,-0.687 h 0.75 v -2.36 h -15.9 v 2.36 h 0.95 c 4.2,0 4.55,0.25 4.55,3.047 0,2.14 -0.35,4.093 -1,5.297 -1.25,2.453 -4.46,4.156 -7.71,4.156 -3.25,0 -6.45,-1.656 -8.15,-4.156 -1.85,-2.797 -2.64,-6.297 -2.64,-11.657 0,-11.14 3.7,-17.093 10.64,-17.093 5.7,0 9.65,4.093 11.7,12.093 h 2.16 l -0.71,-14.047"
         id="path125" />
      <path
         class="StaffText"
         d="m 1395.6,325.289 h -29.75 v 2.36 h 0.89 c 2.86,0.046 3.82,0.203 4.21,0.703 0.29,0.437 0.29,0.547 0.29,3.093 v 23.797 c 0,2.563 0,2.657 -0.29,3.11 -0.39,0.5 -1.35,0.703 -4.21,0.703 h -0.89 v 2.344 h 17.14 v -2.344 h -1.64 c -2.86,0 -3.79,-0.203 -4.2,-0.703 -0.3,-0.453 -0.3,-0.61 -0.3,-3.11 v -11.343 h 1 c 5.14,-0.204 7,1.656 7.21,7.203 h 2.34 v -16.407 h -2.34 c -0.32,4.907 -2.25,6.797 -7,6.86 h -1.21 v -11.406 c -0.04,-2.11 0.46,-2.454 3.14,-2.5 h 2.32 c 8.2,-0.047 10.25,1.796 11.79,10.406 h 2.21 l -0.71,-12.766"
         id="path126" />
      <path
         class="StaffText"
         d="M 2490.89,323.945 H 2489 l -1.95,3 c -3.25,-2.546 -5.45,-3.406 -9.11,-3.406 -3.95,0 -7.05,1.11 -10.2,3.656 -4.94,4 -7.25,9.047 -7.25,15.797 0,5.11 1.45,9.36 4.4,12.61 3.1,3.5 7.71,5.547 12.5,5.547 4.21,0 7.16,-1.297 10.41,-4.547 l 1.84,4.5 h 2.11 v -11 c 0,-2.547 0,-2.657 0.3,-3.11 0.45,-0.547 1.34,-0.687 4.2,-0.687 h 0.75 v -2.36 h -15.9 v 2.36 h 0.95 c 4.2,0 4.55,0.25 4.55,3.047 0,2.14 -0.35,4.093 -1,5.297 -1.25,2.453 -4.46,4.156 -7.71,4.156 -3.25,0 -6.45,-1.656 -8.15,-4.156 -1.85,-2.797 -2.64,-6.297 -2.64,-11.657 0,-11.14 3.7,-17.093 10.64,-17.093 5.7,0 9.65,4.093 11.7,12.093 h 2.16 l -0.71,-14.047"
         id="path128" />
      <path
         class="StaffText"
         d="m 1481.24,325.289 h -29.75 v 2.36 h 0.89 c 2.86,0.046 3.82,0.203 4.21,0.703 0.29,0.437 0.29,0.547 0.29,3.093 v 23.797 c 0,2.563 0,2.657 -0.29,3.11 -0.39,0.5 -1.35,0.703 -4.21,0.703 h -0.89 v 2.344 h 17.14 v -2.344 h -1.64 c -2.86,0 -3.79,-0.203 -4.2,-0.703 -0.3,-0.453 -0.3,-0.61 -0.3,-3.11 v -11.343 h 1 c 5.14,-0.204 7,1.656 7.21,7.203 h 2.34 v -16.407 h -2.34 c -0.32,4.907 -2.25,6.797 -7,6.86 h -1.21 v -11.406 c -0.04,-2.11 0.46,-2.454 3.14,-2.5 h 2.32 c 8.2,-0.047 10.25,1.796 11.79,10.406 h 2.21 l -0.71,-12.766"
         id="path129" />
      <path
         class="StaffText"
         d="m 1567.18,325.289 h -30.04 v 2.36 h 0.89 c 2.86,0.046 3.81,0.203 4.2,0.703 0.3,0.437 0.3,0.547 0.3,3.093 v 23.797 c 0,2.563 0,2.657 -0.3,3.11 -0.39,0.5 -1.34,0.703 -4.2,0.703 h -0.89 v 2.344 h 30.7 l 1,-13.344 h -2.2 c -1.91,8.89 -3.96,10.797 -11.61,11 h -3.3 c -3,-0.11 -3.75,-0.61 -3.59,-2.406 v -12.75 h 1 c 5.14,-0.204 7,1.656 7.2,7.203 h 2.34 v -16.407 h -2.34 c -0.31,4.907 -2.25,6.86 -7,6.86 h -1.2 v -11.406 c -0.05,-2.11 0.45,-2.454 3.14,-2.5 h 2.61 c 8.2,-0.047 10.25,1.75 11.84,10.406 h 2.16 l -0.71,-12.766"
         id="path130" />
      <path
         class="StaffText"
         d="m 2031.55,324.945 h -1.91 l -2,2.954 c -3.64,-2.657 -5.5,-3.36 -8.95,-3.36 -4.75,0 -8.8,2 -12.14,6 -3.2,3.813 -4.7,8.016 -4.7,13.156 0,10.797 7.04,18.454 16.9,18.454 8,0 13.1,-4.704 14.25,-13.094 l -2.36,-0.406 c -1.34,7.453 -5.14,11.156 -11.29,11.156 -7.41,0 -10.91,-5.11 -10.91,-15.906 0,-5.704 0.75,-9.454 2.45,-12.454 1.55,-2.796 4.61,-4.546 7.86,-4.546 3.5,0 6.6,1.843 8.5,5.046 0.96,1.657 1.64,3.5 2.85,7.454 h 2.2 l -0.75,-14.454"
         id="path132" />
      <path
         class="StaffText"
         d="m 2576.53,325.289 h -30.04 v 2.36 h 0.89 c 2.86,0.046 3.81,0.203 4.2,0.703 0.3,0.437 0.3,0.547 0.3,3.093 v 23.797 c 0,2.563 0,2.657 -0.3,3.11 -0.39,0.5 -1.34,0.703 -4.2,0.703 h -0.89 v 2.344 h 30.7 l 1,-13.344 h -2.2 c -1.91,8.89 -3.96,10.797 -11.61,11 h -3.3 c -3,-0.11 -3.75,-0.61 -3.59,-2.406 v -12.75 h 1 c 5.14,-0.204 7,1.656 7.2,7.203 h 2.34 v -16.407 h -2.34 c -0.31,4.907 -2.25,6.86 -7,6.86 h -1.2 v -11.406 c -0.05,-2.11 0.45,-2.454 3.14,-2.5 h 2.61 c 8.2,-0.047 10.25,1.75 11.84,10.406 h 2.16 l -0.71,-12.766"
         id="path133" />
      <path
         class="StaffText"
         d="m 1652.82,325.289 h -30.04 v 2.36 h 0.89 c 2.86,0.046 3.81,0.203 4.2,0.703 0.3,0.437 0.3,0.547 0.3,3.093 v 23.797 c 0,2.563 0,2.657 -0.3,3.11 -0.39,0.5 -1.34,0.703 -4.2,0.703 h -0.89 v 2.344 h 30.7 l 1,-13.344 h -2.2 c -1.91,8.89 -3.96,10.797 -11.61,11 h -3.3 c -3,-0.11 -3.75,-0.61 -3.59,-2.406 v -12.75 h 1 c 5.14,-0.204 7,1.656 7.2,7.203 h 2.34 v -16.407 h -2.34 c -0.31,4.907 -2.25,6.86 -7,6.86 h -1.2 v -11.406 c -0.05,-2.11 0.45,-2.454 3.14,-2.5 h 2.61 c 8.2,-0.047 10.25,1.75 11.84,10.406 h 2.16 l -0.71,-12.766"
         id="path134" />
      <path
         class="StaffText"
         d="m 686.78,325.289 h -30.047 v 2.36 h 0.891 c 2.859,0.046 3.812,0.203 4.203,0.703 0.297,0.437 0.297,0.547 0.297,3.093 v 23.797 c 0,2.563 0,2.657 -0.297,3.11 -0.391,0.5 -1.344,0.703 -4.203,0.703 h -0.891 v 2.344 h 30.703 l 1,-13.344 h -2.203 c -1.906,8.89 -3.953,10.797 -11.609,11 h -3.297 c -3,-0.11 -3.75,-0.61 -3.594,-2.406 v -12.75 h 1 c 5.141,-0.204 7,1.656 7.203,7.203 h 2.344 v -16.407 h -2.344 c -0.312,4.907 -2.25,6.86 -7,6.86 h -1.203 v -11.406 c -0.047,-2.11 0.453,-2.454 3.141,-2.5 h 2.609 c 8.203,-0.047 10.25,1.75 11.844,10.406 h 2.156 l -0.703,-12.766"
         id="path135" />
      <path
         class="StaffText"
         d="m 568.959,324.945 h -1.907 l -2,2.954 c -3.64,-2.657 -5.5,-3.36 -8.953,-3.36 -4.75,0 -8.797,2 -12.14,6 -3.203,3.813 -4.703,8.016 -4.703,13.156 0,10.797 7.046,18.454 16.906,18.454 8,0 13.094,-4.704 14.25,-13.094 l -2.36,-0.406 c -1.343,7.453 -5.14,11.156 -11.296,11.156 -7.407,0 -10.907,-5.11 -10.907,-15.906 0,-5.704 0.75,-9.454 2.453,-12.454 1.547,-2.796 4.61,-4.546 7.86,-4.546 3.5,0 6.594,1.843 8.5,5.046 0.953,1.657 1.64,3.5 2.844,7.454 h 2.203 l -0.75,-14.454"
         id="path136" />
      <path
         class="StaffText"
         d="m 1745.12,361.399 h 16.8 c 4.45,0 7.86,-0.704 10.5,-2.204 5.05,-2.843 7.86,-8.546 7.86,-16.046 0,-6.907 -2.5,-12.297 -7.11,-15.297 -2.75,-1.75 -6.45,-2.563 -12.16,-2.563 h -15.89 v 2.36 h 0.96 c 2.79,0.046 3.75,0.203 4.14,0.703 0.29,0.437 0.29,0.547 0.29,3.093 v 23.797 c 0,2.563 0,2.657 -0.29,3.11 -0.39,0.5 -1.35,0.64 -4.14,0.703 h -0.96 v 2.344 m 13.85,-2.344 c -2.55,0 -2.85,-0.313 -2.85,-2.75 v -25.86 c 0,-2.453 0.35,-2.796 2.85,-2.796 h 2.61 c 8.54,0 12.09,4.64 12.09,15.703 0,11.203 -3.2,15.703 -11.3,15.703 h -3.4"
         id="path138" />
      <path
         class="StaffText"
         d="m 596.553,361.399 h 16.797 c 4.453,0 7.859,-0.704 10.5,-2.204 5.047,-2.843 7.859,-8.546 7.859,-16.046 0,-6.907 -2.5,-12.297 -7.109,-15.297 -2.75,-1.75 -6.453,-2.563 -12.156,-2.563 h -15.891 v 2.36 h 0.953 c 2.797,0.046 3.75,0.203 4.141,0.703 0.297,0.437 0.297,0.547 0.297,3.093 v 23.797 c 0,2.563 0,2.657 -0.297,3.11 -0.391,0.5 -1.344,0.64 -4.141,0.703 h -0.953 v 2.344 m 13.844,-2.344 c -2.547,0 -2.844,-0.313 -2.844,-2.75 v -25.86 c 0,-2.453 0.344,-2.796 2.844,-2.796 h 2.609 c 8.547,0 12.094,4.64 12.094,15.703 0,11.203 -3.203,15.703 -11.297,15.703 h -3.406"
         id="path139" />
      <path
         class="StaffText"
         d="m 2154.44,323.945 h -1.89 l -1.95,3 c -3.25,-2.546 -5.46,-3.406 -9.11,-3.406 -3.95,0 -7.05,1.11 -10.2,3.656 -4.94,4 -7.25,9.047 -7.25,15.797 0,5.11 1.45,9.36 4.4,12.61 3.1,3.5 7.7,5.547 12.5,5.547 4.2,0 7.16,-1.297 10.41,-4.547 l 1.84,4.5 h 2.11 v -11 c 0,-2.547 0,-2.657 0.3,-3.11 0.45,-0.547 1.34,-0.687 4.2,-0.687 h 0.75 v -2.36 h -15.91 v 2.36 h 0.96 c 4.2,0 4.54,0.25 4.54,3.047 0,2.14 -0.34,4.093 -1,5.297 -1.25,2.453 -4.45,4.156 -7.7,4.156 -3.25,0 -6.45,-1.656 -8.15,-4.156 -1.85,-2.797 -2.65,-6.297 -2.65,-11.657 0,-11.14 3.71,-17.093 10.65,-17.093 5.7,0 9.65,4.093 11.7,12.093 h 2.15 l -0.7,-14.047"
         id="path140" />
      <path
         class="StaffText"
         d="m 746.663,325.289 h -29.75 v 2.36 h 0.891 c 2.859,0.046 3.812,0.203 4.203,0.703 0.297,0.437 0.297,0.547 0.297,3.093 v 23.797 c 0,2.563 0,2.657 -0.297,3.11 -0.391,0.5 -1.344,0.703 -4.203,0.703 h -0.891 v 2.344 h 17.141 v -2.344 h -1.641 c -2.859,0 -3.797,-0.203 -4.203,-0.703 -0.297,-0.453 -0.297,-0.61 -0.297,-3.11 v -11.343 h 1 c 5.141,-0.204 7,1.656 7.203,7.203 h 2.344 v -16.407 h -2.344 c -0.312,4.907 -2.25,6.797 -7,6.86 h -1.203 v -11.406 c -0.047,-2.11 0.453,-2.454 3.141,-2.5 h 2.312 c 8.203,-0.047 10.25,1.796 11.797,10.406 h 2.203 l -0.703,-12.766"
         id="path142" />
      <path
         class="StaffText"
         d="m 1830.77,361.399 h 16.79 c 4.46,0 7.86,-0.704 10.5,-2.204 5.05,-2.843 7.86,-8.546 7.86,-16.046 0,-6.907 -2.5,-12.297 -7.11,-15.297 -2.75,-1.75 -6.45,-2.563 -12.15,-2.563 h -15.89 v 2.36 h 0.95 c 2.8,0.046 3.75,0.203 4.14,0.703 0.3,0.437 0.3,0.547 0.3,3.093 v 23.797 c 0,2.563 0,2.657 -0.3,3.11 -0.39,0.5 -1.34,0.64 -4.14,0.703 h -0.95 v 2.344 m 13.84,-2.344 c -2.55,0 -2.84,-0.313 -2.84,-2.75 v -25.86 c 0,-2.453 0.34,-2.796 2.84,-2.796 h 2.61 c 8.55,0 12.09,4.64 12.09,15.703 0,11.203 -3.2,15.703 -11.29,15.703 h -3.41"
         id="path143" />
    </g>
  </g>
  <metadata
     id="metadata145">
    <rdf:RDF>
      <cc:Work
         rdf:about="">
        <dc:title>76</dc:title>
      </cc:Work>
    </rdf:RDF>
  </metadata>
</svg>
