<?xml version="1.0" encoding="UTF-8" standalone="no"?>
<svg
   width="2555"
   height="700"
   viewBox="0 0 2555 700.00002"
   version="1.2"
   id="svg167"
   sodipodi:docname="84-1.svg"
   inkscape:version="1.3 (0e150ed6c4, 2023-07-21)"
   xmlns:inkscape="http://www.inkscape.org/namespaces/inkscape"
   xmlns:sodipodi="http://sodipodi.sourceforge.net/DTD/sodipodi-0.dtd"
   xmlns="http://www.w3.org/2000/svg"
   xmlns:svg="http://www.w3.org/2000/svg"
   xmlns:rdf="http://www.w3.org/1999/02/22-rdf-syntax-ns#"
   xmlns:cc="http://creativecommons.org/ns#"
   xmlns:dc="http://purl.org/dc/elements/1.1/">
  <defs
     id="defs167" />
  <sodipodi:namedview
     id="namedview167"
     pagecolor="#505050"
     bordercolor="#ffffff"
     borderopacity="1"
     inkscape:showpageshadow="0"
     inkscape:pageopacity="0"
     inkscape:pagecheckerboard="1"
     inkscape:deskcolor="#505050"
     inkscape:zoom="0.11904762"
     inkscape:cx="1491"
     inkscape:cy="2104.2"
     inkscape:window-width="1680"
     inkscape:window-height="979"
     inkscape:window-x="1358"
     inkscape:window-y="-8"
     inkscape:window-maximized="1"
     inkscape:current-layer="svg167" />
  <title
     id="title1">84</title>
  <desc
     id="desc1">Generated by MuseScore Studio 4.3.0</desc>
  <g
     id="g169"
     transform="translate(-211.099,-208.89401)">
    <g
       id="g168">
      <polyline
         class="StaffLines"
         fill="none"
         stroke="#000000"
         stroke-width="2.73"
         stroke-linejoin="bevel"
         points="336.599,386.199 2764.6,386.199"
         id="polyline1" />
      <polyline
         class="StaffLines"
         fill="none"
         stroke="#000000"
         stroke-width="2.73"
         stroke-linejoin="bevel"
         points="336.599,410.999 2764.6,410.999"
         id="polyline2" />
      <polyline
         class="StaffLines"
         fill="none"
         stroke="#000000"
         stroke-width="2.73"
         stroke-linejoin="bevel"
         points="336.599,435.799 2764.6,435.799"
         id="polyline3" />
      <polyline
         class="StaffLines"
         fill="none"
         stroke="#000000"
         stroke-width="2.73"
         stroke-linejoin="bevel"
         points="336.599,460.599 2764.6,460.599"
         id="polyline4" />
      <polyline
         class="StaffLines"
         fill="none"
         stroke="#000000"
         stroke-width="2.73"
         stroke-linejoin="bevel"
         points="336.599,485.399 2764.6,485.399"
         id="polyline5" />
      <polyline
         class="BarLine"
         fill="none"
         stroke="#000000"
         stroke-width="4.46"
         stroke-linejoin="bevel"
         points="1359.32,384.835 1359.32,486.763"
         id="polyline11" />
      <polyline
         class="BarLine"
         fill="none"
         stroke="#000000"
         stroke-width="4.46"
         stroke-linejoin="bevel"
         points="1879.61,384.835 1879.61,486.763"
         id="polyline12" />
      <polyline
         class="BarLine"
         fill="none"
         stroke="#000000"
         stroke-width="4.46"
         stroke-linejoin="bevel"
         points="949.825,384.835 949.825,486.763"
         id="polyline13" />
      <polyline
         class="BarLine"
         fill="none"
         stroke="#000000"
         stroke-width="4.46"
         stroke-linejoin="bevel"
         points="2399.89,384.835 2399.89,486.763"
         id="polyline14" />
      <polyline
         class="BarLine"
         fill="none"
         stroke="#000000"
         stroke-width="4.46"
         stroke-linejoin="bevel"
         points="2762.37,384.835 2762.37,486.763"
         id="polyline15" />
      <polyline
         class="Stem"
         fill="none"
         stroke="#000000"
         stroke-width="2.48"
         stroke-linejoin="bevel"
         points="821.354,427.565 821.354,503.999"
         id="polyline18" />
      <polyline
         class="Stem"
         fill="none"
         stroke="#000000"
         stroke-width="2.48"
         stroke-linejoin="bevel"
         points="2058.38,431.831 2058.38,369.68"
         id="polyline19" />
      <polyline
         class="Stem"
         fill="none"
         stroke="#000000"
         stroke-width="2.48"
         stroke-linejoin="bevel"
         points="1424.79,444.231 1424.79,373.754"
         id="polyline20" />
      <polyline
         class="Stem"
         fill="none"
         stroke="#000000"
         stroke-width="2.48"
         stroke-linejoin="bevel"
         points="614.932,469.031 614.932,386.072"
         id="polyline21" />
      <polyline
         class="Stem"
         fill="none"
         stroke="#000000"
         stroke-width="2.48"
         stroke-linejoin="bevel"
         points="1481.44,444.231 1481.44,371.717"
         id="polyline22" />
      <polyline
         class="Stem"
         fill="none"
         stroke="#000000"
         stroke-width="2.48"
         stroke-linejoin="bevel"
         points="2001.73,444.231 2001.73,371.717"
         id="polyline23" />
      <polyline
         class="Stem"
         fill="none"
         stroke="#000000"
         stroke-width="2.48"
         stroke-linejoin="bevel"
         points="1538.1,431.831 1538.1,369.68"
         id="polyline24" />
      <polyline
         class="Stem"
         fill="none"
         stroke="#000000"
         stroke-width="2.48"
         stroke-linejoin="bevel"
         points="1594.76,431.831 1594.76,367.643"
         id="polyline25" />
      <polyline
         class="Stem"
         fill="none"
         stroke="#000000"
         stroke-width="2.48"
         stroke-linejoin="bevel"
         points="2289.54,456.631 2289.54,383.884"
         id="polyline26" />
      <polyline
         class="Stem"
         fill="none"
         stroke="#000000"
         stroke-width="2.48"
         stroke-linejoin="bevel"
         points="676.612,456.631 676.612,379.768"
         id="polyline27" />
      <polyline
         class="Stem"
         fill="none"
         stroke="#000000"
         stroke-width="2.48"
         stroke-linejoin="bevel"
         points="1651.42,444.231 1651.42,380.039"
         id="polyline28" />
      <polyline
         class="Stem"
         fill="none"
         stroke="#000000"
         stroke-width="2.48"
         stroke-linejoin="bevel"
         points="2359.22,456.631 2359.22,386.158"
         id="polyline29" />
      <polyline
         class="Stem"
         fill="none"
         stroke="#000000"
         stroke-width="2.48"
         stroke-linejoin="bevel"
         points="737.792,444.231 737.792,373.516"
         id="polyline30" />
      <polyline
         class="Stem"
         fill="none"
         stroke="#000000"
         stroke-width="2.48"
         stroke-linejoin="bevel"
         points="2550.34,469.031 2550.34,386.069"
         id="polyline31" />
      <polyline
         class="Stem"
         fill="none"
         stroke="#000000"
         stroke-width="2.48"
         stroke-linejoin="bevel"
         points="2606.99,444.231 2606.99,380.129"
         id="polyline32" />
      <polyline
         class="Stem"
         fill="none"
         stroke="#000000"
         stroke-width="2.48"
         stroke-linejoin="bevel"
         points="2228.36,444.231 2228.36,381.888"
         id="polyline33" />
      <polyline
         class="Stem"
         fill="none"
         stroke="#000000"
         stroke-width="2.48"
         stroke-linejoin="bevel"
         points="794.45,431.831 794.45,367.725"
         id="polyline34" />
      <polyline
         class="Stem"
         fill="none"
         stroke="#000000"
         stroke-width="2.48"
         stroke-linejoin="bevel"
         points="2633.9,427.565 2633.9,503.999"
         id="polyline35" />
      <polyline
         class="Stem"
         fill="none"
         stroke="#000000"
         stroke-width="2.48"
         stroke-linejoin="bevel"
         points="1769.25,456.631 1769.25,383.884"
         id="polyline36" />
      <polyline
         class="Stem"
         fill="none"
         stroke="#000000"
         stroke-width="2.48"
         stroke-linejoin="bevel"
         points="2465.35,469.031 2465.35,386.199"
         id="polyline41" />
      <polyline
         class="Stem"
         fill="none"
         stroke="#000000"
         stroke-width="2.48"
         stroke-linejoin="bevel"
         points="985.537,439.965 985.537,510.199"
         id="polyline42" />
      <polyline
         class="Stem"
         fill="none"
         stroke="#000000"
         stroke-width="2.48"
         stroke-linejoin="bevel"
         points="1838.93,456.631 1838.93,386.158"
         id="polyline43" />
      <polyline
         class="Stem"
         fill="none"
         stroke="#000000"
         stroke-width="2.48"
         stroke-linejoin="bevel"
         points="2171.7,444.231 2171.7,380.039"
         id="polyline44" />
      <polyline
         class="Stem"
         fill="none"
         stroke="#000000"
         stroke-width="2.48"
         stroke-linejoin="bevel"
         points="1100.28,431.831 1100.28,367.729"
         id="polyline45" />
      <polyline
         class="Stem"
         fill="none"
         stroke="#000000"
         stroke-width="2.48"
         stroke-linejoin="bevel"
         points="1945.07,444.231 1945.07,373.754"
         id="polyline46" />
      <polyline
         class="Stem"
         fill="none"
         stroke="#000000"
         stroke-width="2.48"
         stroke-linejoin="bevel"
         points="1156.93,444.231 1156.93,373.669"
         id="polyline47" />
      <polyline
         class="Stem"
         fill="none"
         stroke="#000000"
         stroke-width="2.48"
         stroke-linejoin="bevel"
         points="1708.07,444.231 1708.07,381.888"
         id="polyline48" />
      <polyline
         class="Stem"
         fill="none"
         stroke="#000000"
         stroke-width="2.48"
         stroke-linejoin="bevel"
         points="2115.04,431.831 2115.04,367.643"
         id="polyline49" />
      <polyline
         class="Stem"
         fill="none"
         stroke="#000000"
         stroke-width="2.48"
         stroke-linejoin="bevel"
         points="1218.11,456.631 1218.11,373.799"
         id="polyline50" />
      <polyline
         class="Stem"
         fill="none"
         stroke="#000000"
         stroke-width="2.48"
         stroke-linejoin="bevel"
         points="1273.35,427.565 1273.35,503.999"
         id="polyline51" />
      <path
         class="Note"
         transform="matrix(0.992001,0,0,0.992001,1914.08,448.199)"
         d="M 0,4.20313 C 0,8.5 3.09375,13.2969 11.2031,13.2969 21.5938,13.2969 32.5,4.79688 32.5,-4 c 0,-5.90625 -5,-9.2031 -11.2031,-9.2031 C 11.5938,-13.2031 0,-5 0,4.20313"
         id="path51" />
      <path
         class="Note"
         transform="matrix(0.992001,0,0,0.992001,1272.11,423.399)"
         d="M 0,4.20313 C 0,8.5 3.09375,13.2969 11.2031,13.2969 21.5938,13.2969 32.5,4.79688 32.5,-4 c 0,-5.90625 -5,-9.2031 -11.2031,-9.2031 C 11.5938,-13.2031 0,-5 0,4.20313"
         id="path52" />
      <path
         class="Note"
         transform="matrix(0.992001,0,0,0.992001,583.94,472.999)"
         d="M 0,4.20313 C 0,8.5 3.09375,13.2969 11.2031,13.2969 21.5938,13.2969 32.5,4.79688 32.5,-4 c 0,-5.90625 -5,-9.2031 -11.2031,-9.2031 C 11.5938,-13.2031 0,-5 0,4.20313"
         id="path54" />
      <path
         class="Note"
         transform="matrix(0.992001,0,0,0.992001,1393.8,448.199)"
         d="M 0,4.20313 C 0,8.5 3.09375,13.2969 11.2031,13.2969 21.5938,13.2969 32.5,4.79688 32.5,-4 c 0,-5.90625 -5,-9.2031 -11.2031,-9.2031 C 11.5938,-13.2031 0,-5 0,4.20313"
         id="path55" />
      <path
         class="Note"
         transform="matrix(0.992001,0,0,0.992001,763.457,435.799)"
         d="M 0,4.20313 C 0,8.5 3.09375,13.2969 11.2031,13.2969 21.5938,13.2969 32.5,4.79688 32.5,-4 c 0,-5.90625 -5,-9.2031 -11.2031,-9.2031 C 11.5938,-13.2031 0,-5 0,4.20313"
         id="path56" />
      <path
         class="Note"
         transform="matrix(0.992001,0,0,0.992001,2258.54,460.599)"
         d="M 0,4.20313 C 0,8.5 3.09375,13.2969 11.2031,13.2969 21.5938,13.2969 32.5,4.79688 32.5,-4 c 0,-5.90625 -5,-9.2031 -11.2031,-9.2031 C 11.5938,-13.2031 0,-5 0,4.20313"
         id="path57" />
      <path
         class="Note"
         transform="matrix(0.992001,0,0,0.992001,2197.36,448.199)"
         d="M 0,4.20313 C 0,8.5 3.09375,13.2969 11.2031,13.2969 21.5938,13.2969 32.5,4.79688 32.5,-4 c 0,-5.90625 -5,-9.2031 -11.2031,-9.2031 C 11.5938,-13.2031 0,-5 0,4.20313"
         id="path58" />
      <path
         class="Note"
         transform="matrix(0.992001,0,0,0.992001,706.8,448.199)"
         d="M 0,4.20313 C 0,8.5 3.09375,13.2969 11.2031,13.2969 21.5938,13.2969 32.5,4.79688 32.5,-4 c 0,-5.90625 -5,-9.2031 -11.2031,-9.2031 C 11.5938,-13.2031 0,-5 0,4.20313"
         id="path59" />
      <path
         class="Note"
         transform="matrix(0.992001,0,0,0.992001,1620.42,448.199)"
         d="M 0,4.20313 C 0,8.5 3.09375,13.2969 11.2031,13.2969 21.5938,13.2969 32.5,4.79688 32.5,-4 c 0,-5.90625 -5,-9.2031 -11.2031,-9.2031 C 11.5938,-13.2031 0,-5 0,4.20313"
         id="path60" />
      <path
         class="Note"
         transform="matrix(0.992001,0,0,0.992001,1507.11,435.799)"
         d="M 0,4.20313 C 0,8.5 3.09375,13.2969 11.2031,13.2969 21.5938,13.2969 32.5,4.79688 32.5,-4 c 0,-5.90625 -5,-9.2031 -11.2031,-9.2031 C 11.5938,-13.2031 0,-5 0,4.20313"
         id="path62" />
      <path
         class="Note"
         transform="matrix(0.992001,0,0,0.992001,645.62,460.599)"
         d="M 0,4.20313 C 0,8.5 3.09375,13.2969 11.2031,13.2969 21.5938,13.2969 32.5,4.79688 32.5,-4 c 0,-5.90625 -5,-9.2031 -11.2031,-9.2031 C 11.5938,-13.2031 0,-5 0,4.20313"
         id="path64" />
      <path
         class="Note"
         transform="matrix(0.992001,0,0,0.992001,820.114,423.399)"
         d="M 21.2969,-13.2031 C 11.5938,-13.2031 0,-5.09375 0,4.20313 0,8.5 3.09375,13.2969 11.2031,13.2969 21.5938,13.2969 32.5,4.79688 32.5,-4 c 0,-5.90625 -5,-9.2031 -11.2031,-9.2031 M 7.5,8.59375 C 4.20313,8.59375 3.5,5.90625 3.5,5 3.5,0.09375 20.2969,-8.5 25,-8.5 c 2.4063,0 4,1.40625 4,3.59375 0,5 -16.9062,13.5 -21.5,13.5"
         id="path65" />
      <path
         class="Note"
         transform="matrix(0.992001,0,0,0.992001,1807.94,460.599)"
         d="M 0,4.20313 C 0,8.5 3.09375,13.2969 11.2031,13.2969 21.5938,13.2969 32.5,4.79688 32.5,-4 c 0,-5.90625 -5,-9.2031 -11.2031,-9.2031 C 11.5938,-13.2031 0,-5 0,4.20313"
         id="path66" />
      <path
         class="Note"
         transform="matrix(0.992001,0,0,0.992001,2140.71,448.199)"
         d="M 0,4.20313 C 0,8.5 3.09375,13.2969 11.2031,13.2969 21.5938,13.2969 32.5,4.79688 32.5,-4 c 0,-5.90625 -5,-9.2031 -11.2031,-9.2031 C 11.5938,-13.2031 0,-5 0,4.20313"
         id="path67" />
      <path
         class="Note"
         transform="matrix(0.992001,0,0,0.992001,1563.77,435.799)"
         d="M 0,4.20313 C 0,8.5 3.09375,13.2969 11.2031,13.2969 21.5938,13.2969 32.5,4.79688 32.5,-4 c 0,-5.90625 -5,-9.2031 -11.2031,-9.2031 C 11.5938,-13.2031 0,-5 0,4.20313"
         id="path69" />
      <path
         class="Note"
         transform="matrix(0.992001,0,0,0.992001,1738.26,460.599)"
         d="M 0,4.20313 C 0,8.5 3.09375,13.2969 11.2031,13.2969 21.5938,13.2969 32.5,4.79688 32.5,-4 c 0,-5.90625 -5,-9.2031 -11.2031,-9.2031 C 11.5938,-13.2031 0,-5 0,4.20313"
         id="path70" />
      <path
         class="Note"
         transform="matrix(0.992001,0,0,0.992001,1677.08,448.199)"
         d="M 0,4.20313 C 0,8.5 3.09375,13.2969 11.2031,13.2969 21.5938,13.2969 32.5,4.79688 32.5,-4 c 0,-5.90625 -5,-9.2031 -11.2031,-9.2031 C 11.5938,-13.2031 0,-5 0,4.20313"
         id="path71" />
      <path
         class="Note"
         transform="matrix(0.992001,0,0,0.992001,2328.22,460.599)"
         d="M 0,4.20313 C 0,8.5 3.09375,13.2969 11.2031,13.2969 21.5938,13.2969 32.5,4.79688 32.5,-4 c 0,-5.90625 -5,-9.2031 -11.2031,-9.2031 C 11.5938,-13.2031 0,-5 0,4.20313"
         id="path72" />
      <path
         class="Note"
         transform="matrix(0.992001,0,0,0.992001,1187.12,460.599)"
         d="M 0,4.20313 C 0,8.5 3.09375,13.2969 11.2031,13.2969 21.5938,13.2969 32.5,4.79688 32.5,-4 c 0,-5.90625 -5,-9.2031 -11.2031,-9.2031 C 11.5938,-13.2031 0,-5 0,4.20313"
         id="path73" />
      <path
         class="Note"
         transform="matrix(0.992001,0,0,0.992001,1125.94,448.199)"
         d="M 0,4.20313 C 0,8.5 3.09375,13.2969 11.2031,13.2969 21.5938,13.2969 32.5,4.79688 32.5,-4 c 0,-5.90625 -5,-9.2031 -11.2031,-9.2031 C 11.5938,-13.2031 0,-5 0,4.20313"
         id="path74" />
      <path
         class="Note"
         transform="matrix(0.992001,0,0,0.992001,2434.36,472.999)"
         d="M 0,4.20313 C 0,8.5 3.09375,13.2969 11.2031,13.2969 21.5938,13.2969 32.5,4.79688 32.5,-4 c 0,-5.90625 -5,-9.2031 -11.2031,-9.2031 C 11.5938,-13.2031 0,-5 0,4.20313"
         id="path75" />
      <path
         class="Note"
         transform="matrix(0.992001,0,0,0.992001,1970.73,448.199)"
         d="M 0,4.20313 C 0,8.5 3.09375,13.2969 11.2031,13.2969 21.5938,13.2969 32.5,4.79688 32.5,-4 c 0,-5.90625 -5,-9.2031 -11.2031,-9.2031 C 11.5938,-13.2031 0,-5 0,4.20313"
         id="path76" />
      <path
         class="Note"
         transform="matrix(0.992001,0,0,0.992001,2519.35,472.999)"
         d="M 0,4.20313 C 0,8.5 3.09375,13.2969 11.2031,13.2969 21.5938,13.2969 32.5,4.79688 32.5,-4 c 0,-5.90625 -5,-9.2031 -11.2031,-9.2031 C 11.5938,-13.2031 0,-5 0,4.20313"
         id="path77" />
      <path
         class="Note"
         transform="matrix(0.992001,0,0,0.992001,2027.39,435.799)"
         d="M 0,4.20313 C 0,8.5 3.09375,13.2969 11.2031,13.2969 21.5938,13.2969 32.5,4.79688 32.5,-4 c 0,-5.90625 -5,-9.2031 -11.2031,-9.2031 C 11.5938,-13.2031 0,-5 0,4.20313"
         id="path78" />
      <path
         class="Note"
         transform="matrix(0.992001,0,0,0.992001,2576,448.199)"
         d="M 0,4.20313 C 0,8.5 3.09375,13.2969 11.2031,13.2969 21.5938,13.2969 32.5,4.79688 32.5,-4 c 0,-5.90625 -5,-9.2031 -11.2031,-9.2031 C 11.5938,-13.2031 0,-5 0,4.20313"
         id="path79" />
      <path
         class="Note"
         transform="matrix(0.992001,0,0,0.992001,1450.45,448.199)"
         d="M 0,4.20313 C 0,8.5 3.09375,13.2969 11.2031,13.2969 21.5938,13.2969 32.5,4.79688 32.5,-4 c 0,-5.90625 -5,-9.2031 -11.2031,-9.2031 C 11.5938,-13.2031 0,-5 0,4.20313"
         id="path80" />
      <path
         class="Note"
         transform="matrix(0.992001,0,0,0.992001,2632.66,423.399)"
         d="M 21.2969,-13.2031 C 11.5938,-13.2031 0,-5.09375 0,4.20313 0,8.5 3.09375,13.2969 11.2031,13.2969 21.5938,13.2969 32.5,4.79688 32.5,-4 c 0,-5.90625 -5,-9.2031 -11.2031,-9.2031 M 7.5,8.59375 C 4.20313,8.59375 3.5,5.90625 3.5,5 3.5,0.09375 20.2969,-8.5 25,-8.5 c 2.4063,0 4,1.40625 4,3.59375 0,5 -16.9062,13.5 -21.5,13.5"
         id="path81" />
      <path
         class="Note"
         transform="matrix(0.992001,0,0,0.992001,1069.28,435.799)"
         d="M 0,4.20313 C 0,8.5 3.09375,13.2969 11.2031,13.2969 21.5938,13.2969 32.5,4.79688 32.5,-4 c 0,-5.90625 -5,-9.2031 -11.2031,-9.2031 C 11.5938,-13.2031 0,-5 0,4.20313"
         id="path82" />
      <path
         class="Note"
         transform="matrix(0.992001,0,0,0.992001,984.297,435.799)"
         d="M 0,4.20313 C 0,8.5 3.09375,13.2969 11.2031,13.2969 21.5938,13.2969 32.5,4.79688 32.5,-4 c 0,-5.90625 -5,-9.2031 -11.2031,-9.2031 C 11.5938,-13.2031 0,-5 0,4.20313"
         id="path83" />
      <path
         class="Note"
         transform="matrix(0.992001,0,0,0.992001,2084.05,435.799)"
         d="M 0,4.20313 C 0,8.5 3.09375,13.2969 11.2031,13.2969 21.5938,13.2969 32.5,4.79688 32.5,-4 c 0,-5.90625 -5,-9.2031 -11.2031,-9.2031 C 11.5938,-13.2031 0,-5 0,4.20313"
         id="path84" />
      <path
         class="Clef"
         transform="matrix(0.992001,0,0,0.992001,355.199,460.599)"
         d="m 12.2969,51.2969 c 0,6.6094 5,15.3125 18.5,15.3125 4.7031,0 8.8125,-1.2031 12.4062,-3.4063 C 48.6094,59.4063 50,52.7969 50,46.5 c 0,-3.8906 -0.5937,-8.3906 -1.5937,-14.0937 -0.2969,-2 -0.9063,-5 -1.5,-8.9063 C 56.7031,20.2969 64,10.0938 64,-0.203125 64,-15.2969 53.2969,-25.5 38.7031,-25.5 c -1,-6 -2,-11.9063 -2.7968,-17.5 10.5,-11.1094 17.7968,-23.6094 17.7968,-39.5 0,-9.1094 -2.7968,-16.5 -4.4062,-20.109 -2.3906,-5.094 -5.2969,-8.594 -7.0938,-8.594 -0.7031,0 -3.7968,1.203 -7.0937,5.094 -6.4063,7.609 -8.2031,20.4059 -8.2031,28.7965 0,5.4062 0.5,10.3125 2.2031,21.5156 -0.1094,0.0938 -5.3125,5.3906 -7.4063,7.0938 C 12.5938,-40.2969 0,-28.1094 0,-8.09375 0,10.5938 16.2969,25.2969 34.9063,25.2969 c 2.8906,0 5.5937,-0.2969 7.8906,-0.7031 1.9062,9.6093 3.1094,16.6093 3.1094,21.9062 0,10.4063 -5.4063,15.9063 -15.5,15.9063 -2.4063,0 -4.5,-0.5 -4.7032,-0.5 -0.0937,-0.1094 -0.2968,-0.2032 -0.2968,-0.2969 0,-0.2031 0.2031,-0.3125 0.5,-0.3125 C 30.6094,60.5 35.2969,56.5 35.2969,50.1094 35.2969,44.7031 31.2031,39 23.7031,39 c -7,0 -11.4062,5.7031 -11.4062,12.2969 m 20.9062,-133.5 c 0.9063,-4 5.5,-14.5 10.7032,-14.5 1.5,0 3.8906,4.7968 3.8906,11.7968 0,10.4063 -7.6875,18.2032 -14.5938,25 -0.5937,-4 -1.0937,-7.8906 -1.0937,-12.0937 0,-3.7031 0.2969,-7.1094 1.0937,-10.2031 M 42,20.5938 c -2,0.4062 -3.8906,0.6093 -5.7969,0.6093 -14.2968,0 -26.49997,-10 -26.49997,-25.10935 0,-12.18755 8.59377,-23.09375 17.40627,-30.70315 1.6875,-1.5 3.2969,-2.8906 4.7969,-4.3906 0.8906,5.3906 1.5937,10.0937 2.2968,14.2031 -9.1093,2.7031 -15.2968,12.2969 -15.2968,21.70315 0,7 5.5,16.59375 13.5,16.59375 0.7968,0 1.7031,-0.4062 1.7031,-1.2969 0,-0.9062 -1,-1.4062 -2.2031,-2.2031 C 28,7.59375 25.7969,5 25.7969,0.09375 25.7969,-6 30.4063,-10.9063 36.2031,-12.2969 L 42,20.5938 M 56.2031,2.09375 c 0,7.10938 -2.9062,14.40625 -10,17.31255 -2.0937,-12.00005 -4.7968,-27.9063 -5.5,-32.3126 9,0 15.5,6.10942 15.5,15.00005"
         id="path85" />
      <path
         class="KeySig"
         transform="matrix(0.992001,0,0,0.992001,443.479,435.799)"
         d="m 12,-15.5 c -5,0 -7.90625,3.0937 -8.40625,3.7031 L 4,-43.9063 c 0,-0.7968 -0.59375,-1.3906 -1.40625,-1.3906 H 1.40625 C 0.59375,-45.2969 0,-44.7031 0,-43.9063 L 0.5,16.2031 C 0.5,17 1.09375,17.5938 1.90625,17.5938 2.09375,17.5938 2.5,17.5 2.70313,17.4063 11.2969,13.0938 20.2969,4.90625 20.2969,-5.40625 20.2969,-10.5938 17.9063,-15.5 12,-15.5 M 3.29688,12.7031 3.59375,-6.79688 c 0.20313,-0.90625 1.70313,-3.79692 5.70313,-3.79692 3.60942,0 3.90622,3.39067 3.90622,5.50005 0,8.89063 -3.29685,12.59375 -9.90622,17.79685"
         id="path87" />
      <path
         class="TimeSig"
         transform="matrix(0.992001,0,0,0.992001,488.413,435.799)"
         d="m 32.5,-17.9063 c -2.5,1.6094 -4.2969,4.5 -4.2969,7.7032 0,0.40622 0,0.79685 0.0938,1.2031 0.5,4.09375 3.8125,7.29687 7.9062,7.79687 0.2969,0 0.7969,0 1.0938,0 5,0 9,-4 9,-8.99997 0,-0.7032 0,-1.3907 -0.1875,-2.0938 -0.9063,-4.2969 -4.8125,-13.5 -21.8125,-13.5 C 2.5,-25.7969 0,-7.70313 0,-1.20313 0,10.7031 1.5,25.6094 26.5,25.6094 c 9.9063,0 17.6094,-5.8125 18,-16.51565 0,-0.5 -0.2969,-0.79687 -0.7969,-0.79687 H 42.4063 C 42,8.29688 41.6094,8.70313 41.6094,9.09375 41.2031,17.4063 35.2969,22.4063 26.5,22.4063 17.7969,22.4063 13.5938,17.7031 13.5938,8.90625 V -10.2031 c 0,-5.5938 2.2031,-12 11.1093,-12 4.7032,0 6.7969,1.7031 7.9063,3.4062 0.0937,0.2031 0.0937,0.2969 0.0937,0.5 0,0.0938 0,0.2969 -0.2031,0.3906"
         id="path89" />
      <path
         class="Beam"
         fill-rule="evenodd"
         d="m 613.692,379.966 181.998,-18.6 v 12.465 l -181.998,18.6 v -12.465"
         id="path90" />
      <path
         class="Beam"
         fill-rule="evenodd"
         d="m 2170.46,373.795 190,6.2 v 12.407 l -190,-6.2 v -12.407"
         id="path91" />
      <path
         class="Beam"
         fill-rule="evenodd"
         d="m 1650.18,373.795 189.99,6.2 v 12.407 l -189.99,-6.2 v -12.407"
         id="path92" />
      <path
         class="Beam"
         fill-rule="evenodd"
         d="m 1423.55,367.595 172.45,-6.2 v 12.408 l -172.45,6.2 v -12.408"
         id="path93" />
      <path
         class="Beam"
         fill-rule="evenodd"
         d="m 1099.04,361.365 59.13,6.2 v 12.468 l -59.13,-6.2 v -12.468"
         id="path94" />
      <path
         class="Beam"
         fill-rule="evenodd"
         d="m 2549.1,379.965 59.13,-6.2 v 12.468 l -59.13,6.2 v -12.468"
         id="path95" />
      <path
         class="Beam"
         fill-rule="evenodd"
         d="m 1943.83,367.595 172.45,-6.2 v 12.408 l -172.45,6.2 v -12.408"
         id="path97" />
      <path
         class="Lyrics"
         d="m 711.119,534.139 -9.25,0.563 v 2.141 h 2.453 c 1.844,0.046 2.094,0.359 2.094,2.5 v 27.859 c -0.047,0.75 -0.094,1.047 -0.297,1.297 -0.359,0.453 -1.297,0.656 -3.453,0.703 h -0.344 v 1.797 h 12.938 v -1.797 h -0.344 c -3.344,-0.109 -3.797,-0.359 -3.797,-2.156 v -32.907 m 28.391,20.766 c 0,-3.156 -0.547,-4.75 -2,-5.953 -1.641,-1.359 -4.094,-2 -7.297,-2 -5.641,0 -9.75,2.641 -9.75,6.297 0,1.844 1.156,3.047 2.906,3.047 1.594,0 2.703,-1.047 2.703,-2.547 0,-0.656 -0.25,-1.344 -0.75,-2.047 -0.312,-0.359 -0.359,-0.453 -0.359,-0.703 0,-1 2,-1.906 4.406,-1.906 1.594,0 3.344,0.5 4.141,1.25 0.953,0.812 1.312,2 1.312,4.25 v 1.953 c -5.203,0.906 -6.859,1.297 -9.312,2.25 -4.344,1.609 -6.391,3.906 -6.391,7.109 0,3.594 2.797,5.844 7.25,5.844 3.453,0 6.547,-1.406 8.703,-3.953 0.797,2.547 2.047,3.547 4.391,3.547 2.25,0 4.609,-1.438 4.609,-2.891 0,-0.359 -0.203,-0.609 -0.5,-0.609 -0.203,0 -0.406,0.062 -0.75,0.203 -0.703,0.297 -1,0.359 -1.406,0.359 -1.406,0 -1.906,-0.906 -1.906,-3.453 v -10.047 m -4.688,6.094 c 0,3 -0.156,3.703 -1,5 -1.25,1.844 -3.5,3.094 -5.703,3.094 -2.297,0 -3.953,-1.641 -3.953,-3.891 0,-2.109 1.047,-3.609 3.25,-4.656 1.547,-0.703 3.5,-1.203 7.406,-1.844 v 2.297"
         id="path98" />
      <path
         class="Lyrics"
         d="m 827.731,571.343 8.703,-0.344 v -2.156 h -0.907 c -2.843,-0.141 -3.093,-0.438 -3.093,-3.641 v -31.063 l -9.797,0.563 v 2.141 h 2.937 c 1.907,0.046 2.157,0.359 2.157,2.5 v 11.312 c -1.844,-2.562 -4,-3.703 -6.907,-3.703 -5.64,0 -9.937,5.453 -9.937,12.641 0,7.109 4.14,12.156 9.937,12.156 3.157,0 5.313,-1.344 6.907,-4.344 v 3.938 m -5.907,-21.688 c 2.063,0 4,1.5 4.907,3.797 0.656,1.5 0.953,3.547 0.953,6 0,5.844 -2.297,9.594 -5.907,9.594 -3.546,0 -5.64,-3.297 -5.64,-8.844 0,-3 0.297,-5.25 0.937,-6.906 0.86,-2.25 2.703,-3.641 4.75,-3.641 m 28.5,-2.703 c -6.14,0 -10.89,5.453 -10.89,12.453 0,6.844 4.797,12.344 10.797,12.344 6,0 10.796,-5.5 10.796,-12.406 0,-6.844 -4.796,-12.391 -10.703,-12.391 m 0,2.141 c 3.5,0 5.453,3.656 5.453,10.25 0,6.656 -1.953,10.25 -5.546,10.25 -3.594,0 -5.547,-3.594 -5.547,-10.188 0,-6.812 1.89,-10.312 5.64,-10.312"
         id="path99" />
      <path
         class="Lyrics"
         d="m 993.116,547.702 v -9.906 h -2.047 c -0.5,6.5 -2.703,9.797 -6.75,10.109 v 1.938 h 4.094 v 12.75 c 0,3.5 0.094,4.75 0.594,5.906 0.812,2.094 2.812,3.25 5.703,3.25 4.5,0 7.41,-3.406 7.41,-8.703 0,-0.297 0,-0.641 -0.05,-1.141 h -2.11 c -0.141,4.5 -1.453,6.797 -3.891,6.797 -1.156,0 -2.156,-0.609 -2.5,-1.453 -0.312,-0.703 -0.453,-1.953 -0.453,-3.75 v -13.656 h 7.344 v -2.141 h -7.344 m 17.254,-12.453 c -1.61,0 -2.91,1.297 -2.91,2.89 0,1.61 1.3,2.907 2.86,2.907 1.64,0 2.94,-1.297 2.94,-2.907 0,-1.593 -1.3,-2.89 -2.89,-2.89 m 2.34,12.453 -9.39,0.547 v 2.156 h 2.55 c 1.89,0.047 2.14,0.344 2.14,2.5 v 14.297 c -0.05,0.75 -0.1,1.047 -0.3,1.297 -0.34,0.453 -1.3,0.656 -3.45,0.703 h -0.35 v 1.797 h 12.96 v -1.797 h -0.36 c -3.35,-0.109 -3.8,-0.359 -3.8,-2.156 v -19.344"
         id="path100" />
      <path
         class="Lyrics"
         d="m 1078.1,547.702 v -9.906 h -2.04 c -0.5,6.5 -2.71,9.797 -6.75,10.109 v 1.938 h 4.09 v 12.75 c 0,3.5 0.09,4.75 0.59,5.906 0.82,2.094 2.82,3.25 5.71,3.25 4.5,0 7.4,-3.406 7.4,-8.703 0,-0.297 0,-0.641 -0.04,-1.141 h -2.11 c -0.14,4.5 -1.46,6.797 -3.89,6.797 -1.16,0 -2.16,-0.609 -2.5,-1.453 -0.32,-0.703 -0.46,-1.953 -0.46,-3.75 v -13.656 h 7.35 v -2.141 h -7.35 m 17.25,-12.453 c -1.61,0 -2.9,1.297 -2.9,2.89 0,1.61 1.29,2.907 2.86,2.907 1.64,0 2.93,-1.297 2.93,-2.907 0,-1.593 -1.29,-2.89 -2.89,-2.89 m 2.35,12.453 -9.39,0.547 v 2.156 h 2.54 c 1.89,0.047 2.14,0.344 2.14,2.5 v 14.297 c -0.04,0.75 -0.09,1.047 -0.29,1.297 -0.35,0.453 -1.3,0.656 -3.46,0.703 h -0.34 v 1.797 h 12.95 v -1.797 h -0.36 c -3.34,-0.109 -3.79,-0.359 -3.79,-2.156 v -19.344"
         id="path101" />
      <path
         class="Lyrics"
         d="m 2438.02,547.702 v -2.859 c 0,-2.5 0.16,-4.141 0.55,-5.141 0.81,-2.203 2.56,-3.563 4.56,-3.563 1.05,0 1.69,0.313 1.69,0.86 0,0.203 0,0.25 -0.3,0.64 -0.29,0.454 -0.45,1.063 -0.45,1.61 0,1.5 1.2,2.64 2.75,2.64 1.66,0 2.81,-1.25 2.81,-3.046 0,-2.891 -2.5,-4.704 -6.56,-4.704 -3.44,0 -6,1.204 -7.75,3.704 -1.5,2.109 -2,4.25 -2,8.312 v 1.547 h -4.39 v 2.141 h 4.39 v 17.359 c -0.05,0.703 -0.09,1 -0.3,1.297 -0.34,0.453 -1.29,0.656 -3.45,0.703 h -0.19 v 1.797 h 13.35 v -1.797 h -0.91 c -3.34,-0.109 -3.8,-0.359 -3.8,-2.156 v -17.203 h 5.5 v -2.141 h -5.5 m 28.55,7.203 c 0,-3.156 -0.55,-4.75 -2,-5.953 -1.64,-1.359 -4.09,-2 -7.3,-2 -5.64,0 -9.75,2.641 -9.75,6.297 0,1.844 1.16,3.047 2.91,3.047 1.59,0 2.7,-1.047 2.7,-2.547 0,-0.656 -0.25,-1.344 -0.75,-2.047 -0.31,-0.359 -0.36,-0.453 -0.36,-0.703 0,-1 2,-1.906 4.41,-1.906 1.59,0 3.34,0.5 4.14,1.25 0.95,0.812 1.31,2 1.31,4.25 v 1.953 c -5.2,0.906 -6.86,1.297 -9.31,2.25 -4.34,1.609 -6.39,3.906 -6.39,7.109 0,3.594 2.8,5.844 7.25,5.844 3.45,0 6.55,-1.406 8.7,-3.953 0.8,2.547 2.05,3.547 4.39,3.547 2.25,0 4.61,-1.438 4.61,-2.891 0,-0.359 -0.2,-0.609 -0.5,-0.609 -0.2,0 -0.4,0.062 -0.75,0.203 -0.7,0.297 -1,0.359 -1.4,0.359 -1.41,0 -1.91,-0.906 -1.91,-3.453 v -10.047 m -4.69,6.094 c 0,3 -0.15,3.703 -1,5 -1.25,1.844 -3.5,3.094 -5.7,3.094 -2.3,0 -3.95,-1.641 -3.95,-3.891 0,-2.109 1.04,-3.609 3.25,-4.656 1.54,-0.703 3.5,-1.203 7.4,-1.844 v 2.297"
         id="path102" />
      <path
         class="Lyrics"
         d="m 1130.26,534.139 -9.25,0.563 v 2.141 h 2.45 c 1.85,0.046 2.1,0.359 2.1,2.5 v 27.859 c -0.05,0.75 -0.1,1.047 -0.3,1.297 -0.36,0.453 -1.3,0.656 -3.45,0.703 h -0.35 v 1.797 h 12.94 v -1.797 h -0.34 c -3.35,-0.109 -3.8,-0.359 -3.8,-2.156 v -32.907 m 28.39,20.766 c 0,-3.156 -0.55,-4.75 -2,-5.953 -1.64,-1.359 -4.09,-2 -7.3,-2 -5.64,0 -9.75,2.641 -9.75,6.297 0,1.844 1.16,3.047 2.91,3.047 1.59,0 2.7,-1.047 2.7,-2.547 0,-0.656 -0.25,-1.344 -0.75,-2.047 -0.31,-0.359 -0.36,-0.453 -0.36,-0.703 0,-1 2,-1.906 4.41,-1.906 1.59,0 3.34,0.5 4.14,1.25 0.95,0.812 1.31,2 1.31,4.25 v 1.953 c -5.2,0.906 -6.86,1.297 -9.31,2.25 -4.34,1.609 -6.39,3.906 -6.39,7.109 0,3.594 2.8,5.844 7.25,5.844 3.45,0 6.55,-1.406 8.7,-3.953 0.8,2.547 2.05,3.547 4.39,3.547 2.25,0 4.61,-1.438 4.61,-2.891 0,-0.359 -0.2,-0.609 -0.5,-0.609 -0.2,0 -0.4,0.062 -0.75,0.203 -0.7,0.297 -1,0.359 -1.4,0.359 -1.41,0 -1.91,-0.906 -1.91,-3.453 v -10.047 m -4.69,6.094 c 0,3 -0.15,3.703 -1,5 -1.25,1.844 -3.5,3.094 -5.7,3.094 -2.3,0 -3.95,-1.641 -3.95,-3.891 0,-2.109 1.04,-3.609 3.25,-4.656 1.54,-0.703 3.5,-1.203 7.4,-1.844 v 2.297"
         id="path103" />
      <path
         class="Lyrics"
         d="m 1190.24,547.155 h -1.75 l -1.46,1.797 c -1.79,-1.406 -3.59,-2 -6.09,-2 -4.41,0 -7.3,2.844 -7.3,7.25 0,4.703 3.05,5.891 7.05,6.844 l 2.64,0.609 c 3.95,0.938 5.36,1.938 5.36,3.938 0,2.359 -2.05,4 -4.95,4 -4.25,0 -7.25,-2.688 -8.46,-7.688 h -2 v 9.438 h 1.75 l 1.75,-2.047 c 2.05,1.656 4.3,2.453 6.86,2.453 4.89,0 8.14,-3.047 8.14,-7.703 0,-2.203 -0.7,-3.891 -2.09,-5.047 -1.2,-1.047 -2.2,-1.453 -5.25,-2.094 l -2.5,-0.562 c -2.75,-0.594 -2.75,-0.594 -3.66,-1.094 -1.09,-0.5 -1.75,-1.547 -1.75,-2.656 0,-2.047 1.91,-3.438 4.66,-3.438 4.09,0 6.09,2.891 7.3,6.391 h 1.75 v -8.391 m 16.09,-0.203 c -6.14,0 -10.89,5.453 -10.89,12.453 0,6.844 4.8,12.344 10.8,12.344 6,0 10.79,-5.5 10.79,-12.406 0,-6.844 -4.79,-12.391 -10.7,-12.391 m 0,2.141 c 3.5,0 5.45,3.656 5.45,10.25 0,6.656 -1.95,10.25 -5.54,10.25 -3.6,0 -5.55,-3.594 -5.55,-10.188 0,-6.812 1.89,-10.312 5.64,-10.312 m 22.61,-14.954 -9.25,0.563 v 2.141 h 2.45 c 1.85,0.046 2.1,0.359 2.1,2.5 v 27.859 c -0.05,0.75 -0.1,1.047 -0.3,1.297 -0.36,0.453 -1.3,0.656 -3.45,0.703 h -0.35 v 1.797 h 12.94 v -1.797 h -0.34 c -3.35,-0.109 -3.8,-0.359 -3.8,-2.156 v -32.907"
         id="path104" />
      <path
         class="Lyrics"
         d="m 1279.72,571.343 8.7,-0.344 v -2.156 h -0.9 c -2.85,-0.141 -3.1,-0.438 -3.1,-3.641 v -31.063 l -9.79,0.563 v 2.141 h 2.94 c 1.9,0.046 2.15,0.359 2.15,2.5 v 11.312 c -1.84,-2.562 -4,-3.703 -6.9,-3.703 -5.65,0 -9.94,5.453 -9.94,12.641 0,7.109 4.14,12.156 9.94,12.156 3.15,0 5.31,-1.344 6.9,-4.344 v 3.938 m -5.9,-21.688 c 2.06,0 4,1.5 4.9,3.797 0.66,1.5 0.95,3.547 0.95,6 0,5.844 -2.29,9.594 -5.9,9.594 -3.55,0 -5.64,-3.297 -5.64,-8.844 0,-3 0.29,-5.25 0.94,-6.906 0.85,-2.25 2.7,-3.641 4.75,-3.641 m 28.5,-2.703 c -6.15,0 -10.9,5.453 -10.9,12.453 0,6.844 4.8,12.344 10.8,12.344 6,0 10.8,-5.5 10.8,-12.406 0,-6.844 -4.8,-12.391 -10.7,-12.391 m 0,2.141 c 3.5,0 5.45,3.656 5.45,10.25 0,6.656 -1.95,10.25 -5.55,10.25 -3.59,0 -5.55,-3.594 -5.55,-10.188 0,-6.812 1.9,-10.312 5.65,-10.312"
         id="path105" />
      <path
         class="Lyrics"
         d="m 2523.01,547.702 v -2.859 c 0,-2.5 0.15,-4.141 0.55,-5.141 0.81,-2.203 2.56,-3.563 4.56,-3.563 1.04,0 1.69,0.313 1.69,0.86 0,0.203 0,0.25 -0.3,0.64 -0.3,0.454 -0.45,1.063 -0.45,1.61 0,1.5 1.2,2.64 2.75,2.64 1.65,0 2.81,-1.25 2.81,-3.046 0,-2.891 -2.5,-4.704 -6.56,-4.704 -3.44,0 -6,1.204 -7.75,3.704 -1.5,2.109 -2,4.25 -2,8.312 v 1.547 h -4.4 v 2.141 h 4.4 v 17.359 c -0.05,0.703 -0.1,1 -0.3,1.297 -0.35,0.453 -1.3,0.656 -3.45,0.703 h -0.19 v 1.797 h 13.34 v -1.797 h -0.9 c -3.35,-0.109 -3.8,-0.359 -3.8,-2.156 v -17.203 h 5.5 v -2.141 h -5.5 m 28.55,7.203 c 0,-3.156 -0.55,-4.75 -2,-5.953 -1.65,-1.359 -4.1,-2 -7.3,-2 -5.64,0 -9.75,2.641 -9.75,6.297 0,1.844 1.15,3.047 2.9,3.047 1.6,0 2.71,-1.047 2.71,-2.547 0,-0.656 -0.25,-1.344 -0.75,-2.047 -0.31,-0.359 -0.36,-0.453 -0.36,-0.703 0,-1 2,-1.906 4.4,-1.906 1.6,0 3.35,0.5 4.15,1.25 0.95,0.812 1.31,2 1.31,4.25 v 1.953 c -5.21,0.906 -6.86,1.297 -9.31,2.25 -4.35,1.609 -6.4,3.906 -6.4,7.109 0,3.594 2.8,5.844 7.25,5.844 3.46,0 6.55,-1.406 8.71,-3.953 0.79,2.547 2.04,3.547 4.39,3.547 2.25,0 4.61,-1.438 4.61,-2.891 0,-0.359 -0.21,-0.609 -0.5,-0.609 -0.21,0 -0.41,0.062 -0.75,0.203 -0.71,0.297 -1,0.359 -1.41,0.359 -1.4,0 -1.9,-0.906 -1.9,-3.453 v -10.047 m -4.69,6.094 c 0,3 -0.16,3.703 -1,5 -1.25,1.844 -3.5,3.094 -5.71,3.094 -2.29,0 -3.95,-1.641 -3.95,-3.891 0,-2.109 1.05,-3.609 3.25,-4.656 1.55,-0.703 3.5,-1.203 7.41,-1.844 v 2.297"
         id="path106" />
      <path
         class="Lyrics"
         d="m 1398.11,534.139 -9.25,0.563 v 2.141 h 2.46 c 1.84,0.046 2.09,0.359 2.09,2.5 v 27.859 c -0.05,0.75 -0.09,1.047 -0.3,1.297 -0.35,0.453 -1.29,0.656 -3.45,0.703 h -0.34 v 1.797 h 12.94 v -1.797 h -0.35 c -3.34,-0.109 -3.8,-0.359 -3.8,-2.156 v -32.907 m 28.4,20.766 c 0,-3.156 -0.55,-4.75 -2,-5.953 -1.65,-1.359 -4.1,-2 -7.3,-2 -5.64,0 -9.75,2.641 -9.75,6.297 0,1.844 1.15,3.047 2.9,3.047 1.6,0 2.71,-1.047 2.71,-2.547 0,-0.656 -0.25,-1.344 -0.75,-2.047 -0.31,-0.359 -0.36,-0.453 -0.36,-0.703 0,-1 2,-1.906 4.4,-1.906 1.6,0 3.35,0.5 4.15,1.25 0.95,0.812 1.31,2 1.31,4.25 v 1.953 c -5.21,0.906 -6.86,1.297 -9.31,2.25 -4.35,1.609 -6.4,3.906 -6.4,7.109 0,3.594 2.8,5.844 7.25,5.844 3.46,0 6.55,-1.406 8.71,-3.953 0.79,2.547 2.04,3.547 4.39,3.547 2.25,0 4.61,-1.438 4.61,-2.891 0,-0.359 -0.21,-0.609 -0.5,-0.609 -0.21,0 -0.41,0.062 -0.75,0.203 -0.71,0.297 -1,0.359 -1.41,0.359 -1.4,0 -1.9,-0.906 -1.9,-3.453 v -10.047 m -4.69,6.094 c 0,3 -0.16,3.703 -1,5 -1.25,1.844 -3.5,3.094 -5.71,3.094 -2.29,0 -3.95,-1.641 -3.95,-3.891 0,-2.109 1.05,-3.609 3.25,-4.656 1.55,-0.703 3.5,-1.203 7.41,-1.844 v 2.297"
         id="path107" />
      <path
         class="Lyrics"
         d="m 1454.77,534.139 -9.25,0.563 v 2.141 h 2.45 c 1.85,0.046 2.1,0.359 2.1,2.5 v 27.859 c -0.05,0.75 -0.1,1.047 -0.3,1.297 -0.36,0.453 -1.3,0.656 -3.45,0.703 h -0.35 v 1.797 h 12.94 v -1.797 h -0.34 c -3.35,-0.109 -3.8,-0.359 -3.8,-2.156 v -32.907 m 28.39,20.766 c 0,-3.156 -0.54,-4.75 -2,-5.953 -1.64,-1.359 -4.09,-2 -7.29,-2 -5.65,0 -9.75,2.641 -9.75,6.297 0,1.844 1.15,3.047 2.9,3.047 1.6,0 2.7,-1.047 2.7,-2.547 0,-0.656 -0.25,-1.344 -0.75,-2.047 -0.31,-0.359 -0.35,-0.453 -0.35,-0.703 0,-1 2,-1.906 4.4,-1.906 1.6,0 3.35,0.5 4.14,1.25 0.96,0.812 1.31,2 1.31,4.25 v 1.953 c -5.2,0.906 -6.85,1.297 -9.31,2.25 -4.34,1.609 -6.39,3.906 -6.39,7.109 0,3.594 2.8,5.844 7.25,5.844 3.45,0 6.55,-1.406 8.7,-3.953 0.8,2.547 2.05,3.547 4.4,3.547 2.25,0 4.6,-1.438 4.6,-2.891 0,-0.359 -0.2,-0.609 -0.5,-0.609 -0.2,0 -0.4,0.062 -0.75,0.203 -0.7,0.297 -1,0.359 -1.4,0.359 -1.41,0 -1.91,-0.906 -1.91,-3.453 v -10.047 m -4.69,6.094 c 0,3 -0.15,3.703 -1,5 -1.25,1.844 -3.5,3.094 -5.7,3.094 -2.3,0 -3.95,-1.641 -3.95,-3.891 0,-2.109 1.05,-3.609 3.25,-4.656 1.55,-0.703 3.5,-1.203 7.4,-1.844 v 2.297"
         id="path108" />
      <path
         class="Lyrics"
         d="m 2580.32,534.139 -9.25,0.563 v 2.141 h 2.46 c 1.84,0.046 2.09,0.359 2.09,2.5 v 27.859 c -0.05,0.75 -0.09,1.047 -0.3,1.297 -0.36,0.453 -1.29,0.656 -3.45,0.703 h -0.34 v 1.797 h 12.93 v -1.797 h -0.34 c -3.34,-0.109 -3.8,-0.359 -3.8,-2.156 v -32.907 m 28.39,20.766 c 0,-3.156 -0.54,-4.75 -2,-5.953 -1.64,-1.359 -4.09,-2 -7.29,-2 -5.64,0 -9.75,2.641 -9.75,6.297 0,1.844 1.15,3.047 2.9,3.047 1.6,0 2.71,-1.047 2.71,-2.547 0,-0.656 -0.25,-1.344 -0.75,-2.047 -0.32,-0.359 -0.36,-0.453 -0.36,-0.703 0,-1 2,-1.906 4.4,-1.906 1.6,0 3.35,0.5 4.14,1.25 0.96,0.812 1.32,2 1.32,4.25 v 1.953 c -5.21,0.906 -6.86,1.297 -9.32,2.25 -4.34,1.609 -6.39,3.906 -6.39,7.109 0,3.594 2.8,5.844 7.25,5.844 3.46,0 6.55,-1.406 8.71,-3.953 0.79,2.547 2.04,3.547 4.39,3.547 2.25,0 4.61,-1.438 4.61,-2.891 0,-0.359 -0.21,-0.609 -0.5,-0.609 -0.21,0 -0.41,0.062 -0.75,0.203 -0.71,0.297 -1,0.359 -1.41,0.359 -1.41,0 -1.91,-0.906 -1.91,-3.453 v -10.047 m -4.68,6.094 c 0,3 -0.16,3.703 -1,5 -1.25,1.844 -3.5,3.094 -5.71,3.094 -2.29,0 -3.95,-1.641 -3.95,-3.891 0,-2.109 1.05,-3.609 3.25,-4.656 1.55,-0.703 3.5,-1.203 7.41,-1.844 v 2.297"
         id="path109" />
      <path
         class="Lyrics"
         d="m 1572.59,547.702 v -9.906 h -2.05 c -0.5,6.5 -2.7,9.797 -6.75,10.109 v 1.938 h 4.09 v 12.75 c 0,3.5 0.1,4.75 0.6,5.906 0.81,2.094 2.81,3.25 5.7,3.25 4.5,0 7.41,-3.406 7.41,-8.703 0,-0.297 0,-0.641 -0.05,-1.141 h -2.11 c -0.14,4.5 -1.45,6.797 -3.89,6.797 -1.16,0 -2.16,-0.609 -2.5,-1.453 -0.31,-0.703 -0.45,-1.953 -0.45,-3.75 v -13.656 h 7.34 v -2.141 h -7.34 m 17.25,-12.453 c -1.61,0 -2.91,1.297 -2.91,2.89 0,1.61 1.3,2.907 2.86,2.907 1.64,0 2.94,-1.297 2.94,-2.907 0,-1.593 -1.3,-2.89 -2.89,-2.89 m 2.34,12.453 -9.39,0.547 v 2.156 h 2.55 c 1.89,0.047 2.14,0.344 2.14,2.5 v 14.297 c -0.05,0.75 -0.1,1.047 -0.3,1.297 -0.34,0.453 -1.3,0.656 -3.45,0.703 h -0.35 v 1.797 h 12.96 v -1.797 h -0.36 c -3.35,-0.109 -3.8,-0.359 -3.8,-2.156 v -19.344"
         id="path110" />
      <path
         class="Lyrics"
         d="m 1624.74,534.139 -9.25,0.563 v 2.141 h 2.46 c 1.84,0.046 2.09,0.359 2.09,2.5 v 27.859 c -0.05,0.75 -0.09,1.047 -0.3,1.297 -0.36,0.453 -1.29,0.656 -3.45,0.703 h -0.34 v 1.797 h 12.93 v -1.797 h -0.34 c -3.34,-0.109 -3.8,-0.359 -3.8,-2.156 v -32.907 m 28.39,20.766 c 0,-3.156 -0.54,-4.75 -2,-5.953 -1.64,-1.359 -4.09,-2 -7.29,-2 -5.64,0 -9.75,2.641 -9.75,6.297 0,1.844 1.15,3.047 2.9,3.047 1.6,0 2.71,-1.047 2.71,-2.547 0,-0.656 -0.25,-1.344 -0.75,-2.047 -0.32,-0.359 -0.36,-0.453 -0.36,-0.703 0,-1 2,-1.906 4.4,-1.906 1.6,0 3.35,0.5 4.14,1.25 0.96,0.812 1.32,2 1.32,4.25 v 1.953 c -5.21,0.906 -6.86,1.297 -9.32,2.25 -4.34,1.609 -6.39,3.906 -6.39,7.109 0,3.594 2.8,5.844 7.25,5.844 3.46,0 6.55,-1.406 8.71,-3.953 0.79,2.547 2.04,3.547 4.39,3.547 2.25,0 4.61,-1.438 4.61,-2.891 0,-0.359 -0.21,-0.609 -0.5,-0.609 -0.21,0 -0.41,0.062 -0.75,0.203 -0.71,0.297 -1,0.359 -1.41,0.359 -1.41,0 -1.91,-0.906 -1.91,-3.453 v -10.047 m -4.68,6.094 c 0,3 -0.16,3.703 -1,5 -1.25,1.844 -3.5,3.094 -5.71,3.094 -2.29,0 -3.95,-1.641 -3.95,-3.891 0,-2.109 1.05,-3.609 3.25,-4.656 1.55,-0.703 3.5,-1.203 7.41,-1.844 v 2.297"
         id="path111" />
      <path
         class="Lyrics"
         d="m 2640.28,571.343 8.7,-0.344 v -2.156 h -0.91 c -2.84,-0.141 -3.09,-0.438 -3.09,-3.641 v -31.063 l -9.8,0.563 v 2.141 h 2.94 c 1.91,0.046 2.16,0.359 2.16,2.5 v 11.312 c -1.85,-2.562 -4,-3.703 -6.91,-3.703 -5.64,0 -9.94,5.453 -9.94,12.641 0,7.109 4.14,12.156 9.94,12.156 3.16,0 5.31,-1.344 6.91,-4.344 v 3.938 m -5.91,-21.688 c 2.06,0 4,1.5 4.91,3.797 0.65,1.5 0.95,3.547 0.95,6 0,5.844 -2.3,9.594 -5.91,9.594 -3.54,0 -5.64,-3.297 -5.64,-8.844 0,-3 0.3,-5.25 0.94,-6.906 0.86,-2.25 2.7,-3.641 4.75,-3.641 m 28.5,-2.703 c -6.14,0 -10.89,5.453 -10.89,12.453 0,6.844 4.8,12.344 10.8,12.344 6,0 10.79,-5.5 10.79,-12.406 0,-6.844 -4.79,-12.391 -10.7,-12.391 m 0,2.141 c 3.5,0 5.45,3.656 5.45,10.25 0,6.656 -1.95,10.25 -5.54,10.25 -3.6,0 -5.55,-3.594 -5.55,-10.188 0,-6.812 1.89,-10.312 5.64,-10.312"
         id="path112" />
      <path
         class="Lyrics"
         d="m 1681.4,534.139 -9.25,0.563 v 2.141 h 2.45 c 1.85,0.046 2.1,0.359 2.1,2.5 v 27.859 c -0.05,0.75 -0.1,1.047 -0.3,1.297 -0.36,0.453 -1.3,0.656 -3.45,0.703 h -0.35 v 1.797 h 12.94 v -1.797 h -0.34 c -3.35,-0.109 -3.8,-0.359 -3.8,-2.156 v -32.907 m 28.39,20.766 c 0,-3.156 -0.55,-4.75 -2,-5.953 -1.64,-1.359 -4.09,-2 -7.3,-2 -5.64,0 -9.75,2.641 -9.75,6.297 0,1.844 1.16,3.047 2.91,3.047 1.59,0 2.7,-1.047 2.7,-2.547 0,-0.656 -0.25,-1.344 -0.75,-2.047 -0.31,-0.359 -0.36,-0.453 -0.36,-0.703 0,-1 2,-1.906 4.41,-1.906 1.59,0 3.34,0.5 4.14,1.25 0.95,0.812 1.31,2 1.31,4.25 v 1.953 c -5.2,0.906 -6.86,1.297 -9.31,2.25 -4.34,1.609 -6.39,3.906 -6.39,7.109 0,3.594 2.8,5.844 7.25,5.844 3.45,0 6.55,-1.406 8.7,-3.953 0.8,2.547 2.05,3.547 4.39,3.547 2.25,0 4.61,-1.438 4.61,-2.891 0,-0.359 -0.2,-0.609 -0.5,-0.609 -0.2,0 -0.4,0.062 -0.75,0.203 -0.7,0.297 -1,0.359 -1.4,0.359 -1.41,0 -1.91,-0.906 -1.91,-3.453 v -10.047 m -4.69,6.094 c 0,3 -0.15,3.703 -1,5 -1.25,1.844 -3.5,3.094 -5.7,3.094 -2.3,0 -3.95,-1.641 -3.95,-3.891 0,-2.109 1.04,-3.609 3.25,-4.656 1.54,-0.703 3.5,-1.203 7.4,-1.844 v 2.297"
         id="path113" />
      <path
         class="Lyrics"
         d="m 1741.38,547.155 h -1.75 l -1.46,1.797 c -1.79,-1.406 -3.59,-2 -6.09,-2 -4.41,0 -7.3,2.844 -7.3,7.25 0,4.703 3.05,5.891 7.05,6.844 l 2.64,0.609 c 3.95,0.938 5.36,1.938 5.36,3.938 0,2.359 -2.05,4 -4.95,4 -4.25,0 -7.25,-2.688 -8.46,-7.688 h -2 v 9.438 h 1.75 l 1.75,-2.047 c 2.05,1.656 4.3,2.453 6.86,2.453 4.89,0 8.14,-3.047 8.14,-7.703 0,-2.203 -0.7,-3.891 -2.09,-5.047 -1.2,-1.047 -2.2,-1.453 -5.25,-2.094 l -2.5,-0.562 c -2.75,-0.594 -2.75,-0.594 -3.66,-1.094 -1.09,-0.5 -1.75,-1.547 -1.75,-2.656 0,-2.047 1.91,-3.438 4.66,-3.438 4.09,0 6.09,2.891 7.3,6.391 h 1.75 v -8.391 m 16.09,-0.203 c -6.14,0 -10.89,5.453 -10.89,12.453 0,6.844 4.8,12.344 10.8,12.344 6,0 10.79,-5.5 10.79,-12.406 0,-6.844 -4.79,-12.391 -10.7,-12.391 m 0,2.141 c 3.5,0 5.45,3.656 5.45,10.25 0,6.656 -1.95,10.25 -5.54,10.25 -3.6,0 -5.55,-3.594 -5.55,-10.188 0,-6.812 1.89,-10.312 5.64,-10.312 m 22.61,-14.954 -9.25,0.563 v 2.141 h 2.45 c 1.85,0.046 2.1,0.359 2.1,2.5 v 27.859 c -0.05,0.75 -0.1,1.047 -0.3,1.297 -0.36,0.453 -1.3,0.656 -3.45,0.703 h -0.35 v 1.797 h 12.94 v -1.797 h -0.34 c -3.35,-0.109 -3.8,-0.359 -3.8,-2.156 v -32.907"
         id="path114" />
      <path
         class="Lyrics"
         d="m 772.277,547.702 v -9.906 h -2.047 c -0.5,6.5 -2.703,9.797 -6.75,10.109 v 1.938 h 4.093 v 12.75 c 0,3.5 0.094,4.75 0.594,5.906 0.813,2.094 2.813,3.25 5.703,3.25 4.5,0 7.407,-3.406 7.407,-8.703 0,-0.297 0,-0.641 -0.047,-1.141 h -2.11 c -0.14,4.5 -1.453,6.797 -3.89,6.797 -1.157,0 -2.157,-0.609 -2.5,-1.453 -0.313,-0.703 -0.453,-1.953 -0.453,-3.75 v -13.656 h 7.343 v -2.141 h -7.343 m 17.25,-12.453 c -1.61,0 -2.907,1.297 -2.907,2.89 0,1.61 1.297,2.907 2.86,2.907 1.64,0 2.937,-1.297 2.937,-2.907 0,-1.593 -1.297,-2.89 -2.89,-2.89 m 2.343,12.453 -9.39,0.547 v 2.156 h 2.547 c 1.89,0.047 2.14,0.344 2.14,2.5 v 14.297 c -0.047,0.75 -0.094,1.047 -0.297,1.297 -0.343,0.453 -1.297,0.656 -3.453,0.703 h -0.344 v 1.797 h 12.954 v -1.797 h -0.36 c -3.344,-0.109 -3.797,-0.359 -3.797,-2.156 v -19.344"
         id="path115" />
      <path
         class="Lyrics"
         d="m 1515.93,547.702 v -9.906 h -2.05 c -0.5,6.5 -2.7,9.797 -6.75,10.109 v 1.938 h 4.1 v 12.75 c 0,3.5 0.09,4.75 0.59,5.906 0.81,2.094 2.81,3.25 5.7,3.25 4.5,0 7.41,-3.406 7.41,-8.703 0,-0.297 0,-0.641 -0.05,-1.141 h -2.11 c -0.14,4.5 -1.45,6.797 -3.89,6.797 -1.15,0 -2.15,-0.609 -2.5,-1.453 -0.31,-0.703 -0.45,-1.953 -0.45,-3.75 v -13.656 h 7.34 v -2.141 h -7.34 m 17.25,-12.453 c -1.61,0 -2.91,1.297 -2.91,2.89 0,1.61 1.3,2.907 2.86,2.907 1.64,0 2.94,-1.297 2.94,-2.907 0,-1.593 -1.3,-2.89 -2.89,-2.89 m 2.34,12.453 -9.39,0.547 v 2.156 h 2.55 c 1.89,0.047 2.14,0.344 2.14,2.5 v 14.297 c -0.05,0.75 -0.09,1.047 -0.3,1.297 -0.34,0.453 -1.29,0.656 -3.45,0.703 h -0.34 v 1.797 h 12.95 v -1.797 h -0.36 c -3.34,-0.109 -3.8,-0.359 -3.8,-2.156 v -19.344"
         id="path116" />
      <path
         class="Lyrics"
         d="m 1811.06,547.155 h -1.75 l -1.46,1.797 c -1.79,-1.406 -3.59,-2 -6.09,-2 -4.41,0 -7.3,2.844 -7.3,7.25 0,4.703 3.05,5.891 7.05,6.844 l 2.64,0.609 c 3.95,0.938 5.36,1.938 5.36,3.938 0,2.359 -2.05,4 -4.95,4 -4.25,0 -7.25,-2.688 -8.46,-7.688 h -2 v 9.438 h 1.75 l 1.75,-2.047 c 2.05,1.656 4.3,2.453 6.86,2.453 4.89,0 8.14,-3.047 8.14,-7.703 0,-2.203 -0.7,-3.891 -2.09,-5.047 -1.2,-1.047 -2.2,-1.453 -5.25,-2.094 l -2.5,-0.562 c -2.75,-0.594 -2.75,-0.594 -3.66,-1.094 -1.09,-0.5 -1.75,-1.547 -1.75,-2.656 0,-2.047 1.91,-3.438 4.66,-3.438 4.09,0 6.09,2.891 7.3,6.391 h 1.75 v -8.391 m 16.09,-0.203 c -6.14,0 -10.89,5.453 -10.89,12.453 0,6.844 4.8,12.344 10.8,12.344 6,0 10.79,-5.5 10.79,-12.406 0,-6.844 -4.79,-12.391 -10.7,-12.391 m 0,2.141 c 3.5,0 5.45,3.656 5.45,10.25 0,6.656 -1.95,10.25 -5.54,10.25 -3.6,0 -5.55,-3.594 -5.55,-10.188 0,-6.812 1.89,-10.312 5.64,-10.312 m 22.61,-14.954 -9.25,0.563 v 2.141 h 2.45 c 1.85,0.046 2.1,0.359 2.1,2.5 v 27.859 c -0.05,0.75 -0.1,1.047 -0.3,1.297 -0.36,0.453 -1.3,0.656 -3.45,0.703 h -0.35 v 1.797 h 12.94 v -1.797 h -0.34 c -3.35,-0.109 -3.8,-0.359 -3.8,-2.156 v -32.907"
         id="path117" />
      <path
         class="Lyrics"
         d="m 1918.4,534.139 -9.25,0.563 v 2.141 h 2.45 c 1.84,0.046 2.09,0.359 2.09,2.5 v 27.859 c -0.04,0.75 -0.09,1.047 -0.29,1.297 -0.36,0.453 -1.3,0.656 -3.46,0.703 h -0.34 v 1.797 h 12.94 v -1.797 h -0.35 c -3.34,-0.109 -3.79,-0.359 -3.79,-2.156 v -32.907 m 28.39,20.766 c 0,-3.156 -0.55,-4.75 -2,-5.953 -1.64,-1.359 -4.1,-2 -7.3,-2 -5.64,0 -9.75,2.641 -9.75,6.297 0,1.844 1.16,3.047 2.91,3.047 1.59,0 2.7,-1.047 2.7,-2.547 0,-0.656 -0.25,-1.344 -0.75,-2.047 -0.31,-0.359 -0.36,-0.453 -0.36,-0.703 0,-1 2,-1.906 4.41,-1.906 1.59,0 3.34,0.5 4.14,1.25 0.95,0.812 1.31,2 1.31,4.25 v 1.953 c -5.2,0.906 -6.86,1.297 -9.31,2.25 -4.35,1.609 -6.39,3.906 -6.39,7.109 0,3.594 2.79,5.844 7.25,5.844 3.45,0 6.54,-1.406 8.7,-3.953 0.8,2.547 2.05,3.547 4.39,3.547 2.25,0 4.61,-1.438 4.61,-2.891 0,-0.359 -0.2,-0.609 -0.5,-0.609 -0.2,0 -0.41,0.062 -0.75,0.203 -0.7,0.297 -1,0.359 -1.41,0.359 -1.4,0 -1.9,-0.906 -1.9,-3.453 v -10.047 m -4.69,6.094 c 0,3 -0.16,3.703 -1,5 -1.25,1.844 -3.5,3.094 -5.7,3.094 -2.3,0 -3.96,-1.641 -3.96,-3.891 0,-2.109 1.05,-3.609 3.25,-4.656 1.55,-0.703 3.5,-1.203 7.41,-1.844 v 2.297"
         id="path118" />
      <path
         class="Lyrics"
         d="m 1975.05,534.139 -9.25,0.563 v 2.141 h 2.46 c 1.84,0.046 2.09,0.359 2.09,2.5 v 27.859 c -0.05,0.75 -0.09,1.047 -0.3,1.297 -0.36,0.453 -1.29,0.656 -3.45,0.703 h -0.34 v 1.797 h 12.93 v -1.797 h -0.34 c -3.34,-0.109 -3.8,-0.359 -3.8,-2.156 v -32.907 m 28.39,20.766 c 0,-3.156 -0.54,-4.75 -2,-5.953 -1.64,-1.359 -4.09,-2 -7.29,-2 -5.64,0 -9.75,2.641 -9.75,6.297 0,1.844 1.15,3.047 2.9,3.047 1.6,0 2.71,-1.047 2.71,-2.547 0,-0.656 -0.25,-1.344 -0.75,-2.047 -0.32,-0.359 -0.36,-0.453 -0.36,-0.703 0,-1 2,-1.906 4.4,-1.906 1.6,0 3.35,0.5 4.14,1.25 0.96,0.812 1.32,2 1.32,4.25 v 1.953 c -5.21,0.906 -6.86,1.297 -9.32,2.25 -4.34,1.609 -6.39,3.906 -6.39,7.109 0,3.594 2.8,5.844 7.25,5.844 3.46,0 6.55,-1.406 8.71,-3.953 0.79,2.547 2.04,3.547 4.39,3.547 2.25,0 4.61,-1.438 4.61,-2.891 0,-0.359 -0.21,-0.609 -0.5,-0.609 -0.21,0 -0.41,0.062 -0.75,0.203 -0.71,0.297 -1,0.359 -1.41,0.359 -1.41,0 -1.91,-0.906 -1.91,-3.453 v -10.047 m -4.68,6.094 c 0,3 -0.16,3.703 -1,5 -1.25,1.844 -3.5,3.094 -5.71,3.094 -2.29,0 -3.95,-1.641 -3.95,-3.891 0,-2.109 1.05,-3.609 3.25,-4.656 1.55,-0.703 3.5,-1.203 7.41,-1.844 v 2.297"
         id="path119" />
      <path
         class="Lyrics"
         d="m 2036.21,547.702 v -9.906 h -2.05 c -0.5,6.5 -2.7,9.797 -6.75,10.109 v 1.938 h 4.1 v 12.75 c 0,3.5 0.09,4.75 0.59,5.906 0.81,2.094 2.81,3.25 5.7,3.25 4.5,0 7.41,-3.406 7.41,-8.703 0,-0.297 0,-0.641 -0.05,-1.141 h -2.11 c -0.14,4.5 -1.45,6.797 -3.89,6.797 -1.15,0 -2.15,-0.609 -2.5,-1.453 -0.31,-0.703 -0.45,-1.953 -0.45,-3.75 v -13.656 h 7.34 v -2.141 h -7.34 m 17.25,-12.453 c -1.61,0 -2.91,1.297 -2.91,2.89 0,1.61 1.3,2.907 2.86,2.907 1.64,0 2.94,-1.297 2.94,-2.907 0,-1.593 -1.3,-2.89 -2.89,-2.89 m 2.34,12.453 -9.39,0.547 v 2.156 h 2.55 c 1.89,0.047 2.14,0.344 2.14,2.5 v 14.297 c -0.05,0.75 -0.09,1.047 -0.3,1.297 -0.34,0.453 -1.29,0.656 -3.45,0.703 h -0.34 v 1.797 h 12.95 v -1.797 h -0.36 c -3.34,-0.109 -3.8,-0.359 -3.8,-2.156 v -19.344"
         id="path121" />
      <path
         class="Lyrics"
         d="m 2092.87,547.702 v -9.906 h -2.05 c -0.5,6.5 -2.7,9.797 -6.75,10.109 v 1.938 h 4.1 v 12.75 c 0,3.5 0.09,4.75 0.59,5.906 0.81,2.094 2.81,3.25 5.7,3.25 4.5,0 7.41,-3.406 7.41,-8.703 0,-0.297 0,-0.641 -0.05,-1.141 h -2.11 c -0.14,4.5 -1.45,6.797 -3.89,6.797 -1.15,0 -2.15,-0.609 -2.5,-1.453 -0.31,-0.703 -0.45,-1.953 -0.45,-3.75 v -13.656 h 7.34 v -2.141 h -7.34 m 17.25,-12.453 c -1.61,0 -2.91,1.297 -2.91,2.89 0,1.61 1.3,2.907 2.86,2.907 1.64,0 2.94,-1.297 2.94,-2.907 0,-1.593 -1.3,-2.89 -2.89,-2.89 m 2.34,12.453 -9.39,0.547 v 2.156 h 2.55 c 1.89,0.047 2.14,0.344 2.14,2.5 v 14.297 c -0.05,0.75 -0.09,1.047 -0.3,1.297 -0.34,0.453 -1.29,0.656 -3.45,0.703 h -0.34 v 1.797 h 12.95 v -1.797 h -0.36 c -3.34,-0.109 -3.8,-0.359 -3.8,-2.156 v -19.344"
         id="path122" />
      <path
         class="Lyrics"
         d="m 2145.03,534.139 -9.25,0.563 v 2.141 h 2.45 c 1.84,0.046 2.09,0.359 2.09,2.5 v 27.859 c -0.04,0.75 -0.09,1.047 -0.29,1.297 -0.36,0.453 -1.3,0.656 -3.46,0.703 h -0.34 v 1.797 h 12.94 v -1.797 h -0.35 c -3.34,-0.109 -3.79,-0.359 -3.79,-2.156 v -32.907 m 28.39,20.766 c 0,-3.156 -0.55,-4.75 -2,-5.953 -1.64,-1.359 -4.1,-2 -7.3,-2 -5.64,0 -9.75,2.641 -9.75,6.297 0,1.844 1.16,3.047 2.91,3.047 1.59,0 2.7,-1.047 2.7,-2.547 0,-0.656 -0.25,-1.344 -0.75,-2.047 -0.31,-0.359 -0.36,-0.453 -0.36,-0.703 0,-1 2,-1.906 4.41,-1.906 1.59,0 3.34,0.5 4.14,1.25 0.95,0.812 1.31,2 1.31,4.25 v 1.953 c -5.2,0.906 -6.86,1.297 -9.31,2.25 -4.35,1.609 -6.39,3.906 -6.39,7.109 0,3.594 2.79,5.844 7.25,5.844 3.45,0 6.54,-1.406 8.7,-3.953 0.8,2.547 2.05,3.547 4.39,3.547 2.25,0 4.61,-1.438 4.61,-2.891 0,-0.359 -0.2,-0.609 -0.5,-0.609 -0.2,0 -0.41,0.062 -0.75,0.203 -0.7,0.297 -1,0.359 -1.41,0.359 -1.4,0 -1.9,-0.906 -1.9,-3.453 v -10.047 m -4.69,6.094 c 0,3 -0.16,3.703 -1,5 -1.25,1.844 -3.5,3.094 -5.7,3.094 -2.3,0 -3.96,-1.641 -3.96,-3.891 0,-2.109 1.05,-3.609 3.25,-4.656 1.55,-0.703 3.5,-1.203 7.41,-1.844 v 2.297"
         id="path123" />
      <path
         class="Lyrics"
         d="m 2201.68,534.139 -9.25,0.563 v 2.141 h 2.46 c 1.84,0.046 2.09,0.359 2.09,2.5 v 27.859 c -0.05,0.75 -0.09,1.047 -0.3,1.297 -0.36,0.453 -1.29,0.656 -3.45,0.703 h -0.34 v 1.797 h 12.93 v -1.797 h -0.34 c -3.34,-0.109 -3.8,-0.359 -3.8,-2.156 v -32.907 m 28.39,20.766 c 0,-3.156 -0.54,-4.75 -2,-5.953 -1.64,-1.359 -4.09,-2 -7.29,-2 -5.64,0 -9.75,2.641 -9.75,6.297 0,1.844 1.15,3.047 2.9,3.047 1.6,0 2.71,-1.047 2.71,-2.547 0,-0.656 -0.25,-1.344 -0.75,-2.047 -0.32,-0.359 -0.36,-0.453 -0.36,-0.703 0,-1 2,-1.906 4.4,-1.906 1.6,0 3.35,0.5 4.14,1.25 0.96,0.812 1.32,2 1.32,4.25 v 1.953 c -5.21,0.906 -6.86,1.297 -9.32,2.25 -4.34,1.609 -6.39,3.906 -6.39,7.109 0,3.594 2.8,5.844 7.25,5.844 3.46,0 6.55,-1.406 8.71,-3.953 0.79,2.547 2.04,3.547 4.39,3.547 2.25,0 4.61,-1.438 4.61,-2.891 0,-0.359 -0.21,-0.609 -0.5,-0.609 -0.21,0 -0.41,0.062 -0.75,0.203 -0.71,0.297 -1,0.359 -1.41,0.359 -1.41,0 -1.91,-0.906 -1.91,-3.453 v -10.047 m -4.68,6.094 c 0,3 -0.16,3.703 -1,5 -1.25,1.844 -3.5,3.094 -5.71,3.094 -2.29,0 -3.95,-1.641 -3.95,-3.891 0,-2.109 1.05,-3.609 3.25,-4.656 1.55,-0.703 3.5,-1.203 7.41,-1.844 v 2.297"
         id="path125" />
      <path
         class="Lyrics"
         d="m 2261.66,547.155 h -1.75 l -1.45,1.797 c -1.8,-1.406 -3.6,-2 -6.1,-2 -4.4,0 -7.29,2.844 -7.29,7.25 0,4.703 3.04,5.891 7.04,6.844 l 2.64,0.609 c 3.96,0.938 5.36,1.938 5.36,3.938 0,2.359 -2.04,4 -4.95,4 -4.25,0 -7.25,-2.688 -8.45,-7.688 h -2 v 9.438 h 1.75 l 1.75,-2.047 c 2.04,1.656 4.29,2.453 6.86,2.453 4.89,0 8.14,-3.047 8.14,-7.703 0,-2.203 -0.71,-3.891 -2.1,-5.047 -1.2,-1.047 -2.2,-1.453 -5.25,-2.094 l -2.5,-0.562 c -2.75,-0.594 -2.75,-0.594 -3.65,-1.094 -1.1,-0.5 -1.75,-1.547 -1.75,-2.656 0,-2.047 1.9,-3.438 4.65,-3.438 4.1,0 6.1,2.891 7.3,6.391 h 1.75 v -8.391 m 16.09,-0.203 c -6.14,0 -10.89,5.453 -10.89,12.453 0,6.844 4.8,12.344 10.8,12.344 6,0 10.8,-5.5 10.8,-12.406 0,-6.844 -4.8,-12.391 -10.71,-12.391 m 0,2.141 c 3.5,0 5.46,3.656 5.46,10.25 0,6.656 -1.96,10.25 -5.55,10.25 -3.59,0 -5.55,-3.594 -5.55,-10.188 0,-6.812 1.89,-10.312 5.64,-10.312 m 22.61,-14.954 -9.25,0.563 v 2.141 h 2.46 c 1.84,0.046 2.09,0.359 2.09,2.5 v 27.859 c -0.05,0.75 -0.09,1.047 -0.3,1.297 -0.36,0.453 -1.29,0.656 -3.45,0.703 h -0.34 v 1.797 h 12.93 v -1.797 h -0.34 c -3.34,-0.109 -3.8,-0.359 -3.8,-2.156 v -32.907"
         id="path126" />
      <path
         class="Lyrics"
         d="m 587.603,547.702 v -2.859 c 0,-2.5 0.156,-4.141 0.547,-5.141 0.812,-2.203 2.562,-3.563 4.562,-3.563 1.047,0 1.688,0.313 1.688,0.86 0,0.203 0,0.25 -0.297,0.64 -0.297,0.454 -0.453,1.063 -0.453,1.61 0,1.5 1.203,2.64 2.75,2.64 1.656,0 2.812,-1.25 2.812,-3.046 0,-2.891 -2.5,-4.704 -6.562,-4.704 -3.438,0 -6,1.204 -7.75,3.704 -1.5,2.109 -2,4.25 -2,8.312 v 1.547 h -4.391 v 2.141 h 4.391 v 17.359 c -0.047,0.703 -0.094,1 -0.297,1.297 -0.344,0.453 -1.297,0.656 -3.453,0.703 h -0.188 v 1.797 h 13.344 v -1.797 H 591.4 c -3.344,-0.109 -3.797,-0.359 -3.797,-2.156 v -17.203 h 5.5 v -2.141 h -5.5 m 28.547,7.203 c 0,-3.156 -0.547,-4.75 -2,-5.953 -1.641,-1.359 -4.094,-2 -7.297,-2 -5.641,0 -9.75,2.641 -9.75,6.297 0,1.844 1.156,3.047 2.906,3.047 1.594,0 2.703,-1.047 2.703,-2.547 0,-0.656 -0.25,-1.344 -0.75,-2.047 -0.312,-0.359 -0.359,-0.453 -0.359,-0.703 0,-1 2,-1.906 4.406,-1.906 1.594,0 3.344,0.5 4.141,1.25 0.953,0.812 1.312,2 1.312,4.25 v 1.953 c -5.203,0.906 -6.859,1.297 -9.312,2.25 -4.344,1.609 -6.391,3.906 -6.391,7.109 0,3.594 2.797,5.844 7.25,5.844 3.453,0 6.547,-1.406 8.703,-3.953 0.797,2.547 2.047,3.547 4.391,3.547 2.25,0 4.609,-1.438 4.609,-2.891 0,-0.359 -0.203,-0.609 -0.5,-0.609 -0.203,0 -0.406,0.062 -0.75,0.203 -0.703,0.297 -1,0.359 -1.406,0.359 -1.406,0 -1.906,-0.906 -1.906,-3.453 v -10.047 m -4.688,6.094 c 0,3 -0.156,3.703 -1,5 -1.25,1.844 -3.5,3.094 -5.703,3.094 -2.297,0 -3.953,-1.641 -3.953,-3.891 0,-2.109 1.047,-3.609 3.25,-4.656 1.547,-0.703 3.5,-1.203 7.406,-1.844 v 2.297"
         id="path128" />
      <path
         class="Lyrics"
         d="m 648.736,547.155 h -1.75 l -1.453,1.797 c -1.797,-1.406 -3.594,-2 -6.094,-2 -4.406,0 -7.297,2.844 -7.297,7.25 0,4.703 3.047,5.891 7.047,6.844 l 2.641,0.609 c 3.953,0.938 5.359,1.938 5.359,3.938 0,2.359 -2.047,4 -4.953,4 -4.25,0 -7.25,-2.688 -8.453,-7.688 h -2 v 9.438 h 1.75 l 1.75,-2.047 c 2.047,1.656 4.297,2.453 6.859,2.453 4.891,0 8.141,-3.047 8.141,-7.703 0,-2.203 -0.703,-3.891 -2.094,-5.047 -1.203,-1.047 -2.203,-1.453 -5.25,-2.094 l -2.5,-0.562 c -2.75,-0.594 -2.75,-0.594 -3.656,-1.094 -1.094,-0.5 -1.75,-1.547 -1.75,-2.656 0,-2.047 1.906,-3.438 4.656,-3.438 4.094,0 6.094,2.891 7.297,6.391 h 1.75 v -8.391 m 16.094,-0.203 c -6.141,0 -10.891,5.453 -10.891,12.453 0,6.844 4.797,12.344 10.797,12.344 6,0 10.797,-5.5 10.797,-12.406 0,-6.844 -4.797,-12.391 -10.703,-12.391 m 0,2.141 c 3.5,0 5.453,3.656 5.453,10.25 0,6.656 -1.953,10.25 -5.547,10.25 -3.594,0 -5.547,-3.594 -5.547,-10.188 0,-6.812 1.891,-10.312 5.641,-10.312 m 22.609,-14.954 -9.25,0.563 v 2.141 h 2.453 c 1.844,0.046 2.094,0.359 2.094,2.5 v 27.859 c -0.047,0.75 -0.094,1.047 -0.297,1.297 -0.359,0.453 -1.297,0.656 -3.453,0.703 h -0.344 v 1.797 h 12.938 v -1.797 h -0.344 c -3.344,-0.109 -3.797,-0.359 -3.797,-2.156 v -32.907"
         id="path129" />
      <path
         class="Lyrics"
         d="m 2331.34,547.155 h -1.75 l -1.45,1.797 c -1.8,-1.406 -3.6,-2 -6.1,-2 -4.4,0 -7.29,2.844 -7.29,7.25 0,4.703 3.04,5.891 7.04,6.844 l 2.64,0.609 c 3.96,0.938 5.36,1.938 5.36,3.938 0,2.359 -2.04,4 -4.95,4 -4.25,0 -7.25,-2.688 -8.45,-7.688 h -2 v 9.438 h 1.75 l 1.75,-2.047 c 2.04,1.656 4.29,2.453 6.86,2.453 4.89,0 8.14,-3.047 8.14,-7.703 0,-2.203 -0.71,-3.891 -2.1,-5.047 -1.2,-1.047 -2.2,-1.453 -5.25,-2.094 l -2.5,-0.562 c -2.75,-0.594 -2.75,-0.594 -3.65,-1.094 -1.1,-0.5 -1.75,-1.547 -1.75,-2.656 0,-2.047 1.9,-3.438 4.65,-3.438 4.1,0 6.1,2.891 7.3,6.391 h 1.75 v -8.391 m 16.09,-0.203 c -6.14,0 -10.89,5.453 -10.89,12.453 0,6.844 4.8,12.344 10.8,12.344 6,0 10.8,-5.5 10.8,-12.406 0,-6.844 -4.8,-12.391 -10.71,-12.391 m 0,2.141 c 3.5,0 5.46,3.656 5.46,10.25 0,6.656 -1.96,10.25 -5.55,10.25 -3.59,0 -5.55,-3.594 -5.55,-10.188 0,-6.812 1.89,-10.312 5.64,-10.312 m 22.61,-14.954 -9.25,0.563 v 2.141 h 2.46 c 1.84,0.046 2.09,0.359 2.09,2.5 v 27.859 c -0.05,0.75 -0.09,1.047 -0.3,1.297 -0.36,0.453 -1.29,0.656 -3.45,0.703 h -0.34 v 1.797 h 12.93 v -1.797 h -0.34 c -3.34,-0.109 -3.8,-0.359 -3.8,-2.156 v -32.907"
         id="path131" />
      <path
         class="Tempo"
         d="m 519.394,246.038 h -3.265 v 42.266 c -1.094,-0.688 -2.485,-1.094 -4.063,-1.282 -3.562,0 -6.437,0.391 -9.609,2.172 -3.953,2.078 -8.313,6.438 -8.313,11.282 0,4.75 4.266,7.031 8.61,7.031 6.937,0 16.64,-5.938 16.64,-13.469 v -48"
         id="path132" />
      <path
         class="Tempo"
         d="m 541.129,283.991 h 30.234 v -6.906 h -30.234 v 6.906 m 0,12.36 h 30.234 v -6.907 h -30.234 v 6.907 m 72.078,-14.219 c 0,5.687 -0.234,17.453 -8.281,17.453 -1.266,0 -1.985,-0.422 -1.985,-1.203 0,-0.36 0.125,-0.719 0.36,-1.078 1.078,-1.735 1.203,-2.094 1.203,-3.422 0,-2.875 -2.031,-4.86 -5.031,-4.86 -3.313,0 -5.704,2.532 -5.704,6 0,4.688 4.375,7.688 11.157,7.688 13.625,0 18.843,-12.125 18.843,-24 0,-5.516 -1.203,-9.609 -3.718,-13.016 -3.063,-4.093 -7.438,-6.312 -12.485,-6.312 -8.703,0 -15,6.062 -15,14.406 0,7.078 5.047,12.297 11.875,12.297 3.719,0 6.25,-1.141 8.766,-3.953 m -5.156,-19.625 c 4.375,0 4.922,7.375 4.922,10.437 0,5.282 -1.922,8.641 -4.985,8.641 -4.75,0 -5.047,-5.75 -5.047,-9.172 0,-6.547 1.75,-9.906 5.11,-9.906 m 34.234,-3.125 c -9,0 -15.594,9.187 -15.594,21.672 0,12.468 6.594,21.656 15.594,21.656 8.813,0 15.547,-9.188 15.547,-21.359 0,-7.079 -1.625,-12.297 -5.172,-16.75 -2.812,-3.407 -6.359,-5.219 -10.375,-5.219 m -0.062,3.125 c 1.796,0 3.25,1.078 3.906,3 0.781,1.984 1.25,8.281 1.25,15.719 0,6.187 -0.469,12.656 -1.016,14.703 -0.656,2.39 -2.094,3.656 -4.14,3.656 -1.86,0 -3.235,-1.016 -3.954,-3 -0.781,-1.984 -1.265,-8.344 -1.265,-15.531 0,-6.313 0.484,-12.844 1.015,-14.891 0.672,-2.391 2.11,-3.656 4.204,-3.656"
         id="path133" />
      <path
         class="StaffText"
         d="m 1069.78,309.855 v 2.36 h 0.91 c 2.84,0.046 3.8,0.203 4.19,0.703 0.31,0.437 0.31,0.547 0.31,3.093 v 23.797 c 0,2.563 0,2.657 -0.31,3.11 -0.39,0.5 -1.35,0.703 -4.19,0.703 h -0.91 v 2.344 h 18.16 c 8.64,0 13.84,-3.657 13.84,-9.797 0,-5 -3.14,-7.86 -10,-9.047 2.41,-0.5 3.5,-0.953 4.8,-1.906 2.06,-1.547 3.31,-4 3.31,-6.5 0,-3.25 -2,-6.407 -4.9,-7.657 -1.8,-0.797 -4.3,-1.203 -7.25,-1.203 h -17.96 m 11,16.266 v -11.406 c 0,-1.954 0.66,-2.454 3.3,-2.5 h 2 c 4.91,0 8,1.593 8,7.046 0,4.954 -2.39,6.86 -8.84,6.86 h -4.46 m 0,2.344 h 4.41 c 7.64,0 10.45,2.046 10.45,7.546 0,6.704 -4.2,7.61 -9.86,7.61 h -2.09 c -2.5,0 -3,-0.5 -2.91,-3.156 v -12 m 28.8,19.796 c 1.5,0 7.16,-3.203 10.3,-6.5 2.56,-2.75 3.25,-6.453 3.25,-9 0,-4 -2.5,-6.843 -6.55,-6.843 -2.14,0 -4.05,0.703 -5.64,2.093 l 0.25,-20.593 c 0,-0.657 -0.56,-1.157 -1.2,-1.157 h -0.75 c -0.61,0 -1.21,0.5 -1.21,1.157 l 0.41,39.703 c 0,0.64 0.5,1.14 1.14,1.14 m 5.55,-18.593 c 2.86,0 3.2,2.953 3.2,4.093 0,4.547 -3.75,7.75 -7.09,10.204 -0.16,0.093 -0.3,0.203 -0.46,0.343 l 0.1,-12.343 c 0.11,-0.25 0.5,-0.797 1.25,-1.297 0.61,-0.453 1.75,-1 3,-1"
         id="path134" />
      <path
         class="StaffText"
         d="m 1640.33,324.598 h -2.11 l -11.5,29.141 c -1.34,3.906 -2.64,5.109 -5.5,5.312 h -0.2 v 2.344 h 13.25 v -2.344 h -1 c -2.69,0 -4.05,-0.953 -4.05,-2.859 0,-0.641 0.16,-1.25 0.45,-2.094 l 1.66,-4.406 h 13.25 l 2.7,6.703 c 0.3,0.797 0.39,1.094 0.39,1.344 0,0.812 -1.25,1.312 -3.09,1.312 h -2.11 v 2.344 h 15.5 v -2.344 h -0.69 c -2.61,-0.062 -3.06,-0.359 -4.2,-3.203 l -12.75,-31.25 m -2.45,8.188 5.64,14.203 h -11.19 l 5.55,-14.203"
         id="path135" />
      <path
         class="StaffText"
         d="m 2549.55,325.289 h -29.75 v 2.36 h 0.89 c 2.86,0.046 3.81,0.203 4.2,0.703 0.3,0.437 0.3,0.547 0.3,3.093 v 23.797 c 0,2.563 0,2.657 -0.3,3.11 -0.39,0.5 -1.34,0.703 -4.2,0.703 h -0.89 v 2.344 h 17.14 v -2.344 h -1.64 c -2.86,0 -3.8,-0.203 -4.2,-0.703 -0.3,-0.453 -0.3,-0.61 -0.3,-3.11 v -11.343 h 1 c 5.14,-0.204 7,1.656 7.2,7.203 h 2.35 V 334.695 H 2539 c -0.31,4.907 -2.25,6.797 -7,6.86 h -1.2 v -11.406 c -0.05,-2.11 0.45,-2.454 3.14,-2.5 h 2.31 c 8.2,-0.047 10.25,1.796 11.8,10.406 h 2.2 l -0.7,-12.766"
         id="path136" />
      <path
         class="StaffText"
         d="m 2084.55,309.885 v 2.36 h 0.91 c 2.84,0.046 3.79,0.203 4.18,0.703 0.32,0.437 0.32,0.547 0.32,3.093 v 23.797 c 0,2.563 0,2.657 -0.32,3.11 -0.39,0.5 -1.34,0.703 -4.18,0.703 h -0.91 v 2.344 h 18.16 c 8.64,0 13.84,-3.657 13.84,-9.797 0,-5 -3.14,-7.86 -10,-9.047 2.41,-0.5 3.5,-0.953 4.8,-1.906 2.06,-1.547 3.31,-4 3.31,-6.5 0,-3.25 -2,-6.407 -4.91,-7.657 -1.79,-0.797 -4.29,-1.203 -7.25,-1.203 h -17.95 m 11,16.266 v -11.406 c 0,-1.954 0.66,-2.454 3.3,-2.5 h 2 c 4.9,0 8,1.593 8,7.046 0,4.954 -2.39,6.86 -8.85,6.86 h -4.45 m 0,2.344 h 4.41 c 7.64,0 10.45,2.046 10.45,7.546 0,6.704 -4.2,7.61 -9.86,7.61 h -2.09 c -2.5,0 -3,-0.5 -2.91,-3.156 v -12 m 28.8,19.796 c 1.5,0 7.15,-3.203 10.29,-6.5 2.57,-2.75 3.25,-6.453 3.25,-9 0,-4 -2.5,-6.843 -6.54,-6.843 -2.14,0 -4.05,0.703 -5.64,2.093 l 0.25,-20.593 c 0,-0.657 -0.57,-1.157 -1.21,-1.157 H 2124 c -0.61,0 -1.2,0.5 -1.2,1.157 l 0.41,39.703 c 0,0.64 0.5,1.14 1.14,1.14 m 5.54,-18.593 c 2.86,0 3.21,2.953 3.21,4.093 0,4.547 -3.75,7.75 -7.1,10.204 -0.15,0.093 -0.29,0.203 -0.45,0.343 l 0.09,-12.343 c 0.11,-0.25 0.5,-0.797 1.25,-1.297 0.61,-0.453 1.75,-1 3,-1"
         id="path137" />
      <path
         class="StaffText"
         d="m 984.797,325.289 v 2.36 h 0.906 c 2.844,0.046 3.797,0.203 4.188,0.703 0.312,0.437 0.312,0.547 0.312,3.093 v 23.797 c 0,2.563 0,2.657 -0.312,3.11 -0.391,0.5 -1.344,0.703 -4.188,0.703 h -0.906 v 2.344 h 18.153 c 8.64,0 13.85,-3.657 13.85,-9.797 0,-5 -3.14,-7.86 -10,-9.047 2.4,-0.5 3.5,-0.953 4.79,-1.906 2.07,-1.547 3.32,-4 3.32,-6.5 0,-3.25 -2,-6.407 -4.91,-7.657 -1.8,-0.797 -4.3,-1.203 -7.25,-1.203 h -17.953 m 11,16.266 v -11.406 c 0,-1.954 0.656,-2.454 3.297,-2.5 h 1.996 c 4.91,0 8,1.593 8,7.046 0,4.954 -2.39,6.86 -8.84,6.86 h -4.453 m 0,2.344 h 4.403 c 7.64,0 10.46,2.046 10.46,7.546 0,6.704 -4.21,7.61 -9.86,7.61 h -2.097 c -2.5,0 -3,-0.5 -2.906,-3.156 v -12 m 28.793,19.796 c 1.5,0 7.16,-3.203 10.3,-6.5 2.56,-2.75 3.25,-6.453 3.25,-9 0,-4 -2.5,-6.843 -6.55,-6.843 -2.14,0 -4.04,0.703 -5.64,2.093 l 0.25,-20.593 c 0,-0.657 -0.56,-1.157 -1.2,-1.157 h -0.75 c -0.61,0 -1.2,0.5 -1.2,1.157 l 0.4,39.703 c 0,0.64 0.5,1.14 1.14,1.14 m 5.55,-18.593 c 2.86,0 3.2,2.953 3.2,4.093 0,4.547 -3.75,7.75 -7.09,10.204 -0.16,0.093 -0.3,0.203 -0.45,0.343 l 0.09,-12.343 c 0.11,-0.25 0.5,-0.797 1.25,-1.297 0.61,-0.453 1.75,-1 3,-1"
         id="path138" />
      <path
         class="StaffText"
         d="m 850.068,324.945 h -1.907 l -2,2.954 c -3.64,-2.657 -5.5,-3.36 -8.953,-3.36 -4.75,0 -8.797,2 -12.14,6 -3.204,3.813 -4.704,8.016 -4.704,13.156 0,10.797 7.047,18.454 16.907,18.454 8,0 13.093,-4.704 14.25,-13.094 l -2.36,-0.406 c -1.343,7.453 -5.14,11.156 -11.297,11.156 -7.406,0 -10.906,-5.11 -10.906,-15.906 0,-5.704 0.75,-9.454 2.453,-12.454 1.547,-2.796 4.61,-4.546 7.86,-4.546 3.5,0 6.593,1.843 8.5,5.046 0.953,1.657 1.64,3.5 2.843,7.454 h 2.204 l -0.75,-14.454"
         id="path139" />
      <path
         class="StaffText"
         d="m 2595.91,324.568 h -2.11 l -11.5,29.14 c -1.34,3.907 -2.64,5.11 -5.5,5.313 h -0.2 v 2.344 h 13.25 v -2.344 h -1 c -2.69,0 -4.05,-0.953 -4.05,-2.86 0,-0.64 0.16,-1.25 0.45,-2.093 l 1.66,-4.407 h 13.25 l 2.7,6.704 c 0.3,0.796 0.39,1.093 0.39,1.343 0,0.813 -1.25,1.313 -3.09,1.313 h -2.11 v 2.344 h 15.5 v -2.344 h -0.69 c -2.61,-0.063 -3.06,-0.36 -4.2,-3.203 l -12.75,-31.25 m -2.45,8.187 5.64,14.203 h -11.19 l 5.55,-14.203"
         id="path140" />
      <path
         class="StaffText"
         d="m 763.957,309.857 v 2.359 h 0.907 c 2.843,0.047 3.796,0.203 4.187,0.703 0.313,0.438 0.313,0.547 0.313,3.094 v 23.797 c 0,2.562 0,2.656 -0.313,3.109 -0.391,0.5 -1.344,0.703 -4.187,0.703 h -0.907 v 2.344 h 18.157 c 8.64,0 13.843,-3.656 13.843,-9.797 0,-5 -3.14,-7.859 -10,-9.047 2.407,-0.5 3.5,-0.953 4.797,-1.906 2.063,-1.547 3.313,-4 3.313,-6.5 0,-3.25 -2,-6.406 -4.907,-7.656 -1.796,-0.797 -4.296,-1.203 -7.25,-1.203 h -17.953 m 11,16.265 v -11.406 c 0,-1.953 0.657,-2.453 3.297,-2.5 h 2 c 4.906,0 8,1.594 8,7.047 0,4.953 -2.39,6.859 -8.844,6.859 h -4.453 m 0,2.344 h 4.407 c 7.64,0 10.453,2.047 10.453,7.547 0,6.703 -4.203,7.609 -9.86,7.609 h -2.093 c -2.5,0 -3,-0.5 -2.907,-3.156 v -12 m 28.797,19.797 c 1.5,0 7.156,-3.203 10.297,-6.5 2.563,-2.75 3.25,-6.453 3.25,-9 0,-4 -2.5,-6.844 -6.547,-6.844 -2.14,0 -4.047,0.703 -5.64,2.094 l 0.25,-20.594 c 0,-0.656 -0.563,-1.156 -1.204,-1.156 h -0.75 c -0.609,0 -1.203,0.5 -1.203,1.156 l 0.407,39.703 c 0,0.641 0.5,1.141 1.14,1.141 m 5.547,-18.594 c 2.859,0 3.203,2.953 3.203,4.094 0,4.547 -3.75,7.75 -7.094,10.203 -0.156,0.094 -0.296,0.203 -0.453,0.344 l 0.094,-12.344 c 0.109,-0.25 0.5,-0.797 1.25,-1.297 0.609,-0.453 1.75,-1 3,-1"
         id="path141" />
      <path
         class="StaffText"
         d="m 1564.27,309.885 v 2.36 h 0.9 c 2.85,0.046 3.8,0.203 4.19,0.703 0.31,0.437 0.31,0.547 0.31,3.093 v 23.797 c 0,2.563 0,2.657 -0.31,3.11 -0.39,0.5 -1.34,0.703 -4.19,0.703 h -0.9 v 2.344 h 18.15 c 8.64,0 13.85,-3.657 13.85,-9.797 0,-5 -3.14,-7.86 -10,-9.047 2.4,-0.5 3.5,-0.953 4.79,-1.906 2.07,-1.547 3.32,-4 3.32,-6.5 0,-3.25 -2,-6.407 -4.91,-7.657 -1.8,-0.797 -4.3,-1.203 -7.25,-1.203 h -17.95 m 11,16.266 v -11.406 c 0,-1.954 0.65,-2.454 3.29,-2.5 h 2 c 4.91,0 8,1.593 8,7.046 0,4.954 -2.39,6.86 -8.84,6.86 h -4.45 m 0,2.344 h 4.4 c 7.64,0 10.46,2.046 10.46,7.546 0,6.704 -4.21,7.61 -9.86,7.61 h -2.1 c -2.5,0 -3,-0.5 -2.9,-3.156 v -12 m 28.79,19.796 c 1.5,0 7.16,-3.203 10.3,-6.5 2.56,-2.75 3.25,-6.453 3.25,-9 0,-4 -2.5,-6.843 -6.55,-6.843 -2.14,0 -4.04,0.703 -5.64,2.093 l 0.25,-20.593 c 0,-0.657 -0.56,-1.157 -1.2,-1.157 h -0.75 c -0.61,0 -1.2,0.5 -1.2,1.157 l 0.4,39.703 c 0,0.64 0.5,1.14 1.14,1.14 m 5.55,-18.593 c 2.86,0 3.2,2.953 3.2,4.093 0,4.547 -3.75,7.75 -7.09,10.204 -0.16,0.093 -0.3,0.203 -0.45,0.343 l 0.09,-12.343 c 0.11,-0.25 0.5,-0.797 1.25,-1.297 0.61,-0.453 1.75,-1 3,-1"
         id="path142" />
      <path
         class="StaffText"
         d="m 2160.61,324.598 h -2.11 l -11.5,29.141 c -1.34,3.906 -2.64,5.109 -5.5,5.312 h -0.2 v 2.344 h 13.25 v -2.344 h -1 c -2.69,0 -4.05,-0.953 -4.05,-2.859 0,-0.641 0.16,-1.25 0.46,-2.094 l 1.65,-4.406 h 13.25 l 2.71,6.703 c 0.29,0.797 0.39,1.094 0.39,1.344 0,0.812 -1.25,1.312 -3.1,1.312 h -2.11 v 2.344 h 15.5 v -2.344 h -0.68 c -2.61,-0.062 -3.07,-0.359 -4.21,-3.203 l -12.75,-31.25 m -2.45,8.188 5.64,14.203 h -11.19 l 5.55,-14.203"
         id="path143" />
      <path
         class="StaffText"
         d="m 2662.61,324.945 h -1.9 l -2,2.954 c -3.64,-2.657 -5.5,-3.36 -8.96,-3.36 -4.75,0 -8.79,2 -12.14,6 -3.2,3.813 -4.7,8.016 -4.7,13.156 0,10.797 7.05,18.454 16.91,18.454 8,0 13.09,-4.704 14.25,-13.094 l -2.36,-0.406 c -1.35,7.453 -5.14,11.156 -11.3,11.156 -7.41,0 -10.91,-5.11 -10.91,-15.906 0,-5.704 0.75,-9.454 2.46,-12.454 1.54,-2.796 4.61,-4.546 7.86,-4.546 3.5,0 6.59,1.843 8.5,5.046 0.95,1.657 1.64,3.5 2.84,7.454 h 2.2 l -0.75,-14.454"
         id="path144" />
      <path
         class="StaffText"
         d="m 726.706,316.819 h -2.109 l -11.5,29.141 c -1.344,3.906 -2.641,5.109 -5.5,5.312 h -0.203 v 2.344 h 13.25 v -2.344 h -1 c -2.688,0 -4.047,-0.953 -4.047,-2.859 0,-0.641 0.156,-1.25 0.453,-2.094 l 1.656,-4.406 h 13.25 l 2.703,6.703 c 0.297,0.797 0.391,1.094 0.391,1.344 0,0.812 -1.25,1.312 -3.094,1.312 h -2.109 v 2.344 h 15.5 v -2.344 h -0.688 c -2.609,-0.062 -3.062,-0.359 -4.203,-3.203 l -12.75,-31.25 m -2.453,8.188 5.641,14.203 h -11.188 l 5.547,-14.203"
         id="path145" />
      <path
         class="StaffText"
         d="m 2027.89,310.771 v 2.359 h 0.91 c 2.84,0.047 3.8,0.203 4.19,0.703 0.31,0.438 0.31,0.547 0.31,3.094 v 23.797 c 0,2.562 0,2.656 -0.31,3.109 -0.39,0.5 -1.35,0.703 -4.19,0.703 h -0.91 v 2.344 h 18.16 c 8.64,0 13.84,-3.656 13.84,-9.797 0,-5 -3.14,-7.859 -10,-9.047 2.41,-0.5 3.5,-0.953 4.8,-1.906 2.06,-1.547 3.31,-4 3.31,-6.5 0,-3.25 -2,-6.406 -4.9,-7.656 -1.8,-0.797 -4.3,-1.203 -7.25,-1.203 h -17.96 m 11,16.265 V 315.63 c 0,-1.953 0.66,-2.453 3.3,-2.5 h 2 c 4.91,0 8,1.594 8,7.047 0,4.953 -2.39,6.859 -8.84,6.859 h -4.46 m 0,2.344 h 4.41 c 7.64,0 10.45,2.047 10.45,7.547 0,6.703 -4.2,7.609 -9.86,7.609 h -2.09 c -2.5,0 -3,-0.5 -2.91,-3.156 v -12 m 28.8,19.797 c 1.5,0 7.16,-3.203 10.3,-6.5 2.56,-2.75 3.25,-6.453 3.25,-9 0,-4 -2.5,-6.844 -6.55,-6.844 -2.14,0 -4.05,0.703 -5.64,2.094 l 0.25,-20.594 c 0,-0.656 -0.56,-1.156 -1.2,-1.156 h -0.75 c -0.61,0 -1.21,0.5 -1.21,1.156 l 0.41,39.703 c 0,0.641 0.5,1.141 1.14,1.141 m 5.55,-18.594 c 2.86,0 3.2,2.953 3.2,4.094 0,4.547 -3.75,7.75 -7.09,10.203 -0.16,0.094 -0.3,0.203 -0.46,0.344 l 0.1,-12.344 c 0.11,-0.25 0.5,-0.797 1.25,-1.297 0.61,-0.453 1.75,-1 3,-1"
         id="path146" />
      <path
         class="StaffText"
         d="m 676.12,320.813 h -1.891 l -1.953,3 c -3.25,-2.547 -5.453,-3.406 -9.109,-3.406 -3.953,0 -7.047,1.109 -10.203,3.656 -4.938,4 -7.25,9.047 -7.25,15.797 0,5.109 1.453,9.359 4.406,12.609 3.094,3.5 7.703,5.547 12.5,5.547 4.203,0 7.156,-1.297 10.406,-4.547 l 1.844,4.5 h 2.109 v -11 c 0,-2.546 0,-2.656 0.297,-3.109 0.453,-0.547 1.344,-0.687 4.203,-0.687 h 0.75 v -2.36 h -15.906 v 2.36 h 0.953 c 4.203,0 4.547,0.25 4.547,3.046 0,2.141 -0.344,4.094 -1,5.297 -1.25,2.453 -4.453,4.157 -7.703,4.157 -3.25,0 -6.453,-1.657 -8.156,-4.157 -1.844,-2.797 -2.641,-6.297 -2.641,-11.656 0,-11.141 3.703,-17.094 10.641,-17.094 5.703,0 9.656,4.094 11.703,12.094 h 2.156 l -0.703,-14.047"
         id="path147" />
      <path
         class="StaffText"
         d="m 1507.61,310.771 v 2.359 h 0.91 c 2.84,0.047 3.79,0.203 4.18,0.703 0.32,0.438 0.32,0.547 0.32,3.094 v 23.797 c 0,2.562 0,2.656 -0.32,3.109 -0.39,0.5 -1.34,0.703 -4.18,0.703 h -0.91 v 2.344 h 18.16 c 8.64,0 13.84,-3.656 13.84,-9.797 0,-5 -3.14,-7.859 -10,-9.047 2.41,-0.5 3.5,-0.953 4.8,-1.906 2.06,-1.547 3.31,-4 3.31,-6.5 0,-3.25 -2,-6.406 -4.91,-7.656 -1.79,-0.797 -4.29,-1.203 -7.25,-1.203 h -17.95 m 11,16.265 V 315.63 c 0,-1.953 0.66,-2.453 3.3,-2.5 h 2 c 4.9,0 8,1.594 8,7.047 0,4.953 -2.39,6.859 -8.85,6.859 h -4.45 m 0,2.344 h 4.41 c 7.64,0 10.45,2.047 10.45,7.547 0,6.703 -4.2,7.609 -9.86,7.609 h -2.09 c -2.5,0 -3,-0.5 -2.91,-3.156 v -12 m 28.8,19.797 c 1.5,0 7.15,-3.203 10.29,-6.5 2.57,-2.75 3.25,-6.453 3.25,-9 0,-4 -2.5,-6.844 -6.54,-6.844 -2.14,0 -4.05,0.703 -5.64,2.094 l 0.25,-20.594 c 0,-0.656 -0.57,-1.156 -1.21,-1.156 h -0.75 c -0.61,0 -1.2,0.5 -1.2,1.156 l 0.41,39.703 c 0,0.641 0.5,1.141 1.14,1.141 m 5.54,-18.594 c 2.86,0 3.21,2.953 3.21,4.094 0,4.547 -3.75,7.75 -7.1,10.203 -0.15,0.094 -0.29,0.203 -0.45,0.344 l 0.09,-12.344 c 0.11,-0.25 0.5,-0.797 1.25,-1.297 0.61,-0.453 1.75,-1 3,-1"
         id="path148" />
      <path
         class="StaffText"
         d="m 2217.27,324.602 h -2.11 l -11.5,29.14 c -1.34,3.907 -2.64,5.11 -5.5,5.313 h -0.2 v 2.344 h 13.25 v -2.344 h -1 c -2.69,0 -4.05,-0.953 -4.05,-2.86 0,-0.64 0.16,-1.25 0.45,-2.093 l 1.66,-4.407 h 13.25 l 2.7,6.704 c 0.3,0.796 0.39,1.093 0.39,1.343 0,0.813 -1.25,1.313 -3.09,1.313 h -2.11 v 2.344 h 15.5 v -2.344 h -0.69 c -2.61,-0.063 -3.06,-0.36 -4.2,-3.203 l -12.75,-31.25 m -2.45,8.187 5.64,14.203 h -11.19 l 5.55,-14.203"
         id="path149" />
      <path
         class="StaffText"
         d="m 614.143,325.289 h -29.75 v 2.36 h 0.891 c 2.859,0.046 3.812,0.203 4.203,0.703 0.297,0.437 0.297,0.547 0.297,3.093 v 23.797 c 0,2.563 0,2.657 -0.297,3.11 -0.391,0.5 -1.344,0.703 -4.203,0.703 h -0.891 v 2.344 h 17.141 v -2.344 h -1.641 c -2.859,0 -3.797,-0.203 -4.203,-0.703 -0.297,-0.453 -0.297,-0.61 -0.297,-3.11 v -11.343 h 1 c 5.141,-0.204 7,1.656 7.203,7.203 h 2.344 v -16.407 h -2.344 c -0.312,4.907 -2.25,6.797 -7,6.86 h -1.203 v -11.406 c -0.047,-2.11 0.453,-2.454 3.141,-2.5 h 2.312 c 8.203,-0.047 10.25,1.796 11.797,10.406 h 2.203 l -0.703,-12.766"
         id="path150" />
      <path
         class="StaffText"
         d="m 1145.85,314.234 h -2.11 l -11.5,29.141 c -1.35,3.906 -2.64,5.109 -5.5,5.312 h -0.21 v 2.344 h 13.25 v -2.344 h -1 c -2.68,0 -4.04,-0.953 -4.04,-2.859 0,-0.641 0.15,-1.25 0.45,-2.094 l 1.66,-4.406 h 13.25 l 2.7,6.703 c 0.3,0.797 0.39,1.094 0.39,1.344 0,0.812 -1.25,1.312 -3.09,1.312 h -2.11 v 2.344 h 15.5 v -2.344 h -0.69 c -2.61,-0.062 -3.06,-0.359 -4.2,-3.203 l -12.75,-31.25 m -2.46,8.188 5.64,14.203 h -11.18 l 5.54,-14.203"
         id="path151" />
      <path
         class="StaffText"
         d="m 1838.44,324.945 h -1.89 l -1.95,3 c -3.25,-2.546 -5.46,-3.406 -9.11,-3.406 -3.96,0 -7.05,1.11 -10.21,3.656 -4.93,4 -7.25,9.047 -7.25,15.797 0,5.11 1.46,9.36 4.41,12.61 3.09,3.5 7.7,5.547 12.5,5.547 4.2,0 7.16,-1.297 10.41,-4.547 l 1.84,4.5 h 2.11 v -11 c 0,-2.547 0,-2.657 0.3,-3.11 0.45,-0.547 1.34,-0.687 4.2,-0.687 h 0.75 v -2.36 h -15.91 v 2.36 h 0.96 c 4.2,0 4.54,0.25 4.54,3.047 0,2.14 -0.34,4.093 -1,5.297 -1.25,2.453 -4.45,4.156 -7.7,4.156 -3.25,0 -6.45,-1.656 -8.16,-4.156 -1.84,-2.797 -2.64,-6.297 -2.64,-11.657 0,-11.14 3.71,-17.093 10.64,-17.093 5.71,0 9.66,4.093 11.71,12.093 h 2.15 l -0.7,-14.047"
         id="path152" />
      <path
         class="StaffText"
         d="m 2289.04,324.945 h -1.89 l -1.95,3 c -3.25,-2.546 -5.45,-3.406 -9.11,-3.406 -3.95,0 -7.05,1.11 -10.2,3.656 -4.94,4 -7.25,9.047 -7.25,15.797 0,5.11 1.45,9.36 4.4,12.61 3.1,3.5 7.71,5.547 12.5,5.547 4.21,0 7.16,-1.297 10.41,-4.547 l 1.84,4.5 h 2.11 v -11 c 0,-2.547 0,-2.657 0.3,-3.11 0.45,-0.547 1.34,-0.687 4.2,-0.687 h 0.75 v -2.36 h -15.9 v 2.36 h 0.95 c 4.2,0 4.55,0.25 4.55,3.047 0,2.14 -0.35,4.093 -1,5.297 -1.25,2.453 -4.46,4.156 -7.71,4.156 -3.25,0 -6.45,-1.656 -8.15,-4.156 -1.85,-2.797 -2.64,-6.297 -2.64,-11.657 0,-11.14 3.7,-17.093 10.64,-17.093 5.7,0 9.65,4.093 11.7,12.093 h 2.16 l -0.71,-14.047"
         id="path153" />
      <path
         class="StaffText"
         d="m 1933.98,317.512 h -2.11 l -11.5,29.141 c -1.34,3.906 -2.64,5.109 -5.5,5.312 h -0.2 v 2.344 h 13.25 v -2.344 h -1 c -2.69,0 -4.05,-0.953 -4.05,-2.859 0,-0.641 0.16,-1.25 0.46,-2.094 l 1.65,-4.406 h 13.25 l 2.71,6.703 c 0.29,0.797 0.39,1.094 0.39,1.344 0,0.812 -1.25,1.312 -3.1,1.312 h -2.11 v 2.344 h 15.5 v -2.344 h -0.68 c -2.61,-0.062 -3.07,-0.359 -4.21,-3.203 l -12.75,-31.25 m -2.45,8.187 5.64,14.204 h -11.19 l 5.55,-14.204"
         id="path155" />
      <path
         class="StaffText"
         d="m 1470.36,315.741 h -2.11 l -11.5,29.14 c -1.34,3.906 -2.64,5.11 -5.5,5.313 h -0.2 v 2.343 h 13.25 v -2.343 h -1 c -2.69,0 -4.05,-0.953 -4.05,-2.86 0,-0.64 0.16,-1.25 0.45,-2.093 l 1.66,-4.407 h 13.25 l 2.7,6.703 c 0.3,0.797 0.39,1.094 0.39,1.344 0,0.813 -1.25,1.313 -3.09,1.313 h -2.11 v 2.343 h 15.5 v -2.343 h -0.69 c -2.61,-0.063 -3.06,-0.36 -4.2,-3.203 l -12.75,-31.25 m -2.45,8.187 5.64,14.203 h -11.19 l 5.55,-14.203"
         id="path156" />
      <path
         class="StaffText"
         d="m 1413.7,317.512 h -2.11 l -11.5,29.141 c -1.34,3.906 -2.64,5.109 -5.5,5.312 h -0.2 v 2.344 h 13.25 v -2.344 h -1 c -2.69,0 -4.05,-0.953 -4.05,-2.859 0,-0.641 0.16,-1.25 0.46,-2.094 l 1.65,-4.406 h 13.25 l 2.7,6.703 c 0.3,0.797 0.4,1.094 0.4,1.344 0,0.812 -1.25,1.312 -3.1,1.312 h -2.11 v 2.344 h 15.5 v -2.344 h -0.69 c -2.6,-0.062 -3.06,-0.359 -4.2,-3.203 l -12.75,-31.25 m -2.45,8.187 5.64,14.204 h -11.19 l 5.55,-14.204"
         id="path157" />
      <path
         class="StaffText"
         d="m 2358.72,324.945 h -1.89 l -1.95,3 c -3.25,-2.546 -5.45,-3.406 -9.11,-3.406 -3.95,0 -7.05,1.11 -10.2,3.656 -4.94,4 -7.25,9.047 -7.25,15.797 0,5.11 1.45,9.36 4.4,12.61 3.1,3.5 7.71,5.547 12.5,5.547 4.21,0 7.16,-1.297 10.41,-4.547 l 1.84,4.5 h 2.11 v -11 c 0,-2.547 0,-2.657 0.3,-3.11 0.45,-0.547 1.34,-0.687 4.2,-0.687 h 0.75 v -2.36 h -15.9 v 2.36 h 0.95 c 4.2,0 4.55,0.25 4.55,3.047 0,2.14 -0.35,4.093 -1,5.297 -1.25,2.453 -4.46,4.156 -7.71,4.156 -3.25,0 -6.45,-1.656 -8.15,-4.156 -1.85,-2.797 -2.64,-6.297 -2.64,-11.657 0,-11.14 3.7,-17.093 10.64,-17.093 5.7,0 9.65,4.093 11.7,12.093 h 2.16 l -0.71,-14.047"
         id="path158" />
      <path
         class="StaffText"
         d="m 1768.76,324.945 h -1.89 l -1.95,3 c -3.25,-2.546 -5.46,-3.406 -9.11,-3.406 -3.96,0 -7.05,1.11 -10.21,3.656 -4.93,4 -7.25,9.047 -7.25,15.797 0,5.11 1.46,9.36 4.41,12.61 3.09,3.5 7.7,5.547 12.5,5.547 4.2,0 7.16,-1.297 10.41,-4.547 l 1.84,4.5 h 2.11 v -11 c 0,-2.547 0,-2.657 0.3,-3.11 0.45,-0.547 1.34,-0.687 4.2,-0.687 h 0.75 v -2.36 h -15.91 v 2.36 h 0.96 c 4.2,0 4.54,0.25 4.54,3.047 0,2.14 -0.34,4.093 -1,5.297 -1.25,2.453 -4.45,4.156 -7.7,4.156 -3.25,0 -6.45,-1.656 -8.16,-4.156 -1.84,-2.797 -2.64,-6.297 -2.64,-11.657 0,-11.14 3.71,-17.093 10.64,-17.093 5.71,0 9.66,4.093 11.71,12.093 h 2.15 l -0.7,-14.047"
         id="path160" />
      <path
         class="StaffText"
         d="m 1990.64,315.741 h -2.11 l -11.5,29.14 c -1.34,3.906 -2.64,5.11 -5.5,5.313 h -0.2 v 2.343 h 13.25 v -2.343 h -1 c -2.69,0 -4.05,-0.953 -4.05,-2.86 0,-0.64 0.16,-1.25 0.45,-2.093 l 1.66,-4.407 h 13.25 l 2.7,6.703 c 0.3,0.797 0.39,1.094 0.39,1.344 0,0.813 -1.25,1.313 -3.09,1.313 h -2.11 v 2.343 h 15.5 v -2.343 h -0.69 c -2.61,-0.063 -3.06,-0.36 -4.2,-3.203 l -12.75,-31.25 m -2.45,8.187 5.64,14.203 h -11.19 l 5.55,-14.203"
         id="path161" />
      <path
         class="StaffText"
         d="m 1302.06,324.945 h -1.91 l -2,2.954 c -3.64,-2.657 -5.5,-3.36 -8.95,-3.36 -4.75,0 -8.8,2 -12.14,6 -3.2,3.813 -4.7,8.016 -4.7,13.156 0,10.797 7.04,18.454 16.9,18.454 8,0 13.1,-4.704 14.25,-13.094 l -2.36,-0.406 c -1.34,7.453 -5.14,11.156 -11.29,11.156 -7.41,0 -10.91,-5.11 -10.91,-15.906 0,-5.704 0.75,-9.454 2.45,-12.454 1.55,-2.796 4.61,-4.546 7.86,-4.546 3.5,0 6.6,1.843 8.5,5.046 0.96,1.657 1.64,3.5 2.85,7.454 h 2.2 l -0.75,-14.454"
         id="path162" />
      <path
         class="StaffText"
         d="m 1217.62,323.945 h -1.89 l -1.95,3 c -3.25,-2.546 -5.46,-3.406 -9.11,-3.406 -3.96,0 -7.05,1.11 -10.21,3.656 -4.93,4 -7.25,9.047 -7.25,15.797 0,5.11 1.46,9.36 4.41,12.61 3.09,3.5 7.7,5.547 12.5,5.547 4.2,0 7.16,-1.297 10.41,-4.547 l 1.84,4.5 h 2.11 v -11 c 0,-2.547 0,-2.657 0.3,-3.11 0.45,-0.547 1.34,-0.687 4.2,-0.687 h 0.75 v -2.36 h -15.91 v 2.36 h 0.96 c 4.2,0 4.54,0.25 4.54,3.047 0,2.14 -0.34,4.093 -1,5.297 -1.25,2.453 -4.45,4.156 -7.7,4.156 -3.25,0 -6.45,-1.656 -8.16,-4.156 -1.84,-2.797 -2.64,-6.297 -2.64,-11.657 0,-11.14 3.71,-17.093 10.64,-17.093 5.71,0 9.66,4.093 11.71,12.093 h 2.15 l -0.7,-14.047"
         id="path164" />
      <path
         class="StaffText"
         d="m 1696.99,324.602 h -2.11 l -11.5,29.14 c -1.35,3.907 -2.64,5.11 -5.5,5.313 h -0.21 v 2.344 h 13.25 v -2.344 h -1 c -2.68,0 -4.04,-0.953 -4.04,-2.86 0,-0.64 0.15,-1.25 0.45,-2.093 l 1.66,-4.407 h 13.25 l 2.7,6.704 c 0.3,0.796 0.39,1.093 0.39,1.343 0,0.813 -1.25,1.313 -3.09,1.313 h -2.11 v 2.344 h 15.5 v -2.344 h -0.69 c -2.61,-0.063 -3.06,-0.36 -4.2,-3.203 l -12.75,-31.25 m -2.46,8.187 5.64,14.203 h -11.18 l 5.54,-14.203"
         id="path165" />
      <path
         class="StaffText"
         d="m 2464.56,325.289 h -29.75 v 2.36 h 0.89 c 2.86,0.046 3.82,0.203 4.21,0.703 0.29,0.437 0.29,0.547 0.29,3.093 v 23.797 c 0,2.563 0,2.657 -0.29,3.11 -0.39,0.5 -1.35,0.703 -4.21,0.703 h -0.89 v 2.344 h 17.14 v -2.344 h -1.64 c -2.86,0 -3.79,-0.203 -4.2,-0.703 -0.3,-0.453 -0.3,-0.61 -0.3,-3.11 v -11.343 h 1 c 5.14,-0.204 7,1.656 7.21,7.203 h 2.34 v -16.407 h -2.34 c -0.32,4.907 -2.25,6.797 -7,6.86 h -1.21 v -11.406 c -0.04,-2.11 0.46,-2.454 3.14,-2.5 h 2.32 c 8.2,-0.047 10.25,1.796 11.79,10.406 h 2.21 l -0.71,-12.766"
         id="path166" />
    </g>
    <g
       id="g167"
       transform="translate(0,-302.39999)">
      <polyline
         class="StaffLines"
         fill="none"
         stroke="#000000"
         stroke-width="2.73"
         stroke-linejoin="bevel"
         points="212.598,993.799 769.973,993.799"
         id="polyline6" />
      <polyline
         class="StaffLines"
         fill="none"
         stroke="#000000"
         stroke-width="2.73"
         stroke-linejoin="bevel"
         points="212.598,1018.6 769.973,1018.6"
         id="polyline7" />
      <polyline
         class="StaffLines"
         fill="none"
         stroke="#000000"
         stroke-width="2.73"
         stroke-linejoin="bevel"
         points="212.598,1043.4 769.973,1043.4"
         id="polyline8" />
      <polyline
         class="StaffLines"
         fill="none"
         stroke="#000000"
         stroke-width="2.73"
         stroke-linejoin="bevel"
         points="212.598,1068.2 769.973,1068.2"
         id="polyline9" />
      <polyline
         class="StaffLines"
         fill="none"
         stroke="#000000"
         stroke-width="2.73"
         stroke-linejoin="bevel"
         points="212.598,1093 769.973,1093"
         id="polyline10" />
      <path
         class="MeasureNumber"
         d="m 217.911,930.809 c 0.687,-3.532 1.484,-5.719 3,-8.407 1.812,-3.156 3.969,-4.765 6.359,-4.765 1.25,0 2,0.484 2,1.25 0,0.281 -0.078,0.437 -0.359,0.953 -0.36,0.687 -0.516,1.156 -0.516,1.766 0,1.281 0.953,2.156 2.313,2.156 1.64,0 2.765,-1.203 2.765,-3 0,-2.719 -2.562,-4.719 -6.125,-4.719 -8.906,0 -14.312,11.641 -14.312,19.313 0,5.89 2.922,9.437 7.797,9.437 6,0 10.437,-4.953 10.437,-10.828 0,-4.078 -2.75,-6.922 -6.75,-6.922 -2.797,0 -4.969,1.203 -6.609,3.766 m 5.328,-1.453 c 2.484,0 3.844,1.718 3.844,4.843 0,5.078 -2.688,8.953 -6.25,8.953 -2.563,0 -4.078,-1.875 -4.078,-5.078 0,-5 2.765,-8.718 6.484,-8.718"
         id="path10" />
      <polyline
         class="BarLine"
         fill="none"
         stroke="#000000"
         stroke-width="4.46"
         stroke-linejoin="bevel"
         points="744.925,992.435 744.925,1094.36"
         id="polyline16" />
      <polyline
         class="BarLine"
         fill="none"
         stroke="#000000"
         stroke-width="13.64"
         stroke-linejoin="bevel"
         points="763.153,992.435 763.153,1094.36"
         id="polyline17" />
      <polyline
         class="Stem"
         fill="none"
         stroke="#000000"
         stroke-width="2.48"
         stroke-linejoin="bevel"
         points="402.853,1035.17 402.853,1111.6"
         id="polyline37" />
      <polyline
         class="Stem"
         fill="none"
         stroke="#000000"
         stroke-width="2.48"
         stroke-linejoin="bevel"
         points="520.837,1039.43 520.837,975.325"
         id="polyline38" />
      <polyline
         class="Stem"
         fill="none"
         stroke="#000000"
         stroke-width="2.48"
         stroke-linejoin="bevel"
         points="579.658,1064.23 579.658,981.274"
         id="polyline39" />
      <polyline
         class="Stem"
         fill="none"
         stroke="#000000"
         stroke-width="2.48"
         stroke-linejoin="bevel"
         points="641.338,1076.63 641.338,993.799"
         id="polyline40" />
      <path
         class="Note"
         transform="matrix(0.992001,0,0,0.992001,401.613,1031)"
         d="M 0,4.20313 C 0,8.5 3.09375,13.2969 11.2031,13.2969 21.5938,13.2969 32.5,4.79688 32.5,-4 c 0,-5.90625 -5,-9.2031 -11.2031,-9.2031 C 11.5938,-13.2031 0,-5 0,4.20313"
         id="path53" />
      <path
         class="Note"
         transform="matrix(0.992001,0,0,0.992001,489.845,1043.4)"
         d="M 0,4.20313 C 0,8.5 3.09375,13.2969 11.2031,13.2969 21.5938,13.2969 32.5,4.79688 32.5,-4 c 0,-5.90625 -5,-9.2031 -11.2031,-9.2031 C 11.5938,-13.2031 0,-5 0,4.20313"
         id="path61" />
      <path
         class="Note"
         transform="matrix(0.992001,0,0,0.992001,548.666,1068.2)"
         d="M 0,4.20313 C 0,8.5 3.09375,13.2969 11.2031,13.2969 21.5938,13.2969 32.5,4.79688 32.5,-4 c 0,-5.90625 -5,-9.2031 -11.2031,-9.2031 C 11.5938,-13.2031 0,-5 0,4.20313"
         id="path63" />
      <path
         class="Note"
         transform="matrix(0.992001,0,0,0.992001,610.346,1080.6)"
         d="M 21.2969,-13.2031 C 11.5938,-13.2031 0,-5.09375 0,4.20313 0,8.5 3.09375,13.2969 11.2031,13.2969 21.5938,13.2969 32.5,4.79688 32.5,-4 c 0,-5.90625 -5,-9.2031 -11.2031,-9.2031 M 7.5,8.59375 C 4.20313,8.59375 3.5,5.90625 3.5,5 3.5,0.09375 20.2969,-8.5 25,-8.5 c 2.4063,0 4,1.40625 4,3.59375 0,5 -16.9062,13.5 -21.5,13.5"
         id="path68" />
      <path
         class="Clef"
         transform="matrix(0.992001,0,0,0.992001,231.198,1068.2)"
         d="m 12.2969,51.2969 c 0,6.6094 5,15.3125 18.5,15.3125 4.7031,0 8.8125,-1.2031 12.4062,-3.4063 C 48.6094,59.4063 50,52.7969 50,46.5 c 0,-3.8906 -0.5937,-8.3906 -1.5937,-14.0937 -0.2969,-2 -0.9063,-5 -1.5,-8.9063 C 56.7031,20.2969 64,10.0938 64,-0.203125 64,-15.2969 53.2969,-25.5 38.7031,-25.5 c -1,-6 -2,-11.9063 -2.7968,-17.5 10.5,-11.1094 17.7968,-23.6094 17.7968,-39.5 0,-9.1094 -2.7968,-16.5 -4.4062,-20.109 -2.3906,-5.094 -5.2969,-8.594 -7.0938,-8.594 -0.7031,0 -3.7968,1.203 -7.0937,5.094 -6.4063,7.609 -8.2031,20.4059 -8.2031,28.7965 0,5.4062 0.5,10.3125 2.2031,21.5156 -0.1094,0.0938 -5.3125,5.3906 -7.4063,7.0938 C 12.5938,-40.2969 0,-28.1094 0,-8.09375 0,10.5938 16.2969,25.2969 34.9063,25.2969 c 2.8906,0 5.5937,-0.2969 7.8906,-0.7031 1.9062,9.6093 3.1094,16.6093 3.1094,21.9062 0,10.4063 -5.4063,15.9063 -15.5,15.9063 -2.4063,0 -4.5,-0.5 -4.7032,-0.5 -0.0937,-0.1094 -0.2968,-0.2032 -0.2968,-0.2969 0,-0.2031 0.2031,-0.3125 0.5,-0.3125 C 30.6094,60.5 35.2969,56.5 35.2969,50.1094 35.2969,44.7031 31.2031,39 23.7031,39 c -7,0 -11.4062,5.7031 -11.4062,12.2969 m 20.9062,-133.5 c 0.9063,-4 5.5,-14.5 10.7032,-14.5 1.5,0 3.8906,4.7968 3.8906,11.7968 0,10.4063 -7.6875,18.2032 -14.5938,25 -0.5937,-4 -1.0937,-7.8906 -1.0937,-12.0937 0,-3.7031 0.2969,-7.1094 1.0937,-10.2031 M 42,20.5938 c -2,0.4062 -3.8906,0.6093 -5.7969,0.6093 -14.2968,0 -26.49997,-10 -26.49997,-25.10935 0,-12.18755 8.59377,-23.09375 17.40627,-30.70315 1.6875,-1.5 3.2969,-2.8906 4.7969,-4.3906 0.8906,5.3906 1.5937,10.0937 2.2968,14.2031 -9.1093,2.7031 -15.2968,12.2969 -15.2968,21.70315 0,7 5.5,16.59375 13.5,16.59375 0.7968,0 1.7031,-0.4062 1.7031,-1.2969 0,-0.9062 -1,-1.4062 -2.2031,-2.2031 C 28,7.59375 25.7969,5 25.7969,0.09375 25.7969,-6 30.4063,-10.9063 36.2031,-12.2969 L 42,20.5938 M 56.2031,2.09375 c 0,7.10938 -2.9062,14.40625 -10,17.31255 -2.0937,-12.00005 -4.7968,-27.9063 -5.5,-32.3126 9,0 15.5,6.10942 15.5,15.00005"
         id="path86" />
      <path
         class="KeySig"
         transform="matrix(0.992001,0,0,0.992001,319.479,1043.4)"
         d="m 12,-15.5 c -5,0 -7.90625,3.0937 -8.40625,3.7031 L 4,-43.9063 c 0,-0.7968 -0.59375,-1.3906 -1.40625,-1.3906 H 1.40625 C 0.59375,-45.2969 0,-44.7031 0,-43.9063 L 0.5,16.2031 C 0.5,17 1.09375,17.5938 1.90625,17.5938 2.09375,17.5938 2.5,17.5 2.70313,17.4063 11.2969,13.0938 20.2969,4.90625 20.2969,-5.40625 20.2969,-10.5938 17.9063,-15.5 12,-15.5 M 3.29688,12.7031 3.59375,-6.79688 c 0.20313,-0.90625 1.70313,-3.79692 5.70313,-3.79692 3.60942,0 3.90622,3.39067 3.90622,5.50005 0,8.89063 -3.29685,12.59375 -9.90622,17.79685"
         id="path88" />
      <path
         class="Beam"
         fill-rule="evenodd"
         d="m 519.597,968.968 61.301,6.2 v 12.463 l -61.301,-6.2 v -12.463"
         id="path96" />
      <path
         class="Lyrics"
         d="m 409.229,1173.74 8.704,-0.34 v -2.16 h -0.907 c -2.843,-0.14 -3.093,-0.43 -3.093,-3.64 v -31.06 l -9.797,0.56 v 2.14 h 2.937 c 1.906,0.05 2.156,0.36 2.156,2.5 v 11.32 c -1.843,-2.57 -4,-3.71 -6.906,-3.71 -5.64,0 -9.937,5.46 -9.937,12.64 0,7.11 4.14,12.16 9.937,12.16 3.156,0 5.313,-1.34 6.906,-4.34 v 3.93 m -5.906,-21.68 c 2.063,0 4,1.5 4.906,3.79 0.657,1.5 0.954,3.55 0.954,6 0,5.85 -2.297,9.6 -5.907,9.6 -3.547,0 -5.64,-3.3 -5.64,-8.85 0,-3 0.297,-5.25 0.937,-6.9 0.86,-2.25 2.703,-3.64 4.75,-3.64 m 28.5,-2.71 c -6.14,0 -10.89,5.46 -10.89,12.46 0,6.84 4.796,12.34 10.796,12.34 6,0 10.797,-5.5 10.797,-12.41 0,-6.84 -4.797,-12.39 -10.703,-12.39 m 0,2.14 c 3.5,0 5.453,3.66 5.453,10.25 0,6.66 -1.953,10.25 -5.547,10.25 -3.593,0 -5.546,-3.59 -5.546,-10.18 0,-6.82 1.89,-10.32 5.64,-10.32"
         id="path120" />
      <path
         class="Lyrics"
         d="m 498.664,1150.1 v -9.9 h -2.047 c -0.5,6.5 -2.703,9.79 -6.75,10.11 v 1.93 h 4.094 v 12.75 c 0,3.5 0.094,4.75 0.594,5.91 0.812,2.09 2.812,3.25 5.703,3.25 4.5,0 7.406,-3.41 7.406,-8.7 0,-0.3 0,-0.64 -0.047,-1.14 h -2.109 c -0.141,4.5 -1.453,6.79 -3.891,6.79 -1.156,0 -2.156,-0.61 -2.5,-1.45 -0.312,-0.7 -0.453,-1.95 -0.453,-3.75 v -13.66 h 7.344 v -2.14 h -7.344 m 17.25,-12.45 c -1.609,0 -2.906,1.3 -2.906,2.89 0,1.61 1.297,2.91 2.859,2.91 1.641,0 2.938,-1.3 2.938,-2.91 0,-1.59 -1.297,-2.89 -2.891,-2.89 m 2.344,12.45 -9.391,0.55 v 2.16 h 2.547 c 1.891,0.04 2.141,0.34 2.141,2.5 v 14.29 c -0.047,0.75 -0.094,1.05 -0.297,1.3 -0.344,0.45 -1.297,0.66 -3.453,0.7 h -0.344 v 1.8 h 12.953 v -1.8 h -0.359 c -3.344,-0.11 -3.797,-0.36 -3.797,-2.15 v -19.35"
         id="path124" />
      <path
         class="Lyrics"
         d="m 551.782,1149.56 h -1.75 l -1.453,1.79 c -1.797,-1.4 -3.594,-2 -6.094,-2 -4.406,0 -7.297,2.85 -7.297,7.25 0,4.71 3.047,5.89 7.047,6.85 l 2.641,0.61 c 3.953,0.93 5.359,1.93 5.359,3.93 0,2.36 -2.047,4 -4.953,4 -4.25,0 -7.25,-2.68 -8.453,-7.68 h -2 v 9.43 h 1.75 l 1.75,-2.04 c 2.047,1.65 4.297,2.45 6.859,2.45 4.891,0 8.141,-3.05 8.141,-7.7 0,-2.21 -0.703,-3.89 -2.094,-5.05 -1.203,-1.05 -2.203,-1.45 -5.25,-2.09 l -2.5,-0.57 c -2.75,-0.59 -2.75,-0.59 -3.656,-1.09 -1.094,-0.5 -1.75,-1.55 -1.75,-2.66 0,-2.04 1.906,-3.43 4.656,-3.43 4.094,0 6.094,2.89 7.297,6.39 h 1.75 v -8.39 m 16.094,-0.21 c -6.141,0 -10.891,5.46 -10.891,12.46 0,6.84 4.797,12.34 10.797,12.34 6,0 10.797,-5.5 10.797,-12.41 0,-6.84 -4.797,-12.39 -10.703,-12.39 m 0,2.14 c 3.5,0 5.453,3.66 5.453,10.25 0,6.66 -1.953,10.25 -5.547,10.25 -3.594,0 -5.547,-3.59 -5.547,-10.18 0,-6.82 1.891,-10.32 5.641,-10.32 m 22.609,-14.95 -9.25,0.56 v 2.14 h 2.453 c 1.844,0.05 2.094,0.36 2.094,2.5 v 27.86 c -0.047,0.75 -0.094,1.05 -0.297,1.3 -0.359,0.45 -1.297,0.66 -3.453,0.7 h -0.344 v 1.8 h 12.938 v -1.8 h -0.344 c -3.344,-0.11 -3.797,-0.36 -3.797,-2.15 v -32.91"
         id="path127" />
      <path
         class="Lyrics"
         d="m 614.009,1150.1 v -2.86 c 0,-2.5 0.156,-4.14 0.547,-5.14 0.812,-2.2 2.562,-3.56 4.562,-3.56 1.047,0 1.688,0.31 1.688,0.86 0,0.2 0,0.25 -0.297,0.64 -0.297,0.45 -0.453,1.06 -0.453,1.61 0,1.5 1.203,2.64 2.75,2.64 1.656,0 2.812,-1.25 2.812,-3.05 0,-2.89 -2.5,-4.7 -6.562,-4.7 -3.438,0 -6,1.2 -7.75,3.7 -1.5,2.11 -2,4.25 -2,8.32 v 1.54 h -4.391 v 2.14 h 4.391 v 17.36 c -0.047,0.71 -0.094,1 -0.297,1.3 -0.344,0.45 -1.297,0.66 -3.453,0.7 h -0.188 v 1.8 h 13.344 v -1.8 h -0.906 c -3.344,-0.11 -3.797,-0.36 -3.797,-2.15 v -17.21 h 5.5 v -2.14 h -5.5 m 28.547,7.21 c 0,-3.16 -0.547,-4.75 -2,-5.96 -1.641,-1.36 -4.094,-2 -7.297,-2 -5.641,0 -9.75,2.64 -9.75,6.3 0,1.84 1.156,3.05 2.906,3.05 1.594,0 2.703,-1.05 2.703,-2.55 0,-0.66 -0.25,-1.34 -0.75,-2.05 -0.312,-0.36 -0.359,-0.45 -0.359,-0.7 0,-1 2,-1.91 4.406,-1.91 1.594,0 3.344,0.5 4.141,1.25 0.953,0.82 1.312,2 1.312,4.25 v 1.96 c -5.203,0.9 -6.859,1.29 -9.312,2.25 -4.344,1.61 -6.391,3.9 -6.391,7.11 0,3.59 2.797,5.84 7.25,5.84 3.453,0 6.547,-1.41 8.703,-3.95 0.797,2.54 2.047,3.54 4.391,3.54 2.25,0 4.609,-1.43 4.609,-2.89 0,-0.36 -0.203,-0.61 -0.5,-0.61 -0.203,0 -0.406,0.07 -0.75,0.21 -0.703,0.29 -1,0.36 -1.406,0.36 -1.406,0 -1.906,-0.91 -1.906,-3.46 v -10.04 m -4.688,6.09 c 0,3 -0.156,3.7 -1,5 -1.25,1.84 -3.5,3.09 -5.703,3.09 -2.297,0 -3.953,-1.64 -3.953,-3.89 0,-2.11 1.047,-3.61 3.25,-4.65 1.547,-0.71 3.5,-1.21 7.406,-1.85 v 2.3"
         id="path130" />
      <path
         class="StaffText"
         d="m 431.566,932.546 h -1.906 l -2,2.953 c -3.64,-2.656 -5.5,-3.359 -8.953,-3.359 -4.75,0 -8.797,2 -12.141,6 -3.203,3.812 -4.703,8.016 -4.703,13.156 0,10.797 7.047,18.453 16.907,18.453 8,0 13.093,-4.703 14.25,-13.093 l -2.36,-0.407 c -1.344,7.453 -5.14,11.157 -11.297,11.157 -7.406,0 -10.906,-5.11 -10.906,-15.907 0,-5.703 0.75,-9.453 2.453,-12.453 1.547,-2.797 4.61,-4.547 7.86,-4.547 3.5,0 6.593,1.844 8.5,5.047 0.953,1.656 1.64,3.5 2.843,7.453 h 2.203 l -0.75,-14.453"
         id="path154" />
      <path
         class="StaffText"
         d="m 490.345,917.458 v 2.36 h 0.906 c 2.844,0.047 3.797,0.203 4.188,0.703 0.312,0.437 0.312,0.547 0.312,3.094 v 23.796 c 0,2.563 0,2.657 -0.312,3.11 -0.391,0.5 -1.344,0.703 -4.188,0.703 h -0.906 v 2.344 h 18.156 c 8.641,0 13.844,-3.657 13.844,-9.797 0,-5 -3.141,-7.86 -10,-9.047 2.406,-0.5 3.5,-0.953 4.797,-1.906 2.062,-1.547 3.312,-4 3.312,-6.5 0,-3.25 -2,-6.407 -4.906,-7.657 -1.797,-0.796 -4.297,-1.203 -7.25,-1.203 h -17.953 m 11,16.266 v -11.406 c 0,-1.953 0.656,-2.453 3.297,-2.5 h 2 c 4.906,0 8,1.593 8,7.047 0,4.953 -2.391,6.859 -8.844,6.859 h -4.453 m 0,2.344 h 4.406 c 7.641,0 10.453,2.047 10.453,7.547 0,6.703 -4.203,7.609 -9.859,7.609 h -2.094 c -2.5,0 -3,-0.5 -2.906,-3.156 v -12 m 28.797,19.797 c 1.5,0 7.156,-3.204 10.297,-6.5 2.562,-2.75 3.25,-6.454 3.25,-9 0,-4 -2.5,-6.844 -6.547,-6.844 -2.141,0 -4.047,0.703 -5.641,2.094 l 0.25,-20.594 c 0,-0.656 -0.562,-1.156 -1.203,-1.156 h -0.75 c -0.609,0 -1.203,0.5 -1.203,1.156 l 0.406,39.703 c 0,0.641 0.5,1.141 1.141,1.141 m 5.547,-18.594 c 2.859,0 3.203,2.953 3.203,4.094 0,4.546 -3.75,7.75 -7.094,10.203 -0.156,0.093 -0.297,0.203 -0.453,0.343 l 0.094,-12.343 c 0.109,-0.25 0.5,-0.797 1.25,-1.297 0.609,-0.453 1.75,-1 3,-1"
         id="path159" />
      <path
         class="StaffText"
         d="m 579.166,921.181 h -1.891 l -1.953,3 c -3.25,-2.547 -5.453,-3.406 -9.109,-3.406 -3.953,0 -7.047,1.109 -10.203,3.656 -4.938,4 -7.25,9.047 -7.25,15.797 0,5.109 1.453,9.359 4.406,12.609 3.094,3.5 7.703,5.547 12.5,5.547 4.203,0 7.156,-1.297 10.406,-4.547 l 1.844,4.5 h 2.109 v -11 c 0,-2.546 0,-2.656 0.297,-3.109 0.453,-0.547 1.344,-0.687 4.203,-0.687 h 0.75 v -2.36 h -15.906 v 2.36 h 0.953 c 4.203,0 4.547,0.25 4.547,3.046 0,2.141 -0.344,4.094 -1,5.297 -1.25,2.453 -4.453,4.157 -7.703,4.157 -3.25,0 -6.453,-1.657 -8.156,-4.157 -1.844,-2.797 -2.641,-6.297 -2.641,-11.656 0,-11.141 3.703,-17.094 10.641,-17.094 5.703,0 9.656,4.094 11.703,12.094 h 2.156 l -0.703,-14.047"
         id="path163" />
      <path
         class="StaffText"
         d="m 640.549,932.89 h -29.75 v 2.359 h 0.891 c 2.859,0.047 3.812,0.203 4.203,0.703 0.297,0.438 0.297,0.547 0.297,3.094 v 23.797 c 0,2.563 0,2.656 -0.297,3.109 -0.391,0.5 -1.344,0.704 -4.203,0.704 h -0.891 v 2.343 h 17.141 v -2.343 h -1.641 c -2.859,0 -3.797,-0.204 -4.203,-0.704 -0.297,-0.453 -0.297,-0.609 -0.297,-3.109 v -11.344 h 1 c 5.141,-0.203 7,1.657 7.203,7.203 h 2.344 v -16.406 h -2.344 c -0.312,4.906 -2.25,6.797 -7,6.86 h -1.203 v -11.407 c -0.047,-2.109 0.453,-2.453 3.141,-2.5 h 2.312 c 8.203,-0.047 10.25,1.797 11.797,10.407 h 2.203 l -0.703,-12.766"
         id="path167" />
    </g>
  </g>
  <metadata
     id="metadata169">
    <rdf:RDF>
      <cc:Work
         rdf:about="">
        <dc:title>84</dc:title>
      </cc:Work>
    </rdf:RDF>
  </metadata>
</svg>
