<?xml version="1.0" encoding="UTF-8" standalone="no"?>
<svg
   width="2555"
   height="700"
   viewBox="0 0 2555 700.00002"
   version="1.2"
   id="svg173"
   sodipodi:docname="86-1.svg"
   inkscape:version="1.3 (0e150ed6c4, 2023-07-21)"
   xmlns:inkscape="http://www.inkscape.org/namespaces/inkscape"
   xmlns:sodipodi="http://sodipodi.sourceforge.net/DTD/sodipodi-0.dtd"
   xmlns="http://www.w3.org/2000/svg"
   xmlns:svg="http://www.w3.org/2000/svg"
   xmlns:rdf="http://www.w3.org/1999/02/22-rdf-syntax-ns#"
   xmlns:cc="http://creativecommons.org/ns#"
   xmlns:dc="http://purl.org/dc/elements/1.1/">
  <defs
     id="defs173" />
  <sodipodi:namedview
     id="namedview173"
     pagecolor="#505050"
     bordercolor="#ffffff"
     borderopacity="1"
     inkscape:showpageshadow="0"
     inkscape:pageopacity="0"
     inkscape:pagecheckerboard="1"
     inkscape:deskcolor="#505050"
     inkscape:zoom="0.18605646"
     inkscape:cx="1486.108"
     inkscape:cy="2104.2"
     inkscape:window-width="1680"
     inkscape:window-height="979"
     inkscape:window-x="1358"
     inkscape:window-y="-8"
     inkscape:window-maximized="1"
     inkscape:current-layer="svg173" />
  <title
     id="title1">86</title>
  <desc
     id="desc1">Generated by MuseScore Studio 4.3.0</desc>
  <g
     id="g176"
     transform="translate(-211.099,-198.73127)">
    <g
       id="g173"
       transform="translate(0,-327.85746)">
      <polyline
         class="StaffLines"
         fill="none"
         stroke="#000000"
         stroke-width="2.73"
         stroke-linejoin="bevel"
         points="212.598,993.799 2764.6,993.799"
         id="polyline6" />
      <polyline
         class="StaffLines"
         fill="none"
         stroke="#000000"
         stroke-width="2.73"
         stroke-linejoin="bevel"
         points="212.598,1018.6 2764.6,1018.6"
         id="polyline7" />
      <polyline
         class="StaffLines"
         fill="none"
         stroke="#000000"
         stroke-width="2.73"
         stroke-linejoin="bevel"
         points="212.598,1043.4 2764.6,1043.4"
         id="polyline8" />
      <polyline
         class="StaffLines"
         fill="none"
         stroke="#000000"
         stroke-width="2.73"
         stroke-linejoin="bevel"
         points="212.598,1068.2 2764.6,1068.2"
         id="polyline9" />
      <polyline
         class="StaffLines"
         fill="none"
         stroke="#000000"
         stroke-width="2.73"
         stroke-linejoin="bevel"
         points="212.598,1093 2764.6,1093"
         id="polyline10" />
      <path
         class="MeasureNumber"
         d="m 233.036,916.043 c -2.125,0.234 -4.719,0.406 -6.953,0.406 -1.125,0 -2.407,-0.047 -3.844,-0.125 -1.328,-0.078 -2.641,-0.156 -4,-0.234 l -1,-0.047 -3.875,8.438 1.469,0.484 0.968,-1.609 c 1.875,-3.11 2.75,-3.547 6.829,-3.516 h 6.765 l -4.359,6.25 c -5.125,7.187 -5.125,7.187 -7.078,10.391 -1.766,2.843 -2.485,4.593 -2.485,6.031 0,1.406 0.891,2.281 2.282,2.281 1.484,0 2.234,-0.719 2.765,-2.594 2,-7.515 3.203,-10.125 8.75,-19.109 l 3.766,-5.844 v -1.203"
         id="path10" />
      <polyline
         class="BarLine"
         fill="none"
         stroke="#000000"
         stroke-width="4.46"
         stroke-linejoin="bevel"
         points="1106.99,992.435 1106.99,1094.36"
         id="polyline11" />
      <polyline
         class="BarLine"
         fill="none"
         stroke="#000000"
         stroke-width="4.46"
         stroke-linejoin="bevel"
         points="1938.56,992.435 1938.56,1094.36"
         id="polyline15" />
      <polyline
         class="BarLine"
         fill="none"
         stroke="#000000"
         stroke-width="4.46"
         stroke-linejoin="bevel"
         points="2739.55,992.435 2739.55,1094.36"
         id="polyline17" />
      <polyline
         class="BarLine"
         fill="none"
         stroke="#000000"
         stroke-width="13.64"
         stroke-linejoin="bevel"
         points="2757.78,992.435 2757.78,1094.36"
         id="polyline18" />
      <polyline
         class="Stem"
         fill="none"
         stroke="#000000"
         stroke-width="2.48"
         stroke-linejoin="bevel"
         points="2248.6,1064.23 2248.6,991.726"
         id="polyline23" />
      <polyline
         class="Stem"
         fill="none"
         stroke="#000000"
         stroke-width="2.48"
         stroke-linejoin="bevel"
         points="2126.31,1051.83 2126.31,989.673"
         id="polyline27" />
      <polyline
         class="Stem"
         fill="none"
         stroke="#000000"
         stroke-width="2.48"
         stroke-linejoin="bevel"
         points="2004.02,1051.83 2004.02,987.62"
         id="polyline28" />
      <polyline
         class="Stem"
         fill="none"
         stroke="#000000"
         stroke-width="2.48"
         stroke-linejoin="bevel"
         points="2370.88,1064.23 2370.88,993.779"
         id="polyline33" />
      <polyline
         class="Stem"
         fill="none"
         stroke="#000000"
         stroke-width="2.48"
         stroke-linejoin="bevel"
         points="1754.14,1035.17 1754.14,1111.6"
         id="polyline34" />
      <polyline
         class="Stem"
         fill="none"
         stroke="#000000"
         stroke-width="2.48"
         stroke-linejoin="bevel"
         points="2493.17,1076.63 2493.17,993.799"
         id="polyline36" />
      <polyline
         class="Stem"
         fill="none"
         stroke="#000000"
         stroke-width="2.48"
         stroke-linejoin="bevel"
         points="1661.6,1064.23 1661.6,993.799"
         id="polyline40" />
      <polyline
         class="Stem"
         fill="none"
         stroke="#000000"
         stroke-width="2.48"
         stroke-linejoin="bevel"
         points="1539.32,1064.23 1539.32,993.799"
         id="polyline41" />
      <polyline
         class="Stem"
         fill="none"
         stroke="#000000"
         stroke-width="2.48"
         stroke-linejoin="bevel"
         points="1355.89,1051.83 1355.89,975.199"
         id="polyline43" />
      <polyline
         class="Stem"
         fill="none"
         stroke="#000000"
         stroke-width="2.48"
         stroke-linejoin="bevel"
         points="1172.46,1051.83 1172.46,975.199"
         id="polyline46" />
      <polyline
         class="Stem"
         fill="none"
         stroke="#000000"
         stroke-width="2.48"
         stroke-linejoin="bevel"
         points="860.609,1076.63 860.609,993.799"
         id="polyline47" />
      <polyline
         class="Stem"
         fill="none"
         stroke="#000000"
         stroke-width="2.48"
         stroke-linejoin="bevel"
         points="738.322,1064.23 738.322,993.799"
         id="polyline49" />
      <polyline
         class="Stem"
         fill="none"
         stroke="#000000"
         stroke-width="2.48"
         stroke-linejoin="bevel"
         points="616.035,1064.23 616.035,993.799"
         id="polyline51" />
      <polyline
         class="Stem"
         fill="none"
         stroke="#000000"
         stroke-width="2.48"
         stroke-linejoin="bevel"
         points="432.606,1051.83 432.606,975.199"
         id="polyline53" />
      <path
         class="Note"
         transform="matrix(0.992001,0,0,0.992001,585.043,1068.2)"
         d="M 0,4.20313 C 0,8.5 3.09375,13.2969 11.2031,13.2969 21.5938,13.2969 32.5,4.79688 32.5,-4 c 0,-5.90625 -5,-9.2031 -11.2031,-9.2031 C 11.5938,-13.2031 0,-5 0,4.20313"
         id="path55" />
      <path
         class="Note"
         transform="matrix(0.992001,0,0,0.992001,2095.32,1055.8)"
         d="M 0,4.20313 C 0,8.5 3.09375,13.2969 11.2031,13.2969 21.5938,13.2969 32.5,4.79688 32.5,-4 c 0,-5.90625 -5,-9.2031 -11.2031,-9.2031 C 11.5938,-13.2031 0,-5 0,4.20313"
         id="path57" />
      <path
         class="Note"
         transform="matrix(0.992001,0,0,0.992001,1752.9,1031)"
         d="M 0,4.20313 C 0,8.5 3.09375,13.2969 11.2031,13.2969 21.5938,13.2969 32.5,4.79688 32.5,-4 c 0,-5.90625 -5,-9.2031 -11.2031,-9.2031 C 11.5938,-13.2031 0,-5 0,4.20313"
         id="path60" />
      <path
         class="Note"
         transform="matrix(0.992001,0,0,0.992001,1630.61,1068.2)"
         d="M 0,4.20313 C 0,8.5 3.09375,13.2969 11.2031,13.2969 21.5938,13.2969 32.5,4.79688 32.5,-4 c 0,-5.90625 -5,-9.2031 -11.2031,-9.2031 C 11.5938,-13.2031 0,-5 0,4.20313"
         id="path62" />
      <path
         class="Note"
         transform="matrix(0.992001,0,0,0.992001,2462.18,1080.6)"
         d="M 21.2969,-13.2031 C 11.5938,-13.2031 0,-5.09375 0,4.20313 0,8.5 3.09375,13.2969 11.2031,13.2969 21.5938,13.2969 32.5,4.79688 32.5,-4 c 0,-5.90625 -5,-9.2031 -11.2031,-9.2031 M 7.5,8.59375 C 4.20313,8.59375 3.5,5.90625 3.5,5 3.5,0.09375 20.2969,-8.5 25,-8.5 c 2.4063,0 4,1.40625 4,3.59375 0,5 -16.9062,13.5 -21.5,13.5"
         id="path63" />
      <path
         class="Note"
         transform="matrix(0.992001,0,0,0.992001,1973.03,1055.8)"
         d="M 0,4.20313 C 0,8.5 3.09375,13.2969 11.2031,13.2969 21.5938,13.2969 32.5,4.79688 32.5,-4 c 0,-5.90625 -5,-9.2031 -11.2031,-9.2031 C 11.5938,-13.2031 0,-5 0,4.20313"
         id="path64" />
      <path
         class="Note"
         transform="matrix(0.992001,0,0,0.992001,829.616,1080.6)"
         d="M 21.2969,-13.2031 C 11.5938,-13.2031 0,-5.09375 0,4.20313 0,8.5 3.09375,13.2969 11.2031,13.2969 21.5938,13.2969 32.5,4.79688 32.5,-4 c 0,-5.90625 -5,-9.2031 -11.2031,-9.2031 M 7.5,8.59375 C 4.20313,8.59375 3.5,5.90625 3.5,5 3.5,0.09375 20.2969,-8.5 25,-8.5 c 2.4063,0 4,1.40625 4,3.59375 0,5 -16.9062,13.5 -21.5,13.5"
         id="path65" />
      <path
         class="Note"
         transform="matrix(0.992001,0,0,0.992001,1324.89,1055.8)"
         d="M 0,4.20313 C 0,8.5 3.09375,13.2969 11.2031,13.2969 21.5938,13.2969 32.5,4.79688 32.5,-4 c 0,-5.90625 -5,-9.2031 -11.2031,-9.2031 C 11.5938,-13.2031 0,-5 0,4.20313"
         id="path68" />
      <path
         class="Note"
         transform="matrix(0.992001,0,0,0.992001,401.613,1055.8)"
         d="M 0,4.20313 C 0,8.5 3.09375,13.2969 11.2031,13.2969 21.5938,13.2969 32.5,4.79688 32.5,-4 c 0,-5.90625 -5,-9.2031 -11.2031,-9.2031 C 11.5938,-13.2031 0,-5 0,4.20313"
         id="path77" />
      <path
         class="Note"
         transform="matrix(0.992001,0,0,0.992001,1508.32,1068.2)"
         d="M 0,4.20313 C 0,8.5 3.09375,13.2969 11.2031,13.2969 21.5938,13.2969 32.5,4.79688 32.5,-4 c 0,-5.90625 -5,-9.2031 -11.2031,-9.2031 C 11.5938,-13.2031 0,-5 0,4.20313"
         id="path81" />
      <path
         class="Note"
         transform="matrix(0.992001,0,0,0.992001,1141.46,1055.8)"
         d="M 0,4.20313 C 0,8.5 3.09375,13.2969 11.2031,13.2969 21.5938,13.2969 32.5,4.79688 32.5,-4 c 0,-5.90625 -5,-9.2031 -11.2031,-9.2031 C 11.5938,-13.2031 0,-5 0,4.20313"
         id="path83" />
      <path
         class="Note"
         transform="matrix(0.992001,0,0,0.992001,2217.6,1068.2)"
         d="M 0,4.20313 C 0,8.5 3.09375,13.2969 11.2031,13.2969 21.5938,13.2969 32.5,4.79688 32.5,-4 c 0,-5.90625 -5,-9.2031 -11.2031,-9.2031 C 11.5938,-13.2031 0,-5 0,4.20313"
         id="path86" />
      <path
         class="Note"
         transform="matrix(0.992001,0,0,0.992001,707.33,1068.2)"
         d="M 0,4.20313 C 0,8.5 3.09375,13.2969 11.2031,13.2969 21.5938,13.2969 32.5,4.79688 32.5,-4 c 0,-5.90625 -5,-9.2031 -11.2031,-9.2031 C 11.5938,-13.2031 0,-5 0,4.20313"
         id="path87" />
      <path
         class="Note"
         transform="matrix(0.992001,0,0,0.992001,2339.89,1068.2)"
         d="M 0,4.20313 C 0,8.5 3.09375,13.2969 11.2031,13.2969 21.5938,13.2969 32.5,4.79688 32.5,-4 c 0,-5.90625 -5,-9.2031 -11.2031,-9.2031 C 11.5938,-13.2031 0,-5 0,4.20313"
         id="path88" />
      <path
         class="Clef"
         transform="matrix(0.992001,0,0,0.992001,231.198,1068.2)"
         d="m 12.2969,51.2969 c 0,6.6094 5,15.3125 18.5,15.3125 4.7031,0 8.8125,-1.2031 12.4062,-3.4063 C 48.6094,59.4063 50,52.7969 50,46.5 c 0,-3.8906 -0.5937,-8.3906 -1.5937,-14.0937 -0.2969,-2 -0.9063,-5 -1.5,-8.9063 C 56.7031,20.2969 64,10.0938 64,-0.203125 64,-15.2969 53.2969,-25.5 38.7031,-25.5 c -1,-6 -2,-11.9063 -2.7968,-17.5 10.5,-11.1094 17.7968,-23.6094 17.7968,-39.5 0,-9.1094 -2.7968,-16.5 -4.4062,-20.109 -2.3906,-5.094 -5.2969,-8.594 -7.0938,-8.594 -0.7031,0 -3.7968,1.203 -7.0937,5.094 -6.4063,7.609 -8.2031,20.4059 -8.2031,28.7965 0,5.4062 0.5,10.3125 2.2031,21.5156 -0.1094,0.0938 -5.3125,5.3906 -7.4063,7.0938 C 12.5938,-40.2969 0,-28.1094 0,-8.09375 0,10.5938 16.2969,25.2969 34.9063,25.2969 c 2.8906,0 5.5937,-0.2969 7.8906,-0.7031 1.9062,9.6093 3.1094,16.6093 3.1094,21.9062 0,10.4063 -5.4063,15.9063 -15.5,15.9063 -2.4063,0 -4.5,-0.5 -4.7032,-0.5 -0.0937,-0.1094 -0.2968,-0.2032 -0.2968,-0.2969 0,-0.2031 0.2031,-0.3125 0.5,-0.3125 C 30.6094,60.5 35.2969,56.5 35.2969,50.1094 35.2969,44.7031 31.2031,39 23.7031,39 c -7,0 -11.4062,5.7031 -11.4062,12.2969 m 20.9062,-133.5 c 0.9063,-4 5.5,-14.5 10.7032,-14.5 1.5,0 3.8906,4.7968 3.8906,11.7968 0,10.4063 -7.6875,18.2032 -14.5938,25 -0.5937,-4 -1.0937,-7.8906 -1.0937,-12.0937 0,-3.7031 0.2969,-7.1094 1.0937,-10.2031 M 42,20.5938 c -2,0.4062 -3.8906,0.6093 -5.7969,0.6093 -14.2968,0 -26.49997,-10 -26.49997,-25.10935 0,-12.18755 8.59377,-23.09375 17.40627,-30.70315 1.6875,-1.5 3.2969,-2.8906 4.7969,-4.3906 0.8906,5.3906 1.5937,10.0937 2.2968,14.2031 -9.1093,2.7031 -15.2968,12.2969 -15.2968,21.70315 0,7 5.5,16.59375 13.5,16.59375 0.7968,0 1.7031,-0.4062 1.7031,-1.2969 0,-0.9062 -1,-1.4062 -2.2031,-2.2031 C 28,7.59375 25.7969,5 25.7969,0.09375 25.7969,-6 30.4063,-10.9063 36.2031,-12.2969 L 42,20.5938 M 56.2031,2.09375 c 0,7.10938 -2.9062,14.40625 -10,17.31255 -2.0937,-12.00005 -4.7968,-27.9063 -5.5,-32.3126 9,0 15.5,6.10942 15.5,15.00005"
         id="path90" />
      <path
         class="KeySig"
         transform="matrix(0.992001,0,0,0.992001,319.479,1043.4)"
         d="m 12,-15.5 c -5,0 -7.90625,3.0937 -8.40625,3.7031 L 4,-43.9063 c 0,-0.7968 -0.59375,-1.3906 -1.40625,-1.3906 H 1.40625 C 0.59375,-45.2969 0,-44.7031 0,-43.9063 L 0.5,16.2031 C 0.5,17 1.09375,17.5938 1.90625,17.5938 2.09375,17.5938 2.5,17.5 2.70313,17.4063 11.2969,13.0938 20.2969,4.90625 20.2969,-5.40625 20.2969,-10.5938 17.9063,-15.5 12,-15.5 M 3.29688,12.7031 3.59375,-6.79688 c 0.20313,-0.90625 1.70313,-3.79692 5.70313,-3.79692 3.60942,0 3.90622,3.39067 3.90622,5.50005 0,8.89063 -3.29685,12.59375 -9.90622,17.79685"
         id="path93" />
      <path
         class="Beam"
         fill-rule="evenodd"
         d="m 2002.78,981.398 369.34,6.2 V 1000 l -369.34,-6.2 v -12.402"
         id="path98" />
      <path
         class="Beam"
         fill-rule="evenodd"
         d="m 614.795,987.599 h 124.767 v 12.4 H 614.795 v -12.4"
         id="path99" />
      <path
         class="Beam"
         fill-rule="evenodd"
         d="m 1538.08,987.599 h 124.76 v 12.4 h -124.76 v -12.4"
         id="path100" />
      <path
         class="Lyrics"
         d="m 1633.73,1149.56 h -1.75 l -1.46,1.79 c -1.79,-1.4 -3.59,-2 -6.09,-2 -4.41,0 -7.3,2.85 -7.3,7.25 0,4.71 3.05,5.89 7.05,6.85 l 2.64,0.61 c 3.95,0.93 5.36,1.93 5.36,3.93 0,2.36 -2.05,4 -4.95,4 -4.25,0 -7.25,-2.68 -8.46,-7.68 h -2 v 9.43 h 1.75 l 1.75,-2.04 c 2.05,1.65 4.3,2.45 6.86,2.45 4.89,0 8.14,-3.05 8.14,-7.7 0,-2.21 -0.7,-3.89 -2.09,-5.05 -1.2,-1.05 -2.2,-1.45 -5.25,-2.09 l -2.5,-0.57 c -2.75,-0.59 -2.75,-0.59 -3.66,-1.09 -1.09,-0.5 -1.75,-1.55 -1.75,-2.66 0,-2.04 1.91,-3.43 4.66,-3.43 4.09,0 6.09,2.89 7.3,6.39 h 1.75 v -8.39 m 16.09,-0.21 c -6.14,0 -10.89,5.46 -10.89,12.46 0,6.84 4.8,12.34 10.8,12.34 6,0 10.79,-5.5 10.79,-12.41 0,-6.84 -4.79,-12.39 -10.7,-12.39 m 0,2.14 c 3.5,0 5.45,3.66 5.45,10.25 0,6.66 -1.95,10.25 -5.54,10.25 -3.6,0 -5.55,-3.59 -5.55,-10.18 0,-6.82 1.89,-10.32 5.64,-10.32 m 22.61,-14.95 -9.25,0.56 v 2.14 h 2.45 c 1.85,0.05 2.1,0.36 2.1,2.5 v 27.86 c -0.05,0.75 -0.1,1.05 -0.3,1.3 -0.36,0.45 -1.3,0.66 -3.45,0.7 h -0.35 v 1.8 h 12.94 v -1.8 h -0.34 c -3.35,-0.11 -3.8,-0.36 -3.8,-2.15 v -32.91"
         id="path103" />
      <path
         class="Lyrics"
         d="m 1760.51,1173.74 8.71,-0.34 v -2.16 h -0.91 c -2.84,-0.14 -3.09,-0.43 -3.09,-3.64 v -31.06 l -9.8,0.56 v 2.14 h 2.94 c 1.9,0.05 2.15,0.36 2.15,2.5 v 11.32 c -1.84,-2.57 -4,-3.71 -6.9,-3.71 -5.64,0 -9.94,5.46 -9.94,12.64 0,7.11 4.14,12.16 9.94,12.16 3.15,0 5.31,-1.34 6.9,-4.34 v 3.93 m -5.9,-21.68 c 2.06,0 4,1.5 4.9,3.79 0.66,1.5 0.96,3.55 0.96,6 0,5.85 -2.3,9.6 -5.91,9.6 -3.55,0 -5.64,-3.3 -5.64,-8.85 0,-3 0.3,-5.25 0.94,-6.9 0.86,-2.25 2.7,-3.64 4.75,-3.64 m 28.5,-2.71 c -6.14,0 -10.89,5.46 -10.89,12.46 0,6.84 4.79,12.34 10.79,12.34 6,0 10.8,-5.5 10.8,-12.41 0,-6.84 -4.8,-12.39 -10.7,-12.39 m 0,2.14 c 3.5,0 5.45,3.66 5.45,10.25 0,6.66 -1.95,10.25 -5.55,10.25 -3.59,0 -5.54,-3.59 -5.54,-10.18 0,-6.82 1.89,-10.32 5.64,-10.32"
         id="path107" />
      <path
         class="Lyrics"
         d="m 1977.35,1136.54 -9.25,0.56 v 2.14 h 2.45 c 1.85,0.05 2.1,0.36 2.1,2.5 v 27.86 c -0.05,0.75 -0.1,1.05 -0.3,1.3 -0.36,0.45 -1.3,0.66 -3.45,0.7 h -0.35 v 1.8 h 12.94 v -1.8 h -0.34 c -3.35,-0.11 -3.8,-0.36 -3.8,-2.15 v -32.91 m 28.39,20.77 c 0,-3.16 -0.55,-4.75 -2,-5.96 -1.64,-1.36 -4.09,-2 -7.3,-2 -5.64,0 -9.75,2.64 -9.75,6.3 0,1.84 1.16,3.05 2.91,3.05 1.59,0 2.7,-1.05 2.7,-2.55 0,-0.66 -0.25,-1.34 -0.75,-2.05 -0.31,-0.36 -0.36,-0.45 -0.36,-0.7 0,-1 2,-1.91 4.41,-1.91 1.59,0 3.34,0.5 4.14,1.25 0.95,0.82 1.31,2 1.31,4.25 v 1.96 c -5.2,0.9 -6.86,1.29 -9.31,2.25 -4.34,1.61 -6.39,3.9 -6.39,7.11 0,3.59 2.8,5.84 7.25,5.84 3.45,0 6.55,-1.41 8.7,-3.95 0.8,2.54 2.05,3.54 4.39,3.54 2.25,0 4.61,-1.43 4.61,-2.89 0,-0.36 -0.2,-0.61 -0.5,-0.61 -0.2,0 -0.4,0.07 -0.75,0.21 -0.7,0.29 -1,0.36 -1.4,0.36 -1.41,0 -1.91,-0.91 -1.91,-3.46 v -10.04 m -4.69,6.09 c 0,3 -0.15,3.7 -1,5 -1.25,1.84 -3.5,3.09 -5.7,3.09 -2.3,0 -3.95,-1.64 -3.95,-3.89 0,-2.11 1.04,-3.61 3.25,-4.65 1.54,-0.71 3.5,-1.21 7.4,-1.85 v 2.3"
         id="path111" />
      <path
         class="Lyrics"
         d="m 2099.64,1136.54 -9.25,0.56 v 2.14 h 2.45 c 1.84,0.05 2.09,0.36 2.09,2.5 v 27.86 c -0.04,0.75 -0.09,1.05 -0.29,1.3 -0.36,0.45 -1.3,0.66 -3.46,0.7 h -0.34 v 1.8 h 12.94 v -1.8 h -0.35 c -3.34,-0.11 -3.79,-0.36 -3.79,-2.15 v -32.91 m 28.39,20.77 c 0,-3.16 -0.55,-4.75 -2,-5.96 -1.64,-1.36 -4.1,-2 -7.3,-2 -5.64,0 -9.75,2.64 -9.75,6.3 0,1.84 1.16,3.05 2.91,3.05 1.59,0 2.7,-1.05 2.7,-2.55 0,-0.66 -0.25,-1.34 -0.75,-2.05 -0.31,-0.36 -0.36,-0.45 -0.36,-0.7 0,-1 2,-1.91 4.41,-1.91 1.59,0 3.34,0.5 4.14,1.25 0.95,0.82 1.31,2 1.31,4.25 v 1.96 c -5.2,0.9 -6.86,1.29 -9.31,2.25 -4.35,1.61 -6.39,3.9 -6.39,7.11 0,3.59 2.79,5.84 7.25,5.84 3.45,0 6.54,-1.41 8.7,-3.95 0.8,2.54 2.05,3.54 4.39,3.54 2.25,0 4.61,-1.43 4.61,-2.89 0,-0.36 -0.2,-0.61 -0.5,-0.61 -0.2,0 -0.41,0.07 -0.75,0.21 -0.7,0.29 -1,0.36 -1.41,0.36 -1.4,0 -1.9,-0.91 -1.9,-3.46 v -10.04 m -4.69,6.09 c 0,3 -0.16,3.7 -1,5 -1.25,1.84 -3.5,3.09 -5.7,3.09 -2.3,0 -3.96,-1.64 -3.96,-3.89 0,-2.11 1.05,-3.61 3.25,-4.65 1.55,-0.71 3.5,-1.21 7.41,-1.85 v 2.3"
         id="path116" />
      <path
         class="Lyrics"
         d="m 405.933,1136.54 -9.25,0.56 v 2.14 h 2.453 c 1.843,0.05 2.093,0.36 2.093,2.5 v 27.86 c -0.046,0.75 -0.093,1.05 -0.296,1.3 -0.36,0.45 -1.297,0.66 -3.454,0.7 h -0.343 v 1.8 h 12.937 v -1.8 h -0.344 c -3.343,-0.11 -3.796,-0.36 -3.796,-2.15 v -32.91 m 28.39,20.77 c 0,-3.16 -0.547,-4.75 -2,-5.96 -1.64,-1.36 -4.094,-2 -7.297,-2 -5.64,0 -9.75,2.64 -9.75,6.3 0,1.84 1.157,3.05 2.907,3.05 1.593,0 2.703,-1.05 2.703,-2.55 0,-0.66 -0.25,-1.34 -0.75,-2.05 -0.313,-0.36 -0.36,-0.45 -0.36,-0.7 0,-1 2,-1.91 4.407,-1.91 1.593,0 3.343,0.5 4.14,1.25 0.953,0.82 1.313,2 1.313,4.25 v 1.96 c -5.203,0.9 -6.86,1.29 -9.313,2.25 -4.344,1.61 -6.39,3.9 -6.39,7.11 0,3.59 2.796,5.84 7.25,5.84 3.453,0 6.546,-1.41 8.703,-3.95 0.797,2.54 2.047,3.54 4.39,3.54 2.25,0 4.61,-1.43 4.61,-2.89 0,-0.36 -0.203,-0.61 -0.5,-0.61 -0.203,0 -0.407,0.07 -0.75,0.21 -0.703,0.29 -1,0.36 -1.407,0.36 -1.406,0 -1.906,-0.91 -1.906,-3.46 v -10.04 m -4.687,6.09 c 0,3 -0.157,3.7 -1,5 -1.25,1.84 -3.5,3.09 -5.703,3.09 -2.297,0 -3.954,-1.64 -3.954,-3.89 0,-2.11 1.047,-3.61 3.25,-4.65 1.547,-0.71 3.5,-1.21 7.407,-1.85 v 2.3"
         id="path117" />
      <path
         class="Lyrics"
         d="m 2220.72,1149.56 h -1.75 l -1.45,1.79 c -1.8,-1.4 -3.6,-2 -6.1,-2 -4.4,0 -7.29,2.85 -7.29,7.25 0,4.71 3.04,5.89 7.04,6.85 l 2.64,0.61 c 3.96,0.93 5.36,1.93 5.36,3.93 0,2.36 -2.04,4 -4.95,4 -4.25,0 -7.25,-2.68 -8.45,-7.68 h -2 v 9.43 h 1.75 l 1.75,-2.04 c 2.04,1.65 4.29,2.45 6.86,2.45 4.89,0 8.14,-3.05 8.14,-7.7 0,-2.21 -0.71,-3.89 -2.1,-5.05 -1.2,-1.05 -2.2,-1.45 -5.25,-2.09 l -2.5,-0.57 c -2.75,-0.59 -2.75,-0.59 -3.65,-1.09 -1.1,-0.5 -1.75,-1.55 -1.75,-2.66 0,-2.04 1.9,-3.43 4.65,-3.43 4.1,0 6.1,2.89 7.3,6.39 h 1.75 v -8.39 m 16.09,-0.21 c -6.14,0 -10.89,5.46 -10.89,12.46 0,6.84 4.8,12.34 10.8,12.34 6,0 10.8,-5.5 10.8,-12.41 0,-6.84 -4.8,-12.39 -10.71,-12.39 m 0,2.14 c 3.5,0 5.46,3.66 5.46,10.25 0,6.66 -1.96,10.25 -5.55,10.25 -3.59,0 -5.55,-3.59 -5.55,-10.18 0,-6.82 1.89,-10.32 5.64,-10.32 m 22.61,-14.95 -9.25,0.56 v 2.14 h 2.46 c 1.84,0.05 2.09,0.36 2.09,2.5 v 27.86 c -0.05,0.75 -0.09,1.05 -0.3,1.3 -0.36,0.45 -1.29,0.66 -3.45,0.7 h -0.34 v 1.8 h 12.93 v -1.8 h -0.34 c -3.34,-0.11 -3.8,-0.36 -3.8,-2.15 v -32.91"
         id="path119" />
      <path
         class="Lyrics"
         d="m 588.159,1149.56 h -1.75 l -1.453,1.79 c -1.797,-1.4 -3.594,-2 -6.094,-2 -4.406,0 -7.296,2.85 -7.296,7.25 0,4.71 3.046,5.89 7.046,6.85 l 2.641,0.61 c 3.953,0.93 5.359,1.93 5.359,3.93 0,2.36 -2.046,4 -4.953,4 -4.25,0 -7.25,-2.68 -8.453,-7.68 h -2 v 9.43 h 1.75 l 1.75,-2.04 c 2.047,1.65 4.297,2.45 6.86,2.45 4.89,0 8.14,-3.05 8.14,-7.7 0,-2.21 -0.703,-3.89 -2.094,-5.05 -1.203,-1.05 -2.203,-1.45 -5.25,-2.09 l -2.5,-0.57 c -2.75,-0.59 -2.75,-0.59 -3.656,-1.09 -1.094,-0.5 -1.75,-1.55 -1.75,-2.66 0,-2.04 1.906,-3.43 4.656,-3.43 4.094,0 6.094,2.89 7.297,6.39 h 1.75 v -8.39 m 16.094,-0.21 c -6.141,0 -10.891,5.46 -10.891,12.46 0,6.84 4.797,12.34 10.797,12.34 6,0 10.797,-5.5 10.797,-12.41 0,-6.84 -4.797,-12.39 -10.703,-12.39 m 0,2.14 c 3.5,0 5.453,3.66 5.453,10.25 0,6.66 -1.953,10.25 -5.547,10.25 -3.593,0 -5.547,-3.59 -5.547,-10.18 0,-6.82 1.891,-10.32 5.641,-10.32 m 22.609,-14.95 -9.25,0.56 v 2.14 h 2.454 c 1.843,0.05 2.093,0.36 2.093,2.5 v 27.86 c -0.047,0.75 -0.093,1.05 -0.297,1.3 -0.359,0.45 -1.296,0.66 -3.453,0.7 h -0.343 v 1.8 h 12.937 v -1.8 h -0.344 c -3.343,-0.11 -3.797,-0.36 -3.797,-2.15 v -32.91"
         id="path121" />
      <path
         class="Lyrics"
         d="m 2343.01,1149.56 h -1.75 l -1.46,1.79 c -1.79,-1.4 -3.59,-2 -6.09,-2 -4.41,0 -7.3,2.85 -7.3,7.25 0,4.71 3.05,5.89 7.05,6.85 l 2.64,0.61 c 3.95,0.93 5.36,1.93 5.36,3.93 0,2.36 -2.05,4 -4.95,4 -4.25,0 -7.25,-2.68 -8.46,-7.68 h -2 v 9.43 h 1.75 l 1.75,-2.04 c 2.05,1.65 4.3,2.45 6.86,2.45 4.89,0 8.14,-3.05 8.14,-7.7 0,-2.21 -0.7,-3.89 -2.09,-5.05 -1.2,-1.05 -2.2,-1.45 -5.25,-2.09 l -2.5,-0.57 c -2.75,-0.59 -2.75,-0.59 -3.66,-1.09 -1.09,-0.5 -1.75,-1.55 -1.75,-2.66 0,-2.04 1.91,-3.43 4.66,-3.43 4.09,0 6.09,2.89 7.3,6.39 h 1.75 v -8.39 m 16.09,-0.21 c -6.14,0 -10.89,5.46 -10.89,12.46 0,6.84 4.8,12.34 10.8,12.34 6,0 10.79,-5.5 10.79,-12.41 0,-6.84 -4.79,-12.39 -10.7,-12.39 m 0,2.14 c 3.5,0 5.45,3.66 5.45,10.25 0,6.66 -1.95,10.25 -5.54,10.25 -3.6,0 -5.55,-3.59 -5.55,-10.18 0,-6.82 1.89,-10.32 5.64,-10.32 m 22.61,-14.95 -9.25,0.56 v 2.14 h 2.45 c 1.85,0.05 2.1,0.36 2.1,2.5 v 27.86 c -0.05,0.75 -0.1,1.05 -0.3,1.3 -0.36,0.45 -1.3,0.66 -3.45,0.7 h -0.35 v 1.8 h 12.94 v -1.8 h -0.34 c -3.35,-0.11 -3.8,-0.36 -3.8,-2.15 v -32.91"
         id="path122" />
      <path
         class="Lyrics"
         d="m 2465.84,1150.1 v -2.86 c 0,-2.5 0.16,-4.14 0.55,-5.14 0.81,-2.2 2.56,-3.56 4.56,-3.56 1.05,0 1.69,0.31 1.69,0.86 0,0.2 0,0.25 -0.3,0.64 -0.3,0.45 -0.45,1.06 -0.45,1.61 0,1.5 1.2,2.64 2.75,2.64 1.65,0 2.81,-1.25 2.81,-3.05 0,-2.89 -2.5,-4.7 -6.56,-4.7 -3.44,0 -6,1.2 -7.75,3.7 -1.5,2.11 -2,4.25 -2,8.32 v 1.54 h -4.39 v 2.14 h 4.39 v 17.36 c -0.05,0.71 -0.1,1 -0.3,1.3 -0.34,0.45 -1.3,0.66 -3.45,0.7 h -0.19 v 1.8 h 13.34 v -1.8 h -0.9 c -3.35,-0.11 -3.8,-0.36 -3.8,-2.15 v -17.21 h 5.5 v -2.14 h -5.5 m 28.55,7.21 c 0,-3.16 -0.55,-4.75 -2,-5.96 -1.64,-1.36 -4.1,-2 -7.3,-2 -5.64,0 -9.75,2.64 -9.75,6.3 0,1.84 1.16,3.05 2.91,3.05 1.59,0 2.7,-1.05 2.7,-2.55 0,-0.66 -0.25,-1.34 -0.75,-2.05 -0.31,-0.36 -0.36,-0.45 -0.36,-0.7 0,-1 2,-1.91 4.41,-1.91 1.59,0 3.34,0.5 4.14,1.25 0.95,0.82 1.31,2 1.31,4.25 v 1.96 c -5.2,0.9 -6.86,1.29 -9.31,2.25 -4.35,1.61 -6.39,3.9 -6.39,7.11 0,3.59 2.79,5.84 7.25,5.84 3.45,0 6.54,-1.41 8.7,-3.95 0.8,2.54 2.05,3.54 4.39,3.54 2.25,0 4.61,-1.43 4.61,-2.89 0,-0.36 -0.2,-0.61 -0.5,-0.61 -0.2,0 -0.41,0.07 -0.75,0.21 -0.7,0.29 -1,0.36 -1.41,0.36 -1.4,0 -1.9,-0.91 -1.9,-3.46 v -10.04 m -4.69,6.09 c 0,3 -0.16,3.7 -1,5 -1.25,1.84 -3.5,3.09 -5.7,3.09 -2.3,0 -3.96,-1.64 -3.96,-3.89 0,-2.11 1.05,-3.61 3.25,-4.65 1.55,-0.71 3.5,-1.21 7.41,-1.85 v 2.3"
         id="path123" />
      <path
         class="Lyrics"
         d="m 710.446,1149.56 h -1.75 l -1.453,1.79 c -1.797,-1.4 -3.594,-2 -6.094,-2 -4.406,0 -7.297,2.85 -7.297,7.25 0,4.71 3.047,5.89 7.047,6.85 l 2.641,0.61 c 3.953,0.93 5.359,1.93 5.359,3.93 0,2.36 -2.047,4 -4.953,4 -4.25,0 -7.25,-2.68 -8.453,-7.68 h -2 v 9.43 h 1.75 l 1.75,-2.04 c 2.047,1.65 4.297,2.45 6.859,2.45 4.891,0 8.141,-3.05 8.141,-7.7 0,-2.21 -0.703,-3.89 -2.094,-5.05 -1.203,-1.05 -2.203,-1.45 -5.25,-2.09 l -2.5,-0.57 c -2.75,-0.59 -2.75,-0.59 -3.656,-1.09 -1.094,-0.5 -1.75,-1.55 -1.75,-2.66 0,-2.04 1.906,-3.43 4.656,-3.43 4.094,0 6.094,2.89 7.297,6.39 h 1.75 v -8.39 m 16.094,-0.21 c -6.141,0 -10.891,5.46 -10.891,12.46 0,6.84 4.797,12.34 10.797,12.34 6,0 10.797,-5.5 10.797,-12.41 0,-6.84 -4.797,-12.39 -10.703,-12.39 m 0,2.14 c 3.5,0 5.453,3.66 5.453,10.25 0,6.66 -1.953,10.25 -5.547,10.25 -3.594,0 -5.547,-3.59 -5.547,-10.18 0,-6.82 1.891,-10.32 5.641,-10.32 m 22.609,-14.95 -9.25,0.56 v 2.14 h 2.453 c 1.844,0.05 2.094,0.36 2.094,2.5 v 27.86 c -0.047,0.75 -0.094,1.05 -0.297,1.3 -0.359,0.45 -1.297,0.66 -3.453,0.7 h -0.344 v 1.8 h 12.938 v -1.8 h -0.344 c -3.344,-0.11 -3.797,-0.36 -3.797,-2.15 v -32.91"
         id="path125" />
      <path
         class="Lyrics"
         d="m 833.279,1150.1 v -2.86 c 0,-2.5 0.156,-4.14 0.547,-5.14 0.813,-2.2 2.563,-3.56 4.563,-3.56 1.046,0 1.687,0.31 1.687,0.86 0,0.2 0,0.25 -0.297,0.64 -0.297,0.45 -0.453,1.06 -0.453,1.61 0,1.5 1.203,2.64 2.75,2.64 1.656,0 2.813,-1.25 2.813,-3.05 0,-2.89 -2.5,-4.7 -6.563,-4.7 -3.437,0 -6,1.2 -7.75,3.7 -1.5,2.11 -2,4.25 -2,8.32 v 1.54 h -4.391 v 2.14 h 4.391 v 17.36 c -0.047,0.71 -0.094,1 -0.297,1.3 -0.344,0.45 -1.297,0.66 -3.453,0.7 h -0.187 v 1.8 h 13.343 v -1.8 h -0.906 c -3.344,-0.11 -3.797,-0.36 -3.797,-2.15 v -17.21 h 5.5 v -2.14 h -5.5 m 28.547,7.21 c 0,-3.16 -0.547,-4.75 -2,-5.96 -1.641,-1.36 -4.094,-2 -7.297,-2 -5.64,0 -9.75,2.64 -9.75,6.3 0,1.84 1.156,3.05 2.906,3.05 1.594,0 2.704,-1.05 2.704,-2.55 0,-0.66 -0.25,-1.34 -0.75,-2.05 -0.313,-0.36 -0.36,-0.45 -0.36,-0.7 0,-1 2,-1.91 4.406,-1.91 1.594,0 3.344,0.5 4.141,1.25 0.953,0.82 1.313,2 1.313,4.25 v 1.96 c -5.204,0.9 -6.86,1.29 -9.313,2.25 -4.344,1.61 -6.391,3.9 -6.391,7.11 0,3.59 2.797,5.84 7.25,5.84 3.454,0 6.547,-1.41 8.704,-3.95 0.796,2.54 2.046,3.54 4.39,3.54 2.25,0 4.61,-1.43 4.61,-2.89 0,-0.36 -0.204,-0.61 -0.5,-0.61 -0.204,0 -0.407,0.07 -0.75,0.21 -0.704,0.29 -1,0.36 -1.407,0.36 -1.406,0 -1.906,-0.91 -1.906,-3.46 v -10.04 m -4.687,6.09 c 0,3 -0.157,3.7 -1,5 -1.25,1.84 -3.5,3.09 -5.704,3.09 -2.296,0 -3.953,-1.64 -3.953,-3.89 0,-2.11 1.047,-3.61 3.25,-4.65 1.547,-0.71 3.5,-1.21 7.407,-1.85 v 2.3"
         id="path128" />
      <path
         class="Lyrics"
         d="m 1145.78,1136.54 -9.25,0.56 v 2.14 h 2.46 c 1.84,0.05 2.09,0.36 2.09,2.5 v 27.86 c -0.05,0.75 -0.09,1.05 -0.3,1.3 -0.36,0.45 -1.29,0.66 -3.45,0.7 h -0.34 v 1.8 h 12.93 v -1.8 h -0.34 c -3.34,-0.11 -3.8,-0.36 -3.8,-2.15 v -32.91 m 28.39,20.77 c 0,-3.16 -0.54,-4.75 -2,-5.96 -1.64,-1.36 -4.09,-2 -7.29,-2 -5.64,0 -9.75,2.64 -9.75,6.3 0,1.84 1.15,3.05 2.9,3.05 1.6,0 2.71,-1.05 2.71,-2.55 0,-0.66 -0.25,-1.34 -0.75,-2.05 -0.32,-0.36 -0.36,-0.45 -0.36,-0.7 0,-1 2,-1.91 4.4,-1.91 1.6,0 3.35,0.5 4.14,1.25 0.96,0.82 1.32,2 1.32,4.25 v 1.96 c -5.21,0.9 -6.86,1.29 -9.32,2.25 -4.34,1.61 -6.39,3.9 -6.39,7.11 0,3.59 2.8,5.84 7.25,5.84 3.46,0 6.55,-1.41 8.71,-3.95 0.79,2.54 2.04,3.54 4.39,3.54 2.25,0 4.61,-1.43 4.61,-2.89 0,-0.36 -0.21,-0.61 -0.5,-0.61 -0.21,0 -0.41,0.07 -0.75,0.21 -0.71,0.29 -1,0.36 -1.41,0.36 -1.41,0 -1.91,-0.91 -1.91,-3.46 v -10.04 m -4.68,6.09 c 0,3 -0.16,3.7 -1,5 -1.25,1.84 -3.5,3.09 -5.71,3.09 -2.29,0 -3.95,-1.64 -3.95,-3.89 0,-2.11 1.05,-3.61 3.25,-4.65 1.55,-0.71 3.5,-1.21 7.41,-1.85 v 2.3"
         id="path131" />
      <path
         class="Lyrics"
         d="m 1329.21,1136.54 -9.25,0.56 v 2.14 h 2.46 c 1.84,0.05 2.09,0.36 2.09,2.5 v 27.86 c -0.05,0.75 -0.09,1.05 -0.3,1.3 -0.36,0.45 -1.29,0.66 -3.45,0.7 h -0.34 v 1.8 h 12.93 v -1.8 h -0.34 c -3.34,-0.11 -3.8,-0.36 -3.8,-2.15 v -32.91 m 28.39,20.77 c 0,-3.16 -0.54,-4.75 -2,-5.96 -1.64,-1.36 -4.09,-2 -7.29,-2 -5.64,0 -9.75,2.64 -9.75,6.3 0,1.84 1.15,3.05 2.9,3.05 1.6,0 2.71,-1.05 2.71,-2.55 0,-0.66 -0.25,-1.34 -0.75,-2.05 -0.32,-0.36 -0.36,-0.45 -0.36,-0.7 0,-1 2,-1.91 4.4,-1.91 1.6,0 3.35,0.5 4.14,1.25 0.96,0.82 1.32,2 1.32,4.25 v 1.96 c -5.21,0.9 -6.86,1.29 -9.32,2.25 -4.34,1.61 -6.39,3.9 -6.39,7.11 0,3.59 2.8,5.84 7.25,5.84 3.46,0 6.55,-1.41 8.71,-3.95 0.79,2.54 2.04,3.54 4.39,3.54 2.25,0 4.61,-1.43 4.61,-2.89 0,-0.36 -0.21,-0.61 -0.5,-0.61 -0.21,0 -0.41,0.07 -0.75,0.21 -0.71,0.29 -1,0.36 -1.41,0.36 -1.41,0 -1.91,-0.91 -1.91,-3.46 v -10.04 m -4.68,6.09 c 0,3 -0.16,3.7 -1,5 -1.25,1.84 -3.5,3.09 -5.71,3.09 -2.29,0 -3.95,-1.64 -3.95,-3.89 0,-2.11 1.05,-3.61 3.25,-4.65 1.55,-0.71 3.5,-1.21 7.41,-1.85 v 2.3"
         id="path134" />
      <path
         class="Lyrics"
         d="m 1511.44,1149.56 h -1.75 l -1.45,1.79 c -1.8,-1.4 -3.6,-2 -6.1,-2 -4.4,0 -7.29,2.85 -7.29,7.25 0,4.71 3.04,5.89 7.04,6.85 l 2.64,0.61 c 3.96,0.93 5.36,1.93 5.36,3.93 0,2.36 -2.04,4 -4.95,4 -4.25,0 -7.25,-2.68 -8.45,-7.68 h -2 v 9.43 h 1.75 l 1.75,-2.04 c 2.04,1.65 4.29,2.45 6.86,2.45 4.89,0 8.14,-3.05 8.14,-7.7 0,-2.21 -0.71,-3.89 -2.1,-5.05 -1.2,-1.05 -2.2,-1.45 -5.25,-2.09 l -2.5,-0.57 c -2.75,-0.59 -2.75,-0.59 -3.65,-1.09 -1.1,-0.5 -1.75,-1.55 -1.75,-2.66 0,-2.04 1.9,-3.43 4.65,-3.43 4.1,0 6.1,2.89 7.3,6.39 h 1.75 v -8.39 m 16.09,-0.21 c -6.14,0 -10.89,5.46 -10.89,12.46 0,6.84 4.8,12.34 10.8,12.34 6,0 10.8,-5.5 10.8,-12.41 0,-6.84 -4.8,-12.39 -10.71,-12.39 m 0,2.14 c 3.5,0 5.46,3.66 5.46,10.25 0,6.66 -1.96,10.25 -5.55,10.25 -3.59,0 -5.55,-3.59 -5.55,-10.18 0,-6.82 1.89,-10.32 5.64,-10.32 m 22.61,-14.95 -9.25,0.56 v 2.14 h 2.46 c 1.84,0.05 2.09,0.36 2.09,2.5 v 27.86 c -0.05,0.75 -0.09,1.05 -0.3,1.3 -0.36,0.45 -1.29,0.66 -3.45,0.7 h -0.34 v 1.8 h 12.93 v -1.8 h -0.34 c -3.34,-0.11 -3.8,-0.36 -3.8,-2.15 v -32.91"
         id="path135" />
      <path
         class="StaffText"
         d="m 421.52,926.002 h -2.11 l -11.5,29.141 c -1.344,3.906 -2.64,5.109 -5.5,5.313 h -0.203 v 2.343 h 13.25 v -2.343 h -1 c -2.687,0 -4.047,-0.954 -4.047,-2.86 0,-0.64 0.156,-1.25 0.453,-2.094 l 1.657,-4.406 h 13.25 l 2.703,6.703 c 0.297,0.797 0.39,1.094 0.39,1.344 0,0.813 -1.25,1.313 -3.093,1.313 h -2.11 v 2.343 h 15.5 v -2.343 h -0.687 c -2.61,-0.063 -3.063,-0.36 -4.203,-3.204 l -12.75,-31.25 m -2.454,8.188 5.641,14.203 H 413.52 l 5.546,-14.203"
         id="path145" />
      <path
         class="StaffText"
         d="m 615.543,932.546 h -1.89 l -1.954,3 c -3.25,-2.547 -5.453,-3.406 -9.109,-3.406 -3.953,0 -7.047,1.109 -10.203,3.656 -4.938,4 -7.25,9.047 -7.25,15.797 0,5.109 1.453,9.359 4.406,12.609 3.094,3.5 7.703,5.547 12.5,5.547 4.203,0 7.156,-1.297 10.406,-4.547 l 1.844,4.5 h 2.11 v -11 c 0,-2.546 0,-2.656 0.296,-3.109 0.454,-0.547 1.344,-0.687 4.204,-0.687 h 0.75 v -2.36 h -15.907 v 2.36 h 0.953 c 4.204,0 4.547,0.25 4.547,3.046 0,2.141 -0.343,4.094 -1,5.297 -1.25,2.453 -4.453,4.157 -7.703,4.157 -3.25,0 -6.453,-1.657 -8.156,-4.157 -1.844,-2.797 -2.641,-6.297 -2.641,-11.656 0,-11.141 3.703,-17.094 10.641,-17.094 5.703,0 9.656,4.094 11.703,12.094 h 2.156 l -0.703,-14.047"
         id="path148" />
      <path
         class="StaffText"
         d="m 737.83,932.546 h -1.891 l -1.953,3 c -3.25,-2.547 -5.453,-3.406 -9.109,-3.406 -3.954,0 -7.047,1.109 -10.204,3.656 -4.937,4 -7.25,9.047 -7.25,15.797 0,5.109 1.454,9.359 4.407,12.609 3.093,3.5 7.703,5.547 12.5,5.547 4.203,0 7.156,-1.297 10.406,-4.547 l 1.844,4.5 h 2.109 v -11 c 0,-2.546 0,-2.656 0.297,-3.109 0.453,-0.547 1.344,-0.687 4.203,-0.687 h 0.75 v -2.36 h -15.906 v 2.36 h 0.953 c 4.203,0 4.547,0.25 4.547,3.046 0,2.141 -0.344,4.094 -1,5.297 -1.25,2.453 -4.453,4.157 -7.703,4.157 -3.25,0 -6.453,-1.657 -8.157,-4.157 -1.843,-2.797 -2.64,-6.297 -2.64,-11.656 0,-11.141 3.703,-17.094 10.64,-17.094 5.704,0 9.657,4.094 11.704,12.094 h 2.156 l -0.703,-14.047"
         id="path150" />
      <path
         class="StaffText"
         d="m 1538.82,932.546 h -1.89 l -1.95,3 c -3.25,-2.547 -5.45,-3.406 -9.11,-3.406 -3.95,0 -7.05,1.109 -10.2,3.656 -4.94,4 -7.25,9.047 -7.25,15.797 0,5.109 1.45,9.359 4.4,12.609 3.1,3.5 7.71,5.547 12.5,5.547 4.21,0 7.16,-1.297 10.41,-4.547 l 1.84,4.5 h 2.11 v -11 c 0,-2.546 0,-2.656 0.3,-3.109 0.45,-0.547 1.34,-0.687 4.2,-0.687 h 0.75 v -2.36 h -15.9 v 2.36 h 0.95 c 4.2,0 4.55,0.25 4.55,3.046 0,2.141 -0.35,4.094 -1,5.297 -1.25,2.453 -4.46,4.157 -7.71,4.157 -3.25,0 -6.45,-1.657 -8.15,-4.157 -1.85,-2.797 -2.64,-6.297 -2.64,-11.656 0,-11.141 3.7,-17.094 10.64,-17.094 5.7,0 9.65,4.094 11.7,12.094 h 2.16 l -0.71,-14.047"
         id="path151" />
      <path
         class="StaffText"
         d="m 1161.37,926.002 h -2.11 l -11.5,29.141 c -1.34,3.906 -2.64,5.109 -5.5,5.313 h -0.2 v 2.343 h 13.25 v -2.343 h -1 c -2.69,0 -4.05,-0.954 -4.05,-2.86 0,-0.64 0.16,-1.25 0.45,-2.094 l 1.66,-4.406 h 13.25 l 2.7,6.703 c 0.3,0.797 0.39,1.094 0.39,1.344 0,0.813 -1.25,1.313 -3.09,1.313 h -2.11 v 2.343 h 15.5 v -2.343 h -0.69 c -2.61,-0.063 -3.06,-0.36 -4.2,-3.204 l -12.75,-31.25 m -2.45,8.188 5.64,14.203 h -11.19 l 5.55,-14.203"
         id="path153" />
      <path
         class="StaffText"
         d="m 1992.94,932.202 h -2.11 l -11.5,29.14 c -1.35,3.906 -2.64,5.11 -5.5,5.313 h -0.2 v 2.343 h 13.25 v -2.343 h -1 c -2.69,0 -4.05,-0.953 -4.05,-2.86 0,-0.64 0.15,-1.25 0.45,-2.093 l 1.66,-4.407 h 13.25 l 2.7,6.703 c 0.3,0.797 0.39,1.094 0.39,1.344 0,0.813 -1.25,1.313 -3.09,1.313 h -2.11 v 2.343 h 15.5 v -2.343 h -0.69 c -2.61,-0.063 -3.06,-0.36 -4.2,-3.203 l -12.75,-31.25 m -2.46,8.187 5.65,14.203 h -11.19 l 5.54,-14.203"
         id="path156" />
      <path
         class="StaffText"
         d="m 2115.22,932.202 h -2.11 l -11.5,29.141 c -1.34,3.906 -2.64,5.109 -5.5,5.313 h -0.2 v 2.343 h 13.25 v -2.343 h -1 c -2.69,0 -4.05,-0.954 -4.05,-2.86 0,-0.64 0.16,-1.25 0.46,-2.094 l 1.65,-4.406 h 13.25 l 2.71,6.703 c 0.29,0.797 0.39,1.094 0.39,1.344 0,0.813 -1.25,1.313 -3.1,1.313 h -2.11 v 2.343 h 15.5 v -2.343 h -0.68 c -2.61,-0.063 -3.07,-0.36 -4.21,-3.204 l -12.75,-31.25 m -2.45,8.188 5.64,14.203 h -11.19 l 5.55,-14.203"
         id="path160" />
      <path
         class="StaffText"
         d="m 859.819,932.89 h -29.75 v 2.359 h 0.891 c 2.859,0.047 3.812,0.203 4.203,0.703 0.297,0.438 0.297,0.547 0.297,3.094 v 23.797 c 0,2.563 0,2.656 -0.297,3.109 -0.391,0.5 -1.344,0.704 -4.203,0.704 h -0.891 v 2.343 h 17.141 v -2.343 h -1.641 c -2.859,0 -3.797,-0.204 -4.203,-0.704 -0.297,-0.453 -0.297,-0.609 -0.297,-3.109 v -11.344 h 1 c 5.141,-0.203 7,1.657 7.203,7.203 h 2.344 v -16.406 h -2.344 c -0.312,4.906 -2.25,6.797 -7,6.86 h -1.203 v -11.407 c -0.047,-2.109 0.453,-2.453 3.141,-2.5 h 2.312 c 8.204,-0.047 10.25,1.797 11.797,10.407 h 2.203 l -0.703,-12.766"
         id="path161" />
      <path
         class="StaffText"
         d="m 1661.11,932.546 h -1.89 l -1.95,3 c -3.25,-2.547 -5.46,-3.406 -9.11,-3.406 -3.96,0 -7.05,1.109 -10.21,3.656 -4.93,4 -7.25,9.047 -7.25,15.797 0,5.109 1.46,9.359 4.41,12.609 3.09,3.5 7.7,5.547 12.5,5.547 4.2,0 7.16,-1.297 10.41,-4.547 l 1.84,4.5 h 2.11 v -11 c 0,-2.546 0,-2.656 0.3,-3.109 0.45,-0.547 1.34,-0.687 4.2,-0.687 h 0.75 v -2.36 h -15.91 v 2.36 h 0.96 c 4.2,0 4.54,0.25 4.54,3.046 0,2.141 -0.34,4.094 -1,5.297 -1.25,2.453 -4.45,4.157 -7.7,4.157 -3.25,0 -6.45,-1.657 -8.16,-4.157 -1.84,-2.797 -2.64,-6.297 -2.64,-11.656 0,-11.141 3.71,-17.094 10.64,-17.094 5.71,0 9.66,4.094 11.71,12.094 h 2.15 l -0.7,-14.047"
         id="path162" />
      <path
         class="StaffText"
         d="m 2248.1,932.546 h -1.89 l -1.95,3 c -3.25,-2.547 -5.45,-3.406 -9.11,-3.406 -3.95,0 -7.05,1.109 -10.2,3.656 -4.94,4 -7.25,9.047 -7.25,15.797 0,5.109 1.45,9.359 4.4,12.609 3.1,3.5 7.71,5.547 12.5,5.547 4.21,0 7.16,-1.297 10.41,-4.547 l 1.84,4.5 h 2.11 v -11 c 0,-2.546 0,-2.656 0.3,-3.109 0.45,-0.547 1.34,-0.687 4.2,-0.687 h 0.75 v -2.36 h -15.9 v 2.36 h 0.95 c 4.2,0 4.55,0.25 4.55,3.046 0,2.141 -0.35,4.094 -1,5.297 -1.25,2.453 -4.46,4.157 -7.71,4.157 -3.25,0 -6.45,-1.657 -8.15,-4.157 -1.85,-2.797 -2.64,-6.297 -2.64,-11.656 0,-11.141 3.7,-17.094 10.64,-17.094 5.7,0 9.65,4.094 11.7,12.094 h 2.16 l -0.71,-14.047"
         id="path164" />
      <path
         class="StaffText"
         d="m 1344.8,926.002 h -2.11 l -11.5,29.141 c -1.34,3.906 -2.64,5.109 -5.5,5.313 h -0.2 v 2.343 h 13.25 v -2.343 h -1 c -2.69,0 -4.05,-0.954 -4.05,-2.86 0,-0.64 0.16,-1.25 0.45,-2.094 l 1.66,-4.406 h 13.25 l 2.7,6.703 c 0.3,0.797 0.39,1.094 0.39,1.344 0,0.813 -1.25,1.313 -3.09,1.313 h -2.11 v 2.343 h 15.5 v -2.343 h -0.69 c -2.61,-0.063 -3.06,-0.36 -4.2,-3.204 l -12.75,-31.25 m -2.45,8.188 5.64,14.203 h -11.19 l 5.55,-14.203"
         id="path167" />
      <path
         class="StaffText"
         d="m 2370.39,932.546 h -1.89 l -1.95,3 c -3.25,-2.547 -5.46,-3.406 -9.11,-3.406 -3.96,0 -7.05,1.109 -10.21,3.656 -4.93,4 -7.25,9.047 -7.25,15.797 0,5.109 1.46,9.359 4.41,12.609 3.09,3.5 7.7,5.547 12.5,5.547 4.2,0 7.16,-1.297 10.41,-4.547 l 1.84,4.5 h 2.11 v -11 c 0,-2.546 0,-2.656 0.3,-3.109 0.45,-0.547 1.34,-0.687 4.2,-0.687 h 0.75 v -2.36 h -15.91 v 2.36 h 0.96 c 4.2,0 4.54,0.25 4.54,3.046 0,2.141 -0.34,4.094 -1,5.297 -1.25,2.453 -4.45,4.157 -7.7,4.157 -3.25,0 -6.45,-1.657 -8.16,-4.157 -1.84,-2.797 -2.64,-6.297 -2.64,-11.656 0,-11.141 3.71,-17.094 10.64,-17.094 5.71,0 9.66,4.094 11.71,12.094 h 2.15 l -0.7,-14.047"
         id="path168" />
      <path
         class="StaffText"
         d="m 1782.85,932.546 h -1.91 l -2,2.953 c -3.64,-2.656 -5.5,-3.359 -8.95,-3.359 -4.75,0 -8.8,2 -12.14,6 -3.2,3.812 -4.7,8.016 -4.7,13.156 0,10.797 7.04,18.453 16.9,18.453 8,0 13.1,-4.703 14.25,-13.093 l -2.36,-0.407 c -1.34,7.453 -5.14,11.157 -11.29,11.157 -7.41,0 -10.91,-5.11 -10.91,-15.907 0,-5.703 0.75,-9.453 2.45,-12.453 1.55,-2.797 4.61,-4.547 7.86,-4.547 3.5,0 6.6,1.844 8.5,5.047 0.96,1.656 1.64,3.5 2.85,7.453 h 2.2 l -0.75,-14.453"
         id="path171" />
      <path
         class="StaffText"
         d="m 2492.38,932.89 h -29.75 v 2.359 h 0.89 c 2.86,0.047 3.81,0.203 4.2,0.703 0.3,0.438 0.3,0.547 0.3,3.094 v 23.797 c 0,2.563 0,2.656 -0.3,3.109 -0.39,0.5 -1.34,0.704 -4.2,0.704 h -0.89 v 2.343 h 17.14 v -2.343 h -1.64 c -2.86,0 -3.8,-0.204 -4.2,-0.704 -0.3,-0.453 -0.3,-0.609 -0.3,-3.109 v -11.344 h 1 c 5.14,-0.203 7,1.657 7.2,7.203 h 2.35 v -16.406 h -2.35 c -0.31,4.906 -2.25,6.797 -7,6.86 h -1.2 v -11.407 c -0.05,-2.109 0.45,-2.453 3.14,-2.5 h 2.31 c 8.21,-0.047 10.25,1.797 11.8,10.407 h 2.2 l -0.7,-12.766"
         id="path172" />
    </g>
    <g
       id="g175">
      <g
         id="g174">
        <polyline
           class="StaffLines"
           fill="none"
           stroke="#000000"
           stroke-width="2.73"
           stroke-linejoin="bevel"
           points="336.599,386.199 2764.6,386.199"
           id="polyline1" />
        <polyline
           class="StaffLines"
           fill="none"
           stroke="#000000"
           stroke-width="2.73"
           stroke-linejoin="bevel"
           points="336.599,410.999 2764.6,410.999"
           id="polyline2" />
        <polyline
           class="StaffLines"
           fill="none"
           stroke="#000000"
           stroke-width="2.73"
           stroke-linejoin="bevel"
           points="336.599,435.799 2764.6,435.799"
           id="polyline3" />
        <polyline
           class="StaffLines"
           fill="none"
           stroke="#000000"
           stroke-width="2.73"
           stroke-linejoin="bevel"
           points="336.599,460.599 2764.6,460.599"
           id="polyline4" />
        <polyline
           class="StaffLines"
           fill="none"
           stroke="#000000"
           stroke-width="2.73"
           stroke-linejoin="bevel"
           points="336.599,485.399 2764.6,485.399"
           id="polyline5" />
        <polyline
           class="BarLine"
           fill="none"
           stroke="#000000"
           stroke-width="4.46"
           stroke-linejoin="bevel"
           points="2352.94,384.835 2352.94,486.763"
           id="polyline12" />
        <polyline
           class="BarLine"
           fill="none"
           stroke="#000000"
           stroke-width="4.46"
           stroke-linejoin="bevel"
           points="1943.5,384.835 1943.5,486.763"
           id="polyline13" />
        <polyline
           class="BarLine"
           fill="none"
           stroke="#000000"
           stroke-width="4.46"
           stroke-linejoin="bevel"
           points="1224.98,384.835 1224.98,486.763"
           id="polyline14" />
        <polyline
           class="BarLine"
           fill="none"
           stroke="#000000"
           stroke-width="4.46"
           stroke-linejoin="bevel"
           points="1605.74,384.835 1605.74,486.763"
           id="polyline16" />
        <polyline
           class="BarLine"
           fill="none"
           stroke="#000000"
           stroke-width="4.46"
           stroke-linejoin="bevel"
           points="2762.37,384.835 2762.37,486.763"
           id="polyline19" />
        <polyline
           class="BarLine"
           fill="none"
           stroke="#000000"
           stroke-width="4.46"
           stroke-linejoin="bevel"
           points="887.224,384.835 887.224,486.763"
           id="polyline20" />
        <polyline
           class="Stem"
           fill="none"
           stroke="#000000"
           stroke-width="2.48"
           stroke-linejoin="bevel"
           points="2209.67,456.631 2209.67,373.799"
           id="polyline21" />
        <polyline
           class="Stem"
           fill="none"
           stroke="#000000"
           stroke-width="2.48"
           stroke-linejoin="bevel"
           points="2475.74,444.231 2475.74,379.999"
           id="polyline22" />
        <polyline
           class="Stem"
           fill="none"
           stroke="#000000"
           stroke-width="2.48"
           stroke-linejoin="bevel"
           points="614.932,469.031 614.932,386.199"
           id="polyline24" />
        <polyline
           class="Stem"
           fill="none"
           stroke="#000000"
           stroke-width="2.48"
           stroke-linejoin="bevel"
           points="2619.1,456.631 2619.1,373.799"
           id="polyline25" />
        <polyline
           class="Stem"
           fill="none"
           stroke="#000000"
           stroke-width="2.48"
           stroke-linejoin="bevel"
           points="2265.93,427.565 2265.93,503.999"
           id="polyline26" />
        <polyline
           class="Stem"
           fill="none"
           stroke="#000000"
           stroke-width="2.48"
           stroke-linejoin="bevel"
           points="700.947,444.231 700.947,367.599"
           id="polyline29" />
        <polyline
           class="Stem"
           fill="none"
           stroke="#000000"
           stroke-width="2.48"
           stroke-linejoin="bevel"
           points="2123.65,444.231 2123.65,367.599"
           id="polyline30" />
        <polyline
           class="Stem"
           fill="none"
           stroke="#000000"
           stroke-width="2.48"
           stroke-linejoin="bevel"
           points="757.21,427.565 757.21,503.999"
           id="polyline31" />
        <polyline
           class="Stem"
           fill="none"
           stroke="#000000"
           stroke-width="2.48"
           stroke-linejoin="bevel"
           points="2418.4,444.231 2418.4,379.999"
           id="polyline32" />
        <polyline
           class="Stem"
           fill="none"
           stroke="#000000"
           stroke-width="2.48"
           stroke-linejoin="bevel"
           points="922.936,427.565 922.936,503.999"
           id="polyline35" />
        <polyline
           class="Stem"
           fill="none"
           stroke="#000000"
           stroke-width="2.48"
           stroke-linejoin="bevel"
           points="1518.74,427.565 1518.74,503.999"
           id="polyline37" />
        <polyline
           class="Stem"
           fill="none"
           stroke="#000000"
           stroke-width="2.48"
           stroke-linejoin="bevel"
           points="2533.09,444.231 2533.09,367.599"
           id="polyline38" />
        <polyline
           class="Stem"
           fill="none"
           stroke="#000000"
           stroke-width="2.48"
           stroke-linejoin="bevel"
           points="1051.96,439.965 1051.96,510.199"
           id="polyline39" />
        <polyline
           class="Stem"
           fill="none"
           stroke="#000000"
           stroke-width="2.48"
           stroke-linejoin="bevel"
           points="1290.44,469.031 1290.44,386.199"
           id="polyline42" />
        <polyline
           class="Stem"
           fill="none"
           stroke="#000000"
           stroke-width="2.48"
           stroke-linejoin="bevel"
           points="1376.46,444.231 1376.46,367.599"
           id="polyline44" />
        <polyline
           class="Stem"
           fill="none"
           stroke="#000000"
           stroke-width="2.48"
           stroke-linejoin="bevel"
           points="1432.72,427.565 1432.72,503.999"
           id="polyline45" />
        <polyline
           class="Stem"
           fill="none"
           stroke="#000000"
           stroke-width="2.48"
           stroke-linejoin="bevel"
           points="1641.46,427.565 1641.46,503.999"
           id="polyline48" />
        <polyline
           class="Stem"
           fill="none"
           stroke="#000000"
           stroke-width="2.48"
           stroke-linejoin="bevel"
           points="1770.48,439.965 1770.48,510.199"
           id="polyline50" />
        <polyline
           class="Stem"
           fill="none"
           stroke="#000000"
           stroke-width="2.48"
           stroke-linejoin="bevel"
           points="2008.96,444.231 2008.96,379.999"
           id="polyline52" />
        <polyline
           class="Stem"
           fill="none"
           stroke="#000000"
           stroke-width="2.48"
           stroke-linejoin="bevel"
           points="2066.31,444.231 2066.31,379.999"
           id="polyline54" />
        <polyline
           class="Stem"
           fill="none"
           stroke="#000000"
           stroke-width="2.48"
           stroke-linejoin="bevel"
           points="2675.36,427.565 2675.36,503.999"
           id="polyline55" />
        <path
           class="Note"
           transform="matrix(0.992001,0,0,0.992001,583.94,472.999)"
           d="M 0,4.20313 C 0,8.5 3.09375,13.2969 11.2031,13.2969 21.5938,13.2969 32.5,4.79688 32.5,-4 c 0,-5.90625 -5,-9.2031 -11.2031,-9.2031 C 11.5938,-13.2031 0,-5 0,4.20313"
           id="path56" />
        <path
           class="Note"
           transform="matrix(0.992001,0,0,0.992001,669.955,448.199)"
           d="M 0,4.20313 C 0,8.5 3.09375,13.2969 11.2031,13.2969 21.5938,13.2969 32.5,4.79688 32.5,-4 c 0,-5.90625 -5,-9.2031 -11.2031,-9.2031 C 11.5938,-13.2031 0,-5 0,4.20313"
           id="path58" />
        <path
           class="Note"
           transform="matrix(0.992001,0,0,0.992001,755.97,423.399)"
           d="M 21.2969,-13.2031 C 11.5938,-13.2031 0,-5.09375 0,4.20313 0,8.5 3.09375,13.2969 11.2031,13.2969 21.5938,13.2969 32.5,4.79688 32.5,-4 c 0,-5.90625 -5,-9.2031 -11.2031,-9.2031 M 7.5,8.59375 C 4.20313,8.59375 3.5,5.90625 3.5,5 3.5,0.09375 20.2969,-8.5 25,-8.5 c 2.4063,0 4,1.40625 4,3.59375 0,5 -16.9062,13.5 -21.5,13.5"
           id="path59" />
        <path
           class="Note"
           transform="matrix(0.992001,0,0,0.992001,921.696,423.399)"
           d="M 21.2969,-13.2031 C 11.5938,-13.2031 0,-5.09375 0,4.20313 0,8.5 3.09375,13.2969 11.2031,13.2969 21.5938,13.2969 32.5,4.79688 32.5,-4 c 0,-5.90625 -5,-9.2031 -11.2031,-9.2031 M 7.5,8.59375 C 4.20313,8.59375 3.5,5.90625 3.5,5 3.5,0.09375 20.2969,-8.5 25,-8.5 c 2.4063,0 4,1.40625 4,3.59375 0,5 -16.9062,13.5 -21.5,13.5"
           id="path61" />
        <path
           class="Note"
           transform="matrix(0.992001,0,0,0.992001,2035.32,448.199)"
           d="M 0,4.20313 C 0,8.5 3.09375,13.2969 11.2031,13.2969 21.5938,13.2969 32.5,4.79688 32.5,-4 c 0,-5.90625 -5,-9.2031 -11.2031,-9.2031 C 11.5938,-13.2031 0,-5 0,4.20313"
           id="path66" />
        <path
           class="Note"
           transform="matrix(0.992001,0,0,0.992001,1345.47,448.199)"
           d="M 0,4.20313 C 0,8.5 3.09375,13.2969 11.2031,13.2969 21.5938,13.2969 32.5,4.79688 32.5,-4 c 0,-5.90625 -5,-9.2031 -11.2031,-9.2031 C 11.5938,-13.2031 0,-5 0,4.20313"
           id="path67" />
        <path
           class="Note"
           transform="matrix(0.992001,0,0,0.992001,1259.45,472.999)"
           d="M 0,4.20313 C 0,8.5 3.09375,13.2969 11.2031,13.2969 21.5938,13.2969 32.5,4.79688 32.5,-4 c 0,-5.90625 -5,-9.2031 -11.2031,-9.2031 C 11.5938,-13.2031 0,-5 0,4.20313"
           id="path69" />
        <path
           class="Note"
           transform="matrix(0.992001,0,0,0.992001,2092.66,448.199)"
           d="M 0,4.20313 C 0,8.5 3.09375,13.2969 11.2031,13.2969 21.5938,13.2969 32.5,4.79688 32.5,-4 c 0,-5.90625 -5,-9.2031 -11.2031,-9.2031 C 11.5938,-13.2031 0,-5 0,4.20313"
           id="path70" />
        <path
           class="Note"
           transform="matrix(0.992001,0,0,0.992001,2674.12,423.399)"
           d="M 0,4.20313 C 0,8.5 3.09375,13.2969 11.2031,13.2969 21.5938,13.2969 32.5,4.79688 32.5,-4 c 0,-5.90625 -5,-9.2031 -11.2031,-9.2031 C 11.5938,-13.2031 0,-5 0,4.20313"
           id="path71" />
        <path
           class="Note"
           transform="matrix(0.992001,0,0,0.992001,1769.24,435.799)"
           d="M 0,4.20313 C 0,8.5 3.09375,13.2969 11.2031,13.2969 21.5938,13.2969 32.5,4.79688 32.5,-4 c 0,-5.90625 -5,-9.2031 -11.2031,-9.2031 C 11.5938,-13.2031 0,-5 0,4.20313"
           id="path72" />
        <path
           class="Note"
           transform="matrix(0.992001,0,0,0.992001,1517.5,423.399)"
           d="M 0,4.20313 C 0,8.5 3.09375,13.2969 11.2031,13.2969 21.5938,13.2969 32.5,4.79688 32.5,-4 c 0,-5.90625 -5,-9.2031 -11.2031,-9.2031 C 11.5938,-13.2031 0,-5 0,4.20313"
           id="path73" />
        <path
           class="Note"
           transform="matrix(0.992001,0,0,0.992001,2178.67,460.599)"
           d="M 0,4.20313 C 0,8.5 3.09375,13.2969 11.2031,13.2969 21.5938,13.2969 32.5,4.79688 32.5,-4 c 0,-5.90625 -5,-9.2031 -11.2031,-9.2031 C 11.5938,-13.2031 0,-5 0,4.20313"
           id="path74" />
        <path
           class="Note"
           transform="matrix(0.992001,0,0,0.992001,2588.11,460.599)"
           d="M 0,4.20313 C 0,8.5 3.09375,13.2969 11.2031,13.2969 21.5938,13.2969 32.5,4.79688 32.5,-4 c 0,-5.90625 -5,-9.2031 -11.2031,-9.2031 C 11.5938,-13.2031 0,-5 0,4.20313"
           id="path75" />
        <path
           class="Note"
           transform="matrix(0.992001,0,0,0.992001,1640.22,423.399)"
           d="M 21.2969,-13.2031 C 11.5938,-13.2031 0,-5.09375 0,4.20313 0,8.5 3.09375,13.2969 11.2031,13.2969 21.5938,13.2969 32.5,4.79688 32.5,-4 c 0,-5.90625 -5,-9.2031 -11.2031,-9.2031 M 7.5,8.59375 C 4.20313,8.59375 3.5,5.90625 3.5,5 3.5,0.09375 20.2969,-8.5 25,-8.5 c 2.4063,0 4,1.40625 4,3.59375 0,5 -16.9062,13.5 -21.5,13.5"
           id="path76" />
        <path
           class="Note"
           transform="matrix(0.992001,0,0,0.992001,2264.69,423.399)"
           d="M 0,4.20313 C 0,8.5 3.09375,13.2969 11.2031,13.2969 21.5938,13.2969 32.5,4.79688 32.5,-4 c 0,-5.90625 -5,-9.2031 -11.2031,-9.2031 C 11.5938,-13.2031 0,-5 0,4.20313"
           id="path78" />
        <path
           class="Note"
           transform="matrix(0.992001,0,0,0.992001,2502.09,448.199)"
           d="M 0,4.20313 C 0,8.5 3.09375,13.2969 11.2031,13.2969 21.5938,13.2969 32.5,4.79688 32.5,-4 c 0,-5.90625 -5,-9.2031 -11.2031,-9.2031 C 11.5938,-13.2031 0,-5 0,4.20313"
           id="path79" />
        <path
           class="Note"
           transform="matrix(0.992001,0,0,0.992001,1431.48,423.399)"
           d="M 0,4.20313 C 0,8.5 3.09375,13.2969 11.2031,13.2969 21.5938,13.2969 32.5,4.79688 32.5,-4 c 0,-5.90625 -5,-9.2031 -11.2031,-9.2031 C 11.5938,-13.2031 0,-5 0,4.20313"
           id="path80" />
        <path
           class="Note"
           transform="matrix(0.992001,0,0,0.992001,1050.72,435.799)"
           d="M 0,4.20313 C 0,8.5 3.09375,13.2969 11.2031,13.2969 21.5938,13.2969 32.5,4.79688 32.5,-4 c 0,-5.90625 -5,-9.2031 -11.2031,-9.2031 C 11.5938,-13.2031 0,-5 0,4.20313"
           id="path82" />
        <path
           class="Note"
           transform="matrix(0.992001,0,0,0.992001,2387.41,448.199)"
           d="M 0,4.20313 C 0,8.5 3.09375,13.2969 11.2031,13.2969 21.5938,13.2969 32.5,4.79688 32.5,-4 c 0,-5.90625 -5,-9.2031 -11.2031,-9.2031 C 11.5938,-13.2031 0,-5 0,4.20313"
           id="path84" />
        <path
           class="Note"
           transform="matrix(0.992001,0,0,0.992001,2444.75,448.199)"
           d="M 0,4.20313 C 0,8.5 3.09375,13.2969 11.2031,13.2969 21.5938,13.2969 32.5,4.79688 32.5,-4 c 0,-5.90625 -5,-9.2031 -11.2031,-9.2031 C 11.5938,-13.2031 0,-5 0,4.20313"
           id="path85" />
        <path
           class="Note"
           transform="matrix(0.992001,0,0,0.992001,1977.97,448.199)"
           d="M 0,4.20313 C 0,8.5 3.09375,13.2969 11.2031,13.2969 21.5938,13.2969 32.5,4.79688 32.5,-4 c 0,-5.90625 -5,-9.2031 -11.2031,-9.2031 C 11.5938,-13.2031 0,-5 0,4.20313"
           id="path89" />
        <path
           class="Clef"
           transform="matrix(0.992001,0,0,0.992001,355.199,460.599)"
           d="m 12.2969,51.2969 c 0,6.6094 5,15.3125 18.5,15.3125 4.7031,0 8.8125,-1.2031 12.4062,-3.4063 C 48.6094,59.4063 50,52.7969 50,46.5 c 0,-3.8906 -0.5937,-8.3906 -1.5937,-14.0937 -0.2969,-2 -0.9063,-5 -1.5,-8.9063 C 56.7031,20.2969 64,10.0938 64,-0.203125 64,-15.2969 53.2969,-25.5 38.7031,-25.5 c -1,-6 -2,-11.9063 -2.7968,-17.5 10.5,-11.1094 17.7968,-23.6094 17.7968,-39.5 0,-9.1094 -2.7968,-16.5 -4.4062,-20.109 -2.3906,-5.094 -5.2969,-8.594 -7.0938,-8.594 -0.7031,0 -3.7968,1.203 -7.0937,5.094 -6.4063,7.609 -8.2031,20.4059 -8.2031,28.7965 0,5.4062 0.5,10.3125 2.2031,21.5156 -0.1094,0.0938 -5.3125,5.3906 -7.4063,7.0938 C 12.5938,-40.2969 0,-28.1094 0,-8.09375 0,10.5938 16.2969,25.2969 34.9063,25.2969 c 2.8906,0 5.5937,-0.2969 7.8906,-0.7031 1.9062,9.6093 3.1094,16.6093 3.1094,21.9062 0,10.4063 -5.4063,15.9063 -15.5,15.9063 -2.4063,0 -4.5,-0.5 -4.7032,-0.5 -0.0937,-0.1094 -0.2968,-0.2032 -0.2968,-0.2969 0,-0.2031 0.2031,-0.3125 0.5,-0.3125 C 30.6094,60.5 35.2969,56.5 35.2969,50.1094 35.2969,44.7031 31.2031,39 23.7031,39 c -7,0 -11.4062,5.7031 -11.4062,12.2969 m 20.9062,-133.5 c 0.9063,-4 5.5,-14.5 10.7032,-14.5 1.5,0 3.8906,4.7968 3.8906,11.7968 0,10.4063 -7.6875,18.2032 -14.5938,25 -0.5937,-4 -1.0937,-7.8906 -1.0937,-12.0937 0,-3.7031 0.2969,-7.1094 1.0937,-10.2031 M 42,20.5938 c -2,0.4062 -3.8906,0.6093 -5.7969,0.6093 -14.2968,0 -26.49997,-10 -26.49997,-25.10935 0,-12.18755 8.59377,-23.09375 17.40627,-30.70315 1.6875,-1.5 3.2969,-2.8906 4.7969,-4.3906 0.8906,5.3906 1.5937,10.0937 2.2968,14.2031 -9.1093,2.7031 -15.2968,12.2969 -15.2968,21.70315 0,7 5.5,16.59375 13.5,16.59375 0.7968,0 1.7031,-0.4062 1.7031,-1.2969 0,-0.9062 -1,-1.4062 -2.2031,-2.2031 C 28,7.59375 25.7969,5 25.7969,0.09375 25.7969,-6 30.4063,-10.9063 36.2031,-12.2969 L 42,20.5938 M 56.2031,2.09375 c 0,7.10938 -2.9062,14.40625 -10,17.31255 -2.0937,-12.00005 -4.7968,-27.9063 -5.5,-32.3126 9,0 15.5,6.10942 15.5,15.00005"
           id="path91" />
        <path
           class="KeySig"
           transform="matrix(0.992001,0,0,0.992001,443.479,435.799)"
           d="m 12,-15.5 c -5,0 -7.90625,3.0937 -8.40625,3.7031 L 4,-43.9063 c 0,-0.7968 -0.59375,-1.3906 -1.40625,-1.3906 H 1.40625 C 0.59375,-45.2969 0,-44.7031 0,-43.9063 L 0.5,16.2031 C 0.5,17 1.09375,17.5938 1.90625,17.5938 2.09375,17.5938 2.5,17.5 2.70313,17.4063 11.2969,13.0938 20.2969,4.90625 20.2969,-5.40625 20.2969,-10.5938 17.9063,-15.5 12,-15.5 M 3.29688,12.7031 3.59375,-6.79688 c 0.20313,-0.90625 1.70313,-3.79692 5.70313,-3.79692 3.60942,0 3.90622,3.39067 3.90622,5.50005 0,8.89063 -3.29685,12.59375 -9.90622,17.79685"
           id="path92" />
        <path
           class="TimeSig"
           transform="matrix(0.992001,0,0,0.992001,488.413,435.799)"
           d="m 32.5,-17.9063 c -2.5,1.6094 -4.2969,4.5 -4.2969,7.7032 0,0.40622 0,0.79685 0.0938,1.2031 0.5,4.09375 3.8125,7.29687 7.9062,7.79687 0.2969,0 0.7969,0 1.0938,0 5,0 9,-4 9,-8.99997 0,-0.7032 0,-1.3907 -0.1875,-2.0938 -0.9063,-4.2969 -4.8125,-13.5 -21.8125,-13.5 C 2.5,-25.7969 0,-7.70313 0,-1.20313 0,10.7031 1.5,25.6094 26.5,25.6094 c 9.9063,0 17.6094,-5.8125 18,-16.51565 0,-0.5 -0.2969,-0.79687 -0.7969,-0.79687 H 42.4063 C 42,8.29688 41.6094,8.70313 41.6094,9.09375 41.2031,17.4063 35.2969,22.4063 26.5,22.4063 17.7969,22.4063 13.5938,17.7031 13.5938,8.90625 V -10.2031 c 0,-5.5938 2.2031,-12 11.1093,-12 4.7032,0 6.7969,1.7031 7.9063,3.4062 0.0937,0.2031 0.0937,0.2969 0.0937,0.5 0,0.0938 0,0.2969 -0.2031,0.3906"
           id="path94" />
        <path
           class="Rest"
           transform="matrix(0.992001,0,0,0.992001,1855.25,435.799)"
           d="M 23,16.5938 C 22.9063,16.5 22.7031,16.2969 22.4063,15.9063 L 10.9063,1.70313 C 10.7969,1.59375 10.7031,1.29688 10.7031,1.09375 c 0,-0.296875 0.0938,-0.6875 0.2032,-0.890625 L 21.0938,-15.2031 c 0.1093,-0.2032 0.2031,-0.5 0.2031,-0.7032 v -0.8906 c 0,-0.2969 -0.0938,-0.6094 -0.2969,-0.7969 L 4.79688,-39.5 c 0,0 -0.39063,-0.6094 -1,-0.6094 -0.29688,0 -0.5,0 -0.79688,0.3125 -0.40625,0.2969 -0.5,0.6875 -0.5,1 0,0.5938 0.29688,1.0938 0.29688,1.0938 l 7.60942,10.4062 c 0.1875,0.2969 0.2968,0.6875 0.2968,1.1875 0,0.4063 -0.1093,0.9063 -0.2968,1.2031 L 0.296875,-9.5 C 0.203125,-9.29688 0.09375,-8.90625 0.09375,-8.70313 v 0.90625 C 0.09375,-7.5 0.203125,-7.20313 0.40625,-7 L 11.5938,6.90625 C 11.2031,6.79688 10.2969,6.59375 9.09375,6.59375 4,6.59375 0,10.7969 0,15.9063 0,17.2969 0.296875,18.7031 1.09375,19.7969 3.20313,23 10.7031,32.5 10.7031,32.5 c 0,0 0.5,0.6094 1.2032,0.6094 0.1875,0 0.3906,0 0.5937,-0.2031 C 13,32.5 13.2031,32.1094 13.2031,31.7031 13.2031,31.2969 13,31 12.9063,30.7969 12.5938,30.2969 9.40625,24.5 9.40625,24.5 c 0,0 -0.70312,-1.4062 -0.70312,-3.2031 0,-3.2031 2.39067,-5.7969 5.59377,-5.7969 1.2969,0 2.4062,0.4063 3.2031,0.9063 l 3.9063,2.5 c 0,0 0.3906,0.1875 0.7968,0.1875 0.3907,0 0.7032,-0.0938 1,-0.5 C 23.4063,18.2969 23.5,18 23.5,17.7031 c 0,-0.2968 -0.0937,-0.5 -0.2969,-0.7968 L 23,16.5938"
           id="path95" />
        <path
           class="Rest"
           transform="matrix(0.992001,0,0,0.992001,1136.73,435.799)"
           d="M 23,16.5938 C 22.9063,16.5 22.7031,16.2969 22.4063,15.9063 L 10.9063,1.70313 C 10.7969,1.59375 10.7031,1.29688 10.7031,1.09375 c 0,-0.296875 0.0938,-0.6875 0.2032,-0.890625 L 21.0938,-15.2031 c 0.1093,-0.2032 0.2031,-0.5 0.2031,-0.7032 v -0.8906 c 0,-0.2969 -0.0938,-0.6094 -0.2969,-0.7969 L 4.79688,-39.5 c 0,0 -0.39063,-0.6094 -1,-0.6094 -0.29688,0 -0.5,0 -0.79688,0.3125 -0.40625,0.2969 -0.5,0.6875 -0.5,1 0,0.5938 0.29688,1.0938 0.29688,1.0938 l 7.60942,10.4062 c 0.1875,0.2969 0.2968,0.6875 0.2968,1.1875 0,0.4063 -0.1093,0.9063 -0.2968,1.2031 L 0.296875,-9.5 C 0.203125,-9.29688 0.09375,-8.90625 0.09375,-8.70313 v 0.90625 C 0.09375,-7.5 0.203125,-7.20313 0.40625,-7 L 11.5938,6.90625 C 11.2031,6.79688 10.2969,6.59375 9.09375,6.59375 4,6.59375 0,10.7969 0,15.9063 0,17.2969 0.296875,18.7031 1.09375,19.7969 3.20313,23 10.7031,32.5 10.7031,32.5 c 0,0 0.5,0.6094 1.2032,0.6094 0.1875,0 0.3906,0 0.5937,-0.2031 C 13,32.5 13.2031,32.1094 13.2031,31.7031 13.2031,31.2969 13,31 12.9063,30.7969 12.5938,30.2969 9.40625,24.5 9.40625,24.5 c 0,0 -0.70312,-1.4062 -0.70312,-3.2031 0,-3.2031 2.39067,-5.7969 5.59377,-5.7969 1.2969,0 2.4062,0.4063 3.2031,0.9063 l 3.9063,2.5 c 0,0 0.3906,0.1875 0.7968,0.1875 0.3907,0 0.7032,-0.0938 1,-0.5 C 23.4063,18.2969 23.5,18 23.5,17.7031 c 0,-0.2968 -0.0937,-0.5 -0.2969,-0.7968 L 23,16.5938"
           id="path96" />
        <path
           class="Beam"
           fill-rule="evenodd"
           d="m 2417.16,373.799 h 59.82 v 12.4 h -59.82 v -12.4"
           id="path97" />
        <path
           class="Beam"
           fill-rule="evenodd"
           d="m 2007.72,373.799 h 59.83 v 12.4 h -59.83 v -12.4"
           id="path101" />
        <path
           class="Lyrics"
           d="m 2506.41,534.139 -9.25,0.563 v 2.141 h 2.46 c 1.84,0.046 2.09,0.359 2.09,2.5 v 27.859 c -0.05,0.75 -0.09,1.047 -0.3,1.297 -0.36,0.453 -1.29,0.656 -3.45,0.703 h -0.34 v 1.797 h 12.93 v -1.797 h -0.34 c -3.34,-0.109 -3.8,-0.359 -3.8,-2.156 v -32.907 m 28.39,20.766 c 0,-3.156 -0.54,-4.75 -2,-5.953 -1.64,-1.359 -4.09,-2 -7.29,-2 -5.64,0 -9.75,2.641 -9.75,6.297 0,1.844 1.15,3.047 2.9,3.047 1.6,0 2.71,-1.047 2.71,-2.547 0,-0.656 -0.25,-1.344 -0.75,-2.047 -0.32,-0.359 -0.36,-0.453 -0.36,-0.703 0,-1 2,-1.906 4.4,-1.906 1.6,0 3.35,0.5 4.14,1.25 0.96,0.812 1.32,2 1.32,4.25 v 1.953 c -5.21,0.906 -6.86,1.297 -9.32,2.25 -4.34,1.609 -6.39,3.906 -6.39,7.109 0,3.594 2.8,5.844 7.25,5.844 3.46,0 6.55,-1.406 8.71,-3.953 0.79,2.547 2.04,3.547 4.39,3.547 2.25,0 4.61,-1.438 4.61,-2.891 0,-0.359 -0.21,-0.609 -0.5,-0.609 -0.21,0 -0.41,0.062 -0.75,0.203 -0.71,0.297 -1,0.359 -1.41,0.359 -1.41,0 -1.91,-0.906 -1.91,-3.453 v -10.047 m -4.68,6.094 c 0,3 -0.16,3.703 -1,5 -1.25,1.844 -3.5,3.094 -5.71,3.094 -2.29,0 -3.95,-1.641 -3.95,-3.891 0,-2.109 1.05,-3.609 3.25,-4.656 1.55,-0.703 3.5,-1.203 7.41,-1.844 v 2.297"
           id="path102" />
        <path
           class="Lyrics"
           d="m 763.586,571.343 8.703,-0.344 v -2.156 h -0.906 c -2.844,-0.141 -3.094,-0.438 -3.094,-3.641 v -31.063 l -9.797,0.563 v 2.141 h 2.938 c 1.906,0.046 2.156,0.359 2.156,2.5 v 11.312 c -1.844,-2.562 -4,-3.703 -6.906,-3.703 -5.641,0 -9.938,5.453 -9.938,12.641 0,7.109 4.141,12.156 9.938,12.156 3.156,0 5.312,-1.344 6.906,-4.344 v 3.938 m -5.906,-21.688 c 2.062,0 4,1.5 4.906,3.797 0.656,1.5 0.953,3.547 0.953,6 0,5.844 -2.297,9.594 -5.906,9.594 -3.547,0 -5.641,-3.297 -5.641,-8.844 0,-3 0.297,-5.25 0.938,-6.906 0.859,-2.25 2.703,-3.641 4.75,-3.641 m 28.5,-2.703 c -6.141,0 -10.891,5.453 -10.891,12.453 0,6.844 4.797,12.344 10.797,12.344 6,0 10.797,-5.5 10.797,-12.406 0,-6.844 -4.797,-12.391 -10.703,-12.391 m 0,2.141 c 3.5,0 5.453,3.656 5.453,10.25 0,6.656 -1.953,10.25 -5.547,10.25 -3.594,0 -5.547,-3.594 -5.547,-10.188 0,-6.812 1.891,-10.312 5.641,-10.312"
           id="path104" />
        <path
           class="Lyrics"
           d="m 2181.79,547.155 h -1.75 l -1.45,1.797 c -1.8,-1.406 -3.6,-2 -6.1,-2 -4.4,0 -7.29,2.844 -7.29,7.25 0,4.703 3.04,5.891 7.04,6.844 l 2.64,0.609 c 3.96,0.938 5.36,1.938 5.36,3.938 0,2.359 -2.04,4 -4.95,4 -4.25,0 -7.25,-2.688 -8.45,-7.688 h -2 v 9.438 h 1.75 l 1.75,-2.047 c 2.04,1.656 4.29,2.453 6.86,2.453 4.89,0 8.14,-3.047 8.14,-7.703 0,-2.203 -0.71,-3.891 -2.1,-5.047 -1.2,-1.047 -2.2,-1.453 -5.25,-2.094 l -2.5,-0.562 c -2.75,-0.594 -2.75,-0.594 -3.65,-1.094 -1.1,-0.5 -1.75,-1.547 -1.75,-2.656 0,-2.047 1.9,-3.438 4.65,-3.438 4.1,0 6.1,2.891 7.3,6.391 h 1.75 v -8.391 m 16.09,-0.203 c -6.14,0 -10.89,5.453 -10.89,12.453 0,6.844 4.8,12.344 10.8,12.344 6,0 10.8,-5.5 10.8,-12.406 0,-6.844 -4.8,-12.391 -10.71,-12.391 m 0,2.141 c 3.5,0 5.46,3.656 5.46,10.25 0,6.656 -1.96,10.25 -5.55,10.25 -3.59,0 -5.55,-3.594 -5.55,-10.188 0,-6.812 1.89,-10.312 5.64,-10.312 m 22.61,-14.954 -9.25,0.563 v 2.141 h 2.46 c 1.84,0.046 2.09,0.359 2.09,2.5 v 27.859 c -0.05,0.75 -0.09,1.047 -0.3,1.297 -0.36,0.453 -1.29,0.656 -3.45,0.703 h -0.34 v 1.797 h 12.93 v -1.797 h -0.34 c -3.34,-0.109 -3.8,-0.359 -3.8,-2.156 v -32.907"
           id="path105" />
        <path
           class="Lyrics"
           d="m 2591.22,547.155 h -1.75 l -1.45,1.797 c -1.8,-1.406 -3.59,-2 -6.09,-2 -4.41,0 -7.3,2.844 -7.3,7.25 0,4.703 3.05,5.891 7.05,6.844 l 2.64,0.609 c 3.95,0.938 5.36,1.938 5.36,3.938 0,2.359 -2.05,4 -4.96,4 -4.25,0 -7.25,-2.688 -8.45,-7.688 h -2 v 9.438 h 1.75 l 1.75,-2.047 c 2.05,1.656 4.3,2.453 6.86,2.453 4.89,0 8.14,-3.047 8.14,-7.703 0,-2.203 -0.7,-3.891 -2.09,-5.047 -1.21,-1.047 -2.21,-1.453 -5.25,-2.094 l -2.5,-0.562 c -2.75,-0.594 -2.75,-0.594 -3.66,-1.094 -1.09,-0.5 -1.75,-1.547 -1.75,-2.656 0,-2.047 1.91,-3.438 4.66,-3.438 4.09,0 6.09,2.891 7.29,6.391 h 1.75 v -8.391 m 16.1,-0.203 c -6.14,0 -10.89,5.453 -10.89,12.453 0,6.844 4.79,12.344 10.79,12.344 6,0 10.8,-5.5 10.8,-12.406 0,-6.844 -4.8,-12.391 -10.7,-12.391 m 0,2.141 c 3.5,0 5.45,3.656 5.45,10.25 0,6.656 -1.95,10.25 -5.55,10.25 -3.59,0 -5.54,-3.594 -5.54,-10.188 0,-6.812 1.89,-10.312 5.64,-10.312 m 22.61,-14.954 -9.25,0.563 v 2.141 h 2.45 c 1.84,0.046 2.09,0.359 2.09,2.5 v 27.859 c -0.04,0.75 -0.09,1.047 -0.29,1.297 -0.36,0.453 -1.3,0.656 -3.46,0.703 h -0.34 v 1.797 h 12.94 v -1.797 h -0.35 c -3.34,-0.109 -3.79,-0.359 -3.79,-2.156 v -32.907"
           id="path106" />
        <path
           class="Lyrics"
           d="m 674.274,534.139 -9.25,0.563 v 2.141 h 2.453 c 1.844,0.046 2.094,0.359 2.094,2.5 v 27.859 c -0.047,0.75 -0.094,1.047 -0.297,1.297 -0.359,0.453 -1.297,0.656 -3.453,0.703 h -0.344 v 1.797 h 12.938 v -1.797 h -0.344 c -3.344,-0.109 -3.797,-0.359 -3.797,-2.156 v -32.907 m 28.391,20.766 c 0,-3.156 -0.547,-4.75 -2,-5.953 -1.641,-1.359 -4.094,-2 -7.297,-2 -5.641,0 -9.75,2.641 -9.75,6.297 0,1.844 1.156,3.047 2.906,3.047 1.594,0 2.703,-1.047 2.703,-2.547 0,-0.656 -0.25,-1.344 -0.75,-2.047 -0.312,-0.359 -0.359,-0.453 -0.359,-0.703 0,-1 2,-1.906 4.406,-1.906 1.594,0 3.344,0.5 4.141,1.25 0.953,0.812 1.312,2 1.312,4.25 v 1.953 c -5.203,0.906 -6.859,1.297 -9.312,2.25 -4.344,1.609 -6.391,3.906 -6.391,7.109 0,3.594 2.797,5.844 7.25,5.844 3.453,0 6.547,-1.406 8.703,-3.953 0.797,2.547 2.047,3.547 4.391,3.547 2.25,0 4.609,-1.438 4.609,-2.891 0,-0.359 -0.203,-0.609 -0.5,-0.609 -0.203,0 -0.406,0.062 -0.75,0.203 -0.703,0.297 -1,0.359 -1.406,0.359 -1.406,0 -1.906,-0.906 -1.906,-3.453 v -10.047 m -4.688,6.094 c 0,3 -0.156,3.703 -1,5 -1.25,1.844 -3.5,3.094 -5.703,3.094 -2.297,0 -3.953,-1.641 -3.953,-3.891 0,-2.109 1.047,-3.609 3.25,-4.656 1.547,-0.703 3.5,-1.203 7.406,-1.844 v 2.297"
           id="path108" />
        <path
           class="Lyrics"
           d="m 2096.98,534.139 -9.25,0.563 v 2.141 h 2.45 c 1.84,0.046 2.09,0.359 2.09,2.5 v 27.859 c -0.04,0.75 -0.09,1.047 -0.29,1.297 -0.36,0.453 -1.3,0.656 -3.46,0.703 h -0.34 v 1.797 h 12.94 v -1.797 h -0.35 c -3.34,-0.109 -3.79,-0.359 -3.79,-2.156 v -32.907 m 28.39,20.766 c 0,-3.156 -0.55,-4.75 -2,-5.953 -1.64,-1.359 -4.1,-2 -7.3,-2 -5.64,0 -9.75,2.641 -9.75,6.297 0,1.844 1.16,3.047 2.91,3.047 1.59,0 2.7,-1.047 2.7,-2.547 0,-0.656 -0.25,-1.344 -0.75,-2.047 -0.31,-0.359 -0.36,-0.453 -0.36,-0.703 0,-1 2,-1.906 4.41,-1.906 1.59,0 3.34,0.5 4.14,1.25 0.95,0.812 1.31,2 1.31,4.25 v 1.953 c -5.2,0.906 -6.86,1.297 -9.31,2.25 -4.35,1.609 -6.39,3.906 -6.39,7.109 0,3.594 2.79,5.844 7.25,5.844 3.45,0 6.54,-1.406 8.7,-3.953 0.8,2.547 2.05,3.547 4.39,3.547 2.25,0 4.61,-1.438 4.61,-2.891 0,-0.359 -0.2,-0.609 -0.5,-0.609 -0.2,0 -0.41,0.062 -0.75,0.203 -0.7,0.297 -1,0.359 -1.41,0.359 -1.4,0 -1.9,-0.906 -1.9,-3.453 v -10.047 m -4.69,6.094 c 0,3 -0.16,3.703 -1,5 -1.25,1.844 -3.5,3.094 -5.7,3.094 -2.3,0 -3.96,-1.641 -3.96,-3.891 0,-2.109 1.05,-3.609 3.25,-4.656 1.55,-0.703 3.5,-1.203 7.41,-1.844 v 2.297"
           id="path109" />
        <path
           class="Lyrics"
           d="m 2681.74,571.343 8.7,-0.344 v -2.156 h -0.9 c -2.85,-0.141 -3.1,-0.438 -3.1,-3.641 v -31.063 l -9.79,0.563 v 2.141 h 2.93 c 1.91,0.046 2.16,0.359 2.16,2.5 v 11.312 c -1.84,-2.562 -4,-3.703 -6.91,-3.703 -5.64,0 -9.93,5.453 -9.93,12.641 0,7.109 4.14,12.156 9.93,12.156 3.16,0 5.32,-1.344 6.91,-4.344 v 3.938 m -5.91,-21.688 c 2.07,0 4,1.5 4.91,3.797 0.66,1.5 0.95,3.547 0.95,6 0,5.844 -2.29,9.594 -5.9,9.594 -3.55,0 -5.64,-3.297 -5.64,-8.844 0,-3 0.29,-5.25 0.93,-6.906 0.86,-2.25 2.71,-3.641 4.75,-3.641 m 28.5,-2.703 c -6.14,0 -10.89,5.453 -10.89,12.453 0,6.844 4.8,12.344 10.8,12.344 6,0 10.8,-5.5 10.8,-12.406 0,-6.844 -4.8,-12.391 -10.71,-12.391 m 0,2.141 c 3.5,0 5.46,3.656 5.46,10.25 0,6.656 -1.96,10.25 -5.55,10.25 -3.59,0 -5.55,-3.594 -5.55,-10.188 0,-6.812 1.89,-10.312 5.64,-10.312"
           id="path110" />
        <path
           class="Lyrics"
           d="m 1778.06,547.702 v -9.906 h -2.05 c -0.5,6.5 -2.7,9.797 -6.75,10.109 v 1.938 h 4.09 v 12.75 c 0,3.5 0.1,4.75 0.6,5.906 0.81,2.094 2.81,3.25 5.7,3.25 4.5,0 7.41,-3.406 7.41,-8.703 0,-0.297 0,-0.641 -0.05,-1.141 h -2.11 c -0.14,4.5 -1.45,6.797 -3.89,6.797 -1.16,0 -2.16,-0.609 -2.5,-1.453 -0.31,-0.703 -0.45,-1.953 -0.45,-3.75 v -13.656 h 7.34 v -2.141 h -7.34 m 17.25,-12.453 c -1.61,0 -2.91,1.297 -2.91,2.89 0,1.61 1.3,2.907 2.86,2.907 1.64,0 2.94,-1.297 2.94,-2.907 0,-1.593 -1.3,-2.89 -2.89,-2.89 m 2.34,12.453 -9.39,0.547 v 2.156 h 2.55 c 1.89,0.047 2.14,0.344 2.14,2.5 v 14.297 c -0.05,0.75 -0.1,1.047 -0.3,1.297 -0.34,0.453 -1.3,0.656 -3.45,0.703 h -0.35 v 1.797 h 12.96 v -1.797 h -0.36 c -3.35,-0.109 -3.8,-0.359 -3.8,-2.156 v -19.344"
           id="path112" />
        <path
           class="Lyrics"
           d="m 2039.63,534.139 -9.25,0.563 v 2.141 h 2.46 c 1.84,0.046 2.09,0.359 2.09,2.5 v 27.859 c -0.05,0.75 -0.09,1.047 -0.3,1.297 -0.35,0.453 -1.29,0.656 -3.45,0.703 h -0.34 v 1.797 h 12.94 v -1.797 h -0.35 c -3.34,-0.109 -3.8,-0.359 -3.8,-2.156 v -32.907 m 28.4,20.766 c 0,-3.156 -0.55,-4.75 -2,-5.953 -1.65,-1.359 -4.1,-2 -7.3,-2 -5.64,0 -9.75,2.641 -9.75,6.297 0,1.844 1.15,3.047 2.9,3.047 1.6,0 2.71,-1.047 2.71,-2.547 0,-0.656 -0.25,-1.344 -0.75,-2.047 -0.31,-0.359 -0.36,-0.453 -0.36,-0.703 0,-1 2,-1.906 4.4,-1.906 1.6,0 3.35,0.5 4.15,1.25 0.95,0.812 1.31,2 1.31,4.25 v 1.953 c -5.21,0.906 -6.86,1.297 -9.31,2.25 -4.35,1.609 -6.4,3.906 -6.4,7.109 0,3.594 2.8,5.844 7.25,5.844 3.46,0 6.55,-1.406 8.71,-3.953 0.79,2.547 2.04,3.547 4.39,3.547 2.25,0 4.61,-1.438 4.61,-2.891 0,-0.359 -0.21,-0.609 -0.5,-0.609 -0.21,0 -0.41,0.062 -0.75,0.203 -0.71,0.297 -1,0.359 -1.41,0.359 -1.4,0 -1.9,-0.906 -1.9,-3.453 v -10.047 m -4.69,6.094 c 0,3 -0.16,3.703 -1,5 -1.25,1.844 -3.5,3.094 -5.71,3.094 -2.29,0 -3.95,-1.641 -3.95,-3.891 0,-2.109 1.05,-3.609 3.25,-4.656 1.55,-0.703 3.5,-1.203 7.41,-1.844 v 2.297"
           id="path113" />
        <path
           class="Lyrics"
           d="m 587.603,547.702 v -2.859 c 0,-2.5 0.156,-4.141 0.547,-5.141 0.812,-2.203 2.562,-3.563 4.562,-3.563 1.047,0 1.688,0.313 1.688,0.86 0,0.203 0,0.25 -0.297,0.64 -0.297,0.454 -0.453,1.063 -0.453,1.61 0,1.5 1.203,2.64 2.75,2.64 1.656,0 2.812,-1.25 2.812,-3.046 0,-2.891 -2.5,-4.704 -6.562,-4.704 -3.438,0 -6,1.204 -7.75,3.704 -1.5,2.109 -2,4.25 -2,8.312 v 1.547 h -4.391 v 2.141 h 4.391 v 17.359 c -0.047,0.703 -0.094,1 -0.297,1.297 -0.344,0.453 -1.297,0.656 -3.453,0.703 h -0.188 v 1.797 h 13.344 v -1.797 H 591.4 c -3.344,-0.109 -3.797,-0.359 -3.797,-2.156 v -17.203 h 5.5 v -2.141 h -5.5 m 28.547,7.203 c 0,-3.156 -0.547,-4.75 -2,-5.953 -1.641,-1.359 -4.094,-2 -7.297,-2 -5.641,0 -9.75,2.641 -9.75,6.297 0,1.844 1.156,3.047 2.906,3.047 1.594,0 2.703,-1.047 2.703,-2.547 0,-0.656 -0.25,-1.344 -0.75,-2.047 -0.312,-0.359 -0.359,-0.453 -0.359,-0.703 0,-1 2,-1.906 4.406,-1.906 1.594,0 3.344,0.5 4.141,1.25 0.953,0.812 1.312,2 1.312,4.25 v 1.953 c -5.203,0.906 -6.859,1.297 -9.312,2.25 -4.344,1.609 -6.391,3.906 -6.391,7.109 0,3.594 2.797,5.844 7.25,5.844 3.453,0 6.547,-1.406 8.703,-3.953 0.797,2.547 2.047,3.547 4.391,3.547 2.25,0 4.609,-1.438 4.609,-2.891 0,-0.359 -0.203,-0.609 -0.5,-0.609 -0.203,0 -0.406,0.062 -0.75,0.203 -0.703,0.297 -1,0.359 -1.406,0.359 -1.406,0 -1.906,-0.906 -1.906,-3.453 v -10.047 m -4.688,6.094 c 0,3 -0.156,3.703 -1,5 -1.25,1.844 -3.5,3.094 -5.703,3.094 -2.297,0 -3.953,-1.641 -3.953,-3.891 0,-2.109 1.047,-3.609 3.25,-4.656 1.547,-0.703 3.5,-1.203 7.406,-1.844 v 2.297"
           id="path114" />
        <path
           class="Lyrics"
           d="m 1982.29,534.139 -9.25,0.563 v 2.141 h 2.45 c 1.85,0.046 2.1,0.359 2.1,2.5 v 27.859 c -0.05,0.75 -0.1,1.047 -0.3,1.297 -0.36,0.453 -1.3,0.656 -3.45,0.703 h -0.35 v 1.797 h 12.94 v -1.797 h -0.34 c -3.35,-0.109 -3.8,-0.359 -3.8,-2.156 v -32.907 m 28.39,20.766 c 0,-3.156 -0.54,-4.75 -2,-5.953 -1.64,-1.359 -4.09,-2 -7.29,-2 -5.65,0 -9.75,2.641 -9.75,6.297 0,1.844 1.15,3.047 2.9,3.047 1.6,0 2.7,-1.047 2.7,-2.547 0,-0.656 -0.25,-1.344 -0.75,-2.047 -0.31,-0.359 -0.35,-0.453 -0.35,-0.703 0,-1 2,-1.906 4.4,-1.906 1.6,0 3.35,0.5 4.14,1.25 0.96,0.812 1.31,2 1.31,4.25 v 1.953 c -5.2,0.906 -6.85,1.297 -9.31,2.25 -4.34,1.609 -6.39,3.906 -6.39,7.109 0,3.594 2.8,5.844 7.25,5.844 3.45,0 6.55,-1.406 8.7,-3.953 0.8,2.547 2.05,3.547 4.4,3.547 2.25,0 4.6,-1.438 4.6,-2.891 0,-0.359 -0.2,-0.609 -0.5,-0.609 -0.2,0 -0.4,0.062 -0.75,0.203 -0.7,0.297 -1,0.359 -1.4,0.359 -1.41,0 -1.91,-0.906 -1.91,-3.453 v -10.047 m -4.69,6.094 c 0,3 -0.15,3.703 -1,5 -1.25,1.844 -3.5,3.094 -5.7,3.094 -2.3,0 -3.95,-1.641 -3.95,-3.891 0,-2.109 1.05,-3.609 3.25,-4.656 1.55,-0.703 3.5,-1.203 7.4,-1.844 v 2.297"
           id="path115" />
        <path
           class="Lyrics"
           d="m 2391.73,534.139 -9.25,0.563 v 2.141 h 2.45 c 1.84,0.046 2.09,0.359 2.09,2.5 v 27.859 c -0.04,0.75 -0.09,1.047 -0.29,1.297 -0.36,0.453 -1.3,0.656 -3.46,0.703 h -0.34 v 1.797 h 12.94 v -1.797 h -0.35 c -3.34,-0.109 -3.79,-0.359 -3.79,-2.156 v -32.907 m 28.39,20.766 c 0,-3.156 -0.55,-4.75 -2,-5.953 -1.64,-1.359 -4.1,-2 -7.3,-2 -5.64,0 -9.75,2.641 -9.75,6.297 0,1.844 1.16,3.047 2.91,3.047 1.59,0 2.7,-1.047 2.7,-2.547 0,-0.656 -0.25,-1.344 -0.75,-2.047 -0.31,-0.359 -0.36,-0.453 -0.36,-0.703 0,-1 2,-1.906 4.41,-1.906 1.59,0 3.34,0.5 4.14,1.25 0.95,0.812 1.31,2 1.31,4.25 v 1.953 c -5.2,0.906 -6.86,1.297 -9.31,2.25 -4.35,1.609 -6.39,3.906 -6.39,7.109 0,3.594 2.79,5.844 7.25,5.844 3.45,0 6.54,-1.406 8.7,-3.953 0.8,2.547 2.05,3.547 4.39,3.547 2.25,0 4.61,-1.438 4.61,-2.891 0,-0.359 -0.2,-0.609 -0.5,-0.609 -0.2,0 -0.41,0.062 -0.75,0.203 -0.7,0.297 -1,0.359 -1.41,0.359 -1.4,0 -1.9,-0.906 -1.9,-3.453 v -10.047 m -4.69,6.094 c 0,3 -0.16,3.703 -1,5 -1.25,1.844 -3.5,3.094 -5.7,3.094 -2.3,0 -3.96,-1.641 -3.96,-3.891 0,-2.109 1.05,-3.609 3.25,-4.656 1.55,-0.703 3.5,-1.203 7.41,-1.844 v 2.297"
           id="path118" />
        <path
           class="Lyrics"
           d="m 2449.07,534.139 -9.25,0.563 v 2.141 h 2.45 c 1.85,0.046 2.1,0.359 2.1,2.5 v 27.859 c -0.05,0.75 -0.1,1.047 -0.3,1.297 -0.36,0.453 -1.3,0.656 -3.45,0.703 h -0.35 v 1.797 h 12.94 v -1.797 h -0.34 c -3.35,-0.109 -3.8,-0.359 -3.8,-2.156 v -32.907 m 28.39,20.766 c 0,-3.156 -0.55,-4.75 -2,-5.953 -1.64,-1.359 -4.09,-2 -7.3,-2 -5.64,0 -9.75,2.641 -9.75,6.297 0,1.844 1.16,3.047 2.91,3.047 1.59,0 2.7,-1.047 2.7,-2.547 0,-0.656 -0.25,-1.344 -0.75,-2.047 -0.31,-0.359 -0.36,-0.453 -0.36,-0.703 0,-1 2,-1.906 4.41,-1.906 1.59,0 3.34,0.5 4.14,1.25 0.95,0.812 1.31,2 1.31,4.25 v 1.953 c -5.2,0.906 -6.86,1.297 -9.31,2.25 -4.34,1.609 -6.39,3.906 -6.39,7.109 0,3.594 2.8,5.844 7.25,5.844 3.45,0 6.55,-1.406 8.7,-3.953 0.8,2.547 2.05,3.547 4.39,3.547 2.25,0 4.61,-1.438 4.61,-2.891 0,-0.359 -0.2,-0.609 -0.5,-0.609 -0.2,0 -0.4,0.062 -0.75,0.203 -0.7,0.297 -1,0.359 -1.4,0.359 -1.41,0 -1.91,-0.906 -1.91,-3.453 v -10.047 m -4.69,6.094 c 0,3 -0.15,3.703 -1,5 -1.25,1.844 -3.5,3.094 -5.7,3.094 -2.3,0 -3.95,-1.641 -3.95,-3.891 0,-2.109 1.04,-3.609 3.25,-4.656 1.54,-0.703 3.5,-1.203 7.4,-1.844 v 2.297"
           id="path120" />
        <path
           class="Lyrics"
           d="m 1647.83,571.343 8.71,-0.344 v -2.156 h -0.91 c -2.84,-0.141 -3.09,-0.438 -3.09,-3.641 v -31.063 l -9.8,0.563 v 2.141 h 2.94 c 1.9,0.046 2.15,0.359 2.15,2.5 v 11.312 c -1.84,-2.562 -4,-3.703 -6.9,-3.703 -5.64,0 -9.94,5.453 -9.94,12.641 0,7.109 4.14,12.156 9.94,12.156 3.15,0 5.31,-1.344 6.9,-4.344 v 3.938 m -5.9,-21.688 c 2.06,0 4,1.5 4.9,3.797 0.66,1.5 0.96,3.547 0.96,6 0,5.844 -2.3,9.594 -5.91,9.594 -3.55,0 -5.64,-3.297 -5.64,-8.844 0,-3 0.3,-5.25 0.94,-6.906 0.86,-2.25 2.7,-3.641 4.75,-3.641 m 28.5,-2.703 c -6.14,0 -10.89,5.453 -10.89,12.453 0,6.844 4.79,12.344 10.79,12.344 6,0 10.8,-5.5 10.8,-12.406 0,-6.844 -4.8,-12.391 -10.7,-12.391 m 0,2.141 c 3.5,0 5.45,3.656 5.45,10.25 0,6.656 -1.95,10.25 -5.55,10.25 -3.59,0 -5.54,-3.594 -5.54,-10.188 0,-6.812 1.89,-10.312 5.64,-10.312"
           id="path124" />
        <path
           class="Lyrics"
           d="m 2272.3,571.343 8.71,-0.344 v -2.156 h -0.91 c -2.84,-0.141 -3.09,-0.438 -3.09,-3.641 v -31.063 l -9.8,0.563 v 2.141 h 2.94 c 1.9,0.046 2.15,0.359 2.15,2.5 v 11.312 c -1.84,-2.562 -4,-3.703 -6.9,-3.703 -5.64,0 -9.94,5.453 -9.94,12.641 0,7.109 4.14,12.156 9.94,12.156 3.15,0 5.31,-1.344 6.9,-4.344 v 3.938 m -5.9,-21.688 c 2.06,0 4,1.5 4.9,3.797 0.66,1.5 0.96,3.547 0.96,6 0,5.844 -2.3,9.594 -5.91,9.594 -3.55,0 -5.64,-3.297 -5.64,-8.844 0,-3 0.3,-5.25 0.94,-6.906 0.86,-2.25 2.7,-3.641 4.75,-3.641 m 28.5,-2.703 c -6.14,0 -10.89,5.453 -10.89,12.453 0,6.844 4.79,12.344 10.79,12.344 6,0 10.8,-5.5 10.8,-12.406 0,-6.844 -4.8,-12.391 -10.7,-12.391 m 0,2.141 c 3.5,0 5.45,3.656 5.45,10.25 0,6.656 -1.95,10.25 -5.55,10.25 -3.59,0 -5.54,-3.594 -5.54,-10.188 0,-6.812 1.89,-10.312 5.64,-10.312"
           id="path126" />
        <path
           class="Lyrics"
           d="m 1525.11,571.343 8.71,-0.344 v -2.156 h -0.91 c -2.84,-0.141 -3.09,-0.438 -3.09,-3.641 v -31.063 l -9.8,0.563 v 2.141 h 2.94 c 1.9,0.046 2.15,0.359 2.15,2.5 v 11.312 c -1.84,-2.562 -4,-3.703 -6.9,-3.703 -5.64,0 -9.94,5.453 -9.94,12.641 0,7.109 4.14,12.156 9.94,12.156 3.15,0 5.31,-1.344 6.9,-4.344 v 3.938 m -5.9,-21.688 c 2.06,0 4,1.5 4.9,3.797 0.66,1.5 0.96,3.547 0.96,6 0,5.844 -2.3,9.594 -5.91,9.594 -3.55,0 -5.64,-3.297 -5.64,-8.844 0,-3 0.3,-5.25 0.94,-6.906 0.86,-2.25 2.7,-3.641 4.75,-3.641 m 28.5,-2.703 c -6.14,0 -10.89,5.453 -10.89,12.453 0,6.844 4.79,12.344 10.79,12.344 6,0 10.8,-5.5 10.8,-12.406 0,-6.844 -4.8,-12.391 -10.7,-12.391 m 0,2.141 c 3.5,0 5.45,3.656 5.45,10.25 0,6.656 -1.95,10.25 -5.55,10.25 -3.59,0 -5.54,-3.594 -5.54,-10.188 0,-6.812 1.89,-10.312 5.64,-10.312"
           id="path127" />
        <path
           class="Lyrics"
           d="m 929.312,571.343 8.703,-0.344 v -2.156 h -0.906 c -2.844,-0.141 -3.094,-0.438 -3.094,-3.641 v -31.063 l -9.796,0.563 v 2.141 h 2.937 c 1.906,0.046 2.156,0.359 2.156,2.5 v 11.312 c -1.843,-2.562 -4,-3.703 -6.906,-3.703 -5.641,0 -9.937,5.453 -9.937,12.641 0,7.109 4.14,12.156 9.937,12.156 3.156,0 5.313,-1.344 6.906,-4.344 v 3.938 m -5.906,-21.688 c 2.063,0 4,1.5 4.906,3.797 0.657,1.5 0.953,3.547 0.953,6 0,5.844 -2.296,9.594 -5.906,9.594 -3.547,0 -5.64,-3.297 -5.64,-8.844 0,-3 0.296,-5.25 0.937,-6.906 0.859,-2.25 2.703,-3.641 4.75,-3.641 m 28.5,-2.703 c -6.141,0 -10.891,5.453 -10.891,12.453 0,6.844 4.797,12.344 10.797,12.344 6,0 10.797,-5.5 10.797,-12.406 0,-6.844 -4.797,-12.391 -10.703,-12.391 m 0,2.141 c 3.5,0 5.453,3.656 5.453,10.25 0,6.656 -1.953,10.25 -5.547,10.25 -3.593,0 -5.547,-3.594 -5.547,-10.188 0,-6.812 1.891,-10.312 5.641,-10.312"
           id="path129" />
        <path
           class="Lyrics"
           d="m 1439.1,571.343 8.7,-0.344 v -2.156 h -0.9 c -2.85,-0.141 -3.1,-0.438 -3.1,-3.641 v -31.063 l -9.8,0.563 v 2.141 h 2.94 c 1.91,0.046 2.16,0.359 2.16,2.5 v 11.312 c -1.85,-2.562 -4,-3.703 -6.91,-3.703 -5.64,0 -9.94,5.453 -9.94,12.641 0,7.109 4.15,12.156 9.94,12.156 3.16,0 5.31,-1.344 6.91,-4.344 v 3.938 m -5.91,-21.688 c 2.06,0 4,1.5 4.91,3.797 0.65,1.5 0.95,3.547 0.95,6 0,5.844 -2.3,9.594 -5.9,9.594 -3.55,0 -5.65,-3.297 -5.65,-8.844 0,-3 0.3,-5.25 0.94,-6.906 0.86,-2.25 2.71,-3.641 4.75,-3.641 m 28.5,-2.703 c -6.14,0 -10.89,5.453 -10.89,12.453 0,6.844 4.8,12.344 10.8,12.344 6,0 10.8,-5.5 10.8,-12.406 0,-6.844 -4.8,-12.391 -10.71,-12.391 m 0,2.141 c 3.5,0 5.46,3.656 5.46,10.25 0,6.656 -1.96,10.25 -5.55,10.25 -3.6,0 -5.55,-3.594 -5.55,-10.188 0,-6.812 1.89,-10.312 5.64,-10.312"
           id="path130" />
        <path
           class="Lyrics"
           d="m 1349.79,534.139 -9.25,0.563 v 2.141 h 2.45 c 1.84,0.046 2.09,0.359 2.09,2.5 v 27.859 c -0.04,0.75 -0.09,1.047 -0.29,1.297 -0.36,0.453 -1.3,0.656 -3.46,0.703 h -0.34 v 1.797 h 12.94 v -1.797 h -0.35 c -3.34,-0.109 -3.79,-0.359 -3.79,-2.156 v -32.907 m 28.39,20.766 c 0,-3.156 -0.55,-4.75 -2,-5.953 -1.64,-1.359 -4.1,-2 -7.3,-2 -5.64,0 -9.75,2.641 -9.75,6.297 0,1.844 1.16,3.047 2.91,3.047 1.59,0 2.7,-1.047 2.7,-2.547 0,-0.656 -0.25,-1.344 -0.75,-2.047 -0.31,-0.359 -0.36,-0.453 -0.36,-0.703 0,-1 2,-1.906 4.41,-1.906 1.59,0 3.34,0.5 4.14,1.25 0.95,0.812 1.31,2 1.31,4.25 v 1.953 c -5.2,0.906 -6.86,1.297 -9.31,2.25 -4.35,1.609 -6.39,3.906 -6.39,7.109 0,3.594 2.79,5.844 7.25,5.844 3.45,0 6.54,-1.406 8.7,-3.953 0.8,2.547 2.05,3.547 4.39,3.547 2.25,0 4.61,-1.438 4.61,-2.891 0,-0.359 -0.2,-0.609 -0.5,-0.609 -0.2,0 -0.41,0.062 -0.75,0.203 -0.7,0.297 -1,0.359 -1.41,0.359 -1.4,0 -1.9,-0.906 -1.9,-3.453 v -10.047 m -4.69,6.094 c 0,3 -0.16,3.703 -1,5 -1.25,1.844 -3.5,3.094 -5.7,3.094 -2.3,0 -3.96,-1.641 -3.96,-3.891 0,-2.109 1.05,-3.609 3.25,-4.656 1.55,-0.703 3.5,-1.203 7.41,-1.844 v 2.297"
           id="path132" />
        <path
           class="Lyrics"
           d="m 1263.12,547.702 v -2.859 c 0,-2.5 0.15,-4.141 0.54,-5.141 0.81,-2.203 2.56,-3.563 4.56,-3.563 1.05,0 1.69,0.313 1.69,0.86 0,0.203 0,0.25 -0.29,0.64 -0.3,0.454 -0.46,1.063 -0.46,1.61 0,1.5 1.21,2.64 2.75,2.64 1.66,0 2.81,-1.25 2.81,-3.046 0,-2.891 -2.5,-4.704 -6.56,-4.704 -3.44,0 -6,1.204 -7.75,3.704 -1.5,2.109 -2,4.25 -2,8.312 v 1.547 h -4.39 v 2.141 h 4.39 v 17.359 c -0.04,0.703 -0.09,1 -0.29,1.297 -0.35,0.453 -1.3,0.656 -3.46,0.703 h -0.19 v 1.797 h 13.35 v -1.797 h -0.91 c -3.34,-0.109 -3.79,-0.359 -3.79,-2.156 v -17.203 h 5.5 v -2.141 h -5.5 m 28.54,7.203 c 0,-3.156 -0.54,-4.75 -2,-5.953 -1.64,-1.359 -4.09,-2 -7.29,-2 -5.65,0 -9.75,2.641 -9.75,6.297 0,1.844 1.15,3.047 2.9,3.047 1.6,0 2.7,-1.047 2.7,-2.547 0,-0.656 -0.25,-1.344 -0.75,-2.047 -0.31,-0.359 -0.35,-0.453 -0.35,-0.703 0,-1 2,-1.906 4.4,-1.906 1.6,0 3.35,0.5 4.14,1.25 0.96,0.812 1.31,2 1.31,4.25 v 1.953 c -5.2,0.906 -6.85,1.297 -9.31,2.25 -4.34,1.609 -6.39,3.906 -6.39,7.109 0,3.594 2.8,5.844 7.25,5.844 3.45,0 6.55,-1.406 8.7,-3.953 0.8,2.547 2.05,3.547 4.4,3.547 2.25,0 4.6,-1.438 4.6,-2.891 0,-0.359 -0.2,-0.609 -0.5,-0.609 -0.2,0 -0.4,0.062 -0.75,0.203 -0.7,0.297 -1,0.359 -1.4,0.359 -1.41,0 -1.91,-0.906 -1.91,-3.453 v -10.047 m -4.69,6.094 c 0,3 -0.15,3.703 -1,5 -1.25,1.844 -3.5,3.094 -5.7,3.094 -2.3,0 -3.95,-1.641 -3.95,-3.891 0,-2.109 1.05,-3.609 3.25,-4.656 1.55,-0.703 3.5,-1.203 7.4,-1.844 v 2.297"
           id="path133" />
        <path
           class="Lyrics"
           d="m 1059.54,547.702 v -9.906 h -2.05 c -0.5,6.5 -2.7,9.797 -6.75,10.109 v 1.938 h 4.09 v 12.75 c 0,3.5 0.1,4.75 0.6,5.906 0.81,2.094 2.81,3.25 5.7,3.25 4.5,0 7.41,-3.406 7.41,-8.703 0,-0.297 0,-0.641 -0.05,-1.141 h -2.11 c -0.14,4.5 -1.45,6.797 -3.89,6.797 -1.16,0 -2.16,-0.609 -2.5,-1.453 -0.31,-0.703 -0.45,-1.953 -0.45,-3.75 v -13.656 h 7.34 v -2.141 h -7.34 m 17.25,-12.453 c -1.61,0 -2.91,1.297 -2.91,2.89 0,1.61 1.3,2.907 2.86,2.907 1.64,0 2.94,-1.297 2.94,-2.907 0,-1.593 -1.3,-2.89 -2.89,-2.89 m 2.34,12.453 -9.39,0.547 v 2.156 h 2.55 c 1.89,0.047 2.14,0.344 2.14,2.5 v 14.297 c -0.05,0.75 -0.1,1.047 -0.3,1.297 -0.34,0.453 -1.3,0.656 -3.45,0.703 h -0.35 v 1.797 h 12.96 v -1.797 h -0.36 c -3.35,-0.109 -3.8,-0.359 -3.8,-2.156 v -19.344"
           id="path136" />
        <path
           class="Tempo"
           d="m 519.394,251.17 h -3.265 v 42.266 c -1.094,-0.687 -2.485,-1.094 -4.063,-1.281 -3.562,0 -6.437,0.39 -9.609,2.172 -3.953,2.078 -8.313,6.437 -8.313,11.281 0,4.75 4.266,7.031 8.61,7.031 6.937,0 16.64,-5.937 16.64,-13.469 v -48"
           id="path137" />
        <path
           class="Tempo"
           d="m 541.129,289.124 h 30.234 v -6.907 h -30.234 v 6.907 m 0,12.359 h 30.234 v -6.906 h -30.234 v 6.906 m 72.078,-14.219 c 0,5.688 -0.234,17.453 -8.281,17.453 -1.266,0 -1.985,-0.422 -1.985,-1.203 0,-0.359 0.125,-0.719 0.36,-1.078 1.078,-1.734 1.203,-2.094 1.203,-3.422 0,-2.875 -2.031,-4.859 -5.031,-4.859 -3.313,0 -5.704,2.531 -5.704,6 0,4.687 4.375,7.687 11.157,7.687 13.625,0 18.843,-12.125 18.843,-24 0,-5.515 -1.203,-9.609 -3.718,-13.015 -3.063,-4.094 -7.438,-6.313 -12.485,-6.313 -8.703,0 -15,6.063 -15,14.406 0,7.079 5.047,12.297 11.875,12.297 3.719,0 6.25,-1.14 8.766,-3.953 m -5.156,-19.625 c 4.375,0 4.922,7.375 4.922,10.438 0,5.281 -1.922,8.64 -4.985,8.64 -4.75,0 -5.047,-5.75 -5.047,-9.172 0,-6.546 1.75,-9.906 5.11,-9.906 m 34.234,-3.125 c -9,0 -15.594,9.188 -15.594,21.672 0,12.469 6.594,21.656 15.594,21.656 8.813,0 15.547,-9.187 15.547,-21.359 0,-7.078 -1.625,-12.297 -5.172,-16.75 -2.812,-3.406 -6.359,-5.219 -10.375,-5.219 m -0.062,3.125 c 1.796,0 3.25,1.078 3.906,3 0.781,1.985 1.25,8.281 1.25,15.719 0,6.187 -0.469,12.656 -1.016,14.703 -0.656,2.391 -2.094,3.656 -4.14,3.656 -1.86,0 -3.235,-1.015 -3.954,-3 -0.781,-1.984 -1.265,-8.343 -1.265,-15.531 0,-6.312 0.484,-12.844 1.015,-14.891 0.672,-2.39 2.11,-3.656 4.204,-3.656"
           id="path138" />
        <path
           class="StaffText"
           d="m 2209.17,323.945 h -1.89 l -1.95,3 c -3.25,-2.546 -5.45,-3.406 -9.11,-3.406 -3.95,0 -7.05,1.11 -10.2,3.656 -4.94,4 -7.25,9.047 -7.25,15.797 0,5.11 1.45,9.36 4.4,12.61 3.1,3.5 7.71,5.547 12.5,5.547 4.21,0 7.16,-1.297 10.41,-4.547 l 1.84,4.5 h 2.11 v -11 c 0,-2.547 0,-2.657 0.3,-3.11 0.45,-0.547 1.34,-0.687 4.2,-0.687 h 0.75 v -2.36 h -15.9 v 2.36 h 0.95 c 4.2,0 4.55,0.25 4.55,3.047 0,2.14 -0.35,4.093 -1,5.297 -1.25,2.453 -4.46,4.156 -7.71,4.156 -3.25,0 -6.45,-1.656 -8.15,-4.156 -1.85,-2.797 -2.64,-6.297 -2.64,-11.657 0,-11.14 3.7,-17.093 10.64,-17.093 5.7,0 9.65,4.093 11.7,12.093 h 2.16 l -0.71,-14.047"
           id="path139" />
        <path
           class="StaffText"
           d="m 2618.61,323.945 h -1.89 l -1.96,3 c -3.25,-2.546 -5.45,-3.406 -9.1,-3.406 -3.96,0 -7.05,1.11 -10.21,3.656 -4.94,4 -7.25,9.047 -7.25,15.797 0,5.11 1.46,9.36 4.41,12.61 3.09,3.5 7.7,5.547 12.5,5.547 4.2,0 7.15,-1.297 10.4,-4.547 l 1.85,4.5 h 2.11 v -11 c 0,-2.547 0,-2.657 0.29,-3.11 0.46,-0.547 1.35,-0.687 4.21,-0.687 h 0.75 v -2.36 h -15.91 v 2.36 h 0.95 c 4.21,0 4.55,0.25 4.55,3.047 0,2.14 -0.34,4.093 -1,5.297 -1.25,2.453 -4.45,4.156 -7.7,4.156 -3.25,0 -6.45,-1.656 -8.16,-4.156 -1.84,-2.797 -2.64,-6.297 -2.64,-11.657 0,-11.14 3.7,-17.093 10.64,-17.093 5.71,0 9.66,4.093 11.71,12.093 h 2.15 l -0.7,-14.047"
           id="path140" />
        <path
           class="StaffText"
           d="m 2112.56,318.402 h -2.1 l -11.5,29.14 c -1.35,3.907 -2.65,5.11 -5.5,5.313 h -0.21 v 2.344 h 13.25 v -2.344 h -1 c -2.69,0 -4.04,-0.953 -4.04,-2.86 0,-0.64 0.15,-1.25 0.45,-2.093 l 1.65,-4.407 h 13.25 l 2.71,6.704 c 0.29,0.796 0.39,1.093 0.39,1.343 0,0.813 -1.25,1.313 -3.1,1.313 h -2.1 v 2.344 h 15.5 v -2.344 h -0.69 c -2.61,-0.063 -3.06,-0.36 -4.21,-3.203 l -12.75,-31.25 m -2.45,8.187 5.64,14.203 h -11.19 l 5.55,-14.203"
           id="path141" />
        <path
           class="StaffText"
           d="m 2704.08,324.945 h -1.91 l -2,2.954 c -3.64,-2.657 -5.5,-3.36 -8.95,-3.36 -4.75,0 -8.8,2 -12.14,6 -3.21,3.813 -4.71,8.016 -4.71,13.156 0,10.797 7.05,18.454 16.91,18.454 8,0 13.09,-4.704 14.25,-13.094 l -2.36,-0.406 c -1.34,7.453 -5.14,11.156 -11.3,11.156 -7.4,0 -10.9,-5.11 -10.9,-15.906 0,-5.704 0.75,-9.454 2.45,-12.454 1.55,-2.796 4.61,-4.546 7.86,-4.546 3.5,0 6.59,1.843 8.5,5.046 0.95,1.657 1.64,3.5 2.84,7.454 h 2.21 l -0.75,-14.454"
           id="path142" />
        <path
           class="StaffText"
           d="m 1997.88,324.602 h -2.11 l -11.5,29.14 c -1.34,3.907 -2.64,5.11 -5.5,5.313 h -0.2 v 2.344 h 13.25 v -2.344 h -1 c -2.69,0 -4.05,-0.953 -4.05,-2.86 0,-0.64 0.16,-1.25 0.45,-2.093 l 1.66,-4.407 h 13.25 l 2.7,6.704 c 0.3,0.796 0.39,1.093 0.39,1.343 0,0.813 -1.25,1.313 -3.09,1.313 h -2.11 v 2.344 h 15.5 v -2.344 h -0.69 c -2.61,-0.063 -3.06,-0.36 -4.2,-3.203 l -12.75,-31.25 m -2.45,8.187 5.64,14.203 h -11.19 l 5.55,-14.203"
           id="path143" />
        <path
           class="StaffText"
           d="m 2407.31,324.602 h -2.11 l -11.5,29.14 c -1.34,3.907 -2.64,5.11 -5.5,5.313 h -0.2 v 2.344 h 13.25 v -2.344 h -1 c -2.69,0 -4.05,-0.953 -4.05,-2.86 0,-0.64 0.16,-1.25 0.46,-2.093 l 1.65,-4.407 h 13.25 l 2.71,6.704 c 0.29,0.796 0.39,1.093 0.39,1.343 0,0.813 -1.25,1.313 -3.1,1.313 h -2.11 v 2.344 h 15.5 v -2.344 h -0.68 c -2.61,-0.063 -3.07,-0.36 -4.21,-3.203 l -12.75,-31.25 m -2.45,8.187 5.64,14.203 h -11.19 l 5.55,-14.203"
           id="path144" />
        <path
           class="StaffText"
           d="m 1769.74,325.289 v 2.36 h 0.9 c 2.85,0.046 3.8,0.203 4.19,0.703 0.31,0.437 0.31,0.547 0.31,3.093 v 23.797 c 0,2.563 0,2.657 -0.31,3.11 -0.39,0.5 -1.34,0.703 -4.19,0.703 h -0.9 v 2.344 h 18.15 c 8.65,0 13.85,-3.657 13.85,-9.797 0,-5 -3.14,-7.86 -10,-9.047 2.4,-0.5 3.5,-0.953 4.8,-1.906 2.06,-1.547 3.31,-4 3.31,-6.5 0,-3.25 -2,-6.407 -4.91,-7.657 -1.8,-0.797 -4.3,-1.203 -7.25,-1.203 h -17.95 m 11,16.266 v -11.406 c 0,-1.954 0.65,-2.454 3.3,-2.5 h 2 c 4.9,0 8,1.593 8,7.046 0,4.954 -2.4,6.86 -8.85,6.86 h -4.45 m 0,2.344 h 4.4 c 7.65,0 10.46,2.046 10.46,7.546 0,6.704 -4.21,7.61 -9.86,7.61 h -2.1 c -2.5,0 -3,-0.5 -2.9,-3.156 v -12 m 28.8,19.796 c 1.5,0 7.15,-3.203 10.29,-6.5 2.56,-2.75 3.25,-6.453 3.25,-9 0,-4 -2.5,-6.843 -6.54,-6.843 -2.15,0 -4.05,0.703 -5.65,2.093 l 0.25,-20.593 c 0,-0.657 -0.56,-1.157 -1.2,-1.157 h -0.75 c -0.61,0 -1.2,0.5 -1.2,1.157 l 0.4,39.703 c 0,0.64 0.5,1.14 1.15,1.14 m 5.54,-18.593 c 2.86,0 3.21,2.953 3.21,4.093 0,4.547 -3.75,7.75 -7.1,10.204 -0.15,0.093 -0.3,0.203 -0.45,0.343 l 0.09,-12.343 c 0.11,-0.25 0.5,-0.797 1.25,-1.297 0.61,-0.453 1.75,-1 3,-1"
           id="path146" />
        <path
           class="StaffText"
           d="m 2055.22,324.602 h -2.11 l -11.5,29.14 c -1.34,3.907 -2.64,5.11 -5.5,5.313 h -0.2 v 2.344 h 13.25 v -2.344 h -1 c -2.69,0 -4.05,-0.953 -4.05,-2.86 0,-0.64 0.16,-1.25 0.46,-2.093 l 1.65,-4.407 h 13.25 l 2.7,6.704 c 0.3,0.796 0.4,1.093 0.4,1.343 0,0.813 -1.25,1.313 -3.1,1.313 h -2.11 v 2.344 h 15.5 v -2.344 h -0.69 c -2.6,-0.063 -3.06,-0.36 -4.2,-3.203 l -12.75,-31.25 m -2.45,8.187 5.64,14.203 h -11.19 l 5.55,-14.203"
           id="path147" />
        <path
           class="StaffText"
           d="m 1670.17,324.945 h -1.91 l -2,2.954 c -3.64,-2.657 -5.5,-3.36 -8.95,-3.36 -4.75,0 -8.8,2 -12.14,6 -3.2,3.813 -4.7,8.016 -4.7,13.156 0,10.797 7.04,18.454 16.9,18.454 8,0 13.1,-4.704 14.25,-13.094 l -2.36,-0.406 c -1.34,7.453 -5.14,11.156 -11.29,11.156 -7.41,0 -10.91,-5.11 -10.91,-15.906 0,-5.704 0.75,-9.454 2.45,-12.454 1.55,-2.796 4.61,-4.546 7.86,-4.546 3.5,0 6.6,1.843 8.5,5.046 0.96,1.657 1.64,3.5 2.85,7.454 h 2.2 l -0.75,-14.454"
           id="path149" />
        <path
           class="StaffText"
           d="m 614.143,325.289 h -29.75 v 2.36 h 0.891 c 2.859,0.046 3.812,0.203 4.203,0.703 0.297,0.437 0.297,0.547 0.297,3.093 v 23.797 c 0,2.563 0,2.657 -0.297,3.11 -0.391,0.5 -1.344,0.703 -4.203,0.703 h -0.891 v 2.344 h 17.141 v -2.344 h -1.641 c -2.859,0 -3.797,-0.203 -4.203,-0.703 -0.297,-0.453 -0.297,-0.61 -0.297,-3.11 v -11.343 h 1 c 5.141,-0.204 7,1.656 7.203,7.203 h 2.344 v -16.407 h -2.344 c -0.312,4.907 -2.25,6.797 -7,6.86 h -1.203 v -11.406 c -0.047,-2.11 0.453,-2.454 3.141,-2.5 h 2.312 c 8.203,-0.047 10.25,1.796 11.797,10.406 h 2.203 l -0.703,-12.766"
           id="path152" />
        <path
           class="StaffText"
           d="m 1461.44,324.945 h -1.91 l -2,2.954 c -3.64,-2.657 -5.5,-3.36 -8.95,-3.36 -4.75,0 -8.8,2 -12.14,6 -3.21,3.813 -4.71,8.016 -4.71,13.156 0,10.797 7.05,18.454 16.91,18.454 8,0 13.09,-4.704 14.25,-13.094 l -2.36,-0.406 c -1.34,7.453 -5.14,11.156 -11.3,11.156 -7.4,0 -10.9,-5.11 -10.9,-15.906 0,-5.704 0.75,-9.454 2.45,-12.454 1.55,-2.796 4.61,-4.546 7.86,-4.546 3.5,0 6.59,1.843 8.5,5.046 0.95,1.657 1.64,3.5 2.84,7.454 h 2.21 l -0.75,-14.454"
           id="path154" />
        <path
           class="StaffText"
           d="m 1289.66,325.289 h -29.75 v 2.36 h 0.89 c 2.86,0.046 3.81,0.203 4.2,0.703 0.3,0.437 0.3,0.547 0.3,3.093 v 23.797 c 0,2.563 0,2.657 -0.3,3.11 -0.39,0.5 -1.34,0.703 -4.2,0.703 h -0.89 v 2.344 h 17.14 v -2.344 h -1.64 c -2.86,0 -3.8,-0.203 -4.21,-0.703 -0.29,-0.453 -0.29,-0.61 -0.29,-3.11 v -11.343 h 1 c 5.14,-0.204 7,1.656 7.2,7.203 h 2.34 v -16.407 h -2.34 c -0.31,4.907 -2.25,6.797 -7,6.86 h -1.2 v -11.406 c -0.05,-2.11 0.45,-2.454 3.14,-2.5 h 2.31 c 8.2,-0.047 10.25,1.796 11.8,10.406 h 2.2 l -0.7,-12.766"
           id="path155" />
        <path
           class="StaffText"
           d="m 2522,318.402 h -2.11 l -11.5,29.14 c -1.34,3.907 -2.64,5.11 -5.5,5.313 h -0.2 v 2.344 h 13.25 v -2.344 h -1 c -2.69,0 -4.05,-0.953 -4.05,-2.86 0,-0.64 0.16,-1.25 0.45,-2.093 l 1.66,-4.407 h 13.25 l 2.7,6.704 c 0.3,0.796 0.39,1.093 0.39,1.343 0,0.813 -1.25,1.313 -3.09,1.313 h -2.11 v 2.344 h 15.5 v -2.344 h -0.69 c -2.61,-0.063 -3.06,-0.36 -4.2,-3.203 L 2522,318.402 m -2.45,8.187 5.64,14.203 H 2514 l 5.55,-14.203"
           id="path157" />
        <path
           class="StaffText"
           d="m 951.649,324.945 h -1.906 l -2,2.954 c -3.641,-2.657 -5.5,-3.36 -8.953,-3.36 -4.75,0 -8.797,2 -12.141,6 -3.203,3.813 -4.703,8.016 -4.703,13.156 0,10.797 7.047,18.454 16.906,18.454 8,0 13.094,-4.704 14.25,-13.094 l -2.359,-0.406 c -1.344,7.453 -5.141,11.156 -11.297,11.156 -7.406,0 -10.906,-5.11 -10.906,-15.906 0,-5.704 0.75,-9.454 2.453,-12.454 1.547,-2.796 4.609,-4.546 7.859,-4.546 3.5,0 6.594,1.843 8.5,5.046 0.954,1.657 1.641,3.5 2.844,7.454 h 2.203 l -0.75,-14.454"
           id="path158" />
        <path
           class="StaffText"
           d="m 1051.22,325.289 v 2.36 h 0.9 c 2.85,0.046 3.8,0.203 4.19,0.703 0.31,0.437 0.31,0.547 0.31,3.093 v 23.797 c 0,2.563 0,2.657 -0.31,3.11 -0.39,0.5 -1.34,0.703 -4.19,0.703 h -0.9 v 2.344 h 18.15 c 8.65,0 13.85,-3.657 13.85,-9.797 0,-5 -3.14,-7.86 -10,-9.047 2.4,-0.5 3.5,-0.953 4.8,-1.906 2.06,-1.547 3.31,-4 3.31,-6.5 0,-3.25 -2,-6.407 -4.91,-7.657 -1.8,-0.797 -4.3,-1.203 -7.25,-1.203 h -17.95 m 11,16.266 v -11.406 c 0,-1.954 0.65,-2.454 3.3,-2.5 h 2 c 4.9,0 8,1.593 8,7.046 0,4.954 -2.4,6.86 -8.85,6.86 h -4.45 m 0,2.344 h 4.4 c 7.65,0 10.46,2.046 10.46,7.546 0,6.704 -4.21,7.61 -9.86,7.61 h -2.1 c -2.5,0 -3,-0.5 -2.9,-3.156 v -12 m 28.8,19.796 c 1.5,0 7.15,-3.203 10.29,-6.5 2.56,-2.75 3.25,-6.453 3.25,-9 0,-4 -2.5,-6.843 -6.54,-6.843 -2.15,0 -4.05,0.703 -5.65,2.093 l 0.25,-20.593 c 0,-0.657 -0.56,-1.157 -1.2,-1.157 h -0.75 c -0.61,0 -1.2,0.5 -1.2,1.157 l 0.4,39.703 c 0,0.64 0.5,1.14 1.15,1.14 m 5.54,-18.593 c 2.86,0 3.21,2.953 3.21,4.093 0,4.547 -3.75,7.75 -7.1,10.204 -0.15,0.093 -0.3,0.203 -0.45,0.343 l 0.09,-12.343 c 0.11,-0.25 0.5,-0.797 1.25,-1.297 0.61,-0.453 1.75,-1 3,-1"
           id="path159" />
        <path
           class="StaffText"
           d="m 785.923,324.945 h -1.906 l -2,2.954 c -3.641,-2.657 -5.5,-3.36 -8.953,-3.36 -4.75,0 -8.797,2 -12.141,6 -3.203,3.813 -4.703,8.016 -4.703,13.156 0,10.797 7.047,18.454 16.906,18.454 8,0 13.094,-4.704 14.25,-13.094 l -2.359,-0.406 c -1.344,7.453 -5.141,11.156 -11.297,11.156 -7.406,0 -10.906,-5.11 -10.906,-15.906 0,-5.704 0.75,-9.454 2.453,-12.454 1.547,-2.796 4.609,-4.546 7.859,-4.546 3.5,0 6.594,1.843 8.5,5.046 0.953,1.657 1.641,3.5 2.844,7.454 h 2.203 l -0.75,-14.454"
           id="path163" />
        <path
           class="StaffText"
           d="m 1547.45,324.945 h -1.91 l -2,2.954 c -3.64,-2.657 -5.5,-3.36 -8.95,-3.36 -4.75,0 -8.8,2 -12.14,6 -3.2,3.813 -4.7,8.016 -4.7,13.156 0,10.797 7.04,18.454 16.9,18.454 8,0 13.1,-4.704 14.25,-13.094 l -2.36,-0.406 c -1.34,7.453 -5.14,11.156 -11.29,11.156 -7.41,0 -10.91,-5.11 -10.91,-15.906 0,-5.704 0.75,-9.454 2.45,-12.454 1.55,-2.796 4.61,-4.546 7.86,-4.546 3.5,0 6.6,1.843 8.5,5.046 0.96,1.657 1.64,3.5 2.85,7.454 h 2.2 l -0.75,-14.454"
           id="path165" />
        <path
           class="StaffText"
           d="m 1365.37,318.402 h -2.11 l -11.5,29.14 c -1.34,3.907 -2.64,5.11 -5.5,5.313 h -0.2 v 2.344 h 13.25 v -2.344 h -1 c -2.69,0 -4.05,-0.953 -4.05,-2.86 0,-0.64 0.16,-1.25 0.46,-2.093 l 1.65,-4.407 h 13.25 l 2.71,6.704 c 0.29,0.796 0.39,1.093 0.39,1.343 0,0.813 -1.25,1.313 -3.1,1.313 h -2.11 v 2.344 h 15.5 v -2.344 h -0.68 c -2.61,-0.063 -3.07,-0.36 -4.21,-3.203 l -12.75,-31.25 m -2.45,8.187 5.64,14.203 h -11.19 l 5.55,-14.203"
           id="path166" />
        <path
           class="StaffText"
           d="m 2464.66,324.602 h -2.11 l -11.5,29.14 c -1.35,3.907 -2.64,5.11 -5.5,5.313 h -0.21 v 2.344 h 13.25 v -2.344 h -1 c -2.68,0 -4.04,-0.953 -4.04,-2.86 0,-0.64 0.15,-1.25 0.45,-2.093 l 1.66,-4.407 h 13.25 l 2.7,6.704 c 0.3,0.796 0.39,1.093 0.39,1.343 0,0.813 -1.25,1.313 -3.09,1.313 h -2.11 v 2.344 h 15.5 v -2.344 h -0.69 c -2.61,-0.063 -3.06,-0.36 -4.2,-3.203 l -12.75,-31.25 m -2.46,8.187 5.64,14.203 h -11.18 l 5.54,-14.203"
           id="path169" />
        <path
           class="StaffText"
           d="m 2294.64,324.945 h -1.9 l -2,2.954 c -3.65,-2.657 -5.5,-3.36 -8.96,-3.36 -4.75,0 -8.79,2 -12.14,6 -3.2,3.813 -4.7,8.016 -4.7,13.156 0,10.797 7.05,18.454 16.9,18.454 8,0 13.1,-4.704 14.25,-13.094 l -2.35,-0.406 c -1.35,7.453 -5.15,11.156 -11.3,11.156 -7.41,0 -10.91,-5.11 -10.91,-15.906 0,-5.704 0.75,-9.454 2.46,-12.454 1.54,-2.796 4.6,-4.546 7.85,-4.546 3.5,0 6.6,1.843 8.5,5.046 0.96,1.657 1.65,3.5 2.85,7.454 h 2.2 l -0.75,-14.454"
           id="path170" />
        <path
           class="StaffText"
           d="m 689.861,318.402 h -2.109 l -11.5,29.14 c -1.344,3.907 -2.641,5.11 -5.5,5.313 h -0.203 v 2.344 h 13.25 v -2.344 h -1 c -2.688,0 -4.047,-0.953 -4.047,-2.86 0,-0.64 0.156,-1.25 0.453,-2.093 l 1.656,-4.407 h 13.25 l 2.703,6.704 c 0.297,0.796 0.391,1.093 0.391,1.343 0,0.813 -1.25,1.313 -3.094,1.313 h -2.109 v 2.344 h 15.5 v -2.344 h -0.688 c -2.609,-0.063 -3.062,-0.36 -4.203,-3.203 l -12.75,-31.25 m -2.453,8.187 5.641,14.203 h -11.188 l 5.547,-14.203"
           id="path173" />
      </g>
    </g>
  </g>
  <metadata
     id="metadata176">
    <rdf:RDF>
      <cc:Work
         rdf:about="">
        <dc:title>86</dc:title>
      </cc:Work>
    </rdf:RDF>
  </metadata>
</svg>
